<svg width="48" height="49" viewBox="0 0 48 49" fill="none" xmlns="http://www.w3.org/2000/svg">
<g clip-path="url(#clip0_7669_39419)">
<path d="M41.7393 10.1934C42.0588 9.99658 42.4828 10.0712 42.708 10.377L42.9863 10.7549C44.3619 12.6557 45.4616 14.7756 46.2295 17.0527C47.0204 19.3972 47.4434 21.9017 47.4434 24.5C47.4434 30.7753 44.9786 36.4678 40.9727 40.6777L40.5801 41.0801C36.334 45.3167 30.4776 47.9434 24 47.9434C21.599 47.9434 19.2395 47.5712 16.999 46.873L16.5527 46.7295C14.5313 46.0527 12.6136 45.1069 10.8574 43.9102L11.5811 46.5137C11.6893 46.9033 11.4621 47.316 11.0703 47.4248C10.6808 47.5329 10.269 47.3058 10.1602 46.9141L8.9502 42.5361C8.84203 42.1465 9.06918 41.7348 9.46094 41.626V41.625L13.8389 40.416L13.9854 40.3906C14.3268 40.3668 14.6538 40.5839 14.749 40.9268C14.8576 41.3181 14.6293 41.7174 14.2422 41.8359L14.2393 41.8369L11.541 42.5762C13.238 43.7493 15.0807 44.6715 17.0293 45.3301H17.0283C19.2496 46.0674 21.6019 46.459 24.0098 46.459C30.0757 46.4589 35.5628 44.0049 39.5479 40.0293L39.9141 39.6523C43.6564 35.7101 45.9688 30.3766 45.9688 24.5C45.9688 22.055 45.5677 19.7126 44.8398 17.5195L44.6924 17.0957C43.9336 14.9886 42.8659 13.0251 41.5361 11.2666C41.2878 10.9422 41.3511 10.4766 41.6768 10.2363L41.7393 10.1934ZM24 1.05664C26.3537 1.05664 28.623 1.40473 30.7695 2.04492C32.8043 2.65087 34.7071 3.53676 36.4639 4.63965L35.8008 2.25195C35.6924 1.86171 35.9193 1.45988 36.3086 1.35059C36.7113 1.23086 37.1135 1.47148 37.2217 1.86035L38.4404 6.22949C38.549 6.62038 38.3202 7.02239 37.9297 7.13086L33.5527 8.33887C33.1502 8.45824 32.7497 8.21877 32.6416 7.83008C32.533 7.43917 32.7609 7.03719 33.1514 6.92871L36.0537 6.12402C34.3041 4.97545 32.3935 4.07008 30.3467 3.45508C28.3401 2.85776 26.212 2.53125 24 2.53125C18.1236 2.53125 12.7904 4.84339 8.83105 8.60254L8.45215 8.9707C4.48563 12.9466 2.02148 18.4339 2.02148 24.5C2.02148 26.8521 2.38622 29.1012 3.06738 31.21C3.77671 33.4032 4.81262 35.4472 6.11914 37.2764C6.16282 37.3375 6.2204 37.415 6.28418 37.5059C6.30476 37.5316 6.33051 37.5675 6.35742 37.6045L6.45312 37.7314L6.4541 37.7324C6.70398 38.0584 6.63827 38.5151 6.31445 38.7637C5.98945 39.0128 5.53514 38.9474 5.28613 38.626V38.627C5.23749 38.5686 5.16963 38.4823 5.09375 38.3779V38.377L4.91504 38.1328C3.52196 36.1749 2.41088 34.0002 1.66699 31.665C0.941999 29.3959 0.556641 26.9948 0.556641 24.5C0.556641 18.0224 3.18329 12.166 7.41992 7.91992L7.82227 7.52734C12.0322 3.52141 17.7247 1.05664 24 1.05664ZM32.8496 13.0938C33.1709 13.0938 33.4412 13.2865 33.5508 13.5664L38.668 25.3457L38.7031 25.4268C38.7346 25.5102 38.7529 25.5995 38.7529 25.6904C38.7529 27.184 38.1912 28.5442 37.2559 29.5654L37.0645 29.7646C36.0246 30.8044 34.574 31.4531 32.9902 31.4531C31.3972 31.453 29.9567 30.8042 28.917 29.7646C27.8797 28.7274 27.2316 27.2909 27.2285 25.7021L27.2266 25.6201C27.2306 25.5385 27.2534 25.4524 27.2939 25.377L31.7168 14.6152H24.625V34.3467H26.5596C26.9803 34.3468 27.3154 34.6827 27.3154 35.1035C27.3152 35.5241 26.9802 35.8593 26.5596 35.8594H24.0869C24.0258 35.8768 23.9528 35.8964 23.8691 35.8965C23.7928 35.8965 23.7196 35.8873 23.6455 35.8594H21.1777C20.7572 35.8592 20.4221 35.5241 20.4219 35.1035C20.4219 34.6828 20.7571 34.3469 21.1777 34.3467H23.1123V14.6152H16.043L20.7051 25.3555L20.7402 25.4365C20.7717 25.5199 20.791 25.6093 20.791 25.7002C20.791 27.2931 20.1513 28.7343 19.1016 29.7744L19.1006 29.7734C18.0608 30.813 16.6119 31.4628 15.0283 31.4629C13.435 31.4629 11.9939 30.8132 10.9541 29.7734C9.91453 28.7337 9.26568 27.2933 9.26562 25.7002C9.26562 25.5804 9.29835 25.4638 9.33984 25.3701L14.1758 13.5967C14.2832 13.3099 14.5521 13.0938 14.8877 13.0938H32.8496ZM29.0898 24.9531H36.832L32.8516 15.8037L29.0898 24.9531ZM11.1367 24.9531H18.8789L14.8984 15.8037L11.1367 24.9531Z" fill="#EB7124" stroke="#EB7124" stroke-width="0.2"/>
</g>
<defs>
<clipPath id="clip0_7669_39419">
<rect width="48" height="48" fill="white" transform="translate(0 0.5)"/>
</clipPath>
</defs>
</svg>
