<svg width="48" height="49" viewBox="0 0 48 49" fill="none" xmlns="http://www.w3.org/2000/svg">
<path d="M40.7539 22.2422C42.8463 22.2423 44.5202 23.9745 44.46 26.0322H46.1797C46.6885 26.0322 47.0994 26.4436 47.0996 26.9609C47.0996 32.1264 45.0216 37.001 41.4033 40.5801L43.1699 47.4492V47.4502C43.3757 48.2723 42.4557 48.9108 41.7549 48.4404L41.7539 48.4395L35.8994 44.3906C31.1072 46.5973 25.5987 46.7196 20.7041 44.7568V44.7559C20.3413 44.6106 20.124 44.2613 20.124 43.8994V37.8154C20.1241 37.188 20.7546 36.6812 21.4502 36.9805L21.5703 37.0264C22.1833 37.2297 22.9624 37.0404 23.4434 36.5605C24.61 35.3961 23.7813 33.3929 22.1338 33.3926C21.8879 33.3926 21.6314 33.444 21.418 33.5352L21.416 33.5361C20.8001 33.7891 20.1348 33.3314 20.1348 32.6895V26.9609C20.135 26.4552 20.545 26.0322 21.0547 26.0322H37.0479C36.9876 23.9744 38.6614 22.2422 40.7539 22.2422ZM40.7539 24.0898C39.587 24.0898 38.7167 25.1522 38.9316 26.2861L38.9766 26.4629C38.9933 26.5146 39.011 26.5618 39.0283 26.6104C39.0635 26.7086 39.0947 26.8098 39.0947 26.9502C39.0947 27.4577 38.6837 27.8689 38.1758 27.8691H21.9746V31.541C24.0676 31.4595 25.8262 33.131 25.8262 35.2422C25.826 37.3533 24.0675 39.0239 21.9746 38.9424V43.2461C26.4093 44.8471 31.3582 44.5735 35.585 42.4854L35.6963 42.4385C35.9239 42.3597 36.1771 42.3706 36.4043 42.4814L36.5156 42.5459L36.5166 42.5469L40.7725 45.4834L39.4912 40.4893V40.4883C39.4071 40.173 39.5048 39.8233 39.7588 39.5938C41.4744 37.9989 42.8688 36.0401 43.8232 33.8457C44.6454 31.9571 45.118 29.9359 45.2217 27.8799H43.3428C42.7028 27.8798 42.2409 27.2292 42.4834 26.623C42.9542 25.4279 42.0738 24.09 40.7539 24.0898ZM14.5332 1.56641C17.4614 0.495948 20.6106 0.151953 23.7217 0.578125C33.1021 1.84455 40.3357 9.87544 40.3359 19.585C40.3359 20.0926 39.9241 20.5039 39.416 20.5039H36.5791C35.9513 20.5039 35.4543 19.8864 35.7305 19.2031H35.7314C35.9847 18.5864 35.802 17.7562 35.2998 17.2549C34.1325 16.0897 32.126 16.9186 32.126 18.5625C32.126 18.807 32.166 19.0103 32.248 19.2363L32.2861 19.3496C32.4334 19.9207 31.9898 20.4931 31.3896 20.4932H15.21V24.165C17.3032 24.0832 19.0723 25.7544 19.0723 27.8662C19.0721 29.9779 17.3133 31.6485 15.21 31.5664V36.5127C15.2099 37.1405 14.569 37.6453 13.875 37.3369C10.5403 35.9872 7.68224 33.7248 5.58691 30.8701L5.17773 30.291C0.807228 23.8287 0.807361 15.3314 5.17773 8.8584C7.31408 5.70858 10.3616 3.22966 13.9512 1.79004L14.5332 1.56641ZM3.79199 20.5039C3.94918 23.5353 4.88565 26.3531 6.4082 28.7695L6.72461 29.2529L7.0498 29.7188C8.68175 31.9768 10.8467 33.8149 13.3594 35.0781V30.4287C13.3594 29.788 14.0243 29.3288 14.6309 29.583L14.7441 29.626C15.9236 30.0287 17.2107 29.1618 17.2109 27.8662C17.2109 26.6918 16.1367 25.822 14.9893 26.0469C14.8361 26.0775 14.7364 26.1183 14.6338 26.1543C14.5296 26.1908 14.4251 26.2217 14.2793 26.2217C13.7713 26.2215 13.3594 25.8103 13.3594 25.3027V20.5039H3.79199ZM26.9482 18.6562H30.2832C30.2229 16.5985 31.8969 14.8664 33.9893 14.8662C36.0824 14.8662 37.7457 16.599 37.6953 18.6562H38.4678C38.1061 11.7206 33.6158 5.70973 27.1699 3.32324L26.9482 3.24219V18.6562ZM25.0859 2.69434C21.8169 1.92904 18.3537 2.1402 15.21 3.27734V18.6562H25.0859V2.69434ZM13.3594 4.07031C7.82832 6.84218 4.12567 12.3838 3.79199 18.6455H13.3594V4.07031ZM41.6797 15.4248C41.8886 15.0026 42.3827 14.7998 42.8262 14.9688H42.8271L45.0283 15.7871L45.0293 15.7881C45.5006 15.9691 45.7427 16.4995 45.5732 16.9707L45.5723 16.9727C45.3908 17.4433 44.8593 17.6836 44.3877 17.5146H44.3867L42.1855 16.6963C41.7036 16.5158 41.4596 15.9847 41.6416 15.5117L41.6797 15.4248ZM43.4629 7.7002C43.9043 7.54506 44.4063 7.75327 44.5996 8.19531L44.6328 8.28223C44.7786 8.72063 44.5826 9.22147 44.1377 9.41504L42.0039 10.3945C41.533 10.6114 40.9864 10.4064 40.7803 9.93457V9.93359C40.5646 9.47409 40.7709 8.91997 41.2422 8.71484L43.376 7.73633L43.4629 7.7002ZM37.4404 2.14746C37.6498 1.72495 38.145 1.52199 38.5889 1.69238C39.0602 1.87337 39.3022 2.40383 39.1328 2.875L39.1318 2.87598L38.3125 5.07324L38.3115 5.07422C38.13 5.54461 37.5994 5.78497 37.1279 5.61621H37.126C36.644 5.43573 36.4001 4.90464 36.582 4.43164L37.4023 2.23535L37.4404 2.14746Z" fill="#EB7124" stroke="#EB7124" stroke-width="0.2"/>
</svg>
