<svg width="48" height="49" viewBox="0 0 48 49" fill="none" xmlns="http://www.w3.org/2000/svg">
<g clip-path="url(#clip0_7669_39428)">
<path d="M24.0007 4.12738C15.3291 4.12738 8.27431 11.1822 8.27431 19.8537C8.27431 28.5252 15.3291 35.58 24.0007 35.58C32.6723 35.58 39.7271 28.5252 39.7271 19.8538C39.7271 11.1823 32.6723 4.12738 24.0007 4.12738ZM24.0007 33.705C16.363 33.705 10.1493 27.4914 10.1493 19.8538C10.1493 12.2161 16.363 6.00238 24.0007 6.00238C31.6384 6.00238 37.8521 12.216 37.8521 19.8537C37.8521 27.4913 31.6384 33.705 24.0007 33.705ZM44.2937 40.8729L39.0728 31.8301C41.6926 28.5399 43.2606 24.3767 43.2606 19.8538C43.2606 9.23375 34.6207 0.59375 24.0007 0.59375C13.3807 0.59375 4.74077 9.23375 4.74077 19.8537C4.74077 24.3766 6.30874 28.5398 8.92859 31.83L3.70765 40.8728C3.61282 41.037 3.57003 41.2262 3.58493 41.4152C3.59983 41.6043 3.67173 41.7844 3.79113 41.9318C3.91052 42.0791 4.0718 42.1868 4.25367 42.2406C4.43554 42.2944 4.62944 42.2917 4.80977 42.233L12.5311 39.7195L14.2151 47.6631C14.2544 47.8486 14.3491 48.0179 14.4866 48.1485C14.6241 48.2791 14.798 48.3649 14.9853 48.3946C15.1726 48.4243 15.3645 48.3965 15.5357 48.3149C15.7069 48.2333 15.8493 48.1017 15.9441 47.9374L21.1599 38.9036C23.0435 39.1834 24.9581 39.1834 26.8417 38.9036L32.0574 47.9375C32.1522 48.1017 32.2946 48.2334 32.4658 48.315C32.637 48.3966 32.8289 48.4244 33.0162 48.3947C33.2035 48.365 33.3774 48.2791 33.5149 48.1485C33.6524 48.0179 33.7471 47.8487 33.7864 47.6632L35.4703 39.7196L43.1917 42.2331C43.372 42.2918 43.5659 42.2945 43.7478 42.2407C43.9297 42.1869 44.091 42.0793 44.2104 41.9319C44.3298 41.7845 44.4016 41.6044 44.4165 41.4153C44.4314 41.2262 44.3886 41.0371 44.2937 40.8729ZM15.5424 44.8832L14.1491 38.311C14.1219 38.1824 14.0678 38.061 13.9906 37.9546C13.9133 37.8482 13.8146 37.7593 13.7007 37.6936C13.5869 37.6278 13.4605 37.5868 13.3298 37.5731C13.199 37.5593 13.0668 37.5733 12.9418 37.6139L6.55352 39.6935L10.2379 33.3121C12.6654 35.7941 15.7557 37.6248 19.2204 38.5129L15.5424 44.8832ZM6.61577 19.8537C6.61577 10.2676 14.4146 2.46875 24.0007 2.46875C33.5867 2.46875 41.3856 10.2676 41.3856 19.8537C41.3856 29.4397 33.5867 37.2385 24.0007 37.2385C14.4146 37.2385 6.61577 29.4397 6.61577 19.8537ZM35.0594 37.614C34.9344 37.5734 34.8023 37.5595 34.6715 37.5732C34.5408 37.5869 34.4144 37.628 34.3006 37.6937C34.1867 37.7594 34.088 37.8484 34.0107 37.9547C33.9335 38.0611 33.8794 38.1825 33.8521 38.3111L32.4589 44.8833L28.7809 38.513C32.2455 37.6249 35.3358 35.7942 37.7634 33.3122L41.4477 39.6936L35.0594 37.614ZM35.3167 17.2237C35.2587 17.0451 35.1484 16.8881 35.0001 16.7729C34.8518 16.6577 34.6723 16.5897 34.4849 16.5778L27.4674 16.1288L24.8719 9.59356C24.8026 9.41905 24.6825 9.26937 24.5271 9.16391C24.3718 9.05845 24.1884 9.00207 24.0006 9.00207C23.8128 9.00207 23.6294 9.05845 23.474 9.16391C23.3187 9.26937 23.1986 9.41905 23.1293 9.59356L20.5338 16.1288L13.5162 16.5778C13.3289 16.5898 13.1495 16.6579 13.0013 16.773C12.853 16.8882 12.7428 17.0452 12.6848 17.2237C12.6268 17.4023 12.6237 17.5941 12.6759 17.7744C12.7281 17.9547 12.8333 18.1152 12.9777 18.2351L18.3911 22.723L16.6496 29.5356C16.603 29.7175 16.6122 29.9092 16.6759 30.0858C16.7396 30.2624 16.8549 30.4158 17.0068 30.5262C17.1587 30.6365 17.3403 30.6988 17.5279 30.7048C17.7156 30.7108 17.9007 30.6603 18.0594 30.5598L24.0007 26.7985L29.9418 30.5599C30.0918 30.6549 30.2657 30.7054 30.4433 30.7053C30.5861 30.7053 30.7271 30.6726 30.8554 30.6098C30.9838 30.5469 31.096 30.4556 31.1837 30.3428C31.2713 30.2299 31.332 30.0986 31.3611 29.9587C31.3902 29.8188 31.387 29.6741 31.3516 29.5357L29.61 22.7231L35.0234 18.2352C35.1679 18.1153 35.2732 17.9548 35.3254 17.7745C35.3777 17.5941 35.3747 17.4023 35.3167 17.2237ZM27.9564 21.6583C27.8197 21.7717 27.718 21.9215 27.6631 22.0904C27.6082 22.2592 27.6025 22.4402 27.6464 22.6122L28.9504 27.7129L24.5022 24.8967C24.3522 24.8017 24.1783 24.7512 24.0008 24.7512C23.8232 24.7512 23.6493 24.8017 23.4993 24.8967L19.0512 27.7129L20.3551 22.6122C20.3991 22.4402 20.3933 22.2592 20.3384 22.0904C20.2836 21.9215 20.1819 21.7717 20.0452 21.6583L15.9921 18.2982L21.2462 17.962C21.4234 17.9506 21.5937 17.8892 21.7374 17.7848C21.881 17.6805 21.9921 17.5375 22.0576 17.3725L24.0007 12.4795L25.9439 17.3725C26.0095 17.5375 26.1205 17.6805 26.2642 17.7848C26.4078 17.8892 26.5781 17.9506 26.7553 17.962L32.0095 18.2982L27.9564 21.6583Z" fill="#EB7124"/>
</g>
<defs>
<clipPath id="clip0_7669_39428">
<rect width="48" height="48" fill="white" transform="translate(0 0.5)"/>
</clipPath>
</defs>
</svg>
