<svg width="49" height="49" viewBox="0 0 49 49" fill="none" xmlns="http://www.w3.org/2000/svg">
<path d="M17.6221 48.5996C17.97 48.5991 18.3148 48.5269 18.6338 48.3867C18.9527 48.2465 19.2401 48.0417 19.4775 47.7852L33.8867 32.0713H33.8877C34.4034 31.5468 34.4465 30.8099 34.1875 30.2178C33.9289 29.6267 33.3609 29.1627 32.6338 29.1885V29.1875H28.1572V24.5107C34.2786 23.9779 39.0996 18.7826 39.0996 12.46V12.459C38.8956 -0.676119 21.4859 -4.22223 16.1807 7.55762H8.79297C7.85039 7.55762 7.085 8.32781 7.08496 9.27344V29.1865H2.6084V29.1875C1.88059 29.1611 1.31289 29.6263 1.05469 30.2178C0.796153 30.8103 0.839954 31.5474 1.35449 32.0703L15.7627 47.7832H15.7637C16.0016 48.0405 16.2888 48.2463 16.6084 48.3867C16.9282 48.5272 17.2733 48.5993 17.6221 48.5996ZM37.2764 13.0869C36.1584 26.1221 17.4764 25.9181 16.9297 12.4561C16.932 6.77407 21.5043 2.15332 27.123 2.15332C32.741 2.15336 37.3141 6.7741 37.3164 12.4561L37.2764 13.0869ZM17.543 46.7959C17.362 46.7776 17.1966 46.694 17.0703 46.5576L17.0693 46.5586L2.81445 31.0117L7.97754 30.9883L8.06543 30.9844C8.26985 30.9639 8.46212 30.8725 8.6084 30.7246C8.77552 30.5556 8.86914 30.3264 8.86914 30.0879V9.37402L15.5547 9.3623C13.5267 16.5795 19.0072 24.1867 26.374 24.5312V30.0889C26.3741 30.3273 26.4677 30.5567 26.6348 30.7256C26.8019 30.8944 27.0289 30.9893 27.2656 30.9893H32.4082L18.1709 46.5605C18.0284 46.7149 17.8332 46.7998 17.6221 46.7998L17.543 46.7959Z" fill="#EB7124" stroke="#EB7124" stroke-width="0.2"/>
<path d="M32.4355 17.8304C32.287 17.9804 32.0856 18.0647 31.8757 18.0647C31.6657 18.0647 31.4643 17.9804 31.3159 17.8304L21.8142 8.22406C21.7386 8.15022 21.6783 8.06188 21.6368 7.96422C21.5953 7.86655 21.5734 7.7615 21.5725 7.65521C21.5716 7.54892 21.5917 7.44351 21.6315 7.34512C21.6713 7.24674 21.7301 7.15736 21.8044 7.0822C21.8788 7.00703 21.9672 6.94759 22.0645 6.90734C22.1618 6.86709 22.2661 6.84684 22.3712 6.84776C22.4763 6.84868 22.5802 6.87077 22.6768 6.91272C22.7734 6.95468 22.8608 7.01566 22.9338 7.09212L32.4355 16.6984C32.5839 16.8485 32.6673 17.0521 32.6673 17.2644C32.6673 17.4767 32.5839 17.6802 32.4355 17.8304ZM25.9371 16.4639C25.8405 20.1583 20.4895 20.1575 20.3945 16.4639C20.4903 12.7694 25.8421 12.7702 25.9371 16.4639ZM21.9781 16.4639C22.0058 18.0417 24.3258 18.0417 24.3535 16.4639C24.3258 14.8868 22.0058 14.8868 21.9781 16.4639ZM31.0839 11.2605C27.4297 11.1636 27.4305 5.75364 31.0839 5.65678C34.738 5.75444 34.7372 11.1644 31.0839 11.2605ZM31.0839 7.25783C29.5232 7.28585 29.5232 9.63138 31.0839 9.6594C32.6445 9.63138 32.6437 7.28585 31.0839 7.25783Z" fill="#EB7124"/>
</svg>
