<svg width="48" height="48" viewBox="0 0 48 48" fill="none" xmlns="http://www.w3.org/2000/svg">
<path d="M10.9769 41.1692L10.2099 35.7464C10.1007 34.9745 9.38616 34.4358 8.61553 34.5466C7.84407 34.6557 7.30725 35.3701 7.41644 36.1419L7.58817 37.3564C6.11517 35.5367 4.95326 33.4858 4.14953 31.2865C-1.56909 15.6416 12.2415 -0.137001 28.3434 3.29992C29.1052 3.46216 29.8547 2.97639 30.0174 2.21394C30.18 1.4515 29.6941 0.701574 28.9321 0.538865C10.7498 -3.3428 -5.02098 14.4171 1.49985 32.2564C2.40899 34.7441 3.72257 37.0645 5.38756 39.1238L4.02445 38.8618C3.25909 38.7149 2.51988 39.2161 2.37289 39.9816C2.22589 40.7473 2.72698 41.4871 3.49205 41.6342L9.19355 42.7302C10.2204 43.0201 11.113 42.1304 10.9769 41.1692ZM46.5303 15.7589C45.6212 13.2712 44.3076 10.9509 42.6426 8.89158L44.0059 9.15357C44.7705 9.30038 45.5104 8.79926 45.6574 8.03372C45.8044 7.26807 45.3033 6.52821 44.5383 6.38113L38.8356 5.28489C37.8219 4.99938 36.9152 5.86976 37.0534 6.84591L37.8204 12.2688C37.9201 12.9737 38.5238 13.4828 39.2154 13.4828C40.0777 13.4828 40.7337 12.7203 40.6139 11.8732L40.4421 10.6588C41.9151 12.4784 43.077 14.5293 43.8808 16.7285C47.8858 27.6855 42.2528 39.8658 31.3241 43.8803C27.5853 45.2538 23.5612 45.5423 19.6869 44.7152C18.9252 44.5526 18.1755 45.0388 18.0129 45.8012C17.8503 46.5636 18.3362 47.3136 19.0982 47.4763C23.4937 48.4147 28.0575 48.0876 32.2964 46.5305C44.7139 41.9692 51.0801 28.206 46.5303 15.7589Z" fill="#EB7124"/>
<path d="M38.6379 24.0831C38.6379 16.001 32.0777 9.42578 24.0143 9.42578C15.9508 9.42578 9.39062 16.001 9.39062 24.0831C9.39062 32.1652 15.9508 38.7404 24.0143 38.7404C32.0777 38.7404 38.6379 32.1652 38.6379 24.0831ZM12.212 24.0831C12.212 17.5577 17.5065 12.2489 24.0143 12.2489C30.522 12.2489 35.8165 17.5577 35.8165 24.0831C35.8165 30.6085 30.522 35.9173 24.0143 35.9173C17.5065 35.9173 12.212 30.6085 12.212 24.0831Z" fill="#EB7124"/>
<path d="M28.6239 28.5953L28.6243 28.5964L28.5297 28.6172C28.4843 28.6234 28.4401 28.6364 28.3984 28.6557L28.3587 28.6705C27.73 28.9895 27.0672 29.1532 26.3974 29.1532C26.2759 29.1532 26.0479 29.121 25.7198 29.0575C25.3642 28.9962 25.009 28.9335 24.654 28.8692C24.2802 28.8017 23.9061 28.7357 23.5318 28.6713C23.1615 28.6074 22.8751 28.5768 22.6565 28.5768C22.5022 28.5768 22.3458 28.5842 22.1914 28.5989L21.5322 28.6619L21.9827 28.1763C22.0279 28.1278 22.0706 28.0795 22.1116 28.0316C22.307 27.8053 22.4741 27.556 22.6092 27.2893C22.7405 27.0233 22.8342 26.7403 22.8878 26.4484C22.9446 26.146 22.9737 25.8049 22.9737 25.435C22.9737 25.2662 22.954 25.0987 22.9147 24.9366L22.8395 24.6252L25.3578 24.6204C25.4025 24.6166 25.4408 24.6064 25.4782 24.5891C25.7574 24.4981 25.9382 24.2513 25.9382 23.9711C25.9381 23.8196 25.8849 23.6729 25.7879 23.5566C25.6909 23.4402 25.5561 23.3616 25.4072 23.3345C25.3865 23.3297 25.3653 23.327 25.3441 23.3263L25.3412 23.3265C25.3349 23.3264 25.3286 23.3262 25.3224 23.3258L25.2897 23.3281H22.5284L22.473 23.151C22.1832 22.2206 22.0366 21.4347 22.0366 20.8148C22.0355 20.5171 22.0927 20.2221 22.2049 19.9464C22.3132 19.6793 22.4699 19.4346 22.6672 19.2246C22.8612 19.0187 23.1009 18.8544 23.3797 18.7365C23.6576 18.6191 23.9729 18.5594 24.3164 18.5594C25.7142 18.5594 26.4536 19.224 26.5769 20.5913C26.5791 20.5988 26.5807 20.6065 26.5822 20.6143L26.5871 20.6762L26.5852 20.689C26.5867 20.7171 26.5946 20.7599 26.6109 20.8104C26.6762 21.2451 27.0278 21.5503 27.4502 21.5503C27.6594 21.55 27.8612 21.4725 28.0168 21.3325C28.1724 21.1925 28.2709 21 28.2934 20.7918H28.293L28.2981 20.6751C28.2983 20.6733 28.2965 20.6592 28.2958 20.6434L28.2954 20.6248C28.2462 20.0821 28.115 19.5931 27.9067 19.1752C27.6984 18.7589 27.4227 18.4052 27.0879 18.1243C26.7519 17.8421 26.3477 17.6255 25.8874 17.4806C25.4262 17.3353 24.9118 17.2617 24.3593 17.2617C23.761 17.2617 23.2082 17.3484 22.7159 17.5193C22.2228 17.6905 21.7942 17.9376 21.4421 18.2531C21.089 18.5695 20.8106 18.9635 20.6146 19.4243C20.4183 19.886 20.3187 20.4084 20.3187 20.9781C20.3187 21.2466 20.3548 21.5775 20.4263 21.9614C20.4823 22.2655 20.5678 22.6166 20.6808 23.0054L20.7745 23.3283L19.3388 23.3252C19.1782 23.3407 19.0291 23.4155 18.9205 23.5349C18.812 23.6544 18.7517 23.81 18.7515 23.9714C18.7517 24.1314 18.8113 24.2857 18.9187 24.4042C19.0261 24.5227 19.1737 24.5971 19.3328 24.6129L19.3946 24.6242L21.1471 24.6256L21.1905 24.8241C21.2568 25.1296 21.2906 25.4426 21.2906 25.7536C21.2906 26.2111 21.2471 26.6219 21.1612 26.9736C21.0757 27.3244 20.9511 27.6397 20.7906 27.9096C20.6327 28.1759 20.433 28.415 20.1992 28.6177C19.9679 28.818 19.6995 28.9982 19.4022 29.1523C18.9231 29.3117 18.3881 29.6004 18.4789 30.1057C18.553 30.5183 18.9457 30.8187 19.3644 30.7631C19.3771 30.7609 19.3775 30.7608 19.3885 30.7555C20.5591 30.2215 21.6222 29.9521 22.5537 29.9521C22.6743 29.9521 22.8428 29.9724 23.0543 30.0125C23.2662 30.0527 23.5007 30.1019 23.7513 30.1594C24.0035 30.2164 24.2645 30.2794 24.5338 30.3485C24.8031 30.4172 25.0624 30.4804 25.3119 30.5375C25.5614 30.5949 25.789 30.6455 25.9953 30.6884C26.2025 30.7315 26.3623 30.7524 26.4835 30.7524H26.5203C27.4612 30.7524 28.4601 30.3588 28.5024 30.342C28.5946 30.3018 28.8767 30.197 28.8767 30.197C29.3245 30.0954 29.5997 29.6605 29.5018 29.2241C29.4131 28.8279 29.0289 28.5522 28.6239 28.5953Z" fill="#EB7124"/>
</svg>
