<svg width="56" height="42" viewBox="0 0 56 42" fill="none" xmlns="http://www.w3.org/2000/svg">
<path d="M0.9375 28.0872H15.4573L13.7553 40.8745C13.6972 41.3117 13.9211 41.7365 14.3037 41.9151C14.426 41.972 14.5555 42 14.6832 42C14.9551 42 15.2211 41.8755 15.4033 41.6448L26.4143 27.732C26.5553 27.5544 26.6322 27.3304 26.6322 27.0987V0.988462C26.6322 0.442105 26.2125 0 25.6947 0H0.9375C0.419769 0 0 0.442105 0 0.988462V27.0987C0 27.6451 0.419769 28.0872 0.9375 28.0872ZM1.875 1.97692H24.7572V26.7406L16.0684 37.7189L17.4637 27.2358C17.5017 26.953 17.4207 26.6663 17.2426 26.4501C17.065 26.2338 16.8068 26.1103 16.5353 26.1103H1.875V1.97692Z" fill="#2920D2" fill-opacity="0.2"/>
<path d="M55.0848 0H30.9152C30.4098 0 30 0.442105 30 0.988462V27.0987C30 27.6451 30.4098 28.0872 30.9152 28.0872H45.0904L43.4288 40.8745C43.372 41.3117 43.5906 41.7365 43.9642 41.9151C44.0835 41.972 44.21 42 44.3347 42C44.6001 42 44.8598 41.8755 45.0376 41.6448L55.7873 27.732C55.9249 27.5544 56 27.3304 56 27.0987V0.988462C56 0.442105 55.5902 0 55.0848 0ZM54.1695 26.7406L45.687 37.7189L47.0491 27.2358C47.0862 26.953 47.0071 26.6663 46.8333 26.4501C46.6599 26.2338 46.4078 26.1103 46.1428 26.1103H31.8305V1.97692H54.1695V26.7406Z" fill="#2920D2" fill-opacity="0.2"/>
</svg>
