<svg width="140" height="24" viewBox="0 0 140 24" fill="none" xmlns="http://www.w3.org/2000/svg">
<g clip-path="url(#clip0_420_729)">
<path d="M139.201 9.2645L130.482 8.70195L127.192 0.447266L123.901 8.70195L115.201 9.2645L121.876 14.9457L119.682 23.552L127.192 18.7988L134.701 23.552L132.507 14.9457L139.201 9.2645Z" fill="#001A3D"/>
<path d="M132.183 14.5645L131.945 14.7666L132.023 15.0692L133.906 22.4569L127.691 18.5236V3.0518L130.018 8.8871L130.135 9.18057L130.45 9.20091L137.934 9.68381L132.183 14.5645Z" fill="#001A3D" stroke="#001A3D"/>
</g>
<g clip-path="url(#clip1_420_729)">
<path d="M24 9.2645L15.2812 8.70195L11.9906 0.447266L8.69995 8.70195L0 9.2645L6.67495 14.9457L4.4812 23.552L11.9906 18.7988L19.5 23.552L17.3062 14.9457L24 9.2645Z" fill="#001A3D"/>
<path d="M17.3059 14.9457L19.4996 23.552L11.9902 18.7988V0.447266L15.2809 8.70195L23.9996 9.2645L17.3059 14.9457Z" fill="#001A3D"/>
</g>
<g clip-path="url(#clip2_420_729)">
<path d="M52.7988 9.2645L44.0801 8.70195L40.7895 0.447266L37.4988 8.70195L28.7988 9.2645L35.4738 14.9457L33.28 23.552L40.7895 18.7988L48.2988 23.552L46.1051 14.9457L52.7988 9.2645Z" fill="#001A3D"/>
<path d="M46.1047 14.9457L48.2984 23.552L40.7891 18.7988V0.447266L44.0797 8.70195L52.7984 9.2645L46.1047 14.9457Z" fill="#001A3D"/>
</g>
<g clip-path="url(#clip3_420_729)">
<path d="M81.5977 9.2645L72.8789 8.70195L69.5883 0.447266L66.2976 8.70195L57.5977 9.2645L64.2726 14.9457L62.0789 23.552L69.5883 18.7988L77.0977 23.552L74.9039 14.9457L81.5977 9.2645Z" fill="#001A3D"/>
<path d="M74.9035 14.9457L77.0973 23.552L69.5879 18.7988V0.447266L72.8785 8.70195L81.5973 9.2645L74.9035 14.9457Z" fill="#001A3D"/>
</g>
<g clip-path="url(#clip4_420_729)">
<path d="M110.402 9.2645L101.684 8.70195L98.393 0.447266L95.1023 8.70195L86.4023 9.2645L93.0773 14.9457L90.8835 23.552L98.393 18.7988L105.902 23.552L103.709 14.9457L110.402 9.2645Z" fill="#001A3D"/>
<path d="M103.708 14.9457L105.902 23.552L98.3926 18.7988V0.447266L101.683 8.70195L110.402 9.2645L103.708 14.9457Z" fill="#001A3D"/>
</g>
<defs>
<clipPath id="clip0_420_729">
<rect width="24" height="24" fill="white" transform="translate(115.201)"/>
</clipPath>
<clipPath id="clip1_420_729">
<rect width="24" height="24" fill="white"/>
</clipPath>
<clipPath id="clip2_420_729">
<rect width="24" height="24" fill="white" transform="translate(28.7988)"/>
</clipPath>
<clipPath id="clip3_420_729">
<rect width="24" height="24" fill="white" transform="translate(57.5977)"/>
</clipPath>
<clipPath id="clip4_420_729">
<rect width="24" height="24" fill="white" transform="translate(86.4023)"/>
</clipPath>
</defs>
</svg>
