<svg width="48" height="48" viewBox="0 0 48 48" fill="none" xmlns="http://www.w3.org/2000/svg">
<path d="M0.59751 19.6355C0.267884 19.6355 0 19.3676 0 19.038C0 18.7084 0.267884 18.4405 0.59751 18.4405H9.6229C9.95253 18.4405 10.2204 18.7084 10.2204 19.038C10.2204 19.3676 9.95253 19.6355 9.6229 19.6355H0.59751ZM7.7288 27.451C7.7288 27.1213 7.46091 26.8534 7.13129 26.8534H0.798672C0.469046 26.8534 0.201162 27.1213 0.201162 27.451C0.201162 27.7806 0.469046 28.0485 0.798672 28.0485H7.13129C7.46191 28.0485 7.7288 27.7816 7.7288 27.451ZM10.072 37.0221C10.072 36.6924 9.80415 36.4246 9.47452 36.4246H4.57693C4.2473 36.4246 3.97942 36.6924 3.97942 37.0221C3.97942 37.3517 4.2473 37.6196 4.57693 37.6196H9.47452C9.80415 37.6196 10.072 37.3517 10.072 37.0221ZM48 28.4428C48 38.5647 39.7653 46.7983 29.6445 46.7983C25.0944 46.7983 20.9268 45.1333 17.7162 42.3827C17.6634 42.3977 17.6086 42.4066 17.5519 42.4066H10.3499C10.0202 42.4066 9.75237 42.1388 9.75237 41.8091C9.75237 41.4795 10.0202 41.2116 10.3499 41.2116H16.4714C14.2417 38.9122 12.6085 36.0332 11.8188 32.8256H4.35087C4.02124 32.8256 3.75336 32.5577 3.75336 32.2281C3.75336 31.8984 4.02124 31.6305 4.35087 31.6305H11.5658C11.3836 30.5949 11.288 29.5303 11.288 28.4428C11.288 26.6553 11.5459 24.9265 12.0249 23.2913H7.73876C7.40913 23.2913 7.14124 23.0234 7.14124 22.6938C7.14124 22.3642 7.40913 22.0963 7.73876 22.0963H12.4193C12.9987 20.5305 13.7894 19.0512 14.7695 17.6996L13.1851 16.1152L12.9022 16.398C12.5686 16.7326 12.1225 16.9159 11.6475 16.9159C11.1724 16.9159 10.7273 16.7316 10.3927 16.398L8.59618 14.6015C7.90407 13.9094 7.90407 12.7841 8.59618 12.0929L13.2717 7.41743C13.6063 7.08282 14.0515 6.89959 14.5265 6.89959C15.0015 6.89959 15.4466 7.08382 15.7812 7.41743L17.5768 9.21295C17.9114 9.54755 18.0946 9.9927 18.0946 10.4677C18.0946 10.9427 17.9104 11.3879 17.5768 11.7225L17.3159 11.9834L18.9002 13.5678C21.1728 11.9217 23.8357 10.7834 26.7217 10.3193V8.08863H26.3213C25.3434 8.08863 24.5467 7.29295 24.5467 6.31403V3.77461C24.5467 2.79668 25.3424 2 26.3213 2H32.9338C33.9117 2 34.7084 2.79568 34.7084 3.77461V6.31502C34.7084 7.29295 33.9127 8.08963 32.9338 8.08963H32.5643V10.3213C41.3029 11.7245 48 19.3159 48 28.4428ZM32.9348 6.89361C33.2544 6.89361 33.5144 6.63369 33.5144 6.31403V3.77461C33.5144 3.45494 33.2544 3.19502 32.9348 3.19502H26.3223C26.0027 3.19502 25.7427 3.45494 25.7427 3.77461V6.31502C25.7427 6.63469 26.0027 6.89461 26.3223 6.89461L32.9348 6.89361ZM27.9177 8.08863V10.169C28.4863 10.1152 29.0619 10.0873 29.6435 10.0873C30.2251 10.0873 30.8017 10.1162 31.3693 10.169V8.08863H27.9177ZM16.7333 10.878C16.8418 10.7695 16.9016 10.6241 16.9016 10.4687C16.9016 10.3134 16.8418 10.168 16.7333 10.0594L14.9378 8.26291C14.8292 8.15436 14.6838 8.09461 14.5285 8.09461C14.3731 8.09461 14.2277 8.15436 14.1192 8.26291L9.44365 12.9384C9.33508 13.0472 9.2741 13.1946 9.2741 13.3482C9.2741 13.5019 9.33508 13.6493 9.44365 13.758L11.2392 15.5535C11.3477 15.6621 11.4931 15.7218 11.6485 15.7218C11.8038 15.7218 11.9492 15.6621 12.0578 15.5535L16.7333 10.878ZM15.5074 16.7476C16.2434 15.8592 17.0609 15.0417 17.9492 14.3057L16.4724 12.8289L14.0305 15.2707L15.5074 16.7476ZM46.805 28.4428C46.805 18.9803 39.1071 11.2823 29.6445 11.2823C20.1819 11.2823 12.483 18.9803 12.483 28.4428C12.483 37.9054 20.1809 45.6033 29.6445 45.6033C39.1071 45.6043 46.805 37.9054 46.805 28.4428ZM43.8214 28.4428C43.8214 36.2603 37.4619 42.6198 29.6445 42.6198C21.8271 42.6198 15.4666 36.2603 15.4666 28.4428C15.4666 20.6254 21.8261 14.2659 29.6435 14.2659C37.4609 14.2659 43.8214 20.6254 43.8214 28.4428ZM42.6115 29.0403H40.1149C39.7852 29.0403 39.5173 28.7724 39.5173 28.4428C39.5173 28.1132 39.7852 27.8453 40.1149 27.8453H42.6115C42.469 24.7154 41.2133 21.8712 39.2315 19.7002L37.4699 21.4619C37.4145 21.5174 37.3486 21.5615 37.2762 21.5915C37.2037 21.6216 37.1261 21.637 37.0476 21.637C36.9692 21.637 36.8915 21.6216 36.8191 21.5915C36.7466 21.5615 36.6808 21.5174 36.6254 21.4619C36.3924 21.2289 36.3924 20.8505 36.6254 20.6164L38.3871 18.8548C36.2161 16.873 33.371 15.6173 30.242 15.4749V17.9715C30.242 18.3011 29.9741 18.569 29.6445 18.569C29.3149 18.569 29.047 18.3011 29.047 17.9715V15.4749C25.917 15.6173 23.0729 16.873 20.9019 18.8548L22.6636 20.6164C22.8966 20.8495 22.8966 21.2279 22.6636 21.4619C22.6082 21.5174 22.5423 21.5615 22.4699 21.5915C22.3974 21.6216 22.3198 21.637 22.2413 21.637C22.1629 21.637 22.0852 21.6216 22.0128 21.5915C21.9403 21.5615 21.8745 21.5174 21.8191 21.4619L20.0574 19.7002C18.0757 21.8712 16.8199 24.7164 16.6775 27.8453H19.1741C19.5037 27.8453 19.7716 28.1132 19.7716 28.4428C19.7716 28.7724 19.5037 29.0403 19.1741 29.0403H16.6775C16.8199 32.1703 18.0757 35.0144 20.0574 37.1854L21.8191 35.4237C22.0521 35.1907 22.4305 35.1907 22.6636 35.4237C22.8966 35.6568 22.8966 36.0352 22.6636 36.2692L20.9019 38.0309C23.0729 40.0126 25.918 41.2684 29.047 41.4108V38.9142C29.047 38.5846 29.3149 38.3167 29.6445 38.3167C29.9741 38.3167 30.242 38.5846 30.242 38.9142V41.4108C33.3719 41.2684 36.2161 40.0126 38.3871 38.0309L36.6254 36.2702C36.3924 36.0372 36.3924 35.6588 36.6254 35.4247C36.7374 35.3128 36.8893 35.25 37.0476 35.25C37.206 35.25 37.3578 35.3128 37.4699 35.4247L39.2315 37.1864C41.2133 35.0144 42.469 32.1703 42.6115 29.0403ZM34.1009 26.01C34.1985 26.2221 34.1637 26.471 34.0123 26.6483L26.2616 35.7185C26.1694 35.8265 26.0418 35.8981 25.9016 35.9204C25.7614 35.9426 25.6178 35.9141 25.4968 35.84C25.3757 35.766 25.2849 35.6513 25.2406 35.5165C25.1963 35.3817 25.2013 35.2355 25.2548 35.1041L27.6209 29.3232H25.7298C25.5227 29.3232 25.3305 29.2156 25.2219 29.0403C25.1686 28.9538 25.1381 28.8551 25.1334 28.7535C25.1287 28.652 25.1499 28.5509 25.195 28.4598L28.7691 21.2916C28.8188 21.1923 28.8951 21.1087 28.9895 21.0503C29.084 20.9919 29.1929 20.961 29.3039 20.961H29.3099L33.2445 21.0018C33.3508 21.003 33.4549 21.0324 33.5461 21.0872C33.6372 21.142 33.7121 21.22 33.763 21.3134C33.814 21.4067 33.8391 21.5119 33.8358 21.6182C33.8325 21.7245 33.801 21.828 33.7444 21.918L31.3852 25.6644H33.5592C33.6732 25.6636 33.785 25.6958 33.8811 25.7571C33.9773 25.8184 34.0536 25.9062 34.1009 26.01ZM32.2616 26.8574H30.3017C30.1949 26.8573 30.0901 26.8286 29.9982 26.7742C29.9062 26.7199 29.8305 26.6419 29.779 26.5483C29.7274 26.4548 29.7019 26.3491 29.705 26.2423C29.7082 26.1356 29.7399 26.0316 29.7968 25.9412L32.164 22.1839L29.6724 22.158L26.6958 28.1271H28.5112C28.7104 28.1271 28.8966 28.2267 29.0071 28.392C29.1177 28.5573 29.1396 28.7675 29.0639 28.9517L27.7693 32.1155L32.2616 26.8574Z" fill="#EB7124"/>
</svg>
