<svg width="48" height="48" viewBox="0 0 48 48" fill="none" xmlns="http://www.w3.org/2000/svg">
<path d="M32.2849 31.484C32.3735 31.5536 32.475 31.6048 32.5835 31.6347C32.6921 31.6646 32.8055 31.6726 32.9172 31.6583C33.0288 31.6439 33.1365 31.6075 33.234 31.5511C33.3314 31.4947 33.4167 31.4195 33.4847 31.3298C35.1302 29.2045 35.9957 26.6678 35.9957 23.994C35.9957 17.378 30.6138 11.9961 23.9979 11.9961C17.3819 11.9961 12 17.378 12 23.994C12 30.6099 17.3819 35.9918 23.9979 35.9918C26.4488 35.9918 28.797 35.2548 30.8024 33.8665C30.9887 33.7369 31.116 33.5386 31.1562 33.3152C31.1964 33.0918 31.1462 32.8616 31.0166 32.6753C30.8871 32.4889 30.6888 32.3616 30.4654 32.3214C30.242 32.2812 30.0118 32.3315 29.8254 32.461C28.1114 33.6522 26.0975 34.2778 23.9979 34.2778C18.3246 34.2778 13.714 29.6672 13.714 23.994C13.714 18.3207 18.3246 13.7101 23.9979 13.7101C29.6711 13.7101 34.2817 18.3207 34.2817 23.994C34.2817 26.2821 33.5362 28.4589 32.1307 30.2843C32.0614 30.3729 32.0103 30.4744 31.9806 30.5829C31.9508 30.6914 31.9428 30.8048 31.9572 30.9164C31.9715 31.028 32.0079 31.1356 32.0641 31.2331C32.1204 31.3305 32.1955 31.4158 32.2849 31.484Z" fill="#EB7124"/>
<path d="M23.9945 7.7117C20.6094 7.7117 17.3614 8.74865 14.6105 10.694C14.2248 10.9683 14.1305 11.4996 14.4048 11.8852C14.679 12.2709 15.2104 12.3652 15.596 12.0909C18.0556 10.3427 20.9608 9.4171 23.9859 9.4171C32.0159 9.4171 38.5548 15.9559 38.5548 23.9859C38.5548 32.0159 32.0159 38.5548 23.9859 38.5548C15.9559 38.5548 9.4171 32.0159 9.4171 23.9859C9.4171 20.378 10.7454 16.9158 13.1622 14.242C13.3144 14.0738 13.3937 13.852 13.3824 13.6254C13.3712 13.3987 13.2704 13.1859 13.1022 13.0336C12.934 12.8813 12.7122 12.8021 12.4856 12.8133C12.2589 12.8246 12.0461 12.9254 11.8938 13.0936C9.1957 16.0798 7.70232 19.9614 7.70313 23.9859C7.70313 32.9672 15.0047 40.2687 23.9859 40.2687C32.9672 40.2687 40.2687 32.9672 40.2687 23.9859C40.2687 15.0047 32.9672 7.70312 23.9859 7.70312L23.9945 7.7117Z" fill="#EB7124"/>
<path d="M23.9957 0C10.7638 0 0 10.7638 0 23.9957C0 28.0321 1.01982 32.0257 2.95661 35.5479C3.188 35.9593 3.7022 36.1136 4.12212 35.8907C4.53348 35.6593 4.68773 35.1452 4.46492 34.7252C2.66524 31.4515 1.71398 27.7408 1.71398 23.9957C1.71398 11.7065 11.7065 1.71398 23.9957 1.71398C36.285 1.71398 46.2775 11.7065 46.2775 23.9957C46.2775 29.2319 44.4264 34.3224 41.067 38.316C40.9943 38.4021 40.9393 38.5016 40.9052 38.609C40.871 38.7163 40.8583 38.8293 40.8679 38.9415C40.8774 39.0537 40.909 39.163 40.9608 39.263C41.0126 39.363 41.0836 39.4518 41.1698 39.5244C41.2554 39.5981 41.3548 39.654 41.4623 39.6888C41.5697 39.7236 41.683 39.7366 41.7956 39.727C41.9081 39.7175 42.0177 39.6855 42.1177 39.633C42.2177 39.5806 42.3063 39.5087 42.3782 39.4215C46.0086 35.1045 47.9995 29.6449 48 24.0043C48 10.7724 37.2362 0.00857009 24.0043 0.00857009L23.9957 0ZM38.7531 40.6727C34.6883 44.2884 29.4359 46.2832 23.9957 46.2775C18.9052 46.2775 13.9347 44.5206 9.9925 41.3241C9.2812 40.7584 8.60418 40.1071 7.9443 39.4215H11.9893C12.4606 39.4215 12.8463 39.0359 12.8463 38.5645C12.8463 38.0932 12.4606 37.7076 11.9893 37.7076H5.99036C5.51901 37.7076 5.13337 38.0932 5.13337 38.5645V44.5635C5.13337 45.0348 5.51901 45.4205 5.99036 45.4205C6.4617 45.4205 6.84735 45.0348 6.84735 44.5635V40.7499C7.5158 41.4355 8.20139 42.0868 8.91269 42.6524C13.1462 46.0889 18.5024 47.9829 23.9871 47.9829C29.8575 47.9829 35.4965 45.8404 39.8757 41.9497C39.9596 41.8748 40.0279 41.7842 40.0767 41.683C40.1255 41.5817 40.1539 41.4719 40.1603 41.3597C40.1666 41.2475 40.1508 41.1351 40.1138 41.029C40.0767 40.9229 40.0191 40.8251 39.9443 40.7413C39.8695 40.6575 39.7788 40.5892 39.6776 40.5404C39.5764 40.4915 39.4665 40.4631 39.3543 40.4568C39.2421 40.4504 39.1298 40.4662 39.0237 40.5033C38.9175 40.5403 38.8198 40.5979 38.7359 40.6727H38.7531Z" fill="#EB7124"/>
<path d="M24.7986 19.7794C24.9963 19.7788 25.1921 19.8206 25.3748 19.9022C25.5574 19.9838 25.7233 20.1037 25.8628 20.2549L26.7187 21.1786C26.7931 21.2589 26.894 21.304 26.9992 21.304C27.1044 21.304 27.2053 21.2589 27.2797 21.1786L27.8839 20.5264C27.9582 20.4461 28 20.3372 28 20.2237C28 20.1102 27.9582 20.0013 27.8839 19.921L27.028 18.9972C25.7977 17.6684 23.8023 17.6674 22.5708 18.9954C22.2777 19.3115 22.0452 19.6869 21.8867 20.1002C21.7281 20.5134 21.6466 20.9563 21.6469 21.4036V23.3343H20.4115C20.3574 23.3343 20.3039 23.3458 20.254 23.3681C20.2041 23.3904 20.1587 23.4231 20.1205 23.4644C20.0823 23.5056 20.052 23.5546 20.0313 23.6085C20.0106 23.6623 20 23.7201 20 23.7784V24.6677C20 24.726 20.0106 24.7838 20.0313 24.8377C20.052 24.8916 20.0823 24.9405 20.1205 24.9818C20.1587 25.023 20.2041 25.0557 20.254 25.0781C20.3039 25.1004 20.3574 25.1118 20.4115 25.1118H21.6469V26.445C21.6469 27.3045 21.0816 28.0216 20.3303 28.1867C20.1407 28.2284 20 28.4 20 28.6088V29.5718C20 29.628 20.0103 29.6837 20.0302 29.7357C20.0501 29.7876 20.0794 29.8348 20.1162 29.8746C20.153 29.9143 20.1968 29.9459 20.2449 29.9674C20.293 29.9889 20.3446 30 20.3967 30H27.4259C27.5311 30 27.6321 29.9549 27.7065 29.8746C27.7809 29.7943 27.8227 29.6854 27.8227 29.5718V28.6507C27.8227 28.5371 27.7809 28.4282 27.7065 28.3479C27.6321 28.2676 27.5311 28.2225 27.4259 28.2225H22.8491C23.1405 27.6829 23.294 27.0695 23.2939 26.445V25.1118H25.3673C25.4725 25.1118 25.5735 25.0667 25.6479 24.9864C25.7223 24.9061 25.7641 24.7972 25.7641 24.6836V23.7625C25.7641 23.7063 25.7538 23.6506 25.7339 23.5986C25.7139 23.5467 25.6847 23.4995 25.6479 23.4597C25.611 23.42 25.5673 23.3884 25.5192 23.3669C25.471 23.3454 25.4194 23.3343 25.3673 23.3343H23.2938V21.4036C23.2949 20.507 23.9679 19.7805 24.7986 19.7794Z" fill="#EB7124"/>
</svg>
