<svg width="48" height="48" viewBox="0 0 48 48" fill="none" xmlns="http://www.w3.org/2000/svg">
<path d="M24 25.3927V28.4489M24 19.5539V22.675M41.5472 34.823V38.7802C41.5472 39.2977 41.9672 39.7177 42.4847 39.7177H46.3594C46.8769 39.7177 47.2969 39.2977 47.2969 38.7802V9.22266C47.2969 8.70516 46.8769 8.28516 46.3594 8.28516H42.4847C41.9672 8.28516 41.5472 8.70516 41.5472 9.22266V31.5417M6.45281 17.8008V38.7802C6.45281 39.2977 6.03281 39.7177 5.51531 39.7177H1.64062C1.12313 39.7177 0.703125 39.2977 0.703125 38.7802V9.22266C0.703125 8.70516 1.12313 8.28516 1.64062 8.28516H5.51531C6.03281 8.28516 6.45281 8.70516 6.45281 9.22266V14.5195M35.7291 22.4995L38.0737 23.6789C38.3325 23.8092 38.3316 24.1786 38.0737 24.3089L31.1794 27.7889C30.8072 27.9764 30.3684 27.7055 30.3694 27.2902L30.3713 25.1658H17.6287L17.6316 27.2902C17.6316 27.7055 17.1928 27.9764 16.8216 27.7889L9.92719 24.3089C9.66844 24.1786 9.66844 23.8092 9.92625 23.6789L16.8131 20.2139C17.1853 20.0264 17.6241 20.2964 17.6241 20.7127L17.6269 22.837H30.3741L30.3759 20.7127C30.3759 20.2964 30.8156 20.0264 31.1869 20.2139L32.7684 21.0098" stroke="#EB7124" stroke-width="1.40625" stroke-miterlimit="10" stroke-linecap="round" stroke-linejoin="round"/>
</svg>
