<svg width="48" height="48" viewBox="0 0 48 48" fill="none" xmlns="http://www.w3.org/2000/svg">
<path d="M27.2671 13.4944C27.7422 13.0175 27.9746 12.4093 27.939 11.7359L27.7548 8.24155C28.2209 8.23203 28.6921 8.20357 29.1609 8.15481C32.7294 7.78376 36.2259 6.28459 36.0043 4.13743C35.7826 1.99028 32.0543 1.24263 28.4856 1.61378C27.9055 1.6736 27.3288 1.76341 26.7579 1.88285C26.6599 1.75149 26.5527 1.62727 26.4372 1.51111C25.5361 0.606598 24.3998 0.436613 23.5106 0.389309L16.2504 0.00387971C15.5795 -0.0336141 14.9737 0.201354 14.4985 0.678186L0.674055 14.5543C-0.224685 15.4565 -0.224685 16.9244 0.674055 17.8266L10.1825 27.3704C10.6171 27.8065 11.196 28.0469 11.8125 28.0469C12.4291 28.0469 13.008 27.8065 13.4426 27.3704L27.2671 13.4944ZM28.6453 3.15948C30.2647 2.99115 31.8006 3.07507 32.9699 3.3962C34.1106 3.70936 34.4461 4.12267 34.4641 4.29751C34.4821 4.47235 34.2383 4.94608 33.1857 5.48731C32.1068 6.04224 30.6208 6.44049 29.0012 6.60901C28.5498 6.65593 28.1053 6.68255 27.673 6.69051L27.5549 4.44846C27.5368 4.10615 27.5002 3.72733 27.4117 3.33938C27.8204 3.26297 28.2319 3.20296 28.6453 3.15948ZM11.8125 26.4926C11.7132 26.4931 11.6147 26.4737 11.5228 26.4358C11.431 26.3978 11.3475 26.3419 11.2773 26.2713L1.76886 16.7275C1.47379 16.4313 1.47379 15.9494 1.76886 15.6532L15.5934 1.77726C15.7441 1.62593 15.912 1.55444 16.1185 1.55444C16.135 1.55444 16.1516 1.55492 16.1685 1.55589L23.4289 1.94132C24.3642 1.99086 24.9186 2.18464 25.3424 2.60999C25.7661 3.03535 25.9592 3.59173 26.0087 4.53073L26.1194 6.63126C25.6177 6.58026 25.1501 6.49789 24.7282 6.38551C24.8242 6.11786 24.8732 5.83551 24.8731 5.55103C24.8731 4.18911 23.7692 3.0811 22.4124 3.0811C21.7551 3.0811 21.1372 3.33802 20.6724 3.80445C20.2076 4.27109 19.9516 4.89119 19.9517 5.55093C19.9517 6.91285 21.0556 8.02077 22.4124 8.02077C22.8686 8.02077 23.2958 7.89507 23.6625 7.67701C24.3881 7.94762 25.2611 8.11848 26.2019 8.19629L26.3927 11.8181C26.4049 12.0486 26.3347 12.2321 26.1722 12.3953L12.3478 26.2713C12.2776 26.3419 12.1941 26.3978 12.1023 26.4358C12.0104 26.4738 11.9119 26.4931 11.8125 26.4926ZM23.3247 5.55093C23.3247 5.60144 23.3195 5.65059 23.3117 5.69877C23.2264 5.60601 23.1882 5.52636 23.1825 5.47079C23.1761 5.40911 23.199 5.32325 23.2618 5.21902C23.3032 5.32476 23.3245 5.43733 23.3247 5.55093ZM21.6423 5.63107C21.664 5.84304 21.7224 6.04957 21.8149 6.24136C21.7161 6.15571 21.6369 6.04973 21.5826 5.93061C21.5282 5.8115 21.5001 5.68204 21.5 5.55103C21.5 5.34481 21.5681 5.14957 21.6925 4.98959C21.6312 5.22854 21.6232 5.44641 21.6423 5.63107ZM13.9705 7.07176C10.1511 7.07176 7.04381 10.1906 7.04381 14.0243C7.04381 17.8579 10.1511 20.9768 13.9705 20.9768C17.7899 20.9768 20.8973 17.8579 20.8973 14.0243C20.8973 10.1906 17.79 7.07176 13.9705 7.07176ZM13.9705 19.4227C11.0049 19.4227 8.5922 17.0009 8.5922 14.0243C8.5922 11.0476 11.0049 8.62591 13.9705 8.62591C16.9361 8.62591 19.3489 11.0477 19.3489 14.0243C19.3489 17.0009 16.9361 19.4227 13.9705 19.4227ZM27.9412 29.8094H22.7483C22.543 29.8094 22.346 29.8912 22.2009 30.037C22.0557 30.1827 21.9741 30.3803 21.9741 30.5864V47.2228C21.9741 47.4289 22.0557 47.6266 22.2009 47.7723C22.346 47.918 22.543 47.9999 22.7483 47.9999H27.9412C28.1465 47.9999 28.3434 47.918 28.4886 47.7723C28.6338 47.6266 28.7154 47.4289 28.7154 47.2228V30.5864C28.7154 30.3803 28.6338 30.1827 28.4886 30.037C28.3434 29.8912 28.1465 29.8094 27.9412 29.8094ZM27.167 46.4458H23.5225V31.3635H27.167V46.4458ZM37.5835 31.9818H32.3907C32.1853 31.9818 31.9884 32.0636 31.8432 32.2094C31.698 32.3551 31.6165 32.5527 31.6165 32.7588V47.2229C31.6165 47.429 31.698 47.6267 31.8432 47.7724C31.9884 47.9181 32.1853 48 32.3907 48H37.5835C37.7889 48 37.9858 47.9181 38.131 47.7724C38.2762 47.6267 38.3577 47.429 38.3577 47.2229V32.7588C38.3577 32.5527 38.2762 32.3551 38.131 32.2094C37.9858 32.0636 37.7889 31.9818 37.5835 31.9818ZM36.8094 46.4459H33.1648V33.5359H36.8094V46.4459ZM47.2258 22.9722H42.0329C41.8276 22.9722 41.6307 23.054 41.4855 23.1998C41.3403 23.3455 41.2587 23.5432 41.2587 23.7492V47.2228C41.2587 47.4289 41.3403 47.6266 41.4855 47.7723C41.6307 47.918 41.8276 47.9999 42.0329 47.9999H47.2258C47.4311 47.9999 47.6281 47.918 47.7732 47.7723C47.9184 47.6266 48 47.4289 48 47.2228V23.7492C48 23.5432 47.9184 23.3455 47.7732 23.1998C47.6281 23.054 47.4311 22.9722 47.2258 22.9722ZM46.4516 46.4458H42.8071V24.5263H46.4516V46.4458ZM18.2988 36.2626H13.1059C12.9006 36.2626 12.7037 36.3444 12.5585 36.4902C12.4133 36.6359 12.3317 36.8336 12.3317 37.0396V47.2228C12.3317 47.4289 12.4133 47.6266 12.5585 47.7723C12.7037 47.918 12.9006 47.9999 13.1059 47.9999H18.2988C18.5041 47.9999 18.7011 47.918 18.8463 47.7723C18.9914 47.6266 19.073 47.4289 19.073 47.2228V37.0396C19.073 36.8336 18.9914 36.6359 18.8463 36.4902C18.7011 36.3444 18.5041 36.2626 18.2988 36.2626ZM17.5246 46.4458H13.8801V37.8167H17.5246V46.4458ZM40.7193 16.0285C40.7014 15.8232 40.7654 15.6191 40.8974 15.4612C41.0294 15.3033 41.2184 15.2045 41.423 15.1865L44.5618 14.9101C44.676 14.9001 44.791 14.9156 44.8985 14.9556C45.006 14.9956 45.1033 15.0591 45.1833 15.1414C45.2634 15.2237 45.3243 15.3229 45.3616 15.4317C45.3988 15.5405 45.4115 15.6563 45.3988 15.7706L45.0487 18.9136C45.0384 19.0158 45.008 19.115 44.9593 19.2053C44.9105 19.2957 44.8445 19.3754 44.7648 19.44C44.6852 19.5045 44.5936 19.5526 44.4953 19.5814C44.3971 19.6102 44.2941 19.6191 44.1924 19.6077C44.0907 19.5963 43.9922 19.5647 43.9027 19.5149C43.8132 19.465 43.7345 19.3978 43.671 19.3172C43.6075 19.2366 43.5606 19.1442 43.533 19.0452C43.5053 18.9463 43.4975 18.8429 43.51 18.7409L43.6172 17.7784L35.509 25.9862C35.4081 26.0884 35.281 26.1604 35.1418 26.1943C35.0025 26.2282 34.8567 26.2226 34.7204 26.1783L25.4964 23.1745L16.178 30.4574C16.0423 30.5638 15.875 30.6215 15.7029 30.6214C15.5416 30.6214 15.3843 30.5709 15.253 30.4768C15.1217 30.3828 15.0229 30.2499 14.9705 30.0968C14.9181 29.9437 14.9146 29.778 14.9605 29.6228C15.0064 29.4676 15.0995 29.3307 15.2267 29.2311L24.8691 21.695C24.9689 21.617 25.0862 21.5648 25.2108 21.5428C25.3353 21.5208 25.4634 21.5299 25.5837 21.5691L34.7449 24.5525L42.5543 16.6471L41.5581 16.7348C41.132 16.7717 40.7567 16.456 40.7193 16.0285Z" fill="#EB7124"/>
<path d="M11.4574 16.7237L11.7764 17.4959C12.2694 17.3313 13.0726 17.0987 13.3138 17.0987C13.6637 17.0987 13.9242 17.1859 14.2256 17.2864C14.5491 17.3949 14.916 17.5177 15.4011 17.5177C15.8925 17.5177 16.6861 17.1318 16.8401 17.0547L16.4665 16.3051C16.1655 16.4559 15.6186 16.6797 15.4011 16.6797C15.0513 16.6797 14.7908 16.5925 14.4894 16.492C14.1659 16.3835 13.7989 16.2607 13.3138 16.2607C13.2182 16.2607 13.0943 16.2762 12.9561 16.3022C13.1894 15.8207 13.3138 15.2387 13.3138 14.5846H14.5662V13.7466H13.1577C13.1402 13.7018 13.1226 13.6561 13.1055 13.6138C12.9978 13.3494 12.8964 13.0992 12.8964 12.4896C12.8964 11.916 13.1139 11.2326 14.1488 11.2326C15.0772 11.2326 15.4099 12.1657 15.4228 12.203L16.2143 11.9377C16.1935 11.8749 15.6846 10.3945 14.1488 10.3945C12.6096 10.3945 12.0615 11.4768 12.0615 12.4896C12.0615 13.1143 12.1592 13.4743 12.261 13.7466H11.2266V14.5846H12.4789C12.4789 15.6183 12.1066 16.3981 11.4574 16.7237Z" fill="#EB7124"/>
</svg>
