<svg width="48" height="48" viewBox="0 0 48 48" fill="none" xmlns="http://www.w3.org/2000/svg">
<path fill-rule="evenodd" clip-rule="evenodd" d="M23.384 0.253096C23.5479 0.0909472 23.7692 0 23.9998 0C24.2304 0 24.4516 0.0909472 24.6155 0.253096L27.7134 3.31766C27.8784 3.48103 27.9718 3.70328 27.973 3.9355C27.9742 4.16773 27.8831 4.39092 27.7197 4.55597C27.5564 4.72102 27.3341 4.81441 27.1019 4.81561C26.8697 4.8168 26.6465 4.72569 26.4814 4.56232L24.8756 2.97312V10.7873C24.8756 11.0196 24.7833 11.2423 24.6191 11.4065C24.4549 11.5707 24.2322 11.6629 24 11.6629C23.7678 11.6629 23.5451 11.5707 23.3809 11.4065C23.2167 11.2423 23.1244 11.0196 23.1244 10.7873V8.57165C20.4456 8.71877 17.852 9.56494 15.6018 11.0259C15.5053 11.0885 15.3974 11.1315 15.2844 11.1524C15.1713 11.1733 15.0552 11.1717 14.9427 11.1477C14.8303 11.1238 14.7236 11.0779 14.6289 11.0127C14.5342 10.9475 14.4532 10.8643 14.3906 10.7678C14.328 10.6714 14.2851 10.5635 14.2642 10.4504C14.2433 10.3374 14.2448 10.2213 14.2688 10.1088C14.3172 9.88168 14.4539 9.68308 14.6487 9.55669C17.1826 7.91161 20.1069 6.96665 23.1244 6.81784V2.97356L21.5181 4.56276C21.353 4.72606 21.1298 4.8171 20.8976 4.81582C20.6654 4.81455 20.4431 4.72108 20.2798 4.55597C20.1165 4.39086 20.0255 4.16764 20.0268 3.93541C20.028 3.70318 20.1215 3.48097 20.2866 3.31766L23.384 0.253096ZM12.8813 7.62032C12.8819 7.73534 12.8599 7.84936 12.8165 7.95586C12.773 8.06237 12.709 8.15926 12.6281 8.24102C12.5472 8.32278 12.451 8.3878 12.3449 8.43236C12.2389 8.47692 12.1251 8.50015 12.0101 8.50073L9.75107 8.51298L15.276 14.038C15.3574 14.1193 15.4219 14.2158 15.4659 14.322C15.5099 14.4282 15.5326 14.5421 15.5326 14.6571C15.5326 14.7721 15.51 14.8859 15.466 14.9922C15.422 15.0984 15.3576 15.1949 15.2763 15.2763C15.195 15.3576 15.0985 15.4221 14.9922 15.4661C14.886 15.5101 14.7721 15.5328 14.6572 15.5328C14.5422 15.5329 14.4283 15.5102 14.3221 15.4662C14.2158 15.4223 14.1193 15.3578 14.038 15.2765L12.4715 13.7096C10.9118 15.4532 9.76927 17.5288 9.13028 19.7792C9.09894 19.8899 9.04612 19.9932 8.97483 20.0835C8.90354 20.1737 8.81518 20.249 8.71479 20.3051C8.6144 20.3612 8.50394 20.3969 8.38973 20.4103C8.27551 20.4237 8.15978 20.4145 8.04914 20.3832C7.9385 20.3518 7.83511 20.299 7.74488 20.2277C7.65465 20.1564 7.57934 20.0681 7.52326 19.9677C7.46718 19.8673 7.43142 19.7568 7.41803 19.6426C7.40463 19.5284 7.41387 19.4127 7.4452 19.302C8.16574 16.7641 9.46125 14.4262 11.2313 12.4698L8.51255 9.75107L8.50073 12.0101C8.50015 12.1251 8.47693 12.2388 8.4324 12.3448C8.38787 12.4508 8.32289 12.547 8.24118 12.6279C8.15946 12.7088 8.06262 12.7729 7.95616 12.8163C7.84971 12.8598 7.73574 12.8819 7.62076 12.8813C7.50577 12.8807 7.39203 12.8575 7.28602 12.813C7.18 12.7684 7.0838 12.7035 7.0029 12.6218C6.922 12.54 6.85799 12.4432 6.81452 12.3367C6.77105 12.2303 6.74897 12.1163 6.74954 12.0013L6.77275 7.64396C6.7739 7.41325 6.86606 7.19233 7.02919 7.02919C7.19233 6.86606 7.41325 6.7739 7.64396 6.77275L12.0009 6.74954C12.1159 6.74891 12.2299 6.77094 12.3364 6.81439C12.4429 6.85783 12.5398 6.92184 12.6216 7.00274C12.7034 7.08365 12.7684 7.17987 12.8129 7.28591C12.8575 7.39195 12.8807 7.5053 12.8813 7.62032ZM35.1187 7.62032C35.12 7.38817 35.2134 7.16603 35.3784 7.00274C35.5434 6.83945 35.7665 6.74838 35.9987 6.74954L40.356 6.77275C40.5867 6.77401 40.8075 6.86622 40.9705 7.02935C41.1336 7.19247 41.2257 7.41333 41.2268 7.64396L41.25 12.0009C41.2507 12.1159 41.2286 12.2299 41.1852 12.3363C41.1418 12.4428 41.0778 12.5397 40.997 12.6214C40.9161 12.7032 40.8199 12.7682 40.714 12.8128C40.608 12.8574 40.4942 12.8807 40.3792 12.8813C40.2643 12.8819 40.1503 12.8599 40.0438 12.8165C39.9373 12.7731 39.8405 12.7091 39.7587 12.6283C39.6769 12.5474 39.6119 12.4512 39.5673 12.3452C39.5227 12.2393 39.4995 12.1255 39.4988 12.0105L39.487 9.75151L33.962 15.2765C33.8807 15.3578 33.7842 15.4223 33.6779 15.4663C33.5717 15.5103 33.4578 15.533 33.3428 15.533C33.2278 15.533 33.1139 15.5103 33.0076 15.4663C32.9014 15.4223 32.8048 15.3578 32.7235 15.2765C32.6422 15.1952 32.5777 15.0986 32.5337 14.9924C32.4897 14.8861 32.467 14.7722 32.467 14.6572C32.467 14.5422 32.4897 14.4283 32.5337 14.3221C32.5777 14.2158 32.6422 14.1193 32.7235 14.038L34.2899 12.4715C32.3995 10.7802 30.1208 9.58172 27.656 8.9823C27.4303 8.92756 27.2356 8.78539 27.1147 8.58707C26.9938 8.38875 26.9566 8.15053 27.0114 7.92481C27.0661 7.69909 27.2083 7.50436 27.4066 7.38346C27.6049 7.26257 27.8432 7.22541 28.0689 7.28015C30.8462 7.95555 33.4109 9.31382 35.5302 11.2317L38.2489 8.51298L35.9895 8.50073C35.8745 8.50015 35.7607 8.47694 35.6547 8.4324C35.5487 8.38787 35.4525 8.32289 35.3716 8.24118C35.2907 8.15947 35.2267 8.06262 35.1832 7.95617C35.1398 7.84971 35.1177 7.73574 35.1183 7.62076L35.1187 7.62032ZM37.6759 15.0331C37.8764 14.9161 38.1153 14.8836 38.3398 14.9427C38.5644 15.0018 38.7562 15.1477 38.8732 15.3483C40.2547 17.7179 41.0465 20.3848 41.1817 23.1244H45.0264L43.4372 21.5181C43.3564 21.4364 43.2924 21.3395 43.249 21.233C43.2056 21.1266 43.1835 21.0126 43.1842 20.8976C43.1848 20.7826 43.2081 20.6689 43.2527 20.5629C43.2973 20.4569 43.3623 20.3607 43.444 20.2798C43.5258 20.199 43.6227 20.135 43.7291 20.0916C43.8356 20.0482 43.9496 20.0261 44.0646 20.0268C44.1796 20.0274 44.2933 20.0507 44.3993 20.0953C44.5053 20.1398 44.6015 20.2049 44.6823 20.2866L47.7469 23.384C47.9091 23.5479 48 23.7692 48 23.9998C48 24.2304 47.9091 24.4516 47.7469 24.6155L44.6823 27.7134C44.6014 27.7951 44.5052 27.8602 44.3992 27.9047C44.2932 27.9493 44.1794 27.9726 44.0644 27.9732C43.9494 27.9738 43.8354 27.9517 43.7289 27.9083C43.6225 27.8648 43.5256 27.8008 43.4438 27.7199C43.3621 27.6391 43.297 27.5429 43.2525 27.4368C43.2079 27.3308 43.1846 27.2171 43.184 27.102C43.1834 26.987 43.2055 26.873 43.2489 26.7666C43.2924 26.6601 43.3564 26.5632 43.4372 26.4814L45.0264 24.8756H37.2127C36.9804 24.8756 36.7577 24.7833 36.5935 24.6191C36.4293 24.4549 36.3371 24.2322 36.3371 24C36.3371 23.7678 36.4293 23.5451 36.5935 23.3809C36.7577 23.2167 36.9804 23.1244 37.2127 23.1244H39.4279C39.2945 20.6951 38.5858 18.3322 37.3602 16.2304C37.3023 16.1311 37.2645 16.0213 37.2491 15.9074C37.2336 15.7934 37.2407 15.6776 37.27 15.5664C37.2994 15.4552 37.3503 15.3509 37.4199 15.2594C37.4895 15.1679 37.5765 15.091 37.6759 15.0331ZM19.7346 18.1905C19.3396 18.1905 18.9607 18.3474 18.6814 18.6267C18.4021 18.906 18.2452 19.2848 18.2452 19.6798C18.2452 20.0748 18.4021 20.4537 18.6814 20.733C18.9607 21.0123 19.3396 21.1692 19.7346 21.1692C20.1296 21.1692 20.5084 21.0123 20.7877 20.733C21.067 20.4537 21.2239 20.0748 21.2239 19.6798C21.2239 19.2848 21.067 18.906 20.7877 18.6267C20.5084 18.3474 20.1296 18.1905 19.7346 18.1905ZM16.494 19.6798C16.494 19.2543 16.5778 18.8329 16.7407 18.4397C16.9035 18.0466 17.1422 17.6893 17.4431 17.3884C17.744 17.0875 18.1013 16.8488 18.4944 16.6859C18.8876 16.5231 19.309 16.4393 19.7346 16.4393C20.1601 16.4393 20.5815 16.5231 20.9747 16.6859C21.3678 16.8488 21.7251 17.0875 22.026 17.3884C22.3269 17.6893 22.5656 18.0466 22.7284 18.4397C22.8913 18.8329 22.9751 19.2543 22.9751 19.6798C22.9751 20.5393 22.6337 21.3635 22.026 21.9713C21.4183 22.579 20.594 22.9204 19.7346 22.9204C18.8751 22.9204 18.0509 22.579 17.4431 21.9713C16.8354 21.3635 16.494 20.5393 16.494 19.6798ZM29.0491 16.6687C29.143 16.7351 29.2228 16.8194 29.2841 16.9167C29.3454 17.014 29.3869 17.1224 29.4063 17.2357C29.4257 17.3491 29.4226 17.4651 29.3971 17.5772C29.3717 17.6894 29.3244 17.7954 29.2579 17.8892L19.8891 31.1221C19.7525 31.3051 19.5498 31.4275 19.3242 31.4632C19.0986 31.4989 18.868 31.445 18.6816 31.3131C18.4951 31.1811 18.3677 30.9816 18.3263 30.757C18.2849 30.5323 18.3329 30.3004 18.4601 30.1108L27.829 16.8775C27.9631 16.6881 28.167 16.5597 28.3958 16.5205C28.6246 16.4813 28.8596 16.5346 29.0491 16.6687ZM4.55575 20.2801C4.72077 20.4434 4.81417 20.6656 4.8154 20.8977C4.81663 21.1299 4.7256 21.3531 4.56232 21.5181L2.97312 23.1244H10.7873C11.0196 23.1244 11.2423 23.2167 11.4065 23.3809C11.5707 23.5451 11.6629 23.7678 11.6629 24C11.6629 24.2322 11.5707 24.4549 11.4065 24.6191C11.2423 24.7833 11.0196 24.8756 10.7873 24.8756H8.57121C8.71665 27.5205 9.54356 30.0828 10.9716 32.3137C11.0356 32.4106 11.0796 32.5192 11.1012 32.6332C11.1227 32.7473 11.1214 32.8645 11.0973 32.978C11.0732 33.0915 11.0267 33.1991 10.9606 33.2945C10.8945 33.3899 10.8102 33.4712 10.7124 33.5337C10.6146 33.5962 10.5053 33.6387 10.391 33.6586C10.2767 33.6785 10.1595 33.6755 10.0464 33.6497C9.93321 33.6239 9.8263 33.5759 9.73187 33.5085C9.63743 33.441 9.55735 33.3554 9.49627 33.2567C7.88826 30.7442 6.96493 27.855 6.81784 24.8756H2.97356L4.56276 26.4814C4.72612 26.6465 4.81721 26.8698 4.81598 27.102C4.81475 27.3343 4.7213 27.5566 4.55619 27.7199C4.39108 27.8833 4.16783 27.9744 3.93557 27.9732C3.7033 27.9719 3.48103 27.8785 3.31766 27.7134L0.253096 24.6155C0.0909472 24.4516 0 24.2304 0 23.9998C0 23.7692 0.0909472 23.5479 0.253096 23.384L3.31766 20.2866C3.48099 20.1216 3.70317 20.0282 3.93535 20.027C4.16752 20.0257 4.39068 20.1168 4.55575 20.2801ZM28.138 27.1083C27.9403 27.105 27.7439 27.141 27.5603 27.2143C27.3766 27.2876 27.2094 27.3968 27.0684 27.5354C26.9274 27.674 26.8154 27.8393 26.739 28.0217C26.6625 28.204 26.6231 28.3998 26.6231 28.5975C26.6231 28.7952 26.6625 28.991 26.739 29.1734C26.8154 29.3557 26.9274 29.521 27.0684 29.6597C27.2094 29.7983 27.3766 29.9074 27.5603 29.9807C27.7439 30.054 27.9403 30.0901 28.138 30.0867C28.5286 30.08 28.9008 29.9201 29.1747 29.6416C29.4485 29.3631 29.6019 28.9881 29.6019 28.5975C29.6019 28.2069 29.4485 27.832 29.1747 27.5534C28.9008 27.2749 28.5286 27.115 28.138 27.1083ZM24.8979 28.5977C24.8929 28.169 24.9731 27.7436 25.1337 27.3461C25.2943 26.9486 25.5322 26.5869 25.8336 26.282C26.1349 25.9771 26.4938 25.735 26.8895 25.5698C27.2851 25.4046 27.7095 25.3195 28.1383 25.3195C28.567 25.3195 28.9915 25.4046 29.3871 25.5698C29.7827 25.735 30.1416 25.9771 30.443 26.282C30.7444 26.5869 30.9822 26.9486 31.1428 27.3461C31.3035 27.7436 31.3836 28.169 31.3786 28.5977C31.3687 29.4506 31.0229 30.2652 30.4163 30.8648C29.8097 31.4644 28.9912 31.8006 28.1383 31.8006C27.2853 31.8006 26.4668 31.4644 25.8602 30.8648C25.2536 30.2652 24.9078 29.4506 24.8979 28.5977ZM40.0076 27.3518C40.232 27.4113 40.4236 27.5576 40.5402 27.7584C40.6567 27.9593 40.6888 28.1982 40.6292 28.4226C39.9264 31.0652 38.6026 33.5017 36.7679 35.5293L39.4866 38.2481L39.4993 35.989C39.5055 35.7602 39.601 35.5429 39.7655 35.3836C39.9299 35.2244 40.1502 35.1359 40.3791 35.1371C40.6081 35.1383 40.8274 35.2291 40.9902 35.3901C41.153 35.551 41.2462 35.7693 41.25 35.9982L41.2268 40.3556C41.2256 40.5862 41.1334 40.8069 40.9704 40.9699C40.8073 41.133 40.5866 41.2251 40.356 41.2264L35.9987 41.2496C35.8837 41.2502 35.7697 41.2281 35.6632 41.1847C35.5568 41.1412 35.4599 41.0773 35.3782 40.9964C35.2964 40.9155 35.2314 40.8193 35.1869 40.7133C35.1423 40.6073 35.1191 40.4936 35.1185 40.3786C35.1179 40.2636 35.1399 40.1496 35.1834 40.0432C35.2268 39.9367 35.2908 39.8398 35.3717 39.7581C35.4526 39.6764 35.5487 39.6114 35.6547 39.5668C35.7607 39.5222 35.8745 39.499 35.9895 39.4984L38.2485 39.4866L32.7235 33.9616C32.6422 33.8803 32.5777 33.7838 32.5337 33.6776C32.4896 33.5713 32.467 33.4575 32.4669 33.3425C32.4669 33.2275 32.4896 33.1136 32.5335 33.0074C32.5775 32.9012 32.642 32.8046 32.7233 32.7233C32.8046 32.642 32.9011 32.5775 33.0073 32.5334C33.1136 32.4894 33.2274 32.4667 33.3424 32.4667C33.4574 32.4667 33.5713 32.4893 33.6775 32.5333C33.7837 32.5773 33.8803 32.6418 33.9616 32.7231L35.528 34.2895C37.1453 32.4816 38.3132 30.3176 38.9367 27.9734C38.9963 27.749 39.1426 27.5574 39.3434 27.4408C39.5442 27.3242 39.7831 27.2922 40.0076 27.3518ZM15.2765 32.7231C15.4406 32.8873 15.5328 33.1099 15.5328 33.3421C15.5328 33.5743 15.4406 33.797 15.2765 33.9612L13.7096 35.528C15.5748 37.1966 17.8181 38.3859 20.2459 38.9932C20.4698 39.0507 20.6618 39.1944 20.7801 39.393C20.8984 39.5916 20.9334 39.8288 20.8775 40.0531C20.8216 40.2774 20.6792 40.4704 20.4815 40.5902C20.2838 40.7099 20.0468 40.7466 19.8221 40.6923C17.0862 40.0079 14.561 38.6601 12.4698 36.7679L9.75107 39.4866L12.0101 39.4984C12.2423 39.4996 12.4646 39.5929 12.6279 39.7579C12.7913 39.923 12.8825 40.1461 12.8813 40.3784C12.8801 40.6106 12.7868 40.8328 12.6218 40.9962C12.4567 41.1596 12.2336 41.2507 12.0013 41.2496L7.64396 41.2264C7.41333 41.2252 7.19247 41.1331 7.02935 40.9701C6.86622 40.807 6.77401 40.5862 6.77275 40.3556L6.74954 35.9982C6.74832 35.766 6.83941 35.5428 7.00275 35.3777C7.16609 35.2127 7.38832 35.1193 7.62054 35.118C7.85276 35.1168 8.07595 35.2079 8.24102 35.3712C8.40609 35.5346 8.49951 35.7568 8.50073 35.989L8.51298 38.2481L14.038 32.7231C14.1193 32.6417 14.2158 32.5772 14.3221 32.5332C14.4283 32.4892 14.5422 32.4665 14.6572 32.4665C14.7722 32.4665 14.8861 32.4892 14.9924 32.5332C15.0986 32.5772 15.1952 32.6417 15.2765 32.7231ZM24 36.3371C24.2322 36.3371 24.4549 36.4293 24.6191 36.5935C24.7833 36.7577 24.8756 36.9804 24.8756 37.2127V39.4279C27.4299 39.2875 29.9087 38.5113 32.087 37.1698C32.2848 37.048 32.5228 37.0098 32.7488 37.0636C32.8606 37.0902 32.9662 37.1386 33.0593 37.2061C33.1525 37.2735 33.2315 37.3586 33.2918 37.4565C33.3521 37.5545 33.3925 37.6633 33.4107 37.7769C33.4289 37.8904 33.4245 38.0064 33.3979 38.1183C33.3713 38.2302 33.3229 38.3357 33.2555 38.4289C33.1881 38.5221 33.103 38.6011 33.005 38.6613C30.5506 40.1728 27.7541 41.0398 24.8752 41.1817V45.0264L26.4819 43.4372C26.5636 43.3564 26.6605 43.2924 26.767 43.249C26.8734 43.2056 26.9874 43.1835 27.1024 43.1842C27.2174 43.1848 27.3311 43.2081 27.4371 43.2527C27.5431 43.2973 27.6393 43.3623 27.7202 43.444C27.801 43.5258 27.865 43.6227 27.9084 43.7291C27.9518 43.8356 27.9739 43.9496 27.9732 44.0646C27.9726 44.1796 27.9493 44.2933 27.9047 44.3993C27.8602 44.5053 27.7951 44.6015 27.7134 44.6823L24.6155 47.7469C24.4516 47.9091 24.2304 48 23.9998 48C23.7692 48 23.5479 47.9091 23.384 47.7469L20.2866 44.6823C20.1215 44.519 20.028 44.2968 20.0268 44.0646C20.0255 43.8324 20.1165 43.6091 20.2798 43.444C20.4431 43.2789 20.6654 43.1854 20.8976 43.1842C21.1298 43.1829 21.353 43.2739 21.5181 43.4372L23.1244 45.0264V37.2127C23.1244 36.9804 23.2167 36.7577 23.3809 36.5935C23.5451 36.4293 23.7678 36.3371 24 36.3371Z" fill="#EB7124"/>
</svg>
