<svg width="48" height="48" viewBox="0 0 48 48" fill="none" xmlns="http://www.w3.org/2000/svg">
<path d="M6.36794 41.3992C6.84439 43.296 7.94412 44.9777 9.49071 46.1747C11.0373 47.3717 12.9411 48.0145 14.8967 48H33.8247C35.7806 48.0144 37.6846 47.3713 39.2312 46.1741C40.7778 44.9768 41.8774 43.2947 42.3535 41.3976C44.1439 34.0592 39.6223 24.8376 34.4991 18.2296C34.9684 18.0692 35.3852 17.7842 35.705 17.4052C36.0247 17.0261 36.2354 16.5672 36.3143 16.0776C37.046 16.1878 37.7361 16.4877 38.3157 16.9475C38.8954 17.4073 39.3445 18.011 39.6183 18.6984C39.6975 18.8953 39.8516 19.0527 40.0468 19.136C40.242 19.2192 40.4622 19.2215 40.6591 19.1424C40.856 19.0633 41.0134 18.9091 41.0967 18.714C41.18 18.5188 41.1823 18.2985 41.1031 18.1016C40.744 17.1962 40.1621 16.3961 39.4114 15.7755C38.6607 15.1548 37.7655 14.7337 36.8087 14.5512C37.6301 14.0063 38.3088 13.2722 38.7876 12.4107C39.2665 11.5491 39.5316 10.5853 39.5607 9.6C39.5607 9.38783 39.4765 9.18435 39.3264 9.03432C39.1764 8.88429 38.9729 8.8 38.7607 8.8C38.5486 8.8 38.3451 8.88429 38.1951 9.03432C38.045 9.18435 37.9607 9.38783 37.9607 9.6C37.9146 10.4175 37.6608 11.2098 37.2232 11.9019C36.7856 12.594 36.1787 13.163 35.4599 13.5552C34.9456 13.0716 34.2667 12.8016 33.5607 12.8H33.0183L35.4919 8.9168C35.7998 8.43251 35.9718 7.87434 35.9899 7.30075C36.0079 6.72716 35.8714 6.15927 35.5946 5.65656C35.3179 5.15385 34.911 4.73483 34.4166 4.44338C33.9222 4.15194 33.3586 3.9988 32.7847 4H31.8559C31.979 3.52733 31.992 3.03274 31.894 2.55424C31.796 2.07575 31.5897 1.62609 31.2908 1.23981C30.9919 0.853526 30.6084 0.540911 30.1698 0.325984C29.7312 0.111058 29.2492 -0.000459709 28.7607 1.4243e-06H19.9607C19.4723 -0.000459709 18.9903 0.111058 18.5517 0.325984C18.1131 0.540911 17.7296 0.853526 17.4307 1.23981C17.1318 1.62609 16.9254 2.07575 16.8275 2.55424C16.7295 3.03274 16.7425 3.52733 16.8655 4H15.9367C15.3628 3.99885 14.7991 4.15207 14.3048 4.44361C13.8104 4.73516 13.4036 5.15429 13.1268 5.6571C12.8501 6.15991 12.7137 6.72789 12.7319 7.30153C12.7501 7.87517 12.9223 8.43336 13.2303 8.9176L15.7031 12.8H15.1607C14.5014 12.7988 13.8628 13.0309 13.3581 13.4552C12.8534 13.8795 12.515 14.4687 12.4029 15.1184C12.2907 15.7682 12.412 16.4367 12.7453 17.0056C13.0786 17.5745 13.6023 18.0073 14.2239 18.2272C9.09994 24.8368 4.57674 34.0584 6.36794 41.3992ZM14.5279 6.432C14.6651 6.17847 14.8687 5.96707 15.1169 5.82049C15.3651 5.67391 15.6485 5.59769 15.9367 5.6H17.4943L19.6223 10.708C19.704 10.9038 19.8602 11.0592 20.0564 11.1399C20.2526 11.2206 20.4729 11.2201 20.6687 11.1384C20.8646 11.0567 21.0199 10.9006 21.1007 10.7043C21.1814 10.5081 21.1808 10.2878 21.0991 10.092L18.4839 3.8152C18.3827 3.57208 18.343 3.30771 18.3684 3.04557C18.3938 2.78343 18.4836 2.53162 18.6297 2.31248C18.7758 2.09334 18.9737 1.91366 19.2059 1.78937C19.4381 1.66508 19.6974 1.60003 19.9607 1.6H28.7607C29.0241 1.60003 29.2834 1.66508 29.5156 1.78937C29.7478 1.91366 29.9457 2.09334 30.0918 2.31248C30.2379 2.53162 30.3277 2.78343 30.3531 3.04557C30.3785 3.30771 30.3388 3.57208 30.2375 3.8152L27.6223 10.092C27.5407 10.2878 27.5401 10.5081 27.6208 10.7043C27.7015 10.9006 27.8569 11.0567 28.0527 11.1384C28.2486 11.2201 28.4688 11.2206 28.6651 11.1399C28.8613 11.0592 29.0175 10.9038 29.0991 10.708L31.2271 5.6H32.7847C33.0722 5.59825 33.3549 5.67398 33.6029 5.81923C33.851 5.96449 34.0554 6.1739 34.1946 6.42546C34.3337 6.67702 34.4025 6.96142 34.3938 7.24877C34.385 7.53612 34.299 7.8158 34.1447 8.0584L31.1215 12.8H17.6015L14.5815 8.0592C14.4257 7.81841 14.3383 7.53972 14.3289 7.25304C14.3194 6.96636 14.3883 6.68253 14.5279 6.432ZM16.1279 18.4H18.7607C18.9729 18.4 19.1764 18.3157 19.3264 18.1657C19.4765 18.0157 19.5607 17.8122 19.5607 17.6C19.5607 17.3878 19.4765 17.1843 19.3264 17.0343C19.1764 16.8843 18.9729 16.8 18.7607 16.8H15.1607C14.8425 16.8 14.5373 16.6736 14.3122 16.4485C14.0872 16.2235 13.9607 15.9183 13.9607 15.6C13.9607 15.2817 14.0872 14.9765 14.3122 14.7515C14.5373 14.5264 14.8425 14.4 15.1607 14.4H33.5607C33.879 14.4 34.1842 14.5264 34.4093 14.7515C34.6343 14.9765 34.7607 15.2817 34.7607 15.6C34.7607 15.9183 34.6343 16.2235 34.4093 16.4485C34.1842 16.6736 33.879 16.8 33.5607 16.8H23.5607C23.3486 16.8 23.1451 16.8843 22.9951 17.0343C22.845 17.1843 22.7607 17.3878 22.7607 17.6C22.7607 17.8122 22.845 18.0157 22.9951 18.1657C23.1451 18.3157 23.3486 18.4 23.5607 18.4H32.5911C37.7359 24.7504 42.5295 33.9304 40.7999 41.0168C40.4084 42.5658 39.508 43.9384 38.2432 44.9145C36.9784 45.8907 35.4224 46.4138 33.8247 46.4H14.8967C13.2994 46.4141 11.7435 45.8913 10.4788 44.9154C9.21409 43.9395 8.3138 42.5671 7.92234 41.0184C6.19274 33.9304 10.9855 24.7504 16.1303 18.4H16.1279Z" fill="#EB7124"/>
<path d="M12.3625 32.7993H14.7625V39.1993C14.7625 39.4115 14.8468 39.615 14.9968 39.765C15.1468 39.915 15.3503 39.9993 15.5625 39.9993C15.7747 39.9993 15.9782 39.915 16.1282 39.765C16.2782 39.615 16.3625 39.4115 16.3625 39.1993V32.7993H18.7625C18.9747 32.7993 19.1782 32.715 19.3282 32.565C19.4782 32.415 19.5625 32.2115 19.5625 31.9993C19.5625 31.7871 19.4782 31.5837 19.3282 31.4336C19.1782 31.2836 18.9747 31.1993 18.7625 31.1993H12.3625C12.1503 31.1993 11.9468 31.2836 11.7968 31.4336C11.6468 31.5837 11.5625 31.7871 11.5625 31.9993C11.5625 32.2115 11.6468 32.415 11.7968 32.565C11.9468 32.715 12.1503 32.7993 12.3625 32.7993ZM30.3185 39.8649C30.4059 39.9232 30.5039 39.9638 30.607 39.9842C30.7101 40.0046 30.8162 40.0045 30.9192 39.984C31.0222 39.9634 31.1202 39.9227 31.2075 39.8643C31.2949 39.8058 31.3698 39.7307 31.4281 39.6433L33.1625 37.0393L34.8969 39.6409C35.0147 39.8174 35.1977 39.94 35.4058 39.9815C35.6139 40.0231 35.83 39.9803 36.0065 39.8625C36.183 39.7448 36.3056 39.5617 36.3471 39.3536C36.3887 39.1455 36.3459 38.9295 36.2281 38.7529L34.1225 35.5993L36.2265 32.4433C36.3443 32.2668 36.3871 32.0507 36.3455 31.8426C36.3039 31.6345 36.1814 31.4515 36.0049 31.3337C35.8284 31.216 35.6123 31.1732 35.4042 31.2147C35.1961 31.2563 35.0131 31.3788 34.8953 31.5553L33.1625 34.1593L31.4281 31.5577C31.3103 31.3812 31.1273 31.2587 30.9192 31.2171C30.7111 31.1756 30.495 31.2184 30.3185 31.3361C30.142 31.4539 30.0195 31.6369 29.9779 31.845C29.9363 32.0531 29.9791 32.2692 30.0969 32.4457L32.2025 35.5993L30.0985 38.7553C29.9806 38.9316 29.9375 39.1476 29.9787 39.3557C30.02 39.5638 30.1422 39.7469 30.3185 39.8649ZM20.8377 39.9305C20.9337 39.9732 21.0372 39.9965 21.1422 39.9992C21.2473 40.0019 21.3518 39.9838 21.4499 39.9461C21.5479 39.9083 21.6376 39.8516 21.7138 39.7792C21.7899 39.7068 21.8511 39.6202 21.8937 39.5241L22.7489 37.5993H25.9761L26.8313 39.5241C26.9174 39.718 27.0771 39.8698 27.2751 39.946C27.4732 40.0222 27.6934 40.0167 27.8873 39.9305C28.0812 39.8444 28.233 39.6847 28.3092 39.4867C28.3854 39.2887 28.3798 39.0685 28.2937 38.8745L27.2377 36.4993L27.2273 36.4761L25.0937 31.6761C25.0309 31.5346 24.9284 31.4144 24.7986 31.33C24.6688 31.2456 24.5173 31.2007 24.3625 31.2007C24.2077 31.2007 24.0562 31.2456 23.9264 31.33C23.7966 31.4144 23.6941 31.5346 23.6313 31.6761L21.4977 36.4761L21.4873 36.4993L20.4313 38.8745C20.3886 38.9705 20.3653 39.074 20.3626 39.1791C20.36 39.2841 20.378 39.3886 20.4158 39.4867C20.4535 39.5848 20.5102 39.6744 20.5826 39.7506C20.655 39.8267 20.7417 39.8879 20.8377 39.9305ZM24.3625 33.9689L25.2649 35.9993H23.4601L24.3625 33.9689Z" fill="#EB7124"/>
</svg>
