<svg width="34" height="34" viewBox="0 0 34 34" fill="none" xmlns="http://www.w3.org/2000/svg">
<path d="M32.3632 22.8581L24.3545 19.2693L24.3324 19.2591C23.9166 19.0813 23.463 19.0099 23.0127 19.0515C22.5625 19.0931 22.1296 19.2462 21.7534 19.4971C21.7091 19.5264 21.6666 19.5582 21.6259 19.5923L17.4881 23.1199C14.8667 21.8466 12.1602 19.1605 10.8869 16.5731L14.4196 12.3724C14.4536 12.3299 14.4859 12.2874 14.5165 12.2415C14.762 11.8663 14.911 11.4362 14.9501 10.9895C14.9893 10.5429 14.9174 10.0934 14.7409 9.68125V9.66085L11.1419 1.63847C10.9086 1.10002 10.5073 0.651468 9.99813 0.359785C9.48891 0.0681019 8.89901 -0.0510709 8.3165 0.0200562C6.01292 0.323181 3.89846 1.45448 2.36802 3.20265C0.837592 4.95082 -0.00414962 7.19632 1.53828e-05 9.51975C1.53828e-05 23.0179 10.9821 34 24.4803 34C26.8037 34.0041 29.0492 33.1624 30.7973 31.632C32.5455 30.1015 33.6768 27.9871 33.9799 25.6835C34.0512 25.1012 33.9323 24.5114 33.6409 24.0022C33.3496 23.493 32.9014 23.0917 32.3632 22.8581ZM24.4803 31.28C18.711 31.2737 13.1799 28.979 9.10042 24.8996C5.02095 20.8201 2.72634 15.289 2.72004 9.51975C2.71365 7.85966 3.31173 6.25401 4.40261 5.00265C5.49349 3.75128 7.00256 2.93978 8.648 2.71968C8.64733 2.72647 8.64733 2.7333 8.648 2.74008L12.218 10.7302L8.7041 14.936C8.66843 14.977 8.63603 15.0208 8.6072 15.0669C8.35137 15.4595 8.20129 15.9115 8.17151 16.3791C8.14172 16.8467 8.23324 17.3141 8.4372 17.7359C9.97741 20.8861 13.1513 24.0362 16.3355 25.5747C16.7604 25.7767 17.2305 25.8651 17.6998 25.8311C18.1691 25.7972 18.6216 25.642 19.013 25.3809C19.0566 25.3515 19.0986 25.3197 19.1388 25.2857L23.2715 21.7599L31.2616 25.3384C31.2616 25.3384 31.2752 25.3384 31.2803 25.3384C31.0629 26.9862 30.2526 28.4983 29.001 29.5919C27.7494 30.6854 26.1423 31.2856 24.4803 31.28Z" fill="white"/>
</svg>
