<svg width="39" height="30" viewBox="0 0 39 30" fill="none" xmlns="http://www.w3.org/2000/svg">
<path d="M37.5 0H1.5C1.10218 0 0.720644 0.158036 0.43934 0.43934C0.158035 0.720645 0 1.10218 0 1.5V27C0 27.7956 0.31607 28.5587 0.87868 29.1213C1.44129 29.6839 2.20435 30 3 30H36C36.7957 30 37.5587 29.6839 38.1213 29.1213C38.6839 28.5587 39 27.7956 39 27V1.5C39 1.10218 38.842 0.720645 38.5607 0.43934C38.2794 0.158036 37.8978 0 37.5 0ZM19.5 15.9656L5.35687 3H33.6431L19.5 15.9656ZM14.0081 15L3 25.0894V4.91063L14.0081 15ZM16.2281 17.0344L18.4781 19.1062C18.7549 19.3603 19.1168 19.5012 19.4925 19.5012C19.8682 19.5012 20.2301 19.3603 20.5069 19.1062L22.7569 17.0344L33.6319 27H5.35687L16.2281 17.0344ZM24.9919 15L36 4.90875V25.0913L24.9919 15Z" fill="white"/>
</svg>
