<svg width="28" height="35" viewBox="0 0 28 35" fill="none" xmlns="http://www.w3.org/2000/svg">
<path d="M25 32.5H17.2719C18.5701 31.3408 19.7944 30.1014 20.9375 28.7891C25.2266 23.8563 27.5 18.6562 27.5 13.75C27.5 10.1033 26.0513 6.60591 23.4727 4.02728C20.8941 1.44866 17.3967 0 13.75 0C10.1033 0 6.60591 1.44866 4.02728 4.02728C1.44866 6.60591 0 10.1033 0 13.75C0 18.6562 2.26719 23.8563 6.5625 28.7891C7.70564 30.1014 8.92992 31.3408 10.2281 32.5H2.5C2.16848 32.5 1.85054 32.6317 1.61612 32.8661C1.3817 33.1005 1.25 33.4185 1.25 33.75C1.25 34.0815 1.3817 34.3995 1.61612 34.6339C1.85054 34.8683 2.16848 35 2.5 35H25C25.3315 35 25.6495 34.8683 25.8839 34.6339C26.1183 34.3995 26.25 34.0815 26.25 33.75C26.25 33.4185 26.1183 33.1005 25.8839 32.8661C25.6495 32.6317 25.3315 32.5 25 32.5ZM2.5 13.75C2.5 10.7663 3.68526 7.90483 5.79505 5.79505C7.90483 3.68526 10.7663 2.5 13.75 2.5C16.7337 2.5 19.5952 3.68526 21.705 5.79505C23.8147 7.90483 25 10.7663 25 13.75C25 22.6922 16.3328 30.1562 13.75 32.1875C11.1672 30.1562 2.5 22.6922 2.5 13.75ZM20 13.75C20 12.5139 19.6334 11.3055 18.9467 10.2777C18.2599 9.24988 17.2838 8.4488 16.1418 7.97575C14.9997 7.5027 13.7431 7.37893 12.5307 7.62009C11.3183 7.86125 10.2047 8.4565 9.33058 9.33058C8.4565 10.2047 7.86125 11.3183 7.62009 12.5307C7.37893 13.7431 7.50271 14.9997 7.97575 16.1418C8.4488 17.2838 9.24988 18.2599 10.2777 18.9467C11.3055 19.6334 12.5139 20 13.75 20C15.4076 20 16.9973 19.3415 18.1694 18.1694C19.3415 16.9973 20 15.4076 20 13.75ZM10 13.75C10 13.0083 10.2199 12.2833 10.632 11.6666C11.044 11.0499 11.6297 10.5693 12.3149 10.2855C13.0002 10.0016 13.7542 9.92736 14.4816 10.0721C15.209 10.2167 15.8772 10.5739 16.4017 11.0983C16.9261 11.6228 17.2833 12.291 17.4279 13.0184C17.5726 13.7458 17.4984 14.4998 17.2146 15.1851C16.9307 15.8703 16.4501 16.456 15.8334 16.868C15.2167 17.2801 14.4917 17.5 13.75 17.5C12.7554 17.5 11.8016 17.1049 11.0984 16.4017C10.3951 15.6984 10 14.7446 10 13.75Z" fill="white"/>
</svg>
