<svg width="48" height="48" viewBox="0 0 48 48" fill="none" xmlns="http://www.w3.org/2000/svg">
<path d="M7.03312 9.80124C1.60917 16.2816 0.34315 25.1221 3.72882 32.8729C3.93609 33.3473 3.71935 33.8999 3.24501 34.1072C3.12684 34.1589 2.99923 34.1857 2.87022 34.1857C2.68775 34.1858 2.50924 34.1326 2.35657 34.0327C2.20389 33.9328 2.08368 33.7905 2.01067 33.6233C0.250249 29.5932 -0.371182 25.1555 0.213595 20.7899C0.814777 16.3022 2.6757 12.0863 5.59527 8.59802C9.70962 3.68234 15.492 0.662962 21.8774 0.0960375C27.9546 -0.443328 33.885 1.3016 38.6813 5.01782L38.4226 2.10333C38.3768 1.58768 38.7577 1.13249 39.2734 1.08675C39.789 1.04082 40.2442 1.42186 40.2901 1.9376L40.7458 7.0702C40.7916 7.58585 40.4107 8.04104 39.895 8.08678L34.7615 8.54253C34.7333 8.54497 34.7051 8.54628 34.6775 8.54628C34.1972 8.54628 33.7881 8.17921 33.7448 7.69177C33.6991 7.17612 34.08 6.72093 34.5956 6.67519L37.4336 6.42322C28.0951 -0.720697 14.652 0.698207 7.03312 9.80124ZM45.9891 14.3767C45.7819 13.9022 45.2289 13.6856 44.7548 13.893C44.2803 14.1002 44.0637 14.6528 44.271 15.1272C47.657 22.8775 46.3909 31.718 40.9668 38.1987C36.5964 43.4203 30.3111 46.114 23.9818 46.1136C19.2386 46.1133 14.471 44.5989 10.4689 41.5024L13.4684 41.2361C13.9841 41.1904 14.365 40.7352 14.3192 40.2195C14.2735 39.7039 13.8192 39.3228 13.3025 39.3687L8.16949 39.8243C7.6538 39.8701 7.27292 40.3252 7.31867 40.8409L7.77436 45.9741C7.79636 46.2218 7.91582 46.4505 8.10648 46.6101C8.29714 46.7696 8.54337 46.8469 8.79101 46.8249C9.3068 46.7792 9.68768 46.324 9.64193 45.8083L9.39651 43.0442C13.6063 46.2786 18.6809 48.0001 23.9583 48C24.6762 48 25.3985 47.9681 26.1223 47.9039C32.5077 47.337 38.2902 44.3176 42.4045 39.4019C45.3242 35.9136 47.1851 31.6977 47.7863 27.2101C48.3713 22.8442 47.7498 18.4065 45.9891 14.3767ZM11.201 23.9707C11.201 16.8944 16.9584 11.1374 24.0352 11.1374C31.112 11.1374 36.8694 16.8944 36.8694 23.9707C36.8694 31.047 31.112 36.804 24.0352 36.804C16.9584 36.804 11.201 31.047 11.201 23.9707ZM13.0759 23.9707C13.0759 30.0132 17.9922 34.9293 24.0352 34.9293C30.0782 34.9293 34.9945 30.0133 34.9945 23.9707C34.9945 17.9281 30.0782 13.0121 24.0352 13.0121C17.9922 13.0121 13.0759 17.9282 13.0759 23.9707ZM7.31482 23.9707C7.31482 14.7517 14.8156 7.25149 24.0352 7.25149C33.2549 7.25149 40.7556 14.7517 40.7556 23.9707C40.7556 33.1897 33.2548 40.6899 24.0352 40.6899C14.8155 40.6899 7.31482 33.1897 7.31482 23.9707ZM9.18971 23.9707C9.18971 32.1559 15.8494 38.8151 24.0352 38.8151C32.221 38.8151 38.8807 32.1559 38.8807 23.9707C38.8807 15.7854 32.221 9.12624 24.0352 9.12624C15.8494 9.12624 9.18971 15.7854 9.18971 23.9707Z" fill="#EB7124"/>
<path d="M19.4112 28.5493L19.9793 29.9585C20.8576 29.658 22.2883 29.2337 22.7181 29.2337C23.3412 29.2337 23.8052 29.3927 24.3421 29.5762C24.9184 29.7742 25.5721 29.9983 26.4362 29.9983C27.3114 29.9983 28.725 29.2941 28.9994 29.1534L28.3339 27.7855C27.7977 28.0608 26.8236 28.4691 26.4362 28.4691C25.813 28.4691 25.349 28.31 24.8121 28.1265C24.2358 27.9285 23.5822 27.7045 22.7181 27.7045C22.5478 27.7045 22.3269 27.7327 22.0808 27.7801C22.4965 26.9016 22.7181 25.8396 22.7181 24.646H24.9489V23.1168H22.44C22.4087 23.035 22.3775 22.9517 22.347 22.8744C22.1552 22.392 21.9745 21.9355 21.9745 20.823C21.9745 19.7763 22.3619 18.5292 24.2053 18.5292C25.8591 18.5292 26.4518 20.232 26.4748 20.3L27.8847 19.816C27.8475 19.7013 26.9411 17 24.2053 17C21.4636 17 20.4872 18.975 20.4872 20.823C20.4872 21.963 20.6612 22.6198 20.8427 23.1168H19V24.646H21.2308C21.2308 26.5323 20.5675 27.9552 19.4112 28.5493Z" fill="#EB7124"/>
</svg>
