<svg width="48" height="48" viewBox="0 0 48 48" fill="none" xmlns="http://www.w3.org/2000/svg">
<path d="M42.4093 25.8924C41.214 24.0443 39.524 22.5619 37.5281 21.6105C37.0714 21.3929 36.5234 21.5834 36.304 22.0359C36.0845 22.4885 36.2767 23.0316 36.7332 23.2491C40.2103 24.9059 42.4568 28.4458 42.4568 32.2674C42.4568 33.9027 42.0502 35.5244 41.281 36.9575C41.0431 37.4007 41.2126 37.9512 41.6598 38.187C41.8746 38.3003 42.1259 38.3243 42.3585 38.2539C42.5912 38.1835 42.786 38.0243 42.9003 37.8115C43.8102 36.1166 44.2912 34.1994 44.2912 32.2674C44.2912 29.9983 43.6404 27.7939 42.4093 25.8924ZM33.8056 20.4493L33.7439 20.4492C33.2374 20.4492 32.8267 20.8562 32.8267 21.3583C32.8267 21.8604 33.2374 22.2674 33.7439 22.2674L33.797 22.2675H33.8014C34.3059 22.2675 34.7161 21.8633 34.7184 21.3627C34.7207 20.8606 34.3121 20.4517 33.8056 20.4493ZM28.0031 41.2857C24.5262 39.6289 22.2796 36.0889 22.2796 32.2674C22.2796 30.6321 22.6863 29.0104 23.4555 27.5773C23.6934 27.1341 23.5238 26.5836 23.0766 26.3478C22.6296 26.1119 22.074 26.28 21.8362 26.7233C20.9263 28.4183 20.4453 30.3354 20.4453 32.2674C20.4453 34.5365 21.096 36.7409 22.3271 38.6424C23.5225 40.4905 25.2125 41.973 27.2084 42.9244C27.4269 43.0235 27.6759 43.0337 27.902 42.9528C28.128 42.8719 28.3129 42.7063 28.417 42.4916C28.5211 42.2769 28.5361 42.0303 28.4587 41.8048C28.3813 41.5793 28.2177 41.3929 28.0031 41.2857ZM30.9926 42.2674L30.9395 42.2672C30.4307 42.2663 30.0205 42.6699 30.0182 43.172C30.0158 43.6741 30.4247 44.083 30.9311 44.0854L30.9926 44.0856C31.499 44.0856 31.9098 43.6785 31.9098 43.1765C31.9098 42.6745 31.499 42.2674 30.9926 42.2674Z" fill="#EB7124"/>
<path d="M36.5313 17.3704C36.4212 17.1098 36.2847 16.861 36.1239 16.6278H38.5116C40.8378 16.6278 42.7305 14.7518 42.7305 12.446C42.7305 10.1402 40.8378 8.26419 38.5116 8.26419H31.167C31.6504 7.56916 31.9089 6.74474 31.9081 5.90056C31.9081 3.59475 30.0154 1.71875 27.6892 1.71875H5.2189C2.89264 1.71875 1 3.59475 1 5.90056C1 8.20637 2.89264 10.0824 5.2189 10.0824H12.5635C12.0965 10.7553 11.8224 11.5694 11.8224 12.446C11.8224 13.3226 12.0965 14.1367 12.5635 14.8096H10.1715C7.84527 14.8096 5.95263 16.6856 5.95263 18.9914C5.95263 20.3157 6.57758 21.4974 7.54985 22.2642C6.57758 23.0309 5.95263 24.2126 5.95263 25.5369C5.95263 26.8612 6.57758 28.0429 7.54985 28.8096C6.57758 29.5763 5.95263 30.7581 5.95263 32.0823C5.95263 33.4066 6.57758 34.5883 7.54985 35.355C6.57758 36.1218 5.95263 37.3035 5.95263 38.6278C5.95263 40.9336 7.84527 42.8096 10.1715 42.8096H20.9802C23.8276 45.8284 27.8783 47.7188 32.3667 47.7188C40.9639 47.7188 47.9583 40.7859 47.9583 32.2642C47.9583 25.1718 43.113 19.1808 36.5313 17.3704ZM38.5116 10.0824C39.8265 10.0824 40.8962 11.1427 40.8962 12.446C40.8962 13.7493 39.8265 14.8096 38.5116 14.8096H16.0413C14.7264 14.8096 13.6567 13.7493 13.6567 12.446C13.6567 11.1427 14.7264 10.0824 16.0413 10.0824H38.5116ZM5.2189 8.26419C3.90398 8.26419 2.83431 7.20383 2.83431 5.90056C2.83431 4.59729 3.90398 3.53693 5.2189 3.53693H27.6892C29.0041 3.53693 30.0738 4.59729 30.0738 5.90056C30.0738 7.20383 29.0041 8.26419 27.6892 8.26419H5.2189ZM10.1715 16.6278H32.6418C33.0112 16.6278 33.365 16.7129 33.6823 16.8653C33.2485 16.8292 32.8099 16.8097 32.3667 16.8097C28.0612 16.8097 24.1578 18.5487 21.3335 21.3551H10.1715C8.8567 21.3551 7.78693 20.2947 7.78693 18.9914C7.78693 17.6882 8.8567 16.6278 10.1715 16.6278ZM10.1715 23.1733H19.7663C18.7252 24.5872 17.9202 26.1819 17.409 27.9005H10.1715C8.85661 27.9005 7.78693 26.8402 7.78693 25.5369C7.78693 24.2336 8.85661 23.1733 10.1715 23.1733ZM10.1715 29.7187H16.9878C16.8463 30.56 16.7752 31.4114 16.7751 32.2642C16.7751 33.0048 16.8291 33.733 16.9312 34.446H10.1715C8.85661 34.446 7.78693 33.3857 7.78693 32.0823C7.78693 30.779 8.85661 29.7187 10.1715 29.7187ZM10.1715 40.9914C8.85661 40.9914 7.78693 39.9311 7.78693 38.6278C7.78693 37.3244 8.85661 36.2641 10.1715 36.2641H17.3057C17.7631 37.9523 18.5073 39.5509 19.5062 40.9914H10.1715ZM32.3667 45.9006C24.781 45.9006 18.6094 39.7833 18.6094 32.2642C18.6094 24.7452 24.781 18.6279 32.3667 18.6279C39.9525 18.6279 46.124 24.7452 46.124 32.2642C46.124 39.7833 39.9525 45.9006 32.3667 45.9006Z" fill="#EB7124"/>
<path d="M27.8164 36.9955L28.3722 38.257C29.2314 37.988 30.6312 37.6081 31.0517 37.6081C31.6613 37.6081 32.1153 37.7505 32.6406 37.9148C33.2044 38.0921 33.8439 38.2926 34.6893 38.2926C35.5456 38.2926 36.9286 37.6622 37.1971 37.5363L36.5459 36.3117C36.0214 36.5581 35.0683 36.9236 34.6893 36.9236C34.0796 36.9236 33.6256 36.7813 33.1004 36.617C32.5365 36.4397 31.8971 36.2391 31.0517 36.2391C30.8851 36.2391 30.669 36.2645 30.4282 36.3069C30.8349 35.5204 31.0517 34.5697 31.0517 33.5012H33.2342V32.1322H30.7796C30.749 32.0589 30.7185 31.9843 30.6886 31.9152C30.5009 31.4833 30.3242 31.0746 30.3242 30.0787C30.3242 29.1416 30.7032 28.0252 32.5067 28.0252C34.1247 28.0252 34.7046 29.5496 34.7271 29.6105L36.1065 29.1772C36.0701 29.0746 35.1833 26.6562 32.5067 26.6562C29.8243 26.6562 28.8691 28.4243 28.8691 30.0787C28.8691 31.0993 29.0393 31.6873 29.2169 32.1322H27.4141V33.5012H29.5966C29.5966 35.1898 28.9477 36.4637 27.8164 36.9955Z" fill="#EB7124"/>
</svg>
