<svg width="48" height="49" viewBox="0 0 48 49" fill="none" xmlns="http://www.w3.org/2000/svg">
<path d="M43.9433 8.7502C43.4425 8.4624 42.8336 8.38871 42.2728 8.54904C41.721 8.70639 41.2701 9.06688 41.0052 9.56282L38.266 14.6944V6.65095C38.266 5.17211 37.0583 3.96813 35.5727 3.96813H27.891V3.33875C27.891 3.00912 27.622 2.74124 27.2911 2.74124H22.6865C22.2446 1.27236 20.866 0.21875 19.2874 0.21875C17.7089 0.21875 16.3303 1.27236 15.8884 2.74124H11.2837C10.9528 2.74124 10.6839 3.00912 10.6839 3.33875V3.96813H2.69322C1.20765 3.96813 0 5.17211 0 6.65095V45.5359C0 47.0148 1.20765 48.2188 2.69322 48.2188H35.5717C37.0573 48.2188 38.265 47.0148 38.265 45.5359V23.5107L44.7231 11.6591C45.2959 10.6085 44.953 9.33078 43.9433 8.7502ZM33.1964 30.3084L31.7358 29.4689L40.6153 12.8372L42.2148 13.7573L33.1964 30.3084ZM31.4229 30.6689L32.3307 31.1907L31.269 31.9605L31.4229 30.6689ZM35.5727 5.16315C36.3965 5.16315 37.0663 5.83037 37.0663 6.65095V16.9421L35.6257 19.6398V9.42041C35.6257 8.10489 34.551 7.03435 33.2304 7.03435H27.891V5.16315H35.5727ZM11.8826 3.93626H16.3683C16.5128 3.93624 16.6525 3.88424 16.7616 3.78983C16.8707 3.69542 16.9419 3.56495 16.9621 3.4224C17.1251 2.27717 18.1238 1.41377 19.2864 1.41377C20.4491 1.41377 21.4488 2.27717 21.6108 3.4224C21.631 3.56495 21.7022 3.69542 21.8113 3.78983C21.9204 3.88424 22.0601 3.93624 22.2046 3.93626H26.6903V8.04614H11.8826V3.93626ZM27.2911 9.24116C27.622 9.24116 27.891 8.97327 27.891 8.64365V8.22937H33.2304C33.8892 8.22937 34.4261 8.76315 34.4261 9.42041V21.8865L30.4052 29.4181C30.3692 29.4858 30.3482 29.5565 30.3392 29.6282L30.3383 29.6392V29.6412L29.9164 33.1794C29.9027 33.2947 29.923 33.4115 29.9748 33.5155C30.0266 33.6195 30.1078 33.7062 30.2083 33.765C30.309 33.8236 30.4246 33.8517 30.5411 33.8459C30.6576 33.84 30.7698 33.8005 30.8641 33.7321L33.7833 31.6169V31.6159C33.8557 31.5641 33.9155 31.4967 33.9582 31.4187L34.4271 30.5583V42.7665C34.4271 43.4227 33.8912 43.9575 33.2314 43.9575H5.03555C4.37674 43.9575 3.83989 43.4237 3.83989 42.7665V9.42041C3.83989 8.76414 4.37574 8.22937 5.03555 8.22937H10.6829V8.64365C10.6829 8.97327 10.9518 9.24116 11.2827 9.24116H27.2911ZM37.0663 45.5359C37.0663 46.3565 36.3965 47.0237 35.5727 47.0237H2.69322C1.86946 47.0237 1.19965 46.3565 1.19965 45.5359V6.65095C1.19965 5.83037 1.86946 5.16315 2.69322 5.16315H10.6829V7.03435H5.03555C3.71493 7.03435 2.64024 8.10489 2.64024 9.42041V42.7665C2.64024 44.082 3.71493 45.1525 5.03555 45.1525H33.2314C34.552 45.1525 35.6267 44.082 35.6267 42.7665V28.3565L37.0663 25.7125V45.5359ZM43.6694 11.0895L42.7887 12.7067L41.1801 11.7816L42.0649 10.1245C42.1758 9.91734 42.3668 9.76597 42.6037 9.69825C42.8536 9.62655 43.1226 9.65941 43.3435 9.78589C43.7854 10.0398 43.9293 10.6124 43.6694 11.0895ZM17.6739 13.3062C17.6739 12.9766 17.9428 12.7087 18.2737 12.7087H31.062C31.3929 12.7087 31.6619 12.9766 31.6619 13.3062C31.6619 13.6358 31.3929 13.9037 31.062 13.9037H18.2737C17.9418 13.9037 17.6739 13.6368 17.6739 13.3062ZM10.7589 10.489C11.4947 10.489 12.2255 10.6672 12.8733 11.0048C13.1672 11.1582 13.2802 11.5187 13.1262 11.8114C12.9723 12.1042 12.6104 12.2168 12.3164 12.0634C11.8326 11.8114 11.3087 11.683 10.7579 11.683C8.90143 11.683 7.39087 13.1877 7.39087 15.037C7.39087 16.8863 8.90143 18.391 10.7579 18.391C12.6144 18.391 14.1249 16.8863 14.1249 15.037C14.1249 14.9723 14.1229 14.9056 14.1189 14.8388C14.0999 14.5092 14.3519 14.2264 14.6828 14.2075C15.0157 14.1895 15.2976 14.4395 15.3166 14.7691C15.3216 14.8588 15.3246 14.9484 15.3246 15.036C15.3246 17.5446 13.2762 19.5851 10.7579 19.5851C8.23962 19.5851 6.19121 17.5446 6.19121 15.036C6.19121 12.5275 8.24062 10.489 10.7589 10.489ZM10.8919 15.0798L14.8437 11.1432C15.0777 10.9102 15.4575 10.9102 15.6915 11.1432C15.9254 11.3763 15.9254 11.7547 15.6915 11.9887L11.3157 16.3475C11.2601 16.4031 11.194 16.4471 11.1213 16.4771C11.0486 16.5072 10.9706 16.5227 10.8919 16.5227C10.8131 16.5227 10.7351 16.5072 10.6624 16.4771C10.5897 16.4471 10.5236 16.4031 10.468 16.3475L8.76547 14.6516C8.53154 14.4186 8.53154 14.0402 8.76547 13.8061C8.87794 13.6942 9.03039 13.6314 9.18935 13.6314C9.3483 13.6314 9.50076 13.6942 9.61323 13.8061L10.8919 15.0798ZM17.6739 16.8136C17.6739 16.484 17.9428 16.2161 18.2737 16.2161H27.679C28.0099 16.2161 28.2788 16.484 28.2788 16.8136C28.2788 17.1432 28.0099 17.4111 27.679 17.4111H18.2737C17.9418 17.4111 17.6739 17.1442 17.6739 16.8136ZM17.6739 24.157C17.6739 23.8274 17.9428 23.5595 18.2737 23.5595H31.062C31.3929 23.5595 31.6619 23.8274 31.6619 24.157C31.6619 24.4866 31.3929 24.7545 31.062 24.7545H18.2737C17.9418 24.7545 17.6739 24.4866 17.6739 24.157ZM7.39187 25.8888C7.39187 27.7381 8.90243 29.2428 10.7589 29.2428C12.6154 29.2428 14.1259 27.7381 14.1259 25.8888C14.1259 25.8241 14.1239 25.7573 14.1199 25.6906C14.1009 25.361 14.3529 25.0782 14.6838 25.0592C15.0147 25.0403 15.2986 25.2913 15.3176 25.6209C15.3226 25.7105 15.3256 25.8002 15.3256 25.8878C15.3256 28.3963 13.2772 30.4368 10.7589 30.4368C8.24062 30.4368 6.19221 28.3963 6.19221 25.8878C6.19221 23.3792 8.24062 21.3388 10.7589 21.3388C11.4947 21.3388 12.2255 21.517 12.8733 21.8546C13.1672 22.008 13.2802 22.3685 13.1262 22.6612C12.9723 22.954 12.6104 23.0666 12.3164 22.9132C11.8326 22.6612 11.3087 22.5328 10.7579 22.5328C8.90243 22.5348 7.39187 24.0395 7.39187 25.8888ZM15.6915 21.994C15.9254 22.227 15.9254 22.6055 15.6915 22.8395L11.3157 27.1983C11.2601 27.2538 11.194 27.2979 11.1213 27.3279C11.0486 27.358 10.9706 27.3734 10.8919 27.3734C10.8131 27.3734 10.7351 27.358 10.6624 27.3279C10.5897 27.2979 10.5236 27.2538 10.468 27.1983L8.76547 25.5024C8.53154 25.2694 8.53154 24.8909 8.76547 24.6569C8.87794 24.545 9.03039 24.4822 9.18935 24.4822C9.3483 24.4822 9.50076 24.545 9.61323 24.6569L10.8919 25.9306L14.8437 21.994C14.8993 21.9384 14.9653 21.8942 15.0381 21.8641C15.1108 21.834 15.1888 21.8185 15.2676 21.8185C15.3464 21.8185 15.4244 21.834 15.4971 21.8641C15.5699 21.8942 15.6359 21.9384 15.6915 21.994ZM17.6739 27.6644C17.6739 27.3348 17.9428 27.0669 18.2737 27.0669H27.679C28.0099 27.0669 28.2788 27.3348 28.2788 27.6644C28.2788 27.994 28.0099 28.2619 27.679 28.2619H18.2737C17.9418 28.2619 17.6739 27.995 17.6739 27.6644ZM17.6739 35.0078C17.6739 34.6782 17.9428 34.4103 18.2737 34.4103H31.062C31.3929 34.4103 31.6619 34.6782 31.6619 35.0078C31.6619 35.3374 31.3929 35.6053 31.062 35.6053H18.2737C17.9418 35.6053 17.6739 35.3374 17.6739 35.0078ZM15.3176 36.4717C15.3226 36.5613 15.3256 36.651 15.3256 36.7386C15.3256 39.2471 13.2772 41.2876 10.7589 41.2876C8.24062 41.2876 6.19221 39.2471 6.19221 36.7386C6.19221 34.23 8.24062 32.1895 10.7589 32.1895C11.4947 32.1895 12.2255 32.3678 12.8733 32.7054C13.1672 32.8587 13.2802 33.2192 13.1262 33.512C12.9723 33.8048 12.6104 33.9173 12.3164 33.764C11.8326 33.512 11.3087 33.3836 10.7579 33.3836C8.90143 33.3836 7.39087 34.8883 7.39087 36.7376C7.39087 38.5869 8.90243 40.0926 10.7589 40.0926C12.6154 40.0926 14.1259 38.5879 14.1259 36.7386C14.1259 36.6739 14.1239 36.6071 14.1199 36.5404C14.1009 36.2108 14.3529 35.928 14.6838 35.909C15.0147 35.8911 15.2986 36.1421 15.3176 36.4717ZM15.6915 32.8438C15.9254 33.0768 15.9254 33.4553 15.6915 33.6893L11.3157 38.0481C11.2601 38.1036 11.194 38.1477 11.1213 38.1777C11.0486 38.2078 10.9706 38.2232 10.8919 38.2232C10.8131 38.2232 10.7351 38.2078 10.6624 38.1777C10.5897 38.1477 10.5236 38.1036 10.468 38.0481L8.76547 36.3522C8.53154 36.1192 8.53154 35.7407 8.76547 35.5067C8.87794 35.3948 9.03039 35.332 9.18935 35.332C9.3483 35.332 9.50076 35.3948 9.61323 35.5067L10.8919 36.7804L14.8437 32.8438C14.9562 32.7319 15.1086 32.6691 15.2676 32.6691C15.4266 32.6691 15.579 32.7319 15.6915 32.8438ZM17.6739 38.5152C17.6739 38.1856 17.9428 37.9177 18.2737 37.9177H27.679C28.0099 37.9177 28.2788 38.1856 28.2788 38.5152C28.2788 38.8448 28.0099 39.1127 27.679 39.1127H18.2737C17.9418 39.1127 17.6739 38.8448 17.6739 38.5152Z" fill="#EB7124"/>
</svg>
