<svg width="48" height="49" viewBox="0 0 48 49" fill="none" xmlns="http://www.w3.org/2000/svg">
<path d="M20.9748 19.4457C20.794 19.4712 20.628 19.5598 20.5062 19.6958C20.3844 19.8318 20.3145 20.0065 20.309 20.189L20.2835 21.0638L14.5761 23.9183L12.9139 23.6953C13.3821 23.231 13.7091 22.6435 13.8571 22.001C14.005 21.3584 13.9679 20.687 13.75 20.0647C13.5321 19.4424 13.1423 18.8945 12.6258 18.4846C12.1093 18.0747 11.4873 17.8196 10.8317 17.7487C10.1762 17.6779 9.51394 17.7942 8.92179 18.0843C8.32965 18.3744 7.83181 18.8263 7.48597 19.3877C7.14012 19.9491 6.96043 20.597 6.9677 21.2564C6.97498 21.9157 7.16892 22.5595 7.52707 23.1131C6.90926 23.2059 6.33438 23.4847 5.87894 23.9124C5.42351 24.34 5.10913 24.8962 4.97765 25.507L3.36733 33.3884C3.29783 33.7365 3.30893 34.0959 3.39978 34.439C3.49063 34.7822 3.65881 35.0999 3.89145 35.368L2.38487 39.8971L0.062293 45.3166C0.0119832 45.4343 -0.00835164 45.5627 0.00310895 45.6902C0.0145695 45.8177 0.0574678 45.9403 0.127963 46.0472C0.198459 46.154 0.294352 46.2418 0.407057 46.3025C0.519762 46.3632 0.645762 46.395 0.773777 46.3951H3.87055C4.00701 46.395 4.14104 46.3589 4.25905 46.2904C4.37706 46.2218 4.47487 46.1233 4.54255 46.0049L7.63933 40.5854C7.68048 40.5131 7.70976 40.4347 7.72603 40.3531L8.29352 37.5196L8.56062 37.6341L9.293 45.6913C9.31058 45.8837 9.39942 46.0625 9.54209 46.1927C9.68476 46.3229 9.87095 46.3951 10.0641 46.3951H13.1609C13.2629 46.3951 13.3639 46.3749 13.458 46.3358C13.5522 46.2966 13.6377 46.2392 13.7097 46.1669C13.7816 46.0946 13.8386 46.0088 13.8772 45.9144C13.9159 45.8201 13.9356 45.719 13.9351 45.617L13.8863 36.9815C13.9345 36.4132 13.7698 35.8472 13.4241 35.3936L11.6566 33.0338L12.2837 29.275L17.1418 28.5806C17.2836 28.5602 17.417 28.501 17.5273 28.4095L20.1286 26.2425C20.1255 26.3461 20.1432 26.4493 20.1807 26.5459C20.2183 26.6425 20.2748 26.7306 20.347 26.805C20.4192 26.8794 20.5056 26.9385 20.6011 26.9788C20.6965 27.0192 20.7992 27.04 20.9028 27.0399C20.9365 27.0398 20.9701 27.0375 21.0035 27.0329C34.5333 25.253 42.5957 13.6903 45.245 9.89047L45.3418 9.75112L46.956 10.3504C47.0784 10.3957 47.2102 10.4095 47.3393 10.3902C47.4684 10.371 47.5906 10.3194 47.6944 10.2403C47.7982 10.1612 47.8803 10.0571 47.9332 9.93775C47.986 9.81839 48.0078 9.6876 47.9965 9.55756L47.4205 2.97217C47.4097 2.84947 47.3698 2.73112 47.3042 2.62693C47.2385 2.52274 47.1489 2.43573 47.0428 2.37312C46.9367 2.31051 46.8173 2.27411 46.6943 2.26694C46.5714 2.25977 46.4485 2.28204 46.3358 2.3319L39.7536 5.24911C39.6243 5.30641 39.5132 5.39803 39.4323 5.51404C39.3514 5.63005 39.3038 5.76601 39.2947 5.90716C39.2856 6.04831 39.3153 6.18925 39.3807 6.31469C39.446 6.44012 39.5445 6.54526 39.6654 6.61868L41.038 7.4525C37.493 12.1842 32.6707 15.8054 27.1382 17.8903C25.145 18.6263 23.0792 19.1479 20.9756 19.4465L20.9748 19.4457ZM10.4512 19.2978C10.834 19.2978 11.2082 19.4114 11.5265 19.624C11.8448 19.8367 12.0929 20.139 12.2393 20.4927C12.3858 20.8463 12.4242 21.2355 12.3495 21.611C12.2748 21.9864 12.0905 22.3313 11.8198 22.602C11.5491 22.8727 11.2042 23.057 10.8288 23.1317C10.4533 23.2064 10.0642 23.168 9.71052 23.0215C9.35685 22.875 9.05457 22.627 8.8419 22.3087C8.62923 21.9904 8.51571 21.6162 8.51571 21.2334C8.51633 20.7202 8.72044 20.2283 9.08328 19.8654C9.44612 19.5026 9.93806 19.2985 10.4512 19.2978ZM6.23262 39.9266L3.42152 44.8466H1.94745L3.83107 40.4461L5.2432 36.2104L6.83881 36.8948L6.23262 39.9266ZM20.1913 24.1777L16.7051 27.0786L11.5026 27.8219C11.3399 27.8453 11.1888 27.9199 11.0714 28.0348C10.9539 28.1498 10.8761 28.2992 10.8491 28.4613L10.0749 33.1066C10.0577 33.2098 10.0616 33.3154 10.0864 33.4171C10.1111 33.5187 10.1562 33.6143 10.2189 33.6981L12.1908 36.3288C12.3145 36.5005 12.3679 36.7129 12.3402 36.9226L12.3828 44.8466H10.7709L10.061 37.0349C10.0485 36.8959 9.99864 36.7629 9.91673 36.6499C9.83483 36.5369 9.72391 36.4482 9.59571 36.3931L5.33533 34.5652C5.17199 34.4945 5.03802 34.3696 4.95595 34.2117C4.87388 34.0538 4.84874 33.8724 4.88474 33.6981L6.49274 25.8275C6.57363 25.4513 6.79265 25.119 7.10655 24.8964C7.42046 24.6738 7.80643 24.577 8.18823 24.6252L14.6063 25.4845C14.76 25.5044 14.9162 25.4785 15.0553 25.4102L20.2308 22.822L20.1913 24.1777ZM42.7916 7.6747C42.8528 7.58802 42.8955 7.48969 42.9171 7.38581C42.9387 7.28193 42.9387 7.17471 42.9172 7.07082C42.8956 6.96693 42.8529 6.86858 42.7918 6.78188C42.7306 6.69518 42.6523 6.62197 42.5616 6.56681L41.7348 6.06435L45.972 4.18613L46.3467 8.47368L45.3216 8.09199C45.1627 8.03316 44.9888 8.02803 44.8266 8.07738C44.6644 8.12674 44.5229 8.22786 44.4236 8.36529C44.302 8.53484 44.1518 8.75007 43.9745 9.00478C41.4816 12.5793 34.0169 23.285 21.7033 25.363L21.8373 20.8803C23.8277 20.5557 25.7824 20.041 27.6747 19.3435C33.7633 17.0462 39.0271 12.983 42.7916 7.6747Z" fill="#EB7124"/>
<path d="M33.6678 8.56076L32.971 8.1721C32.9865 8.00901 32.9943 7.84694 32.9943 7.6859C32.9943 7.52487 32.9865 7.3628 32.971 7.1997L33.6678 6.81028C33.8178 6.72618 33.9356 6.59458 34.0026 6.4362C34.0696 6.27781 34.082 6.10164 34.0379 5.93542C33.7079 4.7042 33.0443 3.58805 32.1202 2.71008C32.0003 2.59645 31.8473 2.52406 31.6834 2.50345C31.5195 2.48284 31.3533 2.51509 31.209 2.5955L30.537 2.97099C30.5132 2.98356 30.486 2.98791 30.4595 2.98338C30.1751 2.79671 29.881 2.62512 29.5785 2.46931V1.71987C29.5785 1.54935 29.5222 1.38361 29.4183 1.24837C29.3144 1.11314 29.1688 1.01599 29.0041 0.971991C28.3516 0.800951 27.6796 0.715844 27.0051 0.718826C26.3914 0.728557 25.7813 0.814639 25.1888 0.975088C25.0241 1.01908 24.8785 1.11624 24.7746 1.25147C24.6707 1.3867 24.6144 1.55245 24.6144 1.72297L24.6082 2.4964C24.3034 2.63422 24.0108 2.79738 23.7334 2.98415C23.7068 2.99 23.679 2.98527 23.6559 2.97099L22.9878 2.59782C22.8435 2.51729 22.6773 2.48498 22.5134 2.50559C22.3495 2.5262 22.1964 2.59867 22.0766 2.71241C21.1513 3.58884 20.4863 4.70399 20.155 5.93465C20.1107 6.10097 20.123 6.27732 20.19 6.43587C20.257 6.59442 20.3749 6.72615 20.5251 6.81028L21.2219 7.1997C21.2064 7.3628 21.1986 7.52487 21.1986 7.6859C21.1986 7.84694 21.2064 8.00901 21.2219 8.1721L20.5251 8.56153C20.375 8.64552 20.2571 8.77711 20.1901 8.93553C20.1231 9.09395 20.1108 9.27017 20.155 9.43638C20.4846 10.6678 21.1483 11.784 22.0727 12.6617C22.1926 12.7754 22.3456 12.8477 22.5095 12.8684C22.6734 12.889 22.8396 12.8567 22.9839 12.7763L23.6559 12.4008C23.6672 12.3932 23.6799 12.3882 23.6933 12.3861C23.7066 12.3839 23.7203 12.3847 23.7334 12.3884C24.0179 12.575 24.312 12.7466 24.6144 12.9025V13.6519C24.6144 13.8225 24.6707 13.9882 24.7746 14.1234C24.8785 14.2587 25.0241 14.3558 25.1888 14.3998C25.8098 14.5674 26.4501 14.6528 27.0934 14.6538L27.1878 14.653C27.8015 14.6433 28.4116 14.5572 29.0041 14.3967C29.1688 14.3527 29.3144 14.2556 29.4183 14.1203C29.5222 13.9851 29.5785 13.8194 29.5785 13.6488L29.5847 12.8754C29.8897 12.7375 30.1826 12.5744 30.4603 12.3877C30.4732 12.3846 30.4866 12.3842 30.4996 12.3864C30.5127 12.3887 30.5251 12.3936 30.5362 12.4008L31.2051 12.774C31.3493 12.8549 31.5156 12.8874 31.6796 12.8668C31.8436 12.8462 31.9967 12.7735 32.1163 12.6594C33.0416 11.783 33.7066 10.6678 34.0379 9.43716C34.0822 9.27083 34.0699 9.09449 34.0029 8.93594C33.9359 8.77739 33.818 8.64489 33.6678 8.56076ZM31.37 6.92718C31.4709 7.42796 31.4709 7.94385 31.37 8.44462C31.3396 8.60425 31.3601 8.7694 31.4288 8.91669C31.4974 9.06398 31.6106 9.18594 31.7524 9.26528L32.3563 9.60284C32.1368 10.1595 31.8256 10.6756 31.4358 11.1296L31.291 11.0491C31.0307 10.9015 30.7348 10.8285 30.4357 10.838C30.1366 10.8476 29.8459 10.9393 29.5955 11.1032C29.3898 11.2417 29.1728 11.3626 28.9468 11.4648C28.6721 11.5912 28.4397 11.794 28.2772 12.0489C28.1146 12.3039 28.0289 12.6002 28.0301 12.9025V13.0264C27.7454 13.075 27.4573 13.1011 27.1684 13.1046C26.8315 13.1116 26.4947 13.0859 26.1628 13.0279V12.9025C26.164 12.6002 26.0783 12.3039 25.9157 12.0489C25.7532 11.794 25.5208 11.5912 25.2461 11.4648C25.0206 11.3629 24.8041 11.2422 24.5989 11.104C24.348 10.9405 24.057 10.8488 23.7577 10.8391C23.4583 10.8295 23.1621 10.9021 22.9011 11.0491L22.754 11.1311C22.3649 10.6766 22.0548 10.16 21.8366 9.60284L22.4404 9.26528C22.5823 9.18594 22.6955 9.06398 22.7641 8.91669C22.8328 8.7694 22.8533 8.60425 22.8229 8.44462C22.722 7.94385 22.722 7.42796 22.8229 6.92718C22.8533 6.76756 22.8328 6.60241 22.7641 6.45512C22.6955 6.30783 22.5823 6.18587 22.4404 6.10652L21.8366 5.76897C22.0561 5.21228 22.3673 4.69625 22.7571 4.24224L22.9019 4.32275C23.1623 4.46999 23.4582 4.54281 23.7572 4.53326C24.0562 4.5237 24.3469 4.43213 24.5974 4.26856C24.8031 4.13012 25.0201 4.00918 25.2461 3.90701C25.5208 3.78058 25.7532 3.5778 25.9157 3.32287C26.0783 3.06795 26.164 2.77164 26.1628 2.46931V2.34543C26.4475 2.29682 26.7356 2.27067 27.0245 2.26724C27.3614 2.25823 27.6984 2.28391 28.0301 2.34388V2.46931C28.0289 2.77164 28.1146 3.06795 28.2772 3.32287C28.4397 3.5778 28.6721 3.78058 28.9468 3.90701C29.1721 4.00882 29.3886 4.12924 29.594 4.26701C29.8446 4.43119 30.1356 4.52323 30.4351 4.53306C30.7345 4.5429 31.0309 4.47014 31.2918 4.32275L31.4389 4.24069C31.8277 4.69542 32.1378 5.21197 32.3563 5.76897L31.7524 6.10652C31.6106 6.18587 31.4974 6.30783 31.4288 6.45512C31.3601 6.60241 31.3396 6.76756 31.37 6.92718Z" fill="#EB7124"/>
<path d="M27.0968 4.58984C26.4843 4.58984 25.8856 4.77147 25.3763 5.11175C24.867 5.45204 24.4701 5.93569 24.2357 6.50156C24.0013 7.06743 23.94 7.6901 24.0595 8.29083C24.179 8.89155 24.4739 9.44335 24.907 9.87645C25.3401 10.3095 25.8919 10.6045 26.4926 10.724C27.0933 10.8435 27.716 10.7821 28.2819 10.5478C28.8477 10.3134 29.3314 9.91644 29.6716 9.40717C30.0119 8.8979 30.1935 8.29916 30.1935 7.68667C30.1927 6.86559 29.8662 6.07838 29.2856 5.49779C28.705 4.9172 27.9178 4.59066 27.0968 4.58984ZM27.0968 9.23508C26.7905 9.23508 26.4912 9.14427 26.2365 8.97412C25.9819 8.80398 25.7834 8.56215 25.6663 8.27922C25.5491 7.99628 25.5184 7.68495 25.5781 7.38459C25.6379 7.08422 25.7854 6.80832 26.0019 6.59177C26.2184 6.37523 26.4943 6.22775 26.7947 6.16801C27.0951 6.10826 27.4064 6.13893 27.6893 6.25612C27.9722 6.37332 28.2141 6.57178 28.3842 6.82642C28.5543 7.08105 28.6452 7.38042 28.6452 7.68667C28.6448 8.09721 28.4815 8.49081 28.1912 8.78111C27.9009 9.0714 27.5073 9.23467 27.0968 9.23508ZM38.7097 22.3966C38.5043 22.3966 38.3074 22.4781 38.1622 22.6233C38.017 22.7685 37.9355 22.9655 37.9355 23.1708V45.6227C37.9355 45.8281 38.017 46.025 38.1622 46.1702C38.3074 46.3154 38.5043 46.397 38.7097 46.397H44.9032C45.1086 46.397 45.3055 46.3154 45.4507 46.1702C45.5959 46.025 45.6774 45.8281 45.6774 45.6227V23.1708C45.6774 22.9655 45.5959 22.7685 45.4507 22.6233C45.3055 22.4781 45.1086 22.3966 44.9032 22.3966H38.7097ZM44.129 44.8485H39.4839V23.945H44.129V44.8485ZM28.6452 28.5902C28.4398 28.5902 28.2429 28.6718 28.0977 28.817C27.9525 28.9622 27.871 29.1591 27.871 29.3644V45.6227C27.871 45.8281 27.9525 46.025 28.0977 46.1702C28.2429 46.3154 28.4398 46.397 28.6452 46.397H34.8387C35.044 46.397 35.241 46.3154 35.3861 46.1702C35.5313 46.025 35.6129 45.8281 35.6129 45.6227V29.3644C35.6129 29.1591 35.5313 28.9622 35.3861 28.817C35.241 28.6718 35.044 28.5902 34.8387 28.5902H28.6452ZM34.0645 44.8485H29.4194V30.1386H34.0645V44.8485ZM18.5806 32.4613C18.3753 32.4613 18.1784 32.5428 18.0332 32.688C17.888 32.8332 17.8065 33.0301 17.8065 33.2355V45.6227C17.8065 45.8281 17.888 46.025 18.0332 46.1702C18.1784 46.3154 18.3753 46.397 18.5806 46.397H24.7742C24.9795 46.397 25.1764 46.3154 25.3216 46.1702C25.4668 46.025 25.5484 45.8281 25.5484 45.6227V33.2355C25.5484 33.0301 25.4668 32.8332 25.3216 32.688C25.1764 32.5428 24.9795 32.4613 24.7742 32.4613H18.5806ZM24 44.8485H19.3548V34.0097H24V44.8485ZM0 47.1712H48V48.7196H0V47.1712Z" fill="#EB7124"/>
</svg>
