<svg width="48" height="49" viewBox="0 0 48 49" fill="none" xmlns="http://www.w3.org/2000/svg">
<path d="M2.77193 17.7504C2.5672 17.7504 2.37086 17.8319 2.22609 17.9771C2.08133 18.1223 2 18.3192 2 18.5246V21.6213C2 21.8267 2.08133 22.0236 2.22609 22.1688C2.37086 22.314 2.5672 22.3955 2.77193 22.3955H4.45502C4.69709 23.4477 5.09853 24.4564 5.64534 25.3865L3.76994 27.2674C3.69825 27.3393 3.64139 27.4247 3.60259 27.5186C3.5638 27.6125 3.54383 27.7132 3.54383 27.8149C3.54383 27.9165 3.5638 28.0172 3.60259 28.1111C3.64139 28.2051 3.69825 28.2904 3.76994 28.3623L6.08572 30.6849C6.1574 30.7568 6.2425 30.8138 6.33616 30.8527C6.42982 30.8916 6.5302 30.9117 6.63157 30.9117C6.73295 30.9117 6.83333 30.8916 6.92699 30.8527C7.02064 30.8138 7.10574 30.7568 7.17742 30.6849L9.05282 28.804C9.98025 29.3524 10.986 29.755 12.0351 29.9978V32.46C12.0351 32.6653 12.1164 32.8623 12.2612 33.0075C12.4059 33.1526 12.6023 33.2342 12.807 33.2342H15.5136C16.008 35.1575 16.9565 36.9333 18.2791 38.4117C19.6016 39.8901 21.2594 41.0276 23.1125 41.7283C24.9655 42.4291 26.9595 42.6724 28.926 42.4378C30.8925 42.2031 32.7739 41.4975 34.4114 40.3803L42.0466 48.0378C42.2617 48.2535 42.5169 48.4246 42.7979 48.5413C43.0789 48.658 43.38 48.7181 43.6842 48.7181C43.9883 48.7181 44.2894 48.658 44.5704 48.5413C44.8514 48.4246 45.1067 48.2535 45.3217 48.0378C45.5368 47.8222 45.7073 47.5661 45.8237 47.2843C45.9401 47.0025 46 46.7005 46 46.3955C46 46.0905 45.9401 45.7884 45.8237 45.5067C45.7073 45.2249 45.5368 44.9688 45.3217 44.7531L37.6865 37.0955C39.3792 34.6021 40.1048 31.5741 39.7267 28.5816C39.3485 25.589 37.8928 22.8383 35.6334 20.8471H36.7368C36.9415 20.8471 37.1379 20.7656 37.2826 20.6204C37.4274 20.4752 37.5087 20.2783 37.5087 20.0729V17.1175C37.6609 16.7129 39.8245 10.9495 39.8245 10.7826C39.8245 9.08018 39.3458 7.73696 38.4018 6.79012C37.4579 5.84328 36.1185 5.36328 34.421 5.36328C32.7235 5.36328 31.3842 5.84338 30.4402 6.79012C29.4961 7.73686 29.0175 9.08018 29.0175 10.7826C29.0175 10.8754 31.3333 17.1165 31.3333 17.1165V18.3704C30.0879 17.9587 28.7849 17.7494 27.4736 17.7504H24.2467C24.0046 16.6982 23.6032 15.6895 23.0564 14.7594L24.9318 12.8785C25.0035 12.8066 25.0603 12.7212 25.0991 12.6273C25.1379 12.5334 25.1579 12.4327 25.1579 12.331C25.1579 12.2293 25.1379 12.1287 25.0991 12.0347C25.0603 11.9408 25.0035 11.8555 24.9318 11.7836L22.616 9.46099C22.5443 9.38909 22.4592 9.33206 22.3656 9.29315C22.2719 9.25424 22.1715 9.23422 22.0701 9.23422C21.9688 9.23422 21.8684 9.25424 21.7747 9.29315C21.6811 9.33206 21.596 9.38909 21.5243 9.46099L19.6489 11.3419C18.7215 10.7935 17.7157 10.3909 16.6666 10.1481V7.68586C16.6666 7.48053 16.5853 7.28361 16.4406 7.13842C16.2958 6.99323 16.0994 6.91167 15.8947 6.91167H12.807C12.6023 6.91167 12.4059 6.99323 12.2612 7.13842C12.1164 7.28361 12.0351 7.48053 12.0351 7.68586V10.1481C10.986 10.3909 9.98025 10.7935 9.05282 11.3419L7.17742 9.46099C7.10574 9.38909 7.02064 9.33206 6.92699 9.29315C6.83333 9.25424 6.73295 9.23422 6.63157 9.23422C6.5302 9.23422 6.42982 9.25424 6.33616 9.29315C6.2425 9.33206 6.1574 9.38909 6.08572 9.46099L3.76994 11.7836C3.69825 11.8555 3.64139 11.9408 3.60259 12.0347C3.5638 12.1287 3.54383 12.2293 3.54383 12.331C3.54383 12.4327 3.5638 12.5334 3.60259 12.6273C3.64139 12.7212 3.69825 12.8066 3.76994 12.8785L5.64534 14.7594C5.09853 15.6895 4.69709 16.6982 4.45502 17.7504H2.77193ZM44.23 45.8481C44.3034 45.9196 44.3619 46.0051 44.4021 46.0994C44.4423 46.1938 44.4633 46.2952 44.4641 46.3979C44.4648 46.5005 44.4452 46.6022 44.4064 46.6972C44.3676 46.7921 44.3103 46.8784 44.238 46.951C44.1656 47.0235 44.0796 47.0809 43.9849 47.1198C43.8903 47.1588 43.7888 47.1784 43.6865 47.1777C43.5842 47.1769 43.483 47.1558 43.3889 47.1154C43.2948 47.0751 43.2097 47.0165 43.1384 46.9428L35.6395 39.4221C36.0256 39.0802 36.3901 38.7145 36.7311 38.3273L44.23 45.8481ZM30.5626 10.6456C30.6084 8.1677 31.906 6.91167 34.421 6.91167C36.9394 6.91167 38.2368 8.1707 38.2795 10.6546C38.0625 11.2524 37.0075 14.0636 36.2031 16.202H32.6401L30.5626 10.6456ZM32.8772 17.7504H35.9649V19.2987H33.4472C33.2602 19.1946 33.0701 19.0952 32.8772 19.0004V17.7504ZM38.2807 30.1374C38.2807 32.2808 37.647 34.3761 36.4599 36.1583C35.2727 37.9406 33.5853 39.3298 31.611 40.1504C29.6367 40.971 27.4642 41.186 25.368 40.7684C23.2719 40.3508 21.3463 39.3193 19.8346 37.8042C18.3229 36.2891 17.293 34.3585 16.8752 32.2565C16.4574 30.1545 16.6703 27.9755 17.4871 25.9948C18.304 24.0142 19.688 22.3209 21.4642 21.129C23.2404 19.9372 25.3291 19.3002 27.4662 19.2987H27.4736C30.3389 19.302 33.0858 20.445 35.1118 22.4769C37.1378 24.5089 38.2774 27.2638 38.2807 30.1374ZM14.3509 23.9439C13.5875 23.9439 12.8413 23.7169 12.2066 23.2915C11.5718 22.8662 11.0771 22.2616 10.785 21.5543C10.4929 20.847 10.4165 20.0686 10.5654 19.3178C10.7143 18.5669 11.0819 17.8771 11.6217 17.3358C12.1615 16.7944 12.8492 16.4257 13.5979 16.2764C14.3466 16.127 15.1226 16.2037 15.8279 16.4966C16.5331 16.7896 17.1359 17.2858 17.56 17.9223C17.9841 18.5589 18.2105 19.3073 18.2105 20.0729C18.2094 21.0992 17.8023 22.0832 17.0788 22.8089C16.3552 23.5345 15.3741 23.9428 14.3509 23.9439ZM5.84913 18.652C6.06124 17.3789 6.5439 16.1665 7.26436 15.097C7.36824 14.9479 7.41648 14.7669 7.4006 14.5857C7.38472 14.4046 7.30574 14.2348 7.17752 14.1061L5.40739 12.331L6.63157 11.1032L8.40151 12.8785C8.52975 13.0071 8.69905 13.0863 8.8797 13.1022C9.06036 13.1181 9.24083 13.0697 9.38948 12.9656C10.4559 12.243 11.6647 11.7589 12.9341 11.5462C13.1143 11.516 13.278 11.4227 13.396 11.2829C13.5141 11.1431 13.5789 10.9658 13.5789 10.7826V8.46005H15.1228V10.7826C15.1228 10.9659 15.1876 11.1432 15.3057 11.283C15.4237 11.4228 15.5874 11.5161 15.7676 11.5463C17.037 11.759 18.2459 12.2431 19.3122 12.9657C19.4609 13.0698 19.6414 13.1182 19.822 13.1023C20.0027 13.0864 20.172 13.0072 20.3002 12.8786L22.0701 11.1032L23.2943 12.331L21.5243 14.1061C21.3961 14.2348 21.3171 14.4046 21.3012 14.5857C21.2853 14.7669 21.3336 14.9479 21.4375 15.097C22.1576 16.1661 22.6401 17.3779 22.8524 18.6504C21.7296 19.1068 20.6799 19.7264 19.7368 20.4891C19.7473 20.3514 19.7544 20.2128 19.7544 20.0725C19.7549 18.9212 19.3899 17.7997 18.7125 16.8703C18.035 15.941 17.0801 15.252 15.9862 14.9032C14.8923 14.5545 13.716 14.564 12.6278 14.9305C11.5397 15.2969 10.596 16.0013 9.93363 16.9415C9.27122 17.8817 8.92443 19.009 8.94347 20.1601C8.96252 21.3112 9.34641 22.4263 10.0395 23.344C10.7327 24.2616 11.6991 24.9342 12.7988 25.2642C13.8985 25.5943 15.0744 25.5647 16.1562 25.1797C15.473 26.7426 15.121 28.4309 15.1228 30.1374C15.1229 30.6551 15.1551 31.1722 15.2193 31.6858H13.5789V29.3633C13.5789 29.18 13.5141 29.0027 13.3961 28.8629C13.278 28.7231 13.1143 28.6298 12.9341 28.5996C11.6647 28.3869 10.4559 27.9028 9.38948 27.1802C9.24083 27.076 9.06036 27.0277 8.8797 27.0436C8.69905 27.0595 8.52975 27.1387 8.40151 27.2673L6.63157 29.0426L5.40739 27.8149L7.17742 26.0397C7.30564 25.9111 7.38462 25.7413 7.4005 25.5601C7.41638 25.379 7.36815 25.198 7.26426 25.0489C6.54381 23.9794 6.06115 22.7669 5.84903 21.4939C5.81896 21.3132 5.72595 21.149 5.58655 21.0306C5.44715 20.9122 5.2704 20.8472 5.08772 20.8471H3.54386V19.2987H5.08772C5.27041 19.2988 5.44719 19.2338 5.58661 19.1153C5.72603 18.9969 5.81905 18.8327 5.84913 18.652Z" fill="#EB7124"/>
<path d="M26.0118 5.01765C25.9202 5.20129 25.9051 5.41389 25.9699 5.60868C26.0346 5.80346 26.1738 5.96449 26.3569 6.05632L27.9008 6.83052C27.9915 6.87693 28.0906 6.90486 28.1921 6.91271C28.2937 6.92055 28.3958 6.90815 28.4926 6.87622C28.5894 6.8443 28.6789 6.79347 28.756 6.72668C28.8331 6.65989 28.8962 6.57845 28.9418 6.48707C28.9874 6.39568 29.0145 6.29615 29.0215 6.19422C29.0285 6.09229 29.0154 5.98996 28.9828 5.89316C28.9502 5.79635 28.8988 5.70697 28.8316 5.63017C28.7644 5.55337 28.6827 5.49067 28.5913 5.44568L27.0474 4.67149C26.8643 4.57966 26.6523 4.56454 26.4581 4.62946C26.2639 4.69438 26.1033 4.83401 26.0118 5.01765ZM33.6495 1.49294V3.04133C33.6495 3.24666 33.7308 3.44358 33.8756 3.58876C34.0204 3.73395 34.2167 3.81552 34.4214 3.81552C34.6262 3.81552 34.8225 3.73395 34.9673 3.58876C35.112 3.44358 35.1934 3.24666 35.1934 3.04133V1.49294C35.1934 1.28761 35.112 1.0907 34.9673 0.945506C34.8225 0.800317 34.6262 0.71875 34.4214 0.71875C34.2167 0.71875 34.0204 0.800317 33.8756 0.945506C33.7308 1.0907 33.6495 1.28761 33.6495 1.49294ZM29.4446 1.57472C29.2615 1.66655 29.1223 1.82758 29.0576 2.02237C28.9928 2.21715 29.0079 2.42975 29.0995 2.61339L29.8714 4.16178C29.9163 4.25352 29.9788 4.33545 30.0554 4.40284C30.1319 4.47023 30.221 4.52175 30.3176 4.55444C30.4141 4.58712 30.5161 4.60032 30.6178 4.59327C30.7194 4.58622 30.8186 4.55906 30.9097 4.51336C31.0009 4.46766 31.0821 4.40432 31.1487 4.327C31.2153 4.24967 31.2659 4.15989 31.2978 4.06283C31.3296 3.96577 31.342 3.86335 31.3341 3.76148C31.3263 3.6596 31.2985 3.56029 31.2522 3.46926L30.4803 1.92088C30.3887 1.73724 30.2281 1.59761 30.0339 1.53269C29.8397 1.46777 29.6277 1.48289 29.4446 1.57472ZM38.3626 1.92088L37.5907 3.46926C37.5444 3.56029 37.5166 3.6596 37.5087 3.76148C37.5009 3.86335 37.5133 3.96577 37.5451 4.06283C37.577 4.15989 37.6276 4.24967 37.6942 4.327C37.7608 4.40432 37.842 4.46766 37.9331 4.51336C38.0243 4.55906 38.1235 4.58622 38.2251 4.59327C38.3268 4.60032 38.4288 4.58712 38.5253 4.55444C38.6218 4.52175 38.711 4.47023 38.7875 4.40284C38.8641 4.33545 38.9266 4.25352 38.9715 4.16178L39.7434 2.61339C39.7897 2.52237 39.8175 2.42305 39.8254 2.32118C39.8332 2.2193 39.8208 2.11688 39.789 2.01982C39.7571 1.92276 39.7065 1.83298 39.6399 1.75566C39.5733 1.67833 39.4921 1.615 39.401 1.5693C39.3098 1.5236 39.2106 1.49644 39.109 1.48939C39.0073 1.48234 38.9053 1.49554 38.8088 1.52822C38.7123 1.5609 38.6231 1.61243 38.5466 1.67982C38.47 1.74721 38.4075 1.82914 38.3626 1.92088ZM41.7955 4.67149L40.2516 5.44568C40.1602 5.49067 40.0785 5.55337 40.0113 5.63017C39.9441 5.70697 39.8927 5.79635 39.8601 5.89316C39.8275 5.98996 39.8144 6.09229 39.8214 6.19422C39.8284 6.29615 39.8555 6.39568 39.9011 6.48707C39.9466 6.57845 40.0098 6.65989 40.0869 6.72668C40.164 6.79347 40.2535 6.8443 40.3503 6.87622C40.4471 6.90815 40.5492 6.92055 40.6508 6.91271C40.7523 6.90486 40.8514 6.87693 40.9421 6.83052L42.486 6.05632C42.5774 6.01134 42.6591 5.94864 42.7263 5.87184C42.7935 5.79504 42.8449 5.70566 42.8775 5.60885C42.9101 5.51204 42.9232 5.40972 42.9162 5.30779C42.9092 5.20585 42.8821 5.10632 42.8365 5.01494C42.791 4.92355 42.7278 4.84211 42.6507 4.77532C42.5736 4.70853 42.4841 4.65771 42.3873 4.62578C42.2905 4.59385 42.1884 4.58145 42.0868 4.5893C41.9853 4.59714 41.8862 4.62508 41.7955 4.67149ZM18.2109 30.1381C18.2109 31.9755 18.7542 33.7717 19.7721 35.2995C20.7899 36.8273 22.2366 38.018 23.9292 38.7212C25.6218 39.4244 27.4844 39.6083 29.2812 39.2499C31.0781 38.8914 32.7286 38.0066 34.0241 36.7073C35.3196 35.408 36.2018 33.7527 36.5592 31.9505C36.9167 30.1484 36.7332 28.2804 36.0321 26.5828C35.331 24.8852 34.1437 23.4343 32.6204 22.4135C31.0971 21.3926 29.3062 20.8478 27.4741 20.8478C25.0182 20.8505 22.6637 21.8302 20.9271 23.5719C19.1905 25.3136 18.2137 27.675 18.2109 30.1381ZM35.1934 30.1381C35.1934 31.6693 34.7406 33.1661 33.8924 34.4393C33.0442 35.7124 31.8386 36.7047 30.4281 37.2907C29.0176 37.8766 27.4655 38.03 25.9681 37.7312C24.4707 37.4325 23.0953 36.6952 22.0157 35.6124C20.9362 34.5297 20.201 33.1502 19.9031 31.6484C19.6053 30.1467 19.7581 28.59 20.3424 27.1754C20.9266 25.7607 21.916 24.5516 23.1855 23.7009C24.4549 22.8502 25.9474 22.3961 27.4741 22.3961C29.5207 22.3985 31.4827 23.2149 32.9299 24.6663C34.377 26.1177 35.191 28.0855 35.1934 30.1381Z" fill="#EB7124"/>
<path d="M22.8407 30.1375C22.8407 29.9321 22.7594 29.7352 22.6146 29.59C22.4699 29.4448 22.2735 29.3633 22.0688 29.3633C21.8641 29.3633 21.6677 29.4448 21.523 29.59C21.3782 29.7352 21.2969 29.9321 21.2969 30.1375C21.2987 31.7795 21.9499 33.3538 23.1076 34.5149C24.2654 35.676 25.835 36.3292 27.4723 36.331C27.677 36.331 27.8734 36.2494 28.0181 36.1043C28.1629 35.9591 28.2442 35.7622 28.2442 35.5568C28.2442 35.3515 28.1629 35.1546 28.0181 35.0094C27.8734 34.8642 27.677 34.7826 27.4723 34.7826C26.2444 34.7813 25.0671 34.2914 24.1988 33.4206C23.3305 32.5498 22.8421 31.369 22.8407 30.1375Z" fill="#EB7124"/>
</svg>
