<svg width="139" height="36" viewBox="0 0 139 36" fill="none" xmlns="http://www.w3.org/2000/svg">
<g clip-path="url(#clip0_3082_1350)">
<path d="M30.8189 9.95073L17.3361 2.16602L3.8537 9.95029L3.85352 25.5186L17.3363 33.3032L30.8189 25.519L30.8189 9.95073Z" fill="white"/>
<path d="M3.85449 22.4034L17.3369 14.6191L30.8196 22.4039L17.3371 30.1881L3.85449 22.4034Z" fill="#001A3D"/>
<path d="M30.8195 25.5166L30.8194 22.4033L17.3369 30.1875L17.337 33.3009L30.8195 25.5166Z" fill="white"/>
<path d="M17.3373 33.3003L3.85449 25.5157L3.85455 22.4023L17.3372 30.187L17.3373 33.3003Z" fill="white"/>
<path d="M3.85449 16.1769L17.3369 8.39258L30.8196 16.1772L17.3371 23.9615L3.85449 16.1769Z" fill="#001A3D"/>
<path d="M30.8195 19.2901L30.8194 16.1768L17.3369 23.961L17.337 27.0743L30.8195 19.2901Z" fill="white"/>
<path d="M17.3373 27.0737L3.85449 19.2891L3.85455 16.1758L17.3372 23.9604L17.3373 27.0737Z" fill="white"/>
<path d="M3.85449 9.94932L17.3369 2.16504L30.8196 9.94975L17.3371 17.734L3.85449 9.94932Z" fill="white"/>
<path d="M30.8195 13.0625L30.8194 9.94922L17.3369 17.7334L17.337 20.8468L30.8195 13.0625Z" fill="white"/>
<path d="M17.3373 20.8462L3.85449 13.0616L3.85455 9.94824L17.3372 17.7329L17.3373 20.8462Z" fill="white"/>
</g>
<path d="M39.8493 27.7334V8.3634H43.8793V24.2234H52.0693V27.7334H39.8493ZM58.878 28.0454C57.1447 28.0454 55.81 27.5081 54.874 26.4334C53.9554 25.3414 53.496 23.9114 53.496 22.1434V13.5374H57.396V21.8314C57.396 22.6461 57.6387 23.3047 58.124 23.8074C58.6094 24.2927 59.2334 24.5354 59.996 24.5354C60.7587 24.5354 61.3827 24.2927 61.868 23.8074C62.3534 23.3047 62.596 22.6461 62.596 21.8314V13.5374H66.496V27.7334H62.856V25.9914C62.492 26.6847 61.9634 27.2047 61.27 27.5514C60.5767 27.8807 59.7794 28.0454 58.878 28.0454ZM69.3465 27.7334V13.5374H72.9865V15.2794C73.3505 14.5861 73.8792 14.0747 74.5725 13.7454C75.2658 13.3987 76.0632 13.2254 76.9645 13.2254C77.9005 13.2254 78.7498 13.4247 79.5125 13.8234C80.2925 14.2047 80.8818 14.7334 81.2805 15.4094C81.7832 14.6641 82.4072 14.1181 83.1525 13.7714C83.9152 13.4074 84.7558 13.2254 85.6745 13.2254C86.6972 13.2254 87.5985 13.4507 88.3785 13.9014C89.1758 14.3521 89.7998 14.9847 90.2505 15.7994C90.7012 16.5967 90.9265 17.5327 90.9265 18.6074V27.7334H87.0265V19.4394C87.0265 18.6247 86.8012 17.9747 86.3505 17.4894C85.9172 16.9867 85.3192 16.7354 84.5565 16.7354C83.7938 16.7354 83.1872 16.9867 82.7365 17.4894C82.3032 17.9747 82.0865 18.6247 82.0865 19.4394V27.7334H78.1865V19.4394C78.1865 18.6247 77.9612 17.9747 77.5105 17.4894C77.0772 16.9867 76.4792 16.7354 75.7165 16.7354C74.9538 16.7354 74.3472 16.9867 73.8965 17.4894C73.4632 17.9747 73.2465 18.6247 73.2465 19.4394V27.7334H69.3465ZM93.493 12.2634V8.3634H97.393V12.2634H93.493ZM93.493 27.7334V13.5374H97.393V27.7334H93.493ZM100.247 27.7334V13.5374H103.887V15.2794C104.251 14.5861 104.78 14.0747 105.473 13.7454C106.166 13.3987 106.964 13.2254 107.865 13.2254C108.94 13.2254 109.876 13.4507 110.673 13.9014C111.488 14.3521 112.12 14.9847 112.571 15.7994C113.022 16.5967 113.247 17.5327 113.247 18.6074V27.7334H109.347V19.4394C109.347 18.6247 109.104 17.9747 108.619 17.4894C108.134 16.9867 107.51 16.7354 106.747 16.7354C105.984 16.7354 105.36 16.9867 104.875 17.4894C104.39 17.9747 104.147 18.6247 104.147 19.4394V27.7334H100.247ZM115.811 12.2634V8.3634H119.711V12.2634H115.811ZM115.811 27.7334V13.5374H119.711V27.7334H115.811ZM121.447 27.7334L126.413 20.6094L121.421 13.5374H125.945L128.701 17.5934L131.457 13.5374H135.981L130.989 20.6094L135.929 27.7334H131.431L128.701 23.6254L125.971 27.7334H121.447Z" fill="white"/>
<defs>
<clipPath id="clip0_3082_1350">
<rect width="31.2" height="31.2" fill="white" transform="translate(1.7334 2.13379)"/>
</clipPath>
</defs>
</svg>
