<svg width="139" height="36" viewBox="0 0 139 36" fill="none" xmlns="http://www.w3.org/2000/svg">
<g clip-path="url(#clip0_446_702)">
<path d="M30.8189 9.95073L17.3361 2.16602L3.8537 9.95029L3.85352 25.5186L17.3363 33.3032L30.8189 25.519L30.8189 9.95073Z" fill="#2920D2"/>
<path d="M3.85449 22.4034L17.3369 14.6191L30.8196 22.4039L17.3371 30.1881L3.85449 22.4034Z" fill="white"/>
<path d="M30.8195 25.5166L30.8194 22.4033L17.3369 30.1875L17.337 33.3009L30.8195 25.5166Z" fill="#2920D2"/>
<path d="M17.3373 33.3003L3.85449 25.5157L3.85455 22.4023L17.3372 30.187L17.3373 33.3003Z" fill="#2920D2"/>
<path d="M3.85449 16.1769L17.3369 8.39258L30.8196 16.1772L17.3371 23.9615L3.85449 16.1769Z" fill="white"/>
<path d="M30.8195 19.2901L30.8194 16.1768L17.3369 23.961L17.337 27.0743L30.8195 19.2901Z" fill="#2920D2"/>
<path d="M17.3373 27.0737L3.85449 19.2891L3.85455 16.1758L17.3372 23.9604L17.3373 27.0737Z" fill="#2920D2"/>
<path d="M3.85449 9.94932L17.3369 2.16504L30.8196 9.94975L17.3371 17.734L3.85449 9.94932Z" fill="#2920D2"/>
<path d="M30.8195 13.0625L30.8194 9.94922L17.3369 17.7334L17.337 20.8468L30.8195 13.0625Z" fill="#2920D2"/>
<path d="M17.3373 20.8462L3.85449 13.0616L3.85455 9.94824L17.3372 17.7329L17.3373 20.8462Z" fill="#2920D2"/>
</g>
<path d="M39.8498 27.7334V8.3634H43.8798V24.2234H52.0698V27.7334H39.8498ZM58.8785 28.0454C57.1452 28.0454 55.8105 27.5081 54.8745 26.4334C53.9559 25.3414 53.4965 23.9114 53.4965 22.1434V13.5374H57.3965V21.8314C57.3965 22.6461 57.6392 23.3047 58.1245 23.8074C58.6099 24.2927 59.2339 24.5354 59.9965 24.5354C60.7592 24.5354 61.3832 24.2927 61.8685 23.8074C62.3539 23.3047 62.5965 22.6461 62.5965 21.8314V13.5374H66.4965V27.7334H62.8565V25.9914C62.4925 26.6847 61.9639 27.2047 61.2705 27.5514C60.5772 27.8807 59.7799 28.0454 58.8785 28.0454ZM69.347 27.7334V13.5374H72.987V15.2794C73.351 14.5861 73.8797 14.0747 74.573 13.7454C75.2663 13.3987 76.0637 13.2254 76.965 13.2254C77.901 13.2254 78.7503 13.4247 79.513 13.8234C80.293 14.2047 80.8823 14.7334 81.281 15.4094C81.7837 14.6641 82.4077 14.1181 83.153 13.7714C83.9157 13.4074 84.7563 13.2254 85.675 13.2254C86.6977 13.2254 87.599 13.4507 88.379 13.9014C89.1763 14.3521 89.8003 14.9847 90.251 15.7994C90.7017 16.5967 90.927 17.5327 90.927 18.6074V27.7334H87.027V19.4394C87.027 18.6247 86.8017 17.9747 86.351 17.4894C85.9177 16.9867 85.3197 16.7354 84.557 16.7354C83.7943 16.7354 83.1877 16.9867 82.737 17.4894C82.3037 17.9747 82.087 18.6247 82.087 19.4394V27.7334H78.187V19.4394C78.187 18.6247 77.9617 17.9747 77.511 17.4894C77.0777 16.9867 76.4797 16.7354 75.717 16.7354C74.9543 16.7354 74.3477 16.9867 73.897 17.4894C73.4637 17.9747 73.247 18.6247 73.247 19.4394V27.7334H69.347ZM93.4935 12.2634V8.3634H97.3935V12.2634H93.4935ZM93.4935 27.7334V13.5374H97.3935V27.7334H93.4935ZM100.247 27.7334V13.5374H103.887V15.2794C104.251 14.5861 104.78 14.0747 105.473 13.7454C106.167 13.3987 106.964 13.2254 107.865 13.2254C108.94 13.2254 109.876 13.4507 110.673 13.9014C111.488 14.3521 112.121 14.9847 112.571 15.7994C113.022 16.5967 113.247 17.5327 113.247 18.6074V27.7334H109.347V19.4394C109.347 18.6247 109.105 17.9747 108.619 17.4894C108.134 16.9867 107.51 16.7354 106.747 16.7354C105.985 16.7354 105.361 16.9867 104.875 17.4894C104.39 17.9747 104.147 18.6247 104.147 19.4394V27.7334H100.247ZM115.812 12.2634V8.3634H119.712V12.2634H115.812ZM115.812 27.7334V13.5374H119.712V27.7334H115.812ZM121.448 27.7334L126.414 20.6094L121.422 13.5374H125.946L128.702 17.5934L131.458 13.5374H135.982L130.99 20.6094L135.93 27.7334H131.432L128.702 23.6254L125.972 27.7334H121.448Z" fill="#001A3D"/>
<defs>
<clipPath id="clip0_446_702">
<rect width="31.2" height="31.2" fill="white" transform="translate(1.7334 2.13379)"/>
</clipPath>
</defs>
</svg>
