<svg width="139" height="36" viewBox="0 0 139 36" fill="none" xmlns="http://www.w3.org/2000/svg">
<g clip-path="url(#clip0_493_938)">
<path d="M30.8189 9.94878L17.3361 2.16406L3.8537 9.94834L3.85352 25.5166L17.3363 33.3013L30.8189 25.5171L30.8189 9.94878Z" fill="#2920D2"/>
<path d="M3.85449 22.4015L17.3369 14.6172L30.8196 22.4019L17.3371 30.1861L3.85449 22.4015Z" fill="#001A3D"/>
<path d="M30.8195 25.5156L30.8194 22.4023L17.3369 30.1866L17.337 33.2999L30.8195 25.5156Z" fill="#2920D2"/>
<path d="M17.3373 33.2984L3.85449 25.5137L3.85455 22.4004L17.3372 30.185L17.3373 33.2984Z" fill="#2920D2"/>
<path d="M3.85449 16.1749L17.3369 8.39062L30.8196 16.1753L17.3371 23.9595L3.85449 16.1749Z" fill="#001A3D"/>
<path d="M30.8195 19.2891L30.8194 16.1758L17.3369 23.9601L17.337 27.0733L30.8195 19.2891Z" fill="#2920D2"/>
<path d="M17.3373 27.0717L3.85449 19.2872L3.85455 16.1738L17.3372 23.9585L17.3373 27.0717Z" fill="#2920D2"/>
<path d="M3.85449 9.94834L17.3369 2.16406L30.8196 9.94878L17.3371 17.733L3.85449 9.94834Z" fill="#2920D2"/>
<path d="M30.8195 13.0625L30.8194 9.94922L17.3369 17.7334L17.337 20.8468L30.8195 13.0625Z" fill="#2920D2"/>
<path d="M17.3373 20.8452L3.85449 13.0606L3.85455 9.94727L17.3372 17.7319L17.3373 20.8452Z" fill="#2920D2"/>
</g>
<path d="M39.8498 27.7324V8.36242H43.8798V24.2224H52.0698V27.7324H39.8498ZM58.8785 28.0444C57.1452 28.0444 55.8105 27.5071 54.8745 26.4324C53.9559 25.3404 53.4965 23.9104 53.4965 22.1424V13.5364H57.3965V21.8304C57.3965 22.6451 57.6392 23.3038 58.1245 23.8064C58.6099 24.2918 59.2339 24.5344 59.9965 24.5344C60.7592 24.5344 61.3832 24.2918 61.8685 23.8064C62.3539 23.3038 62.5965 22.6451 62.5965 21.8304V13.5364H66.4965V27.7324H62.8565V25.9904C62.4925 26.6838 61.9639 27.2038 61.2705 27.5504C60.5772 27.8798 59.7799 28.0444 58.8785 28.0444ZM69.347 27.7324V13.5364H72.987V15.2784C73.351 14.5851 73.8797 14.0738 74.573 13.7444C75.2663 13.3978 76.0637 13.2244 76.965 13.2244C77.901 13.2244 78.7503 13.4238 79.513 13.8224C80.293 14.2038 80.8823 14.7324 81.281 15.4084C81.7837 14.6631 82.4077 14.1171 83.153 13.7704C83.9157 13.4064 84.7563 13.2244 85.675 13.2244C86.6977 13.2244 87.599 13.4498 88.379 13.9004C89.1763 14.3511 89.8003 14.9838 90.251 15.7984C90.7017 16.5958 90.927 17.5318 90.927 18.6064V27.7324H87.027V19.4384C87.027 18.6238 86.8017 17.9738 86.351 17.4884C85.9177 16.9858 85.3197 16.7344 84.557 16.7344C83.7943 16.7344 83.1877 16.9858 82.737 17.4884C82.3037 17.9738 82.087 18.6238 82.087 19.4384V27.7324H78.187V19.4384C78.187 18.6238 77.9617 17.9738 77.511 17.4884C77.0777 16.9858 76.4797 16.7344 75.717 16.7344C74.9543 16.7344 74.3477 16.9858 73.897 17.4884C73.4637 17.9738 73.247 18.6238 73.247 19.4384V27.7324H69.347ZM93.4935 12.2624V8.36242H97.3935V12.2624H93.4935ZM93.4935 27.7324V13.5364H97.3935V27.7324H93.4935ZM100.247 27.7324V13.5364H103.887V15.2784C104.251 14.5851 104.78 14.0738 105.473 13.7444C106.167 13.3978 106.964 13.2244 107.865 13.2244C108.94 13.2244 109.876 13.4498 110.673 13.9004C111.488 14.3511 112.121 14.9838 112.571 15.7984C113.022 16.5958 113.247 17.5318 113.247 18.6064V27.7324H109.347V19.4384C109.347 18.6238 109.105 17.9738 108.619 17.4884C108.134 16.9858 107.51 16.7344 106.747 16.7344C105.985 16.7344 105.361 16.9858 104.875 17.4884C104.39 17.9738 104.147 18.6238 104.147 19.4384V27.7324H100.247ZM115.812 12.2624V8.36242H119.712V12.2624H115.812ZM115.812 27.7324V13.5364H119.712V27.7324H115.812ZM121.448 27.7324L126.414 20.6084L121.422 13.5364H125.946L128.702 17.5924L131.458 13.5364H135.982L130.99 20.6084L135.93 27.7324H131.432L128.702 23.6244L125.972 27.7324H121.448Z" fill="white"/>
<defs>
<clipPath id="clip0_493_938">
<rect width="31.2" height="31.2" fill="white" transform="translate(1.7334 2.13281)"/>
</clipPath>
</defs>
</svg>
