<svg width="494" height="340" viewBox="0 0 494 340" fill="none" xmlns="http://www.w3.org/2000/svg">
<g clip-path="url(#clip0_9458_47783)">
<path d="M206.592 317.485H134.038C116.125 317.485 112.704 321.712 120.251 324.831C127.799 327.951 91.6725 326.441 85.5341 331.976C79.295 337.511 95.1945 339.624 112.402 339.624H250.667C264.454 339.624 261.032 329.561 252.781 328.253C244.529 326.945 266.164 328.756 274.416 325.838C282.668 322.919 276.73 317.485 206.592 317.485Z" fill="#D2E9FF"/>
<path d="M312.451 335.9C310.338 338.819 303.294 339.523 291.319 339.221C282.262 338.919 272.803 338.215 272.803 333.988C272.803 329.762 295.847 330.265 303.897 331.171C310.841 331.976 313.658 334.19 312.451 335.9Z" fill="#00104C"/>
<path d="M103.947 321.812C102.538 323.926 97.7075 324.529 89.2547 324.529C82.915 324.529 76.2734 324.228 76.0722 321.309C75.8709 318.29 92.0723 318.19 97.8082 318.693C102.638 319.095 104.752 320.504 103.947 321.812Z" fill="#00104C"/>
<path d="M458.266 314.975H422.341C420.982 314.969 419.68 314.427 418.718 313.465C417.757 312.504 417.215 311.202 417.209 309.843V272.71C417.215 271.351 417.757 270.049 418.718 269.087C419.68 268.126 420.982 267.584 422.341 267.578H458.266C459.625 267.584 460.927 268.126 461.889 269.087C462.85 270.049 463.392 271.351 463.398 272.71V309.843C463.392 311.202 462.85 312.504 461.889 313.465C460.927 314.427 459.625 314.969 458.266 314.975Z" fill="#C5DFFF"/>
<path d="M456.556 313.262H422.04C420.733 313.26 419.48 312.74 418.556 311.815C417.632 310.891 417.112 309.638 417.109 308.331V272.507C417.112 271.2 417.632 269.947 418.556 269.023C419.48 268.098 420.733 267.578 422.04 267.576H456.556C457.863 267.578 459.116 268.098 460.04 269.023C460.965 269.947 461.485 271.2 461.487 272.507V308.331C461.485 309.638 460.965 310.891 460.04 311.815C459.116 312.74 457.863 313.26 456.556 313.262Z" fill="#E1ECFF"/>
<path d="M439.651 305.312C447.654 305.312 454.141 298.825 454.141 290.822C454.141 282.819 447.654 276.331 439.651 276.331C431.648 276.331 425.16 282.819 425.16 290.822C425.16 298.825 431.648 305.312 439.651 305.312Z" fill="#C5DFFF"/>
<path d="M433.915 297.364C433.675 297.364 433.445 297.269 433.275 297.099C433.105 296.929 433.01 296.699 433.01 296.458V285.288C433.01 285.048 433.105 284.818 433.275 284.648C433.445 284.478 433.675 284.383 433.915 284.383V284.383C434.156 284.383 434.386 284.478 434.556 284.648C434.726 284.818 434.821 285.048 434.821 285.288V296.458C434.821 296.699 434.726 296.929 434.556 297.099C434.386 297.269 434.156 297.364 433.915 297.364Z" fill="#00104C"/>
<path d="M444.382 297.364C444.142 297.364 443.912 297.269 443.742 297.099C443.572 296.929 443.477 296.699 443.477 296.458V285.288C443.477 285.048 443.572 284.818 443.742 284.648C443.912 284.478 444.142 284.383 444.382 284.383V284.383C444.622 284.383 444.853 284.478 445.023 284.648C445.192 284.818 445.288 285.048 445.288 285.288V296.458C445.288 296.699 445.192 296.929 445.023 297.099C444.853 297.269 444.622 297.364 444.382 297.364Z" fill="#00104C"/>
<path d="M351.903 252.174C351.197 252.191 350.491 252.157 349.79 252.074C334.192 250.967 323.525 245.633 305.613 218.363C299.374 208.904 295.148 199.243 291.022 189.885C283.978 173.884 277.94 159.998 264.255 153.557C243.223 143.696 222.594 159.998 222.393 160.199C221.964 160.532 221.422 160.685 220.883 160.623C220.344 160.562 219.85 160.291 219.508 159.87C219.165 159.449 219.002 158.91 219.052 158.369C219.102 157.829 219.362 157.33 219.776 156.979C220.682 156.274 242.619 138.865 265.965 149.834C281.06 156.878 287.701 172.073 294.745 188.174C298.771 197.432 302.997 206.992 309.035 216.048C326.041 241.809 335.802 246.841 350.092 247.948C360.758 248.753 366.494 242.313 372.029 235.973C373.879 233.806 375.862 231.756 377.966 229.834C382.824 225.598 388.733 222.747 395.073 221.583C395.337 221.543 395.607 221.556 395.866 221.621C396.126 221.685 396.37 221.8 396.585 221.959C396.799 222.118 396.981 222.317 397.119 222.546C397.257 222.775 397.348 223.029 397.388 223.294C397.427 223.558 397.414 223.827 397.35 224.087C397.285 224.346 397.17 224.59 397.012 224.805C396.853 225.02 396.653 225.202 396.424 225.339C396.195 225.477 395.941 225.568 395.677 225.608C390.136 226.742 384.975 229.271 380.683 232.954C378.714 234.742 376.865 236.659 375.148 238.69C369.513 245.13 363.274 252.174 351.903 252.174Z" fill="#00104C"/>
<path d="M410.467 214.638L418.92 207.493C419.122 207.322 419.356 207.193 419.61 207.115C419.863 207.037 420.13 207.011 420.393 207.039C420.657 207.068 420.912 207.149 421.143 207.279C421.374 207.409 421.576 207.585 421.737 207.795C422.034 208.186 422.168 208.677 422.112 209.164C422.056 209.652 421.813 210.099 421.435 210.412L412.882 217.959L410.467 214.638Z" fill="#00104C"/>
<path d="M405.236 208.601L413.689 201.456C413.891 201.285 414.126 201.156 414.379 201.078C414.633 201 414.899 200.974 415.163 201.002C415.426 201.031 415.681 201.112 415.913 201.242C416.144 201.372 416.346 201.548 416.507 201.758C416.804 202.149 416.938 202.639 416.882 203.127C416.825 203.615 416.583 204.061 416.205 204.375L407.651 211.922L405.236 208.601Z" fill="#00104C"/>
<path d="M416.404 218.361C413.775 221.361 410.951 224.184 407.952 226.814C402.819 231.242 396.178 230.437 393.159 227.015C392.958 226.814 392.857 226.613 392.656 226.412C391.256 224.634 390.6 222.382 390.825 220.13C391.05 217.879 392.139 215.802 393.863 214.336C397.989 210.512 404.832 205.078 404.832 205.078L413.084 214.638L416.404 218.361Z" fill="#E1ECFF"/>
<path d="M416.405 218.361C413.775 221.36 410.951 224.184 407.952 226.814C402.82 231.242 396.178 230.437 393.159 227.015C392.958 226.814 392.858 226.613 392.656 226.411C396.299 226.426 399.866 225.377 402.92 223.392C406.512 220.758 409.878 217.83 412.983 214.638L416.405 218.361Z" fill="#C5DFFF"/>
<path d="M262.442 295.449H262.039C255.196 295.349 237.385 281.965 232.857 275.726C228.228 269.487 224.102 261.537 229.737 256.405C231.027 255.322 232.597 254.624 234.265 254.392C237.352 253.91 240.508 254.591 243.121 256.304C247.951 259.424 261.536 275.223 265.36 281.965C269.083 288.607 268.983 295.349 262.442 295.449Z" fill="#00104C"/>
<path d="M262.442 295.449C263.448 294.846 264.153 293.839 264.756 291.827C265.763 288.305 262.241 281.261 250.668 267.776C243.725 259.625 237.788 256.003 234.266 254.392C237.352 253.91 240.508 254.591 243.121 256.304C247.951 259.424 261.536 275.223 265.36 281.965C269.083 288.607 268.983 295.349 262.442 295.449Z" fill="#384D89"/>
<path d="M228.429 260.734C229.435 257.916 235.271 258.419 240.303 263.35C245.334 268.281 252.982 278.042 251.07 282.269C249.158 286.495 241.913 283.074 235.976 277.237C230.039 271.401 226.818 265.262 228.429 260.734Z" fill="#00104C"/>
<path d="M241.109 273.314C241.028 275.141 240.547 276.927 239.7 278.547C239.7 278.547 212.63 291.428 178.718 267.78C144.202 243.729 144.102 213.742 144.102 213.44C161.812 196.131 181.737 215.15 181.737 215.15C182.8 222.666 185.042 229.968 188.379 236.786C191.498 243.025 196.026 249.365 202.467 253.591C212.168 259.893 223.81 262.501 235.272 260.937C235.272 260.937 238.492 261.943 240.404 268.082C241.062 269.743 241.304 271.539 241.109 273.314Z" fill="#E1ECFF"/>
<path d="M241.109 273.314C241.028 275.141 240.547 276.927 239.7 278.547C239.7 278.547 212.63 291.428 178.718 267.78C144.202 243.729 144.102 213.742 144.102 213.44C161.812 196.131 181.737 215.15 181.737 215.15C182.8 222.666 185.042 229.968 188.379 236.786C185.723 238.858 182.772 240.52 179.624 241.717C175.881 242.724 172.028 243.265 168.152 243.327C168.152 243.327 185.158 268.786 210.316 273.415C223.901 275.73 234.366 274.723 241.109 273.314Z" fill="#C5DFFF"/>
<path d="M203.17 278.443C202.898 278.442 202.634 278.353 202.416 278.19C202.199 278.027 202.04 277.798 201.962 277.537C201.899 277.373 201.869 277.197 201.876 277.02C201.882 276.843 201.924 276.67 202 276.51C202.075 276.35 202.182 276.207 202.314 276.09C202.446 275.972 202.6 275.883 202.768 275.827C202.868 275.827 208.302 273.713 209.912 269.286C210.942 266.683 211.049 263.806 210.214 261.135C210.088 260.814 210.092 260.457 210.223 260.138C210.354 259.819 210.603 259.564 210.919 259.424C211.239 259.298 211.597 259.302 211.915 259.433C212.234 259.564 212.49 259.813 212.629 260.128C213.684 263.418 213.577 266.971 212.327 270.191C210.214 275.827 203.874 278.141 203.573 278.242C203.533 278.312 203.474 278.368 203.402 278.404C203.33 278.44 203.25 278.453 203.17 278.443Z" fill="#C5DFFF"/>
<path d="M179.824 268.078C179.658 268.086 179.493 268.061 179.337 268.005C179.181 267.948 179.038 267.861 178.917 267.749C178.795 267.637 178.697 267.501 178.628 267.35C178.559 267.199 178.521 267.036 178.516 266.871C178.512 266.53 178.633 266.199 178.855 265.94C179.077 265.68 179.385 265.511 179.723 265.462C179.824 265.462 186.868 264.959 190.39 260.33C192.494 257.621 193.66 254.301 193.711 250.871C193.684 250.524 193.796 250.18 194.023 249.916C194.249 249.652 194.571 249.489 194.918 249.462C195.265 249.435 195.609 249.547 195.873 249.774C196.137 250 196.3 250.322 196.327 250.669C196.379 254.753 195.029 258.731 192.503 261.94C188.176 267.475 180.226 267.978 179.824 268.078Z" fill="#C5DFFF"/>
<path d="M132.125 249.059C131.702 250.027 131.161 250.94 130.515 251.776C129.393 253.231 127.945 254.403 126.288 255.197C125.15 255.784 123.928 256.191 122.666 256.405C122.666 256.405 108.477 242.618 96.0995 218.065C83.7221 193.612 82.8164 165.436 82.8164 165.436C83.8592 164.87 84.9345 164.366 86.0366 163.926C89.2938 162.634 92.8326 162.218 96.3008 162.719C98.8658 163.039 101.335 163.896 103.546 165.234C103.546 165.234 104.351 188.58 112.603 209.612C120.854 230.744 132.93 243.222 132.93 243.222C133.186 245.205 132.908 247.22 132.125 249.059Z" fill="#E1ECFF"/>
<path d="M132.126 249.058C127.698 245.133 119.245 236.177 111.094 218.869C101.333 198.139 97.4086 171.473 96.4023 162.718C98.9674 163.038 101.436 163.895 103.648 165.234C103.648 165.234 104.453 188.58 112.704 209.611C120.956 230.743 133.032 243.221 133.032 243.221C133.22 245.212 132.909 247.218 132.126 249.058Z" fill="#F8FBFF"/>
<path d="M126.288 255.199C125.15 255.785 123.928 256.193 122.666 256.406C122.666 256.406 108.477 242.62 96.0995 218.066C83.7221 193.613 82.8164 165.437 82.8164 165.437C83.8592 164.871 84.9345 164.367 86.0366 163.928C86.741 172.984 90.0617 202.771 104.15 226.117C113.81 242.016 121.559 250.67 126.288 255.199Z" fill="#C5DFFF"/>
<path d="M154.367 269.686C150.893 271.569 146.87 272.174 142.996 271.397C136.858 269.988 134.543 267.976 134.543 267.976C134.543 267.976 132.53 264.957 134.04 263.246L134.241 263.045C135.537 261.971 137.104 261.275 138.769 261.032C140.684 262.531 142.781 263.782 145.009 264.756C147.625 265.661 152.254 264.756 153.965 265.862C154.303 266.11 154.561 266.453 154.704 266.847C154.848 267.241 154.87 267.669 154.77 268.076C154.763 268.637 154.626 269.189 154.367 269.686Z" fill="#E1ECFF"/>
<path d="M154.367 269.686C150.893 271.569 146.87 272.174 142.996 271.397C136.858 269.988 134.543 267.976 134.543 267.976C134.543 267.976 132.53 264.957 134.04 263.246C135.851 264.957 140.178 268.68 145.21 269.284C148.447 269.68 151.732 269.265 154.77 268.076C154.763 268.637 154.626 269.189 154.367 269.686Z" fill="#C5DFFF"/>
<path d="M152.454 266.872C148.403 267.54 144.246 266.794 140.68 264.759C139.101 263.973 137.75 262.795 136.756 261.338C136.763 260.68 136.899 260.03 137.159 259.426C137.418 258.821 137.794 258.274 138.265 257.816C139.07 257.111 140.379 256.809 142.391 257.413C142.391 257.413 146.316 260.834 152.857 258.52C159.398 256.206 158.995 254.797 160.404 254.394C161.41 254.092 162.718 255.602 163.02 257.312C163.209 258.085 163.138 258.898 162.819 259.627C161.683 261.483 160.176 263.084 158.392 264.331C156.609 265.578 154.587 266.443 152.454 266.872Z" fill="#E1ECFF"/>
<path d="M152.452 266.872C148.401 267.54 144.244 266.794 140.678 264.759C139.099 263.973 137.748 262.795 136.754 261.338C136.761 260.68 136.897 260.03 137.157 259.426C137.416 258.821 137.792 258.274 138.263 257.816C140.678 260.231 145.911 264.558 151.647 263.451C155.966 262.508 159.938 260.382 163.119 257.312C163.308 258.085 163.237 258.899 162.918 259.627C161.747 261.474 160.217 263.066 158.42 264.311C156.622 265.556 154.593 266.427 152.452 266.872Z" fill="#C5DFFF"/>
<path d="M151.346 260.231C147.502 260.886 143.55 260.174 140.176 258.219C138.666 257.503 137.379 256.39 136.453 254.999C136.468 253.72 136.972 252.496 137.862 251.577C138.667 250.873 139.875 250.571 141.786 251.175C141.786 251.175 145.51 254.395 151.749 252.181C157.988 249.967 157.585 248.659 158.894 248.257C159.799 247.955 161.107 249.464 161.409 251.074C161.594 251.814 161.523 252.594 161.208 253.288C160.143 255.072 158.715 256.613 157.016 257.809C155.317 259.005 153.385 259.83 151.346 260.231Z" fill="#E1ECFF"/>
<path d="M151.346 260.231C147.502 260.885 143.55 260.173 140.176 258.218C138.666 257.502 137.379 256.389 136.453 254.998C136.468 253.719 136.972 252.495 137.862 251.576C140.076 253.891 145.107 258.017 150.541 256.91C154.625 255.981 158.38 253.964 161.409 251.073C161.594 251.813 161.523 252.593 161.208 253.287C160.143 255.071 158.715 256.612 157.016 257.808C155.317 259.004 153.385 259.83 151.346 260.231Z" fill="#C5DFFF"/>
<path d="M150.643 255.197C147.302 256.326 143.673 256.255 140.379 254.996C138.955 254.567 137.67 253.768 136.656 252.681C136.576 252.111 136.615 251.531 136.771 250.976C136.927 250.422 137.196 249.906 137.561 249.461C138.165 248.757 139.272 248.354 141.083 248.555C141.083 248.555 144.807 250.87 150.14 248.153C155.473 245.335 154.97 244.228 156.077 243.625C156.882 243.222 158.19 244.329 158.694 245.738C158.93 246.383 158.965 247.085 158.794 247.75C157.154 251.202 154.228 253.874 150.643 255.197Z" fill="#E1ECFF"/>
<path d="M150.643 255.197C147.302 256.326 143.673 256.255 140.379 254.996C138.955 254.568 137.67 253.769 136.656 252.682C136.576 252.112 136.615 251.531 136.771 250.977C136.927 250.422 137.196 249.906 137.561 249.462C139.876 251.172 144.807 254.191 149.536 252.48C153.126 251.124 156.264 248.788 158.593 245.738C158.829 246.384 158.864 247.085 158.694 247.751C157.919 249.468 156.808 251.013 155.425 252.292C154.042 253.571 152.416 254.559 150.643 255.197Z" fill="#C5DFFF"/>
<path d="M147.122 250.369C146.86 251.728 146.524 253.071 146.116 254.394C145.285 257.36 143.994 260.178 142.292 262.746C141.564 263.686 140.756 264.562 139.877 265.362C138.417 266.796 136.616 267.835 134.644 268.381C134.644 268.381 126.896 260.935 124.682 258.419C123.241 256.824 121.897 255.144 120.657 253.388C120.302 251.458 120.302 249.48 120.657 247.551C120.916 245.841 121.648 244.238 122.77 242.922C123.357 242.358 123.997 241.852 124.682 241.413C126.936 240.416 129.475 240.273 131.827 241.01C131.827 241.01 139.273 245.639 142.594 247.45C144.203 248.26 145.72 249.238 147.122 250.369Z" fill="#E1ECFF"/>
<path d="M147.122 250.369C146.86 251.728 146.524 253.071 146.116 254.394C143.398 252.843 140.777 251.129 138.267 249.262C133.898 246.377 129.362 243.756 124.682 241.413C126.935 240.416 129.475 240.273 131.826 241.01C131.826 241.01 139.273 245.639 142.594 247.45C144.202 248.26 145.72 249.238 147.122 250.369Z" fill="#F8FBFF"/>
<path d="M139.877 265.26C138.383 266.647 136.594 267.679 134.644 268.279C134.644 268.279 126.896 260.731 124.682 258.316C123.241 256.721 121.897 255.041 120.657 253.285C120.302 251.355 120.302 249.378 120.657 247.448C123.776 250.97 132.129 260.027 137.965 263.851C138.67 264.455 139.374 264.857 139.877 265.26Z" fill="#C5DFFF"/>
<path d="M111.096 239.498C110.231 239.432 109.382 239.228 108.581 238.894C108.293 238.728 108.08 238.458 107.986 238.139C107.892 237.821 107.925 237.478 108.078 237.183C108.143 237.037 108.236 236.905 108.353 236.796C108.469 236.686 108.607 236.601 108.756 236.545C108.906 236.488 109.066 236.462 109.225 236.468C109.385 236.474 109.542 236.512 109.688 236.579C109.788 236.68 112.606 237.988 116.329 235.573C120.053 233.158 120.656 230.139 120.656 230.038C120.668 229.873 120.716 229.713 120.796 229.568C120.877 229.424 120.989 229.299 121.123 229.203C121.258 229.107 121.412 229.042 121.575 229.012C121.738 228.983 121.905 228.989 122.065 229.032C122.389 229.116 122.671 229.316 122.856 229.595C123.042 229.873 123.118 230.21 123.071 230.542C123.071 230.743 122.367 234.768 117.637 237.888C115.664 239.06 113.388 239.62 111.096 239.498Z" fill="#C5DFFF"/>
<path d="M100.328 219.273C99.0845 219.142 97.865 218.837 96.7057 218.368C96.4178 218.202 96.2047 217.932 96.111 217.613C96.0173 217.295 96.0501 216.952 96.2026 216.657C96.26 216.517 96.3451 216.389 96.4528 216.282C96.5605 216.175 96.6885 216.091 96.8293 216.035C96.9702 215.979 97.1209 215.951 97.2725 215.954C97.4242 215.958 97.5736 215.991 97.712 216.053C97.8127 216.154 101.335 217.864 105.964 215.751C110.492 213.739 111.297 210.82 111.297 210.619C111.324 210.464 111.382 210.316 111.469 210.184C111.556 210.053 111.669 209.941 111.802 209.856C111.935 209.771 112.083 209.714 112.239 209.69C112.395 209.665 112.554 209.673 112.706 209.713C113.019 209.83 113.276 210.061 113.426 210.36C113.575 210.659 113.606 211.003 113.511 211.324C113.511 211.525 112.404 215.55 106.769 218.166C104.76 219.104 102.536 219.487 100.328 219.273Z" fill="#C5DFFF"/>
<path d="M92.6829 196.632C91.0554 196.599 89.4762 196.073 88.1545 195.122C87.905 194.897 87.7467 194.589 87.7096 194.255C87.6725 193.921 87.7592 193.585 87.9533 193.311C88.0392 193.169 88.1565 193.048 88.2962 192.958C88.4359 192.868 88.5944 192.811 88.7594 192.792C88.9244 192.772 89.0917 192.791 89.2485 192.846C89.4053 192.901 89.5474 192.991 89.664 193.11C89.7646 193.11 91.9785 194.82 96.9093 193.814C103.148 192.506 104.859 190.091 104.96 189.99C105.047 189.852 105.162 189.733 105.298 189.642C105.434 189.551 105.587 189.489 105.748 189.46C105.909 189.432 106.075 189.437 106.233 189.477C106.392 189.516 106.541 189.588 106.67 189.688C106.92 189.913 107.078 190.222 107.115 190.556C107.152 190.89 107.066 191.226 106.872 191.5C106.67 191.802 104.457 194.72 97.4125 196.33C95.8595 196.664 94.2657 196.765 92.6829 196.632Z" fill="#C5DFFF"/>
<path d="M107.574 179.826C102.996 181.907 98.011 182.939 92.9831 182.845C89.8712 182.876 86.787 182.259 83.9264 181.034C82.8607 180.595 81.8747 179.983 81.0081 179.223C81.0081 179.223 81.1088 177.411 80.8069 171.474C79.8006 152.757 88.2535 150.342 93.7881 150.141C95.1197 150.137 96.4438 150.34 97.7126 150.744C99.8047 151.536 101.684 152.802 103.204 154.443C104.723 156.085 105.84 158.057 106.467 160.204C108.178 166.342 107.574 179.826 107.574 179.826Z" fill="#00104C"/>
<path d="M95.196 161.713C88.8563 165.135 86.2399 162.921 86.2399 162.921C86.2399 162.921 84.7305 168.053 84.0261 178.216C83.9255 179.223 83.9255 180.229 83.8248 181.034C82.7591 180.595 81.7731 179.983 80.9066 179.223C80.9066 179.223 81.0072 177.411 80.7053 171.474C79.699 152.757 88.1519 150.342 93.6865 150.141C95.0182 150.137 96.3423 150.34 97.6111 150.744C99.2212 153.461 101.032 158.594 95.196 161.713Z" fill="#384D89"/>
<path d="M223.699 193.107C223.397 194.717 223.095 196.227 222.693 197.736C220.278 207.095 216.051 214.642 210.114 219.573C193.107 233.761 169.761 241.309 139.774 221.887C115.824 206.39 93.7861 171.27 85.8363 157.685C83.8237 154.264 82.7168 152.151 82.7168 152.151C82.7168 152.151 96.5031 151.446 118.239 141.484C128.959 136.471 139.227 130.546 148.931 123.773C168.554 110.088 179.925 97.3076 186.466 87.3453C194.214 75.6723 195.321 68.0244 195.321 68.0244C195.321 68.0244 197.233 71.5465 200.554 79.2949C207.121 95.2941 212.765 111.656 217.46 128.302C224.806 153.66 226.818 176.101 223.699 193.107Z" fill="#E1ECFF"/>
<path d="M200.555 79.2969C197.715 84.8719 194.452 90.2209 190.794 95.297C180.234 109.548 167.134 121.727 152.152 131.222C142.652 137.463 132.656 142.915 122.265 147.524C104.353 155.474 91.9757 157.285 85.7367 157.587C83.7241 154.165 82.6172 152.052 82.6172 152.052C82.6172 152.052 96.4034 151.348 118.139 141.385C128.859 136.373 139.128 130.447 148.831 123.675C168.454 109.989 179.825 97.209 186.366 87.2467C194.115 75.5736 195.222 67.9258 195.222 67.9258C197.197 71.6201 198.978 75.4157 200.555 79.2969Z" fill="#00104C"/>
<path d="M222.693 197.735C220.278 207.094 216.051 214.641 210.114 219.572C193.107 233.761 169.761 241.308 139.774 221.886C115.824 206.39 93.7861 171.27 85.8363 157.685C83.8237 154.263 82.7168 152.15 82.7168 152.15C82.7168 152.15 96.5031 151.446 118.239 141.483C126.793 154.767 145.711 182.238 164.327 198.44C185.963 217.358 210.617 206.188 222.693 197.735Z" fill="#C5DFFF"/>
<path d="M122.265 147.622C104.353 155.572 91.9757 157.383 85.7367 157.685C83.7241 154.263 82.6172 152.15 82.6172 152.15C82.6172 152.15 96.4034 151.446 118.139 141.483C119.347 143.295 120.756 145.408 122.265 147.622Z" fill="#00104C"/>
<path d="M220.88 183.347C218.364 172.982 214.943 159.9 210.616 146.014C203.672 123.472 195.823 106.064 191.496 98.5163C197.534 89.359 198.641 85.6357 198.641 85.6357C198.641 85.6357 200.15 88.4534 202.767 94.4911C207.884 107.011 212.286 119.811 215.949 132.831C221.786 152.554 223.396 170.064 220.88 183.347Z" fill="#F8FBFF"/>
<path d="M200.553 79.2969C197.713 84.8719 194.45 90.2209 190.792 95.297C189.182 92.1775 187.773 89.4605 186.465 87.2467C194.213 75.5736 195.32 67.9258 195.32 67.9258C195.32 67.9258 197.333 71.6491 200.553 79.2969Z" fill="#384D89"/>
<path d="M169.06 191.799C169.06 191.799 160.003 198.642 141.588 206.29C136.456 208.403 131.424 210.214 126.896 211.724L125.688 210.516C112.808 198.139 101.235 182.139 93.3863 170.063C92.8832 169.359 92.4806 168.654 92.0781 168.051C102.587 165.224 112.85 161.556 122.77 157.082C139.777 149.535 144.104 146.113 144.104 146.113L169.06 191.799Z" fill="#E1ECFF"/>
<path d="M166.24 191.699C166.24 191.699 158.089 198.24 140.78 205.082C135.447 207.196 130.114 209.007 125.585 210.516C112.705 198.139 101.132 182.139 93.2832 170.063L94.8933 169.661C104.595 166.993 114.081 163.595 123.271 159.497C138.969 152.453 143.397 150.139 143.397 150.139L166.24 191.699Z" fill="#00104C"/>
<path d="M121.359 195.621C121.031 195.629 120.711 195.523 120.453 195.32L109.384 185.458L108.679 187.571C108.623 187.739 108.534 187.893 108.416 188.025C108.299 188.157 108.156 188.264 107.996 188.339C107.836 188.414 107.663 188.456 107.486 188.463C107.31 188.469 107.134 188.44 106.969 188.376C106.801 188.32 106.647 188.23 106.515 188.113C106.383 187.996 106.276 187.853 106.201 187.693C106.125 187.533 106.083 187.359 106.077 187.183C106.071 187.006 106.1 186.83 106.164 186.665L107.572 182.64C107.653 182.435 107.775 182.249 107.931 182.093C108.087 181.937 108.273 181.815 108.478 181.735C108.705 181.687 108.94 181.69 109.165 181.742C109.391 181.794 109.603 181.894 109.786 182.036L119.547 190.691L119.044 186.766C118.985 186.474 119.035 186.17 119.183 185.911C119.331 185.652 119.567 185.455 119.849 185.357L153.158 170.967C153.323 170.893 153.501 170.853 153.682 170.848C153.862 170.844 154.042 170.875 154.211 170.94C154.379 171.006 154.533 171.104 154.663 171.23C154.793 171.355 154.897 171.506 154.969 171.672C155.043 171.837 155.083 172.015 155.088 172.195C155.093 172.376 155.061 172.556 154.996 172.725C154.93 172.893 154.832 173.047 154.706 173.177C154.581 173.307 154.431 173.411 154.265 173.483L121.862 187.47L122.768 194.011C122.812 194.29 122.768 194.576 122.642 194.829C122.515 195.082 122.313 195.288 122.063 195.42C121.839 195.521 121.602 195.588 121.359 195.621Z" fill="#EB7124"/>
<path d="M195.322 68.0251C195.322 68.0251 193.813 78.7924 182.24 93.7863C175.599 102.44 165.536 112.503 150.441 122.768C125.687 139.673 106.164 146.818 94.4913 149.938C90.6115 151.047 86.6359 151.788 82.617 152.151C82.617 152.151 57.359 109.082 61.4848 70.0377C62.5918 59.8741 65.7113 51.4212 70.4409 44.4777C73.8014 39.4765 78.0269 35.1147 82.9189 31.5971C96.9065 21.5342 115.724 18.0121 134.039 20.226C167.448 24.3518 195.322 68.0251 195.322 68.0251Z" fill="#EB7124"/>
<path d="M195.322 68.0244C195.322 68.0244 194.618 72.8546 190.794 80.5025C188.395 85.237 185.529 89.7204 182.241 93.8862C175.599 102.54 165.536 112.603 150.442 122.868C123.775 140.981 103.146 147.924 91.9757 150.641C88.9013 151.413 85.7729 151.952 82.6172 152.251C82.6172 151.95 82.7178 128.805 120.353 99.4209C158.19 69.7351 195.322 68.0244 195.322 68.0244Z" fill="#FF873B"/>
<path d="M190.791 80.502C188.392 85.2364 185.526 89.7199 182.237 93.8857C175.596 102.54 165.533 112.603 150.438 122.867C123.772 140.98 103.143 147.924 91.9727 150.641C96.1991 140.98 105.457 126.691 126.287 110.389C145.132 95.4818 167.235 85.241 190.791 80.502Z" fill="#FD9756"/>
<path d="M195.32 68.0251C195.32 68.0251 193.811 78.7925 182.238 93.7863C178.629 87.4902 174.559 81.4696 170.062 75.7736C170.062 75.7736 155.27 89.1573 143.194 79.5975C131.119 69.937 140.175 52.2262 140.175 52.2262C131.332 43.5849 120.247 37.5896 108.175 34.9179C99.8256 33.1289 91.345 32.0183 82.8164 31.5971C96.8039 21.5342 115.622 18.0121 133.936 20.226C167.446 24.3518 195.32 68.0251 195.32 68.0251Z" fill="#FFDBB3"/>
<path d="M94.5929 149.936C90.7131 151.045 86.7374 151.787 82.7186 152.15C82.7186 152.15 57.4606 109.081 61.5864 70.0365C62.6933 59.8729 65.8128 51.42 70.5424 44.4766C68.5544 67.1415 71.0156 89.9765 77.7878 111.697C82.0428 124.994 87.6751 137.81 94.5929 149.936Z" fill="#FFDBB3"/>
<path d="M209.512 325.238C209.526 325.877 209.493 326.516 209.412 327.15C209.009 333.087 190.795 334.194 178.116 334.798C165.638 335.402 152.455 331.88 156.984 327.754L157.185 327.553C160.405 324.836 166.644 321.716 173.587 319.2C177.602 317.716 181.702 316.473 185.864 315.477C191.298 314.169 202.368 311.553 205.99 314.27C206.746 314.869 207.364 315.624 207.802 316.483C209.036 319.232 209.622 322.227 209.512 325.238Z" fill="#00104C"/>
<path d="M209.51 325.236C209.524 325.875 209.491 326.514 209.41 327.148C209.007 333.085 190.793 334.192 178.114 334.796C165.636 335.4 152.453 331.878 156.982 327.752C159.699 329.362 165.636 331.274 178.013 330.771C194.919 330.067 205.183 327.249 209.51 325.236Z" fill="#384D89"/>
<path d="M207.699 316.481C206.607 317.446 205.388 318.259 204.076 318.896C199.246 321.311 184.554 323.927 175.598 322.418C171.674 321.713 171.975 320.506 173.485 319.198C177.499 317.713 181.599 316.47 185.762 315.474C191.196 314.166 202.265 311.55 205.888 314.267C206.644 314.866 207.262 315.621 207.699 316.481Z" fill="#00104C"/>
<path d="M185.058 268.182C189.084 293.943 203.775 313.666 203.775 313.666C202.604 315.181 201.173 316.475 199.549 317.49C198.196 318.338 196.742 319.014 195.222 319.503C192.667 320.195 190.004 320.4 187.373 320.107C185.674 319.938 183.992 319.635 182.341 319.201C182.341 319.201 157.285 286.899 154.165 250.068C151.046 213.238 170.87 194.722 170.87 194.722C171.018 194.642 171.153 194.54 171.272 194.42C174.506 192.427 178.227 191.364 182.025 191.346C185.824 191.328 189.554 192.357 192.807 194.32C193.538 194.71 194.244 195.147 194.92 195.628C203.071 200.961 204.279 206.395 204.279 206.395C200.471 209.913 197.215 213.984 194.618 218.471C190.492 225.515 181.033 242.421 185.058 268.182Z" fill="#E1ECFF"/>
<path d="M185.058 268.183C189.084 293.944 203.776 313.667 203.776 313.667C202.604 315.182 201.173 316.477 199.549 317.491C192.203 307.328 174.593 276.535 175.197 247.252C175.7 220.484 189.587 201.868 195.021 195.629C203.172 200.962 204.379 206.396 204.379 206.396C200.572 209.914 197.315 213.985 194.719 218.472C190.492 225.516 181.033 242.422 185.058 268.183Z" fill="#C5DFFF"/>
<path d="M187.271 320.006C185.573 319.837 183.89 319.534 182.24 319.1C182.24 319.1 157.183 286.798 154.063 249.968C150.944 213.137 170.768 194.621 170.768 194.621C170.916 194.541 171.052 194.439 171.171 194.319C167.347 202.168 158.793 222.496 159.598 245.439C160.604 274.924 173.384 297.666 182.34 312.157C184.051 315.075 185.762 317.691 187.271 320.006Z" fill="#F8FBFF"/>
<path d="M168.153 293.84C167.981 293.849 167.809 293.817 167.652 293.747C167.494 293.677 167.356 293.571 167.247 293.438C166.993 293.19 166.841 292.856 166.822 292.501C166.804 292.147 166.919 291.798 167.147 291.526C169.671 289.21 172.704 287.521 176.002 286.595C181.939 284.783 188.48 286.796 188.782 286.897C189.124 287.01 189.409 287.252 189.578 287.57C189.747 287.889 189.786 288.26 189.688 288.607C189.574 288.95 189.333 289.235 189.014 289.404C188.695 289.572 188.324 289.612 187.977 289.513C187.876 289.513 181.939 287.702 176.807 289.211C171.675 290.821 169.159 293.337 169.159 293.438C169.037 293.581 168.881 293.693 168.706 293.763C168.53 293.833 168.341 293.859 168.153 293.84Z" fill="#C5DFFF"/>
<path d="M157.782 261.641C157.535 261.649 157.29 261.587 157.077 261.463C156.863 261.338 156.689 261.156 156.574 260.937C156.475 260.78 156.409 260.604 156.381 260.421C156.353 260.238 156.362 260.051 156.41 259.871C156.457 259.692 156.541 259.524 156.655 259.378C156.77 259.233 156.914 259.112 157.077 259.025C161.052 256.852 165.442 255.548 169.958 255.201C174.502 255.082 178.969 256.384 182.738 258.924C182.889 259.025 183.017 259.157 183.115 259.31C183.212 259.463 183.277 259.635 183.306 259.814C183.334 259.994 183.325 260.177 183.279 260.353C183.234 260.529 183.152 260.693 183.04 260.836C182.939 260.987 182.807 261.115 182.654 261.213C182.501 261.31 182.329 261.375 182.15 261.404C181.97 261.432 181.787 261.423 181.611 261.377C181.435 261.332 181.271 261.25 181.128 261.138C181.027 261.138 175.996 257.616 170.059 257.918C165.957 258.226 161.973 259.429 158.386 261.44C158.285 261.641 157.983 261.641 157.782 261.641Z" fill="#C5DFFF"/>
<path d="M185.362 235.07C185.19 235.079 185.018 235.048 184.861 234.978C184.704 234.908 184.565 234.801 184.456 234.668C184.356 234.567 176.909 227.825 169.463 226.919C162.217 226.014 157.789 229.133 157.789 229.234C157.493 229.437 157.129 229.519 156.773 229.463C156.418 229.407 156.097 229.217 155.878 228.932C155.674 228.635 155.592 228.271 155.648 227.916C155.704 227.56 155.894 227.24 156.179 227.02C156.381 226.819 161.513 223.095 169.865 224.202C178.117 225.309 185.966 232.353 186.368 232.655C186.506 232.77 186.618 232.913 186.699 233.074C186.779 233.234 186.825 233.41 186.835 233.589C186.844 233.769 186.816 233.948 186.754 234.116C186.691 234.284 186.594 234.438 186.469 234.567C186.157 234.839 185.772 235.014 185.362 235.07Z" fill="#C5DFFF"/>
<path d="M273.212 206.494C271.768 210.752 268.978 214.426 265.263 216.959C259.225 220.884 255.803 221.287 255.803 221.287C255.803 221.287 251.879 220.683 251.879 218.167V217.865C252.125 216 252.854 214.231 253.992 212.733C256.72 212.258 259.386 211.482 261.942 210.419C264.759 209.01 267.778 204.481 269.992 203.978C270.449 203.895 270.92 203.946 271.348 204.125C271.777 204.303 272.145 204.602 272.407 204.985C272.778 205.426 273.052 205.94 273.212 206.494Z" fill="#E1ECFF"/>
<path d="M273.212 206.494C271.768 210.752 268.978 214.425 265.263 216.959C259.225 220.884 255.803 221.286 255.803 221.286C255.803 221.286 251.879 220.683 251.879 218.167C254.596 217.966 261.036 217.161 265.565 213.538C268.494 211.231 270.838 208.266 272.407 204.884C272.77 205.368 273.043 205.913 273.212 206.494Z" fill="#C5DFFF"/>
<path d="M269.49 205.989C266.725 209.8 262.81 212.622 258.32 214.039C256.5 214.76 254.525 215.003 252.584 214.744C252.074 214.251 251.676 213.655 251.415 212.995C251.155 212.336 251.039 211.628 251.075 210.92C251.175 209.712 251.98 208.404 254.094 207.197C254.094 207.197 259.829 206.492 263.452 199.448C267.075 192.404 265.565 191.7 266.471 190.291C267.075 189.284 269.289 189.385 270.798 190.291C271.534 190.703 272.077 191.391 272.308 192.203C273.213 194.718 273.113 201.058 269.49 205.989Z" fill="#E1ECFF"/>
<path d="M269.49 205.989C266.725 209.8 262.81 212.622 258.32 214.04C256.5 214.761 254.525 215.003 252.584 214.744C252.074 214.251 251.676 213.655 251.415 212.996C251.155 212.336 251.039 211.628 251.075 210.92C254.798 210.719 262.446 209.713 266.169 204.178C268.951 200.058 270.552 195.256 270.798 190.291C271.534 190.704 272.077 191.391 272.308 192.203C273.213 194.719 273.113 201.058 269.49 205.989Z" fill="#C5DFFF"/>
<path d="M262.747 202.871C260.114 206.509 256.37 209.193 252.08 210.519C250.35 211.183 248.479 211.39 246.646 211.123C246.163 210.657 245.787 210.092 245.544 209.466C245.301 208.841 245.196 208.17 245.237 207.5C245.338 206.393 246.143 205.085 248.155 203.978C248.155 203.978 253.589 203.374 257.011 196.632C260.432 189.991 259.023 189.286 259.828 187.877C260.432 186.972 262.445 186.972 263.954 187.877C264.659 188.28 265.195 188.923 265.464 189.689C266.269 192.205 266.168 198.242 262.747 202.871Z" fill="#E1ECFF"/>
<path d="M262.747 202.871C260.114 206.509 256.37 209.193 252.08 210.519C250.35 211.182 248.479 211.39 246.646 211.122C246.163 210.656 245.787 210.091 245.544 209.466C245.301 208.84 245.196 208.169 245.237 207.5C248.759 207.298 256.005 206.393 259.627 201.16C262.229 197.228 263.756 192.683 264.055 187.978C264.76 188.38 265.295 189.023 265.564 189.789C266.007 192.047 265.985 194.371 265.501 196.619C265.016 198.868 264.079 200.995 262.747 202.871Z" fill="#C5DFFF"/>
<path d="M260.027 211.828C260.109 214.285 259.628 216.73 258.618 218.972C258.033 220.259 257.252 221.447 256.304 222.494C256.304 222.494 230.845 231.45 204.077 209.111C190.291 197.639 179.222 182.645 171.775 170.871C167.759 164.573 164.097 158.055 160.806 151.349C160.806 151.349 158.693 144.808 162.618 139.173C164.09 137.04 166.105 135.338 168.454 134.242C173.184 131.827 177.108 131.626 180.228 132.431C183.428 133.274 186.28 135.105 188.379 137.663C188.379 137.663 192.304 146.318 198.14 156.984C204.983 169.362 214.442 184.456 223.499 191.5C240.304 204.582 254.291 199.551 254.291 199.551C255.415 200.728 256.425 202.009 257.31 203.375C258.417 205.488 259.927 208.507 260.027 211.828Z" fill="#E1ECFF"/>
<path d="M197.839 156.783C194.571 161.916 189.684 165.811 183.952 167.852C179.98 169.39 175.815 170.372 171.574 170.77C167.558 164.472 163.896 157.954 160.606 151.248C160.606 151.248 156.983 139.877 168.153 134.041C180.732 127.5 188.078 137.462 188.078 137.462C188.078 137.462 192.002 146.217 197.839 156.783Z" fill="#C5DFFF"/>
<path d="M258.517 218.871C257.932 220.157 257.151 221.345 256.202 222.393C256.202 222.393 230.743 231.349 203.976 209.009C190.189 197.537 179.12 182.543 171.674 170.77C167.657 164.471 163.996 157.954 160.705 151.247C160.705 151.247 158.592 144.707 162.516 139.071C165.837 146.619 180.026 177.411 198.038 195.122C218.668 215.349 229.837 217.864 249.661 218.669C252.882 218.77 255.901 218.871 258.517 218.871Z" fill="#C5DFFF"/>
<path d="M257.007 203.274C251.875 204.783 244.73 205.89 237.284 203.576C223.397 199.249 212.026 190.494 200.856 173.689C191.698 159.802 182.843 139.274 180.025 132.33C183.225 133.173 186.078 135.004 188.176 137.563C188.176 137.563 192.101 146.217 197.937 156.884C204.78 169.261 214.239 184.356 223.296 191.4C240.101 204.482 254.089 199.45 254.089 199.45C255.19 200.621 256.168 201.903 257.007 203.274Z" fill="#F8FBFF"/>
<path d="M187.273 187.478C185.842 187.483 184.419 187.279 183.047 186.874C182.705 186.737 182.431 186.47 182.284 186.133C182.138 185.795 182.129 185.414 182.261 185.07C182.394 184.727 182.655 184.449 182.991 184.297C183.326 184.145 183.707 184.131 184.053 184.258C184.254 184.358 188.984 185.968 195.324 182.547C199.104 180.432 201.918 176.933 203.173 172.786C203.212 172.614 203.285 172.452 203.388 172.308C203.49 172.165 203.62 172.043 203.769 171.949C203.919 171.856 204.085 171.793 204.259 171.764C204.433 171.734 204.611 171.74 204.783 171.779C204.954 171.819 205.117 171.892 205.26 171.995C205.404 172.097 205.526 172.227 205.619 172.376C205.713 172.526 205.776 172.692 205.805 172.866C205.834 173.04 205.829 173.218 205.789 173.39C205.098 175.84 203.923 178.126 202.332 180.114C200.742 182.101 198.77 183.75 196.531 184.962C193.718 186.596 190.526 187.463 187.273 187.478Z" fill="#C5DFFF"/>
<path d="M206.491 210.018C206.117 210.018 205.759 209.869 205.495 209.605C205.23 209.341 205.082 208.983 205.082 208.609C205.082 208.235 205.23 207.877 205.495 207.613C205.759 207.349 206.117 207.2 206.491 207.2C206.591 207.2 212.831 207.1 216.353 202.772C219.975 198.345 219.271 192.106 219.271 192.005C219.251 191.827 219.266 191.646 219.316 191.474C219.366 191.301 219.449 191.14 219.562 191C219.674 190.86 219.812 190.743 219.97 190.656C220.127 190.57 220.3 190.515 220.478 190.496C220.836 190.471 221.189 190.581 221.469 190.805C221.748 191.029 221.934 191.349 221.988 191.703C221.988 192.005 222.793 199.15 218.466 204.483C214.139 210.018 206.793 210.018 206.491 210.018Z" fill="#C5DFFF"/>
<path d="M228.632 221.79C228.347 221.792 228.069 221.706 227.835 221.544C227.601 221.382 227.422 221.151 227.324 220.884C227.192 220.537 227.203 220.152 227.354 219.813C227.505 219.474 227.783 219.208 228.129 219.073C229.893 218.298 231.46 217.135 232.714 215.672C233.969 214.209 234.878 212.482 235.374 210.62C236.884 204.381 234.77 200.759 234.67 200.658C234.482 200.347 234.42 199.977 234.495 199.623C234.569 199.268 234.776 198.955 235.072 198.746C235.383 198.559 235.753 198.496 236.107 198.571C236.462 198.645 236.776 198.852 236.984 199.148C237.085 199.35 239.902 203.878 237.991 211.224C237.376 213.515 236.252 215.638 234.701 217.433C233.15 219.228 231.212 220.649 229.034 221.589C228.934 221.79 228.833 221.79 228.632 221.79Z" fill="#C5DFFF"/>
<path d="M198.642 144.705C198.434 145.737 198.131 146.748 197.736 147.724C196.327 151.146 193.006 156.781 185.459 161.712C173.786 169.259 163.421 166.039 163.421 166.039C158.583 159.137 155.509 151.157 154.465 142.793C153.56 135.045 158.692 129.007 165.333 126.089C170.264 123.976 176 123.573 180.629 125.586C191.598 130.516 198.642 144.705 198.642 144.705Z" fill="#00104C"/>
<path d="M198.646 144.705C198.438 145.737 198.135 146.748 197.74 147.724C197.74 147.624 197.639 147.624 197.639 147.523C188.281 135.145 180.935 132.63 180.935 132.63C180.935 132.63 178.218 139.07 169.262 135.347C163.023 132.831 164.13 128.403 165.438 126.089C170.369 123.976 176.105 123.573 180.734 125.586C191.602 130.516 198.646 144.705 198.646 144.705Z" fill="#384D89"/>
<path d="M76.3781 91.4748C75.4742 91.3216 74.5459 91.5168 73.7803 92.021C73.0146 92.5252 72.4686 93.3009 72.2523 94.1918C71.0232 99.272 70.0492 104.411 69.334 109.588C68.8309 113.815 68.6296 117.337 68.529 119.752C68.503 120.604 68.783 121.438 69.3182 122.103C69.8534 122.767 70.6085 123.218 71.4473 123.374C71.9185 123.449 72.4001 123.427 72.8624 123.308C73.3246 123.19 73.7577 122.978 74.1348 122.686C74.512 122.393 74.8253 122.027 75.0553 121.609C75.2854 121.191 75.4273 120.73 75.4724 120.255C75.7805 115.792 76.3856 111.354 77.2838 106.972C78.2901 101.84 78.9945 98.217 79.4976 95.8019C79.6262 94.819 79.375 93.8242 78.7953 93.0201C78.2157 92.2161 77.3512 91.6634 76.3781 91.4748Z" fill="#00104C"/>
<path d="M58.9674 102.242C59.0718 101.769 59.2816 101.326 59.5811 100.945C59.8807 100.564 60.2623 100.256 60.6976 100.043C61.1328 99.8302 61.6105 99.7184 62.095 99.7159C62.5795 99.7133 63.0583 99.8201 63.4957 100.028C66.5146 101.337 70.9423 103.248 75.1688 104.758C79.4958 106.267 83.521 107.777 86.0368 108.783C86.8614 109.091 87.5433 109.693 87.9518 110.473C88.3603 111.253 88.4667 112.156 88.2506 113.01C88.1325 113.47 87.9229 113.902 87.6343 114.279C87.3457 114.657 86.984 114.973 86.5708 115.207C86.1576 115.442 85.7013 115.591 85.2292 115.646C84.7571 115.701 84.2788 115.66 83.8229 115.525C79.0308 114.17 74.3259 112.524 69.7348 110.594C66.4786 109.233 63.3183 107.653 60.2756 105.865C59.7293 105.453 59.3147 104.891 59.0824 104.248C58.8501 103.605 58.8101 102.908 58.9674 102.242Z" fill="#00104C"/>
<path d="M119.643 66.9181C118.462 66.7441 117.259 67.0198 116.271 67.6907C115.283 68.3615 114.584 69.3786 114.31 70.5407C113.203 75.5722 111.593 84.0251 110.888 90.6667C110.385 96.2013 110.083 100.73 110.083 103.849C110.041 104.945 110.409 106.017 111.117 106.855C111.824 107.693 112.82 108.236 113.907 108.377C114.52 108.471 115.145 108.437 115.743 108.276C116.341 108.116 116.899 107.832 117.382 107.444C117.864 107.056 118.261 106.572 118.546 106.022C118.832 105.473 119 104.87 119.039 104.252C119.241 100.226 119.845 94.0881 120.951 87.044C122.058 80.3018 122.964 75.5722 123.467 72.4527C123.603 71.8363 123.611 71.1984 123.489 70.5789C123.368 69.9595 123.12 69.3717 122.761 68.8523C122.402 68.333 121.94 67.8932 121.404 67.5604C120.867 67.2276 120.268 67.0089 119.643 66.9181Z" fill="#00104C"/>
<path d="M97.3045 81.409C97.4454 80.8001 97.717 80.2291 98.1004 79.7355C98.4838 79.242 98.9698 78.8376 99.525 78.5505C100.08 78.2633 100.691 78.1003 101.315 78.0726C101.94 78.0449 102.563 78.1532 103.141 78.3901C107.066 80.0002 112.801 82.3147 118.336 84.2266C123.971 86.1386 129.204 87.9499 132.525 89.1575C133.603 89.5345 134.5 90.3015 135.04 91.3073C135.58 92.3132 135.724 93.4849 135.443 94.5915C135.297 95.1962 135.032 95.7657 134.663 96.2666C134.294 96.7675 133.829 97.1897 133.295 97.5084C132.76 97.8271 132.168 98.0358 131.552 98.1225C130.936 98.2091 130.309 98.1719 129.707 98.0129C123.48 96.3919 117.363 94.3752 111.393 91.9751C107.144 90.3377 103.038 88.3519 99.1158 86.038C98.4093 85.5147 97.8646 84.8028 97.5442 83.9841C97.2238 83.1653 97.1407 82.2728 97.3045 81.409Z" fill="#00104C"/>
<path d="M460.279 259.222C463.687 260.368 466.738 262.379 469.135 265.059C472.858 269.487 473.361 276.631 473.361 276.631L493.688 267.172C493.688 267.172 483.424 271.097 480.003 264.254C476.581 257.411 487.952 246.543 487.952 246.543C487.952 246.543 475.374 256.807 470.443 255.298C465.512 253.788 464.707 247.65 464.707 247.65L460.279 259.222Z" fill="#EB7124"/>
<path d="M441.059 256.911L444.682 257.011L450.317 215.753L437.537 213.338L441.059 256.911Z" fill="#D2E9FF"/>
<path d="M449.916 257.111L458.369 218.469L470.545 224.406L452.13 258.117L449.916 257.111Z" fill="#D2E9FF"/>
<path d="M47.1959 62.0906L45.0827 66.7195L0.90625 53.1345L6.8434 35.7256L47.1959 62.0906Z" fill="#D2E9FF"/>
<path d="M53.8369 46.7947L49.9123 52.43L0 14.392L13.7863 0.00195312L53.8369 46.7947Z" fill="#D2E9FF"/>
</g>
<defs>
<clipPath id="clip0_9458_47783">
<rect width="493.689" height="339.625" fill="white"/>
</clipPath>
</defs>
</svg>
