<svg width="50" height="48" viewBox="0 0 50 48" fill="none" xmlns="http://www.w3.org/2000/svg">
<path d="M18.8164 32.6767L14.1769 37.3079C12.9811 38.5015 11.0425 38.5015 9.84669 37.3079C8.65099 36.1143 8.65099 34.1791 9.84669 32.9855" stroke="#EB7124" stroke-width="2" stroke-miterlimit="10" stroke-linecap="round" stroke-linejoin="round"/>
<path d="M23.7617 36.3954L19.1222 41.0266C17.9264 42.2203 15.9878 42.2203 14.792 41.0266C13.5963 39.833 13.5963 37.8978 14.792 36.7042" stroke="#EB7124" stroke-width="2" stroke-miterlimit="10" stroke-linecap="round" stroke-linejoin="round"/>
<path d="M18.1914 16.0142L4.89166 29.2902C3.69596 30.4838 3.69596 32.419 4.89166 33.6126C6.08746 34.8062 8.02609 34.8062 9.22189 33.6126L13.8614 28.9815" stroke="#EB7124" stroke-width="2" stroke-miterlimit="10" stroke-linecap="round" stroke-linejoin="round"/>
<path d="M41.0825 27.7422L45.4127 23.4197C50.1958 18.6453 50.1958 10.9043 45.4127 6.12989C40.6298 1.35544 32.875 1.35544 28.092 6.12989L24.9989 9.21744" stroke="#EB7124" stroke-width="2" stroke-miterlimit="10" stroke-linecap="round" stroke-linejoin="round"/>
<path d="M20.3589 39.7823C19.1632 40.976 19.1632 42.9112 20.3589 44.1048C21.5546 45.2984 23.4933 45.2984 24.689 44.1048L25.6172 43.1783" stroke="#EB7124" stroke-width="2" stroke-miterlimit="10" stroke-linecap="round" stroke-linejoin="round"/>
<path d="M7.67951 26.5078L4.58652 23.4204C-0.19649 18.6459 -0.19649 10.9051 4.58652 6.13063C9.36953 1.35628 17.1243 1.35618 21.9073 6.13054L29.0212 13.2318C30.2169 14.4253 30.2169 16.3606 29.0212 17.5541C27.8254 18.7478 25.8868 18.7478 24.691 17.5541L19.4329 12.3055" stroke="#EB7124" stroke-width="2" stroke-miterlimit="10" stroke-linecap="round" stroke-linejoin="round"/>
<path d="M25.9254 43.4876C27.1211 44.6812 29.0598 44.6812 30.2555 43.4876C31.4513 42.294 31.4513 40.3587 30.2555 39.1652C29.0598 37.9716 27.1211 37.9716 25.9254 39.1652C24.7296 40.3587 24.7296 42.294 25.9254 43.4876Z" stroke="#EB7124" stroke-width="2" stroke-miterlimit="10" stroke-linecap="round" stroke-linejoin="round"/>
<path d="M30.2574 39.1673C31.4531 40.3609 33.3918 40.3609 34.5875 39.1673C35.7833 37.9738 35.7833 36.0385 34.5875 34.8449C33.3918 33.6513 31.4531 33.6513 30.2574 34.8449C29.0617 36.0385 29.0617 37.9738 30.2574 39.1673Z" stroke="#EB7124" stroke-width="2" stroke-miterlimit="10" stroke-linecap="round" stroke-linejoin="round"/>
<path d="M34.5855 34.8392C35.7812 36.0328 37.7199 36.0328 38.9156 34.8392C40.1115 33.6456 40.1115 31.7104 38.9156 30.5168C37.7199 29.3232 35.7812 29.3232 34.5855 30.5168C33.3898 31.7104 33.3898 33.6456 34.5855 34.8392Z" stroke="#EB7124" stroke-width="2" stroke-miterlimit="10" stroke-linecap="round" stroke-linejoin="round"/>
</svg>
