<svg width="48" height="48" viewBox="0 0 48 48" fill="none" xmlns="http://www.w3.org/2000/svg">
<path d="M47.4025 4.06207C47.7321 4.06207 48 3.79419 48 3.46456V0.59751C48 0.267884 47.7321 0 47.4025 0H0.59751C0.267884 0 0 0.267884 0 0.59751V3.46456C0 3.79419 0.267884 4.06207 0.59751 4.06207H3.28033V28.571H0.59751C0.267884 28.571 0 28.8388 0 29.1685V32.0355C0 32.3651 0.267884 32.633 0.59751 32.633H14.9437L7.14622 47.1197C7.04664 47.3049 7.05162 47.529 7.15917 47.7092C7.26672 47.8895 7.46191 48 7.67203 48H10.9165C11.1366 48 11.3388 47.8795 11.4423 47.6853L15.4088 40.316H32.5872L36.5537 47.6853C36.6049 47.7802 36.6808 47.8595 36.7734 47.9149C36.8659 47.9703 36.9717 47.9997 37.0795 48H40.324C40.5341 48 40.7293 47.8895 40.8368 47.7092C40.9444 47.529 40.9494 47.3049 40.8498 47.1197L33.0523 32.633H47.4025C47.7321 32.633 48 32.3651 48 32.0355V29.1685C48 28.8388 47.7321 28.571 47.4025 28.571H44.7197V4.06207H47.4025ZM1.19502 1.19502H46.805V2.86705H1.19502V1.19502ZM10.561 46.805H8.67286L16.3011 32.632H18.1892L10.561 46.805ZM16.0541 39.121L19.5466 32.632H28.4544L31.9469 39.121H16.0541ZM39.3271 46.805H37.439L29.8108 32.632H31.6989L39.3271 46.805ZM46.805 31.437H1.19502V29.766H46.805V31.437ZM43.5246 28.571H4.47535V4.06207H43.5246V28.571ZM5.91635 16.9832C5.96137 17.0928 6.03795 17.1866 6.13636 17.2525C6.23477 17.3185 6.35057 17.3537 6.46905 17.3537H8.77544V20.0594C8.77544 23.1336 11.276 25.6342 14.3502 25.6342H22.1676C22.4973 25.6342 22.7651 25.3663 22.7651 25.0367V17.3537H25.0715C25.3135 17.3537 25.5326 17.2073 25.6242 16.9832C25.7159 16.7592 25.6631 16.5012 25.4908 16.331L16.1895 7.16913C15.9575 6.94008 15.5841 6.94008 15.351 7.16913L12.6115 9.86788V9.15187C12.6115 8.82224 12.3436 8.55436 12.0139 8.55436H9.37295C9.04332 8.55436 8.77544 8.82224 8.77544 9.15187V13.6461L6.04979 16.331C5.96512 16.414 5.90718 16.5205 5.8834 16.6367C5.85963 16.7529 5.8711 16.8736 5.91635 16.9832ZM9.7912 14.3223C9.84767 14.2668 9.89251 14.2007 9.92312 14.1276C9.95372 14.0546 9.96948 13.9763 9.96946 13.8971V9.75037H11.4154V11.2959C11.4154 11.5369 11.5598 11.754 11.7819 11.8466C12.004 11.9393 12.2599 11.8905 12.4322 11.7212L15.7693 8.43386L23.6126 16.1597H22.1676C21.838 16.1597 21.5701 16.4276 21.5701 16.7572V24.4402H14.3502C11.9353 24.4402 9.97046 22.4754 9.97046 20.0604V16.7572C9.97046 16.4276 9.70257 16.1597 9.37295 16.1597H7.92697L9.7912 14.3223ZM27.8788 24.7469C28.8149 24.7469 29.5768 23.9851 29.5768 23.049C29.5768 22.7094 29.4762 22.3947 29.3039 22.1288L31.3056 19.4271C31.4539 19.4699 31.6093 19.4938 31.7706 19.4938C32.1361 19.4938 32.4747 19.3763 32.7525 19.1791L34.8866 20.6191C34.8568 20.7456 34.8388 20.877 34.8388 21.0124C34.8388 21.9485 35.6007 22.7104 36.5378 22.7104C37.4749 22.7104 38.2357 21.9485 38.2357 21.0124C38.2357 20.6729 38.1351 20.3582 37.9628 20.0923L39.9645 17.3905C40.1129 17.4334 40.2682 17.4573 40.4295 17.4573C41.3656 17.4573 42.1275 16.6954 42.1275 15.7593C42.1275 14.8232 41.3656 14.0604 40.4295 14.0604C39.4934 14.0604 38.7316 14.8222 38.7316 15.7593C38.7316 16.0989 38.8322 16.4136 39.0045 16.6795L37.0028 19.3812C36.8544 19.3394 36.6991 19.3145 36.5378 19.3145C36.1723 19.3145 35.8337 19.432 35.5559 19.6292L33.4217 18.1892C33.4516 18.0627 33.4695 17.9313 33.4695 17.7959C33.4695 16.8598 32.7077 16.0979 31.7716 16.0979C30.8355 16.0979 30.0737 16.8598 30.0737 17.7959C30.0737 18.1354 30.1743 18.4501 30.3466 18.716L28.3449 21.4178C28.1965 21.3759 28.0412 21.351 27.8798 21.351C26.9437 21.351 26.1819 22.1129 26.1819 23.05C26.1799 23.9851 26.9417 24.7469 27.8788 24.7469ZM40.4305 15.2544C40.564 15.2544 40.6921 15.3075 40.7865 15.4019C40.8809 15.4963 40.9339 15.6243 40.9339 15.7578C40.9339 15.8914 40.8809 16.0194 40.7865 16.1138C40.6921 16.2082 40.564 16.2612 40.4305 16.2612C40.1537 16.2612 39.9276 16.0352 39.9276 15.7583C39.9274 15.6922 39.9403 15.6267 39.9655 15.5655C39.9907 15.5043 40.0277 15.4488 40.0744 15.4019C40.1212 15.3551 40.1767 15.318 40.2378 15.2927C40.2989 15.2674 40.3644 15.2544 40.4305 15.2544ZM36.5378 20.5085C36.8156 20.5085 37.0407 20.7346 37.0407 21.0115C37.0407 21.2883 36.8146 21.5144 36.5378 21.5144C36.2599 21.5144 36.0339 21.2883 36.0339 21.0115C36.0339 20.7346 36.2599 20.5085 36.5378 20.5085ZM31.7716 17.292C32.0495 17.292 32.2745 17.518 32.2745 17.7949C32.2745 18.0717 32.0485 18.2978 31.7716 18.2978C31.4948 18.2978 31.2687 18.0717 31.2687 17.7949C31.2687 17.518 31.4938 17.292 31.7716 17.292ZM27.8788 22.5451C28.0124 22.5451 28.1404 22.5981 28.2348 22.6925C28.3292 22.7869 28.3822 22.915 28.3822 23.0485C28.3822 23.182 28.3292 23.31 28.2348 23.4044C28.1404 23.4988 28.0124 23.5519 27.8788 23.5519C27.602 23.5519 27.3759 23.3258 27.3759 23.049C27.3758 22.9828 27.3887 22.9173 27.4139 22.8562C27.4391 22.7951 27.4762 22.7395 27.5229 22.6927C27.5696 22.6459 27.6251 22.6088 27.6862 22.5834C27.7472 22.5581 27.8127 22.5451 27.8788 22.5451ZM26.1799 8.48266C26.1799 8.15303 26.4478 7.88515 26.7774 7.88515H41.531C41.8606 7.88515 42.1285 8.15303 42.1285 8.48266C42.1285 8.81228 41.8606 9.08017 41.531 9.08017H26.7774C26.4478 9.08017 26.1799 8.81328 26.1799 8.48266ZM26.1799 11.4174C26.1799 11.0878 26.4478 10.8199 26.7774 10.8199H41.531C41.8606 10.8199 42.1285 11.0878 42.1285 11.4174C42.1285 11.7471 41.8606 12.0149 41.531 12.0149H26.7774C26.4478 12.0149 26.1799 11.7471 26.1799 11.4174Z" fill="#EB7124"/>
</svg>
