<svg width="48" height="49" viewBox="0 0 48 49" fill="none" xmlns="http://www.w3.org/2000/svg">
<mask id="path-1-outside-1_7226_43153" maskUnits="userSpaceOnUse" x="-0.5" y="0" width="49" height="49" fill="black">
<rect fill="white" x="-0.5" width="49" height="49"/>
<path d="M28.9217 29.3225C28.7403 29.1401 28.5248 28.9953 28.2877 28.8966C28.0505 28.7978 27.7963 28.747 27.5395 28.747C27.2827 28.747 27.0285 28.7978 26.7913 28.8966C26.5541 28.9953 26.3387 29.1401 26.1573 29.3225L18.4599 37.0488C16.541 38.9749 13.4973 39.1298 11.527 37.403C10.9898 36.9305 10.5591 36.3484 10.2637 35.6956C9.96832 35.0429 9.81501 34.3343 9.81398 33.6174C9.81398 32.2817 10.3286 31.0198 11.277 30.0752L19.0921 22.2308C19.2739 22.0488 19.4181 21.8325 19.5164 21.5944C19.6148 21.3564 19.6655 21.1012 19.6655 20.8435C19.6655 20.5857 19.6148 20.3305 19.5164 20.0925C19.4181 19.8544 19.2739 19.6382 19.0921 19.4561L15.4162 15.7664C14.6736 15.021 13.387 15.021 12.6518 15.7664L10.0639 18.364L4.62352 23.8248C-0.87573 29.3446 -0.87573 38.3329 4.63087 43.8601C7.38049 46.62 10.9976 48 14.6074 48C18.2172 48 21.8344 46.62 24.584 43.8601L30.0244 38.3993L32.6123 35.8017C32.9799 35.4327 33.1858 34.9383 33.1858 34.4143C33.1858 33.8904 32.9799 33.396 32.6123 33.027L28.9217 29.3225ZM13.4091 16.5191C13.5782 16.3493 13.8061 16.2608 14.034 16.2608C14.2619 16.2608 14.4825 16.3493 14.6516 16.5191L18.3275 20.2088C18.6731 20.5557 18.6731 21.1091 18.3275 21.456L16.1146 23.6772L11.1961 18.7403L13.4091 16.5191ZM23.8121 43.0853C18.7319 48.1845 10.4609 48.1845 5.37341 43.0779C0.293228 37.9786 0.293228 29.6767 5.37341 24.5775L10.4315 19.5004L15.35 24.4373L10.5051 29.3004C9.93969 29.8652 9.49138 30.5369 9.18601 31.2765C8.88064 32.0162 8.72426 32.8093 8.72589 33.61C8.72589 35.3737 9.48314 37.0488 10.8065 38.2074C13.1959 40.3106 16.8865 40.1335 19.2097 37.8015L23.937 33.0565L28.8555 37.9934L23.8121 43.0853ZM31.8404 35.0268L29.6274 37.2481L24.709 32.3112L26.9219 30.09C27.2675 29.7431 27.8262 29.7505 28.1644 30.09L31.8404 33.7797C32.1859 34.1192 32.1859 34.68 31.8404 35.0268ZM23.2092 17.6186C25.9515 17.6186 28.5099 16.2608 30.0539 13.9805C30.9875 12.5858 31.4875 10.9697 31.4875 9.30931C31.4875 4.72664 27.7748 1 23.2092 1C18.6437 1 14.9309 4.72664 14.9309 9.30931C14.9329 11.5125 15.8057 13.6248 17.3577 15.1827C18.9098 16.7406 21.0143 17.6167 23.2092 17.6186ZM23.2092 16.5338C20.9522 16.5338 18.8495 15.4638 17.4894 13.678C18.1494 12.8011 19.0008 12.0877 19.9784 11.5926C20.9559 11.0975 22.0335 10.8339 23.1283 10.8221C23.1577 10.8221 23.1798 10.8295 23.2092 10.8295C23.2386 10.8295 23.2607 10.8221 23.2901 10.8221C25.5177 10.8442 27.591 11.9069 28.929 13.678C27.5689 15.4638 25.4662 16.5338 23.2092 16.5338ZM21.0477 8.5935C20.7537 8.15073 20.5919 7.64154 20.5919 7.1176C20.5919 5.67122 21.7682 4.4905 23.2092 4.4905C24.6502 4.4905 25.8265 5.67122 25.8265 7.1176C25.8265 7.64154 25.6721 8.15811 25.3707 8.5935C24.8928 9.29455 24.1061 9.71518 23.2607 9.73732H23.1577C22.3049 9.71518 21.5183 9.29455 21.0477 8.5935ZM23.2092 2.07741C27.1792 2.07741 30.4067 5.317 30.4067 9.30193C30.4067 10.4974 30.098 11.656 29.5392 12.7039C28.4658 11.4125 27.0396 10.4974 25.4515 10.0473C25.9014 9.70215 26.266 9.25772 26.5172 8.74839C26.7683 8.23906 26.8993 7.67853 26.8999 7.11022C26.8999 5.0661 25.2457 3.40572 23.2092 3.40572C21.1727 3.40572 19.5112 5.07348 19.5112 7.1176C19.5112 7.86293 19.7317 8.57874 20.1508 9.206C20.3787 9.53807 20.6507 9.8185 20.9595 10.0546C19.3715 10.5048 17.9452 11.4198 16.8718 12.7113C16.3072 11.6666 16.0092 10.4978 16.0043 9.30931C16.0043 5.32438 19.2392 2.07741 23.2092 2.07741ZM40.3024 19.2864C36.3324 19.2864 33.1049 22.526 33.1049 26.5109C33.1049 27.9573 33.5387 29.3668 34.3474 30.577C35.0082 31.5509 35.8963 32.3478 36.9343 32.8983C37.9722 33.4488 39.1285 33.7362 40.3024 33.7354C41.2483 33.7354 42.1848 33.5483 43.0585 33.1848C43.9323 32.8213 44.726 32.2885 45.3945 31.6168C46.0629 30.9452 46.5929 30.1479 46.9542 29.2705C47.3155 28.3931 47.501 27.4529 47.5 26.5035C47.5073 22.526 44.2725 19.2864 40.3024 19.2864ZM34.1856 26.5109C34.1856 23.1237 36.9279 20.3638 40.3098 20.3638C43.6917 20.3638 46.434 23.1237 46.434 26.5109C46.434 27.485 46.1913 28.437 45.7576 29.3004C44.8689 28.2697 43.706 27.5145 42.4051 27.1234C42.633 26.9315 42.8389 26.7102 43.008 26.4593C43.3756 25.9132 43.5667 25.2785 43.5667 24.6218C43.5667 22.8212 42.111 21.36 40.3172 21.36C38.5233 21.36 37.0676 22.8212 37.0676 24.6218C37.0676 25.2785 37.2587 25.9132 37.6337 26.4593C37.8028 26.7102 38.0086 26.9315 38.2365 27.1234C36.9364 27.5202 35.7744 28.2773 34.8841 29.3077C34.4265 28.447 34.1866 27.4865 34.1856 26.5109ZM40.3024 26.8061H40.2583C39.9127 26.8006 39.5734 26.7119 39.2689 26.5476C38.9645 26.3832 38.7037 26.1479 38.5086 25.8615C38.2865 25.5327 38.1578 25.1494 38.1363 24.7527C38.1148 24.356 38.2012 23.961 38.3863 23.6099C38.5714 23.2587 38.8482 22.9648 39.1871 22.7596C39.5259 22.5543 39.914 22.4455 40.3098 22.4448C41.5082 22.4448 42.486 23.4263 42.486 24.6291C42.486 25.0645 42.3536 25.4925 42.111 25.8541C41.714 26.4371 41.0597 26.7913 40.3539 26.8061H40.3024ZM40.3024 32.658C38.4056 32.658 36.6265 31.7651 35.4722 30.2745C36.0336 29.5416 36.7534 28.9463 37.5774 28.5334C38.4014 28.1205 39.308 27.9008 40.2289 27.8909C40.251 27.8909 40.273 27.8983 40.2951 27.8983C40.3171 27.8983 40.3392 27.8909 40.3613 27.8909C42.236 27.913 43.9784 28.7986 45.118 30.2745C44.5524 31.0172 43.8236 31.6188 42.9883 32.0323C42.153 32.4457 41.2338 32.6599 40.3024 32.658ZM35.0091 14.0765C36.1413 15.5597 37.869 16.4158 39.7363 16.4158C41.6037 16.4158 43.3314 15.5597 44.471 14.0691C44.5445 13.9732 44.6033 13.8846 44.6621 13.796C45.3354 12.8065 45.6966 11.6366 45.6988 10.4384C45.6988 7.13974 43.0227 4.4536 39.7363 4.4536C36.45 4.4536 33.7739 7.13974 33.7739 10.4384C33.7739 11.6339 34.1342 12.7998 34.8032 13.796C34.8694 13.892 34.9355 13.9805 35.0091 14.0765ZM39.7363 15.3384C38.3468 15.3384 37.0602 14.7628 36.1413 13.7518C37.0676 12.7408 38.3542 12.1652 39.7363 12.1652C41.1185 12.1652 42.4051 12.7408 43.3314 13.7518C42.4051 14.7628 41.1259 15.3384 39.7363 15.3384ZM41.1185 10.3498C40.8097 10.8073 40.2877 11.0804 39.7363 11.0804C39.185 11.0804 38.663 10.8073 38.3542 10.3498C38.163 10.0694 38.0601 9.73732 38.0601 9.40524C38.0601 8.48281 38.81 7.7301 39.729 7.7301C40.648 7.7301 41.3979 8.48281 41.3979 9.40524C41.4052 9.7447 41.3097 10.0694 41.1185 10.3498ZM39.7363 5.53839C42.4272 5.53839 44.618 7.73748 44.618 10.4458C44.618 11.2944 44.3828 12.1135 43.9637 12.8588C43.302 12.1873 42.508 11.6929 41.6258 11.4051C41.7655 11.2723 41.8905 11.1247 42.0007 10.9623C42.3095 10.4974 42.4786 9.96609 42.4786 9.41262C42.4786 7.89245 41.2435 6.65269 39.729 6.65269C38.2145 6.65269 36.9794 7.89245 36.9794 9.41262C36.9781 9.78455 37.0532 10.1528 37.1999 10.4943C37.3466 10.8358 37.5619 11.1433 37.8322 11.3977C36.9573 11.6929 36.156 12.1873 35.4943 12.8588C35.0752 12.1209 34.84 11.2944 34.84 10.4458C34.8547 7.73748 37.0455 5.53839 39.7363 5.53839Z"/>
</mask>
<path d="M28.9217 29.3225C28.7403 29.1401 28.5248 28.9953 28.2877 28.8966C28.0505 28.7978 27.7963 28.747 27.5395 28.747C27.2827 28.747 27.0285 28.7978 26.7913 28.8966C26.5541 28.9953 26.3387 29.1401 26.1573 29.3225L18.4599 37.0488C16.541 38.9749 13.4973 39.1298 11.527 37.403C10.9898 36.9305 10.5591 36.3484 10.2637 35.6956C9.96832 35.0429 9.81501 34.3343 9.81398 33.6174C9.81398 32.2817 10.3286 31.0198 11.277 30.0752L19.0921 22.2308C19.2739 22.0488 19.4181 21.8325 19.5164 21.5944C19.6148 21.3564 19.6655 21.1012 19.6655 20.8435C19.6655 20.5857 19.6148 20.3305 19.5164 20.0925C19.4181 19.8544 19.2739 19.6382 19.0921 19.4561L15.4162 15.7664C14.6736 15.021 13.387 15.021 12.6518 15.7664L10.0639 18.364L4.62352 23.8248C-0.87573 29.3446 -0.87573 38.3329 4.63087 43.8601C7.38049 46.62 10.9976 48 14.6074 48C18.2172 48 21.8344 46.62 24.584 43.8601L30.0244 38.3993L32.6123 35.8017C32.9799 35.4327 33.1858 34.9383 33.1858 34.4143C33.1858 33.8904 32.9799 33.396 32.6123 33.027L28.9217 29.3225ZM13.4091 16.5191C13.5782 16.3493 13.8061 16.2608 14.034 16.2608C14.2619 16.2608 14.4825 16.3493 14.6516 16.5191L18.3275 20.2088C18.6731 20.5557 18.6731 21.1091 18.3275 21.456L16.1146 23.6772L11.1961 18.7403L13.4091 16.5191ZM23.8121 43.0853C18.7319 48.1845 10.4609 48.1845 5.37341 43.0779C0.293228 37.9786 0.293228 29.6767 5.37341 24.5775L10.4315 19.5004L15.35 24.4373L10.5051 29.3004C9.93969 29.8652 9.49138 30.5369 9.18601 31.2765C8.88064 32.0162 8.72426 32.8093 8.72589 33.61C8.72589 35.3737 9.48314 37.0488 10.8065 38.2074C13.1959 40.3106 16.8865 40.1335 19.2097 37.8015L23.937 33.0565L28.8555 37.9934L23.8121 43.0853ZM31.8404 35.0268L29.6274 37.2481L24.709 32.3112L26.9219 30.09C27.2675 29.7431 27.8262 29.7505 28.1644 30.09L31.8404 33.7797C32.1859 34.1192 32.1859 34.68 31.8404 35.0268ZM23.2092 17.6186C25.9515 17.6186 28.5099 16.2608 30.0539 13.9805C30.9875 12.5858 31.4875 10.9697 31.4875 9.30931C31.4875 4.72664 27.7748 1 23.2092 1C18.6437 1 14.9309 4.72664 14.9309 9.30931C14.9329 11.5125 15.8057 13.6248 17.3577 15.1827C18.9098 16.7406 21.0143 17.6167 23.2092 17.6186ZM23.2092 16.5338C20.9522 16.5338 18.8495 15.4638 17.4894 13.678C18.1494 12.8011 19.0008 12.0877 19.9784 11.5926C20.9559 11.0975 22.0335 10.8339 23.1283 10.8221C23.1577 10.8221 23.1798 10.8295 23.2092 10.8295C23.2386 10.8295 23.2607 10.8221 23.2901 10.8221C25.5177 10.8442 27.591 11.9069 28.929 13.678C27.5689 15.4638 25.4662 16.5338 23.2092 16.5338ZM21.0477 8.5935C20.7537 8.15073 20.5919 7.64154 20.5919 7.1176C20.5919 5.67122 21.7682 4.4905 23.2092 4.4905C24.6502 4.4905 25.8265 5.67122 25.8265 7.1176C25.8265 7.64154 25.6721 8.15811 25.3707 8.5935C24.8928 9.29455 24.1061 9.71518 23.2607 9.73732H23.1577C22.3049 9.71518 21.5183 9.29455 21.0477 8.5935ZM23.2092 2.07741C27.1792 2.07741 30.4067 5.317 30.4067 9.30193C30.4067 10.4974 30.098 11.656 29.5392 12.7039C28.4658 11.4125 27.0396 10.4974 25.4515 10.0473C25.9014 9.70215 26.266 9.25772 26.5172 8.74839C26.7683 8.23906 26.8993 7.67853 26.8999 7.11022C26.8999 5.0661 25.2457 3.40572 23.2092 3.40572C21.1727 3.40572 19.5112 5.07348 19.5112 7.1176C19.5112 7.86293 19.7317 8.57874 20.1508 9.206C20.3787 9.53807 20.6507 9.8185 20.9595 10.0546C19.3715 10.5048 17.9452 11.4198 16.8718 12.7113C16.3072 11.6666 16.0092 10.4978 16.0043 9.30931C16.0043 5.32438 19.2392 2.07741 23.2092 2.07741ZM40.3024 19.2864C36.3324 19.2864 33.1049 22.526 33.1049 26.5109C33.1049 27.9573 33.5387 29.3668 34.3474 30.577C35.0082 31.5509 35.8963 32.3478 36.9343 32.8983C37.9722 33.4488 39.1285 33.7362 40.3024 33.7354C41.2483 33.7354 42.1848 33.5483 43.0585 33.1848C43.9323 32.8213 44.726 32.2885 45.3945 31.6168C46.0629 30.9452 46.5929 30.1479 46.9542 29.2705C47.3155 28.3931 47.501 27.4529 47.5 26.5035C47.5073 22.526 44.2725 19.2864 40.3024 19.2864ZM34.1856 26.5109C34.1856 23.1237 36.9279 20.3638 40.3098 20.3638C43.6917 20.3638 46.434 23.1237 46.434 26.5109C46.434 27.485 46.1913 28.437 45.7576 29.3004C44.8689 28.2697 43.706 27.5145 42.4051 27.1234C42.633 26.9315 42.8389 26.7102 43.008 26.4593C43.3756 25.9132 43.5667 25.2785 43.5667 24.6218C43.5667 22.8212 42.111 21.36 40.3172 21.36C38.5233 21.36 37.0676 22.8212 37.0676 24.6218C37.0676 25.2785 37.2587 25.9132 37.6337 26.4593C37.8028 26.7102 38.0086 26.9315 38.2365 27.1234C36.9364 27.5202 35.7744 28.2773 34.8841 29.3077C34.4265 28.447 34.1866 27.4865 34.1856 26.5109ZM40.3024 26.8061H40.2583C39.9127 26.8006 39.5734 26.7119 39.2689 26.5476C38.9645 26.3832 38.7037 26.1479 38.5086 25.8615C38.2865 25.5327 38.1578 25.1494 38.1363 24.7527C38.1148 24.356 38.2012 23.961 38.3863 23.6099C38.5714 23.2587 38.8482 22.9648 39.1871 22.7596C39.5259 22.5543 39.914 22.4455 40.3098 22.4448C41.5082 22.4448 42.486 23.4263 42.486 24.6291C42.486 25.0645 42.3536 25.4925 42.111 25.8541C41.714 26.4371 41.0597 26.7913 40.3539 26.8061H40.3024ZM40.3024 32.658C38.4056 32.658 36.6265 31.7651 35.4722 30.2745C36.0336 29.5416 36.7534 28.9463 37.5774 28.5334C38.4014 28.1205 39.308 27.9008 40.2289 27.8909C40.251 27.8909 40.273 27.8983 40.2951 27.8983C40.3171 27.8983 40.3392 27.8909 40.3613 27.8909C42.236 27.913 43.9784 28.7986 45.118 30.2745C44.5524 31.0172 43.8236 31.6188 42.9883 32.0323C42.153 32.4457 41.2338 32.6599 40.3024 32.658ZM35.0091 14.0765C36.1413 15.5597 37.869 16.4158 39.7363 16.4158C41.6037 16.4158 43.3314 15.5597 44.471 14.0691C44.5445 13.9732 44.6033 13.8846 44.6621 13.796C45.3354 12.8065 45.6966 11.6366 45.6988 10.4384C45.6988 7.13974 43.0227 4.4536 39.7363 4.4536C36.45 4.4536 33.7739 7.13974 33.7739 10.4384C33.7739 11.6339 34.1342 12.7998 34.8032 13.796C34.8694 13.892 34.9355 13.9805 35.0091 14.0765ZM39.7363 15.3384C38.3468 15.3384 37.0602 14.7628 36.1413 13.7518C37.0676 12.7408 38.3542 12.1652 39.7363 12.1652C41.1185 12.1652 42.4051 12.7408 43.3314 13.7518C42.4051 14.7628 41.1259 15.3384 39.7363 15.3384ZM41.1185 10.3498C40.8097 10.8073 40.2877 11.0804 39.7363 11.0804C39.185 11.0804 38.663 10.8073 38.3542 10.3498C38.163 10.0694 38.0601 9.73732 38.0601 9.40524C38.0601 8.48281 38.81 7.7301 39.729 7.7301C40.648 7.7301 41.3979 8.48281 41.3979 9.40524C41.4052 9.7447 41.3097 10.0694 41.1185 10.3498ZM39.7363 5.53839C42.4272 5.53839 44.618 7.73748 44.618 10.4458C44.618 11.2944 44.3828 12.1135 43.9637 12.8588C43.302 12.1873 42.508 11.6929 41.6258 11.4051C41.7655 11.2723 41.8905 11.1247 42.0007 10.9623C42.3095 10.4974 42.4786 9.96609 42.4786 9.41262C42.4786 7.89245 41.2435 6.65269 39.729 6.65269C38.2145 6.65269 36.9794 7.89245 36.9794 9.41262C36.9781 9.78455 37.0532 10.1528 37.1999 10.4943C37.3466 10.8358 37.5619 11.1433 37.8322 11.3977C36.9573 11.6929 36.156 12.1873 35.4943 12.8588C35.0752 12.1209 34.84 11.2944 34.84 10.4458C34.8547 7.73748 37.0455 5.53839 39.7363 5.53839Z" fill="#EB7124"/>
<path d="M28.9217 29.3225C28.7403 29.1401 28.5248 28.9953 28.2877 28.8966C28.0505 28.7978 27.7963 28.747 27.5395 28.747C27.2827 28.747 27.0285 28.7978 26.7913 28.8966C26.5541 28.9953 26.3387 29.1401 26.1573 29.3225L18.4599 37.0488C16.541 38.9749 13.4973 39.1298 11.527 37.403C10.9898 36.9305 10.5591 36.3484 10.2637 35.6956C9.96832 35.0429 9.81501 34.3343 9.81398 33.6174C9.81398 32.2817 10.3286 31.0198 11.277 30.0752L19.0921 22.2308C19.2739 22.0488 19.4181 21.8325 19.5164 21.5944C19.6148 21.3564 19.6655 21.1012 19.6655 20.8435C19.6655 20.5857 19.6148 20.3305 19.5164 20.0925C19.4181 19.8544 19.2739 19.6382 19.0921 19.4561L15.4162 15.7664C14.6736 15.021 13.387 15.021 12.6518 15.7664L10.0639 18.364L4.62352 23.8248C-0.87573 29.3446 -0.87573 38.3329 4.63087 43.8601C7.38049 46.62 10.9976 48 14.6074 48C18.2172 48 21.8344 46.62 24.584 43.8601L30.0244 38.3993L32.6123 35.8017C32.9799 35.4327 33.1858 34.9383 33.1858 34.4143C33.1858 33.8904 32.9799 33.396 32.6123 33.027L28.9217 29.3225ZM13.4091 16.5191C13.5782 16.3493 13.8061 16.2608 14.034 16.2608C14.2619 16.2608 14.4825 16.3493 14.6516 16.5191L18.3275 20.2088C18.6731 20.5557 18.6731 21.1091 18.3275 21.456L16.1146 23.6772L11.1961 18.7403L13.4091 16.5191ZM23.8121 43.0853C18.7319 48.1845 10.4609 48.1845 5.37341 43.0779C0.293228 37.9786 0.293228 29.6767 5.37341 24.5775L10.4315 19.5004L15.35 24.4373L10.5051 29.3004C9.93969 29.8652 9.49138 30.5369 9.18601 31.2765C8.88064 32.0162 8.72426 32.8093 8.72589 33.61C8.72589 35.3737 9.48314 37.0488 10.8065 38.2074C13.1959 40.3106 16.8865 40.1335 19.2097 37.8015L23.937 33.0565L28.8555 37.9934L23.8121 43.0853ZM31.8404 35.0268L29.6274 37.2481L24.709 32.3112L26.9219 30.09C27.2675 29.7431 27.8262 29.7505 28.1644 30.09L31.8404 33.7797C32.1859 34.1192 32.1859 34.68 31.8404 35.0268ZM23.2092 17.6186C25.9515 17.6186 28.5099 16.2608 30.0539 13.9805C30.9875 12.5858 31.4875 10.9697 31.4875 9.30931C31.4875 4.72664 27.7748 1 23.2092 1C18.6437 1 14.9309 4.72664 14.9309 9.30931C14.9329 11.5125 15.8057 13.6248 17.3577 15.1827C18.9098 16.7406 21.0143 17.6167 23.2092 17.6186ZM23.2092 16.5338C20.9522 16.5338 18.8495 15.4638 17.4894 13.678C18.1494 12.8011 19.0008 12.0877 19.9784 11.5926C20.9559 11.0975 22.0335 10.8339 23.1283 10.8221C23.1577 10.8221 23.1798 10.8295 23.2092 10.8295C23.2386 10.8295 23.2607 10.8221 23.2901 10.8221C25.5177 10.8442 27.591 11.9069 28.929 13.678C27.5689 15.4638 25.4662 16.5338 23.2092 16.5338ZM21.0477 8.5935C20.7537 8.15073 20.5919 7.64154 20.5919 7.1176C20.5919 5.67122 21.7682 4.4905 23.2092 4.4905C24.6502 4.4905 25.8265 5.67122 25.8265 7.1176C25.8265 7.64154 25.6721 8.15811 25.3707 8.5935C24.8928 9.29455 24.1061 9.71518 23.2607 9.73732H23.1577C22.3049 9.71518 21.5183 9.29455 21.0477 8.5935ZM23.2092 2.07741C27.1792 2.07741 30.4067 5.317 30.4067 9.30193C30.4067 10.4974 30.098 11.656 29.5392 12.7039C28.4658 11.4125 27.0396 10.4974 25.4515 10.0473C25.9014 9.70215 26.266 9.25772 26.5172 8.74839C26.7683 8.23906 26.8993 7.67853 26.8999 7.11022C26.8999 5.0661 25.2457 3.40572 23.2092 3.40572C21.1727 3.40572 19.5112 5.07348 19.5112 7.1176C19.5112 7.86293 19.7317 8.57874 20.1508 9.206C20.3787 9.53807 20.6507 9.8185 20.9595 10.0546C19.3715 10.5048 17.9452 11.4198 16.8718 12.7113C16.3072 11.6666 16.0092 10.4978 16.0043 9.30931C16.0043 5.32438 19.2392 2.07741 23.2092 2.07741ZM40.3024 19.2864C36.3324 19.2864 33.1049 22.526 33.1049 26.5109C33.1049 27.9573 33.5387 29.3668 34.3474 30.577C35.0082 31.5509 35.8963 32.3478 36.9343 32.8983C37.9722 33.4488 39.1285 33.7362 40.3024 33.7354C41.2483 33.7354 42.1848 33.5483 43.0585 33.1848C43.9323 32.8213 44.726 32.2885 45.3945 31.6168C46.0629 30.9452 46.5929 30.1479 46.9542 29.2705C47.3155 28.3931 47.501 27.4529 47.5 26.5035C47.5073 22.526 44.2725 19.2864 40.3024 19.2864ZM34.1856 26.5109C34.1856 23.1237 36.9279 20.3638 40.3098 20.3638C43.6917 20.3638 46.434 23.1237 46.434 26.5109C46.434 27.485 46.1913 28.437 45.7576 29.3004C44.8689 28.2697 43.706 27.5145 42.4051 27.1234C42.633 26.9315 42.8389 26.7102 43.008 26.4593C43.3756 25.9132 43.5667 25.2785 43.5667 24.6218C43.5667 22.8212 42.111 21.36 40.3172 21.36C38.5233 21.36 37.0676 22.8212 37.0676 24.6218C37.0676 25.2785 37.2587 25.9132 37.6337 26.4593C37.8028 26.7102 38.0086 26.9315 38.2365 27.1234C36.9364 27.5202 35.7744 28.2773 34.8841 29.3077C34.4265 28.447 34.1866 27.4865 34.1856 26.5109ZM40.3024 26.8061H40.2583C39.9127 26.8006 39.5734 26.7119 39.2689 26.5476C38.9645 26.3832 38.7037 26.1479 38.5086 25.8615C38.2865 25.5327 38.1578 25.1494 38.1363 24.7527C38.1148 24.356 38.2012 23.961 38.3863 23.6099C38.5714 23.2587 38.8482 22.9648 39.1871 22.7596C39.5259 22.5543 39.914 22.4455 40.3098 22.4448C41.5082 22.4448 42.486 23.4263 42.486 24.6291C42.486 25.0645 42.3536 25.4925 42.111 25.8541C41.714 26.4371 41.0597 26.7913 40.3539 26.8061H40.3024ZM40.3024 32.658C38.4056 32.658 36.6265 31.7651 35.4722 30.2745C36.0336 29.5416 36.7534 28.9463 37.5774 28.5334C38.4014 28.1205 39.308 27.9008 40.2289 27.8909C40.251 27.8909 40.273 27.8983 40.2951 27.8983C40.3171 27.8983 40.3392 27.8909 40.3613 27.8909C42.236 27.913 43.9784 28.7986 45.118 30.2745C44.5524 31.0172 43.8236 31.6188 42.9883 32.0323C42.153 32.4457 41.2338 32.6599 40.3024 32.658ZM35.0091 14.0765C36.1413 15.5597 37.869 16.4158 39.7363 16.4158C41.6037 16.4158 43.3314 15.5597 44.471 14.0691C44.5445 13.9732 44.6033 13.8846 44.6621 13.796C45.3354 12.8065 45.6966 11.6366 45.6988 10.4384C45.6988 7.13974 43.0227 4.4536 39.7363 4.4536C36.45 4.4536 33.7739 7.13974 33.7739 10.4384C33.7739 11.6339 34.1342 12.7998 34.8032 13.796C34.8694 13.892 34.9355 13.9805 35.0091 14.0765ZM39.7363 15.3384C38.3468 15.3384 37.0602 14.7628 36.1413 13.7518C37.0676 12.7408 38.3542 12.1652 39.7363 12.1652C41.1185 12.1652 42.4051 12.7408 43.3314 13.7518C42.4051 14.7628 41.1259 15.3384 39.7363 15.3384ZM41.1185 10.3498C40.8097 10.8073 40.2877 11.0804 39.7363 11.0804C39.185 11.0804 38.663 10.8073 38.3542 10.3498C38.163 10.0694 38.0601 9.73732 38.0601 9.40524C38.0601 8.48281 38.81 7.7301 39.729 7.7301C40.648 7.7301 41.3979 8.48281 41.3979 9.40524C41.4052 9.7447 41.3097 10.0694 41.1185 10.3498ZM39.7363 5.53839C42.4272 5.53839 44.618 7.73748 44.618 10.4458C44.618 11.2944 44.3828 12.1135 43.9637 12.8588C43.302 12.1873 42.508 11.6929 41.6258 11.4051C41.7655 11.2723 41.8905 11.1247 42.0007 10.9623C42.3095 10.4974 42.4786 9.96609 42.4786 9.41262C42.4786 7.89245 41.2435 6.65269 39.729 6.65269C38.2145 6.65269 36.9794 7.89245 36.9794 9.41262C36.9781 9.78455 37.0532 10.1528 37.1999 10.4943C37.3466 10.8358 37.5619 11.1433 37.8322 11.3977C36.9573 11.6929 36.156 12.1873 35.4943 12.8588C35.0752 12.1209 34.84 11.2944 34.84 10.4458C34.8547 7.73748 37.0455 5.53839 39.7363 5.53839Z" stroke="#EB7124" stroke-width="0.4" mask="url(#path-1-outside-1_7226_43153)"/>
<path d="M24.4621 28.4161C24.5297 28.4462 24.6048 28.4613 24.6724 28.4613C24.8901 28.4613 25.0928 28.3332 25.1829 28.1222L26.6696 24.5499C26.7372 24.3765 26.7221 24.1881 26.617 24.0298C26.5665 23.9542 26.4984 23.8921 26.4186 23.8487C26.3388 23.8054 26.2497 23.7822 26.159 23.7811H23.9891L25.0253 21.0906C25.1379 20.8042 24.9952 20.4877 24.7099 20.3746C24.4246 20.2616 24.1092 20.4048 23.9966 20.6912L22.6751 24.1278C22.6076 24.3012 22.6301 24.4896 22.7352 24.6403C22.8403 24.791 23.0055 24.8815 23.1857 24.8815H25.3331L24.1618 27.685C24.0492 27.9714 24.1843 28.2955 24.4621 28.4161ZM7.07278 12.6196C7.13226 12.6864 7.20702 12.7378 7.29063 12.7692C7.37424 12.8007 7.46421 12.8113 7.55281 12.8002C7.64142 12.7891 7.72601 12.7566 7.79933 12.7054C7.87266 12.6543 7.93252 12.586 7.97378 12.5065L8.96488 10.5998L10.902 12.9361C11.0147 13.0642 11.1648 13.1321 11.3225 13.1321C11.4501 13.1321 11.5703 13.0868 11.6754 13.0039C11.7865 12.9101 11.8566 12.7763 11.8706 12.6312C11.8846 12.4861 11.8415 12.3412 11.7505 12.2277L9.28774 9.25075C9.22915 9.18182 9.15492 9.12804 9.07129 9.09394C8.98766 9.05984 8.89709 9.04642 8.80721 9.0548C8.62701 9.07741 8.46182 9.18292 8.37923 9.34873L7.37311 11.2781L5.481 9.10756C5.38446 8.99919 5.24952 8.93301 5.10502 8.92316C4.96052 8.9133 4.81791 8.96055 4.70764 9.0548C4.47488 9.26583 4.45236 9.62004 4.64758 9.84614L7.07278 12.6196ZM38.5929 39.4571L36.5055 40.0524L36.7683 37.181C36.7984 36.8796 36.5731 36.6083 36.2728 36.5781C35.9724 36.548 35.7021 36.7741 35.6721 37.0755L35.3342 40.7458C35.3192 40.9267 35.3943 41.1076 35.5294 41.2206C35.6721 41.3337 35.8598 41.3789 36.0325 41.3261L38.0973 40.7383L37.7369 43.7529C37.6994 44.0543 37.9171 44.3332 38.2174 44.3633H38.285C38.5628 44.3633 38.7956 44.1598 38.8331 43.8735L39.2911 40.0298C39.3016 39.9402 39.2899 39.8493 39.2572 39.7652C39.2244 39.6811 39.1716 39.6063 39.1034 39.5475C39.0294 39.4973 38.9457 39.4633 38.8577 39.4478C38.7698 39.4322 38.6795 39.4353 38.5929 39.4571Z" fill="#EB7124"/>
</svg>
