<svg width="48" height="48" viewBox="0 0 48 48" fill="none" xmlns="http://www.w3.org/2000/svg">
<path d="M45.2 19.3512C44.4574 19.3512 43.7452 19.6485 43.2201 20.1778C42.695 20.707 42.4 21.4249 42.4 22.1734V29.9141C42.1392 29.6082 41.8158 29.3628 41.4521 29.1947C41.0883 29.0266 40.6928 28.9397 40.2927 28.9401C39.8925 28.9405 39.4972 29.0281 39.1338 29.1969C38.7703 29.3657 38.4474 29.6117 38.1872 29.9181L34.6952 34.0264C33.1551 34.83 31.8647 36.046 30.9658 37.5408C30.0669 39.0356 29.5943 40.7513 29.6 42.4992V47.5726H31.2V42.4992C31.1958 41.0234 31.6018 39.5759 32.372 38.3206C33.1422 37.0654 34.2457 36.0527 35.5576 35.3971C35.653 35.3487 35.7379 35.2816 35.8072 35.1996L39.4024 30.9728C39.5973 30.7446 39.8708 30.5994 40.1677 30.5664C40.4647 30.5335 40.763 30.6153 41.0024 30.7954C41.1332 30.8943 41.2422 31.0197 41.3223 31.1634C41.4024 31.3071 41.452 31.466 41.4678 31.6301C41.4836 31.7942 41.4653 31.9598 41.4141 32.1164C41.3629 32.2729 41.2799 32.417 41.1704 32.5395L36.9976 37.3718C36.924 37.4508 36.8669 37.5439 36.8298 37.6457C36.7927 37.7474 36.7764 37.8556 36.7817 37.9638C36.7871 38.0721 36.814 38.1781 36.8609 38.2757C36.9078 38.3732 36.9738 38.4601 37.0548 38.5314C37.1358 38.6026 37.2302 38.6567 37.3325 38.6903C37.4347 38.724 37.5426 38.7365 37.6497 38.7271C37.7568 38.7178 37.861 38.6868 37.9559 38.636C38.0509 38.5851 38.1347 38.5155 38.2024 38.4313L43.8024 31.9807C43.9307 31.8327 44.001 31.6426 44 31.4461V22.1734C44 21.8526 44.1264 21.5449 44.3515 21.3181C44.5765 21.0913 44.8817 20.9639 45.2 20.9639C45.5183 20.9639 45.8235 21.0913 46.0485 21.3181C46.2736 21.5449 46.4 21.8526 46.4 22.1734V32.8217C46.4003 33.8794 46.1054 34.9157 45.5488 35.8124L38.5216 47.1453L39.8816 48L46.9088 36.6679C47.6231 35.5143 48.0012 34.1815 48 32.8217V22.1734C48 21.4249 47.705 20.707 47.1799 20.1778C46.6548 19.6485 45.9426 19.3512 45.2 19.3512ZM8.1216 48L9.4816 47.1453L2.4512 35.8124C1.89465 34.9157 1.59967 33.8794 1.6 32.8217V22.1734C1.6 21.8526 1.72643 21.5449 1.95147 21.3181C2.17652 21.0913 2.48174 20.9639 2.8 20.9639C3.11826 20.9639 3.42348 21.0913 3.64853 21.3181C3.87357 21.5449 4 21.8526 4 22.1734V31.4461C4.00023 31.6413 4.07072 31.8299 4.1984 31.9767L9.7984 38.4273C9.86608 38.5115 9.9499 38.5811 10.0449 38.6319C10.1398 38.6828 10.244 38.7138 10.3511 38.7231C10.4582 38.7325 10.5661 38.7199 10.6683 38.6863C10.7706 38.6527 10.865 38.5986 10.946 38.5274C11.027 38.4561 11.093 38.3691 11.1399 38.2716C11.1868 38.1741 11.2137 38.0681 11.2191 37.9598C11.2244 37.8516 11.2081 37.7434 11.171 37.6416C11.1339 37.5399 11.0768 37.4468 11.0032 37.3678L6.8248 32.5298C6.71666 32.4071 6.63493 32.2631 6.5848 32.107C6.53466 31.9508 6.5172 31.7859 6.53351 31.6226C6.54982 31.4593 6.59956 31.3012 6.67958 31.1583C6.7596 31.0153 6.86816 30.8907 6.9984 30.7922C7.23777 30.6119 7.5361 30.53 7.8331 30.5629C8.1301 30.5959 8.40363 30.7412 8.5984 30.9696L12.1936 35.1963C12.2629 35.2783 12.3477 35.3455 12.4432 35.3939C13.7554 36.0498 14.8591 37.0631 15.6292 38.3189C16.3992 39.5748 16.8048 41.0229 16.8 42.4992V47.5726H18.4V42.4992C18.4057 40.7513 17.9331 39.0356 17.0342 37.5408C16.1353 36.046 14.8449 34.83 13.3048 34.0264L9.8128 29.9205C9.55273 29.614 9.22996 29.3678 8.86664 29.1988C8.50332 29.0298 8.10803 28.9419 7.70787 28.9413C7.30772 28.9407 6.91216 29.0273 6.54833 29.1952C6.1845 29.3631 5.86099 29.6084 5.6 29.9141V22.1734C5.6 21.4249 5.305 20.707 4.7799 20.1778C4.2548 19.6485 3.54261 19.3512 2.8 19.3512C2.05739 19.3512 1.3452 19.6485 0.820101 20.1778C0.294999 20.707 1.06928e-07 21.4249 9.58627e-08 22.1734V32.8217C-0.000220131 34.1818 0.379012 35.5146 1.0944 36.6679L8.1216 48ZM40 15.2002V5.64365C40 5.4298 39.9157 5.22471 39.7657 5.07349C39.6157 4.92228 39.4122 4.83732 39.2 4.83732C34.6345 4.83659 30.155 3.58579 26.24 1.21853L24.4112 0.114668C24.287 0.039632 24.1448 0 24 0C23.8552 0 23.713 0.039632 23.5888 0.114668L21.76 1.21853C17.845 3.58579 13.3655 4.83659 8.8 4.83732C8.58783 4.83732 8.38434 4.92228 8.23431 5.07349C8.08428 5.22471 8 5.4298 8 5.64365V15.2002C8.00677 18.8631 8.86405 22.4734 10.5033 25.7425C12.1425 29.0115 14.5181 31.8485 17.44 34.0264L23.528 38.5482C23.6655 38.6503 23.8317 38.7053 24.0024 38.7053C24.1731 38.7053 24.3393 38.6503 24.4768 38.5482L30.56 34.0264C33.4819 31.8485 35.8575 29.0115 37.4967 25.7425C39.1359 22.4734 39.9932 18.8631 40 15.2002ZM24 36.8953L18.3872 32.7266C15.6674 30.6988 13.4561 28.0576 11.9303 25.0143C10.4044 21.971 9.6064 18.61 9.6 15.2002V6.43788C14.1826 6.29982 18.6535 4.97886 22.5848 2.60138L24 1.74587L25.4144 2.60138C29.3461 4.97873 33.8171 6.29967 38.4 6.43788V15.2002C38.3936 18.61 37.5956 21.971 36.0697 25.0143C34.5439 28.0576 32.3326 30.6988 29.6128 32.7266L24 36.8953Z" fill="#EB7124"/>
<path d="M36.8008 8.69665C36.8008 8.49814 36.7282 8.30661 36.5968 8.15872C36.4654 8.01084 36.2846 7.91699 36.0888 7.89516C32.0243 7.43714 28.1047 6.10549 24.5944 3.99012L24.4144 3.88126C24.2898 3.8056 24.1471 3.76562 24.0016 3.76562C23.8561 3.76562 23.7134 3.8056 23.5888 3.88126L23.4096 3.98931C20.1291 5.97789 16.4821 7.27406 12.6896 7.7992C12.4312 7.83468 12.1712 7.86694 11.9112 7.89596C11.7155 7.9178 11.5346 8.01164 11.4032 8.15953C11.2718 8.30742 11.1992 8.49895 11.1992 8.69745V15.2061C11.2059 18.3633 11.9453 21.475 13.3582 24.2927C14.7712 27.1104 16.8187 29.5558 19.3368 31.4335L23.5264 34.5443C23.6639 34.6463 23.8301 34.7013 24.0008 34.7013C24.1715 34.7013 24.3378 34.6463 24.4752 34.5443L28.6648 31.4326C31.1831 29.5552 33.2304 27.1097 34.6432 24.292C36.0559 21.4743 36.7948 18.3624 36.8008 15.2053V8.69665ZM32.0008 25.6295C30.8361 27.3639 29.3872 28.8859 27.716 30.1304L24.0008 32.8937L20.2864 30.1353C18.615 28.8904 17.1658 27.3681 16.0008 25.6335V25.0006C16.0021 23.9317 16.4239 22.907 17.1738 22.1512C17.9237 21.3954 18.9403 20.9702 20.0008 20.9689H28.0008C29.0613 20.9702 30.078 21.3954 30.8278 22.1512C31.5777 22.907 31.9995 23.9317 32.0008 25.0006V25.6295ZM35.2008 15.2013C35.1965 18.0077 34.5602 20.7766 33.34 23.2992C32.9798 22.1563 32.2685 21.1584 31.3088 20.4496C30.349 19.7409 29.1906 19.358 28.0008 19.3563H20.0008C18.8111 19.3579 17.6527 19.7408 16.6931 20.4496C15.7335 21.1583 15.0223 22.1563 14.6624 23.2992C13.4421 20.778 12.8056 18.0105 12.8008 15.2053V9.41024L12.9104 9.39492C16.826 8.85354 20.5958 7.53328 24.0008 5.51085C27.4427 7.542 31.249 8.86721 35.2008 9.41024V15.2013Z" fill="#EB7124"/>
<path d="M23.1984 29.027H24.7984V30.6397H23.1984V29.027ZM14.3984 10.4815H15.9984V12.0941H14.3984V10.4815ZM31.9984 10.4815H33.5984V12.0941H31.9984V10.4815ZM14.3984 16.9321H15.9984V18.5447H14.3984V16.9321ZM31.9984 16.9321H33.5984V18.5447H31.9984V16.9321ZM17.5984 23.3827H19.1984V24.9954H17.5984V23.3827ZM28.7984 23.3827H30.3984V24.9954H28.7984V23.3827ZM19.1984 12.9005C19.1984 13.8573 19.48 14.7927 20.0074 15.5883C20.5348 16.3839 21.2845 17.004 22.1616 17.3702C23.0386 17.7363 24.0038 17.8321 24.9349 17.6455C25.866 17.4588 26.7213 16.998 27.3925 16.3214C28.0638 15.6448 28.521 14.7828 28.7062 13.8443C28.8914 12.9058 28.7964 11.9331 28.4331 11.0491C28.0698 10.165 27.4545 9.40945 26.6652 8.87784C25.8758 8.34624 24.9478 8.0625 23.9984 8.0625C22.7258 8.06378 21.5056 8.5739 20.6057 9.48092C19.7058 10.3879 19.1997 11.6177 19.1984 12.9005ZM23.9984 9.67515C24.6313 9.67515 25.25 9.86431 25.7763 10.2187C26.3025 10.5731 26.7127 11.0768 26.9549 11.6662C27.1971 12.2555 27.2604 12.904 27.1369 13.5297C27.0135 14.1553 26.7087 14.73 26.2612 15.1811C25.8137 15.6322 25.2435 15.9393 24.6227 16.0638C24.002 16.1882 23.3586 16.1244 22.7739 15.8803C22.1891 15.6361 21.6894 15.2227 21.3377 14.6923C20.9861 14.1619 20.7984 13.5384 20.7984 12.9005C20.7984 12.0451 21.1356 11.2247 21.7357 10.6198C22.3358 10.015 23.1497 9.67515 23.9984 9.67515Z" fill="#EB7124"/>
</svg>
