<svg width="62" height="62" viewBox="0 0 62 62" fill="none" xmlns="http://www.w3.org/2000/svg">
<path fill-rule="evenodd" clip-rule="evenodd" d="M31 61C47.5685 61 61 47.5685 61 31C61 14.4315 47.5685 1 31 1C14.4315 1 1 14.4315 1 31C1 47.5685 14.4315 61 31 61Z" fill="white" stroke="#EB7124" stroke-width="1.5"/>
<path d="M33.7302 23.3236H36.4874C36.7411 23.3236 36.947 23.1296 36.947 22.8906V20.2924C36.947 20.0534 36.7411 19.8594 36.4874 19.8594H33.7302C30.9436 19.8594 28.6753 21.9959 28.6753 24.6227V27.6538H25.4586C25.2049 27.6538 24.999 27.8478 24.999 28.0869V30.685C24.999 30.924 25.2049 31.118 25.4586 31.118H28.6753V40.2116C28.6753 40.4506 28.8812 40.6446 29.1349 40.6446H31.8921C32.1457 40.6446 32.3516 40.4506 32.3516 40.2116V31.118H35.5684C35.766 31.118 35.9415 30.9985 36.0049 30.8218L36.924 28.2237C36.9709 28.092 36.947 27.9466 36.8606 27.8331C36.7733 27.7205 36.6354 27.6538 36.4874 27.6538H32.3516V24.6227C32.3516 23.9064 32.9701 23.3236 33.7302 23.3236Z" fill="#EB7124"/>
</svg>
