<svg width="62" height="62" viewBox="0 0 62 62" fill="none" xmlns="http://www.w3.org/2000/svg">
<path fill-rule="evenodd" clip-rule="evenodd" d="M31 61C47.5685 61 61 47.5685 61 31C61 14.4315 47.5685 1 31 1C14.4315 1 1 14.4315 1 31C1 47.5685 14.4315 61 31 61Z" fill="white" stroke="#EB7124" stroke-width="1.5"/>
<mask id="path-2-inside-1_4596_9011" fill="white">
<path d="M40.3811 25.8905C40.3967 26.4516 40.4084 26.9503 40.4162 27.3866C40.424 27.823 40.4279 28.7425 40.4279 30.1451C40.4279 31.5477 40.424 32.4672 40.4162 32.9035C40.4084 33.3399 40.3967 33.8308 40.3811 34.3763C40.35 34.9373 40.2915 35.4126 40.2058 35.8022C40.1201 36.1918 40.0149 36.5503 39.8902 36.8776C39.7655 37.2204 39.6097 37.5399 39.4227 37.836C39.2357 38.1321 38.9941 38.4204 38.698 38.7009C38.4175 38.997 38.1292 39.2386 37.8331 39.4256C37.537 39.6126 37.2175 39.7685 36.8746 39.8931C36.5474 40.0178 36.1889 40.123 35.7993 40.2087C35.4097 40.2944 34.9422 40.3529 34.3967 40.384C33.8357 40.3996 33.337 40.4113 32.9006 40.4191C32.4642 40.4269 31.5448 40.4308 30.1422 40.4308C28.7396 40.4308 27.8201 40.4269 27.3837 40.4191C26.9473 40.4113 26.4564 40.3996 25.911 40.384C25.3499 40.3529 24.8746 40.2944 24.485 40.2087C24.0954 40.123 23.737 40.0178 23.4097 39.8931C23.0668 39.7685 22.7474 39.6126 22.4513 39.4256C22.1551 39.2386 21.8668 38.997 21.5863 38.7009C21.2902 38.4204 21.0487 38.1321 20.8616 37.836C20.6746 37.5399 20.5188 37.2204 20.3941 36.8776C20.2694 36.5503 20.1642 36.1918 20.0785 35.8022C19.9928 35.4126 19.9344 34.9451 19.9032 34.3996C19.8876 33.8386 19.8759 33.3399 19.8681 32.9035C19.8603 32.4672 19.8564 31.5477 19.8564 30.1451C19.8564 28.7425 19.8603 27.823 19.8681 27.3866C19.8759 26.9503 19.8876 26.4594 19.9032 25.9139C19.9344 25.3529 19.9928 24.8776 20.0785 24.4879C20.1642 24.0983 20.2694 23.7399 20.3941 23.4126C20.5188 23.0698 20.6746 22.7503 20.8616 22.4542C21.0487 22.1581 21.2902 21.8698 21.5863 21.5892C21.8668 21.2931 22.1551 21.0516 22.4513 20.8646C22.7474 20.6776 23.0668 20.5217 23.4097 20.397C23.737 20.2724 24.0954 20.1672 24.485 20.0815C24.8746 19.9957 25.3422 19.9373 25.8876 19.9061C26.4487 19.8905 26.9473 19.8789 27.3837 19.8711C27.8201 19.8633 28.7396 19.8594 30.1422 19.8594C31.5448 19.8594 32.4642 19.8633 32.9006 19.8711C33.337 19.8789 33.8279 19.8905 34.3733 19.9061C34.9344 19.9373 35.4097 19.9957 35.7993 20.0815C36.1889 20.1672 36.5474 20.2724 36.8746 20.397C37.2175 20.5217 37.537 20.6776 37.8331 20.8646C38.1292 21.0516 38.4175 21.2931 38.698 21.5892C38.9941 21.8698 39.2357 22.1581 39.4227 22.4542C39.6097 22.7503 39.7655 23.0698 39.8902 23.4126C40.0149 23.7399 40.1201 24.0983 40.2058 24.4879C40.2915 24.8776 40.35 25.3451 40.3811 25.8905ZM38.511 34.3061C38.5422 33.7607 38.5616 33.2737 38.5694 32.8451C38.5772 32.4165 38.5811 31.5165 38.5811 30.1451C38.5811 28.7737 38.5772 27.8737 38.5694 27.4451C38.5616 27.0165 38.5422 26.5295 38.511 25.984C38.4954 25.4853 38.4525 25.0879 38.3824 24.7918C38.3123 24.4957 38.2383 24.2542 38.1603 24.0672C38.0668 23.8334 37.9616 23.623 37.8448 23.436C37.7279 23.249 37.5759 23.0698 37.3889 22.8983C37.2175 22.7113 37.0383 22.5594 36.8512 22.4425C36.6642 22.3256 36.4539 22.2204 36.2201 22.1269C36.0331 22.049 35.7915 21.975 35.4954 21.9048C35.1993 21.8347 34.8019 21.7918 34.3032 21.7763C33.7577 21.7451 33.2707 21.7256 32.8422 21.7178C32.4136 21.71 31.5136 21.7061 30.1422 21.7061C28.7707 21.7061 27.8707 21.71 27.4422 21.7178C27.0136 21.7256 26.5266 21.7451 25.9811 21.7763C25.4824 21.7918 25.085 21.8347 24.7889 21.9048C24.4928 21.975 24.2512 22.049 24.0642 22.1269C23.8305 22.2204 23.6201 22.3256 23.4331 22.4425C23.2461 22.5594 23.0668 22.7113 22.8954 22.8983C22.7084 23.0698 22.5564 23.249 22.4396 23.436C22.3227 23.623 22.2175 23.8334 22.124 24.0672C22.0461 24.2542 21.972 24.4957 21.9019 24.7918C21.8318 25.0879 21.7889 25.4853 21.7733 25.984C21.7422 26.5295 21.7227 27.0165 21.7149 27.4451C21.7071 27.8737 21.7032 28.7737 21.7032 30.1451C21.7032 31.5165 21.7071 32.4165 21.7149 32.8451C21.7227 33.2737 21.7422 33.7607 21.7733 34.3061C21.7889 34.8048 21.8318 35.2022 21.9019 35.4983C21.972 35.7944 22.0461 36.036 22.124 36.223C22.2175 36.4568 22.3227 36.6672 22.4396 36.8542C22.5564 37.0412 22.7084 37.2204 22.8954 37.3918C23.0668 37.5789 23.2461 37.7308 23.4331 37.8477C23.6201 37.9646 23.8305 38.0698 24.0642 38.1633C24.2512 38.2412 24.4928 38.3152 24.7889 38.3853C25.085 38.4555 25.4824 38.4983 25.9811 38.5139C26.5266 38.5451 27.0136 38.5646 27.4422 38.5724C27.8707 38.5802 28.7707 38.5841 30.1422 38.5841C31.5136 38.5841 32.4136 38.5802 32.8422 38.5724C33.2707 38.5646 33.7577 38.5451 34.3032 38.5139C34.8019 38.4983 35.1993 38.4555 35.4954 38.3853C35.7915 38.3152 36.0331 38.2412 36.2201 38.1633C36.4539 38.0698 36.6642 37.9646 36.8512 37.8477C37.0383 37.7308 37.2175 37.5789 37.3889 37.3918C37.5759 37.2204 37.7279 37.0412 37.8448 36.8542C37.9616 36.6672 38.0668 36.4568 38.1603 36.223C38.2383 36.036 38.3123 35.7944 38.3824 35.4983C38.4525 35.2022 38.4954 34.8048 38.511 34.3061ZM30.1422 24.862C30.8746 24.862 31.5603 25.0022 32.1993 25.2828C32.8383 25.5477 33.3993 25.9217 33.8824 26.4048C34.3655 26.8879 34.7396 27.449 35.0045 28.0879C35.285 28.7269 35.4253 29.4126 35.4253 30.1451C35.4253 30.8776 35.285 31.5633 35.0045 32.2022C34.7396 32.8412 34.3655 33.4022 33.8824 33.8853C33.3993 34.3685 32.8383 34.7425 32.1993 35.0074C31.5603 35.2879 30.8746 35.4282 30.1422 35.4282C29.4097 35.4282 28.724 35.2879 28.085 35.0074C27.4461 34.7425 26.885 34.3685 26.4019 33.8853C25.9188 33.4022 25.5448 32.8412 25.2798 32.2022C24.9993 31.5633 24.859 30.8776 24.859 30.1451C24.859 29.4126 24.9993 28.7269 25.2798 28.0879C25.5448 27.449 25.9188 26.8879 26.4019 26.4048C26.885 25.9217 27.4461 25.5477 28.085 25.2828C28.724 25.0022 29.4097 24.862 30.1422 24.862ZM30.1422 33.5815C31.0928 33.5815 31.9032 33.2464 32.5733 32.5763C33.2435 31.9061 33.5785 31.0957 33.5785 30.1451C33.5785 29.1944 33.2435 28.3841 32.5733 27.7139C31.9032 27.0438 31.0928 26.7087 30.1422 26.7087C29.1915 26.7087 28.3811 27.0438 27.711 27.7139C27.0409 28.3841 26.7058 29.1944 26.7058 30.1451C26.7058 31.0957 27.0409 31.9061 27.711 32.5763C28.3811 33.2464 29.1915 33.5815 30.1422 33.5815ZM36.8279 24.3711C36.9058 24.6983 36.8551 25.0061 36.6759 25.2944C36.4967 25.5828 36.2435 25.7659 35.9162 25.8438C35.5889 25.9217 35.2811 25.8711 34.9928 25.6918C34.7045 25.5126 34.5214 25.2594 34.4435 24.9321C34.3655 24.6048 34.4162 24.297 34.5954 24.0087C34.7746 23.7204 35.0279 23.5373 35.3551 23.4594C35.6824 23.3659 35.9902 23.4126 36.2785 23.5996C36.5668 23.7866 36.75 24.0438 36.8279 24.3711Z"/>
</mask>
<path d="M40.3811 25.8905C40.3967 26.4516 40.4084 26.9503 40.4162 27.3866C40.424 27.823 40.4279 28.7425 40.4279 30.1451C40.4279 31.5477 40.424 32.4672 40.4162 32.9035C40.4084 33.3399 40.3967 33.8308 40.3811 34.3763C40.35 34.9373 40.2915 35.4126 40.2058 35.8022C40.1201 36.1918 40.0149 36.5503 39.8902 36.8776C39.7655 37.2204 39.6097 37.5399 39.4227 37.836C39.2357 38.1321 38.9941 38.4204 38.698 38.7009C38.4175 38.997 38.1292 39.2386 37.8331 39.4256C37.537 39.6126 37.2175 39.7685 36.8746 39.8931C36.5474 40.0178 36.1889 40.123 35.7993 40.2087C35.4097 40.2944 34.9422 40.3529 34.3967 40.384C33.8357 40.3996 33.337 40.4113 32.9006 40.4191C32.4642 40.4269 31.5448 40.4308 30.1422 40.4308C28.7396 40.4308 27.8201 40.4269 27.3837 40.4191C26.9473 40.4113 26.4564 40.3996 25.911 40.384C25.3499 40.3529 24.8746 40.2944 24.485 40.2087C24.0954 40.123 23.737 40.0178 23.4097 39.8931C23.0668 39.7685 22.7474 39.6126 22.4513 39.4256C22.1551 39.2386 21.8668 38.997 21.5863 38.7009C21.2902 38.4204 21.0487 38.1321 20.8616 37.836C20.6746 37.5399 20.5188 37.2204 20.3941 36.8776C20.2694 36.5503 20.1642 36.1918 20.0785 35.8022C19.9928 35.4126 19.9344 34.9451 19.9032 34.3996C19.8876 33.8386 19.8759 33.3399 19.8681 32.9035C19.8603 32.4672 19.8564 31.5477 19.8564 30.1451C19.8564 28.7425 19.8603 27.823 19.8681 27.3866C19.8759 26.9503 19.8876 26.4594 19.9032 25.9139C19.9344 25.3529 19.9928 24.8776 20.0785 24.4879C20.1642 24.0983 20.2694 23.7399 20.3941 23.4126C20.5188 23.0698 20.6746 22.7503 20.8616 22.4542C21.0487 22.1581 21.2902 21.8698 21.5863 21.5892C21.8668 21.2931 22.1551 21.0516 22.4513 20.8646C22.7474 20.6776 23.0668 20.5217 23.4097 20.397C23.737 20.2724 24.0954 20.1672 24.485 20.0815C24.8746 19.9957 25.3422 19.9373 25.8876 19.9061C26.4487 19.8905 26.9473 19.8789 27.3837 19.8711C27.8201 19.8633 28.7396 19.8594 30.1422 19.8594C31.5448 19.8594 32.4642 19.8633 32.9006 19.8711C33.337 19.8789 33.8279 19.8905 34.3733 19.9061C34.9344 19.9373 35.4097 19.9957 35.7993 20.0815C36.1889 20.1672 36.5474 20.2724 36.8746 20.397C37.2175 20.5217 37.537 20.6776 37.8331 20.8646C38.1292 21.0516 38.4175 21.2931 38.698 21.5892C38.9941 21.8698 39.2357 22.1581 39.4227 22.4542C39.6097 22.7503 39.7655 23.0698 39.8902 23.4126C40.0149 23.7399 40.1201 24.0983 40.2058 24.4879C40.2915 24.8776 40.35 25.3451 40.3811 25.8905ZM38.511 34.3061C38.5422 33.7607 38.5616 33.2737 38.5694 32.8451C38.5772 32.4165 38.5811 31.5165 38.5811 30.1451C38.5811 28.7737 38.5772 27.8737 38.5694 27.4451C38.5616 27.0165 38.5422 26.5295 38.511 25.984C38.4954 25.4853 38.4525 25.0879 38.3824 24.7918C38.3123 24.4957 38.2383 24.2542 38.1603 24.0672C38.0668 23.8334 37.9616 23.623 37.8448 23.436C37.7279 23.249 37.5759 23.0698 37.3889 22.8983C37.2175 22.7113 37.0383 22.5594 36.8512 22.4425C36.6642 22.3256 36.4539 22.2204 36.2201 22.1269C36.0331 22.049 35.7915 21.975 35.4954 21.9048C35.1993 21.8347 34.8019 21.7918 34.3032 21.7763C33.7577 21.7451 33.2707 21.7256 32.8422 21.7178C32.4136 21.71 31.5136 21.7061 30.1422 21.7061C28.7707 21.7061 27.8707 21.71 27.4422 21.7178C27.0136 21.7256 26.5266 21.7451 25.9811 21.7763C25.4824 21.7918 25.085 21.8347 24.7889 21.9048C24.4928 21.975 24.2512 22.049 24.0642 22.1269C23.8305 22.2204 23.6201 22.3256 23.4331 22.4425C23.2461 22.5594 23.0668 22.7113 22.8954 22.8983C22.7084 23.0698 22.5564 23.249 22.4396 23.436C22.3227 23.623 22.2175 23.8334 22.124 24.0672C22.0461 24.2542 21.972 24.4957 21.9019 24.7918C21.8318 25.0879 21.7889 25.4853 21.7733 25.984C21.7422 26.5295 21.7227 27.0165 21.7149 27.4451C21.7071 27.8737 21.7032 28.7737 21.7032 30.1451C21.7032 31.5165 21.7071 32.4165 21.7149 32.8451C21.7227 33.2737 21.7422 33.7607 21.7733 34.3061C21.7889 34.8048 21.8318 35.2022 21.9019 35.4983C21.972 35.7944 22.0461 36.036 22.124 36.223C22.2175 36.4568 22.3227 36.6672 22.4396 36.8542C22.5564 37.0412 22.7084 37.2204 22.8954 37.3918C23.0668 37.5789 23.2461 37.7308 23.4331 37.8477C23.6201 37.9646 23.8305 38.0698 24.0642 38.1633C24.2512 38.2412 24.4928 38.3152 24.7889 38.3853C25.085 38.4555 25.4824 38.4983 25.9811 38.5139C26.5266 38.5451 27.0136 38.5646 27.4422 38.5724C27.8707 38.5802 28.7707 38.5841 30.1422 38.5841C31.5136 38.5841 32.4136 38.5802 32.8422 38.5724C33.2707 38.5646 33.7577 38.5451 34.3032 38.5139C34.8019 38.4983 35.1993 38.4555 35.4954 38.3853C35.7915 38.3152 36.0331 38.2412 36.2201 38.1633C36.4539 38.0698 36.6642 37.9646 36.8512 37.8477C37.0383 37.7308 37.2175 37.5789 37.3889 37.3918C37.5759 37.2204 37.7279 37.0412 37.8448 36.8542C37.9616 36.6672 38.0668 36.4568 38.1603 36.223C38.2383 36.036 38.3123 35.7944 38.3824 35.4983C38.4525 35.2022 38.4954 34.8048 38.511 34.3061ZM30.1422 24.862C30.8746 24.862 31.5603 25.0022 32.1993 25.2828C32.8383 25.5477 33.3993 25.9217 33.8824 26.4048C34.3655 26.8879 34.7396 27.449 35.0045 28.0879C35.285 28.7269 35.4253 29.4126 35.4253 30.1451C35.4253 30.8776 35.285 31.5633 35.0045 32.2022C34.7396 32.8412 34.3655 33.4022 33.8824 33.8853C33.3993 34.3685 32.8383 34.7425 32.1993 35.0074C31.5603 35.2879 30.8746 35.4282 30.1422 35.4282C29.4097 35.4282 28.724 35.2879 28.085 35.0074C27.4461 34.7425 26.885 34.3685 26.4019 33.8853C25.9188 33.4022 25.5448 32.8412 25.2798 32.2022C24.9993 31.5633 24.859 30.8776 24.859 30.1451C24.859 29.4126 24.9993 28.7269 25.2798 28.0879C25.5448 27.449 25.9188 26.8879 26.4019 26.4048C26.885 25.9217 27.4461 25.5477 28.085 25.2828C28.724 25.0022 29.4097 24.862 30.1422 24.862ZM30.1422 33.5815C31.0928 33.5815 31.9032 33.2464 32.5733 32.5763C33.2435 31.9061 33.5785 31.0957 33.5785 30.1451C33.5785 29.1944 33.2435 28.3841 32.5733 27.7139C31.9032 27.0438 31.0928 26.7087 30.1422 26.7087C29.1915 26.7087 28.3811 27.0438 27.711 27.7139C27.0409 28.3841 26.7058 29.1944 26.7058 30.1451C26.7058 31.0957 27.0409 31.9061 27.711 32.5763C28.3811 33.2464 29.1915 33.5815 30.1422 33.5815ZM36.8279 24.3711C36.9058 24.6983 36.8551 25.0061 36.6759 25.2944C36.4967 25.5828 36.2435 25.7659 35.9162 25.8438C35.5889 25.9217 35.2811 25.8711 34.9928 25.6918C34.7045 25.5126 34.5214 25.2594 34.4435 24.9321C34.3655 24.6048 34.4162 24.297 34.5954 24.0087C34.7746 23.7204 35.0279 23.5373 35.3551 23.4594C35.6824 23.3659 35.9902 23.4126 36.2785 23.5996C36.5668 23.7866 36.75 24.0438 36.8279 24.3711Z" fill="#EB7124" stroke="#EB7124" stroke-width="1.72414" mask="url(#path-2-inside-1_4596_9011)"/>
</svg>
