<svg width="62" height="62" viewBox="0 0 62 62" fill="none" xmlns="http://www.w3.org/2000/svg">
<path fill-rule="evenodd" clip-rule="evenodd" d="M31 61C47.5685 61 61 47.5685 61 31C61 14.4315 47.5685 1 31 1C14.4315 1 1 14.4315 1 31C1 47.5685 14.4315 61 31 61Z" fill="white" stroke="#EB7124" stroke-width="1.5"/>
<path d="M24.1135 24.9536C25.5181 24.9536 26.6568 23.815 26.6568 22.4104C26.6568 21.0058 25.5181 19.8672 24.1135 19.8672C22.709 19.8672 21.5703 21.0058 21.5703 22.4104C21.5703 23.815 22.709 24.9536 24.1135 24.9536Z" fill="#EB7124"/>
<path d="M26.2329 26.6406H21.9942C21.7602 26.6406 21.5703 26.8305 21.5703 27.0645V39.7806C21.5703 40.0146 21.7602 40.2045 21.9942 40.2045H26.2329C26.4669 40.2045 26.6568 40.0146 26.6568 39.7806V27.0645C26.6568 26.8305 26.4669 26.6406 26.2329 26.6406Z" fill="#EB7124"/>
<path d="M38.8649 25.9434C37.0533 25.3228 34.7873 25.8679 33.4284 26.8454C33.3817 26.6631 33.2156 26.5275 33.0181 26.5275H28.7793C28.5454 26.5275 28.3555 26.7174 28.3555 26.9514V39.6675C28.3555 39.9015 28.5454 40.0914 28.7793 40.0914H33.0181C33.252 40.0914 33.4419 39.9015 33.4419 39.6675V30.5288C34.1269 29.9388 35.0094 29.7506 35.7317 30.0575C36.4319 30.3533 36.8329 31.0756 36.8329 32.0378V39.6675C36.8329 39.9015 37.0228 40.0914 37.2568 40.0914H41.4955C41.7295 40.0914 41.9194 39.9015 41.9194 39.6675V31.1841C41.871 27.7008 40.2323 26.4113 38.8649 25.9434Z" fill="#EB7124"/>
</svg>
