<svg width="62" height="62" viewBox="0 0 62 62" fill="none" xmlns="http://www.w3.org/2000/svg">
<path fill-rule="evenodd" clip-rule="evenodd" d="M31 61C47.5685 61 61 47.5685 61 31C61 14.4315 47.5685 1 31 1C14.4315 1 1 14.4315 1 31C1 47.5685 14.4315 61 31 61Z" fill="white" stroke="#EB7124" stroke-width="1.5"/>
<g clip-path="url(#clip0_4596_9010)">
<rect width="22.2857" height="22.2857" transform="translate(20.5 19)" fill="white"/>
<path d="M41.1848 39.0124L33.7174 28.411L32.8732 27.212L27.5316 19.6285L27.089 19H20.5254L22.1262 21.2733L29.2285 31.3577L30.0727 32.5554L35.7792 40.658L36.2219 41.2859H42.7856L41.1848 39.0126V39.0124ZM37.002 39.8348L31.0734 31.4171L30.2291 30.2188L23.3496 20.4509H26.3088L31.8724 28.3503L32.7166 29.5486L39.9612 39.8346H37.002V39.8348Z" fill="#EB7124"/>
<path d="M30.2295 30.2188L31.0737 31.417L30.0728 32.5553L22.3937 41.2858H20.5L29.2286 31.3576L30.2295 30.2188Z" fill="#EB7124"/>
<path d="M41.9959 19L33.7181 28.411L32.7173 29.5486L31.873 28.3503L32.8739 27.212L38.4812 20.8341L40.1022 19H41.9959Z" fill="#EB7124"/>
</g>
<defs>
<clipPath id="clip0_4596_9010">
<rect width="22.2857" height="22.2857" fill="white" transform="translate(20.5 19)"/>
</clipPath>
</defs>
</svg>
