<svg width="48" height="48" viewBox="0 0 48 48" fill="none" xmlns="http://www.w3.org/2000/svg">
<path d="M40.976 7.0223C36.4431 2.49445 30.416 0.000995789 24.006 0H23.9851C17.631 0 11.6507 2.48848 7.14476 7.00836C2.6538 11.5123 0.116737 17.5348 0.000101929 23.9656C-0.00236116 24.0989 0.0398773 24.2291 0.12009 24.3356C0.200302 24.442 0.313874 24.5186 0.442718 24.5532C0.571428 24.5882 0.708182 24.5791 0.831085 24.5272C0.953988 24.4754 1.05593 24.3839 1.1206 24.2674L1.14552 24.2226C2.09256 22.5287 3.55997 21.5957 5.27859 21.5957C6.99722 21.5957 8.46563 22.5287 9.41167 24.2226L9.43659 24.2674C9.48841 24.3603 9.56415 24.4378 9.65599 24.4917C9.74783 24.5456 9.85243 24.5741 9.95896 24.5741C10.0653 24.5739 10.1698 24.5456 10.2616 24.4918C10.3533 24.4381 10.4292 24.361 10.4813 24.2684L10.5062 24.2226C11.4533 22.5287 12.9207 21.5957 14.6393 21.5957C16.3579 21.5957 17.8264 22.5287 18.7724 24.2226L18.7973 24.2674C18.8492 24.3602 18.925 24.4375 19.0168 24.4913C19.1087 24.545 19.2132 24.5733 19.3197 24.5731C19.4261 24.5729 19.5305 24.5446 19.6223 24.4908C19.7141 24.4371 19.7899 24.36 19.842 24.2674L19.867 24.2216C20.4133 23.2437 21.134 22.5218 21.9754 22.0836V32.4627H10.6109C9.36781 32.4627 8.35697 33.4724 8.35697 34.7142V35.7687C8.35697 36.422 8.63709 37.0105 9.08369 37.4227C8.63709 37.834 8.35697 38.4235 8.35697 39.0767V40.1313C8.35697 40.7845 8.63709 41.373 9.08369 41.7853C8.63709 42.1965 8.35697 42.7861 8.35697 43.4393V44.4938C8.35697 45.7356 9.36781 46.7453 10.6109 46.7453H25.8423C27.2456 47.5682 28.8436 48.0014 30.4708 48C35.5529 48 39.687 43.8495 39.687 38.7471C39.687 33.6447 35.5529 29.4943 30.4708 29.4943C28.9319 29.4927 27.4176 29.8798 26.0686 30.6195V22.1065C26.892 22.5466 27.5968 23.2616 28.1331 24.2226L28.158 24.2674C28.2099 24.3603 28.2856 24.4378 28.3774 24.4917C28.4693 24.5456 28.5739 24.5741 28.6804 24.5741C28.7868 24.5739 28.8912 24.5456 28.983 24.4918C29.0748 24.4381 29.1506 24.361 29.2028 24.2684L29.2277 24.2226C30.1747 22.5287 31.6421 21.5957 33.3608 21.5957C35.0794 21.5957 36.5478 22.5287 37.4938 24.2226L37.5188 24.2674C37.6244 24.4566 37.8238 24.5731 38.0411 24.5731C38.2585 24.5731 38.4578 24.4556 38.5635 24.2674L38.5884 24.2216C39.5355 22.5277 41.0029 21.5947 42.7215 21.5947C44.4401 21.5947 45.9085 22.5277 46.8546 24.2216L46.8795 24.2664C47.0121 24.5044 47.2892 24.6229 47.5524 24.5542C47.8156 24.4854 48 24.2475 48 23.9756C48.006 17.5717 45.5088 11.5511 40.976 7.0223ZM5.27959 20.4007C3.7743 20.4007 2.39461 20.9843 1.30801 22.0468C2.26801 12.1765 9.10961 4.27592 18.255 1.91689C16.5424 3.1218 14.9743 4.87439 13.6295 7.12288C11.1941 11.1937 9.7207 16.5012 9.41865 22.22C8.30712 21.049 6.86264 20.4007 5.27959 20.4007ZM14.6413 20.4007C13.1151 20.4007 11.7175 21.0032 10.6239 22.0946C10.9379 16.6416 12.3455 11.5989 14.6563 7.73628C16.7029 4.31376 19.2708 2.13995 22.0352 1.44091C21.3045 2.63784 20.6735 4.5866 20.1301 7.31307C19.3306 11.3221 18.8462 16.548 18.7445 22.1822C17.6379 21.035 16.2074 20.4007 14.6413 20.4007ZM9.55721 35.7677V34.7132C9.55721 34.1307 10.0317 33.6567 10.6149 33.6567H22.7809C22.1461 34.6204 21.6977 35.6945 21.459 36.8233H10.6139C10.0307 36.8243 9.55721 36.3503 9.55721 35.7677ZM9.55721 40.1293V39.0747C9.55721 38.4922 10.0317 38.0182 10.6149 38.0182H21.2865C21.2676 38.2572 21.2586 38.4992 21.2586 38.7431C21.2586 39.5876 21.3723 40.4071 21.5846 41.1848H10.6139C10.0307 41.1858 9.55721 40.7118 9.55721 40.1293ZM10.6139 45.5474C10.0307 45.5474 9.55622 45.0734 9.55622 44.4908V43.4363C9.55622 42.8538 10.0307 42.3798 10.6139 42.3798H21.9993C22.5133 43.5805 23.2748 44.6595 24.2343 45.5464L10.6139 45.5474ZM38.4927 38.7441C38.4927 43.1874 34.895 46.8021 30.4728 46.8021C26.0506 46.8021 22.4529 43.1874 22.4529 38.7441C22.4529 34.3009 26.0506 30.6862 30.4728 30.6862C34.895 30.6862 38.4927 34.3009 38.4927 38.7441ZM24.8753 31.4002C24.4586 31.7207 24.0701 32.0762 23.7139 32.4627H23.1746V21.6733C23.4438 21.6236 23.7199 21.5957 24.003 21.5957C24.3021 21.5957 24.5932 21.6255 24.8753 21.6813V31.4002ZM24.003 20.4007C22.4549 20.4007 21.0413 21.0201 19.9407 22.1414C20.0434 16.6008 20.5199 11.4735 21.3025 7.54708C22.3024 2.53229 23.4677 1.19495 24.002 1.19495C24.5404 1.19495 25.7197 2.53627 26.7265 7.56202C27.5161 11.5073 27.9866 16.6307 28.0713 22.1473C26.9708 21.0221 25.5542 20.4007 24.003 20.4007ZM33.3648 20.4007C31.8007 20.4007 30.3731 21.033 29.2686 22.1762C29.1838 16.5709 28.7053 11.353 27.8999 7.32801C27.3556 4.6115 26.7066 2.64481 25.9589 1.43593C28.7572 2.13099 31.354 4.31376 33.4196 7.75221C35.7523 11.6368 37.1429 16.6805 37.4021 22.1155C36.3066 21.0101 34.901 20.4007 33.3648 20.4007ZM42.7265 20.4007C41.1504 20.4007 39.7129 21.043 38.6044 22.2031C38.3532 16.5181 36.8987 11.2235 34.4454 7.13881C33.1016 4.90227 31.5355 3.15565 29.8248 1.94975C38.9981 4.37052 45.9265 12.3717 46.731 22.0806C45.6394 20.9962 44.2467 20.4007 42.7265 20.4007Z" fill="#EB7124"/>
</svg>
