<svg width="48" height="48" viewBox="0 0 48 48" fill="none" xmlns="http://www.w3.org/2000/svg">
<g clip-path="url(#clip0_7192_38598)">
<path d="M42.8624 3.05706C42.8636 2.90803 42.8273 2.7611 42.7569 2.62976C42.6864 2.49843 42.5841 2.38692 42.4593 2.30548C42.3344 2.22404 42.1912 2.17528 42.0426 2.1637C41.894 2.15211 41.7449 2.17807 41.6089 2.23918C36.0099 4.84508 29.4191 4.06375 24.5844 0.221127C24.4222 0.0786018 24.2136 0 23.9977 0C23.7817 0 23.5732 0.0786018 23.4109 0.221127C18.556 4.01464 11.9937 4.79252 6.38644 2.23918C6.25051 2.17807 6.10139 2.15211 5.95281 2.1637C5.80422 2.17528 5.66094 2.22404 5.53612 2.30548C5.4113 2.38692 5.30896 2.49843 5.23851 2.62976C5.16806 2.7611 5.13176 2.90803 5.13294 3.05706C5.13294 3.24376 5.19517 21.5751 5.13294 27.647C5.09738 30.8919 12.6717 41.4267 23.5443 47.8809C23.6794 47.9589 23.8328 48 23.9888 48C24.1449 48 24.2982 47.9589 24.4333 47.8809C35.3237 41.4267 42.898 30.8919 42.8624 27.647C42.8002 21.5751 42.8624 3.24376 42.8624 3.05706ZM41.0844 27.6559C41.0844 29.6117 34.8614 39.4353 23.9977 46.0762C13.0985 39.4442 6.89317 29.6206 6.91095 27.6648C6.96429 22.5352 6.92873 8.72894 6.91095 4.3728C9.73521 5.40625 12.7699 5.73107 15.7489 5.31879C18.7279 4.9065 21.5603 3.76969 23.9977 2.00803C26.4351 3.76969 29.2675 4.9065 32.2465 5.31879C35.2255 5.73107 38.2602 5.40625 41.0844 4.3728C41.0844 8.72005 41.04 22.5352 41.0844 27.6559Z" fill="#EB7124"/>
<path d="M38.2186 8.46143C38.2197 8.3124 38.1834 8.16546 38.113 8.03413C38.0425 7.90279 37.9402 7.79128 37.8154 7.70984C37.6906 7.6284 37.5473 7.57965 37.3987 7.56806C37.2501 7.55648 37.101 7.58243 36.9651 7.64354C32.9011 9.55413 28.1062 9.00339 24.5812 6.22113C24.4189 6.0786 24.2104 6 23.9944 6C23.7785 6 23.5699 6.0786 23.4077 6.22113C19.8819 8.97116 15.1196 9.53302 11.0505 7.6791C10.9145 7.61799 10.7654 7.59204 10.6168 7.60362C10.4683 7.61521 10.325 7.66396 10.2002 7.7454C10.0753 7.82684 9.973 7.93835 9.90254 8.06969C9.83209 8.20102 9.79579 8.34796 9.79697 8.49699C9.79697 8.63034 9.84142 22.2055 9.79697 26.7039C9.7703 29.1487 15.4244 37.0608 23.541 41.8792C23.6762 41.9573 23.8295 41.9984 23.9855 41.9984C24.1416 41.9984 24.2949 41.9573 24.43 41.8792C32.5645 37.0608 38.2186 29.1487 38.2186 26.6683C38.1741 22.1699 38.2186 8.60367 38.2186 8.46143ZM36.4405 26.6683C36.4405 27.9218 31.9955 35.1495 23.9944 40.0034C16.0556 35.1228 11.5483 27.8951 11.5483 26.6683C11.6105 23.0412 11.5483 13.3332 11.5483 9.77716C13.613 10.5033 15.8223 10.7209 17.989 10.4114C20.1556 10.1018 22.2157 9.27438 23.9944 7.99914C25.7732 9.27438 27.8332 10.1018 29.9999 10.4114C32.1665 10.7209 34.3759 10.5033 36.4405 9.77716V26.6683Z" fill="#EB7124"/>
</g>
<defs>
<clipPath id="clip0_7192_38598">
<rect width="48" height="48" fill="white"/>
</clipPath>
</defs>
</svg>
