<svg width="47" height="48" viewBox="0 0 47 48" fill="none" xmlns="http://www.w3.org/2000/svg">
<path d="M27.9405 30.0808C34.5354 30.0808 39.9003 25.0249 39.9003 18.8103C39.9003 14.0394 36.6374 9.2385 31.5876 6.58072C31.4555 6.51134 31.4017 6.35572 31.4612 6.21885L32.8656 2.98731C33.2441 2.11732 33.0242 1.10858 32.3191 0.477652C31.6934 -0.0801555 30.7995 -0.154217 30.0925 0.295778L29.698 0.547963C29.5791 0.622963 29.4535 0.6239 29.3365 0.548901L28.9306 0.291091C28.319 -0.0970303 27.5592 -0.0970303 26.9495 0.291091L26.5417 0.548901C26.4247 0.622963 26.3001 0.622963 26.1849 0.549838L25.7847 0.293903C25.0796 -0.155155 24.1849 -0.0820304 23.5591 0.476714C22.854 1.10765 22.635 2.11639 23.0126 2.98638L24.418 6.21978C24.4774 6.35478 24.4227 6.50947 24.2906 6.57884C19.2408 9.23757 15.9779 14.0375 15.9779 18.8084C15.9779 25.0249 21.3447 30.0808 27.9405 30.0808ZM24.3982 2.39295C24.2745 2.10889 24.3415 1.79483 24.5681 1.59139C24.6351 1.53233 24.7134 1.50139 24.7918 1.50139C24.8522 1.50139 24.9126 1.5192 24.9683 1.55483L25.3713 1.81264C25.9848 2.19982 26.7446 2.19888 27.3534 1.8117L27.7612 1.55389C27.8773 1.47983 28.0009 1.47983 28.118 1.55389L28.5238 1.8117C29.1336 2.19888 29.8934 2.19982 30.5107 1.80983L30.9081 1.55577C31.0383 1.47233 31.1922 1.48639 31.3092 1.59045C31.5367 1.79389 31.6037 2.10889 31.48 2.39201L30.0756 5.6226C29.984 5.83166 29.9368 6.04822 29.9274 6.26197C29.4337 6.36697 28.8901 6.42228 28.3228 6.42228C27.5271 6.42228 26.7446 6.30885 26.1198 6.10447C26.0565 6.08385 25.9924 6.0726 25.9291 6.06885C25.9074 5.91791 25.8659 5.76885 25.8026 5.62354L24.3982 2.39295ZM24.9975 7.90445C25.2001 7.79758 25.3799 7.65272 25.527 7.4779C25.5648 7.49758 25.6035 7.5154 25.646 7.52946C26.4303 7.78727 27.3563 7.9232 28.3228 7.9232C29.1024 7.9232 29.8547 7.8332 30.5296 7.66258C30.6343 7.75446 30.7504 7.83696 30.8797 7.90539C35.4424 10.3072 38.3901 14.5878 38.3901 18.8112C38.3901 24.199 33.7019 28.5827 27.9396 28.5827C22.1753 28.5827 17.4862 24.199 17.4862 18.8112C17.4871 14.5869 20.4348 10.3063 24.9975 7.90445ZM24.2122 20.7837L30.489 14.5494C30.631 14.412 30.8219 14.3356 31.0202 14.3369C31.2185 14.3382 31.4083 14.417 31.5486 14.5563C31.6888 14.6956 31.7682 14.8841 31.7695 15.0811C31.7708 15.2781 31.6939 15.4676 31.5555 15.6088L25.2788 21.8431C25.1316 21.9893 24.9381 22.0624 24.7455 22.0624C24.553 22.0624 24.3595 21.9893 24.2122 21.8431C24.0708 21.7026 23.9914 21.512 23.9914 21.3134C23.9914 21.1147 24.0708 20.9242 24.2122 20.7837ZM25.3524 17.8259C25.9046 17.8259 26.4577 17.6178 26.8787 17.2016C27.2864 16.7966 27.5111 16.2584 27.5111 15.6856C27.5111 15.1128 27.2864 14.5747 26.8787 14.1697C26.0367 13.3344 24.6681 13.3335 23.8262 14.1697L23.8252 14.1706C22.988 15.0059 22.988 16.3644 23.8281 17.2025C24.249 17.6178 24.8003 17.8259 25.3524 17.8259ZM24.8946 15.2281C24.9547 15.1684 25.0261 15.121 25.1046 15.0886C25.1832 15.0563 25.2674 15.0397 25.3524 15.0397C25.5261 15.0397 25.6884 15.1072 25.8111 15.2291C25.9338 15.3509 26.0018 15.5131 26.0018 15.6847C26.0018 15.8572 25.9338 16.0184 25.813 16.1394C25.5591 16.3906 25.1457 16.3906 24.8946 16.1422C24.6426 15.89 24.6426 15.4803 24.8946 15.2281ZM28.9986 19.3062C28.5899 19.7122 28.3653 20.2512 28.3662 20.824C28.3671 21.3959 28.5918 21.9331 28.9986 22.3353C29.4064 22.7402 29.9481 22.9634 30.5248 22.9634C31.1015 22.9634 31.6433 22.7402 32.0511 22.3353C32.8902 21.5018 32.8902 20.1443 32.0511 19.3062C31.6433 18.9012 31.1015 18.6781 30.5248 18.6781C29.9481 18.6781 29.4064 18.9012 28.9986 19.3062ZM30.9845 21.2759C30.8618 21.3978 30.6985 21.4653 30.5258 21.4653C30.3531 21.4653 30.1898 21.3978 30.0652 21.2749C29.9434 21.1549 29.8764 20.9946 29.8764 20.8231C29.8764 20.6506 29.9434 20.4884 30.0671 20.3665C30.1898 20.2446 30.3531 20.1771 30.5258 20.1771C30.6985 20.1771 30.8618 20.2446 30.9836 20.3646C31.2356 20.6168 31.2356 21.0256 30.9845 21.2759ZM46.8727 36.3245C46.4905 35.1939 45.1473 34.2114 42.5252 34.8461L33.2168 37.0951C32.8468 36.7126 32.3267 36.391 31.6329 36.1886L19.9167 32.7714C17.7155 32.1283 15.6494 32.0655 13.4143 32.5736L10.3873 33.2598V32.2061C10.3873 31.2855 9.63316 30.5374 8.70723 30.5374H1.68293C0.755098 30.5374 0 31.2864 0 32.2061V45.5897C0 46.5103 0.755098 47.2584 1.68293 47.2584H8.70817C9.63505 47.2584 10.3883 46.5094 10.3883 45.5897V44.5969L20.331 47.4628C21.5703 47.8209 22.7841 48 23.9847 48C25.6884 48 27.3648 47.6391 29.0477 46.9153L44.7481 40.1598C46.4234 39.4388 47.356 37.7542 46.8727 36.3245ZM8.87995 45.5897C8.87995 45.6816 8.80161 45.7594 8.70911 45.7594H1.68293C1.58854 45.7594 1.50925 45.6816 1.50925 45.5897V32.207C1.50925 32.1152 1.58854 32.0373 1.68293 32.0373H8.70817C8.79973 32.0373 8.87901 32.117 8.87901 32.207V45.5897H8.87995ZM44.1487 38.7845L28.4483 45.54C25.9159 46.6294 23.3986 46.7878 20.752 46.0238L10.3883 43.0369V34.7983L13.7513 34.0361C15.7513 33.5814 17.5211 33.6348 19.4919 34.2104L31.2082 37.6276C31.75 37.786 32.0832 38.0288 32.2663 38.296C32.2767 38.3157 32.2889 38.3345 32.3012 38.3532C32.4532 38.6082 32.4758 38.8801 32.4145 39.121C32.254 39.7482 31.5216 40.3023 30.2917 40.0379L18.4631 37.4898C18.0563 37.4017 17.6542 37.6585 17.5655 38.0635C17.4767 38.4676 17.7354 38.867 18.1431 38.9551L29.9717 41.5032C30.2974 41.5735 30.606 41.6054 30.8986 41.6054C32.5013 41.6054 33.5849 40.6276 33.8765 39.4913C33.9596 39.1679 33.9766 38.8182 33.919 38.4695L42.883 36.3039C44.2459 35.9739 45.2266 36.1651 45.4427 36.8035C45.6457 37.4026 45.1737 38.3429 44.1487 38.7845Z" fill="#EB7124"/>
</svg>
