<svg width="48" height="48" viewBox="0 0 48 48" fill="none" xmlns="http://www.w3.org/2000/svg">
<g clip-path="url(#clip0_7192_38616)">
<path d="M23.3301 8.32617C23.6995 7.95655 24.2982 7.956 24.668 8.3252C27.398 11.0542 29.6565 14.158 31.3955 17.5615C32.8259 16.5641 34.3696 15.7275 36.0156 15.0625C36.1309 15.0159 36.2546 14.9921 36.3789 14.9932C36.5031 14.9943 36.6259 15.0198 36.7402 15.0684C36.8547 15.1169 36.9588 15.1877 37.0459 15.2764C37.1329 15.3649 37.2015 15.4699 37.248 15.585C38.3079 18.2079 38.8752 20.9428 38.9434 23.7324C41.562 22.8548 44.3443 22.4445 47.1865 22.5439C47.4374 22.5528 47.6745 22.6612 47.8457 22.8447C48.0169 23.0283 48.1083 23.2726 48.0996 23.5234C47.6602 36.105 37.2843 46.042 24.792 46.042C24.5287 46.042 24.265 46.0372 24 46.0283C23.7357 46.037 23.4707 46.042 23.208 46.042C10.7147 46.0419 0.33987 36.1056 -0.0996094 23.5234C-0.103948 23.3993 -0.0834792 23.2755 -0.0400391 23.1592C0.00349041 23.0428 0.0695276 22.9356 0.154297 22.8447C0.23908 22.7538 0.340979 22.6805 0.454102 22.6289C0.567185 22.5774 0.689283 22.5483 0.813477 22.5439C3.69416 22.4436 6.47243 22.8752 9.05566 23.7461C9.12242 20.9517 9.69032 18.2122 10.752 15.585C10.7985 15.4698 10.868 15.365 10.9551 15.2764C11.0421 15.1878 11.1455 15.1169 11.2598 15.0684C11.3742 15.0198 11.4978 14.9942 11.6221 14.9932C11.7462 14.9921 11.8692 15.016 11.9844 15.0625C13.6301 15.7273 15.1728 16.5646 16.6025 17.5615C18.3404 14.1607 20.5986 11.0577 23.3301 8.32617ZM1.84863 24.4238C2.72752 35.4523 11.9343 44.038 22.9971 44.1465C22.5732 38.795 20.2003 33.8673 16.249 30.1826C12.2979 26.4982 7.21618 24.4736 1.84863 24.4238ZM46.1504 24.4238C40.7827 24.4735 35.7022 26.4981 31.751 30.1826C27.7995 33.8674 25.4259 38.7951 25.002 44.1465C36.066 44.0396 45.2712 35.4534 46.1504 24.4238ZM35.835 17.2002C33.5006 18.265 31.4065 19.7174 29.5986 21.5264C27.5548 23.5689 25.966 25.9703 24.877 28.665C23.8373 31.2369 23.3106 33.9414 23.3105 36.7031C23.3104 36.8902 23.312 37.0777 23.3174 37.2646C23.5736 37.9094 23.7999 38.5654 23.9971 39.2305C25.1623 35.274 27.3646 31.6842 30.46 28.7979C32.4301 26.9607 34.6589 25.5029 37.0576 24.457C37.0752 21.9805 36.665 19.5465 35.835 17.2002ZM12.165 17.2002C11.333 19.5517 10.9228 21.9914 10.9424 24.4736C15.3731 26.4115 19.1035 29.6901 21.5996 33.8105C21.8335 31.939 22.2934 30.1033 22.9785 28.3242C21.8967 25.7698 20.3597 23.4835 18.4014 21.5264C16.5942 19.7172 14.4997 18.2652 12.165 17.2002ZM23.999 10.3525C21.6277 12.8555 19.6597 15.666 18.1338 18.7256C18.6916 19.1879 19.2281 19.676 19.7402 20.1885C21.4677 21.915 22.8932 23.8776 23.999 26.0391C25.1039 23.8778 26.5414 21.9029 28.2598 20.1875L28.6621 19.7949C29.0505 19.4249 29.4512 19.0679 29.8643 18.7256C28.3372 15.6635 26.3689 12.8536 23.999 10.3525Z" fill="#EB7124" stroke="#EB7124" stroke-width="0.2"/>
<path d="M1.32324 18.377C1.84606 18.377 2.26953 18.8004 2.26953 19.3232C2.26952 19.846 1.84605 20.2695 1.32324 20.2695C0.800426 20.2695 0.376965 19.8461 0.376953 19.3232C0.376953 18.8004 0.800418 18.377 1.32324 18.377Z" fill="#EB7124" stroke="#EB7124" stroke-width="0.2"/>
<path d="M11.6279 8.97852C12.1507 8.97853 12.5742 9.40199 12.5742 9.9248C12.5742 10.4476 12.1507 10.8711 11.6279 10.8711C11.1051 10.8711 10.6817 10.4476 10.6816 9.9248C10.6816 9.40198 11.1051 8.97852 11.6279 8.97852Z" fill="#EB7124" stroke="#EB7124" stroke-width="0.2"/>
<path d="M24.0029 1.96289C24.5257 1.9629 24.9492 2.38636 24.9492 2.90918C24.9492 3.43199 24.5257 3.85546 24.0029 3.85547C23.4801 3.85547 23.0567 3.43199 23.0566 2.90918C23.0566 2.38636 23.4801 1.96289 24.0029 1.96289Z" fill="#EB7124" stroke="#EB7124" stroke-width="0.2"/>
<path d="M36.3701 8.97852C36.8929 8.97853 37.3164 9.40199 37.3164 9.9248C37.3164 10.4476 36.8929 10.8711 36.3701 10.8711C35.8473 10.8711 35.4238 10.4476 35.4238 9.9248C35.4238 9.40198 35.8473 8.97852 36.3701 8.97852Z" fill="#EB7124" stroke="#EB7124" stroke-width="0.2"/>
<path d="M46.6748 18.377C47.1976 18.377 47.6211 18.8004 47.6211 19.3232C47.6211 19.846 47.1976 20.2695 46.6748 20.2695C46.152 20.2695 45.7285 19.8461 45.7285 19.3232C45.7285 18.8004 46.152 18.377 46.6748 18.377Z" fill="#EB7124" stroke="#EB7124" stroke-width="0.2"/>
</g>
<defs>
<clipPath id="clip0_7192_38616">
<rect width="48" height="48" fill="white"/>
</clipPath>
</defs>
</svg>
