<svg width="80" height="80" viewBox="0 0 80 80" fill="none" xmlns="http://www.w3.org/2000/svg">
<rect width="80" height="80" rx="4" fill="#2920D2"/>
<path d="M25.4527 32.4084C24.9605 31.2492 24.8231 29.9701 25.0579 28.7328C25.2927 27.4955 25.8891 26.3557 26.7718 25.4574C27.6544 24.5591 28.7836 23.9427 30.0166 23.6862C31.2496 23.4297 32.5309 23.5446 33.6986 24.0164C34.8662 24.4881 35.8678 25.2956 36.5765 26.3365C37.2853 27.3775 37.6694 28.6053 37.6803 29.8646C37.6912 31.124 37.3284 32.3582 36.6379 33.4114C35.9473 34.4645 34.9599 35.2892 33.8006 35.7811C32.2461 36.4387 30.4943 36.4529 28.9294 35.8206C27.3644 35.1883 26.1142 33.9612 25.4527 32.4084ZM29.5425 25.7485C28.7173 26.0987 28.0145 26.6858 27.523 27.4355C27.0315 28.1852 26.7734 29.0638 26.7812 29.9601C26.7891 30.8565 27.0625 31.7305 27.5671 32.4715C28.0716 33.2124 28.7845 33.7871 29.6157 34.1229C30.4469 34.4587 31.3589 34.5405 32.2366 34.3579C33.1142 34.1753 33.918 33.7366 34.5463 33.0972C35.1746 32.4578 35.5991 31.6464 35.7663 30.7657C35.9335 29.885 35.8357 28.9745 35.4854 28.1494C35.0146 27.0438 34.1245 26.1701 33.0104 25.72C31.8962 25.2699 30.6491 25.2801 29.5425 25.7485Z" fill="white"/>
<path d="M28.3384 41.8472C27.378 41.5801 26.4402 41.2371 25.5341 40.8216C25.2504 40.7075 25.0131 40.5017 24.86 40.237C24.7069 39.9723 24.6468 39.664 24.6894 39.3612L24.9456 37.5322C24.516 37.1732 24.1177 36.7783 23.7552 36.3517L21.9611 36.6338C21.6593 36.682 21.35 36.6276 21.0827 36.4792C20.8154 36.3309 20.6056 36.0972 20.4868 35.8156L19.5204 33.5423C19.4004 33.2606 19.3784 32.9467 19.4578 32.651C19.5372 32.3553 19.7134 32.0947 19.9583 31.9108L21.43 30.7993C21.3807 30.2417 21.3789 29.6809 21.4246 29.123L19.9565 28.0549C19.7089 27.8753 19.5285 27.618 19.444 27.3239C19.3596 27.0298 19.3761 26.716 19.4908 26.4324L20.4169 24.1425C20.5302 23.8581 20.7359 23.6201 21.0009 23.4668C21.2659 23.3135 21.5748 23.2538 21.8778 23.2974L23.7068 23.5532C24.0656 23.1238 24.4602 22.7257 24.8864 22.3632L24.6043 20.5696C24.5561 20.2677 24.6105 19.9584 24.7587 19.691C24.907 19.4236 25.1405 19.2135 25.4221 19.0944L27.6962 18.1293C27.9779 18.0096 28.2915 17.9875 28.5871 18.0667C28.8827 18.146 29.1433 18.3219 29.3273 18.5664L30.4388 20.0385C30.9963 19.9893 31.5569 19.9874 32.1147 20.0327L33.1832 18.5646C33.3631 18.3172 33.6206 18.1371 33.9147 18.0529C34.2088 17.9687 34.5227 17.9854 34.8062 18.1002L37.0965 19.025C37.38 19.1393 37.6171 19.3451 37.77 19.6098C37.923 19.8745 37.9829 20.1827 37.9403 20.4854L37.685 22.3148C38.1146 22.6736 38.5128 23.0684 38.8753 23.4949L40.6685 23.2128C40.9704 23.1653 41.2795 23.22 41.5468 23.3682C41.8141 23.5165 42.0241 23.7497 42.1437 24.031L43.1093 26.3047C43.2286 26.586 43.2506 26.8991 43.1718 27.1944C43.0929 27.4896 42.9177 27.7501 42.674 27.9344L41.1997 29.0468C41.2492 29.6047 41.2513 30.1658 41.2059 30.724L42.674 31.7921C42.9214 31.9717 43.1016 32.229 43.1858 32.5229C43.2701 32.8167 43.2535 33.1304 43.1388 33.4138L42.2127 35.7045C42.097 35.9873 41.8907 36.2236 41.6261 36.3764C41.3615 36.5292 41.0537 36.5898 40.7509 36.5487L38.9237 36.2934C38.5646 36.7228 38.1697 37.1209 37.7432 37.4833L38.0262 39.2765C38.0739 39.5786 38.0192 39.8879 37.8708 40.1552C37.7225 40.4226 37.4891 40.6327 37.2076 40.7522L34.9334 41.7173C34.6519 41.8377 34.3381 41.86 34.0423 41.7807C33.7466 41.7015 33.486 41.5252 33.3023 41.2802L32.1908 39.8081C31.6333 39.8573 31.0727 39.8593 30.5149 39.8139L29.4464 41.282C29.3194 41.4569 29.1528 41.5993 28.9603 41.6976C28.7677 41.7958 28.5546 41.8471 28.3384 41.8472ZM26.556 39.256L28.1754 39.9107L29.3443 38.3047C29.4423 38.1707 29.5747 38.0657 29.7275 38.0008C29.8803 37.9358 30.0477 37.9133 30.2122 37.9357C30.963 38.0401 31.7247 38.0377 32.4747 37.9285C32.6372 37.9059 32.8028 37.9268 32.9545 37.9892C33.1062 38.0516 33.2387 38.1532 33.3382 38.2837L34.5492 39.8874L36.1578 39.2049L35.8479 37.2437C35.8223 37.0796 35.8416 36.9115 35.9039 36.7575C35.9662 36.6035 36.0691 36.4692 36.2017 36.3691C36.8059 35.9118 37.3424 35.3712 37.7952 34.7636C37.8926 34.6308 38.0244 34.5272 38.1764 34.4638C38.3284 34.4004 38.4948 34.3797 38.6577 34.4039L40.6479 34.6821L41.3018 33.0627L39.6958 31.8942C39.5617 31.7964 39.4566 31.6641 39.3918 31.5114C39.327 31.3586 39.3048 31.1911 39.3277 31.0267C39.4319 30.2759 39.4295 29.514 39.3205 28.7638C39.2968 28.6011 39.3172 28.435 39.3796 28.2829C39.442 28.1308 39.5441 27.9982 39.6752 27.899L41.2794 26.6889L40.5968 25.0807L38.6353 25.3897C38.4713 25.4157 38.3033 25.3965 38.1493 25.3344C37.9953 25.2722 37.8611 25.1694 37.7611 25.0369C37.3039 24.4327 36.7635 23.8962 36.156 23.4434C36.0242 23.3453 35.9212 23.2134 35.8578 23.0617C35.7945 22.9101 35.7731 22.7441 35.796 22.5813L36.0736 20.5902L34.4542 19.9359L33.2853 21.5419C33.1876 21.6762 33.0552 21.7814 32.9024 21.8464C32.7495 21.9114 32.5819 21.9337 32.4174 21.9109C31.6667 21.8063 30.9049 21.8087 30.1549 21.9181C29.9924 21.9412 29.8266 21.9204 29.6748 21.858C29.523 21.7956 29.3907 21.6937 29.2914 21.563L28.0805 19.9592L26.4727 20.6412L26.7817 22.6028C26.8073 22.7667 26.788 22.9344 26.7258 23.0882C26.6637 23.2419 26.5611 23.376 26.4288 23.4761C25.8249 23.9339 25.2885 24.4746 24.8354 25.0821C24.7374 25.2143 24.6055 25.3176 24.4537 25.381C24.3019 25.4445 24.1357 25.4658 23.9728 25.4426L21.9817 25.1645L21.3278 26.7843L22.9329 27.9523C23.0673 28.0499 23.1726 28.1821 23.2376 28.3349C23.3026 28.4877 23.3249 28.6553 23.3019 28.8198C23.1982 29.5709 23.2006 30.3328 23.3091 31.0832C23.3328 31.2457 23.3124 31.4116 23.25 31.5635C23.1876 31.7154 23.0855 31.8477 22.9544 31.9467L21.3502 33.1581L22.0337 34.7654L23.9943 34.4568C24.1581 34.431 24.3259 34.4501 24.4797 34.5121C24.6334 34.5741 24.7675 34.6766 24.8676 34.8088C25.3255 35.4133 25.8665 35.95 26.4745 36.4032C26.6064 36.5014 26.7094 36.6333 26.7728 36.7851C26.8361 36.9369 26.8575 37.1029 26.8346 37.2657L26.556 39.256Z" fill="white"/>
<path d="M53.0108 34.2579C52.153 34.2579 51.3145 34.0035 50.6013 33.527C49.8881 33.0504 49.3322 32.3731 49.004 31.5806C48.6757 30.7881 48.5898 29.9161 48.7572 29.0748C48.9245 28.2335 49.3376 27.4608 49.9441 26.8542C50.5506 26.2477 51.3234 25.8347 52.1647 25.6673C53.006 25.5 53.878 25.5859 54.6705 25.9141C55.4629 26.2424 56.1403 26.7983 56.6168 27.5115C57.0934 28.2247 57.3477 29.0632 57.3477 29.9209C57.3464 31.0708 56.8891 32.1732 56.0761 32.9862C55.263 33.7993 54.1606 34.2566 53.0108 34.2579ZM53.0108 27.4184C52.5158 27.4184 52.032 27.5652 51.6204 27.8402C51.2089 28.1151 50.8881 28.506 50.6987 28.9633C50.5093 29.4206 50.4597 29.9237 50.5563 30.4092C50.6529 30.8946 50.8912 31.3406 51.2412 31.6905C51.5912 32.0405 52.0371 32.2789 52.5225 32.3754C53.008 32.472 53.5112 32.4225 53.9685 32.233C54.4257 32.0436 54.8166 31.7229 55.0916 31.3113C55.3666 30.8998 55.5133 30.4159 55.5133 29.921C55.5126 29.2575 55.2488 28.6213 54.7796 28.1522C54.3104 27.683 53.6743 27.4191 53.0108 27.4184Z" fill="white"/>
<path d="M53.8706 39.0402H52.0873C51.8088 39.0409 51.5381 38.9479 51.3189 38.776C51.0998 38.6042 50.9448 38.3636 50.879 38.093L50.5897 36.9398C50.2841 36.8345 49.9858 36.7091 49.6967 36.5645L48.6935 37.166C48.4553 37.3098 48.1757 37.3693 47.8995 37.3351C47.6234 37.3009 47.3668 37.175 47.1708 36.9774L45.9115 35.7177C45.7152 35.5217 45.59 35.2657 45.5557 34.9904C45.5215 34.7151 45.5802 34.4362 45.7226 34.1981L46.3379 33.1725C46.1959 32.8824 46.0735 32.583 45.9716 32.2765L44.8358 31.9925C44.5663 31.9255 44.3271 31.7701 44.1563 31.5512C43.9855 31.3322 43.893 31.0624 43.8936 30.7847V29.0009C43.8931 28.7229 43.9858 28.4528 44.157 28.2337C44.3281 28.0147 44.5678 27.8593 44.8376 27.7926L45.994 27.5033C46.0996 27.1976 46.225 26.8992 46.3692 26.6098L45.7673 25.6071C45.6244 25.3689 45.5652 25.0899 45.5992 24.8142C45.6331 24.5386 45.7582 24.2821 45.9545 24.0857L47.2157 22.8246C47.412 22.6279 47.6685 22.5026 47.9443 22.4687C48.2201 22.4347 48.4993 22.4941 48.7375 22.6374L49.7603 23.251C50.051 23.1096 50.3505 22.9873 50.6569 22.8846L50.9408 21.7498C51.0079 21.4803 51.1634 21.241 51.3824 21.07C51.6014 20.8991 51.8713 20.8064 52.1491 20.8066H53.9324C54.2109 20.806 54.4815 20.899 54.7007 21.0708C54.9199 21.2426 55.0748 21.4832 55.1407 21.7538L55.43 22.907C55.7355 23.0124 56.0339 23.1378 56.323 23.2823L57.3261 22.6809C57.5645 22.5368 57.8445 22.4771 58.1209 22.5116C58.3973 22.546 58.654 22.6725 58.8497 22.8707L60.1082 24.1292C60.3045 24.3252 60.4297 24.5812 60.464 24.8565C60.4982 25.1318 60.4395 25.4106 60.2971 25.6487L59.6818 26.6739C59.8237 26.9642 59.9461 27.2638 60.0481 27.5704L61.1839 27.8544C61.4533 27.9214 61.6926 28.0768 61.8634 28.2957C62.0342 28.5146 62.1267 28.7845 62.1261 29.0622V30.846C62.1266 31.124 62.0339 31.3941 61.8627 31.6131C61.6916 31.8322 61.4519 31.9875 61.1821 32.0543L60.0266 32.3431C59.9211 32.6491 59.7954 32.9477 59.6504 33.237L60.2523 34.2398C60.3951 34.478 60.4542 34.757 60.4203 35.0326C60.3864 35.3082 60.2614 35.5646 60.0651 35.7611L58.804 37.0222C58.6082 37.2181 58.3527 37.3432 58.0779 37.3776C57.8031 37.4119 57.5247 37.3537 57.2867 37.2121L56.2585 36.5959C55.9682 36.7374 55.669 36.8597 55.3628 36.9622L55.0789 38.0971C55.0117 38.3666 54.8562 38.6059 54.6372 38.7768C54.4183 38.9478 54.1484 39.0405 53.8706 39.0402ZM52.5476 37.2058H53.4111L53.7111 36.0079C53.7513 35.8469 53.8344 35.6998 53.9516 35.5823C54.0688 35.4649 54.2157 35.3815 54.3766 35.341C54.884 35.2134 55.3707 35.0145 55.8223 34.7503C55.9643 34.6672 56.126 34.6238 56.2906 34.6247C56.4551 34.6257 56.6164 34.6709 56.7574 34.7557L57.8322 35.4006L58.4431 34.7893L57.8071 33.7301C57.7214 33.5877 57.6761 33.4246 57.6761 33.2583C57.6761 33.0921 57.7214 32.929 57.8071 32.7865C58.0762 32.3376 58.2803 31.8528 58.4135 31.3467C58.4551 31.1877 58.5386 31.0429 58.6554 30.9273C58.7722 30.8117 58.9179 30.7296 59.0772 30.6897L60.2918 30.3861V29.5222L59.0934 29.2225C58.9324 29.1821 58.7855 29.0987 58.6681 28.9814C58.5508 28.864 58.4674 28.7171 58.427 28.5561C58.2993 28.0487 58.1006 27.5619 57.8367 27.11C57.7537 26.9681 57.7105 26.8064 57.7114 26.642C57.7124 26.4776 57.7575 26.3164 57.8421 26.1754L58.4861 25.1015L57.8752 24.4907L56.8165 25.1257C56.6741 25.2113 56.5111 25.2565 56.345 25.2566C56.1789 25.2567 56.0158 25.2116 55.8734 25.1261C55.4245 24.8574 54.9399 24.6536 54.434 24.5207C54.2751 24.4788 54.1304 24.3951 54.0149 24.2783C53.8994 24.1615 53.8174 24.0158 53.7774 23.8565L53.472 22.641H52.6085L52.3085 23.839C52.2684 24 52.1853 24.1471 52.068 24.2646C51.9508 24.382 51.8039 24.4654 51.643 24.5059C51.1356 24.6335 50.6489 24.8324 50.1973 25.0965C50.0554 25.1797 49.8936 25.2231 49.7291 25.2222C49.5645 25.2212 49.4033 25.176 49.2622 25.0912L48.1874 24.4467L47.5766 25.0576L48.2125 26.1167C48.2982 26.2592 48.3435 26.4223 48.3435 26.5885C48.3435 26.7548 48.2982 26.9179 48.2125 27.0603C47.9439 27.5092 47.7401 27.9938 47.607 28.4997C47.5655 28.6587 47.4819 28.8035 47.3652 28.9191C47.2484 29.0347 47.1027 29.1168 46.9433 29.1567L45.7279 29.4608V30.3247L46.9263 30.6243C47.0872 30.6648 47.2342 30.7481 47.3515 30.8655C47.4689 30.9828 47.5522 31.1298 47.5927 31.2907C47.7206 31.7982 47.9193 32.2851 48.183 32.7372C48.2659 32.8791 48.3092 33.0407 48.3082 33.2051C48.3073 33.3694 48.2622 33.5305 48.1776 33.6714L47.5336 34.7454L48.1444 35.3562L49.2031 34.7212C49.3455 34.6356 49.5085 34.5904 49.6747 34.5903C49.8408 34.5902 50.0038 34.6353 50.1463 34.7207C50.5951 34.9895 51.0797 35.1933 51.5857 35.3262C51.7445 35.368 51.8893 35.4517 52.0047 35.5685C52.1202 35.6854 52.2022 35.831 52.2422 35.9904L52.5476 37.2058Z" fill="white"/>
<path d="M62.3732 45.5007C61.7773 45.0465 61.0695 44.7622 60.325 44.6783C59.5804 44.5943 58.827 44.7137 58.145 45.0238C58.1337 45.0295 50.1881 49.0388 50.1769 49.0446C49.9997 48.535 49.6843 48.0846 49.266 47.7439C48.8477 47.4031 48.3429 47.1853 47.808 47.1148C44.9664 46.9123 39.0906 47.1031 38.8725 47.1121C37.854 47.1121 37.9773 47.0741 30.8301 44.8603C28.6678 44.1888 27.7728 44.6002 20.7048 46.1223C20.6862 45.9649 20.6338 45.8134 20.5513 45.678C20.4687 45.5427 20.358 45.4268 20.2266 45.3382C20.0951 45.2496 19.9462 45.1904 19.7898 45.1646C19.6334 45.1388 19.4733 45.1471 19.3204 45.1889L15.8167 46.1061C15.5347 46.1817 15.2942 46.3662 15.1481 46.619C15.0019 46.8717 14.962 47.1722 15.0371 47.4543L18.7792 61.6707C18.8148 61.8118 18.8781 61.9443 18.9654 62.0605C19.0528 62.1768 19.1624 62.2745 19.2879 62.3479C19.4134 62.4214 19.5523 62.4691 19.6965 62.4882C19.8406 62.5074 19.9871 62.4976 20.1275 62.4595L23.6311 61.5332C23.771 61.4961 23.9021 61.4317 24.0171 61.3438C24.132 61.2559 24.2284 61.1461 24.3009 61.0209C24.3733 60.8956 24.4203 60.7573 24.4391 60.6138C24.458 60.4704 24.4484 60.3246 24.4108 60.1849L24.2181 59.442C24.696 59.3964 40.4873 62.8092 40.9568 62.909C41.9633 63.126 43.0146 62.9557 43.901 62.432L64.1158 50.1233C67.332 48.256 63.2919 46.2152 62.3732 45.5007ZM20.249 60.053L17.1082 48.1383C17.0928 48.0799 17.0891 48.019 17.0972 47.9592C17.1054 47.8993 17.1254 47.8417 17.1559 47.7896C17.1864 47.7375 17.227 47.6919 17.2751 47.6555C17.3233 47.6191 17.3782 47.5925 17.4367 47.5774L18.6396 47.2661C18.7571 47.2357 18.8818 47.2531 18.9864 47.3145C19.0911 47.3759 19.1672 47.4762 19.198 47.5935C22.3977 59.7688 22.3306 59.503 22.3306 59.503C22.346 59.5612 22.3498 59.6219 22.3418 59.6816C22.3337 59.7413 22.314 59.7988 22.2837 59.8509C22.2534 59.903 22.2132 59.9486 22.1653 59.9851C22.1173 60.0216 22.0627 60.0483 22.0045 60.0637L20.8096 60.3795C20.7514 60.3949 20.6907 60.3987 20.631 60.3906C20.5713 60.3825 20.5137 60.3627 20.4617 60.3324C20.4096 60.3021 20.364 60.2618 20.3275 60.2139C20.291 60.1659 20.2644 60.1113 20.249 60.053ZM62.6851 48.8118C59.4199 50.8571 42.8921 60.8361 42.8921 60.8361C42.4316 61.1013 41.8891 61.1863 41.3696 61.0746C23.9039 57.373 24.7689 57.454 23.7321 57.6076L21.1731 47.9037L21.1717 47.8981C28.2979 46.3628 28.6923 46.1182 30.2874 46.6123C37.4266 48.8238 37.502 48.9456 38.8976 48.9456H38.9026C38.9617 48.9447 44.8916 48.6727 47.6181 48.9402C48.9373 49.0695 48.8561 51.5884 47.4712 52.0071C44.8629 52.7953 37.5474 52.4415 34.8218 52.2659C34.5801 52.2522 34.3427 52.3346 34.1615 52.4952C33.9803 52.6558 33.8699 52.8815 33.8545 53.1231C33.839 53.3647 33.9196 53.6026 34.0789 53.785C34.2381 53.9674 34.463 54.0794 34.7044 54.0967C46.5086 54.8454 49.6182 53.8648 50.3535 51.0572C50.4381 51.0357 58.9109 46.7417 58.9888 46.7023C59.343 46.5466 59.7326 46.4891 60.1167 46.5359C60.5008 46.5827 60.8652 46.732 61.1717 46.9683C61.6685 47.3504 62.198 47.6846 62.7034 48.0414C62.7667 48.0845 62.8183 48.1428 62.8533 48.2109C62.8884 48.2791 62.9058 48.3549 62.9039 48.4315C62.9021 48.5082 62.8811 48.5831 62.8429 48.6495C62.8047 48.7159 62.7504 48.7717 62.6851 48.8118Z" fill="white"/>
</svg>
