<svg width="80" height="80" viewBox="0 0 80 80" fill="none" xmlns="http://www.w3.org/2000/svg">
<rect width="80" height="80" rx="4" fill="#2920D2"/>
<path d="M49.4313 30.4402L47.7212 30.0127C47.6237 29.7352 47.5112 29.4652 47.3837 29.1952L48.2912 27.6802C48.4712 27.3876 48.4187 27.0051 48.1787 26.7651L45.6736 24.2601C45.4336 24.0125 45.0511 23.9675 44.7586 24.1475L43.2436 25.0551C42.9811 24.9276 42.7036 24.8151 42.4261 24.7176L41.9985 23.0075C41.916 22.6775 41.616 22.4375 41.271 22.4375H37.7234C37.3784 22.4375 37.0784 22.67 36.9959 23.0075L36.5684 24.7176C36.2909 24.8151 36.0209 24.9276 35.7509 25.0551L34.2358 24.1475C33.9433 23.9675 33.5608 24.02 33.3208 24.2601L30.8157 26.7651C30.5757 27.0051 30.5232 27.3876 30.7032 27.6802L31.6107 29.1952C31.4832 29.4577 31.3707 29.7352 31.2732 30.0127L29.5632 30.4402C29.2332 30.5227 28.9932 30.8227 28.9932 31.1678V34.7154C28.9932 35.0604 29.2257 35.3604 29.5632 35.4429L31.2732 35.8704C31.3707 36.1479 31.4832 36.4179 31.6107 36.6879L30.7032 38.203C30.5232 38.4955 30.5757 38.878 30.8157 39.118L33.3208 41.6231C33.5608 41.8706 33.9433 41.9081 34.2358 41.7356L35.7509 40.828C36.0134 40.9555 36.2909 41.068 36.5684 41.1655L36.9959 42.8756C37.0784 43.2056 37.3784 43.4456 37.7234 43.4456H41.271C41.616 43.4456 41.916 43.2131 41.9985 42.8756L42.4261 41.1655C42.7036 41.068 42.9736 40.9555 43.2436 40.828L44.7586 41.7356C45.0511 41.9156 45.4336 41.8631 45.6736 41.6231L48.1787 39.118C48.4187 38.878 48.4712 38.4955 48.2912 38.203L47.3837 36.6879C47.5112 36.4254 47.6237 36.1479 47.7212 35.8704L49.4313 35.4429C49.7613 35.3604 50.0013 35.0604 50.0013 34.7154V31.1678C50.0013 30.8227 49.7688 30.5227 49.4313 30.4402ZM48.5012 34.1303L46.9562 34.5203C46.7012 34.5803 46.4987 34.7754 46.4237 35.0304C46.2812 35.4954 46.0937 35.9454 45.8687 36.3654C45.7411 36.5979 45.7486 36.8829 45.8836 37.1079L46.7012 38.473L45.0211 40.153L43.6561 39.3355C43.4311 39.2005 43.1461 39.193 42.9136 39.3205C42.4936 39.5455 42.0435 39.733 41.5785 39.8755C41.3235 39.9505 41.1285 40.153 41.0685 40.408L40.6785 41.9531H38.3009L37.9109 40.408C37.8509 40.153 37.6559 39.9505 37.4009 39.8755C36.9359 39.733 36.4859 39.5455 36.0659 39.3205C35.8334 39.193 35.5484 39.2005 35.3233 39.3355L33.9583 40.153L32.2783 38.473L33.0958 37.1079C33.2308 36.8829 33.2383 36.5979 33.1108 36.3654C32.8858 35.9454 32.6983 35.4954 32.5558 35.0304C32.4808 34.7754 32.2783 34.5803 32.0233 34.5203L30.4782 34.1303V31.7528L32.0233 31.3628C32.2783 31.3028 32.4808 31.1077 32.5558 30.8527C32.6983 30.3877 32.8858 29.9377 33.1108 29.5177C33.2383 29.2852 33.2308 29.0002 33.0958 28.7752L32.2783 27.4101L33.9583 25.7301L35.3233 26.5476C35.5484 26.6826 35.8334 26.6901 36.0659 26.5626C36.4859 26.3376 36.9359 26.1501 37.4009 26.0076C37.6559 25.9326 37.8509 25.7301 37.9109 25.4751L38.3009 23.93H40.6785L41.0685 25.4751C41.1285 25.7301 41.3235 25.9326 41.5785 26.0076C42.0435 26.1501 42.4936 26.3376 42.9136 26.5626C43.1461 26.6901 43.4311 26.6826 43.6561 26.5476L45.0211 25.7301L46.7012 27.4101L45.8836 28.7752C45.7486 29.0002 45.7411 29.2852 45.8687 29.5177C46.0937 29.9377 46.2812 30.3877 46.4237 30.8527C46.4987 31.1077 46.7012 31.3028 46.9562 31.3628L48.5012 31.7528V34.1303Z" fill="white"/>
<path d="M49.5056 21.8238C46.288 18.9437 42.1253 17.6162 37.7902 18.0962C30.86 18.8687 25.3099 24.4564 24.5823 31.3941C24.0348 36.6592 26.2099 41.7144 30.4025 44.9095C31.685 45.8845 32.4876 47.257 32.6901 48.7571C31.475 48.7871 30.4925 49.7771 30.4925 50.9997C30.4925 52.2222 31.505 53.2497 32.7426 53.2497V54.7498H31.9925C31.58 54.7498 31.2425 55.0873 31.2425 55.4998C31.2425 55.9123 31.58 56.2498 31.9925 56.2498H32.7426V56.9998C32.7426 58.2374 33.7551 59.2499 34.9926 59.2499H35.7427C35.7427 61.32 37.4227 63 39.4928 63C41.5628 63 43.2429 61.32 43.2429 59.2499H43.9929C45.2304 59.2499 46.243 58.2374 46.243 56.9998V56.2498H46.993C47.4055 56.2498 47.743 55.9123 47.743 55.4998C47.743 55.0873 47.4055 54.7498 46.993 54.7498H46.243V53.2497C47.4805 53.2497 48.493 52.2372 48.493 50.9997C48.493 49.7621 47.5105 48.7871 46.2955 48.7571C46.498 47.2645 47.3005 45.892 48.5755 44.9245C52.3331 42.0594 54.4932 37.7168 54.4932 33.0066C54.4932 28.7465 52.6706 24.6739 49.4981 21.8238H49.5056ZM39.5003 61.5C38.2627 61.5 37.2502 60.4874 37.2502 59.2499H41.7503C41.7503 60.4874 40.7378 61.5 39.5003 61.5ZM44.7504 56.9998C44.7504 57.4123 44.4129 57.7499 44.0004 57.7499H35.0001C34.5876 57.7499 34.2501 57.4123 34.2501 56.9998V56.2498H44.7504V56.9998ZM44.7504 54.7498H34.2501V53.2497H44.7504V54.7498ZM47.0005 50.9997C47.0005 51.4122 46.663 51.7497 46.2505 51.7497H32.7501C32.3376 51.7497 32 51.4122 32 50.9997C32 50.5871 32.3376 50.2496 32.7501 50.2496H46.2505C46.663 50.2496 47.0005 50.5871 47.0005 50.9997ZM47.6755 43.7244C46.0255 44.9845 44.9979 46.7845 44.7879 48.7496H34.2051C33.9951 46.7845 32.9676 44.9845 31.31 43.7169C27.5374 40.8369 25.5799 36.2842 26.0674 31.5441C26.7199 25.3039 31.715 20.2713 37.9477 19.5813C41.8553 19.1462 45.5979 20.3388 48.493 22.9338C51.3506 25.4914 52.9932 29.159 52.9932 32.9916C52.9932 37.2293 51.0506 41.1444 47.668 43.7169L47.6755 43.7244Z" fill="white"/>
<path d="M61.2511 32.25H57.501C57.0885 32.25 56.751 32.5875 56.751 33C56.751 33.4125 57.0885 33.75 57.501 33.75H61.2511C61.6636 33.75 62.0011 33.4125 62.0011 33C62.0011 32.5875 61.6636 32.25 61.2511 32.25Z" fill="white"/>
<path d="M22.2502 33C22.2502 32.5875 21.9126 32.25 21.5001 32.25H17.75C17.3375 32.25 17 32.5875 17 33C17 33.4125 17.3375 33.75 17.75 33.75H21.5001C21.9126 33.75 22.2502 33.4125 22.2502 33Z" fill="white"/>
<path d="M54.2459 23.4288C54.3959 23.4288 54.5459 23.3838 54.6734 23.2938L57.7485 21.1412C58.086 20.9012 58.1686 20.4362 57.936 20.0987C57.696 19.7612 57.231 19.6787 56.8935 19.9112L53.8184 22.0638C53.4809 22.3038 53.3984 22.7688 53.6309 23.1063C53.7734 23.3163 54.0059 23.4288 54.2459 23.4288Z" fill="white"/>
<path d="M24.3271 42.712L21.252 44.8645C20.9145 45.1045 20.832 45.5696 21.0645 45.9071C21.207 46.1171 21.4395 46.2296 21.6795 46.2296C21.8295 46.2296 21.9795 46.1846 22.107 46.0946L25.1821 43.942C25.5196 43.702 25.6021 43.237 25.3696 42.8995C25.1296 42.562 24.6646 42.4795 24.3271 42.712Z" fill="white"/>
<path d="M54.6729 42.7095C54.3354 42.4695 53.8629 42.552 53.6304 42.897C53.3904 43.2345 53.4729 43.707 53.8179 43.9395L56.893 46.0921C57.0205 46.1821 57.1705 46.2271 57.3205 46.2271C57.5605 46.2271 57.793 46.1146 57.9355 45.9046C58.1755 45.5671 58.093 45.0946 57.748 44.862L54.6729 42.7095Z" fill="white"/>
<path d="M24.3276 23.2854C24.4551 23.3754 24.6051 23.4204 24.7551 23.4204C24.9951 23.4204 25.2276 23.3079 25.3701 23.0979C25.6101 22.7604 25.5276 22.2879 25.1826 22.0554L22.1075 19.9028C21.77 19.6628 21.2975 19.7453 21.065 20.0904C20.8249 20.4279 20.9075 20.9004 21.2525 21.1329L24.3276 23.2854Z" fill="white"/>
<path d="M42.3439 30.1647L38.3763 34.1323L36.6587 32.4148C36.3662 32.1223 35.8937 32.1223 35.6012 32.4148C35.3087 32.7073 35.3087 33.1798 35.6012 33.4723L37.8513 35.7224C38.0013 35.8724 38.1888 35.9399 38.3838 35.9399C38.5788 35.9399 38.7663 35.8649 38.9163 35.7224L43.4164 31.2222C43.709 30.9297 43.709 30.4572 43.4164 30.1647C43.1239 29.8722 42.6514 29.8722 42.3589 30.1647H42.3439Z" fill="white"/>
</svg>
