<svg width="41" height="41" viewBox="0 0 41 41" fill="none" xmlns="http://www.w3.org/2000/svg">
<path d="M20.5825 3.20315C20.1396 3.19994 19.7785 3.55629 19.7753 3.99832C19.7721 4.44035 20.1276 4.80151 20.5705 4.80471C21.0125 4.80791 21.3736 4.45237 21.3768 4.01033C21.38 3.5683 21.0245 3.20715 20.5825 3.20315ZM20.546 8.00775C17.4541 7.98581 14.922 10.4802 14.8986 13.5711C14.8753 16.6619 17.371 19.1952 20.4619 19.2185L20.5049 19.2187C23.5761 19.2187 26.0862 16.7318 26.1094 13.6552C26.1327 10.5646 23.637 8.03106 20.546 8.00775ZM20.5047 17.6172L20.474 17.617C18.2661 17.6004 16.4834 15.7908 16.5001 13.5831C16.5167 11.3854 18.3094 9.60908 20.5033 9.60908L20.534 9.60924C22.7418 9.62589 24.5245 11.4355 24.5079 13.6432C24.4912 15.8409 22.6985 17.6172 20.5047 17.6172ZM23.9979 3.81046C23.5813 3.66263 23.1233 3.88085 22.9755 4.29773C22.8278 4.71462 23.046 5.17227 23.4628 5.32009C26.99 6.57019 29.3407 9.92955 29.3125 13.6794C29.3092 14.1216 29.665 14.4828 30.1073 14.4862H30.1134C30.5527 14.4862 30.9107 14.1316 30.9141 13.6914C30.9474 9.25929 28.1679 5.28846 23.9979 3.81046Z" fill="#EB7124"/>
<path d="M25.4176 30.1448C30.7438 23.2889 34.0724 19.7138 34.1173 13.7156C34.1737 6.16882 28.0492 0 20.5029 0C13.0448 0 6.94778 6.04013 6.89108 13.5114C6.84528 19.6722 10.2357 23.2424 15.5987 30.1437C10.2635 30.9409 6.89108 32.9442 6.89108 35.3945C6.89108 37.0359 8.40824 38.5088 11.1632 39.5418C13.6707 40.4821 16.9881 40.9999 20.5042 40.9999C24.0204 40.9999 27.3377 40.4821 29.8452 39.5418C32.6002 38.5087 34.1173 37.0358 34.1173 35.3945C34.1173 32.9455 30.748 30.9427 25.4176 30.1448ZM8.49257 13.5235C8.54253 6.93076 13.9218 1.60156 20.5031 1.60156C27.1623 1.60156 32.5655 7.04591 32.5158 13.7037C32.4732 19.4 28.9432 22.9104 23.3076 30.257C22.3024 31.5667 21.3792 32.805 20.5054 34.0164C19.6342 32.8043 18.7294 31.5882 17.7092 30.2565C11.8406 22.6023 8.44916 19.3572 8.49257 13.5235ZM20.5042 39.3984C13.6294 39.3984 8.49257 37.2846 8.49257 35.3945C8.49257 33.9928 11.5634 32.2222 16.7267 31.609C17.868 33.1065 18.8687 34.4671 19.8501 35.8566C19.924 35.9612 20.0219 36.0465 20.1356 36.1055C20.2493 36.1644 20.3754 36.1952 20.5035 36.1953H20.5042C20.6322 36.1953 20.7582 36.1646 20.8719 36.1059C20.9856 36.0471 21.0835 35.962 21.1575 35.8576C22.1296 34.4862 23.1577 33.0921 24.2893 31.6099C29.4477 32.2237 32.5158 33.9938 32.5158 35.3946C32.5158 37.2846 27.379 39.3984 20.5042 39.3984Z" fill="#EB7124"/>
</svg>
