<svg width="41" height="41" viewBox="0 0 41 41" fill="none" xmlns="http://www.w3.org/2000/svg">
<path d="M2.7331 36.9051H4.09965V38.2625C4.0943 38.6191 4.16039 38.9733 4.29405 39.3041C4.4277 39.6349 4.62621 39.9356 4.87789 40.1886C5.13299 40.4476 5.43736 40.6529 5.77309 40.7926C6.10881 40.9322 6.4691 41.0034 6.83274 41.0018H29.3808C30.1057 41.0018 30.8008 40.714 31.3134 40.2018C31.8259 39.6897 32.1139 38.995 32.1139 38.2707V30.0773C32.1139 29.8963 32.0419 29.7226 31.9138 29.5945C31.7856 29.4665 31.6118 29.3946 31.4306 29.3946C31.2494 29.3946 31.0756 29.4665 30.9475 29.5945C30.8193 29.7226 30.7473 29.8963 30.7473 30.0773V38.2707C30.7473 38.6328 30.6034 38.9802 30.3471 39.2363C30.0908 39.4923 29.7432 39.6362 29.3808 39.6362H6.83274C6.64987 39.6371 6.46868 39.6013 6.2999 39.5309C6.13113 39.4606 5.97821 39.3571 5.85019 39.2265C5.72543 39.101 5.62715 38.9517 5.56119 38.7875C5.49522 38.6233 5.46292 38.4476 5.46619 38.2707V36.9051H25.2811C26.006 36.9051 26.7012 36.6174 27.2137 36.1052C27.7263 35.593 28.0142 34.8983 28.0142 34.174V31.6204C28.0142 31.4393 27.9423 31.2657 27.8141 31.1376C27.686 31.0096 27.5122 30.9376 27.331 30.9376C27.1498 30.9376 26.976 31.0096 26.8478 31.1376C26.7197 31.2657 26.6477 31.4393 26.6477 31.6204V34.174C26.6477 34.5362 26.5037 34.8835 26.2474 35.1396C25.9912 35.3957 25.6436 35.5396 25.2811 35.5396H2.7331C2.37067 35.5396 2.02308 35.3957 1.7668 35.1396C1.51052 34.8835 1.36655 34.5362 1.36655 34.174V2.76626C1.36655 2.4041 1.51052 2.05676 1.7668 1.80067C2.02308 1.54458 2.37067 1.40071 2.7331 1.40071H25.2811C25.6436 1.40071 25.9912 1.54458 26.2474 1.80067C26.5037 2.05676 26.6477 2.4041 26.6477 2.76626V8.22848C26.6477 8.40956 26.7197 8.58323 26.8478 8.71127C26.976 8.83932 27.1498 8.91125 27.331 8.91125C27.5122 8.91125 27.686 8.83932 27.8141 8.71127C27.9423 8.58323 28.0142 8.40956 28.0142 8.22848V2.76626C28.0142 2.04193 27.7263 1.34726 27.2137 0.835079C26.7012 0.322897 26.006 0.0351563 25.2811 0.0351562H2.7331C2.00823 0.0351563 1.31306 0.322897 0.800506 0.835079C0.287951 1.34726 0 2.04193 0 2.76626L0 34.174C0 34.8983 0.287951 35.593 0.800506 36.1052C1.31306 36.6174 2.00823 36.9051 2.7331 36.9051Z" fill="#EB7124"/>
<path d="M3.41765 4.13147C3.23643 4.13147 3.06264 4.2034 2.9345 4.33145C2.80636 4.45949 2.73438 4.63316 2.73438 4.81424V10.9592C2.73438 11.1403 2.80636 11.314 2.9345 11.442C3.06264 11.5701 3.23643 11.642 3.41765 11.642H6.15075C6.33196 11.642 6.50576 11.5701 6.63389 11.442C6.76203 11.314 6.83402 11.1403 6.83402 10.9592C6.83402 10.7782 6.76203 10.6045 6.63389 10.4764C6.50576 10.3484 6.33196 10.2765 6.15075 10.2765H4.10092V4.81424C4.10092 4.63316 4.02894 4.45949 3.9008 4.33145C3.77266 4.2034 3.59886 4.13147 3.41765 4.13147ZM12.9835 7.88674C12.9835 5.78106 11.783 4.13147 10.2504 4.13147C8.71781 4.13147 7.51729 5.78106 7.51729 7.88674C7.51729 9.99242 8.71781 11.642 10.2504 11.642C11.783 11.642 12.9835 9.99242 12.9835 7.88674ZM8.88384 7.88674C8.88384 6.47885 9.60401 5.49702 10.2504 5.49702C10.8968 5.49702 11.6169 6.47885 11.6169 7.88674C11.6169 9.29463 10.8968 10.2765 10.2504 10.2765C9.60401 10.2765 8.88384 9.29531 8.88384 7.88674ZM17.0483 4.59849C17.0034 4.46188 16.9164 4.34294 16.7999 4.25862C16.6833 4.1743 16.5431 4.12891 16.3992 4.12891C16.2553 4.12891 16.1151 4.1743 15.9985 4.25862C15.8819 4.34294 15.795 4.46188 15.7501 4.59849L13.7002 10.7435C13.643 10.9155 13.6564 11.1032 13.7377 11.2653C13.8189 11.4274 13.9613 11.5507 14.1334 11.6079C14.3056 11.6651 14.4934 11.6516 14.6557 11.5705C14.8179 11.4893 14.9412 11.347 14.9985 11.175L15.2984 10.2765H17.5013L17.8013 11.175C17.8296 11.2602 17.8745 11.3389 17.9333 11.4068C17.9921 11.4746 18.0637 11.5303 18.1441 11.5705C18.2244 11.6107 18.3118 11.6346 18.4014 11.6411C18.491 11.6475 18.581 11.6362 18.6663 11.6079C18.7515 11.5795 18.8303 11.5347 18.8983 11.4759C18.9662 11.4172 19.0218 11.3456 19.062 11.2653C19.1023 11.1851 19.1263 11.0977 19.1327 11.0081C19.1391 10.9186 19.1278 10.8287 19.0995 10.7435L17.0483 4.59849ZM15.7535 8.9109L16.3999 6.97318L17.0462 8.9109H15.7535ZM21.8661 10.9592V7.44908L24.002 11.2911C24.0755 11.4233 24.1909 11.5273 24.33 11.5869C24.4692 11.6464 24.6242 11.6582 24.7707 11.6202C24.9172 11.5822 25.0469 11.4967 25.1396 11.3771C25.2322 11.2575 25.2824 11.1105 25.2824 10.9592V4.81424C25.2824 4.63316 25.2104 4.45949 25.0823 4.33145C24.9542 4.2034 24.7804 4.13147 24.5992 4.13147C24.4179 4.13147 24.2441 4.2034 24.116 4.33145C23.9879 4.45949 23.9159 4.63316 23.9159 4.81424V8.3244L21.78 4.48241C21.7064 4.35022 21.591 4.24617 21.4519 4.1866C21.3128 4.12703 21.1578 4.11531 21.0113 4.15328C20.8647 4.19125 20.735 4.27676 20.6424 4.39639C20.5497 4.51602 20.4995 4.66299 20.4995 4.81424V10.9592C20.4995 11.1403 20.5715 11.314 20.6996 11.442C20.8278 11.5701 21.0016 11.642 21.1828 11.642C21.364 11.642 21.5378 11.5701 21.6659 11.442C21.7941 11.314 21.8661 11.1403 21.8661 10.9592ZM3.41765 16.4214H12.3002C12.4814 16.4214 12.6552 16.3495 12.7834 16.2215C12.9115 16.0934 12.9835 15.9198 12.9835 15.7387C12.9835 15.5576 12.9115 15.3839 12.7834 15.2559C12.6552 15.1278 12.4814 15.0559 12.3002 15.0559H3.41765C3.23643 15.0559 3.06264 15.1278 2.9345 15.2559C2.80636 15.3839 2.73438 15.5576 2.73438 15.7387C2.73438 15.9198 2.80636 16.0934 2.9345 16.2215C3.06264 16.3495 3.23643 16.4214 3.41765 16.4214ZM3.41765 19.8353H12.3002C12.4814 19.8353 12.6552 19.7634 12.7834 19.6354C12.9115 19.5073 12.9835 19.3336 12.9835 19.1526C12.9835 18.9715 12.9115 18.7978 12.7834 18.6698C12.6552 18.5417 12.4814 18.4698 12.3002 18.4698H3.41765C3.23643 18.4698 3.06264 18.5417 2.9345 18.6698C2.80636 18.7978 2.73438 18.9715 2.73438 19.1526C2.73438 19.3336 2.80636 19.5073 2.9345 19.6354C3.06264 19.7634 3.23643 19.8353 3.41765 19.8353ZM3.41765 23.2492H12.3002C12.4814 23.2492 12.6552 23.1773 12.7834 23.0492C12.9115 22.9212 12.9835 22.7475 12.9835 22.5664C12.9835 22.3854 12.9115 22.2117 12.7834 22.0836C12.6552 21.9556 12.4814 21.8837 12.3002 21.8837H3.41765C3.23643 21.8837 3.06264 21.9556 2.9345 22.0836C2.80636 22.2117 2.73438 22.3854 2.73438 22.5664C2.73438 22.7475 2.80636 22.9212 2.9345 23.0492C3.06264 23.1773 3.23643 23.2492 3.41765 23.2492ZM15.0333 15.7387C15.0333 15.9198 15.1053 16.0934 15.2334 16.2215C15.3616 16.3495 15.5354 16.4214 15.7166 16.4214H22.0984C22.2796 16.4214 22.4534 16.3495 22.5815 16.2215C22.7097 16.0934 22.7816 15.9198 22.7816 15.7387C22.7816 15.5576 22.7097 15.3839 22.5815 15.2559C22.4534 15.1278 22.2796 15.0559 22.0984 15.0559H15.7166C15.5354 15.0559 15.3616 15.1278 15.2334 15.2559C15.1053 15.3839 15.0333 15.5576 15.0333 15.7387ZM15.7166 19.8353H18.3677C18.5489 19.8353 18.7227 19.7634 18.8508 19.6354C18.979 19.5073 19.051 19.3336 19.051 19.1526C19.051 18.9715 18.979 18.7978 18.8508 18.6698C18.7227 18.5417 18.5489 18.4698 18.3677 18.4698H15.7166C15.5354 18.4698 15.3616 18.5417 15.2334 18.6698C15.1053 18.7978 15.0333 18.9715 15.0333 19.1526C15.0333 19.3336 15.1053 19.5073 15.2334 19.6354C15.3616 19.7634 15.5354 19.8353 15.7166 19.8353ZM15.7166 23.2492H18.4975C18.6787 23.2492 18.8525 23.1773 18.9807 23.0492C19.1088 22.9212 19.1808 22.7475 19.1808 22.5664C19.1808 22.3854 19.1088 22.2117 18.9807 22.0836C18.8525 21.9556 18.6787 21.8837 18.4975 21.8837H15.7166C15.5354 21.8837 15.3616 21.9556 15.2334 22.0836C15.1053 22.2117 15.0333 22.3854 15.0333 22.5664C15.0333 22.7475 15.1053 22.9212 15.2334 23.0492C15.3616 23.1773 15.5354 23.2492 15.7166 23.2492ZM3.41765 26.6631H12.3002C12.4814 26.6631 12.6552 26.5912 12.7834 26.4631C12.9115 26.3351 12.9835 26.1614 12.9835 25.9803C12.9835 25.7992 12.9115 25.6256 12.7834 25.4975C12.6552 25.3695 12.4814 25.2975 12.3002 25.2975H3.41765C3.23643 25.2975 3.06264 25.3695 2.9345 25.4975C2.80636 25.6256 2.73438 25.7992 2.73438 25.9803C2.73438 26.1614 2.80636 26.3351 2.9345 26.4631C3.06264 26.5912 3.23643 26.6631 3.41765 26.6631ZM20.4107 25.9803C20.4107 25.7992 20.3387 25.6256 20.2106 25.4975C20.0824 25.3695 19.9086 25.2975 19.7274 25.2975H15.7166C15.5354 25.2975 15.3616 25.3695 15.2334 25.4975C15.1053 25.6256 15.0333 25.7992 15.0333 25.9803C15.0333 26.1614 15.1053 26.3351 15.2334 26.4631C15.3616 26.5912 15.5354 26.6631 15.7166 26.6631H19.7274C19.9086 26.6631 20.0824 26.5912 20.2106 26.4631C20.3387 26.3351 20.4107 26.1614 20.4107 25.9803ZM4.10092 32.1253H6.24162C6.5467 32.1263 6.84596 32.0419 7.10548 31.8817C7.36501 31.7214 7.57442 31.4917 7.70998 31.2186C7.73272 31.167 7.77177 31.1243 7.82115 31.097C7.87052 31.0698 7.92748 31.0595 7.98329 31.0677C8.09808 31.0745 8.1951 31.1544 8.22243 31.2657L8.34337 31.687C8.42723 31.9892 8.59703 32.2607 8.83219 32.4684C9.06736 32.6761 9.35778 32.8112 9.66824 32.8573C9.97794 32.908 10.2957 32.8679 10.5831 32.7417C10.8704 32.6156 11.1149 32.4088 11.2869 32.1465L12.0734 30.968C12.0982 30.93 12.1321 30.8987 12.1721 30.8771C12.2121 30.8555 12.2568 30.8441 12.3023 30.8441C12.3477 30.8441 12.3925 30.8555 12.4324 30.8771C12.4724 30.8987 12.5063 30.93 12.5312 30.968L12.8154 31.3954C12.9653 31.6202 13.1685 31.8045 13.407 31.9318C13.6454 32.0592 13.9116 32.1256 14.182 32.1253H16.3999C16.5811 32.1253 16.7549 32.0534 16.883 31.9253C17.0111 31.7973 17.0831 31.6236 17.0831 31.4425C17.0831 31.2615 17.0111 31.0878 16.883 30.9597C16.7549 30.8317 16.5811 30.7598 16.3999 30.7598H14.1792C14.134 30.7598 14.0895 30.7487 14.0497 30.7274C14.0099 30.706 13.976 30.6752 13.951 30.6375L13.6668 30.2135C13.5172 29.9882 13.3141 29.8033 13.0757 29.6755C12.8372 29.5476 12.5708 29.4807 12.3002 29.4807C12.0296 29.4807 11.7632 29.5476 11.5248 29.6755C11.2863 29.8033 11.0833 29.9882 10.9337 30.2135L10.1479 31.3893C10.1192 31.4336 10.0783 31.4687 10.03 31.4902C9.98181 31.5118 9.92837 31.5189 9.87617 31.5107C9.82398 31.5026 9.77527 31.4795 9.73594 31.4442C9.69661 31.409 9.66835 31.3631 9.65458 31.3121L9.53432 30.8909C9.44413 30.5726 9.25966 30.2891 9.00517 30.0775C8.75069 29.866 8.4381 29.7364 8.10851 29.7057C7.77892 29.6751 7.44776 29.7448 7.15857 29.9058C6.86939 30.0667 6.63572 30.3113 6.48828 30.6075C6.4656 30.6534 6.43044 30.6921 6.38682 30.719C6.3432 30.7459 6.29289 30.7601 6.24162 30.7598H4.10092C3.91971 30.7598 3.74591 30.8317 3.61778 30.9597C3.48964 31.0878 3.41765 31.2615 3.41765 31.4425C3.41765 31.6236 3.48964 31.7973 3.61778 31.9253C3.74591 32.0534 3.91971 32.1253 4.10092 32.1253Z" fill="#EB7124"/>
<path d="M19.1364 32.1232H22.9176C23.2118 32.1227 23.4948 32.0107 23.7096 31.8098C25.2654 30.3759 28.459 27.9555 32.368 27.8756C32.6672 27.8744 32.9545 27.7585 33.1706 27.5518C33.3867 27.3451 33.5152 27.0633 33.5296 26.7647C33.5419 26.5135 33.8569 20.5808 35.5794 17.3547L40.9226 7.33154C41.0078 7.17165 41.0259 6.98449 40.973 6.81124C40.92 6.638 40.8004 6.49285 40.6404 6.40775C40.4804 6.32264 40.2931 6.30453 40.1197 6.35741C39.9464 6.4103 39.8011 6.52984 39.7159 6.68973L34.6946 16.1121L32.1022 14.7328L28.6653 12.9023L34.9884 1.03634C35.0364 0.956968 35.0678 0.868637 35.0806 0.776739C35.0934 0.684841 35.0873 0.591305 35.0627 0.501841C35.0381 0.412378 34.9955 0.328864 34.9375 0.256398C34.8795 0.183932 34.8074 0.124036 34.7254 0.0803646C34.6435 0.0366935 34.5536 0.0101644 34.461 0.00239696C34.3685 -0.00537046 34.2754 0.00578678 34.1873 0.0351875C34.0993 0.0645882 34.0181 0.111616 33.9488 0.173398C33.8796 0.235181 33.8236 0.310423 33.7844 0.39453L27.1369 12.8593C25.415 16.0875 20.6628 19.6543 20.4613 19.8045C20.2219 19.9834 20.0601 20.2471 20.0093 20.5415C19.9584 20.8358 20.0224 21.1385 20.188 21.3872C22.3751 24.7956 22.0062 29.0705 21.7445 30.7576H19.1364C18.9552 30.7576 18.7814 30.8295 18.6533 30.9576C18.5251 31.0856 18.4531 31.2593 18.4531 31.4404C18.4531 31.6215 18.5251 31.7951 18.6533 31.9232C18.7814 32.0512 18.9552 32.1232 19.1364 32.1232ZM21.4233 20.7891C22.2378 20.1657 26.1119 17.1178 27.9985 14.0979L31.982 16.2145L34.0741 17.3294C32.6154 20.5781 32.2416 25.4934 32.1781 26.5176C29.3859 26.7006 26.7109 27.7077 24.4919 29.4112L26.7016 25.221C27.3518 25.3828 28.0388 25.3019 28.6336 24.9935C29.2284 24.6852 29.6901 24.1705 29.9322 23.5461C30.1742 22.9218 30.18 22.2306 29.9483 21.6023C29.7166 20.974 29.2635 20.4518 28.6739 20.1336C28.0843 19.8154 27.3988 19.7232 26.746 19.8742C26.0931 20.0252 25.5179 20.409 25.1282 20.9537C24.7384 21.4984 24.561 22.1665 24.6292 22.8326C24.6973 23.4987 25.0064 24.1171 25.4984 24.5717L23.3044 28.7243C23.4732 25.9518 22.8189 23.1913 21.4233 20.7891ZM26.6934 23.7694C26.3736 23.5987 26.1347 23.3081 26.0293 22.9614C25.9239 22.6147 25.9606 22.2404 26.1314 21.9208C26.3022 21.6012 26.5931 21.3624 26.94 21.2571C27.2869 21.1518 27.6615 21.1885 27.9814 21.3592C28.3012 21.53 28.5401 21.8209 28.6453 22.1677C28.7506 22.5145 28.7137 22.8889 28.5427 23.2085C28.3717 23.5281 28.0807 23.7668 27.7336 23.8719C27.3866 23.9771 27.0119 23.9402 26.692 23.7694H26.6934Z" fill="#EB7124"/>
</svg>
