<svg width="110" height="32" viewBox="0 0 110 32" fill="none" xmlns="http://www.w3.org/2000/svg">
<g clip-path="url(#clip0_8039_40336)">
<path d="M89.0498 3C88.9757 3.02118 88.9121 3.04236 88.838 3.06354C88.4991 3.15884 88.2025 3.33886 87.9907 3.61418C87.8742 3.75184 87.906 3.86833 88.0648 3.95304C88.1707 3.9954 88.2872 4.02717 88.3084 4.18601C88.2661 4.1966 88.2131 4.21777 88.1813 4.21777C87.8954 4.1966 87.6412 4.26013 87.387 4.37661C87.2599 4.42956 87.1116 4.4931 86.9739 4.53545C86.8257 4.5884 86.8045 4.65194 86.921 4.76842C86.9739 4.83196 87.0481 4.87431 87.1222 4.92726C87.1646 4.95903 87.1964 4.96962 87.2387 5.00139C86.9951 5.23435 86.7515 5.2873 86.5185 5.12846C86.5291 5.09669 86.5397 5.06492 86.5503 5.02256C86.5927 4.82137 86.5185 4.74724 86.3279 4.77901C86.2643 4.7896 86.2008 4.7896 86.1055 4.7896C86.1372 4.71547 86.1372 4.66253 86.1478 4.66253C86.3173 4.54604 86.4762 4.42956 86.6986 4.41897C87.0057 4.40838 87.2493 4.22836 87.4929 4.04834C87.5459 4.00599 87.5671 3.92127 87.5882 3.84715C87.62 3.78361 87.6094 3.70949 87.6412 3.64595C87.9907 3.19061 88.4885 3.02118 89.0498 3Z" fill="#EB7124"/>
<path d="M85.5671 4.83327C85.2811 4.9074 84.9952 4.98152 84.7092 5.06624C84.6562 5.08742 84.5503 5.15095 84.5609 5.17213C84.5821 5.24626 84.6245 5.35215 84.688 5.38392C84.8363 5.43686 84.9952 5.44745 85.1646 5.48981C85.0693 5.65924 84.8998 5.78631 84.7092 5.88162C84.6139 5.92397 84.5292 5.97692 84.5397 6.0934C84.5503 6.23107 84.6033 6.32637 84.741 6.3899C85.2388 6.61228 85.7895 6.47462 86.1178 6.02987C86.1602 5.97692 86.192 5.91338 86.2449 5.83926C86.3402 6.02987 86.425 6.20989 86.5097 6.37932C86.605 6.56992 86.6686 6.5911 86.8592 6.50639C86.9122 6.47462 86.9757 6.45344 87.0181 6.41108C87.0816 6.35814 87.1028 6.2946 87.0604 6.1993C87.0075 6.07222 86.9651 5.91338 86.9122 5.76513C87.0287 5.72278 87.124 5.68042 87.2087 5.63806C87.304 5.58512 87.3782 5.51099 87.4947 5.41569C87.5159 5.51099 87.5159 5.58512 87.537 5.64865C87.5582 5.7016 87.5794 5.77572 87.6112 5.78631C87.6536 5.7969 87.7383 5.75454 87.7701 5.72278C87.823 5.66983 87.8548 5.5957 87.8972 5.51099C87.9925 5.62747 87.9925 5.73337 88.0031 5.84985C88.0242 6.23106 87.9607 6.58051 87.7383 6.89819C87.6959 6.95114 87.6959 7.02527 87.6641 7.10998C88.0031 7.13116 88.5326 6.5911 88.6279 6.14635C88.755 5.65924 88.6279 5.2039 88.4055 4.78033C88.4267 4.76974 88.4373 4.75915 88.4479 4.75915C88.6703 4.85445 88.8504 4.76974 89.0622 4.66384C89.2105 4.60031 89.3905 4.58972 89.56 4.58972C89.7612 4.58972 89.8142 4.71679 89.7294 4.88622C89.6659 5.02388 89.5494 5.10859 89.4117 5.18272C89.2917 5.24626 89.2528 5.34156 89.2952 5.46863C89.2952 5.47922 89.3058 5.47922 89.3058 5.48981C89.4117 5.78631 89.454 5.81808 89.7188 5.61688C89.8883 5.48981 90.0366 5.34156 90.1637 5.17213C90.439 4.81209 90.1213 4.17673 89.6871 4.13438C89.5176 4.1132 89.3481 4.12379 89.1681 4.12379C89.1257 4.12379 89.094 4.12379 89.041 4.09202C89.0834 4.07084 89.1257 4.03907 89.1681 4.02848C89.5917 3.90141 89.9942 3.912 90.3861 4.12379C90.5238 4.19791 90.5979 4.31439 90.6403 4.47323C90.7356 4.86504 90.6509 5.21449 90.3755 5.52158C90.1637 5.74396 89.9307 5.91338 89.6659 6.05105C89.5494 6.10399 89.507 6.17812 89.4964 6.30519C89.4541 6.91937 89.1787 7.40648 88.7021 7.7877C88.3632 8.07361 87.9819 8.27481 87.59 8.47601C87.2935 8.63485 86.9757 8.77251 86.6686 8.94194C86.2026 9.19608 85.7365 9.4714 85.3341 9.84203C85.3235 9.83144 85.3129 9.82085 85.2917 9.79967C85.3447 9.74673 85.3976 9.68319 85.4506 9.63024C85.9378 9.16431 86.4991 8.76192 87.0604 8.3807C87.3358 8.19009 87.6112 7.99949 87.8654 7.81947C87.9395 7.76652 88.0772 7.69239 88.0031 7.59709C87.9395 7.48061 87.8124 7.5865 87.7277 7.61827C87.2405 7.80888 86.7639 7.99948 86.2661 8.20068C86.0966 8.26422 85.9378 8.34893 85.7789 8.42306C85.0058 8.79369 84.5503 9.43964 84.2326 10.2021C83.7666 11.3881 83.8301 12.5529 84.3491 13.6965C84.3809 13.7601 84.3915 13.8236 84.4338 13.8872C84.455 13.9189 84.508 13.9401 84.5503 13.9401C84.5715 13.9401 84.5927 13.8872 84.6139 13.8554V13.8342C84.5715 13.1883 84.8363 12.6164 85.1011 12.0658C85.2282 11.8011 85.387 11.5681 85.5671 11.3245C85.5565 11.3669 85.5459 11.4093 85.5247 11.4516C85.2811 12.0552 85.1223 12.6694 85.1223 13.3471C85.1223 14.1731 85.3976 14.9037 85.9272 15.5497C86.0543 15.6979 86.1814 15.8462 86.3085 15.9944C86.3402 16.0262 86.3614 16.058 86.3932 16.0686C86.4356 16.0792 86.4991 16.0792 86.5203 16.058C86.5415 16.0368 86.5415 15.9627 86.5203 15.9309C86.3402 15.7297 86.2767 15.4756 86.192 15.2426C85.9801 14.6178 85.906 13.9931 85.9801 13.3471C86.0331 12.8918 86.2026 12.4682 86.425 12.0764C86.6474 11.6634 86.9228 11.2822 87.2511 10.9433C87.4629 10.7315 87.6535 10.5092 87.8654 10.2974C87.9077 10.2444 87.9713 10.1915 88.0454 10.1597C87.8971 10.3821 87.7383 10.6256 87.5794 10.8586C87.2299 11.4093 87.0181 12.0234 86.9228 12.6694C86.8592 13.1035 86.9122 13.5271 87.0181 13.9507C87.0604 14.1095 87.1134 14.2578 87.1558 14.4166C87.1664 14.459 87.1875 14.4908 87.2087 14.5225C87.2299 14.5437 87.2723 14.5543 87.2935 14.5437C87.3252 14.5225 87.3464 14.4908 87.3464 14.459C87.3464 14.3954 87.3252 14.3319 87.304 14.2684C87.2087 13.8977 87.2405 13.5377 87.3252 13.1777C87.4311 12.7329 87.6112 12.3199 87.8442 11.9387C88.2572 11.2504 88.7868 10.668 89.3905 10.1597C90.1213 9.54553 90.6297 8.80427 90.9156 7.90418C90.9368 7.83006 90.958 7.75593 90.9686 7.6818C90.9898 7.61827 91.011 7.55473 91.0745 7.4912C91.0639 7.61827 91.0639 7.74534 91.0427 7.87241C90.9686 8.45483 90.8309 9.01606 90.6191 9.56671C90.5873 9.64083 90.5343 9.71496 90.5026 9.79967C90.4814 9.85262 90.492 9.91616 90.492 9.9691C90.5555 9.95851 90.6297 9.97969 90.6826 9.93733C90.7779 9.88439 90.8521 9.79967 90.9368 9.72555C91.4346 9.2808 91.8477 8.77251 92.1018 8.15833C92.6314 6.86643 92.5467 5.60629 91.7947 4.42029C91.4981 3.95436 91.0957 3.58373 90.6191 3.28723C90.5661 3.25546 90.5132 3.22369 90.4708 3.16016C90.5132 3.17075 90.5661 3.16016 90.5979 3.19192C90.8945 3.34018 91.1804 3.48843 91.4664 3.65786C91.8371 3.86964 92.176 4.12379 92.4725 4.42029C93.0974 5.03447 93.4893 5.75454 93.7117 6.58051C93.86 7.13116 93.9235 7.71357 93.86 8.27481C93.7647 9.25962 93.4363 10.1491 92.7055 10.848C92.5996 10.9539 92.5996 10.9857 92.6844 11.1128C92.8962 11.441 93.2351 11.621 93.6058 11.7163C94.1353 11.854 94.6649 11.8646 95.2156 11.8434C95.7982 11.8116 96.3595 11.7163 96.9208 11.5469C96.9632 11.5363 96.995 11.5363 97.0267 11.5363C97.0373 11.5575 97.0373 11.5681 97.0373 11.5787C96.8255 11.6634 96.6031 11.7481 96.3913 11.8222C95.5016 12.1187 94.6014 12.267 93.6587 12.1293C93.055 12.0552 92.5149 11.8328 92.0489 11.4198C91.9218 11.3034 91.6041 11.2822 91.4664 11.3775C91.4028 11.4198 91.4028 11.4834 91.4346 11.5363C91.6146 11.8328 91.8159 12.1081 92.1442 12.267C92.3137 12.3517 92.4937 12.4152 92.6632 12.4788C92.7267 12.5105 92.8009 12.5317 92.875 12.5847C92.6738 12.6164 92.4831 12.5635 92.2925 12.5211C91.6994 12.3729 91.1698 12.087 90.7144 11.674C90.5661 11.5469 90.439 11.5469 90.2696 11.621C89.7188 11.8752 89.221 12.1823 88.808 12.627C88.3843 13.0824 88.0984 13.5907 88.0242 14.2154C87.9607 14.7767 88.0984 15.2744 88.4161 15.7509C88.5008 15.878 88.5962 16.005 88.6915 16.1321C88.7127 16.1639 88.7339 16.1956 88.755 16.1956C88.7974 16.2062 88.8504 16.2062 88.9033 16.2062C88.9033 16.1639 88.9245 16.1109 88.9033 16.0792C88.6068 15.6238 88.6385 15.1155 88.7233 14.6284C88.7974 14.1625 89.0728 13.7813 89.4329 13.4106C89.3693 13.5801 89.3058 13.7071 89.2634 13.8236C89.0728 14.3319 89.1151 14.819 89.3799 15.2955C89.7612 15.9627 90.3331 16.3757 91.0745 16.5663C91.1169 16.5769 91.1698 16.5874 91.2122 16.5874C91.3816 16.5874 91.4134 16.5239 91.3499 16.3757C91.3075 16.238 91.2757 16.0897 91.2334 15.9521C91.138 15.5709 91.0321 15.2002 90.9368 14.819C90.9262 14.7873 90.9368 14.7661 90.9262 14.7237C91.2122 14.9355 91.7312 16.2803 91.8159 16.9898C91.5193 17.191 91.1804 17.0745 90.8309 17.0957C90.8627 17.1699 90.8733 17.2228 90.8945 17.2863C91.3287 18.0594 91.6358 18.8853 91.8159 19.7537C91.8688 20.0396 91.9112 20.3255 91.943 20.6114C91.9642 20.8126 91.9747 20.9926 92.1018 21.162C92.1336 21.1938 92.1336 21.2467 92.1442 21.3103C91.5087 21.4797 91.2334 21.9033 91.2228 22.5281C90.9898 22.634 90.9156 22.5916 90.905 22.3586C90.8944 22.2104 90.9156 22.0621 90.9262 21.9139C90.9262 21.8398 90.905 21.7656 90.8945 21.6597C90.8203 21.7127 90.7674 21.7339 90.7356 21.7762C90.5767 21.988 90.439 22.2104 90.4178 22.4751C90.4073 22.6022 90.3543 22.6445 90.2378 22.634H90.1213C88.0454 22.634 85.959 22.6445 83.8831 22.6445H82.7392C82.6969 22.6445 82.6439 22.634 82.6016 22.6022C82.6439 22.581 82.6757 22.5598 82.7181 22.5598C83.3218 22.4116 83.936 22.2633 84.5292 22.0939C84.6986 22.0515 84.741 21.9986 84.7622 21.8186C84.8151 21.3844 85.1964 21.035 85.6412 21.0138H85.9272C86.0755 21.0032 86.139 20.9714 86.1814 20.8126C86.2449 20.5373 86.3085 20.2619 86.372 19.9972C86.4144 19.796 86.4673 19.6054 86.5097 19.4148C86.5521 19.2348 86.5944 19.0653 86.6262 18.8853C86.6686 18.5571 86.7215 18.2182 86.7639 17.8899C86.7851 17.7523 86.7109 17.6781 86.5944 17.6146C86.3085 17.4452 86.0331 17.2757 85.7683 17.0851C84.9104 16.4604 84.2326 15.6873 83.8301 14.6919C83.4489 13.7389 83.3535 12.7435 83.4912 11.7269C83.5971 11.0174 83.8301 10.3715 84.2008 9.75732C84.7516 8.86781 85.5141 8.22186 86.4462 7.75593C86.5309 7.71357 86.6686 7.70298 86.658 7.57591C86.6474 7.43825 86.5097 7.44884 86.4038 7.40648C85.9484 7.26882 85.493 7.20528 85.0163 7.30059C84.6986 7.36412 84.4232 7.30059 84.2326 7.00409C84.1267 6.85584 84.1055 6.68641 84.1373 6.50639C84.1796 6.26283 84.1796 6.04046 84.1373 5.78631C84.1055 5.60629 84.1373 5.4051 84.1585 5.22508C84.1691 5.17213 84.2114 5.08742 84.2644 5.06624C84.6668 4.91799 85.0799 4.82268 85.5035 4.78033C85.5671 4.81209 85.5671 4.82268 85.5671 4.83327ZM88.6279 22.0515H89.9624C90.1319 22.0515 90.1954 22.0092 90.206 21.8609C90.2166 21.7021 90.3013 21.5962 90.3861 21.4903C90.6509 21.1832 91.0004 21.0138 91.4028 20.9608C91.4664 20.9502 91.5405 20.9502 91.6146 20.9291C91.7312 20.8867 91.7523 20.8338 91.7311 20.7173C91.71 20.6537 91.6888 20.5902 91.6782 20.5055C91.5193 19.5948 91.0851 18.8006 90.5555 18.0594C90.5026 17.9852 90.439 17.9535 90.3437 17.9641C89.9307 18.0064 89.507 18.0594 89.094 18.0911C88.988 18.1017 88.9139 18.1335 88.8821 18.2288C88.8609 18.2711 88.8504 18.3135 88.8398 18.3559C88.522 19.2242 88.1619 20.0713 87.7171 20.8761C87.5582 21.1726 87.357 21.4585 87.1769 21.755C87.0816 21.9033 87.124 22.0092 87.304 22.0198C87.357 22.0304 87.4205 22.0198 87.4629 22.0198C87.8442 22.0515 88.2467 22.0515 88.6279 22.0515ZM84.4868 6.60169C84.4232 6.7923 84.4868 6.90878 84.6139 7.00409C84.741 7.09939 84.9104 7.12057 85.0587 7.04644C85.0905 7.03585 85.1011 6.92996 85.0905 6.91937C84.921 6.76053 84.7304 6.64405 84.4868 6.60169Z" fill="#EB7124"/>
<path d="M16.1304 10.3412H14.5099C14.4993 10.32 14.4993 10.2988 14.4993 10.2882C14.5311 10.2565 14.5523 10.2247 14.5841 10.2141C14.6264 10.2035 14.69 10.2035 14.7429 10.2035H17.6343C17.719 10.2035 17.825 10.1612 17.8885 10.32C17.6237 10.373 17.3695 10.3412 17.1153 10.3518C16.8717 10.3624 16.6176 10.3518 16.3422 10.3518C14.7853 14.5028 13.2284 18.6326 11.6715 22.7731H11.1525C10.4323 20.7929 9.71211 18.8127 8.99191 16.8325L8.94954 16.8219C8.67417 17.4678 8.44117 18.1244 8.18698 18.7915C7.9222 19.448 7.6786 20.1152 7.42442 20.7717C7.17023 21.4282 6.91604 22.0954 6.65126 22.7625H5.8781C4.36356 18.6326 2.85962 14.4922 1.35567 10.3306H0C0.0635471 10.2565 0.0847294 10.2141 0.116503 10.2035C0.18005 10.1824 0.254188 10.1929 0.328326 10.1929H13.5567C13.652 10.1929 13.7579 10.1612 13.8533 10.2671C13.6838 10.3941 13.5249 10.32 13.3661 10.3306C13.2178 10.3412 13.0589 10.3306 12.9001 10.3306H12.3705C12.3281 10.4153 12.2964 10.4894 12.2646 10.5742C11.8092 11.7919 11.3643 13.0203 10.8983 14.2381C10.8454 14.3757 10.8348 14.5028 10.8877 14.6405C11.4491 16.2077 12.021 17.7855 12.5717 19.3633C12.5929 19.4057 12.6141 19.4692 12.6353 19.5222C12.773 19.3739 16.0986 10.5742 16.1304 10.3412ZM4.35297 10.3518C5.45446 13.4227 6.55594 16.4618 7.65742 19.5222C7.73156 19.448 7.77392 19.3739 7.79511 19.2892C8.12343 18.4314 8.44117 17.5843 8.7695 16.7266C8.82245 16.5783 8.82245 16.4512 8.7695 16.303C8.05989 14.3969 7.37146 12.4697 6.67244 10.5636C6.64067 10.4894 6.61949 10.4259 6.58771 10.3518C6.60889 10.3518 4.35297 10.3518 4.35297 10.3518ZM12.201 10.3518H9.37319C9.8392 11.6437 10.284 12.9038 10.7395 14.1745H10.7818C11.2584 12.9038 11.7244 11.6331 12.201 10.3518Z" fill="#01004C"/>
<path d="M64.3434 10.307C64.0257 10.36 63.708 10.307 63.3796 10.3388C63.3267 10.5188 63.3161 22.2095 63.369 22.4742C63.5279 22.4742 63.708 22.4636 63.8774 22.4742C64.0363 22.4848 64.1952 22.4318 64.3646 22.5271C64.3223 22.5589 64.3117 22.5907 64.2905 22.5907C64.2375 22.6013 64.174 22.6013 64.1316 22.6013H60.0011C59.9269 22.6013 59.8316 22.6436 59.768 22.5271C59.874 22.4107 60.0011 22.4848 60.1281 22.4742C60.2552 22.4636 60.3929 22.4742 60.52 22.4742H60.8801C60.9013 22.453 60.9119 22.4424 60.9119 22.4424C60.9119 22.4424 60.9225 22.4318 60.9225 22.4212C60.9225 22.3577 60.9331 22.2942 60.9331 22.2306C60.9331 18.4185 60.9331 14.6169 60.8907 10.8047C60.8589 10.8895 60.8272 10.9848 60.7954 11.0695C59.588 14.8922 58.3806 18.7044 57.1732 22.5271C57.152 22.5695 57.1414 22.633 57.1202 22.6754C57.0991 22.7072 57.0779 22.7389 57.0461 22.7389C57.0143 22.7389 56.972 22.7072 56.9614 22.686C56.9296 22.633 56.919 22.5695 56.8978 22.506C55.9552 19.6574 55.0232 16.8195 54.0806 13.9604C53.7523 12.965 53.4239 11.9802 53.0956 10.9742C53.0744 10.9212 53.0532 10.8577 53.0426 10.8047C53.0215 10.8047 53.0109 10.7942 53.0109 10.7942C53.0003 10.7942 53.0003 10.8047 53.0003 10.8153C53.0003 10.8259 52.9897 10.8259 52.9897 10.8365V22.273C52.9897 22.3154 53.0003 22.3683 53.0109 22.4424C53.1062 22.4424 53.2015 22.453 53.2862 22.453H53.9429C54.0064 22.453 54.0806 22.4318 54.1441 22.5589C54.0806 22.5695 54.017 22.5907 53.9429 22.5907C52.7885 22.633 51.9412 22.6013 51.7823 22.5166C51.8458 22.4954 51.8988 22.4636 51.9306 22.4636C52.1424 22.453 52.3754 22.4636 52.5872 22.4636H52.8308V10.3494C52.4601 10.2965 52.0894 10.3706 51.7293 10.307C51.7293 10.2859 51.7188 10.2647 51.7188 10.2647C51.7505 10.2435 51.7823 10.2223 51.8247 10.2117C51.8564 10.2011 51.8882 10.2117 51.92 10.2117H55.1397C55.1821 10.2117 55.2138 10.2223 55.2668 10.2223C56.2306 13.092 57.1944 15.9617 58.1688 18.8209H58.2217C59.1326 15.9512 60.0434 13.092 60.9648 10.2223H64.3328C64.354 10.2223 64.3752 10.2435 64.3858 10.2647C64.354 10.2647 64.354 10.2859 64.3434 10.307Z" fill="#01004C"/>
<path d="M45.6287 16.9379C45.6605 16.8215 45.6817 16.7156 45.7347 16.6097C45.8512 16.3238 45.9465 16.0379 46.1053 15.7837C46.476 15.1589 47.0586 14.8518 47.7682 14.8095C48.0647 14.7883 48.3825 14.8095 48.6684 14.8836C49.2827 15.0319 49.6852 15.4131 49.897 15.9955C50.0241 16.3555 50.0876 16.7156 50.0876 17.0968C50.0982 17.8169 50.0876 18.5158 50.0982 19.2358V22.455C50.2677 22.5291 50.4265 22.4762 50.5854 22.4973C50.7337 22.5185 50.882 22.455 51.0514 22.5397C51.0197 22.5821 51.0091 22.6032 50.9773 22.6138C50.9349 22.6244 50.882 22.6244 50.8396 22.6244H47.3975C47.3339 22.6244 47.2704 22.6032 47.2068 22.5715C47.4187 22.4338 47.6728 22.5397 47.9058 22.4762C47.9164 22.4338 47.927 22.3809 47.927 22.3279C47.927 20.5171 47.927 18.7064 47.9164 16.8956C47.9164 16.5991 47.8741 16.3238 47.8423 16.0273C47.8423 16.0061 47.8317 15.9849 47.8317 15.9637C47.7152 15.4131 47.4187 15.2436 46.8679 15.4131C46.5714 15.5084 46.3595 15.7096 46.1901 15.9637C45.9253 16.3555 45.7982 16.8003 45.7241 17.2556C45.6605 17.7427 45.597 18.251 45.5864 18.7381C45.5652 19.9135 45.5758 21.0996 45.5758 22.275C45.5758 22.3385 45.5864 22.402 45.5864 22.4656C45.8194 22.5397 46.063 22.4444 46.3278 22.5397C46.2748 22.5821 46.2324 22.6138 46.2007 22.6244C46.1583 22.635 46.1053 22.6244 46.063 22.6244H42.6844C42.6103 22.6244 42.5255 22.6032 42.4514 22.5927V22.5397C42.4938 22.5185 42.5361 22.4973 42.5785 22.4973C42.7691 22.4868 42.9598 22.4973 43.1398 22.4973H43.3834V10.3302C43.214 10.3302 43.0551 10.3408 42.8962 10.3302C42.7479 10.3196 42.5997 10.3726 42.3984 10.2667C42.5043 10.2243 42.5361 10.2031 42.5891 10.2031H45.4805C45.5017 10.2031 45.5228 10.2137 45.5758 10.2349C45.5864 10.6691 45.5758 11.1138 45.5758 11.548V16.9379H45.6287Z" fill="#01004C"/>
<path d="M95.9703 14.9269C95.7055 15.3081 95.3348 15.5516 94.9218 15.7317C94.5087 15.9223 94.0745 16.0599 93.6296 16.1552C93.5767 16.1764 93.4919 16.1976 93.4708 16.2505C93.439 16.3458 93.5237 16.3882 93.5979 16.42C93.8097 16.4729 94.0321 16.547 94.2545 16.5682C94.9535 16.6212 95.5784 16.4094 96.1927 16.1023C96.521 15.9329 96.8282 15.7211 97.0823 15.4669C97.2942 15.2446 97.4636 14.9904 97.5484 14.6833C97.6225 14.4186 97.6966 14.1539 97.7708 13.8997C97.8025 13.8044 97.8449 13.7197 97.8979 13.582C97.9402 13.815 97.9614 14.0056 98.0144 14.1962C98.1097 14.588 98.3109 14.9269 98.5545 15.2551C99.1159 16.007 99.8255 16.6106 100.662 17.0447C100.8 17.1189 100.959 17.1718 101.118 17.2248C101.171 17.2459 101.255 17.2248 101.319 17.193C101.393 17.1506 101.351 17.0659 101.329 17.0024C101.128 16.3035 100.842 15.6575 100.493 15.0222C100.482 15.0116 100.493 14.9904 100.493 14.9692C100.599 14.9586 100.62 15.0434 100.662 15.0963C100.927 15.4669 101.202 15.827 101.425 16.2188C101.721 16.7165 102.028 17.2036 102.389 17.6589C102.738 18.0931 102.897 18.5908 102.918 19.1308C102.939 19.5756 102.918 20.0203 102.907 20.4651C102.897 20.7404 102.918 20.7616 103.141 20.8887C103.183 20.9204 103.236 20.9522 103.299 21.0052C103.246 21.0369 103.225 21.0581 103.193 21.0687C102.844 21.1534 102.653 21.4076 102.558 21.7252C102.494 21.9582 102.463 22.2123 102.42 22.4771C102.378 22.4877 102.336 22.4983 102.283 22.4983C102.166 22.5088 102.103 22.4559 102.103 22.3394C102.113 22.117 102.124 21.8841 102.134 21.6617C102.134 21.6405 102.156 21.6193 102.156 21.5982C102.145 21.5558 102.134 21.4711 102.103 21.4605C102.071 21.4393 101.986 21.4711 101.975 21.5029C101.87 21.6723 101.764 21.8523 101.7 22.0429C101.658 22.17 101.647 22.3182 101.615 22.4877C101.541 22.4983 101.446 22.5088 101.361 22.5088H93.0365C92.973 22.5088 92.9094 22.4983 92.8459 22.4983C93.0895 21.7994 93.1954 21.1111 93.1318 20.3804C93.0683 19.6603 92.7506 19.0144 92.4116 18.379C92.4328 18.3684 92.4434 18.3578 92.454 18.3472C92.4964 18.3896 92.5493 18.4108 92.5811 18.4637C92.7506 18.6755 92.9094 18.8767 93.0683 19.0991C93.0895 19.1308 93.1001 19.152 93.1213 19.1732C93.1636 19.1944 93.2166 19.2156 93.2483 19.205C93.2801 19.1944 93.2907 19.1308 93.2907 19.0885C93.2695 18.9826 93.2272 18.8767 93.2166 18.7708C93.0683 17.5107 92.7188 16.2929 92.3057 15.0963C92.2845 15.0328 92.2634 14.9692 92.2422 14.8633C92.3163 14.9057 92.3587 14.9163 92.3799 14.9481C92.5281 15.0857 92.687 15.234 92.8353 15.3928C92.9624 15.5411 93.1318 15.6046 93.3331 15.6258C94.1062 15.6893 94.8476 15.5834 95.5572 15.2551C95.6737 15.1281 95.822 15.0116 95.9703 14.9269ZM95.0065 21.9158C95.1759 21.9264 95.356 21.9264 95.5255 21.9264C95.6102 21.9264 95.6949 21.9476 95.7796 21.9476C95.9597 21.9582 96.1397 21.9582 96.3198 21.9582C96.5316 21.9582 96.5846 21.8947 96.6163 21.6723C96.6163 21.6299 96.6269 21.5982 96.6375 21.5558C96.8176 21.1111 97.1035 20.7934 97.6119 20.7828C97.6331 20.7828 97.6543 20.7722 97.6755 20.7722C97.8026 20.751 97.8873 20.6875 97.9508 20.571C98.1732 20.1051 98.4168 19.6391 98.491 19.0991C98.5333 18.8026 98.4698 18.5484 98.2686 18.3472C98.0779 18.1566 97.8873 17.9766 97.686 17.7966C97.3154 17.4577 96.9658 17.1083 96.7223 16.6635C96.6799 16.5682 96.6058 16.5365 96.5104 16.5894C96.4681 16.6106 96.4257 16.6212 96.3833 16.6318C95.5149 16.96 94.6252 17.2459 93.725 17.4577C93.5343 17.5001 93.5131 17.5213 93.5343 17.7013C93.5979 18.3049 93.6508 18.9191 93.7355 19.5121C93.8097 20.0627 93.7673 20.5816 93.6402 21.1111C93.5979 21.2805 93.5661 21.4499 93.5237 21.6087C93.4814 21.8099 93.5131 21.8629 93.7355 21.8735H93.8309C94.2227 21.9158 94.6146 21.9158 95.0065 21.9158ZM99.7407 17.0659C99.709 17.193 99.7831 17.2459 99.8255 17.3095C99.9526 17.5213 100.08 17.7331 100.196 17.9554C100.302 18.1672 100.355 18.4108 100.27 18.6543C100.111 19.0885 99.9737 19.5332 99.8149 19.9568C99.6031 20.518 99.3595 21.0899 99.0417 21.6087C98.9252 21.7888 98.9888 21.8841 99.2006 21.8947C99.8149 21.9053 100.419 21.9158 101.022 21.9158C101.213 21.9158 101.266 21.8735 101.298 21.6723C101.319 21.4817 101.404 21.3228 101.541 21.2064C101.668 21.0899 101.817 20.9946 101.965 20.9099C102.103 20.8463 102.261 20.8145 102.41 20.7616C102.59 20.6981 102.6 20.6769 102.569 20.4863C102.558 20.4122 102.558 20.3274 102.547 20.2533C102.505 19.8721 102.473 19.5121 102.41 19.1414C102.336 18.7179 102.113 18.3896 101.721 18.1884C101.658 18.146 101.594 18.1143 101.509 18.0719C100.938 17.7542 100.344 17.4789 99.8149 17.0765C99.8149 17.0765 99.7937 17.0765 99.7407 17.0659Z" fill="#EB7124"/>
<path d="M73.3278 21.4687C73.4443 21.5322 73.4019 21.5957 73.3701 21.6487C73.2007 21.9981 72.9571 22.2735 72.6288 22.4641C72.3428 22.6335 72.0251 22.75 71.6967 22.75C71.3896 22.7606 71.0613 22.7606 70.7647 22.7076C70.0445 22.5805 69.6632 22.1146 69.6315 21.3945C69.6315 21.331 69.6314 21.2569 69.5891 21.1828C69.5573 21.2569 69.5255 21.3204 69.5044 21.3945C69.3137 21.9028 69.0172 22.3264 68.5088 22.5488C67.8839 22.8453 67.2378 22.877 66.5918 22.6441C65.861 22.3794 65.4585 21.8287 65.3738 21.0663C65.3314 20.791 65.342 20.505 65.395 20.2297C65.5115 19.5944 65.8822 19.1496 66.4435 18.8425C66.9307 18.5672 67.4603 18.4507 68.011 18.4189C68.4452 18.3872 68.8901 18.3978 69.3243 18.3872H69.5891C69.6103 18.3554 69.6315 18.3448 69.6315 18.3342C69.6526 17.6247 69.6738 16.9153 69.5044 16.2164C69.4408 15.9516 69.3455 15.7081 69.1866 15.4963C68.9748 15.1998 68.6888 15.0303 68.3076 15.0303C67.8415 15.0303 67.4179 15.1362 67.0048 15.3269C66.9625 15.348 66.9201 15.3692 66.8777 15.3904C66.8672 15.401 66.8566 15.4116 66.8354 15.4433H67.1849C67.8098 15.4645 68.2864 15.9093 68.3393 16.5129C68.3499 16.6187 68.3393 16.7246 68.3181 16.8094C68.2228 17.4447 67.5873 17.8895 66.8989 17.8153C66.2635 17.7518 65.8504 17.2329 65.861 16.587C65.8716 16.2164 66.0199 15.9093 66.2846 15.6445C66.6659 15.2527 67.1637 15.0409 67.6827 14.9245C68.4664 14.755 69.2502 14.7762 70.0233 14.9668C71.0824 15.2421 71.6967 15.9834 71.7815 17.0635C71.8026 17.3071 71.8132 17.54 71.8132 17.7836V21.6487C71.8132 21.744 71.8132 21.8393 71.8238 21.9346C71.8662 22.2946 72.1416 22.4747 72.4805 22.337C72.6076 22.284 72.7559 22.2099 72.8618 22.104C72.9994 21.9664 73.1159 21.7969 73.243 21.6381C73.2536 21.5957 73.2748 21.5322 73.3278 21.4687ZM69.5679 18.5037C69.409 18.5037 69.229 18.4931 69.0489 18.5037C68.6888 18.5248 68.4029 18.6837 68.1805 18.959C68.0534 19.1178 67.9475 19.2873 67.8733 19.4779C67.6509 19.9862 67.6403 20.5262 67.7039 21.0663C67.7356 21.2992 67.7992 21.5322 67.9263 21.7228C68.0957 21.9875 68.3287 22.0828 68.6359 22.0087C68.8477 21.9664 69.0172 21.8287 69.1443 21.6593C69.3031 21.4581 69.3984 21.2251 69.4514 20.9816C69.6632 20.1768 69.6103 19.3508 69.5891 18.5354C69.6103 18.5354 69.5997 18.5354 69.5679 18.5037Z" fill="#01004C"/>
<path d="M30.8748 21.5023C30.8537 21.5658 30.8325 21.64 30.8113 21.7035C30.5783 22.1694 30.1864 22.4871 29.6886 22.646C29.1697 22.8154 28.6401 22.8154 28.1211 22.6777C27.4751 22.5083 27.1468 22.0741 27.1044 21.407C27.1044 21.3223 27.1044 21.2376 27.062 21.1317C27.0408 21.174 27.0197 21.2164 26.9985 21.2587C26.9561 21.3646 26.9243 21.4705 26.8714 21.5553C26.5536 22.2647 25.9923 22.6354 25.2403 22.7307C24.9014 22.773 24.5519 22.773 24.213 22.6883C23.3975 22.4765 22.8361 21.7776 22.7832 20.8881C22.7196 19.8715 23.1751 19.1197 24.1071 18.7067C24.5307 18.5161 24.9862 18.4102 25.4416 18.3996C25.897 18.3679 26.3418 18.3784 26.7972 18.3679H27.0726C27.0726 18.0396 27.0832 17.7431 27.0726 17.4572C27.062 17.0018 27.0303 16.5571 26.9032 16.1123C26.829 15.8688 26.7337 15.6252 26.5748 15.4134C26.363 15.1487 26.1088 15.0216 25.7699 15.011C25.2615 15.0005 24.7955 15.1275 24.3507 15.3605C24.3083 15.3817 24.2765 15.4028 24.213 15.4452C24.4036 15.4452 24.5413 15.4346 24.679 15.4452C25.145 15.4876 25.5051 15.7205 25.6852 16.1653C25.8652 16.5994 25.7911 17.0124 25.4839 17.3725C25.145 17.7749 24.5307 17.9337 24.0329 17.7537C23.4187 17.5419 23.1327 16.843 23.3657 16.1865C23.4822 15.8582 23.7046 15.6146 23.9906 15.4134C24.3825 15.1275 24.8379 14.9687 25.3039 14.8946C25.9817 14.7781 26.6596 14.7887 27.3268 14.9475C28.5342 15.2334 29.1697 15.9958 29.2226 17.2348C29.2332 17.4042 29.2332 17.5842 29.2332 17.7537V21.9259C29.2756 22.3283 29.5827 22.5189 29.9534 22.3389C30.1123 22.2647 30.25 22.1483 30.3877 22.0318C30.5042 21.9153 30.5783 21.767 30.6736 21.64C30.716 21.5976 30.7372 21.5447 30.7689 21.5023C30.8219 21.4917 30.8431 21.4917 30.8748 21.5023ZM27.062 18.5055C26.8714 18.5055 26.7019 18.4949 26.5325 18.5055C26.1724 18.5267 25.8864 18.6855 25.664 18.9609C25.5475 19.0985 25.4416 19.2574 25.3674 19.4268C25.0815 20.0622 25.0709 20.7293 25.2615 21.3964C25.3039 21.5235 25.3568 21.6506 25.431 21.7564C25.5793 21.9788 25.8123 22.0635 26.077 22.0212C26.3524 21.9682 26.5431 21.7988 26.6807 21.5764C26.8608 21.2905 26.9561 20.9834 27.0091 20.6552C27.1256 19.9774 27.0938 19.2785 27.0938 18.5902C27.0938 18.5691 27.0832 18.5479 27.062 18.5055Z" fill="#01004C"/>
<path d="M32.6086 10.3098H31.433C31.4224 10.3098 31.4118 10.2886 31.3906 10.2569C31.433 10.2357 31.4859 10.2039 31.5177 10.2039C31.7295 10.1933 31.9202 10.2039 32.132 10.2039H34.8116V22.4876H35.4682C35.6695 22.4981 35.8601 22.4558 36.0613 22.5617C36.019 22.5829 35.9978 22.604 35.9554 22.6146C35.9025 22.6252 35.8389 22.6146 35.7966 22.6146H31.666C31.5813 22.6146 31.4859 22.5935 31.4012 22.5935C31.4012 22.5723 31.4012 22.5511 31.3906 22.5299C31.433 22.5193 31.4965 22.4876 31.5389 22.4876H32.5874C32.6086 22.4664 32.6192 22.4558 32.6192 22.4558C32.6192 22.4558 32.6298 22.4452 32.6298 22.4346C32.6298 22.3923 32.6404 22.3393 32.6404 22.297V10.4369C32.6404 10.4051 32.6298 10.3734 32.6086 10.3098Z" fill="#01004C"/>
<path d="M21.5611 18.3402H17.081C17.0704 18.3826 17.0493 18.4038 17.0493 18.4355C17.0387 19.2827 17.0598 20.1192 17.2505 20.9558C17.3246 21.2841 17.4305 21.6017 17.6 21.8982C17.8965 22.4065 18.3308 22.6183 18.9133 22.5548C19.7606 22.4701 20.4172 22.0677 20.9044 21.39C21.1374 21.0723 21.2963 20.7228 21.4234 20.3416C21.4446 20.2887 21.4658 20.2251 21.487 20.1616C21.614 20.2145 21.5611 20.3098 21.5399 20.3734C21.4128 20.8075 21.2116 21.2205 20.9256 21.5806C20.3961 22.2477 19.7076 22.6289 18.8709 22.7242C18.1296 22.8195 17.3988 22.756 16.7209 22.4489C15.863 22.0677 15.2593 21.4323 14.9416 20.5534C14.5074 19.3568 14.4968 18.1496 14.9522 16.953C15.4288 15.6929 16.382 14.994 17.7059 14.814C18.2566 14.7399 18.818 14.761 19.3475 14.9305C20.4914 15.2905 21.1586 16.1165 21.434 17.2495C21.5081 17.5354 21.5187 17.8319 21.5505 18.139C21.5823 18.2026 21.5717 18.2555 21.5611 18.3402ZM17.0493 18.2132C17.8118 18.2132 18.532 18.2237 19.2734 18.2026C19.284 17.5143 19.2522 16.8789 19.1463 16.233C19.0933 15.9153 19.0192 15.5976 18.8498 15.3223C18.5638 14.8352 18.0448 14.7822 17.7059 15.2164C17.5788 15.3752 17.4729 15.5764 17.4094 15.767C17.1234 16.5506 17.0704 17.3554 17.0493 18.2132Z" fill="#01004C"/>
<path d="M82.0296 22.5313C81.9872 22.563 81.9661 22.5948 81.9237 22.5948C81.8707 22.6054 81.8072 22.6054 81.7648 22.6054H78.185C78.1003 22.6054 77.9944 22.6478 77.9202 22.5101C78.2168 22.4254 78.5027 22.5101 78.8205 22.4572C78.6616 22.1289 78.471 21.8218 78.3015 21.5147C78.1321 21.2076 77.9414 20.8793 77.772 20.5723C77.5919 20.2652 77.4224 19.9475 77.2212 19.6086C76.501 20.5723 75.8126 21.4935 75.0818 22.4466C75.1877 22.4572 75.2407 22.4677 75.2936 22.4677H76.3316C76.4057 22.4677 76.4692 22.4889 76.554 22.4995C76.501 22.6372 76.3951 22.6054 76.321 22.6054H73.9591C73.9168 22.6054 73.8744 22.5736 73.832 22.563V22.5101C73.885 22.4995 73.9485 22.4783 74.0015 22.4783H74.7535C74.8488 22.4783 74.9123 22.4572 74.9653 22.383C75.6855 21.4194 76.3951 20.4769 77.1153 19.5133C77.1153 19.5027 77.1259 19.4921 77.1365 19.471C77.1153 19.4286 77.0941 19.3651 77.0623 19.3227C76.2998 17.9779 75.5372 16.633 74.7852 15.2882C74.7111 15.1611 74.637 15.087 74.4781 15.0976C74.351 15.1082 74.2133 15.1082 74.0862 15.0976C74.0333 15.0976 73.9697 15.0764 73.9062 15.0552C73.9591 14.9281 74.0439 14.9599 74.118 14.9599H77.899C77.9838 14.9599 78.0579 14.9705 78.1426 14.9705C78.1426 14.9917 78.1532 15.0129 78.1532 15.0234C78.1109 15.0446 78.0685 15.0764 78.0261 15.0764C77.8461 15.087 77.666 15.0764 77.486 15.0764H77.2212C77.2636 15.2564 78.4074 17.279 78.6087 17.5225C79.2229 16.7177 79.8161 15.9235 80.4303 15.0976C80.0173 15.0764 79.6466 15.0552 79.2865 15.034C79.2865 15.034 79.2759 15.0023 79.2653 14.9811C79.3077 14.9705 79.3606 14.9493 79.403 14.9493C80.2397 14.907 81.6377 14.9387 81.8072 14.9917C81.7966 15.0976 81.7119 15.0764 81.6483 15.0764C81.373 15.0764 81.0976 15.087 80.8328 15.0764C80.6633 15.0658 80.5574 15.1293 80.4621 15.267C79.9114 16.0082 79.3606 16.7389 78.8099 17.4802C78.7675 17.5437 78.7146 17.6178 78.6616 17.692C78.8099 17.9461 78.9582 18.2002 79.0958 18.4438C79.816 19.7145 80.5574 20.9746 81.2776 22.2454C81.373 22.4042 81.4683 22.4677 81.6483 22.4572C81.7542 22.4677 81.8919 22.4254 82.0296 22.5313Z" fill="#01004C"/>
<path d="M39.8882 14.9602H40.6931C40.9473 14.9602 41.2015 14.939 41.4663 14.9814C41.4239 15.1084 41.3392 15.0978 41.2545 15.0978H39.8988C39.8882 15.172 39.867 15.2249 39.867 15.299V21.2714C39.867 21.4726 39.8882 21.6738 39.9306 21.875C40.0153 22.2562 40.2483 22.3727 40.619 22.2456C40.8308 22.1715 41.0003 22.0339 41.1592 21.875C41.3922 21.6315 41.5722 21.3456 41.7099 21.0279C41.7417 20.9643 41.7734 20.9008 41.8052 20.8267C41.8264 20.8267 41.8476 20.8373 41.8582 20.8373C41.8582 20.8796 41.8899 20.9432 41.8688 20.9749C41.5828 21.7585 40.9261 22.5845 39.7611 22.701C39.5917 22.7222 39.4116 22.7116 39.2421 22.7116C38.3631 22.6692 37.8547 22.1927 37.7488 21.3244C37.717 21.0808 37.7064 20.8267 37.7064 20.5725V15.1084C37.3357 15.0873 36.9968 15.0661 36.6579 15.0449C36.6473 15.0449 36.6473 15.0131 36.6367 14.992C36.8062 14.9178 36.9862 14.9602 37.1557 14.9496C37.3251 14.939 37.4946 14.9496 37.6958 14.9496V13.3082C38.4478 13.2659 39.168 13.1706 39.8247 12.8105C39.9094 13.0012 39.867 13.1706 39.867 13.34C39.8776 13.52 39.867 13.7001 39.867 13.8801V14.3989L39.8882 14.9602Z" fill="#01004C"/>
<path d="M99.3445 12.0547C99.4928 12.0971 99.641 12.1288 99.7893 12.1818C100.192 12.3194 100.594 12.4677 101.007 12.6159C101.092 12.6477 101.166 12.6901 101.24 12.6159C101.177 12.4359 100.658 11.9912 100.245 11.7794C99.8529 11.5676 99.4292 11.4405 98.9844 11.3558V11.3135C99.0479 11.3135 99.1115 11.3029 99.175 11.3029C99.9905 11.377 100.764 11.6311 101.494 12.0229C102.119 12.3512 102.66 12.7748 103.2 13.2195C103.687 13.6219 104.248 13.9396 104.841 14.1514C105.328 14.3208 105.837 14.3844 106.366 14.395C107.193 14.4055 107.976 14.2043 108.718 13.8443C109.226 13.5902 109.48 13.1878 109.459 12.6265C109.448 12.383 109.417 12.1288 109.374 11.8853C109.247 11.3346 108.866 11.0487 108.347 10.9005C108.05 10.8158 107.743 10.8052 107.447 10.8687C107.256 10.9111 107.14 10.9958 107.034 11.1652C106.621 11.9065 105.985 12.2771 105.127 12.2136C104.926 12.203 104.746 12.15 104.577 12.0335C104.587 12.0124 104.587 11.9912 104.598 11.9912C104.894 11.9488 105.064 11.7476 105.233 11.5252C105.381 11.3135 105.519 11.1017 105.689 10.8369C105.604 11.144 105.561 11.4088 105.403 11.6417C105.381 11.6735 105.35 11.6947 105.339 11.737C105.286 11.8535 105.339 11.9382 105.466 11.9382C105.509 11.9382 105.561 11.9276 105.604 11.9065C106.006 11.8217 106.313 11.5888 106.568 11.2711C106.599 11.2393 106.621 11.2076 106.631 11.1758C106.642 11.1228 106.631 11.0487 106.599 11.0064C106.578 10.9746 106.494 10.9746 106.462 10.9852C106.335 11.0275 106.218 11.0805 106.091 11.1123C106.176 10.9746 106.324 10.9005 106.451 10.8158C106.525 10.7734 106.652 10.7416 106.621 10.6146C106.589 10.5087 106.483 10.4981 106.388 10.4981C106.345 10.4981 106.303 10.4875 106.261 10.4557C106.515 10.371 106.769 10.3286 107.023 10.4134C107.171 10.4663 107.32 10.4769 107.478 10.4557C108.093 10.4028 108.675 10.4345 109.205 10.7946C109.544 11.017 109.777 11.3135 109.893 11.7053C110.105 12.4147 109.999 13.0713 109.618 13.6855C109.353 14.109 108.951 14.3526 108.506 14.5644C107.584 14.9985 106.61 15.1044 105.604 14.9774C104.64 14.8503 103.74 14.522 102.893 14.0561C102.797 14.0031 102.702 13.9502 102.607 13.8973C102.596 13.8973 102.585 13.8973 102.564 13.9078C102.554 13.9502 102.522 13.982 102.532 14.0243C102.681 15.0409 103.03 15.9728 103.75 16.7352C103.983 16.9893 104.079 17.2964 104.163 17.6247C104.365 18.366 104.524 19.1284 104.608 19.9014C104.661 20.4203 104.661 20.9498 104.693 21.4686V21.6275C104.704 21.7969 104.746 21.8604 104.915 21.8604C105.561 21.8922 106.155 22.1675 106.779 22.3158C106.801 22.3158 106.822 22.337 106.832 22.3475V22.3793C106.832 22.3899 106.822 22.4005 106.822 22.4005C105.89 22.4005 104.958 22.4111 104.036 22.4111C103.994 22.4111 103.962 22.4005 103.93 22.3899C104.036 21.6487 103.983 20.918 103.888 20.1979C103.803 19.5626 103.676 18.959 103.475 18.3448C103.464 18.3024 103.454 18.2601 103.443 18.2177C103.464 18.2071 103.475 18.1965 103.486 18.1859C103.528 18.2389 103.57 18.3024 103.602 18.366C103.74 18.6625 103.888 18.9801 104.026 19.2766C104.058 19.3402 104.079 19.4037 104.121 19.4672C104.142 19.499 104.185 19.5096 104.216 19.5096C104.248 19.499 104.259 19.4567 104.269 19.4143C104.28 19.4037 104.269 19.3825 104.259 19.3719C104.1 18.8531 103.952 18.3342 103.782 17.8259C103.666 17.5082 103.486 17.2329 103.21 17.0211C102.84 16.7246 102.638 16.301 102.458 15.8775C102.278 15.4539 102.109 15.0303 101.939 14.5962C101.569 13.6325 100.912 12.9548 100.022 12.4677C99.8105 12.3512 99.5775 12.2347 99.3657 12.1182C99.3339 12.0971 99.3445 12.0759 99.3445 12.0547Z" fill="#EB7124"/>
<path d="M3.8125 27.0597V26.7632C3.87605 26.7526 3.93959 26.7314 3.99255 26.7314H49.8735V27.0385C49.8594 27.0527 49.8488 27.0632 49.8418 27.0703C49.8347 27.0774 49.8276 27.0809 49.8206 27.0809C49.7888 27.0915 49.757 27.1021 49.7253 27.1021H4.02432C3.98196 27.1021 3.929 27.1021 3.88664 27.0915C3.86546 27.0915 3.85486 27.0809 3.8125 27.0597Z" fill="#EB7124"/>
<path d="M88.3943 24.0758C88.2672 24.0652 88.1719 24.0546 88.0871 24.044C88.0766 24.044 88.0766 24.0335 88.066 24.0335C88.1931 23.9699 88.6485 23.9487 89.0192 24.0017V28.7563C89.1463 28.7669 89.2628 28.7881 89.3687 28.7987V28.841H88.4367V28.2374C88.4261 28.2268 88.4049 28.2268 88.3943 28.2162C88.3625 28.2586 88.3413 28.2904 88.3202 28.3327C88.0342 28.9363 87.5152 29.0104 87.0068 28.8198C86.7103 28.7034 86.4879 28.5233 86.3502 28.248C86.043 27.655 86.0325 27.0408 86.3608 26.4584C86.5726 26.0666 86.9327 25.8231 87.3987 25.8019C87.7906 25.7701 88.0766 25.9395 88.2672 26.2784C88.3096 26.3525 88.3413 26.4161 88.4049 26.5325V24.0758H88.3943ZM88.4261 27.475C88.4049 27.0514 88.3837 26.7549 88.2566 26.4584C88.1825 26.2784 88.0766 26.1301 87.9177 26.0137C87.6211 25.8019 87.261 25.8654 87.0704 26.1831C86.9751 26.3313 86.9221 26.5114 86.8798 26.6808C86.7844 27.062 86.8056 27.4432 86.8374 27.8138C86.8692 28.0468 86.9115 28.2798 87.0492 28.481C87.261 28.8198 87.6317 28.8834 87.9495 28.6504C88.1083 28.5233 88.2248 28.3645 88.2778 28.1845C88.3413 27.9092 88.3837 27.6444 88.4261 27.475Z" fill="#01004C"/>
<path d="M53.5578 26.489V28.7763H53.865C53.9497 28.7763 54.045 28.7869 54.1298 28.8081C53.9709 28.8716 52.6999 28.8822 52.3398 28.8505C52.5199 28.7234 52.7105 28.8399 52.88 28.7657V24.0747C52.7105 24.0641 52.5305 24.0641 52.361 24.0535C52.5199 23.9688 55.1677 23.9476 55.5702 24.0005C55.6125 24.17 55.6231 25.0701 55.5702 25.3772C55.5384 25.2819 55.5278 25.2395 55.5278 25.1971C55.4854 24.9854 55.4536 24.7842 55.3689 24.583C55.2418 24.2865 54.9982 24.1064 54.6805 24.0853C54.3098 24.0535 53.9391 24.0747 53.5472 24.0747V26.3831C53.7697 26.4149 54.0027 26.4043 54.2251 26.3302C54.4793 26.2561 54.564 26.0337 54.6064 25.7796C54.6805 25.9702 54.6805 26.8808 54.6169 27.1456C54.5958 27.0609 54.5746 27.0185 54.5746 26.9761C54.5322 26.7644 54.3945 26.6161 54.1933 26.542C54.045 26.4679 53.8014 26.4573 53.5578 26.489Z" fill="#01004C"/>
<path d="M58.9599 28.7563C59.0976 28.7668 59.2035 28.788 59.3412 28.7986C59.1505 28.8727 58.2503 28.8833 58.0067 28.7986C58.1232 28.788 58.2185 28.7774 58.3456 28.7563V25.9501C58.2291 25.9395 58.1232 25.9289 57.9961 25.9077C58.1232 25.823 58.5468 25.8124 58.9599 25.8654V26.469C58.9811 26.469 58.9917 26.4796 59.0023 26.4796C59.034 26.416 59.0658 26.3525 59.1082 26.2784C59.3729 25.7912 60.0508 25.6006 60.5274 25.8971C60.6863 25.9924 60.7816 26.1301 60.8239 26.3101C60.8557 26.4584 60.8663 26.6172 60.8769 26.7761C60.8875 27.3479 60.8769 27.9091 60.8769 28.4915V28.7457C61.004 28.7668 61.1205 28.7774 61.237 28.788V28.8304H59.9343C59.9343 28.8198 59.9343 28.7986 59.9237 28.788C59.9766 28.7774 60.0402 28.7668 60.0932 28.7563C60.1461 28.7457 60.1991 28.7457 60.2626 28.7351C60.2626 28.6715 60.2732 28.608 60.2732 28.5445C60.2732 27.9091 60.2732 27.2632 60.2626 26.6278C60.2626 26.469 60.2414 26.2995 60.1991 26.1407C60.1461 25.9289 60.0296 25.8442 59.8072 25.8654C59.5636 25.8865 59.3835 26.0136 59.2564 26.2042C59.1294 26.3948 59.0552 26.6066 59.0234 26.8396C58.9281 27.4855 58.9811 28.1103 58.9599 28.7563Z" fill="#01004C"/>
<path d="M83.5332 23.8799C84.0839 25.5001 84.6241 27.1202 85.1748 28.751C85.3231 28.7616 85.4714 28.7722 85.6302 28.7827C85.482 28.8569 84.1687 28.8886 83.7874 28.8251C83.9992 28.7086 84.2216 28.8145 84.4334 28.7404C84.2852 28.2639 84.1369 27.7873 83.9886 27.3108H82.3893C82.2305 27.7768 82.0716 28.2533 81.9021 28.7616C82.1457 28.7722 82.3682 28.7722 82.58 28.7827C82.4423 28.8675 81.5632 28.8886 81.2031 28.8251C81.4149 28.7192 81.6056 28.8039 81.8174 28.7404C82.3682 27.1308 82.9189 25.5106 83.459 23.8905C83.4802 23.8905 83.512 23.8905 83.5332 23.8799ZM83.2472 24.9388C83.226 24.9388 83.2154 24.9388 83.2049 24.9282C82.9507 25.6801 82.6965 26.4319 82.4317 27.1943H83.9568C83.7132 26.4319 83.4802 25.6907 83.2472 24.9388Z" fill="#01004C"/>
<path d="M66.2043 28.7587C66.3102 28.7693 66.4161 28.7799 66.5326 28.7905C66.3949 28.8646 65.6429 28.8858 65.1981 28.8328C65.304 28.7058 65.4417 28.8116 65.5582 28.7375V25.9525C65.4311 25.9419 65.3252 25.9313 65.1875 25.9102C65.3252 25.836 65.7806 25.8149 66.1619 25.8678V26.482C66.1831 26.482 66.1937 26.482 66.2043 26.4926C66.2466 26.4185 66.2784 26.3443 66.3208 26.2808C66.5855 25.8043 67.2951 25.6454 67.7506 25.9419C67.9306 26.069 68.0153 26.249 68.0471 26.4608C68.0683 26.5985 68.0683 26.7467 68.0789 26.8844V28.7693C68.206 28.7905 68.3225 28.8011 68.4602 28.8116C68.2907 28.8752 67.4434 28.8964 67.1045 28.854C67.2104 28.7481 67.3375 28.8328 67.454 28.7587C67.454 28.7269 67.4752 28.6846 67.4752 28.6422C67.4752 27.9433 67.4646 27.255 67.454 26.5561C67.454 26.4185 67.4222 26.2702 67.3905 26.1431C67.3375 25.9525 67.2316 25.8996 67.0304 25.9102C66.7444 25.9313 66.5538 26.069 66.4055 26.302C66.2678 26.5349 66.1937 26.8103 66.1831 27.0856C66.1619 27.6362 66.1725 28.1763 66.1725 28.7269C66.1831 28.7269 66.1937 28.7375 66.2043 28.7587Z" fill="#01004C"/>
<path d="M62.3924 26.0927C62.4666 26.1139 62.5089 26.1245 62.5513 26.135C62.7419 26.2092 62.8161 26.3786 62.7631 26.5798C62.7207 26.7598 62.5513 26.8763 62.3501 26.8551C62.1594 26.8339 62.0535 26.7069 62.0535 26.4951C62.0535 26.3151 62.1276 26.1668 62.2653 26.0821C62.4136 25.9868 62.5725 25.9127 62.7525 25.8597C63.0385 25.775 63.3244 25.7856 63.6104 25.8491C63.9176 25.9233 64.1188 26.1244 64.1611 26.4421C64.1929 26.6116 64.2035 26.781 64.2035 26.961V28.5706C64.2247 28.7612 64.3518 28.8353 64.5107 28.7294C64.5954 28.6871 64.6589 28.5918 64.7225 28.5176C64.7543 28.4859 64.7754 28.4647 64.839 28.4012C64.7543 28.7082 64.5107 28.8989 64.1929 28.9094C63.854 28.92 63.6951 28.793 63.5575 28.4012C63.5363 28.4329 63.5151 28.4435 63.5045 28.4753C63.2503 28.9836 62.5089 28.9836 62.17 28.7612C61.7146 28.4647 61.704 27.7658 62.1382 27.4375C62.3289 27.2999 62.5513 27.2257 62.7843 27.2046C62.9643 27.1834 63.1444 27.1728 63.3245 27.1622H63.568C63.6104 26.8339 63.5998 26.5268 63.4939 26.2198C63.4092 25.9762 63.2503 25.8597 62.9961 25.8809C62.8055 25.9127 62.5937 25.9444 62.3924 26.0927ZM63.621 27.2575H63.2503C62.869 27.2681 62.6148 27.4693 62.5407 27.8187C62.4983 28.0094 62.5195 28.2 62.5407 28.3906C62.5619 28.5494 62.6466 28.7082 62.8373 28.7506C63.0385 28.793 63.2185 28.7294 63.335 28.5706C63.4304 28.4329 63.5151 28.2635 63.5469 28.0941C63.5998 27.8293 63.5892 27.5646 63.621 27.2575Z" fill="#01004C"/>
<path d="M77.1819 28.4375C77.1289 28.734 76.8854 28.9035 76.5782 28.9247C76.2499 28.9458 76.1122 28.8399 75.9427 28.4481C75.9321 28.4587 75.911 28.4587 75.9004 28.4799C75.6885 28.9035 75.1908 29.0094 74.7883 28.8929C74.4917 28.8188 74.2799 28.6176 74.227 28.2999C74.1634 27.961 74.2481 27.6645 74.5341 27.4527C74.7459 27.3151 74.9683 27.2409 75.2119 27.2198C75.4449 27.1986 75.6885 27.188 75.9533 27.1774C75.9745 26.8809 75.9957 26.5632 75.9004 26.2773C75.8156 26.0126 75.6462 25.8961 75.3708 25.9067C75.1272 25.9173 74.9683 25.9702 74.8095 26.1185C74.8518 26.1291 74.9048 26.1397 74.9366 26.1608C75.1166 26.235 75.2014 26.4256 75.1484 26.6056C75.0954 26.7962 74.8836 26.9021 74.6824 26.8597C74.5129 26.8174 74.407 26.6479 74.4282 26.4679C74.4494 26.3197 74.5235 26.182 74.6506 26.0973C75.1272 25.7902 75.6356 25.7373 76.1651 25.949C76.4299 26.0549 76.5358 26.2985 76.557 26.5738C76.5782 26.7327 76.5782 26.8809 76.5782 27.0397V28.4905C76.5782 28.607 76.557 28.734 76.7053 28.787C76.843 28.8293 76.9383 28.7446 77.0336 28.6599C77.076 28.5646 77.1289 28.5011 77.1819 28.4375ZM75.9533 27.2621H75.6885C75.1378 27.2304 74.8836 27.601 74.873 28.0563C74.8624 28.1834 74.8836 28.3211 74.9154 28.4481C75.0107 28.7976 75.3496 28.8929 75.6356 28.6599C75.7733 28.5328 75.8474 28.374 75.9004 28.194C75.9745 27.8975 75.9533 27.5904 75.9533 27.2621Z" fill="#01004C"/>
<path d="M78.0457 24.0636H77.5586C77.6857 23.9683 78.1092 23.9471 78.6175 24C78.6246 24.0071 78.6316 24.0142 78.6387 24.0212C78.6387 24.0318 78.6493 24.0318 78.6599 24.0424C78.6599 24.0636 78.6705 24.0742 78.6705 24.0848V24.1589C78.6705 25.6837 78.6705 27.2086 78.6811 28.7335C78.6811 28.7441 78.6916 28.7547 78.7022 28.7758C78.8399 28.7864 78.9987 28.797 79.147 28.8076V28.85H77.5692C77.728 28.7229 77.8975 28.8288 78.0563 28.7547V24.0636H78.0457Z" fill="#01004C"/>
<path d="M100.965 27.9268C100.933 28.3927 100.531 28.7951 100.054 28.8904C99.0907 29.081 98.3071 28.4457 98.2753 27.4714C98.2648 27.1749 98.2965 26.8784 98.413 26.6031C98.6354 26.116 99.0272 25.8407 99.5566 25.7983C99.7155 25.7877 99.8849 25.7877 100.044 25.8195C100.658 25.9466 101.029 26.4655 100.986 27.1643C100.33 27.1961 99.6625 27.1643 98.9742 27.1855C98.9531 27.6515 98.9636 28.1068 99.1966 28.5092C99.3343 28.7422 99.5672 28.8375 99.832 28.8269C100.308 28.7951 100.647 28.5516 100.859 28.1174C100.901 28.0539 100.923 27.9903 100.965 27.9268ZM100.287 27.0796C100.308 26.7831 100.277 26.5078 100.171 26.2431C100.097 26.0419 99.959 25.8936 99.7261 25.8725C99.5037 25.8619 99.3237 25.9572 99.1966 26.1584C99.0272 26.4443 98.9742 26.7514 98.9637 27.0796H100.287Z" fill="#01004C"/>
<path d="M71.3631 26.2736C71.1513 25.9771 70.8548 25.8712 70.4947 25.8818C70.1771 25.8924 69.9759 26.0936 69.8594 26.3583C69.69 26.7713 69.6688 27.2055 69.7005 27.6502C69.7217 27.862 69.7429 28.0738 69.817 28.275C69.9971 28.8362 70.5477 28.9951 71.0348 28.6562C71.236 28.5186 71.3525 28.3174 71.4478 28.1056C71.469 28.0526 71.4901 27.9891 71.5643 27.9467C71.5537 27.9891 71.5643 28.042 71.5431 28.0844C71.3737 28.5292 71.1089 28.868 70.6006 28.9104C70.05 28.9633 69.5947 28.7939 69.277 28.3385C69.0334 27.9785 68.9805 27.5761 69.0122 27.1525C69.0228 27.0361 69.0546 26.9408 69.0758 26.8349C69.3511 25.8924 70.23 25.6594 70.9289 25.8712C71.3419 25.9983 71.5854 26.3372 71.5431 26.7078C71.5219 26.8984 71.416 27.0149 71.2466 27.0466C71.0983 27.0678 70.9607 27.0255 70.8654 26.909C70.7701 26.7819 70.7595 26.6231 70.8442 26.4854C70.9183 26.3583 71.056 26.2948 71.2042 26.316C71.2466 26.3266 71.2995 26.3372 71.3313 26.3477C71.3525 26.2948 71.3525 26.2842 71.3631 26.2736Z" fill="#01004C"/>
<path d="M101.912 25.9476C101.785 25.937 101.679 25.9264 101.542 25.9158C101.679 25.8311 102.135 25.8205 102.505 25.8735V26.3923C102.527 26.3923 102.537 26.3923 102.548 26.4029C102.59 26.3076 102.643 26.2123 102.696 26.117C102.866 25.8523 103.12 25.7464 103.416 25.8099C103.702 25.8629 103.893 26.1064 103.871 26.3712C103.85 26.583 103.702 26.7418 103.49 26.7418C103.278 26.7418 103.13 26.6253 103.109 26.4347C103.077 26.2229 103.194 26.0535 103.406 26.0005C103.448 25.99 103.49 25.99 103.543 25.9794C103.289 25.8311 103.014 25.8523 102.834 26.0641C102.728 26.1911 102.654 26.3394 102.611 26.4877C102.558 26.6783 102.516 26.8795 102.505 27.0912C102.484 27.6207 102.495 28.1396 102.495 28.6585C102.495 28.6902 102.505 28.7114 102.516 28.7644C102.633 28.7749 102.738 28.7855 102.887 28.8067C102.707 28.8808 101.944 28.8914 101.531 28.8491C101.637 28.7326 101.775 28.8279 101.891 28.7538L101.912 25.9476Z" fill="#01004C"/>
<path d="M95.7551 28.652C95.6492 28.7473 95.5645 28.832 95.4691 28.9273C95.395 28.7579 95.3844 28.239 95.448 27.9743C95.4797 28.0378 95.4903 28.0802 95.5009 28.1119C95.6703 28.6732 96.3586 29.0014 96.8987 28.7685C97.1105 28.6838 97.2164 28.5355 97.2376 28.3025C97.2587 28.0802 97.1317 27.9213 96.9411 27.8366C96.761 27.7519 96.5704 27.7095 96.3904 27.6248C96.221 27.5613 96.0304 27.4978 95.8821 27.4025C95.5327 27.1907 95.4056 26.82 95.5115 26.4282C95.6174 26.047 95.9139 25.8141 96.3163 25.7929C96.6022 25.7823 96.8563 25.867 97.0999 26.0364C97.1952 25.9517 97.2799 25.8776 97.3752 25.7929C97.4388 25.9411 97.4493 26.4071 97.3964 26.7247C97.3646 26.6612 97.3435 26.6188 97.3329 26.5871C97.1952 26.0788 96.6763 25.7717 96.168 25.8988C96.0621 25.9305 95.9563 25.9941 95.8715 26.0788C95.7233 26.227 95.7445 26.46 95.9033 26.5977C96.0092 26.693 96.1363 26.7565 96.2633 26.8095C96.4328 26.8836 96.6128 26.9365 96.7928 27.0107C96.8881 27.053 96.9834 27.0848 97.0787 27.1271C97.5129 27.3389 97.6823 27.646 97.6188 28.0908C97.5658 28.4826 97.2481 28.8108 96.8352 28.8956C96.4434 28.9803 96.0939 28.8956 95.7551 28.652Z" fill="#01004C"/>
<path d="M106.126 26.0461C106.222 25.9508 106.306 25.8767 106.391 25.792C106.455 25.9402 106.476 26.3744 106.423 26.7239C106.391 26.6603 106.37 26.6286 106.359 26.5968C106.222 26.0885 105.703 25.7814 105.194 25.9085C105.099 25.9297 105.004 25.9826 104.93 26.0461C104.76 26.1944 104.75 26.4485 104.93 26.5968C105.036 26.6921 105.163 26.7556 105.29 26.8086C105.459 26.8827 105.639 26.9356 105.819 26.9992C105.914 27.0415 106.01 27.0733 106.105 27.1157C106.539 27.3274 106.709 27.6345 106.645 28.0793C106.592 28.4711 106.274 28.7994 105.861 28.8841C105.48 28.9688 105.12 28.8841 104.792 28.6511C104.686 28.7358 104.591 28.8311 104.453 28.9476V28.0052C104.464 28.0052 104.474 27.9946 104.495 27.9946C104.517 28.0369 104.527 28.0687 104.538 28.1111C104.707 28.6829 105.385 29.0006 105.925 28.7676C106.137 28.6829 106.253 28.5346 106.264 28.3017C106.285 28.0793 106.158 27.9204 105.967 27.8357C105.787 27.751 105.597 27.6981 105.417 27.6239C105.247 27.5604 105.057 27.4969 104.908 27.4016C104.559 27.1898 104.432 26.8297 104.538 26.4274C104.644 26.0461 104.94 25.8132 105.343 25.792C105.618 25.792 105.872 25.8767 106.126 26.0461Z" fill="#01004C"/>
<path d="M91.6029 28.0663C91.8995 27.3462 92.1643 26.6579 92.4608 25.9167H91.8677C92.0266 25.8214 92.5985 25.8108 93.001 25.8637C92.8633 25.9802 92.7044 25.8955 92.5455 25.9484C92.1431 26.9121 91.7618 27.9287 91.3276 28.9135C90.8827 27.9287 90.512 26.9333 90.1096 25.9379C89.9931 25.9273 89.8872 25.9167 89.7812 25.8955C89.9719 25.8214 91.0734 25.8108 91.3064 25.8743C91.1369 25.9484 90.9781 25.8849 90.8404 25.9273C90.8192 26.1179 91.4335 27.791 91.6029 28.0663Z" fill="#01004C"/>
<path d="M94.4207 28.7562C94.5477 28.7668 94.6536 28.7774 94.8019 28.7986C94.643 28.8727 93.8806 28.8939 93.457 28.841C93.5629 28.7139 93.7006 28.8198 93.8171 28.7457V25.9501C93.69 25.9395 93.5841 25.9289 93.457 25.9077C93.5841 25.8336 93.9865 25.8124 94.4207 25.8653C94.4207 26.1724 94.4312 26.5007 94.4312 26.8078V27.7714C94.4207 28.0997 94.4207 28.4174 94.4207 28.7562Z" fill="#01004C"/>
<path d="M56.1551 28.7868C56.261 28.7762 56.3669 28.7656 56.4834 28.755V25.9488C56.3563 25.9382 56.261 25.9276 56.1445 25.9171V25.8641C56.2928 25.8641 56.441 25.8535 56.5893 25.8535H57.0764C57.087 25.9594 57.0976 26.0441 57.0976 26.1394V28.7656C57.2246 28.7762 57.3411 28.7974 57.447 28.8079V28.8503H56.1445C56.1551 28.8185 56.1551 28.8079 56.1551 28.7868Z" fill="#01004C"/>
<path d="M73.1863 28.7523C73.3345 28.7628 73.4404 28.7734 73.5463 28.784C73.3875 28.8582 72.5086 28.8687 72.2227 28.8264C72.3391 28.7311 72.4556 28.8052 72.5615 28.7523C72.6039 28.5828 72.625 26.2426 72.5827 25.9461C72.4662 25.9355 72.3709 25.9249 72.2227 25.9037C72.3921 25.8296 72.8898 25.819 73.1969 25.872L73.1863 28.7523Z" fill="#01004C"/>
<path d="M56.7356 24.718C56.5238 24.718 56.3438 24.5274 56.3438 24.3156C56.3438 24.0933 56.5344 23.9238 56.7461 23.9238C56.9685 23.9238 57.1274 24.1038 57.1274 24.3262C57.1274 24.5486 56.9579 24.7286 56.7356 24.718Z" fill="#01004C"/>
<path d="M72.8325 23.9238C73.0549 23.9238 73.2243 24.0933 73.2243 24.3156C73.2243 24.538 73.0549 24.718 72.8325 24.718C72.6101 24.718 72.4407 24.538 72.4301 24.3262C72.4195 24.1144 72.5996 23.9238 72.8325 23.9238Z" fill="#01004C"/>
<path d="M94.072 23.9243C94.2837 23.9243 94.4638 24.1149 94.4638 24.3373C94.4532 24.5491 94.2732 24.7291 94.0614 24.7291C93.839 24.7291 93.6802 24.5491 93.6802 24.3161C93.6696 24.0831 93.839 23.9137 94.072 23.9243Z" fill="#01004C"/>
</g>
<defs>
<clipPath id="clip0_8039_40336">
<rect width="110" height="32" fill="white"/>
</clipPath>
</defs>
</svg>
