<svg width="48" height="48" viewBox="0 0 48 48" fill="none" xmlns="http://www.w3.org/2000/svg">
<g clip-path="url(#clip0_7226_39581)">
<path d="M1.58984 28.4027C1.58887 31.422 2.42169 34.3829 3.99649 36.959C5.57128 39.5351 7.82688 41.6262 10.5146 43.0019C13.2023 44.3776 16.2176 44.9843 19.2282 44.7552C22.2388 44.5261 25.1277 43.4701 27.5762 41.7035C27.7016 41.6344 27.8061 41.5329 27.8788 41.4096C27.9516 41.2864 27.9899 41.1459 27.9898 41.0027V36.0027C27.9948 34.5953 27.6252 33.2119 26.919 31.9944C26.2129 30.777 25.1956 29.7693 23.9714 29.0747C24.8506 27.9531 25.3967 26.6068 25.5473 25.1896C25.6979 23.7725 25.447 22.3415 24.8233 21.0601C24.1995 19.7787 23.228 18.6985 22.0197 17.9428C20.8114 17.1871 19.415 16.7864 17.9898 16.7864C16.5647 16.7864 15.1683 17.1871 13.96 17.9428C12.7516 18.6985 11.7802 19.7787 11.1564 21.0601C10.5327 22.3415 10.2818 23.7725 10.4324 25.1896C10.583 26.6068 11.1291 27.9531 12.0082 29.0747C10.7841 29.7692 9.76671 30.7769 9.06054 31.9944C8.35438 33.2119 7.98484 34.5953 7.98984 36.0027V39.2827C2.47304 34.2147 1.61704 25.8227 5.99624 19.7451C10.3754 13.6675 18.6066 11.8243 25.1602 15.4531C25.3456 15.5565 25.5644 15.5819 25.7685 15.5239C25.8695 15.4952 25.964 15.4469 26.0464 15.3817C26.1287 15.3165 26.1975 15.2357 26.2486 15.1439C26.2998 15.0522 26.3324 14.9512 26.3445 14.8469C26.3567 14.7425 26.3482 14.6368 26.3195 14.5357C26.2907 14.4346 26.2424 14.3402 26.1772 14.2578C26.112 14.1754 26.0312 14.1067 25.9394 14.0555C23.4426 12.6718 20.6278 11.9638 17.7734 12.0014C14.919 12.0391 12.1239 12.8212 9.66441 14.2703C7.20495 15.7195 5.16635 17.7855 3.75019 20.2641C2.33403 22.7428 1.58937 25.5481 1.58984 28.4027ZM17.9898 18.4027C19.1765 18.4027 20.3366 18.7546 21.3233 19.4139C22.31 20.0732 23.079 21.0103 23.5331 22.1066C23.9872 23.203 24.1061 24.4094 23.8746 25.5733C23.643 26.7372 23.0716 27.8063 22.2325 28.6454C21.3934 29.4845 20.3243 30.0559 19.1604 30.2874C17.9965 30.519 16.7901 30.4001 15.6937 29.946C14.5974 29.4919 13.6603 28.7228 13.001 27.7362C12.3417 26.7495 11.9898 25.5894 11.9898 24.4027C11.9915 22.812 12.6242 21.2868 13.7491 20.162C14.8739 19.0371 16.3991 18.4044 17.9898 18.4027ZM9.58984 36.0027C9.58775 34.8076 9.92377 33.6362 10.5591 32.624C11.1944 31.6117 12.1031 30.7997 13.1802 30.2819C14.536 31.3946 16.2356 32.0027 17.9894 32.0027C19.7433 32.0027 21.4429 31.3946 22.7986 30.2819C23.8761 30.7995 24.785 31.6113 25.4205 32.6236C26.056 33.636 26.3921 34.8075 26.3898 36.0027V40.5835C25.6337 41.1055 24.8302 41.5552 23.9898 41.9267V37.6027C23.9898 37.3906 23.9056 37.1871 23.7555 37.037C23.6055 36.887 23.402 36.8027 23.1898 36.8027C22.9777 36.8027 22.7742 36.887 22.6242 37.037C22.4741 37.1871 22.3898 37.3906 22.3898 37.6027V42.5403C19.523 43.4254 16.4556 43.4235 13.5898 42.5347V37.6027C13.5898 37.3906 13.5056 37.1871 13.3555 37.037C13.2055 36.887 13.002 36.8027 12.7898 36.8027C12.5777 36.8027 12.3742 36.887 12.2242 37.037C12.0741 37.1871 11.9898 37.3906 11.9898 37.6027V41.9227C11.1497 41.5499 10.3462 41.0994 9.58984 40.5771V36.0027Z" fill="#EB7124"/>
<path d="M46.3224 8.34353C46.2316 8.05782 46.0618 7.80364 45.8326 7.61039C45.6034 7.41715 45.3242 7.29273 45.0272 7.25153L39.2224 6.41713L36.6272 1.20673C36.4955 0.939878 36.2915 0.715337 36.0385 0.558641C35.7855 0.401945 35.4936 0.31938 35.196 0.320334C34.8983 0.318803 34.6061 0.400836 34.3527 0.557107C34.0993 0.713378 33.8948 0.937618 33.7624 1.20433L31.1576 6.41713L25.3624 7.25073C25.0661 7.29373 24.7878 7.419 24.5592 7.61232C24.3305 7.80563 24.1607 8.05922 24.069 8.34425C23.9774 8.62928 23.9675 8.93432 24.0406 9.22468C24.1137 9.51504 24.2667 9.77906 24.4824 9.98673L28.6672 14.0195L27.6784 19.7251C27.6277 20.0188 27.6599 20.3208 27.7715 20.5971C27.8831 20.8734 28.0697 21.1131 28.3102 21.2891C28.5508 21.465 28.8356 21.5703 29.1328 21.5931C29.4299 21.6159 29.7275 21.5552 29.992 21.4179L35.1976 18.7131L40.4024 21.4187C40.667 21.5563 40.9648 21.6172 41.2622 21.5945C41.5596 21.5718 41.8447 21.4664 42.0853 21.2903C42.326 21.1142 42.5127 20.8743 42.6243 20.5978C42.7358 20.3212 42.7679 20.019 42.7168 19.7251L41.7272 14.0195L45.9128 9.98673C46.1292 9.77939 46.2825 9.51506 46.355 9.22429C46.4274 8.93352 46.4162 8.62817 46.3224 8.34353ZM40.3088 13.1619C40.2147 13.2527 40.1443 13.3651 40.1038 13.4894C40.0632 13.6136 40.0536 13.7459 40.076 13.8747L41.1392 20.0003L35.5656 17.1035C35.4517 17.0444 35.3252 17.0135 35.1968 17.0135C35.0685 17.0135 34.942 17.0444 34.828 17.1035L29.2536 20.0003L30.316 13.8763C30.3383 13.7475 30.3287 13.6151 30.288 13.4909C30.2472 13.3666 30.1767 13.2542 30.0824 13.1635L25.5912 8.83633L31.8008 7.94273C31.9287 7.92438 32.0501 7.87536 32.1549 7.79985C32.2597 7.72434 32.3446 7.6246 32.4024 7.50913L35.1952 1.92033L37.9776 7.50593C38.0353 7.6218 38.1203 7.72193 38.2252 7.79773C38.3302 7.87353 38.4519 7.92274 38.58 7.94113L44.8024 8.83473L40.3088 13.1619Z" fill="#EB7124"/>
<path d="M35.5467 6.58461C35.4527 6.53757 35.3504 6.50951 35.2456 6.50203C35.1408 6.49455 35.0355 6.50779 34.9358 6.541C34.8361 6.57421 34.7439 6.62673 34.6645 6.69557C34.5851 6.76441 34.5201 6.84822 34.4731 6.94221L33.2691 9.35101L30.6739 9.72461C30.5679 9.73726 30.4656 9.77097 30.3729 9.82376C30.2802 9.87655 30.199 9.94734 30.134 10.032C30.0691 10.1166 30.0217 10.2134 29.9948 10.3166C29.9678 10.4198 29.9617 10.5274 29.9769 10.633C29.9921 10.7386 30.0283 10.8401 30.0833 10.9315C30.1383 11.0229 30.2111 11.1024 30.2972 11.1652C30.3834 11.2281 30.4813 11.2731 30.5852 11.2976C30.689 11.3221 30.7967 11.3256 30.9019 11.3078L33.9115 10.875C34.0393 10.8567 34.1608 10.8076 34.2656 10.7321C34.3703 10.6566 34.4552 10.5569 34.5131 10.4414L35.9043 7.65821C35.9513 7.56424 35.9794 7.46192 35.9869 7.35711C35.9943 7.25229 35.9811 7.14702 35.9479 7.04733C35.9147 6.94763 35.8622 6.85545 35.7933 6.77605C35.7245 6.69666 35.6407 6.63161 35.5467 6.58461ZM36.0003 22.4054C36.0003 22.1932 35.916 21.9898 35.766 21.8397C35.6159 21.6897 35.4125 21.6054 35.2003 21.6054C34.9881 21.6054 34.7846 21.6897 34.6346 21.8397C34.4846 21.9898 34.4003 22.1932 34.4003 22.4054V38.4054C34.4003 38.6176 34.4846 38.8211 34.6346 38.9711C34.7846 39.1211 34.9881 39.2054 35.2003 39.2054C35.4125 39.2054 35.6159 39.1211 35.766 38.9711C35.916 38.8211 36.0003 38.6176 36.0003 38.4054V22.4054ZM40.0003 25.6054C40.0003 25.3932 39.916 25.1898 39.766 25.0397C39.6159 24.8897 39.4125 24.8054 39.2003 24.8054C38.9881 24.8054 38.7846 24.8897 38.6346 25.0397C38.4846 25.1898 38.4003 25.3932 38.4003 25.6054V41.6054C38.4003 41.8176 38.4846 42.0211 38.6346 42.1711C38.7846 42.3211 38.9881 42.4054 39.2003 42.4054C39.4125 42.4054 39.6159 42.3211 39.766 42.1711C39.916 42.0211 40.0003 41.8176 40.0003 41.6054V25.6054ZM32.0003 25.6054C32.0003 25.3932 31.916 25.1898 31.766 25.0397C31.6159 24.8897 31.4125 24.8054 31.2003 24.8054C30.9881 24.8054 30.7846 24.8897 30.6346 25.0397C30.4846 25.1898 30.4003 25.3932 30.4003 25.6054V41.6054C30.4003 41.8176 30.4846 42.0211 30.6346 42.1711C30.7846 42.3211 30.9881 42.4054 31.2003 42.4054C31.4125 42.4054 31.6159 42.3211 31.766 42.1711C31.916 42.0211 32.0003 41.8176 32.0003 41.6054V25.6054ZM31.2003 44.0054C30.9881 44.0054 30.7846 44.0897 30.6346 44.2397C30.4846 44.3898 30.4003 44.5932 30.4003 44.8054V47.2054C30.4003 47.4176 30.4846 47.6211 30.6346 47.7711C30.7846 47.9211 30.9881 48.0054 31.2003 48.0054C31.4125 48.0054 31.6159 47.9211 31.766 47.7711C31.916 47.6211 32.0003 47.4176 32.0003 47.2054V44.8054C32.0003 44.5932 31.916 44.3898 31.766 44.2397C31.6159 44.0897 31.4125 44.0054 31.2003 44.0054ZM35.2003 40.8054C34.9881 40.8054 34.7846 40.8897 34.6346 41.0397C34.4846 41.1898 34.4003 41.3932 34.4003 41.6054V44.0054C34.4003 44.2176 34.4846 44.4211 34.6346 44.5711C34.7846 44.7211 34.9881 44.8054 35.2003 44.8054C35.4125 44.8054 35.6159 44.7211 35.766 44.5711C35.916 44.4211 36.0003 44.2176 36.0003 44.0054V41.6054C36.0003 41.3932 35.916 41.1898 35.766 41.0397C35.6159 40.8897 35.4125 40.8054 35.2003 40.8054ZM39.2003 44.0054C38.9881 44.0054 38.7846 44.0897 38.6346 44.2397C38.4846 44.3898 38.4003 44.5932 38.4003 44.8054V47.2054C38.4003 47.4176 38.4846 47.6211 38.6346 47.7711C38.7846 47.9211 38.9881 48.0054 39.2003 48.0054C39.4125 48.0054 39.6159 47.9211 39.766 47.7711C39.916 47.6211 40.0003 47.4176 40.0003 47.2054V44.8054C40.0003 44.5932 39.916 44.3898 39.766 44.2397C39.6159 44.0897 39.4125 44.0054 39.2003 44.0054Z" fill="#EB7124"/>
</g>
<defs>
<clipPath id="clip0_7226_39581">
<rect width="48" height="48" fill="white"/>
</clipPath>
</defs>
</svg>
