<svg width="48" height="46" viewBox="0 0 48 46" fill="none" xmlns="http://www.w3.org/2000/svg">
<path d="M46.1906 24.6124H28.2975C27.8714 23.8501 27.2483 23.2149 26.4926 22.7728C25.737 22.3306 24.8763 22.0975 23.9997 22.0975C23.1231 22.0975 22.2625 22.3306 21.5068 22.7728C20.7512 23.2149 20.128 23.8501 19.7019 24.6124H1.8066C1.63255 24.6124 1.46563 24.6812 1.34256 24.8036C1.21949 24.9261 1.15035 25.0922 1.15035 25.2654V28.7246C1.15035 28.8978 1.21949 29.0639 1.34256 29.1863C1.46563 29.3088 1.63255 29.3776 1.8066 29.3776H19.7019C19.8819 29.6982 20.0974 29.9977 20.3444 30.2705L15.7645 40.411H14.693C14.0581 40.4118 13.4495 40.663 13.0007 41.1098C12.5518 41.5565 12.2993 42.1621 12.2986 42.7938V44.5234C12.2986 44.6966 12.3677 44.8627 12.4908 44.9852C12.6138 45.1077 12.7808 45.1765 12.9548 45.1765H35.0416C35.2157 45.1765 35.3826 45.1077 35.5057 44.9852C35.6287 44.8627 35.6979 44.6966 35.6979 44.5234V42.7938C35.6972 42.1621 35.4447 41.5565 34.9958 41.1098C34.5469 40.663 33.9383 40.4118 33.3035 40.411H32.2323L27.6551 30.2709C27.902 29.998 28.1176 29.6985 28.2976 29.3779H46.1906C46.3646 29.3779 46.5316 29.3091 46.6546 29.1866C46.7777 29.0642 46.8468 28.8981 46.8468 28.7248V25.2654C46.8468 25.0922 46.7777 24.9261 46.6546 24.8036C46.5316 24.6812 46.3646 24.6124 46.1906 24.6124ZM19.1997 28.0714H2.46305V25.9185H19.1997C19.038 26.627 19.038 27.3626 19.1997 28.0711V28.0714ZM23.9997 23.4038C24.7135 23.4039 25.4112 23.6146 26.0046 24.0093C26.5981 24.404 27.0605 24.9649 27.3336 25.6212C27.6067 26.2774 27.6781 26.9995 27.5388 27.6961C27.3995 28.3928 27.0557 29.0326 26.551 29.5348C26.0462 30.0371 25.4032 30.379 24.7031 30.5176C24.003 30.6561 23.2774 30.5849 22.618 30.3131C21.9586 30.0412 21.395 29.5809 20.9984 28.9903C20.6019 28.3997 20.3903 27.7054 20.3903 26.9951C20.3914 26.0429 20.772 25.1299 21.4487 24.4567C22.1254 23.7834 23.0428 23.4047 23.9997 23.4038ZM31.808 41.7174H33.3038C33.5905 41.7177 33.8655 41.8312 34.0682 42.033C34.271 42.2348 34.3851 42.5084 34.3855 42.7937V43.8701H13.6114V42.7938C13.6117 42.5085 13.7258 42.2349 13.9285 42.0331C14.1313 41.8314 14.4062 41.7179 14.693 41.7175H31.808V41.7174ZM30.7931 40.4113H17.2039L21.3892 31.1446C22.1712 31.6337 23.0761 31.8932 23.9997 31.8932C24.9233 31.8932 25.8281 31.6337 26.6101 31.1446L30.7931 40.4113ZM45.5343 28.0714H28.8003C28.962 27.3629 28.962 26.6273 28.8003 25.9188H45.5343V28.0714ZM37.7155 17.985C39.2561 17.985 40.7621 17.5304 42.043 16.6787C43.3239 15.827 44.3223 14.6164 44.9119 13.2C45.5014 11.7837 45.6557 10.2251 45.3551 8.72152C45.0546 7.21792 44.3127 5.83676 43.2234 4.75272C42.134 3.66868 40.7461 2.93044 39.2351 2.63135C37.7241 2.33227 36.158 2.48577 34.7347 3.07245C33.3113 3.65913 32.0948 4.65263 31.2389 5.92733C30.383 7.20203 29.9262 8.70066 29.9262 10.2337C29.9285 12.2888 30.7499 14.259 32.2102 15.7122C33.6705 17.1653 35.6504 17.9827 37.7155 17.985ZM37.7155 3.7889C38.9964 3.7889 40.2486 4.16688 41.3136 4.87505C42.3786 5.58322 43.2087 6.58976 43.6989 7.7674C44.1891 8.94504 44.3174 10.2409 44.0675 11.4911C43.8176 12.7412 43.2008 13.8896 42.295 14.7909C41.3893 15.6922 40.2353 16.3061 38.979 16.5547C37.7227 16.8034 36.4205 16.6758 35.2371 16.188C34.0537 15.7002 33.0422 14.8741 32.3306 13.8143C31.6189 12.7544 31.2391 11.5084 31.2391 10.2337C31.2411 8.52509 31.9241 6.88702 33.1382 5.67885C34.3523 4.47069 35.9985 3.79111 37.7155 3.78918V3.7889ZM35.7354 20.2773L37.1471 22.7096C37.2047 22.8089 37.2875 22.8914 37.3873 22.9488C37.4871 23.0061 37.6003 23.0363 37.7155 23.0363C37.8307 23.0363 37.9439 23.0061 38.0437 22.9488C38.1435 22.8914 38.2263 22.8089 38.2839 22.7096L39.6956 20.2772C42.2032 19.7876 44.4378 18.3865 45.9641 16.347C47.4903 14.3074 48.1989 11.7755 47.9518 9.24446C47.7046 6.71344 46.5194 4.36463 44.6271 2.65567C42.7348 0.946707 40.2709 0 37.7155 0C35.1601 0 32.6962 0.946707 30.8039 2.65567C28.9116 4.36463 27.7264 6.71344 27.4792 9.24446C27.2321 11.7755 27.9406 14.3074 29.4669 16.347C30.9932 18.3865 33.2278 19.7876 35.7354 20.2772V20.2773ZM37.7155 1.3056C39.9684 1.30573 42.1388 2.14929 43.7954 3.66867C45.4521 5.18806 46.4736 7.27204 46.6572 9.50651C46.8407 11.741 46.1727 13.9624 44.786 15.7293C43.3993 17.4962 41.3954 18.6793 39.1724 19.0435C39.0757 19.0592 38.9838 19.0962 38.9033 19.1519C38.8229 19.2075 38.756 19.2804 38.7076 19.3651L37.7155 21.0765L36.8112 19.5185L36.7235 19.3651C36.6751 19.2803 36.6082 19.2074 36.5277 19.1517C36.4473 19.096 36.3553 19.059 36.2586 19.0433C34.0359 18.6789 32.0322 17.4957 30.6457 15.7288C29.2593 13.962 28.5915 11.7408 28.775 9.5065C28.9585 7.27223 29.9799 5.18841 31.6363 3.66905C33.2927 2.1497 35.4628 1.30601 37.7155 1.3056ZM8.30439 20.2777L9.71572 22.7096C9.77333 22.8089 9.85618 22.8914 9.95596 22.9487C10.0557 23.006 10.1689 23.0362 10.2841 23.0362C10.3994 23.0362 10.5126 23.006 10.6124 22.9487C10.7122 22.8914 10.795 22.8089 10.8526 22.7096L12.2612 20.2782C14.7686 19.789 17.0031 18.3883 18.5293 16.3492C20.0556 14.3101 20.7643 11.7785 20.5173 9.24779C20.2703 6.71708 19.0854 4.36852 17.1934 2.65972C15.3014 0.950919 12.8378 0.00429414 10.2827 0.00429414C7.72765 0.00429414 5.2641 0.950919 3.37209 2.65972C1.48007 4.36852 0.295141 6.71708 0.0481707 9.24779C-0.1988 11.7785 0.509885 14.3101 2.03614 16.3492C3.56239 18.3883 5.79688 19.789 8.30421 20.2782L8.30439 20.2777ZM10.2839 1.3056C12.5369 1.30573 14.7073 2.14929 16.3639 3.66867C18.0205 5.18806 19.0421 7.27204 19.2256 9.50651C19.4091 11.741 18.7412 13.9624 17.3545 15.7293C15.9678 17.4962 13.9638 18.6793 11.7408 19.0435C11.6456 19.0589 11.5549 19.0951 11.4753 19.1495C11.3957 19.2038 11.3291 19.275 11.2803 19.3579L10.2839 21.076L9.37578 19.5113L9.2855 19.3579C9.2367 19.275 9.17013 19.2038 9.09053 19.1495C9.01093 19.0951 8.92026 19.0589 8.82499 19.0435C6.60183 18.6793 4.59774 17.496 3.21103 15.7289C1.82432 13.9618 1.1565 11.7401 1.3403 9.50549C1.5241 7.27086 2.54606 5.18685 4.20308 3.66763C5.8601 2.14841 8.03086 1.30521 10.2839 1.3056ZM10.2839 17.985C11.8244 17.9846 13.3302 17.5296 14.6108 16.6776C15.8914 15.8256 16.8895 14.6148 17.4787 13.1984C18.0678 11.782 18.2218 10.2235 17.9209 8.72009C17.6201 7.21664 16.8781 5.83571 15.7886 4.7519C14.6992 3.66809 13.3113 2.93008 11.8004 2.63118C10.2894 2.33228 8.7234 2.48592 7.30022 3.07267C5.87705 3.65942 4.66067 4.65292 3.80487 5.92757C2.94908 7.20222 2.4923 8.70076 2.4923 10.2337C2.49463 12.2892 3.31636 14.2598 4.77714 15.713C6.23792 17.1662 8.2184 17.9833 10.2839 17.985ZM10.2839 3.7889C11.5647 3.78942 12.8166 4.16784 13.8813 4.87632C14.946 5.5848 15.7757 6.59153 16.2655 7.76921C16.7553 8.94689 16.8832 10.2427 16.633 11.4927C16.3828 12.7427 15.7658 13.8908 14.8599 14.7918C13.9541 15.6929 12.8001 16.3065 11.5438 16.5549C10.2876 16.8034 8.98556 16.6756 7.8023 16.1877C6.61904 15.6999 5.60772 14.8738 4.8962 13.814C4.18468 12.7542 3.80491 11.5083 3.80491 10.2337C3.80692 8.52464 4.49027 6.88617 5.70497 5.67793C6.91967 4.4697 8.56648 3.79041 10.2839 3.78918V3.7889Z" fill="#EB7124"/>
<path d="M35.4027 13.0684L35.7433 13.8888C36.2696 13.7139 37.1272 13.4668 37.3848 13.4668C37.7583 13.4668 38.0364 13.5594 38.3582 13.6662C38.7037 13.7816 39.0955 13.912 39.6134 13.912C40.138 13.912 40.9853 13.502 41.1497 13.4201L40.7508 12.6236C40.4295 12.7839 39.8456 13.0216 39.6134 13.0216C39.2399 13.0216 38.9617 12.929 38.6399 12.8222C38.2945 12.7069 37.9027 12.5764 37.3848 12.5764C37.2827 12.5764 37.1504 12.5929 37.0028 12.6205C37.252 12.109 37.3848 11.4906 37.3848 10.7957H38.7219V9.90528H37.2181C37.1994 9.85764 37.1807 9.80911 37.1624 9.76415C37.0474 9.48323 36.9391 9.21746 36.9391 8.5697C36.9391 7.96024 37.1713 7.23413 38.2762 7.23413C39.2675 7.23413 39.6227 8.22557 39.6366 8.26519L40.4816 7.98339C40.4593 7.91661 39.916 6.34375 38.2762 6.34375C36.6329 6.34375 36.0477 7.49368 36.0477 8.5697C36.0477 9.23348 36.152 9.6159 36.2607 9.90528H35.1562V10.7957H36.4934C36.4934 11.8939 36.0958 12.7224 35.4027 13.0684Z" fill="#EB7124"/>
<path d="M7.18398 13.0684L7.5245 13.8888C8.05089 13.7139 8.90844 13.4668 9.16606 13.4668C9.53957 13.4668 9.81769 13.5594 10.1395 13.6662C10.4849 13.7816 10.8767 13.912 11.3946 13.912C11.9192 13.912 12.7665 13.502 12.931 13.4201L12.5321 12.6236C12.2107 12.7839 11.6268 13.0216 11.3946 13.0216C11.0211 13.0216 10.743 12.929 10.4212 12.8222C10.0758 12.7069 9.68398 12.5764 9.16606 12.5764C9.06399 12.5764 8.93162 12.5929 8.78409 12.6205C9.03324 12.109 9.16606 11.4906 9.16606 10.7957H10.5032V9.90528H8.99937C8.98065 9.85764 8.96193 9.80911 8.94365 9.76415C8.82866 9.48323 8.72035 9.21746 8.72035 8.5697C8.72035 7.96024 8.95257 7.23413 10.0575 7.23413C11.0488 7.23413 11.404 8.22557 11.4178 8.26519L12.2629 7.98339C12.2406 7.91661 11.6973 6.34375 10.0575 6.34375C8.41415 6.34375 7.82892 7.49368 7.82892 8.5697C7.82892 9.23348 7.93322 9.6159 8.04198 9.90528H6.9375V10.7957H8.27464C8.27464 11.8939 7.87706 12.7224 7.18398 13.0684Z" fill="#EB7124"/>
</svg>
