<svg width="48" height="48" viewBox="0 0 48 48" fill="none" xmlns="http://www.w3.org/2000/svg">
<g clip-path="url(#clip0_7226_39550)">
<mask id="path-1-outside-1_7226_39550" maskUnits="userSpaceOnUse" x="-1" y="-1" width="50" height="50" fill="black">
<rect fill="white" x="-1" y="-1" width="50" height="50"/>
<path d="M38.0815 38.692C34.1566 42.6169 28.9381 44.7785 23.3874 44.7785H0.75C0.551088 44.7785 0.360322 44.6995 0.21967 44.5589C0.0790176 44.4182 0 44.2274 0 44.0285C0 43.8296 0.0790176 43.6389 0.21967 43.4982C0.360322 43.3576 0.551088 43.2785 0.75 43.2785H23.3874C34.0189 43.2785 42.6682 34.6293 42.6682 23.9978C42.6682 14.2408 35.2456 6.04338 25.7539 4.86354L27.9715 6.59538C28.0947 6.69152 28.1847 6.82371 28.2291 6.97351C28.2735 7.1233 28.27 7.28322 28.2191 7.43092C28.1682 7.57863 28.0724 7.70675 27.9452 7.7974C27.8179 7.88805 27.6656 7.93671 27.5093 7.93657C27.3422 7.93671 27.1798 7.88076 27.0483 7.77766L22.9258 4.55838C22.836 4.48824 22.7633 4.39855 22.7134 4.29613C22.6634 4.19371 22.6374 4.08124 22.6374 3.96729C22.6374 3.85333 22.6634 3.74087 22.7134 3.63844C22.7633 3.53602 22.836 3.44634 22.9258 3.37619L27.0483 0.156911C27.2051 0.0355032 27.4037 -0.0188265 27.6005 0.00581113C27.7973 0.0304488 27.9764 0.132047 28.0984 0.288373C28.2205 0.4447 28.2757 0.643022 28.2519 0.839941C28.2281 1.03686 28.1273 1.21634 27.9715 1.3391L25.4376 3.31797C30.2801 3.79038 34.768 5.92835 38.2151 9.43854C42.054 13.3476 44.1682 18.5183 44.1682 23.998C44.1681 29.5486 42.0066 34.7671 38.0815 38.692ZM10.1464 40.0144C10.2806 40.1259 10.4496 40.1868 10.6241 40.1867C10.7785 40.1867 10.9291 40.1391 11.0555 40.0504C11.1818 39.9617 11.2777 39.8362 11.33 39.6909C11.3824 39.5457 11.3886 39.3879 11.3479 39.2389C11.3072 39.09 11.2216 38.9573 11.1026 38.8589C6.65663 35.1793 4.10672 29.7627 4.10672 23.9978C4.10672 15.2534 10.0034 7.58754 18.4465 5.35582C18.6388 5.30498 18.8031 5.17983 18.9031 5.00791C19.0032 4.83598 19.0308 4.63135 18.98 4.43904C18.9291 4.24673 18.804 4.08248 18.6321 3.98245C18.4601 3.88241 18.2555 3.85476 18.0632 3.9056C8.96269 6.31113 2.60672 14.5733 2.60672 23.9978C2.60672 30.2111 5.35481 36.0489 10.1464 40.0144ZM47.7116 43.4373L43.5892 40.2181C43.4323 40.0967 43.2337 40.0423 43.0369 40.067C42.8401 40.0916 42.6611 40.1932 42.539 40.3495C42.4169 40.5059 42.3617 40.7042 42.3855 40.9011C42.4093 41.098 42.5101 41.2775 42.6659 41.4003L45.0711 43.2784H36.8327C36.6338 43.2784 36.443 43.3575 36.3024 43.4981C36.1617 43.6388 36.0827 43.8295 36.0827 44.0284C36.0827 44.2274 36.1617 44.4181 36.3024 44.5588C36.443 44.6994 36.6338 44.7784 36.8327 44.7784H45.0711L42.6659 46.6566C42.5428 46.7528 42.4527 46.885 42.4083 47.0348C42.3639 47.1846 42.3674 47.3445 42.4183 47.4922C42.4692 47.6399 42.565 47.768 42.6922 47.8587C42.8195 47.9493 42.9719 47.998 43.1281 47.9978C43.2952 47.9979 43.4576 47.942 43.5892 47.8389L47.7116 44.6196C47.8015 44.5495 47.8741 44.4598 47.9241 44.3574C47.9741 44.2549 48 44.1425 48 44.0285C48 43.9145 47.9741 43.802 47.9241 43.6996C47.8741 43.5972 47.8015 43.5075 47.7116 43.4373ZM15.9838 23.9998C15.9838 19.9174 19.3051 16.5962 23.3874 16.5962C27.4698 16.5962 30.7911 19.9174 30.7911 23.9998C30.7911 28.0821 27.4698 31.4034 23.3874 31.4034C19.3051 31.4033 15.9838 28.082 15.9838 23.9998ZM17.4838 23.9998C17.4838 27.2551 20.1322 29.9034 23.3874 29.9034C26.6427 29.9034 29.2911 27.2551 29.2911 23.9998C29.2911 20.7445 26.6427 18.0962 23.3874 18.0962C20.1322 18.0961 17.4838 20.7444 17.4838 23.9998ZM16.9009 13.5678C18.0401 12.8559 19.2895 12.338 20.5982 12.035L21.329 10.1366C21.3834 9.99515 21.4794 9.87352 21.6044 9.78774C21.7293 9.70195 21.8773 9.65603 22.0289 9.65604H24.7458C24.8973 9.65603 25.0454 9.70195 25.1703 9.78774C25.2952 9.87352 25.3913 9.99515 25.4457 10.1366L26.1765 12.035C27.4852 12.338 28.7346 12.856 29.8738 13.5678L31.7346 12.7415C31.8731 12.68 32.027 12.6619 32.176 12.6896C32.325 12.7173 32.4621 12.7895 32.5693 12.8967L34.4905 14.8178C34.5977 14.925 34.6699 15.0621 34.6976 15.2111C34.7253 15.3602 34.7071 15.5141 34.6456 15.6526L33.8196 17.5126C34.5317 18.652 35.0497 19.9018 35.3527 21.2109L37.2505 21.9414C37.392 21.9958 37.5136 22.0919 37.5994 22.2168C37.6852 22.3418 37.7311 22.4898 37.7311 22.6413V25.3583C37.7311 25.5099 37.6852 25.6579 37.5994 25.7828C37.5136 25.9078 37.392 26.0038 37.2505 26.0583L35.3521 26.789C35.0491 28.0978 34.5311 29.3472 33.8192 30.4863L34.6456 32.3471C34.7071 32.4856 34.7252 32.6395 34.6975 32.7885C34.6698 32.9376 34.5976 33.0747 34.4904 33.1819L32.5693 35.1031C32.4621 35.2102 32.325 35.2824 32.176 35.3101C32.027 35.3378 31.8731 35.3197 31.7346 35.2582L29.8746 34.4321C28.7351 35.1442 27.4854 35.6623 26.1763 35.9652L25.4458 37.8631C25.3914 38.0045 25.2954 38.1262 25.1704 38.212C25.0455 38.2977 24.8974 38.3437 24.7459 38.3436H22.0289C21.8773 38.3436 21.7293 38.2977 21.6044 38.2119C21.4795 38.1261 21.3834 38.0045 21.329 37.8631L20.5982 35.9646C19.2895 35.6617 18.0401 35.1437 16.9009 34.4318L15.0401 35.2582C14.9016 35.3198 14.7477 35.3379 14.5987 35.3102C14.4496 35.2825 14.3125 35.2103 14.2054 35.1031L12.2842 33.1819C12.177 33.0748 12.1048 32.9376 12.0771 32.7886C12.0494 32.6396 12.0676 32.4857 12.1291 32.3472L12.9552 30.4872C12.2431 29.3477 11.725 28.098 11.4221 26.7889L9.52416 26.0584C9.3827 26.004 9.26105 25.908 9.17526 25.783C9.08947 25.6581 9.04357 25.5101 9.04359 25.3585V22.6413C9.04359 22.4897 9.08951 22.3417 9.1753 22.2167C9.26108 22.0918 9.38271 21.9958 9.52416 21.9413L11.4225 21.2106C11.7253 19.9018 12.2434 18.6523 12.9554 17.513L12.1291 15.6525C12.0676 15.514 12.0495 15.36 12.0772 15.211C12.1049 15.062 12.1771 14.9249 12.2843 14.8177L14.2055 12.8966C14.3126 12.7894 14.4498 12.7172 14.5988 12.6895C14.7478 12.6618 14.9017 12.6799 15.0402 12.7414L16.9009 13.5678ZM16.663 15.1035L14.9019 14.3213L13.709 15.5143L14.491 17.2752C14.5425 17.3911 14.5637 17.5182 14.5528 17.6446C14.5418 17.7709 14.4989 17.8924 14.4282 17.9977C13.6279 19.1897 13.0823 20.5056 12.8067 21.9093C12.7823 22.0337 12.7267 22.15 12.6451 22.2471C12.5635 22.3443 12.4585 22.4191 12.3401 22.4646L10.5435 23.1561V24.8433L12.3397 25.5347C12.4581 25.5802 12.563 25.6551 12.6446 25.7522C12.7262 25.8493 12.7819 25.9656 12.8063 26.09C13.0822 27.4945 13.6278 28.8108 14.428 30.0022C14.4988 30.1075 14.5416 30.229 14.5526 30.3554C14.5636 30.4818 14.5424 30.6088 14.4908 30.7248L13.709 32.4852L14.9019 33.6782L16.663 32.896C16.7789 32.8445 16.906 32.8233 17.0323 32.8343C17.1587 32.8452 17.2802 32.888 17.3855 32.9587C18.5777 33.7591 19.8937 34.3046 21.2968 34.5802C21.4213 34.6047 21.5375 34.6603 21.6346 34.7419C21.7318 34.8235 21.8066 34.9283 21.8522 35.0467L22.5439 36.8435H24.2309L24.9223 35.0474C24.9679 34.929 25.0427 34.8241 25.1399 34.7425C25.237 34.6609 25.3532 34.6053 25.4777 34.5808C26.8821 34.305 28.1983 33.7593 29.3899 32.9591C29.4952 32.8884 29.6167 32.8455 29.743 32.8345C29.8694 32.8235 29.9965 32.8448 30.1124 32.8963L31.8728 33.6782L33.0658 32.4852L32.2837 30.7241C32.2322 30.6082 32.211 30.4811 32.2219 30.3548C32.2329 30.2285 32.2757 30.107 32.3464 30.0017C33.1467 28.8094 33.6922 27.4935 33.9679 26.0903C33.9923 25.9659 34.0479 25.8496 34.1295 25.7525C34.2111 25.6554 34.316 25.5805 34.4344 25.5349L36.2312 24.8433V23.1563L34.435 22.4649C34.3166 22.4193 34.2118 22.3445 34.1301 22.2474C34.0485 22.1502 33.9929 22.034 33.9684 21.9095C33.6925 20.5052 33.1469 19.1888 32.3468 17.9973C32.276 17.892 32.2331 17.7705 32.2221 17.6441C32.2112 17.5177 32.2324 17.3906 32.2839 17.2747L33.0657 15.5144L31.8728 14.3214L30.1117 15.1036C29.9957 15.155 29.8687 15.1762 29.7424 15.1653C29.616 15.1543 29.4945 15.1115 29.3892 15.0408C28.197 14.2405 26.881 13.695 25.4779 13.4193C25.3534 13.3949 25.2372 13.3393 25.14 13.2577C25.0429 13.1761 24.9681 13.0712 24.9225 12.9528L24.2309 11.156H22.5439L21.8523 12.9528C21.8067 13.0712 21.7319 13.1761 21.6347 13.2577C21.5376 13.3393 21.4214 13.3949 21.2969 13.4193C19.8938 13.6949 18.5779 14.2404 17.3856 15.0408C17.2802 15.1115 17.1587 15.1543 17.0324 15.1652C16.906 15.1762 16.7789 15.1549 16.663 15.1035Z"/>
</mask>
<path d="M38.0815 38.692C34.1566 42.6169 28.9381 44.7785 23.3874 44.7785H0.75C0.551088 44.7785 0.360322 44.6995 0.21967 44.5589C0.0790176 44.4182 0 44.2274 0 44.0285C0 43.8296 0.0790176 43.6389 0.21967 43.4982C0.360322 43.3576 0.551088 43.2785 0.75 43.2785H23.3874C34.0189 43.2785 42.6682 34.6293 42.6682 23.9978C42.6682 14.2408 35.2456 6.04338 25.7539 4.86354L27.9715 6.59538C28.0947 6.69152 28.1847 6.82371 28.2291 6.97351C28.2735 7.1233 28.27 7.28322 28.2191 7.43092C28.1682 7.57863 28.0724 7.70675 27.9452 7.7974C27.8179 7.88805 27.6656 7.93671 27.5093 7.93657C27.3422 7.93671 27.1798 7.88076 27.0483 7.77766L22.9258 4.55838C22.836 4.48824 22.7633 4.39855 22.7134 4.29613C22.6634 4.19371 22.6374 4.08124 22.6374 3.96729C22.6374 3.85333 22.6634 3.74087 22.7134 3.63844C22.7633 3.53602 22.836 3.44634 22.9258 3.37619L27.0483 0.156911C27.2051 0.0355032 27.4037 -0.0188265 27.6005 0.00581113C27.7973 0.0304488 27.9764 0.132047 28.0984 0.288373C28.2205 0.4447 28.2757 0.643022 28.2519 0.839941C28.2281 1.03686 28.1273 1.21634 27.9715 1.3391L25.4376 3.31797C30.2801 3.79038 34.768 5.92835 38.2151 9.43854C42.054 13.3476 44.1682 18.5183 44.1682 23.998C44.1681 29.5486 42.0066 34.7671 38.0815 38.692ZM10.1464 40.0144C10.2806 40.1259 10.4496 40.1868 10.6241 40.1867C10.7785 40.1867 10.9291 40.1391 11.0555 40.0504C11.1818 39.9617 11.2777 39.8362 11.33 39.6909C11.3824 39.5457 11.3886 39.3879 11.3479 39.2389C11.3072 39.09 11.2216 38.9573 11.1026 38.8589C6.65663 35.1793 4.10672 29.7627 4.10672 23.9978C4.10672 15.2534 10.0034 7.58754 18.4465 5.35582C18.6388 5.30498 18.8031 5.17983 18.9031 5.00791C19.0032 4.83598 19.0308 4.63135 18.98 4.43904C18.9291 4.24673 18.804 4.08248 18.6321 3.98245C18.4601 3.88241 18.2555 3.85476 18.0632 3.9056C8.96269 6.31113 2.60672 14.5733 2.60672 23.9978C2.60672 30.2111 5.35481 36.0489 10.1464 40.0144ZM47.7116 43.4373L43.5892 40.2181C43.4323 40.0967 43.2337 40.0423 43.0369 40.067C42.8401 40.0916 42.6611 40.1932 42.539 40.3495C42.4169 40.5059 42.3617 40.7042 42.3855 40.9011C42.4093 41.098 42.5101 41.2775 42.6659 41.4003L45.0711 43.2784H36.8327C36.6338 43.2784 36.443 43.3575 36.3024 43.4981C36.1617 43.6388 36.0827 43.8295 36.0827 44.0284C36.0827 44.2274 36.1617 44.4181 36.3024 44.5588C36.443 44.6994 36.6338 44.7784 36.8327 44.7784H45.0711L42.6659 46.6566C42.5428 46.7528 42.4527 46.885 42.4083 47.0348C42.3639 47.1846 42.3674 47.3445 42.4183 47.4922C42.4692 47.6399 42.565 47.768 42.6922 47.8587C42.8195 47.9493 42.9719 47.998 43.1281 47.9978C43.2952 47.9979 43.4576 47.942 43.5892 47.8389L47.7116 44.6196C47.8015 44.5495 47.8741 44.4598 47.9241 44.3574C47.9741 44.2549 48 44.1425 48 44.0285C48 43.9145 47.9741 43.802 47.9241 43.6996C47.8741 43.5972 47.8015 43.5075 47.7116 43.4373ZM15.9838 23.9998C15.9838 19.9174 19.3051 16.5962 23.3874 16.5962C27.4698 16.5962 30.7911 19.9174 30.7911 23.9998C30.7911 28.0821 27.4698 31.4034 23.3874 31.4034C19.3051 31.4033 15.9838 28.082 15.9838 23.9998ZM17.4838 23.9998C17.4838 27.2551 20.1322 29.9034 23.3874 29.9034C26.6427 29.9034 29.2911 27.2551 29.2911 23.9998C29.2911 20.7445 26.6427 18.0962 23.3874 18.0962C20.1322 18.0961 17.4838 20.7444 17.4838 23.9998ZM16.9009 13.5678C18.0401 12.8559 19.2895 12.338 20.5982 12.035L21.329 10.1366C21.3834 9.99515 21.4794 9.87352 21.6044 9.78774C21.7293 9.70195 21.8773 9.65603 22.0289 9.65604H24.7458C24.8973 9.65603 25.0454 9.70195 25.1703 9.78774C25.2952 9.87352 25.3913 9.99515 25.4457 10.1366L26.1765 12.035C27.4852 12.338 28.7346 12.856 29.8738 13.5678L31.7346 12.7415C31.8731 12.68 32.027 12.6619 32.176 12.6896C32.325 12.7173 32.4621 12.7895 32.5693 12.8967L34.4905 14.8178C34.5977 14.925 34.6699 15.0621 34.6976 15.2111C34.7253 15.3602 34.7071 15.5141 34.6456 15.6526L33.8196 17.5126C34.5317 18.652 35.0497 19.9018 35.3527 21.2109L37.2505 21.9414C37.392 21.9958 37.5136 22.0919 37.5994 22.2168C37.6852 22.3418 37.7311 22.4898 37.7311 22.6413V25.3583C37.7311 25.5099 37.6852 25.6579 37.5994 25.7828C37.5136 25.9078 37.392 26.0038 37.2505 26.0583L35.3521 26.789C35.0491 28.0978 34.5311 29.3472 33.8192 30.4863L34.6456 32.3471C34.7071 32.4856 34.7252 32.6395 34.6975 32.7885C34.6698 32.9376 34.5976 33.0747 34.4904 33.1819L32.5693 35.1031C32.4621 35.2102 32.325 35.2824 32.176 35.3101C32.027 35.3378 31.8731 35.3197 31.7346 35.2582L29.8746 34.4321C28.7351 35.1442 27.4854 35.6623 26.1763 35.9652L25.4458 37.8631C25.3914 38.0045 25.2954 38.1262 25.1704 38.212C25.0455 38.2977 24.8974 38.3437 24.7459 38.3436H22.0289C21.8773 38.3436 21.7293 38.2977 21.6044 38.2119C21.4795 38.1261 21.3834 38.0045 21.329 37.8631L20.5982 35.9646C19.2895 35.6617 18.0401 35.1437 16.9009 34.4318L15.0401 35.2582C14.9016 35.3198 14.7477 35.3379 14.5987 35.3102C14.4496 35.2825 14.3125 35.2103 14.2054 35.1031L12.2842 33.1819C12.177 33.0748 12.1048 32.9376 12.0771 32.7886C12.0494 32.6396 12.0676 32.4857 12.1291 32.3472L12.9552 30.4872C12.2431 29.3477 11.725 28.098 11.4221 26.7889L9.52416 26.0584C9.3827 26.004 9.26105 25.908 9.17526 25.783C9.08947 25.6581 9.04357 25.5101 9.04359 25.3585V22.6413C9.04359 22.4897 9.08951 22.3417 9.1753 22.2167C9.26108 22.0918 9.38271 21.9958 9.52416 21.9413L11.4225 21.2106C11.7253 19.9018 12.2434 18.6523 12.9554 17.513L12.1291 15.6525C12.0676 15.514 12.0495 15.36 12.0772 15.211C12.1049 15.062 12.1771 14.9249 12.2843 14.8177L14.2055 12.8966C14.3126 12.7894 14.4498 12.7172 14.5988 12.6895C14.7478 12.6618 14.9017 12.6799 15.0402 12.7414L16.9009 13.5678ZM16.663 15.1035L14.9019 14.3213L13.709 15.5143L14.491 17.2752C14.5425 17.3911 14.5637 17.5182 14.5528 17.6446C14.5418 17.7709 14.4989 17.8924 14.4282 17.9977C13.6279 19.1897 13.0823 20.5056 12.8067 21.9093C12.7823 22.0337 12.7267 22.15 12.6451 22.2471C12.5635 22.3443 12.4585 22.4191 12.3401 22.4646L10.5435 23.1561V24.8433L12.3397 25.5347C12.4581 25.5802 12.563 25.6551 12.6446 25.7522C12.7262 25.8493 12.7819 25.9656 12.8063 26.09C13.0822 27.4945 13.6278 28.8108 14.428 30.0022C14.4988 30.1075 14.5416 30.229 14.5526 30.3554C14.5636 30.4818 14.5424 30.6088 14.4908 30.7248L13.709 32.4852L14.9019 33.6782L16.663 32.896C16.7789 32.8445 16.906 32.8233 17.0323 32.8343C17.1587 32.8452 17.2802 32.888 17.3855 32.9587C18.5777 33.7591 19.8937 34.3046 21.2968 34.5802C21.4213 34.6047 21.5375 34.6603 21.6346 34.7419C21.7318 34.8235 21.8066 34.9283 21.8522 35.0467L22.5439 36.8435H24.2309L24.9223 35.0474C24.9679 34.929 25.0427 34.8241 25.1399 34.7425C25.237 34.6609 25.3532 34.6053 25.4777 34.5808C26.8821 34.305 28.1983 33.7593 29.3899 32.9591C29.4952 32.8884 29.6167 32.8455 29.743 32.8345C29.8694 32.8235 29.9965 32.8448 30.1124 32.8963L31.8728 33.6782L33.0658 32.4852L32.2837 30.7241C32.2322 30.6082 32.211 30.4811 32.2219 30.3548C32.2329 30.2285 32.2757 30.107 32.3464 30.0017C33.1467 28.8094 33.6922 27.4935 33.9679 26.0903C33.9923 25.9659 34.0479 25.8496 34.1295 25.7525C34.2111 25.6554 34.316 25.5805 34.4344 25.5349L36.2312 24.8433V23.1563L34.435 22.4649C34.3166 22.4193 34.2118 22.3445 34.1301 22.2474C34.0485 22.1502 33.9929 22.034 33.9684 21.9095C33.6925 20.5052 33.1469 19.1888 32.3468 17.9973C32.276 17.892 32.2331 17.7705 32.2221 17.6441C32.2112 17.5177 32.2324 17.3906 32.2839 17.2747L33.0657 15.5144L31.8728 14.3214L30.1117 15.1036C29.9957 15.155 29.8687 15.1762 29.7424 15.1653C29.616 15.1543 29.4945 15.1115 29.3892 15.0408C28.197 14.2405 26.881 13.695 25.4779 13.4193C25.3534 13.3949 25.2372 13.3393 25.14 13.2577C25.0429 13.1761 24.9681 13.0712 24.9225 12.9528L24.2309 11.156H22.5439L21.8523 12.9528C21.8067 13.0712 21.7319 13.1761 21.6347 13.2577C21.5376 13.3393 21.4214 13.3949 21.2969 13.4193C19.8938 13.6949 18.5779 14.2404 17.3856 15.0408C17.2802 15.1115 17.1587 15.1543 17.0324 15.1652C16.906 15.1762 16.7789 15.1549 16.663 15.1035Z" fill="#EB7124"/>
<path d="M38.0815 38.692C34.1566 42.6169 28.9381 44.7785 23.3874 44.7785H0.75C0.551088 44.7785 0.360322 44.6995 0.21967 44.5589C0.0790176 44.4182 0 44.2274 0 44.0285C0 43.8296 0.0790176 43.6389 0.21967 43.4982C0.360322 43.3576 0.551088 43.2785 0.75 43.2785H23.3874C34.0189 43.2785 42.6682 34.6293 42.6682 23.9978C42.6682 14.2408 35.2456 6.04338 25.7539 4.86354L27.9715 6.59538C28.0947 6.69152 28.1847 6.82371 28.2291 6.97351C28.2735 7.1233 28.27 7.28322 28.2191 7.43092C28.1682 7.57863 28.0724 7.70675 27.9452 7.7974C27.8179 7.88805 27.6656 7.93671 27.5093 7.93657C27.3422 7.93671 27.1798 7.88076 27.0483 7.77766L22.9258 4.55838C22.836 4.48824 22.7633 4.39855 22.7134 4.29613C22.6634 4.19371 22.6374 4.08124 22.6374 3.96729C22.6374 3.85333 22.6634 3.74087 22.7134 3.63844C22.7633 3.53602 22.836 3.44634 22.9258 3.37619L27.0483 0.156911C27.2051 0.0355032 27.4037 -0.0188265 27.6005 0.00581113C27.7973 0.0304488 27.9764 0.132047 28.0984 0.288373C28.2205 0.4447 28.2757 0.643022 28.2519 0.839941C28.2281 1.03686 28.1273 1.21634 27.9715 1.3391L25.4376 3.31797C30.2801 3.79038 34.768 5.92835 38.2151 9.43854C42.054 13.3476 44.1682 18.5183 44.1682 23.998C44.1681 29.5486 42.0066 34.7671 38.0815 38.692ZM10.1464 40.0144C10.2806 40.1259 10.4496 40.1868 10.6241 40.1867C10.7785 40.1867 10.9291 40.1391 11.0555 40.0504C11.1818 39.9617 11.2777 39.8362 11.33 39.6909C11.3824 39.5457 11.3886 39.3879 11.3479 39.2389C11.3072 39.09 11.2216 38.9573 11.1026 38.8589C6.65663 35.1793 4.10672 29.7627 4.10672 23.9978C4.10672 15.2534 10.0034 7.58754 18.4465 5.35582C18.6388 5.30498 18.8031 5.17983 18.9031 5.00791C19.0032 4.83598 19.0308 4.63135 18.98 4.43904C18.9291 4.24673 18.804 4.08248 18.6321 3.98245C18.4601 3.88241 18.2555 3.85476 18.0632 3.9056C8.96269 6.31113 2.60672 14.5733 2.60672 23.9978C2.60672 30.2111 5.35481 36.0489 10.1464 40.0144ZM47.7116 43.4373L43.5892 40.2181C43.4323 40.0967 43.2337 40.0423 43.0369 40.067C42.8401 40.0916 42.6611 40.1932 42.539 40.3495C42.4169 40.5059 42.3617 40.7042 42.3855 40.9011C42.4093 41.098 42.5101 41.2775 42.6659 41.4003L45.0711 43.2784H36.8327C36.6338 43.2784 36.443 43.3575 36.3024 43.4981C36.1617 43.6388 36.0827 43.8295 36.0827 44.0284C36.0827 44.2274 36.1617 44.4181 36.3024 44.5588C36.443 44.6994 36.6338 44.7784 36.8327 44.7784H45.0711L42.6659 46.6566C42.5428 46.7528 42.4527 46.885 42.4083 47.0348C42.3639 47.1846 42.3674 47.3445 42.4183 47.4922C42.4692 47.6399 42.565 47.768 42.6922 47.8587C42.8195 47.9493 42.9719 47.998 43.1281 47.9978C43.2952 47.9979 43.4576 47.942 43.5892 47.8389L47.7116 44.6196C47.8015 44.5495 47.8741 44.4598 47.9241 44.3574C47.9741 44.2549 48 44.1425 48 44.0285C48 43.9145 47.9741 43.802 47.9241 43.6996C47.8741 43.5972 47.8015 43.5075 47.7116 43.4373ZM15.9838 23.9998C15.9838 19.9174 19.3051 16.5962 23.3874 16.5962C27.4698 16.5962 30.7911 19.9174 30.7911 23.9998C30.7911 28.0821 27.4698 31.4034 23.3874 31.4034C19.3051 31.4033 15.9838 28.082 15.9838 23.9998ZM17.4838 23.9998C17.4838 27.2551 20.1322 29.9034 23.3874 29.9034C26.6427 29.9034 29.2911 27.2551 29.2911 23.9998C29.2911 20.7445 26.6427 18.0962 23.3874 18.0962C20.1322 18.0961 17.4838 20.7444 17.4838 23.9998ZM16.9009 13.5678C18.0401 12.8559 19.2895 12.338 20.5982 12.035L21.329 10.1366C21.3834 9.99515 21.4794 9.87352 21.6044 9.78774C21.7293 9.70195 21.8773 9.65603 22.0289 9.65604H24.7458C24.8973 9.65603 25.0454 9.70195 25.1703 9.78774C25.2952 9.87352 25.3913 9.99515 25.4457 10.1366L26.1765 12.035C27.4852 12.338 28.7346 12.856 29.8738 13.5678L31.7346 12.7415C31.8731 12.68 32.027 12.6619 32.176 12.6896C32.325 12.7173 32.4621 12.7895 32.5693 12.8967L34.4905 14.8178C34.5977 14.925 34.6699 15.0621 34.6976 15.2111C34.7253 15.3602 34.7071 15.5141 34.6456 15.6526L33.8196 17.5126C34.5317 18.652 35.0497 19.9018 35.3527 21.2109L37.2505 21.9414C37.392 21.9958 37.5136 22.0919 37.5994 22.2168C37.6852 22.3418 37.7311 22.4898 37.7311 22.6413V25.3583C37.7311 25.5099 37.6852 25.6579 37.5994 25.7828C37.5136 25.9078 37.392 26.0038 37.2505 26.0583L35.3521 26.789C35.0491 28.0978 34.5311 29.3472 33.8192 30.4863L34.6456 32.3471C34.7071 32.4856 34.7252 32.6395 34.6975 32.7885C34.6698 32.9376 34.5976 33.0747 34.4904 33.1819L32.5693 35.1031C32.4621 35.2102 32.325 35.2824 32.176 35.3101C32.027 35.3378 31.8731 35.3197 31.7346 35.2582L29.8746 34.4321C28.7351 35.1442 27.4854 35.6623 26.1763 35.9652L25.4458 37.8631C25.3914 38.0045 25.2954 38.1262 25.1704 38.212C25.0455 38.2977 24.8974 38.3437 24.7459 38.3436H22.0289C21.8773 38.3436 21.7293 38.2977 21.6044 38.2119C21.4795 38.1261 21.3834 38.0045 21.329 37.8631L20.5982 35.9646C19.2895 35.6617 18.0401 35.1437 16.9009 34.4318L15.0401 35.2582C14.9016 35.3198 14.7477 35.3379 14.5987 35.3102C14.4496 35.2825 14.3125 35.2103 14.2054 35.1031L12.2842 33.1819C12.177 33.0748 12.1048 32.9376 12.0771 32.7886C12.0494 32.6396 12.0676 32.4857 12.1291 32.3472L12.9552 30.4872C12.2431 29.3477 11.725 28.098 11.4221 26.7889L9.52416 26.0584C9.3827 26.004 9.26105 25.908 9.17526 25.783C9.08947 25.6581 9.04357 25.5101 9.04359 25.3585V22.6413C9.04359 22.4897 9.08951 22.3417 9.1753 22.2167C9.26108 22.0918 9.38271 21.9958 9.52416 21.9413L11.4225 21.2106C11.7253 19.9018 12.2434 18.6523 12.9554 17.513L12.1291 15.6525C12.0676 15.514 12.0495 15.36 12.0772 15.211C12.1049 15.062 12.1771 14.9249 12.2843 14.8177L14.2055 12.8966C14.3126 12.7894 14.4498 12.7172 14.5988 12.6895C14.7478 12.6618 14.9017 12.6799 15.0402 12.7414L16.9009 13.5678ZM16.663 15.1035L14.9019 14.3213L13.709 15.5143L14.491 17.2752C14.5425 17.3911 14.5637 17.5182 14.5528 17.6446C14.5418 17.7709 14.4989 17.8924 14.4282 17.9977C13.6279 19.1897 13.0823 20.5056 12.8067 21.9093C12.7823 22.0337 12.7267 22.15 12.6451 22.2471C12.5635 22.3443 12.4585 22.4191 12.3401 22.4646L10.5435 23.1561V24.8433L12.3397 25.5347C12.4581 25.5802 12.563 25.6551 12.6446 25.7522C12.7262 25.8493 12.7819 25.9656 12.8063 26.09C13.0822 27.4945 13.6278 28.8108 14.428 30.0022C14.4988 30.1075 14.5416 30.229 14.5526 30.3554C14.5636 30.4818 14.5424 30.6088 14.4908 30.7248L13.709 32.4852L14.9019 33.6782L16.663 32.896C16.7789 32.8445 16.906 32.8233 17.0323 32.8343C17.1587 32.8452 17.2802 32.888 17.3855 32.9587C18.5777 33.7591 19.8937 34.3046 21.2968 34.5802C21.4213 34.6047 21.5375 34.6603 21.6346 34.7419C21.7318 34.8235 21.8066 34.9283 21.8522 35.0467L22.5439 36.8435H24.2309L24.9223 35.0474C24.9679 34.929 25.0427 34.8241 25.1399 34.7425C25.237 34.6609 25.3532 34.6053 25.4777 34.5808C26.8821 34.305 28.1983 33.7593 29.3899 32.9591C29.4952 32.8884 29.6167 32.8455 29.743 32.8345C29.8694 32.8235 29.9965 32.8448 30.1124 32.8963L31.8728 33.6782L33.0658 32.4852L32.2837 30.7241C32.2322 30.6082 32.211 30.4811 32.2219 30.3548C32.2329 30.2285 32.2757 30.107 32.3464 30.0017C33.1467 28.8094 33.6922 27.4935 33.9679 26.0903C33.9923 25.9659 34.0479 25.8496 34.1295 25.7525C34.2111 25.6554 34.316 25.5805 34.4344 25.5349L36.2312 24.8433V23.1563L34.435 22.4649C34.3166 22.4193 34.2118 22.3445 34.1301 22.2474C34.0485 22.1502 33.9929 22.034 33.9684 21.9095C33.6925 20.5052 33.1469 19.1888 32.3468 17.9973C32.276 17.892 32.2331 17.7705 32.2221 17.6441C32.2112 17.5177 32.2324 17.3906 32.2839 17.2747L33.0657 15.5144L31.8728 14.3214L30.1117 15.1036C29.9957 15.155 29.8687 15.1762 29.7424 15.1653C29.616 15.1543 29.4945 15.1115 29.3892 15.0408C28.197 14.2405 26.881 13.695 25.4779 13.4193C25.3534 13.3949 25.2372 13.3393 25.14 13.2577C25.0429 13.1761 24.9681 13.0712 24.9225 12.9528L24.2309 11.156H22.5439L21.8523 12.9528C21.8067 13.0712 21.7319 13.1761 21.6347 13.2577C21.5376 13.3393 21.4214 13.3949 21.2969 13.4193C19.8938 13.6949 18.5779 14.2404 17.3856 15.0408C17.2802 15.1115 17.1587 15.1543 17.0324 15.1652C16.906 15.1762 16.7789 15.1549 16.663 15.1035Z" stroke="#EB7124" stroke-width="0.6" mask="url(#path-1-outside-1_7226_39550)"/>
</g>
<defs>
<clipPath id="clip0_7226_39550">
<rect width="48" height="48" fill="white"/>
</clipPath>
</defs>
</svg>
