<svg width="313" height="88" viewBox="0 0 313 88" fill="none" xmlns="http://www.w3.org/2000/svg">
<rect x="0.116582" y="0.116582" width="312.767" height="87.7668" rx="11.8834" fill="white"/>
<rect x="0.116582" y="0.116582" width="312.767" height="87.7668" rx="11.8834" stroke="#3686F7" stroke-width="0.233165"/>
<path d="M74.6745 38.7302H72.5053V38.6184H48.2681V49.3905H63.4877C61.2673 55.6612 55.3009 60.1626 48.2681 60.1626C39.3448 60.1626 32.11 52.9278 32.11 44.0044C32.11 35.0811 39.3448 27.8463 48.2681 27.8463C52.3871 27.8463 56.1344 29.4002 58.9877 31.9384L66.6049 24.3211C61.7952 19.8386 55.3615 17.0742 48.2681 17.0742C33.3959 17.0742 21.3379 29.1322 21.3379 44.0044C21.3379 58.8767 33.3959 70.9347 48.2681 70.9347C63.1403 70.9347 75.1983 58.8767 75.1983 44.0044C75.1983 42.1988 75.0125 40.4362 74.6745 38.7302Z" fill="#FFC107"/>
<path d="M24.4434 31.4698L33.2913 37.9586C35.6854 32.0313 41.4835 27.8463 48.2685 27.8463C52.3875 27.8463 56.1349 29.4002 58.9881 31.9384L66.6053 24.3211C61.7956 19.8386 55.362 17.0742 48.2685 17.0742C37.9246 17.0742 28.9542 22.914 24.4434 31.4698Z" fill="#FF3D00"/>
<path d="M48.2676 70.9324C55.2237 70.9324 61.5442 68.2703 66.323 63.9413L57.9881 56.8883C55.1939 59.0145 51.7787 60.1641 48.2676 60.1603C41.2631 60.1603 35.3155 55.6939 33.0749 49.4609L24.293 56.2271C28.7499 64.9485 37.8012 70.9324 48.2676 70.9324Z" fill="#4CAF50"/>
<path d="M74.674 38.725H72.5048V38.6133H48.2676V49.3854H63.4872C62.4251 52.3698 60.5119 54.9777 57.984 56.8868L57.988 56.8841L66.3229 63.9371C65.7332 64.473 75.1978 57.4644 75.1978 43.9993C75.1978 42.1937 75.012 40.4311 74.674 38.725Z" fill="#1976D2"/>
<path d="M91.1939 23.6836L88.3203 13.5018H90.304L92.1385 20.984H92.233L94.1918 13.5018H95.9964L97.9602 20.989H98.0497L99.8842 13.5018H101.868L98.9943 23.6836H97.1747L95.1364 16.5394H95.0568L93.0135 23.6836H91.1939ZM105.669 23.8327C104.903 23.8327 104.242 23.6737 103.685 23.3555C103.132 23.034 102.706 22.5799 102.407 21.9933C102.109 21.4033 101.96 20.7089 101.96 19.9102C101.96 19.1246 102.109 18.4353 102.407 17.842C102.709 17.2454 103.13 16.7814 103.67 16.4499C104.21 16.1152 104.845 15.9478 105.574 15.9478C106.045 15.9478 106.489 16.024 106.907 16.1765C107.328 16.3256 107.699 16.5576 108.02 16.8725C108.345 17.1874 108.6 17.5884 108.786 18.0756C108.971 18.5595 109.064 19.1362 109.064 19.8058V20.3576H102.805V19.1445H107.339C107.336 18.7998 107.261 18.4933 107.115 18.2248C106.97 17.953 106.766 17.7392 106.504 17.5835C106.245 17.4277 105.944 17.3498 105.599 17.3498C105.231 17.3498 104.908 17.4393 104.63 17.6183C104.351 17.7939 104.134 18.0259 103.978 18.3143C103.826 18.5993 103.748 18.9125 103.745 19.2539V20.3129C103.745 20.757 103.826 21.1381 103.988 21.4563C104.151 21.7712 104.378 22.0131 104.669 22.1822C104.961 22.3479 105.302 22.4308 105.694 22.4308C105.955 22.4308 106.192 22.3943 106.404 22.3214C106.617 22.2451 106.801 22.1341 106.956 21.9883C107.112 21.8424 107.23 21.6618 107.309 21.4464L108.99 21.6353C108.884 22.0794 108.681 22.4672 108.383 22.7987C108.088 23.1268 107.71 23.382 107.25 23.5643C106.789 23.7433 106.262 23.8327 105.669 23.8327ZM112.784 23.8377C112.3 23.8377 111.865 23.7515 111.477 23.5792C111.092 23.4035 110.787 23.145 110.562 22.8036C110.34 22.4622 110.229 22.0413 110.229 21.5408C110.229 21.11 110.308 20.7537 110.468 20.4719C110.627 20.1902 110.844 19.9648 111.119 19.7958C111.394 19.6268 111.704 19.4992 112.048 19.413C112.396 19.3235 112.756 19.2589 113.127 19.2191C113.575 19.1727 113.938 19.1313 114.216 19.0948C114.494 19.055 114.697 18.9954 114.823 18.9158C114.952 18.833 115.017 18.7054 115.017 18.533V18.5032C115.017 18.1287 114.905 17.8387 114.683 17.6332C114.461 17.4277 114.142 17.3249 113.724 17.3249C113.283 17.3249 112.933 17.421 112.675 17.6133C112.42 17.8055 112.247 18.0326 112.158 18.2944L110.477 18.0558C110.61 17.5917 110.829 17.204 111.134 16.8924C111.439 16.5775 111.811 16.3422 112.252 16.1864C112.693 16.0273 113.18 15.9478 113.714 15.9478C114.082 15.9478 114.448 15.9909 114.813 16.0771C115.177 16.1632 115.51 16.3058 115.812 16.5046C116.114 16.7002 116.356 16.967 116.538 17.305C116.723 17.6431 116.816 18.0657 116.816 18.5728V23.6836H115.086V22.6346H115.026C114.917 22.8467 114.763 23.0456 114.564 23.2312C114.369 23.4135 114.122 23.561 113.823 23.6737C113.528 23.783 113.182 23.8377 112.784 23.8377ZM113.252 22.5153C113.613 22.5153 113.926 22.444 114.191 22.3015C114.456 22.1557 114.66 21.9634 114.803 21.7248C114.949 21.4862 115.021 21.226 115.021 20.9442V20.0444C114.965 20.0908 114.869 20.1339 114.733 20.1737C114.601 20.2134 114.451 20.2482 114.286 20.2781C114.12 20.3079 113.956 20.3344 113.794 20.3576C113.631 20.3808 113.49 20.4007 113.371 20.4173C113.102 20.4537 112.862 20.5134 112.65 20.5962C112.438 20.6791 112.271 20.7951 112.148 20.9442C112.025 21.0901 111.964 21.279 111.964 21.511C111.964 21.8424 112.085 22.0927 112.327 22.2617C112.569 22.4308 112.877 22.5153 113.252 22.5153ZM120.426 13.5018V23.6836H118.626V13.5018H120.426ZM126.089 16.0472V17.4393H121.7V16.0472H126.089ZM122.783 14.2177H124.583V21.3867C124.583 21.6287 124.62 21.8143 124.692 21.9435C124.769 22.0695 124.868 22.1557 124.991 22.2021C125.113 22.2485 125.249 22.2717 125.398 22.2717C125.511 22.2717 125.614 22.2634 125.707 22.2468C125.803 22.2302 125.876 22.2153 125.925 22.2021L126.229 23.609C126.133 23.6422 125.995 23.6786 125.816 23.7184C125.64 23.7582 125.425 23.7814 125.17 23.788C124.719 23.8013 124.313 23.7333 123.952 23.5842C123.59 23.4317 123.304 23.1964 123.092 22.8782C122.883 22.56 122.78 22.1623 122.783 21.685V14.2177ZM129.558 19.2092V23.6836H127.759V13.5018H129.519V17.3448H129.608C129.787 16.9139 130.064 16.5742 130.438 16.3256C130.816 16.0737 131.297 15.9478 131.88 15.9478C132.41 15.9478 132.873 16.0588 133.267 16.2809C133.662 16.503 133.967 16.8278 134.182 17.2553C134.401 17.6829 134.51 18.2049 134.51 18.8214V23.6836H132.71V19.0998C132.71 18.5861 132.578 18.1867 132.313 17.9016C132.051 17.6133 131.683 17.4691 131.209 17.4691C130.891 17.4691 130.606 17.5387 130.354 17.6779C130.105 17.8138 129.91 18.011 129.767 18.2695C129.628 18.5281 129.558 18.8413 129.558 19.2092ZM136.345 23.6836V16.0472H138.065V17.3448H138.154C138.313 16.9073 138.577 16.5659 138.945 16.3207C139.313 16.0721 139.752 15.9478 140.262 15.9478C140.779 15.9478 141.215 16.0737 141.57 16.3256C141.928 16.5742 142.18 16.9139 142.325 17.3448H142.405C142.574 16.9206 142.859 16.5825 143.26 16.3306C143.664 16.0754 144.143 15.9478 144.697 15.9478C145.4 15.9478 145.973 16.1699 146.417 16.614C146.861 17.0581 147.083 17.7061 147.083 18.5579V23.6836H145.279V18.8363C145.279 18.3623 145.153 18.016 144.901 17.7972C144.649 17.5752 144.341 17.4641 143.976 17.4641C143.542 17.4641 143.202 17.6 142.957 17.8718C142.715 18.1403 142.594 18.4899 142.594 18.9208V23.6836H140.829V18.7617C140.829 18.3673 140.71 18.0524 140.471 17.8171C140.236 17.5818 139.927 17.4641 139.546 17.4641C139.288 17.4641 139.052 17.5304 138.84 17.663C138.628 17.7923 138.459 17.9762 138.333 18.2148C138.207 18.4502 138.144 18.7253 138.144 19.0401V23.6836H136.345ZM151.107 23.8377C150.623 23.8377 150.187 23.7515 149.799 23.5792C149.415 23.4035 149.11 23.145 148.884 22.8036C148.662 22.4622 148.551 22.0413 148.551 21.5408C148.551 21.11 148.631 20.7537 148.79 20.4719C148.949 20.1902 149.166 19.9648 149.441 19.7958C149.716 19.6268 150.026 19.4992 150.371 19.413C150.719 19.3235 151.078 19.2589 151.45 19.2191C151.897 19.1727 152.26 19.1313 152.538 19.0948C152.817 19.055 153.019 18.9954 153.145 18.9158C153.274 18.833 153.339 18.7054 153.339 18.533V18.5032C153.339 18.1287 153.228 17.8387 153.006 17.6332C152.784 17.4277 152.464 17.3249 152.046 17.3249C151.605 17.3249 151.256 17.421 150.997 17.6133C150.742 17.8055 150.57 18.0326 150.48 18.2944L148.8 18.0558C148.932 17.5917 149.151 17.204 149.456 16.8924C149.761 16.5775 150.134 16.3422 150.575 16.1864C151.015 16.0273 151.503 15.9478 152.036 15.9478C152.404 15.9478 152.77 15.9909 153.135 16.0771C153.5 16.1632 153.833 16.3058 154.134 16.5046C154.436 16.7002 154.678 16.967 154.86 17.305C155.046 17.6431 155.138 18.0657 155.138 18.5728V23.6836H153.408V22.6346H153.349C153.239 22.8467 153.085 23.0456 152.886 23.2312C152.691 23.4135 152.444 23.561 152.146 23.6737C151.851 23.783 151.504 23.8377 151.107 23.8377ZM151.574 22.5153C151.935 22.5153 152.248 22.444 152.513 22.3015C152.779 22.1557 152.982 21.9634 153.125 21.7248C153.271 21.4862 153.344 21.226 153.344 20.9442V20.0444C153.287 20.0908 153.191 20.1339 153.055 20.1737C152.923 20.2134 152.774 20.2482 152.608 20.2781C152.442 20.3079 152.278 20.3344 152.116 20.3576C151.953 20.3808 151.813 20.4007 151.693 20.4173C151.425 20.4537 151.184 20.5134 150.972 20.5962C150.76 20.6791 150.593 20.7951 150.47 20.9442C150.348 21.0901 150.286 21.279 150.286 21.511C150.286 21.8424 150.407 22.0927 150.649 22.2617C150.891 22.4308 151.199 22.5153 151.574 22.5153ZM158.42 16.0472L159.961 18.8661L161.527 16.0472H163.431L161.129 19.8654L163.471 23.6836H161.577L159.961 20.9343L158.36 23.6836H156.451L158.778 19.8654L156.511 16.0472H158.42ZM168.375 23.6836V13.5018H172.194C172.976 13.5018 173.632 13.6377 174.162 13.9094C174.696 14.1812 175.099 14.5624 175.37 15.0529C175.645 15.5401 175.783 16.1085 175.783 16.7582C175.783 17.4111 175.644 17.9779 175.365 18.4585C175.09 18.9357 174.684 19.3053 174.147 19.5671C173.61 19.8256 172.951 19.9549 172.169 19.9549H169.449V18.4237H171.92C172.377 18.4237 172.752 18.3607 173.044 18.2347C173.335 18.1055 173.551 17.9182 173.69 17.6729C173.833 17.4244 173.904 17.1194 173.904 16.7582C173.904 16.3969 173.833 16.0887 173.69 15.8335C173.547 15.5749 173.33 15.3794 173.039 15.2468C172.747 15.1109 172.371 15.043 171.91 15.043H170.22V23.6836H168.375ZM173.635 19.07L176.156 23.6836H174.098L171.622 19.07H173.635ZM180.673 23.8327C179.907 23.8327 179.246 23.6737 178.689 23.3555C178.135 23.034 177.71 22.5799 177.411 21.9933C177.113 21.4033 176.964 20.7089 176.964 19.9102C176.964 19.1246 177.113 18.4353 177.411 17.842C177.713 17.2454 178.134 16.7814 178.674 16.4499C179.214 16.1152 179.849 15.9478 180.578 15.9478C181.049 15.9478 181.493 16.024 181.911 16.1765C182.331 16.3256 182.703 16.5576 183.024 16.8725C183.349 17.1874 183.604 17.5884 183.79 18.0756C183.975 18.5595 184.068 19.1362 184.068 19.8058V20.3576H177.809V19.1445H182.343C182.34 18.7998 182.265 18.4933 182.119 18.2248C181.973 17.953 181.77 17.7392 181.508 17.5835C181.249 17.4277 180.948 17.3498 180.603 17.3498C180.235 17.3498 179.912 17.4393 179.634 17.6183C179.355 17.7939 179.138 18.0259 178.982 18.3143C178.83 18.5993 178.752 18.9125 178.749 19.2539V20.3129C178.749 20.757 178.83 21.1381 178.992 21.4563C179.155 21.7712 179.382 22.0131 179.673 22.1822C179.965 22.3479 180.306 22.4308 180.697 22.4308C180.959 22.4308 181.196 22.3943 181.408 22.3214C181.621 22.2451 181.804 22.1341 181.96 21.9883C182.116 21.8424 182.234 21.6618 182.313 21.4464L183.994 21.6353C183.888 22.0794 183.685 22.4672 183.387 22.7987C183.092 23.1268 182.714 23.382 182.254 23.5643C181.793 23.7433 181.266 23.8327 180.673 23.8327ZM192.193 16.0472L189.474 23.6836H187.485L184.765 16.0472H186.684L188.439 21.7198H188.519L190.279 16.0472H192.193ZM193.438 23.6836V16.0472H195.238V23.6836H193.438ZM194.343 14.9634C194.058 14.9634 193.813 14.869 193.607 14.68C193.402 14.4878 193.299 14.2575 193.299 13.989C193.299 13.7172 193.402 13.4869 193.607 13.2979C193.813 13.1057 194.058 13.0096 194.343 13.0096C194.632 13.0096 194.877 13.1057 195.079 13.2979C195.285 13.4869 195.387 13.7172 195.387 13.989C195.387 14.2575 195.285 14.4878 195.079 14.68C194.877 14.869 194.632 14.9634 194.343 14.9634ZM200.469 23.8327C199.704 23.8327 199.043 23.6737 198.486 23.3555C197.932 23.034 197.506 22.5799 197.208 21.9933C196.91 21.4033 196.761 20.7089 196.761 19.9102C196.761 19.1246 196.91 18.4353 197.208 17.842C197.51 17.2454 197.931 16.7814 198.471 16.4499C199.011 16.1152 199.646 15.9478 200.375 15.9478C200.846 15.9478 201.29 16.024 201.707 16.1765C202.128 16.3256 202.5 16.5576 202.821 16.8725C203.146 17.1874 203.401 17.5884 203.587 18.0756C203.772 18.5595 203.865 19.1362 203.865 19.8058V20.3576H197.606V19.1445H202.14C202.137 18.7998 202.062 18.4933 201.916 18.2248C201.77 17.953 201.567 17.7392 201.305 17.5835C201.046 17.4277 200.745 17.3498 200.4 17.3498C200.032 17.3498 199.709 17.4393 199.43 17.6183C199.152 17.7939 198.935 18.0259 198.779 18.3143C198.627 18.5993 198.549 18.9125 198.545 19.2539V20.3129C198.545 20.757 198.627 21.1381 198.789 21.4563C198.951 21.7712 199.179 22.0131 199.47 22.1822C199.762 22.3479 200.103 22.4308 200.494 22.4308C200.756 22.4308 200.993 22.3943 201.205 22.3214C201.417 22.2451 201.601 22.1341 201.757 21.9883C201.913 21.8424 202.031 21.6618 202.11 21.4464L203.79 21.6353C203.684 22.0794 203.482 22.4672 203.184 22.7987C202.889 23.1268 202.511 23.382 202.05 23.5643C201.59 23.7433 201.063 23.8327 200.469 23.8327ZM206.923 23.6836L204.765 16.0472H206.599L207.942 21.4165H208.011L209.384 16.0472H211.198L212.57 21.3867H212.645L213.967 16.0472H215.807L213.644 23.6836H211.77L210.338 18.5231H210.234L208.802 23.6836H206.923ZM223.099 18.0657L221.458 18.2447C221.412 18.079 221.331 17.9232 221.215 17.7773C221.102 17.6315 220.95 17.5138 220.757 17.4244C220.565 17.3349 220.33 17.2901 220.051 17.2901C219.677 17.2901 219.362 17.3713 219.107 17.5337C218.855 17.6961 218.731 17.9066 218.734 18.1651C218.731 18.3872 218.812 18.5678 218.977 18.707C219.146 18.8462 219.425 18.9606 219.813 19.0501L221.115 19.3285C221.838 19.4843 222.375 19.7312 222.726 20.0692C223.081 20.4073 223.26 20.8498 223.263 21.3967C223.26 21.8772 223.119 22.3015 222.84 22.6694C222.565 23.034 222.182 23.319 221.692 23.5245C221.201 23.73 220.638 23.8327 220.002 23.8327C219.067 23.8327 218.315 23.6372 217.744 23.2461C217.174 22.8517 216.835 22.3031 216.725 21.6005L218.48 21.4315C218.56 21.7762 218.729 22.0363 218.987 22.212C219.246 22.3877 219.582 22.4755 219.997 22.4755C220.424 22.4755 220.767 22.3877 221.026 22.212C221.288 22.0363 221.419 21.8192 221.419 21.5607C221.419 21.342 221.334 21.1613 221.165 21.0188C220.999 20.8763 220.741 20.7669 220.389 20.6907L219.087 20.4173C218.354 20.2648 217.812 20.0079 217.461 19.6467C217.11 19.2821 216.936 18.8214 216.939 18.2646C216.936 17.7939 217.063 17.3862 217.322 17.0415C217.584 16.6935 217.947 16.4251 218.411 16.2362C218.878 16.0439 219.417 15.9478 220.026 15.9478C220.921 15.9478 221.626 16.1384 222.139 16.5195C222.656 16.9007 222.976 17.4161 223.099 18.0657ZM231.551 23.8327C230.805 23.8327 230.159 23.6687 229.612 23.3406C229.065 23.0124 228.641 22.5534 228.339 21.9634C228.041 21.3735 227.892 20.6841 227.892 19.8952C227.892 19.1064 228.041 18.4154 228.339 17.8221C228.641 17.2288 229.065 16.7681 229.612 16.44C230.159 16.1119 230.805 15.9478 231.551 15.9478C232.296 15.9478 232.943 16.1119 233.49 16.44C234.036 16.7681 234.459 17.2288 234.757 17.8221C235.059 18.4154 235.21 19.1064 235.21 19.8952C235.21 20.6841 235.059 21.3735 234.757 21.9634C234.459 22.5534 234.036 23.0124 233.49 23.3406C232.943 23.6687 232.296 23.8327 231.551 23.8327ZM231.561 22.391C231.965 22.391 232.303 22.2799 232.575 22.0579C232.847 21.8325 233.049 21.5309 233.181 21.1531C233.317 20.7752 233.385 20.3543 233.385 19.8903C233.385 19.4229 233.317 19.0004 233.181 18.6225C233.049 18.2414 232.847 17.9381 232.575 17.7127C232.303 17.4873 231.965 17.3746 231.561 17.3746C231.146 17.3746 230.802 17.4873 230.526 17.7127C230.255 17.9381 230.051 18.2414 229.915 18.6225C229.782 19.0004 229.716 19.4229 229.716 19.8903C229.716 20.3543 229.782 20.7752 229.915 21.1531C230.051 21.5309 230.255 21.8325 230.526 22.0579C230.802 22.2799 231.146 22.391 231.561 22.391ZM238.537 19.2092V23.6836H236.737V16.0472H238.457V17.3448H238.547C238.723 16.9173 239.003 16.5775 239.387 16.3256C239.775 16.0737 240.254 15.9478 240.824 15.9478C241.351 15.9478 241.81 16.0605 242.201 16.2859C242.595 16.5112 242.9 16.8377 243.116 17.2653C243.335 17.6928 243.442 18.2115 243.439 18.8214V23.6836H241.639V19.0998C241.639 18.5894 241.507 18.19 241.241 17.9016C240.98 17.6133 240.617 17.4691 240.153 17.4691C239.838 17.4691 239.558 17.5387 239.312 17.6779C239.071 17.8138 238.88 18.011 238.741 18.2695C238.605 18.5281 238.537 18.8413 238.537 19.2092ZM255.642 16.7532C255.559 16.4847 255.444 16.2444 255.299 16.0323C255.156 15.8169 254.984 15.6329 254.782 15.4805C254.583 15.328 254.354 15.2137 254.096 15.1374C253.837 15.0579 253.555 15.0181 253.25 15.0181C252.703 15.0181 252.216 15.1557 251.789 15.4308C251.361 15.7058 251.025 16.1102 250.779 16.6438C250.538 17.1741 250.417 17.8204 250.417 18.5827C250.417 19.3517 250.538 20.003 250.779 20.5366C251.021 21.0702 251.358 21.4762 251.789 21.7546C252.22 22.0297 252.72 22.1673 253.29 22.1673C253.807 22.1673 254.255 22.0678 254.632 21.869C255.014 21.6701 255.307 21.3884 255.512 21.0238C255.718 20.6559 255.821 20.225 255.821 19.7312L256.238 19.7958H253.474V18.354H257.605V19.5771C257.605 20.4487 257.42 21.2028 257.049 21.8391C256.677 22.4755 256.167 22.966 255.517 23.3107C254.868 23.6521 254.122 23.8228 253.28 23.8228C252.342 23.8228 251.519 23.6123 250.809 23.1914C250.103 22.7672 249.551 22.1656 249.154 21.3867C248.759 20.6045 248.562 19.6765 248.562 18.6026C248.562 17.7807 248.678 17.0465 248.91 16.4002C249.145 15.7539 249.474 15.2054 249.895 14.7546C250.315 14.3005 250.809 13.9558 251.376 13.7205C251.943 13.4819 252.559 13.3626 253.225 13.3626C253.789 13.3626 254.314 13.4454 254.801 13.6112C255.289 13.7736 255.721 14.0056 256.099 14.3072C256.48 14.6088 256.793 14.9667 257.039 15.381C257.284 15.7953 257.445 16.2527 257.521 16.7532H255.642ZM262.64 23.8327C261.895 23.8327 261.248 23.6687 260.702 23.3406C260.155 23.0124 259.73 22.5534 259.429 21.9634C259.131 21.3735 258.981 20.6841 258.981 19.8952C258.981 19.1064 259.131 18.4154 259.429 17.8221C259.73 17.2288 260.155 16.7681 260.702 16.44C261.248 16.1119 261.895 15.9478 262.64 15.9478C263.386 15.9478 264.032 16.1119 264.579 16.44C265.126 16.7681 265.549 17.2288 265.847 17.8221C266.149 18.4154 266.3 19.1064 266.3 19.8952C266.3 20.6841 266.149 21.3735 265.847 21.9634C265.549 22.5534 265.126 23.0124 264.579 23.3406C264.032 23.6687 263.386 23.8327 262.64 23.8327ZM262.65 22.391C263.055 22.391 263.393 22.2799 263.665 22.0579C263.936 21.8325 264.139 21.5309 264.271 21.1531C264.407 20.7752 264.475 20.3543 264.475 19.8903C264.475 19.4229 264.407 19.0004 264.271 18.6225C264.139 18.2414 263.936 17.9381 263.665 17.7127C263.393 17.4873 263.055 17.3746 262.65 17.3746C262.236 17.3746 261.891 17.4873 261.616 17.7127C261.345 17.9381 261.141 18.2414 261.005 18.6225C260.872 19.0004 260.806 19.4229 260.806 19.8903C260.806 20.3543 260.872 20.7752 261.005 21.1531C261.141 21.5309 261.345 21.8325 261.616 22.0579C261.891 22.2799 262.236 22.391 262.65 22.391ZM271.158 23.8327C270.412 23.8327 269.766 23.6687 269.219 23.3406C268.672 23.0124 268.248 22.5534 267.946 21.9634C267.648 21.3735 267.499 20.6841 267.499 19.8952C267.499 19.1064 267.648 18.4154 267.946 17.8221C268.248 17.2288 268.672 16.7681 269.219 16.44C269.766 16.1119 270.412 15.9478 271.158 15.9478C271.904 15.9478 272.55 16.1119 273.097 16.44C273.644 16.7681 274.066 17.2288 274.365 17.8221C274.666 18.4154 274.817 19.1064 274.817 19.8952C274.817 20.6841 274.666 21.3735 274.365 21.9634C274.066 22.5534 273.644 23.0124 273.097 23.3406C272.55 23.6687 271.904 23.8327 271.158 23.8327ZM271.168 22.391C271.572 22.391 271.91 22.2799 272.182 22.0579C272.454 21.8325 272.656 21.5309 272.789 21.1531C272.925 20.7752 272.993 20.3543 272.993 19.8903C272.993 19.4229 272.925 19.0004 272.789 18.6225C272.656 18.2414 272.454 17.9381 272.182 17.7127C271.91 17.4873 271.572 17.3746 271.168 17.3746C270.754 17.3746 270.409 17.4873 270.134 17.7127C269.862 17.9381 269.658 18.2414 269.522 18.6225C269.39 19.0004 269.324 19.4229 269.324 19.8903C269.324 20.3543 269.39 20.7752 269.522 21.1531C269.658 21.5309 269.862 21.8325 270.134 22.0579C270.409 22.2799 270.754 22.391 271.168 22.391ZM279.666 26.7063C279.019 26.7063 278.464 26.6185 278 26.4428C277.536 26.2705 277.163 26.0385 276.882 25.7468C276.6 25.4551 276.404 25.132 276.295 24.7773L277.916 24.3846C277.989 24.5337 278.095 24.6812 278.234 24.8271C278.373 24.9762 278.56 25.0988 278.796 25.195C279.034 25.2944 279.334 25.3441 279.695 25.3441C280.206 25.3441 280.628 25.2198 280.963 24.9712C281.298 24.726 281.465 24.3216 281.465 23.7582V22.3114H281.376C281.283 22.497 281.147 22.6876 280.968 22.8832C280.793 23.0787 280.559 23.2428 280.267 23.3754C279.979 23.5079 279.616 23.5742 279.178 23.5742C278.592 23.5742 278.06 23.4367 277.583 23.1616C277.109 22.8832 276.731 22.4689 276.449 21.9187C276.171 21.3652 276.031 20.6725 276.031 19.8406C276.031 19.002 276.171 18.2944 276.449 17.7177C276.731 17.1377 277.11 16.6985 277.588 16.4002C278.065 16.0986 278.597 15.9478 279.183 15.9478C279.631 15.9478 279.999 16.024 280.287 16.1765C280.579 16.3256 280.811 16.5063 280.983 16.7184C281.155 16.9272 281.286 17.1244 281.376 17.31H281.475V16.0472H283.25V23.8079C283.25 24.4608 283.094 25.0011 282.783 25.4286C282.471 25.8562 282.045 26.176 281.505 26.3881C280.965 26.6003 280.352 26.7063 279.666 26.7063ZM279.681 22.1623C280.062 22.1623 280.387 22.0695 280.655 21.8839C280.923 21.6983 281.127 21.4315 281.267 21.0835C281.406 20.7354 281.475 20.3178 281.475 19.8306C281.475 19.35 281.406 18.9291 281.267 18.5678C281.131 18.2066 280.928 17.9265 280.66 17.7276C280.395 17.5254 280.068 17.4244 279.681 17.4244C279.28 17.4244 278.945 17.5288 278.676 17.7376C278.408 17.9464 278.206 18.2331 278.07 18.5977C277.934 18.9589 277.866 19.3699 277.866 19.8306C277.866 20.2979 277.934 20.7073 278.07 21.0586C278.209 21.4066 278.413 21.6784 278.681 21.8739C278.953 22.0662 279.286 22.1623 279.681 22.1623ZM286.894 13.5018V23.6836H285.095V13.5018H286.894ZM292.126 23.8327C291.36 23.8327 290.699 23.6737 290.142 23.3555C289.589 23.034 289.163 22.5799 288.864 21.9933C288.566 21.4033 288.417 20.7089 288.417 19.9102C288.417 19.1246 288.566 18.4353 288.864 17.842C289.166 17.2454 289.587 16.7814 290.127 16.4499C290.667 16.1152 291.302 15.9478 292.031 15.9478C292.502 15.9478 292.946 16.024 293.364 16.1765C293.785 16.3256 294.156 16.5576 294.477 16.8725C294.802 17.1874 295.057 17.5884 295.243 18.0756C295.429 18.5595 295.521 19.1362 295.521 19.8058V20.3576H289.262V19.1445H293.796C293.793 18.7998 293.718 18.4933 293.572 18.2248C293.427 17.953 293.223 17.7392 292.961 17.5835C292.702 17.4277 292.401 17.3498 292.056 17.3498C291.688 17.3498 291.365 17.4393 291.087 17.6183C290.808 17.7939 290.591 18.0259 290.435 18.3143C290.283 18.5993 290.205 18.9125 290.202 19.2539V20.3129C290.202 20.757 290.283 21.1381 290.445 21.4563C290.608 21.7712 290.835 22.0131 291.126 22.1822C291.418 22.3479 291.759 22.4308 292.151 22.4308C292.412 22.4308 292.649 22.3943 292.862 22.3214C293.074 22.2451 293.258 22.1341 293.413 21.9883C293.569 21.8424 293.687 21.6618 293.766 21.4464L295.447 21.6353C295.341 22.0794 295.138 22.4672 294.84 22.7987C294.545 23.1268 294.167 23.382 293.707 23.5643C293.246 23.7433 292.719 23.8327 292.126 23.8327Z" fill="#343434"/>
<path d="M98.4019 33.1445L101.141 39.7297L108.25 40.2997L102.834 44.9395L104.488 51.8769L98.4019 48.1593L92.3154 51.8769L93.9702 44.9395L88.5537 40.2997L95.6629 39.7297L98.4019 33.1445Z" fill="#FFB300"/>
<path d="M127.113 33.1445L129.852 39.7297L136.961 40.2997L131.544 44.9395L133.199 51.8769L127.113 48.1593L121.026 51.8769L122.681 44.9395L117.265 40.2997L124.374 39.7297L127.113 33.1445Z" fill="#FFB300"/>
<path d="M155.824 33.1445L158.563 39.7297L165.672 40.2997L160.255 44.9395L161.91 51.8769L155.824 48.1593L149.737 51.8769L151.392 44.9395L145.976 40.2997L153.085 39.7297L155.824 33.1445Z" fill="#FFB300"/>
<path d="M184.535 33.1445L187.274 39.7297L194.383 40.2997L188.966 44.9395L190.621 51.8769L184.535 48.1593L178.448 51.8769L180.103 44.9395L174.686 40.2997L181.796 39.7297L184.535 33.1445Z" fill="#FFB300"/>
<path d="M213.246 33.1445L215.985 39.7297L223.094 40.2997L217.677 44.9395L219.332 51.8769L213.246 48.1593L207.159 51.8769L208.814 44.9395L203.397 40.2997L210.507 39.7297L213.246 33.1445Z" fill="#FFB300"/>
<path d="M93.7656 66.8817C93.7202 66.4783 93.5327 66.1658 93.2031 65.9442C92.8736 65.7198 92.4588 65.6076 91.9588 65.6076C91.6009 65.6076 91.2912 65.6644 91.0298 65.7781C90.7685 65.8888 90.5653 66.0423 90.4205 66.2383C90.2784 66.4315 90.2074 66.6516 90.2074 66.8988C90.2074 67.1062 90.2557 67.2852 90.3523 67.4357C90.4517 67.5863 90.581 67.7127 90.7401 67.815C90.902 67.9144 91.0753 67.9982 91.2599 68.0664C91.4446 68.1317 91.6222 68.1857 91.7926 68.2283L92.6449 68.4499C92.9233 68.5181 93.2088 68.6104 93.5014 68.7269C93.794 68.8434 94.0653 68.9968 94.3153 69.1871C94.5653 69.3775 94.767 69.6133 94.9205 69.8945C95.0767 70.1758 95.1548 70.5124 95.1548 70.9045C95.1548 71.3988 95.027 71.8377 94.7713 72.2212C94.5185 72.6048 94.1506 72.9073 93.6676 73.1289C93.1875 73.3505 92.6065 73.4613 91.9247 73.4613C91.2713 73.4613 90.706 73.3576 90.2287 73.1502C89.7514 72.9428 89.3778 72.6488 89.108 72.2681C88.8381 71.8846 88.6889 71.43 88.6605 70.9045H89.9815C90.0071 71.2198 90.1094 71.4826 90.2884 71.6928C90.4702 71.9002 90.7017 72.055 90.983 72.1573C91.267 72.2567 91.5781 72.3065 91.9162 72.3065C92.2884 72.3065 92.6193 72.2482 92.9091 72.1317C93.2017 72.0124 93.4318 71.8477 93.5994 71.6374C93.767 71.4244 93.8509 71.1758 93.8509 70.8917C93.8509 70.6332 93.777 70.4215 93.6293 70.2567C93.4844 70.092 93.2869 69.9556 93.0369 69.8477C92.7898 69.7397 92.5099 69.6445 92.1974 69.5621L91.1662 69.2809C90.4673 69.0906 89.9134 68.8107 89.5043 68.4414C89.098 68.0721 88.8949 67.5835 88.8949 66.9755C88.8949 66.4727 89.0313 66.0337 89.304 65.6587C89.5767 65.2837 89.946 64.9925 90.4119 64.7852C90.8778 64.5749 91.4034 64.4698 91.9886 64.4698C92.5795 64.4698 93.1009 64.5735 93.5526 64.7809C94.0071 64.9883 94.3651 65.2738 94.6264 65.6374C94.8878 65.9982 95.0241 66.413 95.0355 66.8817H93.7656ZM99.4471 73.4485C98.8022 73.4485 98.2468 73.3107 97.7809 73.0352C97.3178 72.7567 96.9599 72.3661 96.707 71.8633C96.457 71.3576 96.332 70.7653 96.332 70.0863C96.332 69.4158 96.457 68.8249 96.707 68.3136C96.9599 67.8022 97.3121 67.4031 97.7638 67.1161C98.2184 66.8292 98.7496 66.6857 99.3576 66.6857C99.7269 66.6857 100.085 66.7468 100.431 66.869C100.778 66.9911 101.089 67.1829 101.365 67.4442C101.64 67.7056 101.858 68.0451 102.017 68.4627C102.176 68.8775 102.255 69.3817 102.255 69.9755V70.4272H97.0522V69.4727H101.007C101.007 69.1374 100.939 68.8406 100.802 68.582C100.666 68.3207 100.474 68.1147 100.227 67.9641C99.9826 67.8136 99.6957 67.7383 99.3661 67.7383C99.0082 67.7383 98.6957 67.8263 98.4286 68.0025C98.1644 68.1758 97.9599 68.4031 97.815 68.6843C97.6729 68.9627 97.6019 69.2653 97.6019 69.592V70.3377C97.6019 70.7752 97.6786 71.1474 97.832 71.4542C97.9883 71.761 98.2056 71.9954 98.484 72.1573C98.7624 72.3164 99.0877 72.396 99.4599 72.396C99.7013 72.396 99.9215 72.3619 100.12 72.2937C100.319 72.2227 100.491 72.1175 100.636 71.9783C100.781 71.8391 100.892 71.6673 100.968 71.4627L102.174 71.68C102.078 72.0352 101.904 72.3462 101.654 72.6133C101.407 72.8775 101.096 73.0835 100.721 73.2312C100.349 73.3761 99.9244 73.4485 99.4471 73.4485ZM106.49 73.4485C105.845 73.4485 105.29 73.3107 104.824 73.0352C104.361 72.7567 104.003 72.3661 103.75 71.8633C103.5 71.3576 103.375 70.7653 103.375 70.0863C103.375 69.4158 103.5 68.8249 103.75 68.3136C104.003 67.8022 104.355 67.4031 104.807 67.1161C105.261 66.8292 105.793 66.6857 106.401 66.6857C106.77 66.6857 107.128 66.7468 107.474 66.869C107.821 66.9911 108.132 67.1829 108.408 67.4442C108.683 67.7056 108.901 68.0451 109.06 68.4627C109.219 68.8775 109.298 69.3817 109.298 69.9755V70.4272H104.095V69.4727H108.05C108.05 69.1374 107.982 68.8406 107.845 68.582C107.709 68.3207 107.517 68.1147 107.27 67.9641C107.026 67.8136 106.739 67.7383 106.409 67.7383C106.051 67.7383 105.739 67.8263 105.472 68.0025C105.207 68.1758 105.003 68.4031 104.858 68.6843C104.716 68.9627 104.645 69.2653 104.645 69.592V70.3377C104.645 70.7752 104.722 71.1474 104.875 71.4542C105.031 71.761 105.249 71.9954 105.527 72.1573C105.805 72.3164 106.131 72.396 106.503 72.396C106.744 72.396 106.964 72.3619 107.163 72.2937C107.362 72.2227 107.534 72.1175 107.679 71.9783C107.824 71.8391 107.935 71.6673 108.011 71.4627L109.217 71.68C109.121 72.0352 108.947 72.3462 108.697 72.6133C108.45 72.8775 108.139 73.0835 107.764 73.2312C107.392 73.3761 106.967 73.4485 106.49 73.4485ZM115.793 73.4613C115.378 73.4613 115.003 73.3846 114.668 73.2312C114.332 73.0749 114.067 72.8491 113.871 72.5536C113.678 72.2582 113.581 71.896 113.581 71.467C113.581 71.0977 113.652 70.7937 113.794 70.555C113.936 70.3164 114.128 70.1275 114.369 69.9883C114.611 69.8491 114.881 69.744 115.179 69.6729C115.477 69.6019 115.781 69.5479 116.091 69.511C116.483 69.4656 116.801 69.4286 117.045 69.4002C117.29 69.369 117.467 69.3192 117.578 69.2511C117.689 69.1829 117.744 69.0721 117.744 68.9187V68.8888C117.744 68.5167 117.639 68.2283 117.429 68.0238C117.222 67.8192 116.912 67.717 116.5 67.717C116.071 67.717 115.733 67.8121 115.486 68.0025C115.241 68.19 115.072 68.3988 114.979 68.6289L113.781 68.3562C113.923 67.9585 114.131 67.6374 114.403 67.3931C114.679 67.146 114.996 66.967 115.354 66.8562C115.712 66.7425 116.088 66.6857 116.483 66.6857C116.744 66.6857 117.021 66.717 117.314 66.7795C117.609 66.8391 117.885 66.9499 118.141 67.1119C118.399 67.2738 118.611 67.5053 118.776 67.8065C118.94 68.1048 119.023 68.4925 119.023 68.9698V73.3164H117.778V72.4215H117.727C117.645 72.5863 117.521 72.7482 117.357 72.9073C117.192 73.0664 116.98 73.1985 116.722 73.3036C116.463 73.4087 116.153 73.4613 115.793 73.4613ZM116.07 72.4386C116.422 72.4386 116.723 72.369 116.973 72.2298C117.226 72.0906 117.418 71.9087 117.548 71.6843C117.682 71.457 117.749 71.2141 117.749 70.9556V70.1119C117.703 70.1573 117.615 70.1999 117.484 70.2397C117.357 70.2766 117.21 70.3093 117.045 70.3377C116.881 70.3633 116.72 70.3874 116.564 70.4102C116.408 70.43 116.277 70.4471 116.172 70.4613C115.925 70.4925 115.699 70.5451 115.494 70.619C115.293 70.6928 115.131 70.7994 115.009 70.9386C114.889 71.0749 114.83 71.2567 114.83 71.484C114.83 71.7994 114.946 72.038 115.179 72.1999C115.412 72.359 115.709 72.4386 116.07 72.4386ZM121.994 64.5891V73.3164H120.72V64.5891H121.994ZM124.982 64.5891V73.3164H123.708V64.5891H124.982ZM132.629 73.4485C132.016 73.4485 131.48 73.3079 131.023 73.0266C130.565 72.7454 130.21 72.3519 129.957 71.8462C129.705 71.3406 129.578 70.7496 129.578 70.0735C129.578 69.3945 129.705 68.8008 129.957 68.2923C130.21 67.7837 130.565 67.3888 131.023 67.1076C131.48 66.8263 132.016 66.6857 132.629 66.6857C133.243 66.6857 133.778 66.8263 134.236 67.1076C134.693 67.3888 135.048 67.7837 135.301 68.2923C135.554 68.8008 135.68 69.3945 135.68 70.0735C135.68 70.7496 135.554 71.3406 135.301 71.8462C135.048 72.3519 134.693 72.7454 134.236 73.0266C133.778 73.3079 133.243 73.4485 132.629 73.4485ZM132.634 72.3789C133.031 72.3789 133.361 72.2738 133.622 72.0636C133.884 71.8533 134.077 71.5735 134.202 71.2241C134.33 70.8746 134.393 70.4897 134.393 70.0692C134.393 69.6516 134.33 69.2681 134.202 68.9187C134.077 68.5664 133.884 68.2837 133.622 68.0707C133.361 67.8576 133.031 67.7511 132.634 67.7511C132.233 67.7511 131.901 67.8576 131.636 68.0707C131.375 68.2837 131.18 68.5664 131.053 68.9187C130.928 69.2681 130.865 69.6516 130.865 70.0692C130.865 70.4897 130.928 70.8746 131.053 71.2241C131.18 71.5735 131.375 71.8533 131.636 72.0636C131.901 72.2738 132.233 72.3789 132.634 72.3789ZM141.249 70.6019V66.771H142.527V73.3164H141.275V72.1829H141.206C141.056 72.5323 140.814 72.8235 140.482 73.0565C140.152 73.2866 139.742 73.4016 139.25 73.4016C138.83 73.4016 138.458 73.3093 138.134 73.1246C137.813 72.9371 137.56 72.6602 137.375 72.2937C137.194 71.9272 137.103 71.4741 137.103 70.9343V66.771H138.377V70.7809C138.377 71.2269 138.5 71.582 138.748 71.8462C138.995 72.1104 139.316 72.2425 139.711 72.2425C139.949 72.2425 140.186 72.1829 140.422 72.0636C140.661 71.9442 140.858 71.7638 141.015 71.5224C141.174 71.2809 141.252 70.9741 141.249 70.6019ZM144.239 73.3164V66.771H145.471V67.8107H145.539C145.658 67.4585 145.869 67.1815 146.17 66.9798C146.474 66.7752 146.817 66.6729 147.201 66.6729C147.281 66.6729 147.374 66.6758 147.482 66.6815C147.593 66.6871 147.68 66.6942 147.742 66.7028V67.9215C147.691 67.9073 147.6 67.8917 147.469 67.8746C147.339 67.8548 147.208 67.8448 147.077 67.8448C146.776 67.8448 146.508 67.9087 146.272 68.0366C146.039 68.1616 145.854 68.3363 145.718 68.5607C145.582 68.7823 145.513 69.0352 145.513 69.3192V73.3164H144.239ZM152.021 73.3164V66.771H153.252V67.8107H153.32C153.44 67.4585 153.65 67.1815 153.951 66.9798C154.255 66.7752 154.599 66.6729 154.982 66.6729C155.062 66.6729 155.156 66.6758 155.263 66.6815C155.374 66.6871 155.461 66.6942 155.523 66.7028V67.9215C155.472 67.9073 155.381 67.8917 155.251 67.8746C155.12 67.8548 154.989 67.8448 154.859 67.8448C154.558 67.8448 154.289 67.9087 154.053 68.0366C153.82 68.1616 153.636 68.3363 153.499 68.5607C153.363 68.7823 153.295 69.0352 153.295 69.3192V73.3164H152.021ZM159.213 73.4485C158.568 73.4485 158.012 73.3107 157.547 73.0352C157.083 72.7567 156.725 72.3661 156.473 71.8633C156.223 71.3576 156.098 70.7653 156.098 70.0863C156.098 69.4158 156.223 68.8249 156.473 68.3136C156.725 67.8022 157.078 67.4031 157.529 67.1161C157.984 66.8292 158.515 66.6857 159.123 66.6857C159.493 66.6857 159.85 66.7468 160.197 66.869C160.544 66.9911 160.855 67.1829 161.13 67.4442C161.406 67.7056 161.623 68.0451 161.782 68.4627C161.941 68.8775 162.021 69.3817 162.021 69.9755V70.4272H156.818V69.4727H160.772C160.772 69.1374 160.704 68.8406 160.568 68.582C160.431 68.3207 160.24 68.1147 159.993 67.9641C159.748 67.8136 159.461 67.7383 159.132 67.7383C158.774 67.7383 158.461 67.8263 158.194 68.0025C157.93 68.1758 157.725 68.4031 157.581 68.6843C157.439 68.9627 157.368 69.2653 157.368 69.592V70.3377C157.368 70.7752 157.444 71.1474 157.598 71.4542C157.754 71.761 157.971 71.9954 158.25 72.1573C158.528 72.3164 158.853 72.396 159.225 72.396C159.467 72.396 159.687 72.3619 159.886 72.2937C160.085 72.2227 160.257 72.1175 160.402 71.9783C160.547 71.8391 160.657 71.6673 160.734 71.4627L161.94 71.68C161.843 72.0352 161.67 72.3462 161.42 72.6133C161.173 72.8775 160.862 73.0835 160.487 73.2312C160.115 73.3761 159.69 73.4485 159.213 73.4485ZM168.847 66.771L166.473 73.3164H165.109L162.732 66.771H164.099L165.757 71.8079H165.825L167.479 66.771H168.847ZM170.044 73.3164V66.771H171.318V73.3164H170.044ZM170.688 65.761C170.466 65.761 170.276 65.6871 170.116 65.5394C169.96 65.3888 169.882 65.2099 169.882 65.0025C169.882 64.7923 169.96 64.6133 170.116 64.4656C170.276 64.315 170.466 64.2397 170.688 64.2397C170.909 64.2397 171.098 64.315 171.254 64.4656C171.413 64.6133 171.493 64.7923 171.493 65.0025C171.493 65.2099 171.413 65.3888 171.254 65.5394C171.098 65.6871 170.909 65.761 170.688 65.761ZM175.853 73.4485C175.208 73.4485 174.653 73.3107 174.187 73.0352C173.724 72.7567 173.366 72.3661 173.113 71.8633C172.863 71.3576 172.738 70.7653 172.738 70.0863C172.738 69.4158 172.863 68.8249 173.113 68.3136C173.366 67.8022 173.718 67.4031 174.17 67.1161C174.625 66.8292 175.156 66.6857 175.764 66.6857C176.133 66.6857 176.491 66.7468 176.838 66.869C177.184 66.9911 177.495 67.1829 177.771 67.4442C178.047 67.7056 178.264 68.0451 178.423 68.4627C178.582 68.8775 178.662 69.3817 178.662 69.9755V70.4272H173.458V69.4727H177.413C177.413 69.1374 177.345 68.8406 177.208 68.582C177.072 68.3207 176.88 68.1147 176.633 67.9641C176.389 67.8136 176.102 67.7383 175.772 67.7383C175.414 67.7383 175.102 67.8263 174.835 68.0025C174.571 68.1758 174.366 68.4031 174.221 68.6843C174.079 68.9627 174.008 69.2653 174.008 69.592V70.3377C174.008 70.7752 174.085 71.1474 174.238 71.4542C174.395 71.761 174.612 71.9954 174.89 72.1573C175.169 72.3164 175.494 72.396 175.866 72.396C176.108 72.396 176.328 72.3619 176.527 72.2937C176.725 72.2227 176.897 72.1175 177.042 71.9783C177.187 71.8391 177.298 71.6673 177.375 71.4627L178.581 71.68C178.484 72.0352 178.311 72.3462 178.061 72.6133C177.814 72.8775 177.502 73.0835 177.127 73.2312C176.755 73.3761 176.331 73.4485 175.853 73.4485ZM181.483 73.3164L179.556 66.771H180.873L182.156 71.5778H182.22L183.507 66.771H184.824L186.102 71.5565H186.166L187.44 66.771H188.757L186.835 73.3164H185.535L184.206 68.5906H184.108L182.778 73.3164H181.483ZM194.871 68.369L193.716 68.5735C193.668 68.4258 193.591 68.2852 193.486 68.1516C193.384 68.0181 193.244 67.9087 193.068 67.8235C192.892 67.7383 192.672 67.6957 192.408 67.6957C192.047 67.6957 191.746 67.7766 191.504 67.9386C191.263 68.0977 191.142 68.3036 191.142 68.5565C191.142 68.7752 191.223 68.9513 191.385 69.0849C191.547 69.2184 191.808 69.3278 192.169 69.413L193.209 69.6516C193.811 69.7908 194.26 70.0053 194.555 70.2951C194.851 70.5849 194.999 70.9613 194.999 71.4244C194.999 71.8164 194.885 72.1658 194.658 72.4727C194.433 72.7766 194.119 73.0153 193.716 73.1886C193.315 73.3619 192.851 73.4485 192.322 73.4485C191.589 73.4485 190.991 73.2923 190.528 72.9798C190.065 72.6644 189.781 72.217 189.676 71.6374L190.908 71.4499C190.984 71.771 191.142 72.0138 191.381 72.1786C191.619 72.3406 191.93 72.4215 192.314 72.4215C192.732 72.4215 193.065 72.3349 193.315 72.1616C193.565 71.9854 193.69 71.771 193.69 71.5181C193.69 71.3136 193.614 71.1417 193.46 71.0025C193.31 70.8633 193.078 70.7582 192.766 70.6871L191.658 70.4442C191.047 70.305 190.595 70.0835 190.303 69.7795C190.013 69.4755 189.868 69.0906 189.868 68.6246C189.868 68.2383 189.976 67.9002 190.192 67.6104C190.408 67.3207 190.706 67.0948 191.087 66.9329C191.467 66.7681 191.903 66.6857 192.395 66.6857C193.102 66.6857 193.659 66.8391 194.065 67.146C194.472 67.4499 194.74 67.8576 194.871 68.369Z" fill="#1976D2"/>
</svg>
