<svg width="48" height="48" viewBox="0 0 48 48" fill="none" xmlns="http://www.w3.org/2000/svg">
<path d="M8 24C8.60545 24.0011 9.21046 23.9671 9.812 23.8984C9.91846 23.889 10.0219 23.8583 10.1163 23.8082C10.2108 23.7581 10.2942 23.6896 10.3617 23.6068C10.4292 23.5239 10.4794 23.4284 10.5093 23.3258C10.5393 23.2232 10.5484 23.1156 10.5361 23.0095C10.5238 22.9033 10.4904 22.8007 10.4378 22.7077C10.3851 22.6147 10.3144 22.5331 10.2298 22.4679C10.1451 22.4026 10.0483 22.355 9.9449 22.3278C9.84155 22.3006 9.73379 22.2944 9.628 22.3096C9.08751 22.3709 8.54395 22.4011 8 22.4C4.0936 22.4 1.6 20.9784 1.6 20V17.6512C3.54623 18.7565 5.76373 19.2932 8 19.2C10.2362 19.2934 12.4537 18.7571 14.4 17.652V20C14.4 20.2122 14.4843 20.4157 14.6343 20.5657C14.7843 20.7157 14.9878 20.8 15.2 20.8C15.4122 20.8 15.6157 20.7157 15.7657 20.5657C15.9157 20.4157 16 20.2122 16 20V15.2C16 12.92 12.5608 11.2 8 11.2C3.4392 11.2 0 12.92 0 15.2V44C0 46.28 3.4392 48 8 48C8.56645 47.999 9.13249 47.9696 9.696 47.912C9.80053 47.9014 9.90195 47.8703 9.99447 47.8205C10.087 47.7707 10.1688 47.7031 10.2352 47.6217C10.3016 47.5403 10.3513 47.4466 10.3815 47.346C10.4117 47.2453 10.4218 47.1397 10.4112 47.0352C10.4006 46.9307 10.3695 46.8293 10.3197 46.7367C10.2699 46.6442 10.2023 46.5624 10.1209 46.496C10.0395 46.4296 9.9458 46.3799 9.84517 46.3497C9.74453 46.3195 9.63893 46.3094 9.5344 46.32C9.02462 46.3726 8.51249 46.3993 8 46.4C4.0936 46.4 1.6 44.9784 1.6 44V41.652C3.54631 42.7571 5.76381 43.2934 8 43.2C8.288 43.2 8.568 43.192 8.848 43.1744C9.05698 43.1579 9.25113 43.06 9.38868 42.9018C9.52623 42.7436 9.59619 42.5377 9.5835 42.3285C9.57082 42.1192 9.4765 41.9233 9.32085 41.7829C9.1652 41.6425 8.96065 41.5688 8.7512 41.5776C8.5032 41.5928 8.2552 41.6 7.9992 41.6C4.0928 41.6 1.5992 40.1784 1.5992 39.2V36.852C3.54575 37.9572 5.76354 38.4936 8 38.4C8.288 38.4 8.568 38.392 8.848 38.3744C9.05698 38.3579 9.25113 38.26 9.38868 38.1018C9.52623 37.9436 9.59619 37.7377 9.5835 37.5285C9.57082 37.3192 9.4765 37.1233 9.32085 36.9829C9.1652 36.8425 8.96065 36.7688 8.7512 36.7776C8.5032 36.7928 8.2552 36.8 7.9992 36.8C4.0928 36.8 1.5992 35.3784 1.5992 34.4V32.052C3.54575 33.1572 5.76354 33.6936 8 33.6C8.288 33.6 8.568 33.592 8.848 33.5744C9.05698 33.5579 9.25113 33.46 9.38868 33.3018C9.52623 33.1436 9.59619 32.9377 9.5835 32.7285C9.57082 32.5192 9.4765 32.3233 9.32085 32.1829C9.1652 32.0425 8.96065 31.9688 8.7512 31.9776C8.5032 31.9928 8.2552 32 7.9992 32C4.0928 32 1.5992 30.5784 1.5992 29.6V27.252C3.54575 28.3572 5.76354 28.8936 8 28.8C8.288 28.8 8.568 28.792 8.848 28.7744C9.05698 28.7579 9.25113 28.66 9.38868 28.5018C9.52623 28.3436 9.59619 28.1377 9.5835 27.9285C9.57082 27.7192 9.4765 27.5233 9.32085 27.3829C9.1652 27.2425 8.96065 27.1688 8.7512 27.1776C8.5032 27.1928 8.2552 27.2 7.9992 27.2C4.0928 27.2 1.5992 25.7784 1.5992 24.8V22.4512C3.54567 23.5567 5.76346 24.0933 8 24ZM8 12.8C11.9064 12.8 14.4 14.2216 14.4 15.2C14.4 16.1784 11.9064 17.6 8 17.6C4.0936 17.6 1.6 16.1784 1.6 15.2C1.6 14.2216 4.0936 12.8 8 12.8ZM44 22.4H15.2C14.1395 22.4013 13.1228 22.8231 12.373 23.573C11.6231 24.3228 11.2013 25.3395 11.2 26.4V44C11.2013 45.0605 11.6231 46.0772 12.373 46.827C13.1228 47.5769 14.1395 47.9987 15.2 48H44C45.0605 47.9987 46.0772 47.5769 46.827 46.827C47.5769 46.0772 47.9987 45.0605 48 44V26.4C47.9987 25.3395 47.5769 24.3228 46.827 23.573C46.0772 22.8231 45.0605 22.4013 44 22.4ZM36 27.2H40.08C40.2382 27.9681 40.6181 28.6729 41.1726 29.2274C41.7271 29.7819 42.4319 30.1618 43.2 30.32V36.88C42.4319 37.0382 41.7271 37.4181 41.1726 37.9726C40.6181 38.5271 40.2382 39.2319 40.08 40H36V27.2ZM23.2 46.4H15.2C14.5637 46.3994 13.9536 46.1463 13.5036 45.6964C13.0537 45.2464 12.8006 44.6363 12.8 44V43.9792C13.4884 44.5085 14.3317 44.7969 15.2 44.8H23.2V46.4ZM23.2 40H19.12C18.9618 39.2319 18.5819 38.5271 18.0274 37.9726C17.4729 37.4181 16.7681 37.0382 16 36.88V30.32C16.7681 30.1618 17.4729 29.7819 18.0274 29.2274C18.5819 28.6729 18.9618 27.9681 19.12 27.2H23.2V40ZM23.2 25.6H18.4C18.1878 25.6 17.9843 25.6843 17.8343 25.8343C17.6843 25.9843 17.6 26.1878 17.6 26.4C17.5994 27.0363 17.3463 27.6464 16.8964 28.0964C16.4464 28.5463 15.8363 28.7994 15.2 28.8C14.9878 28.8 14.7843 28.8843 14.6343 29.0343C14.4843 29.1843 14.4 29.3878 14.4 29.6V37.6C14.4 37.8122 14.4843 38.0157 14.6343 38.1657C14.7843 38.3157 14.9878 38.4 15.2 38.4C15.8363 38.4006 16.4464 38.6537 16.8964 39.1036C17.3463 39.5536 17.5994 40.1637 17.6 40.8C17.6 41.0122 17.6843 41.2157 17.8343 41.3657C17.9843 41.5157 18.1878 41.6 18.4 41.6H23.2V43.2H15.2C14.5637 43.1994 13.9536 42.9463 13.5036 42.4964C13.0537 42.0464 12.8006 41.4363 12.8 40.8V26.4C12.8006 25.7637 13.0537 25.1536 13.5036 24.7036C13.9536 24.2537 14.5637 24.0006 15.2 24H23.2V25.6ZM34.4 46.4H24.8V24H34.4V46.4ZM46.4 44C46.3994 44.6363 46.1463 45.2464 45.6964 45.6964C45.2464 46.1463 44.6363 46.3994 44 46.4H36V44.8H44C44.8683 44.7969 45.7116 44.5085 46.4 43.9792V44ZM46.4 40.8C46.3994 41.4363 46.1463 42.0464 45.6964 42.4964C45.2464 42.9463 44.6363 43.1994 44 43.2H36V41.6H40.8C41.0122 41.6 41.2157 41.5157 41.3657 41.3657C41.5157 41.2157 41.6 41.0122 41.6 40.8C41.6006 40.1637 41.8537 39.5536 42.3036 39.1036C42.7536 38.6537 43.3637 38.4006 44 38.4C44.2122 38.4 44.4157 38.3157 44.5657 38.1657C44.7157 38.0157 44.8 37.8122 44.8 37.6V29.6C44.8 29.3878 44.7157 29.1843 44.5657 29.0343C44.4157 28.8843 44.2122 28.8 44 28.8C43.3637 28.7994 42.7536 28.5463 42.3036 28.0964C41.8537 27.6464 41.6006 27.0363 41.6 26.4C41.6 26.1878 41.5157 25.9843 41.3657 25.8343C41.2157 25.6843 41.0122 25.6 40.8 25.6H36V24H44C44.6363 24.0006 45.2464 24.2537 45.6964 24.7036C46.1463 25.1536 46.3994 25.7637 46.4 26.4V40.8ZM35.2 15.2C35.2 14.4089 34.9654 13.6355 34.5259 12.9777C34.0864 12.3199 33.4616 11.8072 32.7307 11.5045C31.9998 11.2017 31.1956 11.1225 30.4196 11.2769C29.6437 11.4312 28.931 11.8122 28.3716 12.3716C27.8122 12.931 27.4312 13.6437 27.2769 14.4196C27.1225 15.1956 27.2017 15.9998 27.5045 16.7307C27.8072 17.4616 28.3199 18.0864 28.9777 18.5259C29.6355 18.9654 30.4089 19.2 31.2 19.2C32.2605 19.1987 33.2772 18.7769 34.027 18.027C34.7769 17.2772 35.1987 16.2605 35.2 15.2ZM28.8 15.2C28.8 14.7253 28.9408 14.2613 29.2045 13.8666C29.4682 13.472 29.843 13.1643 30.2816 12.9827C30.7201 12.801 31.2027 12.7535 31.6682 12.8461C32.1338 12.9387 32.5614 13.1673 32.8971 13.5029C33.2327 13.8386 33.4613 14.2662 33.5539 14.7318C33.6465 15.1973 33.599 15.6799 33.4173 16.1184C33.2357 16.557 32.928 16.9318 32.5334 17.1955C32.1387 17.4592 31.6747 17.6 31.2 17.6C30.5637 17.5994 29.9536 17.3463 29.5036 16.8964C29.0537 16.4464 28.8006 15.8363 28.8 15.2ZM48 12.8V17.6C48 17.7486 47.9586 17.8942 47.8805 18.0206C47.8024 18.147 47.6907 18.2491 47.5578 18.3155C47.4249 18.382 47.2761 18.4101 47.1282 18.3968C46.9802 18.3834 46.8389 18.3291 46.72 18.24L44.8 16.8V20C44.8 20.2122 44.7157 20.4157 44.5657 20.5657C44.4157 20.7157 44.2122 20.8 44 20.8C43.7878 20.8 43.5843 20.7157 43.4343 20.5657C43.2843 20.4157 43.2 20.2122 43.2 20V15.6L31.2 6.6L19.2 15.6V20C19.2 20.2122 19.1157 20.4157 18.9657 20.5657C18.8157 20.7157 18.6122 20.8 18.4 20.8C18.1878 20.8 17.9843 20.7157 17.8343 20.5657C17.6843 20.4157 17.6 20.2122 17.6 20V15.2C17.5999 15.0758 17.6287 14.9532 17.6843 14.8421C17.7398 14.731 17.8206 14.6344 17.92 14.56L30.72 4.96C30.8585 4.85614 31.0269 4.8 31.2 4.8C31.3731 4.8 31.5415 4.85614 31.68 4.96L46.4 16V13.2L31.2 1.8L17.28 12.24C17.1103 12.3673 16.8969 12.422 16.6869 12.392C16.4768 12.362 16.2873 12.2497 16.16 12.08C16.0327 11.9103 15.978 11.6969 16.008 11.4869C16.038 11.2768 16.1503 11.0873 16.32 10.96L30.72 0.16C30.8585 0.0561423 31.0269 0 31.2 0C31.3731 0 31.5415 0.0561423 31.68 0.16L47.68 12.16C47.7794 12.2344 47.8602 12.331 47.9157 12.4421C47.9713 12.5532 48.0001 12.6758 48 12.8Z" fill="#EB7124"/>
</svg>
