<svg width="48" height="48" viewBox="0 0 48 48" fill="none" xmlns="http://www.w3.org/2000/svg">
<path fill-rule="evenodd" clip-rule="evenodd" d="M23.3441 37.3736H1.40919C1.2095 37.3736 1.01799 37.2942 0.876781 37.153C0.735577 37.0118 0.65625 36.8203 0.65625 36.6206V34.4491C0.65625 34.2495 0.735577 34.0579 0.876781 33.9167C1.01799 33.7755 1.2095 33.6962 1.40919 33.6962H3.87554V22.7538C3.87554 22.5541 3.95487 22.3626 4.09608 22.2214C4.23728 22.0802 4.42879 22.0009 4.62849 22.0009H14.8985C15.0982 22.0009 15.2897 22.0802 15.4309 22.2214C15.5721 22.3626 15.6515 22.5541 15.6515 22.7538V33.6962H18.5866V11.8243C18.5866 11.6246 18.6659 11.4331 18.8071 11.2919C18.9483 11.1507 19.1399 11.0714 19.3395 11.0714H23.385V1.4131C23.385 0.997568 23.7224 0.660156 24.1379 0.660156C24.5535 0.660156 24.8909 0.997568 24.8909 1.4131V1.94449H30.8141C30.9567 1.94446 31.0965 1.98496 31.217 2.06128C31.3375 2.13759 31.4339 2.24658 31.4949 2.37554C31.5559 2.50451 31.579 2.64815 31.5615 2.78973C31.544 2.93131 31.4866 3.06501 31.3961 3.17526L29.7934 5.12745L31.3507 6.70929C31.4548 6.81504 31.5254 6.94921 31.5535 7.09495C31.5816 7.24069 31.566 7.39149 31.5087 7.5284C31.4513 7.66531 31.3548 7.78221 31.2312 7.86441C31.1076 7.94662 30.9625 7.99045 30.8141 7.99042H24.8909V11.0714H29.6096C29.8093 11.0714 30.0008 11.1507 30.142 11.2919C30.2832 11.4331 30.3625 11.6246 30.3625 11.8243V22.0038C30.4411 22.0018 30.5197 22.0008 30.5983 22.0009C31.5366 22.0009 32.4428 22.1384 33.2978 22.3943V19.0089C33.2978 18.8092 33.3771 18.6177 33.5183 18.4765C33.6595 18.3352 33.851 18.2559 34.0507 18.2559H44.3207C44.5204 18.2559 44.7119 18.3352 44.8531 18.4765C44.9943 18.6177 45.0737 18.8092 45.0737 19.0089V33.6962H46.5857C46.7854 33.6962 46.9769 33.7755 47.1181 33.9167C47.2593 34.0579 47.3386 34.2495 47.3386 34.4491V36.6206C47.3386 36.8203 47.2593 37.0118 47.1181 37.153C46.9769 37.2942 46.7854 37.3736 46.5857 37.3736H39.8115L40.4676 38.0107C41.0168 37.787 41.6742 37.8909 42.1247 38.3271L42.1253 38.3276L46.8723 42.9346C47.479 43.522 47.4964 44.4993 46.9043 45.1107L46.9036 45.1114L45.1907 46.876L45.1899 46.8766C44.6031 47.482 43.6274 47.4989 43.0167 46.9124C43.0158 46.9114 43.0148 46.9105 43.0138 46.9096L38.2694 42.3029C37.816 41.8656 37.6914 41.2112 37.8995 40.6554L36.1643 38.9716C34.6064 40.1185 32.6816 40.7962 30.5983 40.7962C27.6772 40.7962 25.0676 39.4638 23.3441 37.3736ZM5.38143 33.6962H14.1456V23.5067H5.38143V33.6962ZM20.0925 33.6962H21.4835C21.2951 32.9449 21.2001 32.1731 21.2006 31.3985C21.2006 26.803 24.4983 22.9785 28.8566 22.1619V12.5772H20.0925V33.6962ZM22.002 35.2021H2.16213V35.8677H22.3291C22.2113 35.6502 22.1022 35.4282 22.002 35.2021ZM24.8909 3.45037V6.48453H29.0163L28.2452 5.70138C28.1148 5.5689 28.038 5.39285 28.0296 5.20713C28.0212 5.02141 28.0818 4.83915 28.1998 4.69545L29.2219 3.45037H24.8909ZM34.8036 22.9918C37.8827 24.5349 39.996 27.7196 39.996 31.3985C39.996 32.1912 39.8979 32.9609 39.7131 33.6962H43.5678V19.7618H34.8036V22.9918ZM39.1946 35.2021C39.0944 35.4282 38.9853 35.6502 38.8675 35.8677H45.8327V35.2021H39.1946ZM37.7616 37.4822C37.6157 37.6538 37.4637 37.8202 37.3059 37.981L38.8569 39.4861L39.3268 39.002L37.7616 37.4822ZM30.5983 23.5067C26.2394 23.5067 22.7065 27.0396 22.7065 31.3985C22.7065 35.7574 26.2394 39.2903 30.5983 39.2903C34.9572 39.2903 38.4901 35.7574 38.4901 31.3985C38.4901 27.0396 34.9572 23.5067 30.5983 23.5067ZM30.5983 38.3742C26.7563 38.3742 23.6227 35.2405 23.6227 31.3985C23.6227 27.5565 26.7563 24.4228 30.5983 24.4228C34.4403 24.4228 37.574 27.5565 37.574 31.3985C37.574 35.2405 34.4403 38.3742 30.5983 38.3742ZM30.5983 36.8683C33.6109 36.8683 36.0681 34.4111 36.0681 31.3985C36.0681 28.3859 33.6109 25.9287 30.5983 25.9287C27.5858 25.9287 25.1285 28.3859 25.1285 31.3985C25.1285 34.4111 27.5858 36.8683 30.5983 36.8683ZM44.1094 45.8278L45.8229 44.0626C45.8353 44.0495 45.8377 44.0289 45.8249 44.0165L45.8243 44.0159L41.0768 39.4085C41.0705 39.4025 41.0622 39.3993 41.0536 39.3993C41.0449 39.3994 41.0367 39.4029 41.0306 39.409L41.0298 39.4096L39.3161 41.175L39.3147 41.1765C39.3119 41.1793 39.3097 41.1826 39.3082 41.1862C39.3067 41.1898 39.3059 41.1937 39.3059 41.1977C39.3059 41.2016 39.3067 41.2055 39.3082 41.2091C39.3097 41.2128 39.3119 41.2161 39.3147 41.2188L39.3176 41.2217L44.0617 45.8281C44.0756 45.8398 44.0962 45.8415 44.1088 45.8284L44.1094 45.8278Z" fill="#EB7124"/>
</svg>
