<svg width="48" height="48" viewBox="0 0 48 48" fill="none" xmlns="http://www.w3.org/2000/svg">
<path d="M47.9001 30.3194L43.6489 17.4874C43.3053 16.4507 42.175 15.8846 41.1284 16.2249L37.0544 17.5485C36.5485 17.7132 36.1373 18.0634 35.8963 18.5358C35.6852 18.9501 35.6264 19.4127 35.727 19.8575L35.0369 20.1642C33.8986 20.6692 32.8022 20.7787 31.5853 20.5075L31.5046 20.4897C34.8138 16.3432 34.5917 11.8998 34.2641 5.36842L34.2591 5.27275C34.2524 5.13763 34.1992 5.00887 34.1082 4.90798C34.0172 4.80709 33.894 4.74018 33.7592 4.71844C31.8034 4.40084 30.5098 3.31194 29.8037 1.3896C29.7618 1.27544 29.6854 1.17682 29.5849 1.10713C29.4844 1.03744 29.3647 1.00003 29.2421 1H18.7559C18.5049 1 18.2799 1.15584 18.1942 1.3896C17.4882 3.31194 16.1946 4.40084 14.2387 4.71844C14.104 4.74035 13.9809 4.80731 13.89 4.90817C13.799 5.00902 13.7457 5.13769 13.7388 5.27275L13.7339 5.36842C13.3734 12.5538 13.1473 17.0978 17.4424 21.5688L16.0631 21.5471L14.1232 20.2303C14.1939 19.9039 14.182 19.5626 14.0794 19.2332C13.9221 18.7272 13.5775 18.3119 13.1075 18.0654L9.3193 16.0759C8.34637 15.565 7.13543 15.9339 6.61958 16.8975L0.232265 28.8291C-0.28358 29.7927 0.0888641 30.9921 1.0618 31.503L4.84997 33.4924C5.14076 33.6453 5.45843 33.7222 5.78009 33.7222C5.97826 33.7222 6.17643 33.6926 6.37162 33.6335C6.78589 33.5072 7.13742 33.2577 7.38936 32.9204C7.93807 33.1295 8.33342 33.4658 8.62819 33.9767L9.47465 35.4444C9.30237 35.7945 9.22171 36.1841 9.24262 36.5845C9.27549 37.2069 9.54934 37.779 10.0144 38.1942C10.4449 38.5802 11.0052 38.7933 11.5858 38.7919C11.6207 38.7919 11.6555 38.7909 11.6904 38.789C11.6356 39.4853 11.8935 40.1994 12.4562 40.7024C12.9053 41.1039 13.469 41.3011 14.0306 41.3011C14.1332 41.3011 14.2368 41.2942 14.3383 41.2804C14.3473 41.9058 14.6062 42.5261 15.1111 42.9769C15.5416 43.3629 16.1019 43.576 16.6825 43.5746C16.8093 43.5748 16.9358 43.5649 17.061 43.545C17.0869 44.1487 17.3458 44.7424 17.8337 45.1774C18.2829 45.5788 18.8465 45.7761 19.4082 45.7761C19.9479 45.7761 20.4857 45.5926 20.9188 45.2336L22.4116 46.4862C22.8677 46.8704 23.4471 47.0809 24.0458 47.08C24.1175 47.08 24.1892 47.077 24.2609 47.0711C24.9381 47.0159 25.5515 46.7042 25.9877 46.1933C26.3033 45.8244 26.4995 45.3835 26.5633 44.914C26.9825 45.1981 27.4745 45.349 27.9853 45.349C28.057 45.349 28.1287 45.346 28.2004 45.3401C28.8776 45.2849 29.491 44.9732 29.9272 44.4623C30.2817 44.0471 30.4759 43.549 30.5167 43.041C30.8384 43.1712 31.179 43.2373 31.5186 43.2373C32.2734 43.2373 33.0243 42.9207 33.5491 42.3072C33.9296 41.8635 34.1497 41.3067 34.1745 40.7251C34.4653 40.8316 34.775 40.8869 35.0926 40.8869C35.1673 40.8869 35.242 40.8839 35.3177 40.878C36.0267 40.8198 36.67 40.4933 37.1281 39.9578C37.5862 39.4232 37.8053 38.7416 37.7465 38.0384C37.6878 37.3401 37.3621 36.7068 36.8274 36.2541C37.9298 35.6495 38.7792 34.8831 39.311 34.0043C39.5301 33.6414 39.8219 33.4115 40.2222 33.2804C40.4134 33.595 40.6892 33.8514 41.0298 34.0221C41.3146 34.1651 41.6223 34.2371 41.9321 34.2371C42.1402 34.2371 42.3503 34.2045 42.5535 34.1385L46.6274 32.8148C47.6721 32.4755 48.2437 31.356 47.9001 30.3194ZM14.909 5.79353C16.9086 5.33686 18.3366 4.12566 19.1632 2.18359H28.8368C29.6633 4.12467 31.0913 5.33686 33.091 5.79353C33.4156 12.3042 33.5511 16.3432 30.1981 20.1988L28.9682 19.9246C32.0792 16.6204 32.3043 13.1604 32.0274 7.02742C32.0225 6.91434 31.9849 6.80504 31.919 6.71254C31.8532 6.62004 31.7619 6.54823 31.656 6.50565C30.227 5.92964 29.0957 4.94726 28.293 3.58614C28.2403 3.497 28.165 3.42308 28.0745 3.37169C27.984 3.32031 27.8815 3.29325 27.7772 3.2932H20.2208C20.0086 3.2932 19.8115 3.40465 19.7049 3.58614C18.9023 4.94628 17.771 5.92865 16.342 6.50565C16.2361 6.54823 16.1448 6.62004 16.0789 6.71254C16.0131 6.80504 15.9754 6.91434 15.9705 7.02742C15.7982 10.8553 15.8261 13.3438 16.4645 15.5335C17.0988 17.7073 18.3565 19.5093 20.5076 21.3064L20.1461 21.6112L19.1751 21.5954C14.417 17.2714 14.5425 13.1308 14.909 5.79353ZM21.4317 20.5292C17.2243 17.0948 16.8668 14.0905 17.1496 7.44956C18.5587 6.80451 19.7029 5.80734 20.5574 4.47777H27.4426C28.297 5.80734 29.4402 6.80549 30.8504 7.44956C31.1053 13.4494 30.8245 16.5247 27.5969 19.6198L25.7178 19.2016C24.3326 18.8929 22.9753 19.2253 21.8958 20.1376L21.4317 20.5292ZM6.02008 32.5031C5.81395 32.5653 5.59685 32.5456 5.40964 32.4469L1.62146 30.4575C1.23109 30.2524 1.08172 29.77 1.28885 29.3834L7.67417 17.4519C7.81758 17.1826 8.09641 17.0297 8.38421 17.0297C8.51068 17.0297 8.63914 17.0593 8.75864 17.1224L12.5478 19.1109C12.736 19.2095 12.8744 19.3762 12.9372 19.5803C12.9999 19.7845 12.98 19.9995 12.8804 20.185L6.4941 32.1175C6.39452 32.3039 6.22622 32.441 6.02008 32.5031ZM10.8131 37.3164C10.339 36.8933 10.3012 36.1673 10.7284 35.6978L11.5958 34.7451C12.023 34.2756 12.7559 34.2381 13.23 34.6612C13.458 34.8654 13.5924 35.1465 13.6084 35.4532C13.6243 35.76 13.5198 36.0539 13.3146 36.2798L12.4472 37.2326C12.02 37.703 11.2871 37.7395 10.8131 37.3164ZM13.2549 39.8256C12.7808 39.4025 12.743 38.6765 13.1702 38.207L13.3345 38.0265L14.2019 37.0738L14.2029 37.0728L15.4367 35.7176C15.6419 35.4917 15.9267 35.3585 16.2364 35.3428C16.2573 35.3418 16.2782 35.3408 16.2981 35.3408C16.5859 35.3408 16.8578 35.4434 17.0709 35.6337C17.299 35.8379 17.4334 36.119 17.4493 36.4257C17.4653 36.7325 17.3607 37.0264 17.1556 37.2523L14.889 39.7418C14.4618 40.2113 13.7289 40.2487 13.2549 39.8256ZM16.7443 42.39C16.4346 42.4068 16.1378 42.3023 15.9098 42.0991C15.4357 41.6759 15.3979 40.95 15.8251 40.4805L17.5858 38.5463C17.7919 38.3205 18.0757 38.1873 18.3854 38.1715C18.6941 38.1548 18.9919 38.2593 19.2199 38.4625C19.448 38.6667 19.5824 38.9478 19.5984 39.2545C19.6143 39.5613 19.5097 39.8552 19.3046 40.0811L18.0608 41.4471L18.0598 41.4481L17.5439 42.0142C17.3378 42.2411 17.054 42.3743 16.7443 42.39ZM18.6314 44.2996C18.4034 44.0954 18.2689 43.8143 18.253 43.5075C18.237 43.2008 18.3416 42.9069 18.5468 42.681L18.9481 42.2411C19.3753 41.7726 20.1082 41.7351 20.5813 42.1583C20.8093 42.3624 20.9437 42.6435 20.9597 42.9503C20.9756 43.257 20.871 43.5509 20.6659 43.7768L20.2656 44.2157C19.8384 44.6852 19.1054 44.7227 18.6314 44.2996ZM36.2139 39.1944C35.963 39.4883 35.6085 39.6678 35.2171 39.6993C34.8257 39.7319 34.4473 39.6116 34.1506 39.363L33.2374 38.5966L29.1196 35.1406C28.9986 35.0391 28.8419 34.9894 28.6839 35.0024C28.5259 35.0153 28.3796 35.0899 28.2771 35.2096C28.1747 35.3294 28.1245 35.4846 28.1376 35.6411C28.1506 35.7976 28.2259 35.9425 28.3468 36.044L32.4646 39.5001L32.4656 39.5011C33.08 40.0179 33.1567 40.9342 32.6349 41.5438C32.1131 42.1543 31.1869 42.2303 30.5715 41.7124L26.4537 38.2564C26.3327 38.1549 26.176 38.1052 26.018 38.1182C25.8601 38.1311 25.7138 38.2057 25.6112 38.3254C25.5088 38.4452 25.4586 38.6004 25.4717 38.7569C25.4848 38.9134 25.56 39.0583 25.6809 39.1598L28.8666 41.8338L28.8676 41.8347C29.4213 42.3092 29.4861 43.1456 29.013 43.6989C28.783 43.9682 28.4583 44.1329 28.0988 44.1625C27.7403 44.192 27.3928 44.0826 27.1209 43.8537L23.9452 41.1887C23.8242 41.0873 23.6675 41.0376 23.5095 41.0505C23.3516 41.0634 23.2052 41.138 23.1027 41.2577C23.0003 41.3776 22.9501 41.5328 22.9632 41.6892C22.9763 41.8457 23.0515 41.9906 23.1724 42.0922L24.9161 43.5559C25.188 43.7837 25.3533 44.1053 25.3832 44.4603C25.4131 44.8154 25.3025 45.1596 25.0715 45.4289C24.8415 45.6982 24.5168 45.8629 24.1573 45.8925C23.7988 45.9221 23.4513 45.8126 23.1794 45.5838L21.7215 44.3587C22.4046 43.4089 22.2762 42.0784 21.3809 41.2785C21.0774 41.0072 20.7071 40.8198 20.3074 40.735C20.649 40.2961 20.8203 39.7556 20.7914 39.1944C20.7585 38.572 20.4847 37.9999 20.0196 37.5847C19.6213 37.2286 19.1204 37.0225 18.5906 36.9919C18.6354 36.7887 18.6543 36.5786 18.6433 36.3646C18.6105 35.7422 18.3366 35.1702 17.8716 34.7549C17.4065 34.3397 16.804 34.1276 16.1757 34.1602C15.613 34.1888 15.0932 34.4097 14.6889 34.7855C14.562 34.4003 14.3354 34.0548 14.0316 33.7834C13.0686 32.9233 11.5779 32.9993 10.7095 33.953L10.2693 34.4373L9.66685 33.3908C9.26851 32.6994 8.69889 32.1944 7.97492 31.8818L13.6243 21.3261L15.5353 22.6241C15.6322 22.69 15.7465 22.726 15.864 22.7277L18.7728 22.7741L17.5957 23.7673C16.9335 24.3265 16.583 25.0771 16.583 25.9392V31.7614C16.583 31.9202 16.6477 32.0731 16.7622 32.1846C17.6067 33.0032 18.6005 33.1817 19.5615 32.6876C21.2564 31.8157 22.5082 28.9011 22.2413 27.2786C22.2065 27.0685 22.5102 26.815 22.8239 26.6917C23.1565 26.5615 23.4901 26.6158 23.763 26.8446L36.0437 37.1507C36.3404 37.3992 36.5217 37.7504 36.5535 38.138C36.5854 38.5256 36.4649 38.9004 36.2139 39.1944ZM38.2843 33.3977C37.8073 34.1848 36.9459 34.8979 35.8395 35.4286L24.5357 25.9421C23.9283 25.4322 23.1236 25.302 22.3837 25.592C21.6219 25.8908 20.9178 26.5882 21.0622 27.469C21.2534 28.6289 20.2058 31.0227 19.0108 31.6371C18.732 31.7812 18.3117 31.9104 17.778 31.4961V25.9402C17.778 25.4282 17.9771 25.0012 18.3705 24.6688L22.6705 21.0391C23.4692 20.3645 24.4322 20.1287 25.4559 20.3566L31.3254 21.6635C32.7863 21.9889 34.1615 21.8518 35.5278 21.2453L36.0944 20.9937L39.799 32.1767C39.1507 32.3996 38.6408 32.8079 38.2843 33.3977ZM46.253 31.6914L42.179 33.015C41.9769 33.0811 41.7598 33.0644 41.5676 32.9677C41.3754 32.871 41.233 32.7083 41.1663 32.5081L36.915 19.676C36.8483 19.4758 36.8652 19.2608 36.9628 19.0704C37.0604 18.8801 37.2247 18.739 37.4269 18.6729L41.5009 17.3493C41.5835 17.3227 41.6682 17.3098 41.7508 17.3098C42.0884 17.3098 42.4031 17.5229 42.5136 17.8572L46.7649 30.6893C46.9033 31.1045 46.6732 31.5543 46.253 31.6914ZM22.2224 15.1498L19.5107 12.465C19.2777 12.2342 19.2777 11.8594 19.5107 11.6276C19.7438 11.3968 20.1222 11.3968 20.3562 11.6276L22.6446 13.8942L27.6447 8.94187C27.8778 8.71107 28.2562 8.71107 28.4902 8.94187C28.7232 9.17267 28.7232 9.54747 28.4902 9.77926L23.0679 15.1498C22.9514 15.2652 22.798 15.3234 22.6456 15.3234C22.4933 15.3234 22.3389 15.2652 22.2224 15.1498Z" fill="#EB7124"/>
</svg>
