<svg width="54" height="54" viewBox="0 0 54 54" fill="none" xmlns="http://www.w3.org/2000/svg">
<g clip-path="url(#clip0_9268_44502)">
<path d="M29.4847 34.2004V31.7147C25.799 35.4004 20.3133 35.6576 16.3704 31.7147V34.3719L22.8847 39.8576L29.4847 34.2004ZM15.5133 42.0861L21.0847 40.629L15.1704 35.6576L13.1133 36.5147L15.5133 42.0861ZM32.5704 36.429L30.599 35.6576L24.7704 40.629L30.1704 42.0861L32.5704 36.429ZM26.2276 42.8576L22.9704 42.0004L19.6276 42.8576L21.7704 45.5147C21.9419 45.7719 22.0276 46.1147 21.9419 46.3719L19.2847 54.0004H26.5704L23.999 46.3719C23.9133 46.1147 23.9133 45.7719 24.1704 45.5147L26.2276 42.8576ZM53.0561 9.17188H36.599C36.6847 10.8862 36.3418 12.9433 35.6561 15.3433C38.2276 16.8004 35.6561 24.429 33.1704 24.9433C32.9133 25.8862 32.3133 27.6862 31.199 29.4862V34.029L42.5133 38.4004C45.599 39.6004 47.6561 42.6004 47.6561 45.8576V47.829H53.0561C53.5704 47.829 53.999 47.4004 53.999 46.8862V10.029C53.999 9.60045 53.5704 9.17188 53.0561 9.17188ZM42.3418 29.5719H40.5418C40.0276 29.5719 39.599 29.1433 39.599 28.629C39.599 28.1147 40.0276 27.6862 40.5418 27.6862H42.3418C42.8561 27.6862 43.2847 28.1147 43.2847 28.629C43.199 29.1433 42.7704 29.5719 42.3418 29.5719ZM42.3418 22.3719H40.5418C40.0276 22.3719 39.599 21.9433 39.599 21.429C39.599 20.9147 40.0276 20.4862 40.5418 20.4862H42.3418C42.8561 20.4862 43.2847 20.9147 43.2847 21.429C43.199 21.9433 42.7704 22.3719 42.3418 22.3719ZM42.3418 15.1719H40.5418C40.0276 15.1719 39.599 14.7433 39.599 14.229C39.599 13.7147 40.0276 13.2862 40.5418 13.2862H42.3418C42.8561 13.2862 43.2847 13.7147 43.2847 14.229C43.199 14.7433 42.7704 15.1719 42.3418 15.1719ZM50.399 36.6004H46.799C46.2847 36.6004 45.8561 36.1719 45.8561 35.6576C45.8561 35.1433 46.2847 34.7147 46.799 34.7147H50.399C50.9133 34.7147 51.3418 35.1433 51.3418 35.6576C51.3418 36.1719 50.9133 36.6004 50.399 36.6004ZM50.399 29.5719H46.799C46.2847 29.5719 45.8561 29.1433 45.8561 28.629C45.8561 28.1147 46.2847 27.6862 46.799 27.6862H50.399C50.9133 27.6862 51.3418 28.1147 51.3418 28.629C51.3418 29.1433 50.9133 29.5719 50.399 29.5719ZM50.399 22.3719H46.799C46.2847 22.3719 45.8561 21.9433 45.8561 21.429C45.8561 20.9147 46.2847 20.4862 46.799 20.4862H50.399C50.9133 20.4862 51.3418 20.9147 51.3418 21.429C51.3418 21.9433 50.9133 22.3719 50.399 22.3719ZM50.399 15.1719H46.799C46.2847 15.1719 45.8561 14.7433 45.8561 14.229C45.8561 13.7147 46.2847 13.2862 46.799 13.2862H50.399C50.9133 13.2862 51.3418 13.7147 51.3418 14.229C51.3418 14.7433 50.9133 15.1719 50.399 15.1719Z" fill="white"/>
<path d="M17.7429 43.3714L15.1714 44.0571C14.7429 44.1428 14.3143 43.9714 14.1429 43.5428L11.4857 37.1143L4.02857 40.0286C1.62857 40.8857 0 43.2 0 45.7714V54H17.4L20.0571 46.2857L17.7429 43.3714ZM10.9714 16.9714C10.5429 17.5714 12 23.1429 13.1143 23.1429C13.6286 22.9714 14.2286 23.4 14.3143 23.8286C14.4 24.1714 16.0286 32.5714 22.9714 32.8286C30 32.5714 31.6286 24.2571 31.6286 23.8286C31.7143 23.3143 32.2286 22.9714 32.7428 23.1429C33.8571 23.1429 35.4 17.6571 34.9714 16.9714C34.8857 16.8 34.6286 16.8 34.6286 16.8C34.0286 16.8 33.6 16.2 33.7714 15.6C35.5714 9.94286 34.8857 7.28571 33.9428 6C32.9143 4.62857 31.3714 4.54286 31.2857 4.54286C30.9428 4.54286 30.6 4.28571 30.4286 3.94286C29.2286 0.857143 25.8 0 22.3714 0C14.4 0 9.68571 5.05714 12.1714 15.6857C12.2571 15.9429 12.1714 16.2 12 16.4571C11.6571 16.8857 11.2286 16.6286 10.9714 16.9714ZM45.8571 54V45.7714C45.8571 43.2 44.2286 40.8857 41.9143 40.0286L34.2 37.0286L31.4571 43.5428C31.2857 43.9714 30.8571 44.2286 30.4286 44.0571L28.1143 43.3714L25.8857 46.2857L28.5428 54H45.8571Z" fill="white"/>
</g>
<defs>
<clipPath id="clip0_9268_44502">
<rect width="54" height="54" fill="white"/>
</clipPath>
</defs>
</svg>
