<svg width="302" height="76" viewBox="0 0 302 76" fill="none" xmlns="http://www.w3.org/2000/svg">
<g clip-path="url(#clip0_9020_44228)">
<path d="M0 9C0 4.02944 4.02944 0 9 0H293C297.971 0 302 4.02944 302 9V71C302 75.9706 297.971 80 293 80H9C4.02943 80 0 75.9706 0 71V9Z" fill="url(#paint0_linear_9020_44228)"/>
<path d="M20.82 34V18.6H26.43C27.244 18.6 27.9773 18.7687 28.63 19.106C29.29 19.436 29.8107 19.9127 30.192 20.536C30.5807 21.152 30.775 21.8817 30.775 22.725C30.775 23.099 30.72 23.4767 30.61 23.858C30.5 24.2393 30.3313 24.584 30.104 24.892C29.8767 25.1927 29.5833 25.4163 29.224 25.563C29.7007 25.6803 30.0893 25.893 30.39 26.201C30.6907 26.509 30.9253 26.872 31.094 27.29C31.2627 27.7007 31.3763 28.1223 31.435 28.555C31.501 28.9803 31.534 29.3763 31.534 29.743C31.534 30.557 31.3323 31.283 30.929 31.921C30.5257 32.559 29.983 33.065 29.301 33.439C28.6263 33.813 27.8783 34 27.057 34H20.82ZM23.504 31.701H26.782C27.222 31.701 27.618 31.5947 27.97 31.382C28.322 31.1693 28.6043 30.876 28.817 30.502C29.0297 30.128 29.136 29.7027 29.136 29.226C29.136 28.8153 29.0297 28.4267 28.817 28.06C28.6043 27.6933 28.322 27.3963 27.97 27.169C27.618 26.9417 27.222 26.828 26.782 26.828H23.504V31.701ZM23.504 24.562H26.122C26.6647 24.562 27.1267 24.3933 27.508 24.056C27.8967 23.7187 28.091 23.2713 28.091 22.714C28.091 22.12 27.8967 21.6727 27.508 21.372C27.1267 21.064 26.6647 20.91 26.122 20.91H23.504V24.562ZM32.8624 29.93V23H35.5464V29.226C35.5464 29.6587 35.6528 30.0547 35.8654 30.414C36.0781 30.766 36.3604 31.0483 36.7124 31.261C37.0718 31.4663 37.4641 31.569 37.8894 31.569C38.3294 31.569 38.7254 31.4663 39.0774 31.261C39.4294 31.0483 39.7118 30.766 39.9244 30.414C40.1371 30.0547 40.2434 29.6587 40.2434 29.226V23H42.9274L42.9384 34H40.2544L40.2434 32.999C39.8621 33.395 39.4111 33.7103 38.8904 33.945C38.3698 34.1723 37.8124 34.286 37.2184 34.286C36.4191 34.286 35.6894 34.0917 35.0294 33.703C34.3694 33.307 33.8414 32.7827 33.4454 32.13C33.0568 31.47 32.8624 30.7367 32.8624 29.93ZM45.1403 23H47.8243V34H45.1403V23ZM46.5043 21.581C46.1083 21.581 45.7746 21.4527 45.5033 21.196C45.232 20.932 45.0963 20.602 45.0963 20.206C45.0963 19.8173 45.232 19.491 45.5033 19.227C45.7746 18.963 46.1046 18.831 46.4933 18.831C46.882 18.831 47.2083 18.963 47.4723 19.227C47.7436 19.491 47.8793 19.8173 47.8793 20.206C47.8793 20.602 47.7473 20.932 47.4833 21.196C47.2193 21.4527 46.893 21.581 46.5043 21.581ZM50.5114 34V17.5H53.1954V34H50.5114ZM63.9837 17.5H66.6677V34H63.9837V32.625C63.6317 33.1163 63.188 33.516 62.6527 33.824C62.1173 34.132 61.4977 34.286 60.7937 34.286C59.9943 34.286 59.2463 34.1357 58.5497 33.835C57.853 33.5343 57.237 33.12 56.7017 32.592C56.1737 32.0567 55.7593 31.4407 55.4587 30.744C55.158 30.0473 55.0077 29.2993 55.0077 28.5C55.0077 27.7007 55.158 26.9527 55.4587 26.256C55.7593 25.5593 56.1737 24.947 56.7017 24.419C57.237 23.8837 57.853 23.4657 58.5497 23.165C59.2463 22.8643 59.9943 22.714 60.7937 22.714C61.4977 22.714 62.1173 22.868 62.6527 23.176C63.188 23.4767 63.6317 23.8763 63.9837 24.375V17.5ZM60.8267 31.701C61.3987 31.701 61.9047 31.558 62.3447 31.272C62.7847 30.986 63.1293 30.601 63.3787 30.117C63.628 29.6257 63.7527 29.0867 63.7527 28.5C63.7527 27.906 63.628 27.367 63.3787 26.883C63.1293 26.3917 62.781 26.003 62.3337 25.717C61.8937 25.431 61.3913 25.288 60.8267 25.288C60.262 25.288 59.745 25.4347 59.2757 25.728C58.8137 26.014 58.4433 26.399 58.1647 26.883C57.8933 27.367 57.7577 27.906 57.7577 28.5C57.7577 29.094 57.897 29.633 58.1757 30.117C58.4543 30.601 58.8247 30.986 59.2867 31.272C59.756 31.558 60.2693 31.701 60.8267 31.701ZM69.3102 23H71.9942V34H69.3102V23ZM70.6742 21.581C70.2782 21.581 69.9446 21.4527 69.6732 21.196C69.4019 20.932 69.2662 20.602 69.2662 20.206C69.2662 19.8173 69.4019 19.491 69.6732 19.227C69.9446 18.963 70.2746 18.831 70.6632 18.831C71.0519 18.831 71.3782 18.963 71.6422 19.227C71.9136 19.491 72.0492 19.8173 72.0492 20.206C72.0492 20.602 71.9172 20.932 71.6532 21.196C71.3892 21.4527 71.0629 21.581 70.6742 21.581ZM84.6284 27.048V34H81.9444V27.752C81.9444 27.3193 81.8381 26.927 81.6254 26.575C81.4128 26.2157 81.1268 25.9333 80.7674 25.728C80.4154 25.5153 80.0231 25.409 79.5904 25.409C79.1578 25.409 78.7618 25.5153 78.4024 25.728C78.0504 25.9333 77.7681 26.2157 77.5554 26.575C77.3501 26.927 77.2474 27.3193 77.2474 27.752V34H74.5634L74.5524 23H77.2364L77.2474 23.979C77.6214 23.583 78.0688 23.2713 78.5894 23.044C79.1101 22.8093 79.6711 22.692 80.2724 22.692C81.0718 22.692 81.8014 22.89 82.4614 23.286C83.1214 23.6747 83.6458 24.199 84.0344 24.859C84.4304 25.5117 84.6284 26.2413 84.6284 27.048ZM94.7672 23H97.4512V34.209C97.4512 35.001 97.2898 35.7197 96.9672 36.365C96.6445 37.0177 96.2045 37.575 95.6472 38.037C95.0898 38.5063 94.4518 38.8657 93.7332 39.115C93.0145 39.3717 92.2592 39.5 91.4672 39.5C90.6972 39.5 89.9565 39.3423 89.2452 39.027C88.5338 38.7117 87.9032 38.279 87.3532 37.729C86.8105 37.1863 86.3962 36.5667 86.1102 35.87L88.5632 34.759C88.7098 35.1623 88.9298 35.5143 89.2232 35.815C89.5238 36.123 89.8685 36.3613 90.2572 36.53C90.6458 36.706 91.0492 36.794 91.4672 36.794C91.8925 36.794 92.2995 36.7353 92.6882 36.618C93.0842 36.5007 93.4398 36.3283 93.7552 36.101C94.0705 35.881 94.3162 35.6097 94.4922 35.287C94.6755 34.9717 94.7672 34.6123 94.7672 34.209V32.658C94.4225 33.142 93.9898 33.5343 93.4692 33.835C92.9485 34.1357 92.3472 34.286 91.6652 34.286C90.8732 34.286 90.1325 34.1357 89.4432 33.835C88.7538 33.5343 88.1452 33.12 87.6172 32.592C87.0965 32.0567 86.6858 31.4407 86.3852 30.744C86.0918 30.0473 85.9452 29.2993 85.9452 28.5C85.9452 27.7007 86.0918 26.9527 86.3852 26.256C86.6858 25.5593 87.0965 24.947 87.6172 24.419C88.1452 23.8837 88.7538 23.4657 89.4432 23.165C90.1325 22.8643 90.8732 22.714 91.6652 22.714C92.3472 22.714 92.9485 22.8643 93.4692 23.165C93.9898 23.4583 94.4225 23.847 94.7672 24.331V23ZM91.6982 31.701C92.2628 31.701 92.7615 31.558 93.1942 31.272C93.6342 30.9787 93.9788 30.59 94.2282 30.106C94.4775 29.6147 94.6022 29.0793 94.6022 28.5C94.6022 27.9133 94.4738 27.378 94.2172 26.894C93.9678 26.41 93.6232 26.0213 93.1832 25.728C92.7505 25.4347 92.2555 25.288 91.6982 25.288C91.1482 25.288 90.6458 25.4347 90.1912 25.728C89.7365 26.014 89.3735 26.399 89.1022 26.883C88.8308 27.367 88.6952 27.906 88.6952 28.5C88.6952 29.094 88.8308 29.633 89.1022 30.117C89.3735 30.601 89.7365 30.986 90.1912 31.272C90.6458 31.558 91.1482 31.701 91.6982 31.701ZM110.927 34.286C110.076 34.286 109.258 34.154 108.474 33.89C107.696 33.6187 107.014 33.2337 106.428 32.735C105.841 32.229 105.419 31.624 105.163 30.92L107.682 29.996C107.784 30.2893 107.993 30.557 108.309 30.799C108.624 31.041 109.009 31.2353 109.464 31.382C109.918 31.5287 110.406 31.602 110.927 31.602C111.462 31.602 111.961 31.5213 112.423 31.36C112.892 31.1913 113.27 30.9603 113.556 30.667C113.842 30.3663 113.985 30.018 113.985 29.622C113.985 29.2187 113.834 28.8887 113.534 28.632C113.233 28.368 112.848 28.159 112.379 28.005C111.909 27.851 111.425 27.7337 110.927 27.653C109.834 27.4843 108.855 27.224 107.99 26.872C107.124 26.52 106.439 26.0323 105.933 25.409C105.434 24.7857 105.185 23.979 105.185 22.989C105.185 22.0577 105.452 21.2437 105.988 20.547C106.523 19.8503 107.227 19.3077 108.1 18.919C108.972 18.5303 109.915 18.336 110.927 18.336C111.77 18.336 112.584 18.468 113.369 18.732C114.153 18.996 114.839 19.381 115.425 19.887C116.02 20.393 116.445 21.0017 116.702 21.713L114.172 22.626C114.069 22.3327 113.86 22.065 113.545 21.823C113.229 21.581 112.844 21.3903 112.39 21.251C111.935 21.1043 111.447 21.031 110.927 21.031C110.406 21.0237 109.911 21.108 109.442 21.284C108.98 21.4527 108.602 21.6837 108.309 21.977C108.015 22.2703 107.869 22.6077 107.869 22.989C107.869 23.4803 108.004 23.8507 108.276 24.1C108.554 24.3493 108.925 24.5327 109.387 24.65C109.849 24.76 110.362 24.8627 110.927 24.958C111.953 25.1193 112.903 25.3907 113.776 25.772C114.648 26.1533 115.349 26.663 115.877 27.301C116.405 27.9317 116.669 28.7053 116.669 29.622C116.669 30.5533 116.405 31.371 115.877 32.075C115.349 32.7717 114.648 33.3143 113.776 33.703C112.903 34.0917 111.953 34.286 110.927 34.286ZM124.749 25.684H122.615V34H119.931V25.684H118.303V23H119.931V19.546H122.615V23H124.749V25.684ZM126.749 34L126.738 23H129.422L129.433 23.979C129.807 23.583 130.254 23.2713 130.775 23.044C131.296 22.8093 131.857 22.692 132.458 22.692C132.861 22.692 133.265 22.7507 133.668 22.868L132.612 25.574C132.333 25.464 132.055 25.409 131.776 25.409C131.343 25.409 130.947 25.5153 130.588 25.728C130.236 25.9333 129.954 26.2157 129.741 26.575C129.536 26.927 129.433 27.3193 129.433 27.752V34H126.749ZM139.226 34.286C138.214 34.286 137.29 34.0257 136.454 33.505C135.626 32.9843 134.962 32.2877 134.463 31.415C133.972 30.535 133.726 29.5633 133.726 28.5C133.726 27.6933 133.869 26.9417 134.155 26.245C134.441 25.541 134.834 24.925 135.332 24.397C135.838 23.8617 136.425 23.4437 137.092 23.143C137.76 22.8423 138.471 22.692 139.226 22.692C140.238 22.692 141.159 22.9523 141.987 23.473C142.823 23.9937 143.487 24.694 143.978 25.574C144.477 26.454 144.726 27.4293 144.726 28.5C144.726 29.2993 144.583 30.0473 144.297 30.744C144.011 31.4407 143.615 32.0567 143.109 32.592C142.611 33.12 142.028 33.5343 141.36 33.835C140.7 34.1357 139.989 34.286 139.226 34.286ZM139.226 31.602C139.762 31.602 140.242 31.459 140.667 31.173C141.093 30.887 141.426 30.5093 141.668 30.04C141.918 29.5707 142.042 29.0573 142.042 28.5C142.042 27.928 141.914 27.4073 141.657 26.938C141.408 26.4613 141.067 26.0837 140.634 25.805C140.209 25.519 139.74 25.376 139.226 25.376C138.698 25.376 138.222 25.519 137.796 25.805C137.371 26.091 137.034 26.4723 136.784 26.949C136.535 27.4257 136.41 27.9427 136.41 28.5C136.41 29.0793 136.539 29.6037 136.795 30.073C137.052 30.5423 137.393 30.9163 137.818 31.195C138.251 31.4663 138.72 31.602 139.226 31.602ZM156.515 27.048V34H153.831V27.752C153.831 27.3193 153.725 26.927 153.512 26.575C153.299 26.2157 153.013 25.9333 152.654 25.728C152.302 25.5153 151.91 25.409 151.477 25.409C151.044 25.409 150.648 25.5153 150.289 25.728C149.937 25.9333 149.655 26.2157 149.442 26.575C149.237 26.927 149.134 27.3193 149.134 27.752V34H146.45L146.439 23H149.123L149.134 23.979C149.508 23.583 149.955 23.2713 150.476 23.044C150.997 22.8093 151.558 22.692 152.159 22.692C152.958 22.692 153.688 22.89 154.348 23.286C155.008 23.6747 155.532 24.199 155.921 24.859C156.317 25.5117 156.515 26.2413 156.515 27.048ZM166.654 23H169.338V34.209C169.338 35.001 169.177 35.7197 168.854 36.365C168.531 37.0177 168.091 37.575 167.534 38.037C166.977 38.5063 166.339 38.8657 165.62 39.115C164.901 39.3717 164.146 39.5 163.354 39.5C162.584 39.5 161.843 39.3423 161.132 39.027C160.421 38.7117 159.79 38.279 159.24 37.729C158.697 37.1863 158.283 36.5667 157.997 35.87L160.45 34.759C160.597 35.1623 160.817 35.5143 161.11 35.815C161.411 36.123 161.755 36.3613 162.144 36.53C162.533 36.706 162.936 36.794 163.354 36.794C163.779 36.794 164.186 36.7353 164.575 36.618C164.971 36.5007 165.327 36.3283 165.642 36.101C165.957 35.881 166.203 35.6097 166.379 35.287C166.562 34.9717 166.654 34.6123 166.654 34.209V32.658C166.309 33.142 165.877 33.5343 165.356 33.835C164.835 34.1357 164.234 34.286 163.552 34.286C162.76 34.286 162.019 34.1357 161.33 33.835C160.641 33.5343 160.032 33.12 159.504 32.592C158.983 32.0567 158.573 31.4407 158.272 30.744C157.979 30.0473 157.832 29.2993 157.832 28.5C157.832 27.7007 157.979 26.9527 158.272 26.256C158.573 25.5593 158.983 24.947 159.504 24.419C160.032 23.8837 160.641 23.4657 161.33 23.165C162.019 22.8643 162.76 22.714 163.552 22.714C164.234 22.714 164.835 22.8643 165.356 23.165C165.877 23.4583 166.309 23.847 166.654 24.331V23ZM163.585 31.701C164.15 31.701 164.648 31.558 165.081 31.272C165.521 30.9787 165.866 30.59 166.115 30.106C166.364 29.6147 166.489 29.0793 166.489 28.5C166.489 27.9133 166.361 27.378 166.104 26.894C165.855 26.41 165.51 26.0213 165.07 25.728C164.637 25.4347 164.142 25.288 163.585 25.288C163.035 25.288 162.533 25.4347 162.078 25.728C161.623 26.014 161.26 26.399 160.989 26.883C160.718 27.367 160.582 27.906 160.582 28.5C160.582 29.094 160.718 29.633 160.989 30.117C161.26 30.601 161.623 30.986 162.078 31.272C162.533 31.558 163.035 31.701 163.585 31.701ZM176.566 34.286C175.554 34.286 174.63 34.0257 173.794 33.505C172.966 32.9843 172.302 32.284 171.803 31.404C171.312 30.524 171.066 29.5523 171.066 28.489C171.066 27.6897 171.209 26.9417 171.495 26.245C171.781 25.541 172.174 24.925 172.672 24.397C173.178 23.8617 173.765 23.4437 174.432 23.143C175.1 22.8423 175.811 22.692 176.566 22.692C177.424 22.692 178.209 22.8753 178.92 23.242C179.639 23.6013 180.248 24.0963 180.746 24.727C181.245 25.3577 181.608 26.0763 181.835 26.883C182.063 27.6897 182.114 28.533 181.989 29.413H173.948C174.051 29.8237 174.22 30.194 174.454 30.524C174.689 30.8467 174.986 31.107 175.345 31.305C175.705 31.4957 176.112 31.5947 176.566 31.602C177.036 31.6093 177.461 31.4993 177.842 31.272C178.231 31.0373 178.554 30.722 178.81 30.326L181.549 30.964C181.102 31.9393 180.435 32.7387 179.547 33.362C178.66 33.978 177.666 34.286 176.566 34.286ZM173.86 27.4H179.272C179.192 26.96 179.019 26.564 178.755 26.212C178.499 25.8527 178.18 25.5667 177.798 25.354C177.417 25.1413 177.006 25.035 176.566 25.035C176.126 25.035 175.719 25.1413 175.345 25.354C174.971 25.5593 174.652 25.8417 174.388 26.201C174.132 26.553 173.956 26.9527 173.86 27.4ZM183.79 34L183.779 23H186.463L186.474 23.979C186.848 23.583 187.295 23.2713 187.816 23.044C188.337 22.8093 188.898 22.692 189.499 22.692C189.902 22.692 190.306 22.7507 190.709 22.868L189.653 25.574C189.374 25.464 189.096 25.409 188.817 25.409C188.384 25.409 187.988 25.5153 187.629 25.728C187.277 25.9333 186.995 26.2157 186.782 26.575C186.577 26.927 186.474 27.3193 186.474 27.752V34H183.79ZM20.82 61V45.6H29.917V48.284H23.504V51.408H28.861V54.092H23.504V61H20.82ZM30.5421 56.93V50H33.2261V56.226C33.2261 56.6587 33.3324 57.0547 33.5451 57.414C33.7578 57.766 34.0401 58.0483 34.3921 58.261C34.7514 58.4663 35.1438 58.569 35.5691 58.569C36.0091 58.569 36.4051 58.4663 36.7571 58.261C37.1091 58.0483 37.3914 57.766 37.6041 57.414C37.8168 57.0547 37.9231 56.6587 37.9231 56.226V50H40.6071L40.6181 61H37.9341L37.9231 59.999C37.5418 60.395 37.0908 60.7103 36.5701 60.945C36.0494 61.1723 35.4921 61.286 34.8981 61.286C34.0988 61.286 33.3691 61.0917 32.7091 60.703C32.0491 60.307 31.5211 59.7827 31.1251 59.13C30.7364 58.47 30.5421 57.7367 30.5421 56.93ZM48.716 52.684H46.582V61H43.898V52.684H42.27V50H43.898V46.546H46.582V50H48.716V52.684ZM50.2648 56.93V50H52.9488V56.226C52.9488 56.6587 53.0551 57.0547 53.2678 57.414C53.4804 57.766 53.7628 58.0483 54.1148 58.261C54.4741 58.4663 54.8664 58.569 55.2918 58.569C55.7318 58.569 56.1278 58.4663 56.4798 58.261C56.8318 58.0483 57.1141 57.766 57.3268 57.414C57.5394 57.0547 57.6458 56.6587 57.6458 56.226V50H60.3298L60.3408 61H57.6568L57.6458 59.999C57.2644 60.395 56.8134 60.7103 56.2928 60.945C55.7721 61.1723 55.2148 61.286 54.6208 61.286C53.8214 61.286 53.0918 61.0917 52.4318 60.703C51.7718 60.307 51.2438 59.7827 50.8478 59.13C50.4591 58.47 50.2648 57.7367 50.2648 56.93ZM62.5537 61L62.5427 50H65.2267L65.2377 50.979C65.6117 50.583 66.059 50.2713 66.5797 50.044C67.1003 49.8093 67.6613 49.692 68.2627 49.692C68.666 49.692 69.0693 49.7507 69.4727 49.868L68.4167 52.574C68.138 52.464 67.8593 52.409 67.5807 52.409C67.148 52.409 66.752 52.5153 66.3927 52.728C66.0407 52.9333 65.7583 53.2157 65.5457 53.575C65.3403 53.927 65.2377 54.3193 65.2377 54.752V61H62.5537ZM75.0311 61.286C74.0191 61.286 73.0951 61.0257 72.2591 60.505C71.4304 59.9843 70.7668 59.284 70.2681 58.404C69.7768 57.524 69.5311 56.5523 69.5311 55.489C69.5311 54.6897 69.6741 53.9417 69.9601 53.245C70.2461 52.541 70.6384 51.925 71.1371 51.397C71.6431 50.8617 72.2298 50.4437 72.8971 50.143C73.5644 49.8423 74.2758 49.692 75.0311 49.692C75.8891 49.692 76.6738 49.8753 77.3851 50.242C78.1038 50.6013 78.7124 51.0963 79.2111 51.727C79.7098 52.3577 80.0728 53.0763 80.3001 53.883C80.5274 54.6897 80.5788 55.533 80.4541 56.413H72.4131C72.5158 56.8237 72.6844 57.194 72.9191 57.524C73.1538 57.8467 73.4508 58.107 73.8101 58.305C74.1694 58.4957 74.5764 58.5947 75.0311 58.602C75.5004 58.6093 75.9258 58.4993 76.3071 58.272C76.6958 58.0373 77.0184 57.722 77.2751 57.326L80.0141 57.964C79.5668 58.9393 78.8994 59.7387 78.0121 60.362C77.1248 60.978 76.1311 61.286 75.0311 61.286ZM72.3251 54.4H77.7371C77.6564 53.96 77.4841 53.564 77.2201 53.212C76.9634 52.8527 76.6444 52.5667 76.2631 52.354C75.8818 52.1413 75.4711 52.035 75.0311 52.035C74.5911 52.035 74.1841 52.1413 73.8101 52.354C73.4361 52.5593 73.1171 52.8417 72.8531 53.201C72.5964 53.553 72.4204 53.9527 72.3251 54.4ZM85.5748 61.198C85.0028 61.1613 84.4491 61.0477 83.9138 60.857C83.3858 60.659 82.9164 60.3913 82.5058 60.054C82.0951 59.7167 81.7798 59.3133 81.5598 58.844L83.8258 57.876C83.9138 58.0227 84.0568 58.1803 84.2548 58.349C84.4528 58.5103 84.6874 58.646 84.9588 58.756C85.2374 58.866 85.5418 58.921 85.8718 58.921C86.1504 58.921 86.4144 58.8843 86.6638 58.811C86.9204 58.7303 87.1258 58.6093 87.2798 58.448C87.4411 58.2867 87.5218 58.0777 87.5218 57.821C87.5218 57.5497 87.4264 57.3407 87.2358 57.194C87.0524 57.04 86.8178 56.9263 86.5318 56.853C86.2531 56.7723 85.9818 56.699 85.7178 56.633C85.0211 56.4937 84.3721 56.2773 83.7708 55.984C83.1768 55.6907 82.6964 55.313 82.3298 54.851C81.9704 54.3817 81.7908 53.817 81.7908 53.157C81.7908 52.431 81.9814 51.804 82.3628 51.276C82.7514 50.748 83.2538 50.341 83.8698 50.055C84.4931 49.769 85.1641 49.626 85.8828 49.626C86.7554 49.626 87.5548 49.8093 88.2808 50.176C89.0141 50.5353 89.5934 51.045 90.0188 51.705L87.8958 52.959C87.7931 52.783 87.6501 52.6217 87.4668 52.475C87.2834 52.321 87.0744 52.1963 86.8398 52.101C86.6051 51.9983 86.3594 51.9397 86.1028 51.925C85.7728 51.9103 85.4721 51.9397 85.2008 52.013C84.9294 52.0863 84.7094 52.211 84.5408 52.387C84.3794 52.563 84.2988 52.7977 84.2988 53.091C84.2988 53.3697 84.4088 53.5787 84.6288 53.718C84.8488 53.85 85.1128 53.9527 85.4208 54.026C85.7361 54.0993 86.0368 54.18 86.3228 54.268C86.9681 54.4807 87.5731 54.741 88.1378 55.049C88.7098 55.357 89.1681 55.7347 89.5128 56.182C89.8574 56.6293 90.0224 57.1647 90.0078 57.788C90.0078 58.4993 89.7951 59.1227 89.3698 59.658C88.9444 60.186 88.3944 60.5893 87.7198 60.868C87.0524 61.1467 86.3374 61.2567 85.5748 61.198ZM108.835 45.6V48.284H104.127V61H101.443V48.284H96.7355V45.6H108.835ZM114.197 61.286C113.185 61.286 112.261 61.0257 111.425 60.505C110.596 59.9843 109.933 59.2877 109.434 58.415C108.943 57.535 108.697 56.5633 108.697 55.5C108.697 54.6933 108.84 53.9417 109.126 53.245C109.412 52.541 109.804 51.925 110.303 51.397C110.809 50.8617 111.396 50.4437 112.063 50.143C112.73 49.8423 113.442 49.692 114.197 49.692C115.209 49.692 116.129 49.9523 116.958 50.473C117.794 50.9937 118.458 51.694 118.949 52.574C119.448 53.454 119.697 54.4293 119.697 55.5C119.697 56.2993 119.554 57.0473 119.268 57.744C118.982 58.4407 118.586 59.0567 118.08 59.592C117.581 60.12 116.998 60.5343 116.331 60.835C115.671 61.1357 114.96 61.286 114.197 61.286ZM114.197 58.602C114.732 58.602 115.213 58.459 115.638 58.173C116.063 57.887 116.397 57.5093 116.639 57.04C116.888 56.5707 117.013 56.0573 117.013 55.5C117.013 54.928 116.885 54.4073 116.628 53.938C116.379 53.4613 116.038 53.0837 115.605 52.805C115.18 52.519 114.71 52.376 114.197 52.376C113.669 52.376 113.192 52.519 112.767 52.805C112.342 53.091 112.004 53.4723 111.755 53.949C111.506 54.4257 111.381 54.9427 111.381 55.5C111.381 56.0793 111.509 56.6037 111.766 57.073C112.023 57.5423 112.364 57.9163 112.789 58.195C113.222 58.4663 113.691 58.602 114.197 58.602ZM129.615 50H132.299V61.209C132.299 62.001 132.137 62.7197 131.815 63.365C131.492 64.0177 131.052 64.575 130.495 65.037C129.937 65.5063 129.299 65.8657 128.581 66.115C127.862 66.3717 127.107 66.5 126.315 66.5C125.545 66.5 124.804 66.3423 124.093 66.027C123.381 65.7117 122.751 65.279 122.201 64.729C121.658 64.1863 121.244 63.5667 120.958 62.87L123.411 61.759C123.557 62.1623 123.777 62.5143 124.071 62.815C124.371 63.123 124.716 63.3613 125.105 63.53C125.493 63.706 125.897 63.794 126.315 63.794C126.74 63.794 127.147 63.7353 127.536 63.618C127.932 63.5007 128.287 63.3283 128.603 63.101C128.918 62.881 129.164 62.6097 129.34 62.287C129.523 61.9717 129.615 61.6123 129.615 61.209V59.658C129.27 60.142 128.837 60.5343 128.317 60.835C127.796 61.1357 127.195 61.286 126.513 61.286C125.721 61.286 124.98 61.1357 124.291 60.835C123.601 60.5343 122.993 60.12 122.465 59.592C121.944 59.0567 121.533 58.4407 121.233 57.744C120.939 57.0473 120.793 56.2993 120.793 55.5C120.793 54.7007 120.939 53.9527 121.233 53.256C121.533 52.5593 121.944 51.947 122.465 51.419C122.993 50.8837 123.601 50.4657 124.291 50.165C124.98 49.8643 125.721 49.714 126.513 49.714C127.195 49.714 127.796 49.8643 128.317 50.165C128.837 50.4583 129.27 50.847 129.615 51.331V50ZM126.546 58.701C127.11 58.701 127.609 58.558 128.042 58.272C128.482 57.9787 128.826 57.59 129.076 57.106C129.325 56.6147 129.45 56.0793 129.45 55.5C129.45 54.9133 129.321 54.378 129.065 53.894C128.815 53.41 128.471 53.0213 128.031 52.728C127.598 52.4347 127.103 52.288 126.546 52.288C125.996 52.288 125.493 52.4347 125.039 52.728C124.584 53.014 124.221 53.399 123.95 53.883C123.678 54.367 123.543 54.906 123.543 55.5C123.543 56.094 123.678 56.633 123.95 57.117C124.221 57.601 124.584 57.986 125.039 58.272C125.493 58.558 125.996 58.701 126.546 58.701ZM139.527 61.286C138.515 61.286 137.591 61.0257 136.755 60.505C135.927 59.9843 135.263 59.284 134.764 58.404C134.273 57.524 134.027 56.5523 134.027 55.489C134.027 54.6897 134.17 53.9417 134.456 53.245C134.742 52.541 135.135 51.925 135.633 51.397C136.139 50.8617 136.726 50.4437 137.393 50.143C138.061 49.8423 138.772 49.692 139.527 49.692C140.385 49.692 141.17 49.8753 141.881 50.242C142.6 50.6013 143.209 51.0963 143.707 51.727C144.206 52.3577 144.569 53.0763 144.796 53.883C145.024 54.6897 145.075 55.533 144.95 56.413H136.909C137.012 56.8237 137.181 57.194 137.415 57.524C137.65 57.8467 137.947 58.107 138.306 58.305C138.666 58.4957 139.073 58.5947 139.527 58.602C139.997 58.6093 140.422 58.4993 140.803 58.272C141.192 58.0373 141.515 57.722 141.771 57.326L144.51 57.964C144.063 58.9393 143.396 59.7387 142.508 60.362C141.621 60.978 140.627 61.286 139.527 61.286ZM136.821 54.4H142.233C142.153 53.96 141.98 53.564 141.716 53.212C141.46 52.8527 141.141 52.5667 140.759 52.354C140.378 52.1413 139.967 52.035 139.527 52.035C139.087 52.035 138.68 52.1413 138.306 52.354C137.932 52.5593 137.613 52.8417 137.349 53.201C137.093 53.553 136.917 53.9527 136.821 54.4ZM152.636 52.684H150.502V61H147.818V52.684H146.19V50H147.818V46.546H150.502V50H152.636V52.684ZM164.701 54.048V61H162.017V54.752C162.017 54.3193 161.91 53.927 161.698 53.575C161.485 53.2157 161.199 52.9333 160.84 52.728C160.488 52.5153 160.095 52.409 159.663 52.409C159.23 52.409 158.834 52.5153 158.475 52.728C158.123 52.9333 157.84 53.2157 157.628 53.575C157.422 53.927 157.32 54.3193 157.32 54.752V61H154.636L154.625 44.5H157.309L157.32 50.979C157.694 50.583 158.141 50.2713 158.662 50.044C159.182 49.8093 159.743 49.692 160.345 49.692C161.144 49.692 161.874 49.89 162.534 50.286C163.194 50.6747 163.718 51.199 164.107 51.859C164.503 52.5117 164.701 53.2413 164.701 54.048ZM171.517 61.286C170.505 61.286 169.581 61.0257 168.745 60.505C167.917 59.9843 167.253 59.284 166.754 58.404C166.263 57.524 166.017 56.5523 166.017 55.489C166.017 54.6897 166.16 53.9417 166.446 53.245C166.732 52.541 167.125 51.925 167.623 51.397C168.129 50.8617 168.716 50.4437 169.383 50.143C170.051 49.8423 170.762 49.692 171.517 49.692C172.375 49.692 173.16 49.8753 173.871 50.242C174.59 50.6013 175.199 51.0963 175.697 51.727C176.196 52.3577 176.559 53.0763 176.786 53.883C177.014 54.6897 177.065 55.533 176.94 56.413H168.899C169.002 56.8237 169.171 57.194 169.405 57.524C169.64 57.8467 169.937 58.107 170.296 58.305C170.656 58.4957 171.063 58.5947 171.517 58.602C171.987 58.6093 172.412 58.4993 172.793 58.272C173.182 58.0373 173.505 57.722 173.761 57.326L176.5 57.964C176.053 58.9393 175.386 59.7387 174.498 60.362C173.611 60.978 172.617 61.286 171.517 61.286ZM168.811 54.4H174.223C174.143 53.96 173.97 53.564 173.706 53.212C173.45 52.8527 173.131 52.5667 172.749 52.354C172.368 52.1413 171.957 52.035 171.517 52.035C171.077 52.035 170.67 52.1413 170.296 52.354C169.922 52.5593 169.603 52.8417 169.339 53.201C169.083 53.553 168.907 53.9527 168.811 54.4ZM178.741 61L178.73 50H181.414L181.425 50.979C181.799 50.583 182.246 50.2713 182.767 50.044C183.288 49.8093 183.849 49.692 184.45 49.692C184.853 49.692 185.257 49.7507 185.66 49.868L184.604 52.574C184.325 52.464 184.047 52.409 183.768 52.409C183.335 52.409 182.939 52.5153 182.58 52.728C182.228 52.9333 181.946 53.2157 181.733 53.575C181.528 53.927 181.425 54.3193 181.425 54.752V61H178.741Z" fill="white"/>
<path fill-rule="evenodd" clip-rule="evenodd" d="M270.529 35.0234C270.929 35.4373 271.407 35.7674 271.935 35.9945C272.464 36.2217 273.033 36.3412 273.608 36.3462C274.184 36.3512 274.754 36.2415 275.287 36.0237C275.819 35.8058 276.303 35.484 276.71 35.0772C277.117 34.6703 277.439 34.1865 277.656 33.6539C277.874 33.1214 277.984 32.5507 277.979 31.9754C277.974 31.4 277.854 30.8314 277.627 30.3027C277.4 29.774 277.07 29.2958 276.656 28.8961C275.839 28.1068 274.744 27.67 273.608 27.6799C272.472 27.6897 271.385 28.1455 270.582 28.9489C269.778 29.7523 269.323 30.8392 269.313 31.9754C269.303 33.1116 269.74 34.2062 270.529 35.0234ZM272.061 33.4916C272.261 33.6985 272.5 33.8636 272.764 33.9772C273.028 34.0907 273.313 34.1505 273.6 34.153C273.888 34.1555 274.173 34.1007 274.44 33.9917C274.706 33.8828 274.948 33.7219 275.151 33.5185C275.355 33.315 275.516 33.0731 275.625 32.8068C275.733 32.5406 275.788 32.2553 275.786 31.9676C275.783 31.6799 275.724 31.3956 275.61 31.1312C275.496 30.8669 275.331 30.6278 275.124 30.4279C274.716 30.0333 274.168 29.8149 273.6 29.8198C273.032 29.8247 272.489 30.0526 272.087 30.4543C271.685 30.856 271.458 31.3995 271.453 31.9676C271.448 32.5357 271.666 33.083 272.061 33.4916Z" fill="white"/>
<path d="M266.058 46.6026C266.286 47.1572 266.897 47.4649 267.465 47.2764C268.032 47.0879 268.342 46.4726 268.119 45.9157C266.509 41.8857 263.662 39.0409 259.632 37.4289C259.5 37.3779 259.359 37.3546 259.218 37.3602C259.076 37.3658 258.938 37.4004 258.81 37.4617C258.683 37.523 258.569 37.6098 258.476 37.7167C258.384 37.8236 258.314 37.9483 258.271 38.0832C258.185 38.3594 258.206 38.6582 258.331 38.9192C258.456 39.1803 258.676 39.3841 258.945 39.4894C262.321 40.8696 264.676 43.2269 266.058 46.6026Z" fill="white"/>
<path fill-rule="evenodd" clip-rule="evenodd" d="M273.727 22.227C276.665 21.5705 279.429 21.5164 281.132 21.5705C281.882 21.5897 282.595 21.8961 283.126 22.4263C283.656 22.9565 283.962 23.6701 283.981 24.4197C284.036 26.1227 283.981 28.8895 283.327 31.8254C282.673 34.7547 281.401 37.9397 278.957 40.3837L278.909 40.4314C276.933 42.4074 275.382 43.9587 274.099 45.0702L274.615 49.7069C274.651 50.0297 274.613 50.3563 274.506 50.6627C274.398 50.9691 274.223 51.2474 273.993 51.477L269.393 56.0747C269.14 56.3279 268.827 56.5143 268.484 56.6171C268.141 56.7199 267.777 56.736 267.426 56.6639C267.075 56.5917 266.747 56.4336 266.473 56.2038C266.198 55.9739 265.984 55.6794 265.851 55.3467L263.721 50.0232L256.885 51.1607C256.545 51.2174 256.196 51.1921 255.868 51.087C255.54 50.9819 255.241 50.7999 254.997 50.5563C254.753 50.3126 254.571 50.0143 254.466 49.686C254.36 49.3578 254.335 49.0091 254.391 48.669L255.531 41.831L250.205 39.7012C249.873 39.568 249.578 39.3544 249.348 39.0795C249.118 38.8045 248.96 38.4769 248.888 38.1258C248.816 37.7748 248.832 37.4113 248.935 37.068C249.038 36.7247 249.224 36.4123 249.477 36.1587L254.075 31.5589C254.305 31.3293 254.584 31.1543 254.89 31.0471C255.197 30.9398 255.524 30.9029 255.847 30.9392L260.484 31.4527C261.593 30.17 263.145 28.6187 265.121 26.6427L265.168 26.595C267.612 24.151 270.797 22.8792 273.727 22.227ZM274.199 24.3417C271.495 24.944 268.748 26.0794 266.702 28.1269C264.427 30.3997 262.824 32.0052 261.773 33.2835L261.4 33.7364L255.609 33.0929L251.009 37.6905L256.335 39.8204C256.794 40.0039 257.176 40.3388 257.418 40.7696C257.661 41.2003 257.749 41.701 257.667 42.1885L256.528 49.0244L263.363 47.8847C263.851 47.8034 264.352 47.8912 264.782 48.1336C265.213 48.3759 265.548 48.7583 265.732 49.2172L267.861 54.5429L272.461 49.9452L271.818 44.1515L272.271 43.7789C273.547 42.728 275.152 41.1225 277.425 38.8519C279.473 36.8044 280.61 34.057 281.212 31.3552C281.815 28.6555 281.867 26.088 281.817 24.489C281.815 24.2898 281.735 24.0992 281.594 23.9585C281.453 23.8178 281.262 23.7383 281.063 23.7372C279.466 23.6852 276.896 23.7372 274.199 24.3417Z" fill="white"/>
<path fill-rule="evenodd" clip-rule="evenodd" d="M256.523 59.6643C256.32 59.4611 256.205 59.1856 256.205 58.8983C256.205 58.6111 256.32 58.3356 256.523 58.1324L261.118 53.5348C261.322 53.3374 261.596 53.2282 261.88 53.2307C262.164 53.2332 262.436 53.3471 262.637 53.5479C262.838 53.7488 262.952 54.0205 262.954 54.3046C262.957 54.5886 262.847 54.8623 262.65 55.0666L258.057 59.6643C257.956 59.7651 257.836 59.8452 257.705 59.8998C257.573 59.9544 257.432 59.9825 257.29 59.9825C257.147 59.9825 257.006 59.9544 256.874 59.8998C256.743 59.8452 256.623 59.7651 256.523 59.6643ZM245.798 48.9392C245.595 48.7361 245.48 48.4606 245.48 48.1733C245.48 47.8861 245.595 47.6106 245.798 47.4074L250.395 42.8119C250.6 42.6146 250.873 42.5054 251.157 42.5079C251.441 42.5103 251.713 42.6243 251.914 42.8251C252.115 43.026 252.229 43.2977 252.231 43.5817C252.234 43.8658 252.124 44.1394 251.927 44.3437L247.329 48.9392C247.126 49.1423 246.851 49.2564 246.564 49.2564C246.276 49.2564 246.001 49.1423 245.798 48.9392ZM248.092 57.3611C247.889 57.1579 247.775 56.8824 247.775 56.5952C247.775 56.3079 247.889 56.0324 248.092 55.8293L252.688 51.2338C252.891 51.0303 253.166 50.9159 253.454 50.9157C253.741 50.9155 254.017 51.0295 254.221 51.2327C254.424 51.4358 254.538 51.7114 254.539 51.9989C254.539 52.2864 254.425 52.5622 254.222 52.7656L249.624 57.3611C249.421 57.5642 249.145 57.6783 248.858 57.6783C248.571 57.6783 248.295 57.5642 248.092 57.3611Z" fill="white"/>
<path d="M235.5 13.0312C253.851 13.7728 268.5 28.8813 268.5 47.4141C268.5 65.9469 253.851 81.0553 235.5 81.7969V13.0312Z" fill="white" fill-opacity="0.2"/>
<path d="M301.5 13C283.149 13.7416 268.5 28.85 268.5 47.3828C268.5 65.9157 283.149 81.024 301.5 81.7656V13Z" fill="white" fill-opacity="0.2"/>
</g>
<defs>
<linearGradient id="paint0_linear_9020_44228" x1="297.822" y1="80" x2="37.154" y2="-67.7437" gradientUnits="userSpaceOnUse">
<stop offset="0.17976" stop-color="#FF6E00"/>
<stop offset="1" stop-color="#FF8B41"/>
</linearGradient>
<clipPath id="clip0_9020_44228">
<rect width="302" height="76" rx="8" fill="white"/>
</clipPath>
</defs>
</svg>
