<svg width="54" height="54" viewBox="0 0 54 54" fill="none" xmlns="http://www.w3.org/2000/svg">
<g clip-path="url(#clip0_9268_44506)">
<path d="M47.7 34.2V33.3C47.7 32.3452 47.3207 31.4295 46.6456 30.7544C45.9705 30.0793 45.0548 29.7 44.1 29.7H38.7C37.7452 29.7 36.8296 30.0793 36.1544 30.7544C35.4793 31.4295 35.1 32.3452 35.1 33.3V34.2H36.9V33.3C36.9 32.8226 37.0896 32.3648 37.4272 32.0272C37.7648 31.6896 38.2226 31.5 38.7 31.5H44.1C44.5774 31.5 45.0352 31.6896 45.3728 32.0272C45.7104 32.3648 45.9 32.8226 45.9 33.3V34.2H47.7ZM28.5444 29.9943C29.201 29.5483 29.7603 28.9737 30.1883 28.3052C30.6164 27.6368 30.9043 26.8884 31.0347 26.1054L31.5126 23.2515C31.5477 23.0415 31.6562 22.8508 31.8186 22.7132C31.9811 22.5756 32.1871 22.5001 32.4 22.5C32.8774 22.5 33.3352 22.3104 33.6728 21.9728C34.0104 21.6352 34.2 21.1774 34.2 20.7C34.2 20.2226 34.0104 19.7648 33.6728 19.4272C33.3352 19.0896 32.8774 18.9 32.4 18.9C32.1613 18.9 31.9324 18.8052 31.7636 18.6364C31.5948 18.4676 31.5 18.2387 31.5 18C31.5525 17.4263 31.4056 16.8521 31.0842 16.374C30.7627 15.896 30.2862 15.5434 29.7351 15.3756C26.9672 15.0231 24.3003 14.1092 21.8979 12.69C21.8099 12.6311 21.7064 12.5996 21.6005 12.5996C21.4945 12.5996 21.391 12.6311 21.303 12.69C18.9001 14.1096 16.2326 15.0235 13.464 15.3756C12.913 15.5435 12.4368 15.8962 12.1155 16.3742C11.7942 16.8523 11.6475 17.4264 11.7 18C11.7 18.2387 11.6052 18.4676 11.4364 18.6364C11.2676 18.8052 11.0387 18.9 10.8 18.9C10.3226 18.9 9.86477 19.0896 9.52721 19.4272C9.18964 19.7648 9 20.2226 9 20.7C9 21.1774 9.18964 21.6352 9.52721 21.9728C9.86477 22.3104 10.3226 22.5 10.8 22.5C11.0129 22.5001 11.2189 22.5756 11.3814 22.7132C11.5438 22.8508 11.6523 23.0415 11.6874 23.2515L12.1653 26.1045C12.2956 26.8876 12.5835 27.6362 13.0115 28.3048C13.4396 28.9734 13.9989 29.5482 14.6556 29.9943C14.9175 30.1743 15.1956 30.3687 15.4935 30.5775C17.2143 31.7898 19.3554 33.3 21.6 33.3C23.8446 33.3 25.9857 31.7898 27.7065 30.5775C28.0017 30.3687 28.2825 30.1716 28.5444 29.9943ZM18 34.2117C18 35.1665 18.3793 36.0822 19.0544 36.7573C19.7295 37.4324 20.6452 37.8117 21.6 37.8117C22.5548 37.8117 23.4705 37.4324 24.1456 36.7573C24.8207 36.0822 25.2 35.1665 25.2 34.2117C24.0791 34.7668 22.8504 35.07 21.6 35.1C20.3496 35.07 19.1209 34.7668 18 34.2117Z" fill="white"/>
<path d="M51.3016 36H31.5016C31.0045 36 30.6016 36.4029 30.6016 36.9V41.4C30.6016 41.8971 31.0045 42.3 31.5016 42.3H51.3016C51.7986 42.3 52.2016 41.8971 52.2016 41.4V36.9C52.2016 36.4029 51.7986 36 51.3016 36Z" fill="white"/>
<path d="M42.3008 45.9008C42.5395 45.9008 42.7684 45.806 42.9372 45.6372C43.106 45.4684 43.2008 45.2395 43.2008 45.0008V44.1008H39.6008V45.0008C39.6008 45.2395 39.6956 45.4684 39.8644 45.6372C40.0332 45.806 40.2621 45.9008 40.5008 45.9008H42.3008ZM2.70078 52.2008H28.9664C28.8598 51.9126 28.8038 51.6081 28.8008 51.3008V36.9008C28.8046 36.6218 28.8523 36.3451 28.9421 36.0809L26.8622 35.3978C26.5919 36.5913 25.9239 37.6574 24.9679 38.4212C24.0118 39.185 22.8245 39.601 21.6008 39.601C20.3771 39.601 19.1898 39.185 18.2337 38.4212C17.2776 37.6574 16.6096 36.5913 16.3394 35.3978L8.49768 37.9718C4.17948 39.392 1.80078 43.8056 1.80078 50.4008V51.3008C1.80078 51.5395 1.8956 51.7684 2.06439 51.9372C2.23317 52.106 2.46209 52.2008 2.70078 52.2008ZM9.00078 14.4008V17.5949C9.30012 17.4166 9.62396 17.2832 9.96198 17.1989C10.0501 16.3307 10.4126 15.5133 10.9968 14.8651C11.5811 14.217 12.3566 13.7719 13.211 13.5944C15.7291 13.2771 18.1562 12.4503 20.3444 11.1644C20.7199 10.9254 21.1557 10.7985 21.6008 10.7985C22.0459 10.7985 22.4817 10.9254 22.8572 11.1644C25.0452 12.4499 27.472 13.2766 29.9897 13.5944C30.8442 13.7717 31.62 14.2167 32.2044 14.8649C32.7888 15.5131 33.1514 16.3306 33.2396 17.1989C33.5776 17.2832 33.9014 17.4166 34.2008 17.5949V14.4008C34.2008 11.0591 32.8733 7.85419 30.5103 5.49124C28.1474 3.12828 24.9425 1.80078 21.6008 1.80078C18.2591 1.80078 15.0542 3.12828 12.6912 5.49124C10.3283 7.85419 9.00078 11.0591 9.00078 14.4008Z" fill="white"/>
<path d="M52.2016 43.9355C51.9133 44.0421 51.6089 44.0982 51.3016 44.1011H45.0016V45.0011C45.0016 45.7172 44.7171 46.404 44.2108 46.9103C43.7044 47.4167 43.0176 47.7011 42.3016 47.7011H40.5016C39.7855 47.7011 39.0987 47.4167 38.5924 46.9103C38.086 46.404 37.8016 45.7172 37.8016 45.0011V44.1011H31.5016C31.1943 44.0982 30.8898 44.0421 30.6016 43.9355V51.3011C30.6016 51.5398 30.6964 51.7688 30.8652 51.9375C31.0339 52.1063 31.2629 52.2011 31.5016 52.2011H51.3016C51.5403 52.2011 51.7692 52.1063 51.938 51.9375C52.1067 51.7688 52.2016 51.5398 52.2016 51.3011V43.9355Z" fill="white"/>
</g>
<defs>
<clipPath id="clip0_9268_44506">
<rect width="54" height="54" fill="white"/>
</clipPath>
</defs>
</svg>
