<svg width="54" height="54" viewBox="0 0 54 54" fill="none" xmlns="http://www.w3.org/2000/svg">
<g clip-path="url(#clip0_9268_44513)">
<path d="M36.5619 54H17.4369C17.0339 53.9998 16.6442 53.8555 16.3384 53.593C16.0326 53.3305 15.8309 52.9673 15.7696 52.569L13.5196 37.944C13.4826 37.7036 13.4981 37.458 13.5649 37.2241C13.6317 36.9902 13.7482 36.7736 13.9066 36.5889C14.0649 36.4043 14.2613 36.2561 14.4823 36.1544C14.7033 36.0528 14.9436 36.0001 15.1869 36H38.8119C39.0553 36 39.2959 36.0528 39.5171 36.1545C39.7382 36.2563 39.9347 36.4048 40.0931 36.5897C40.2515 36.7746 40.368 36.9915 40.4346 37.2257C40.5013 37.4599 40.5164 37.7057 40.4791 37.9462L38.2291 52.5712C38.1674 52.9691 37.9654 53.3319 37.6596 53.5939C37.3539 53.8559 36.9645 53.9999 36.5619 54Z" fill="white"/>
<path d="M27 18C31.9706 18 36 13.9706 36 9C36 4.02944 31.9706 0 27 0C22.0294 0 18 4.02944 18 9C18 13.9706 22.0294 18 27 18Z" fill="white"/>
<path d="M52.2372 29.2494C52.0529 26.7683 51.3049 24.362 50.0502 22.2136C48.7955 20.0652 47.0671 18.2314 44.9967 16.8519C44.9918 16.1859 44.7898 15.5363 44.4163 14.9849C44.0427 14.4335 43.5143 14.0051 42.8975 13.7536C42.2808 13.5021 41.6035 13.4388 40.9509 13.5718C40.2983 13.7047 39.6996 14.0278 39.2304 14.5005C38.7612 14.9732 38.4424 15.5742 38.3143 16.2277C38.1861 16.8813 38.2543 17.5582 38.5103 18.173C38.7663 18.7879 39.1986 19.3131 39.7527 19.6827C40.3068 20.0522 40.9579 20.2494 41.6239 20.2494C42.2404 20.2494 42.8097 20.0717 43.3069 19.7837C44.8686 20.8594 46.1754 22.2644 47.1352 23.8999C48.095 25.5354 48.6845 27.3614 48.8622 29.2494H44.8639C44.0539 24.1644 39.6439 20.2494 34.3114 20.2494H19.6864C14.3539 20.2494 9.94391 24.1644 9.13391 29.2494H1.68641C0.49166 29.2494 -0.28009 30.4599 0.0889097 31.5219L4.58891 43.8969C4.83641 44.5494 5.46641 44.9994 6.18641 44.9994H10.0564L9.06641 38.6319C8.79641 36.8319 9.31391 35.0319 10.4839 33.6594C11.4874 32.4557 13.2627 31.4994 15.1864 31.4994H38.8114C39.7042 31.5016 40.5861 31.6956 41.3974 32.0683C42.2087 32.4409 42.9305 32.9836 43.5139 33.6594C44.6839 35.0319 45.2014 36.8319 44.9314 38.6319L43.9414 44.9994H47.8114C48.5314 44.9994 49.1614 44.5494 49.4089 43.8969L53.9089 31.5219C54.0005 31.2596 54.0267 30.9789 53.9854 30.7042C53.9441 30.4295 53.8365 30.1689 53.6718 29.9451C53.5072 29.7214 53.2905 29.5411 53.0406 29.4198C52.7906 29.2986 52.5148 29.2401 52.2372 29.2494Z" fill="white"/>
</g>
<defs>
<clipPath id="clip0_9268_44513">
<rect width="54" height="54" fill="white"/>
</clipPath>
</defs>
</svg>
