<svg width="14" height="13" viewBox="0 0 14 13" fill="none" xmlns="http://www.w3.org/2000/svg">
<path d="M3.52482 1.91199C3.52465 2.25807 3.387 2.5899 3.14217 2.8345C2.89733 3.07909 2.56536 3.2164 2.21928 3.21623C1.8732 3.21606 1.54136 3.07841 1.29677 2.83357C1.05218 2.58874 0.914866 2.25676 0.915039 1.91069C0.915212 1.56461 1.05286 1.23277 1.29769 0.988178C1.54253 0.743586 1.8745 0.606272 2.22058 0.606445C2.56666 0.606619 2.8985 0.744264 3.14309 0.989101C3.38768 1.23394 3.525 1.56591 3.52482 1.91199ZM3.56397 4.1825H0.954186V12.3511H3.56397V4.1825ZM7.68743 4.1825H5.09069V12.3511H7.66133V8.06456C7.66133 5.6766 10.7735 5.45477 10.7735 8.06456V12.3511H13.3507V7.17723C13.3507 3.15164 8.74439 3.3017 7.66133 5.27861L7.68743 4.1825Z" fill="white"/>
</svg>
