<svg width="13" height="14" viewBox="0 0 13 14" fill="none" xmlns="http://www.w3.org/2000/svg">
<path d="M7.3599 0.607213C7.81519 0.605466 8.27048 0.610042 8.72565 0.620939L8.84669 0.625307C8.98644 0.630298 9.12433 0.636537 9.29091 0.644024C9.95476 0.67522 10.4077 0.780038 10.8052 0.934145C11.2169 1.09262 11.5638 1.30725 11.9107 1.65414C12.2279 1.96585 12.4734 2.34291 12.6301 2.7591C12.7842 3.15653 12.889 3.61012 12.9202 4.27396C12.9277 4.43992 12.934 4.57843 12.9389 4.71819L12.9427 4.83923C12.9538 5.29418 12.9586 5.74927 12.957 6.20435L12.9577 6.6698V7.48712C12.9592 7.94242 12.9544 8.39771 12.9433 8.85287L12.9396 8.97391C12.9346 9.11367 12.9283 9.25155 12.9209 9.41814C12.8897 10.082 12.7836 10.5349 12.6301 10.9324C12.4739 11.349 12.2284 11.7264 11.9107 12.038C11.5988 12.3551 11.2215 12.6006 10.8052 12.7573C10.4077 12.9114 9.95476 13.0163 9.29091 13.0475C9.12433 13.0549 8.98644 13.0612 8.84669 13.0662L8.72565 13.0699C8.27049 13.081 7.81519 13.0858 7.3599 13.0843L6.89446 13.0849H6.07775C5.62246 13.0864 5.16716 13.0816 4.712 13.0705L4.59096 13.0668C4.44285 13.0614 4.29477 13.0552 4.14674 13.0481C3.48289 13.0169 3.02993 12.9108 2.63187 12.7573C2.21552 12.6009 1.8384 12.3554 1.52692 12.038C1.20937 11.7262 0.963662 11.3489 0.806919 10.9324C0.652812 10.5349 0.547995 10.082 0.516799 9.41814C0.50985 9.27009 0.503611 9.12202 0.498081 8.97391L0.494962 8.85287C0.483459 8.39772 0.478259 7.94242 0.479364 7.48712V6.20435C0.477623 5.74927 0.482198 5.29418 0.49309 4.83923L0.497457 4.71819C0.502449 4.57843 0.508688 4.43992 0.516175 4.27396C0.547371 3.60949 0.652188 3.15715 0.806295 2.7591C0.96313 2.34271 1.20932 1.96575 1.52754 1.65477C1.83881 1.33704 2.2157 1.0911 2.63187 0.934145C3.02993 0.780038 3.48227 0.67522 4.14674 0.644024L4.59096 0.625307L4.712 0.622187C5.16695 0.61069 5.62204 0.60549 6.07713 0.606589L7.3599 0.607213ZM6.71851 3.72679C6.30517 3.72094 5.89479 3.79731 5.51122 3.95144C5.12765 4.10557 4.77854 4.33441 4.48418 4.62464C4.18981 4.91487 3.95607 5.26071 3.79652 5.64206C3.63698 6.02341 3.55482 6.43267 3.55482 6.84605C3.55482 7.25943 3.63698 7.66869 3.79652 8.05004C3.95607 8.4314 4.18981 8.77724 4.48418 9.06747C4.77854 9.3577 5.12765 9.58653 5.51122 9.74066C5.89479 9.8948 6.30517 9.97116 6.71851 9.96531C7.54588 9.96531 8.33935 9.63665 8.92439 9.05161C9.50942 8.46658 9.83809 7.6731 9.83809 6.84574C9.83809 6.01838 9.50942 5.2249 8.92439 4.63987C8.33935 4.05483 7.54588 3.72679 6.71851 3.72679ZM6.71851 4.97462C6.96715 4.97004 7.2142 5.01505 7.44525 5.10702C7.67629 5.19899 7.88669 5.33608 8.06416 5.51028C8.24163 5.68448 8.3826 5.89229 8.47885 6.12159C8.5751 6.35088 8.6247 6.59706 8.62474 6.84573C8.62478 7.09441 8.57527 7.3406 8.4791 7.56993C8.38292 7.79925 8.24201 8.00712 8.06461 8.18138C7.8872 8.35563 7.67684 8.49279 7.44583 8.58484C7.21481 8.67689 6.96777 8.72198 6.71914 8.71748C6.22272 8.71748 5.74663 8.52028 5.39561 8.16926C5.04459 7.81824 4.84739 7.34216 4.84739 6.84574C4.84739 6.34932 5.04459 5.87324 5.39561 5.52221C5.74663 5.17119 6.22272 4.97399 6.71914 4.97399L6.71851 4.97462ZM9.99407 2.79092C9.79279 2.79897 9.60243 2.8846 9.46287 3.02986C9.32331 3.17512 9.24536 3.36874 9.24536 3.57018C9.24536 3.77163 9.32331 3.96525 9.46287 4.11051C9.60243 4.25577 9.79279 4.3414 9.99407 4.34945C10.2009 4.34945 10.3993 4.26729 10.5455 4.12103C10.6918 3.97477 10.774 3.7764 10.774 3.56956C10.774 3.36272 10.6918 3.16435 10.5455 3.01809C10.3993 2.87183 10.2009 2.78967 9.99407 2.78967V2.79092Z" fill="white"/>
</svg>
