<svg width="20" height="20" viewBox="0 0 20 20" fill="none" xmlns="http://www.w3.org/2000/svg">
<path d="M10.25 0.25C8.32164 0.25 6.43657 0.821828 4.83319 1.89317C3.22982 2.96451 1.98013 4.48726 1.24218 6.26884C0.504225 8.05042 0.311142 10.0108 0.687348 11.9021C1.06355 13.7934 1.99215 15.5307 3.35571 16.8943C4.71928 18.2579 6.45656 19.1865 8.34787 19.5627C10.2392 19.9389 12.1996 19.7458 13.9812 19.0078C15.7627 18.2699 17.2855 17.0202 18.3568 15.4168C19.4282 13.8134 20 11.9284 20 10C19.9973 7.41498 18.9692 4.93661 17.1413 3.10872C15.3134 1.28084 12.835 0.25273 10.25 0.25ZM15.5 10.75H10.25C10.0511 10.75 9.86033 10.671 9.71967 10.5303C9.57902 10.3897 9.5 10.1989 9.5 10V4.75C9.5 4.55109 9.57902 4.36032 9.71967 4.21967C9.86033 4.07902 10.0511 4 10.25 4C10.4489 4 10.6397 4.07902 10.7803 4.21967C10.921 4.36032 11 4.55109 11 4.75V9.25H15.5C15.6989 9.25 15.8897 9.32902 16.0303 9.46967C16.171 9.61032 16.25 9.80109 16.25 10C16.25 10.1989 16.171 10.3897 16.0303 10.5303C15.8897 10.671 15.6989 10.75 15.5 10.75Z" fill="#2920D2"/>
</svg>
