<svg width="20" height="16" viewBox="0 0 20 16" fill="none" xmlns="http://www.w3.org/2000/svg">
<path d="M2.80039 0.799805C1.47491 0.799805 0.400391 1.87432 0.400391 3.1998V7.9998C0.400391 9.32529 1.47491 10.3998 2.80039 10.3998L2.80039 3.1998H14.8004C14.8004 1.87432 13.7259 0.799805 12.4004 0.799805H2.80039Z" fill="#2920D2"/>
<path fill-rule="evenodd" clip-rule="evenodd" d="M5.20039 7.9998C5.20039 6.67432 6.27491 5.5998 7.60039 5.5998H17.2004C18.5259 5.5998 19.6004 6.67432 19.6004 7.9998V12.7998C19.6004 14.1253 18.5259 15.1998 17.2004 15.1998H7.60039C6.27491 15.1998 5.20039 14.1253 5.20039 12.7998V7.9998ZM12.4004 12.7998C13.7259 12.7998 14.8004 11.7253 14.8004 10.3998C14.8004 9.07432 13.7259 7.9998 12.4004 7.9998C11.0749 7.9998 10.0004 9.07432 10.0004 10.3998C10.0004 11.7253 11.0749 12.7998 12.4004 12.7998Z" fill="#2920D2"/>
</svg>
