<svg width="17" height="22" viewBox="0 0 17 22" fill="none" xmlns="http://www.w3.org/2000/svg">
<path d="M8.25 0.5C6.06273 0.502481 3.96575 1.37247 2.41911 2.91911C0.872472 4.46575 0.00248131 6.56273 0 8.75C0 15.8094 7.5 21.1409 7.81969 21.3641C7.94579 21.4524 8.09603 21.4998 8.25 21.4998C8.40397 21.4998 8.55421 21.4524 8.68031 21.3641C9 21.1409 16.5 15.8094 16.5 8.75C16.4975 6.56273 15.6275 4.46575 14.0809 2.91911C12.5343 1.37247 10.4373 0.502481 8.25 0.5ZM8.25 5.75C8.84334 5.75 9.42336 5.92595 9.91671 6.25559C10.4101 6.58524 10.7946 7.05377 11.0216 7.60195C11.2487 8.15013 11.3081 8.75333 11.1924 9.33527C11.0766 9.91721 10.7909 10.4518 10.3713 10.8713C9.95176 11.2909 9.41721 11.5766 8.83527 11.6924C8.25333 11.8081 7.65013 11.7487 7.10195 11.5216C6.55377 11.2946 6.08524 10.9101 5.75559 10.4167C5.42595 9.92336 5.25 9.34334 5.25 8.75C5.25 7.95435 5.56607 7.19129 6.12868 6.62868C6.69129 6.06607 7.45435 5.75 8.25 5.75Z" fill="#2920D2"/>
</svg>
