<svg width="15" height="18" viewBox="0 0 15 18" fill="none" xmlns="http://www.w3.org/2000/svg">
<path d="M7.5 8.93946C6.70888 8.93946 5.93552 8.70486 5.27772 8.26533C4.61992 7.82581 4.10723 7.20109 3.80448 6.47019C3.50173 5.73928 3.42252 4.93502 3.57686 4.15909C3.7312 3.38317 4.11217 2.67044 4.67158 2.11103C5.23099 1.55162 5.94372 1.17065 6.71964 1.01631C7.49556 0.861973 8.29983 0.941186 9.03074 1.24394C9.76164 1.54669 10.3864 2.05938 10.8259 2.71717C11.2654 3.37497 11.5 4.14833 11.5 4.93946C11.4988 5.99996 11.077 7.01669 10.3271 7.76658C9.57724 8.51647 8.56051 8.93828 7.5 8.93946ZM7.5 2.05057C6.92863 2.05057 6.3701 2.22 5.89502 2.53743C5.41995 2.85487 5.04967 3.30605 4.83102 3.83393C4.61236 4.3618 4.55515 4.94266 4.66662 5.50305C4.77809 6.06344 5.05323 6.57819 5.45725 6.98221C5.86127 7.38623 6.37602 7.66137 6.93641 7.77283C7.4968 7.8843 8.07766 7.82709 8.60553 7.60844C9.13341 7.38979 9.58459 7.01951 9.90203 6.54444C10.2195 6.06936 10.3889 5.51082 10.3889 4.93946C10.388 4.17355 10.0834 3.43926 9.54178 2.89768C9.0002 2.3561 8.26591 2.05145 7.5 2.05057Z" fill="#2920D2"/>
<path d="M14.4444 17.0599C14.2971 17.0599 14.1558 17.0014 14.0516 16.8972C13.9474 16.793 13.8889 16.6517 13.8889 16.5043V15.131C13.8877 14.0761 13.4681 13.0647 12.7222 12.3188C11.9763 11.5729 10.9649 11.1533 9.91 11.1521H5.09C4.03509 11.1533 3.02373 11.5729 2.2778 12.3188C1.53187 13.0647 1.11229 14.0761 1.11111 15.131V16.5043C1.11111 16.6517 1.05258 16.793 0.948393 16.8972C0.844206 17.0014 0.702898 17.0599 0.555556 17.0599C0.408213 17.0599 0.266905 17.0014 0.162718 16.8972C0.0585316 16.793 0 16.6517 0 16.5043V15.131C0.00161726 13.7816 0.538403 12.4878 1.49261 11.5336C2.44682 10.5794 3.74054 10.0426 5.09 10.041H9.90944C11.259 10.0425 12.5529 10.5792 13.5072 11.5334C14.4615 12.4877 14.9984 13.7815 15 15.131V16.5043C15 16.6517 14.9415 16.793 14.8373 16.8972C14.7331 17.0014 14.5918 17.0599 14.4444 17.0599Z" fill="#2920D2"/>
</svg>
