<svg width="276" height="158" viewBox="0 0 276 158" fill="none" xmlns="http://www.w3.org/2000/svg">
<path d="M12.2585 143.277C-1.73509 128.422 -9.2494 111.749 -9.2494 84.7226C-9.24939 37.1891 24.1181 -5.42456 72.6663 -26.4855L84.7921 -7.77313C39.4876 16.7393 30.634 48.5338 27.0942 68.5815C34.3884 64.8094 43.9375 63.4837 53.2978 64.3503C77.8076 66.6228 97.1244 86.7438 97.1244 111.749C97.1244 138.006 75.8393 159.291 49.5827 159.291C35.0065 159.291 21.0686 152.629 12.2585 143.277ZM148.092 143.277C134.098 128.422 126.584 111.749 126.584 84.7226C126.584 37.1891 159.952 -5.42455 208.499 -26.4855L220.625 -7.77312C175.321 16.7394 166.467 48.5339 162.928 68.5815C170.222 64.8094 179.771 63.4837 189.131 64.3503C213.641 66.6228 232.957 86.7438 232.957 111.749C232.957 138.006 211.672 159.291 185.415 159.291C170.84 159.291 156.901 152.629 148.092 143.277Z" fill="#2920D2" fill-opacity="0.12"/>
</svg>
