<svg width="19" height="20" viewBox="0 0 19 20" fill="none" xmlns="http://www.w3.org/2000/svg">
<path d="M17.8472 13.2304L13.4306 11.2514L13.4184 11.2457C13.1892 11.1477 12.939 11.1083 12.6907 11.1312C12.4424 11.1542 12.2037 11.2386 11.9963 11.377C11.9718 11.3931 11.9484 11.4107 11.9259 11.4295L9.64407 13.3748C8.19845 12.6726 6.70595 11.1914 6.00376 9.7645L7.95188 7.44794C7.97063 7.4245 7.98845 7.40106 8.00532 7.37575C8.14072 7.16884 8.22287 6.93167 8.24446 6.68535C8.26605 6.43902 8.22641 6.19118 8.12907 5.96387V5.95262L6.14438 1.52856C6.0157 1.23162 5.79444 0.984262 5.51362 0.823409C5.2328 0.662556 4.9075 0.596836 4.58626 0.63606C3.31592 0.803223 2.14986 1.42709 1.30588 2.39115C0.461903 3.35521 -0.00228837 4.59352 8.4831e-06 5.87481C8.4831e-06 13.3186 6.05626 19.3748 13.5 19.3748C14.7813 19.3771 16.0196 18.9129 16.9837 18.0689C17.9477 17.225 18.5716 16.0589 18.7388 14.7886C18.7781 14.4674 18.7125 14.1422 18.5518 13.8614C18.3911 13.5806 18.144 13.3593 17.8472 13.2304ZM13.5 17.8748C10.3185 17.8713 7.26825 16.6059 5.01856 14.3563C2.76888 12.1066 1.50348 9.05634 1.50001 5.87481C1.49648 4.95933 1.82631 4.07387 2.42789 3.38379C3.02947 2.6937 3.86167 2.24618 4.76907 2.12481C4.7687 2.12855 4.7687 2.13232 4.76907 2.13606L6.73782 6.54231L4.80001 8.86169C4.78034 8.88432 4.76247 8.90845 4.74657 8.93387C4.60549 9.15036 4.52273 9.39962 4.5063 9.65749C4.48988 9.91537 4.54035 10.1731 4.65282 10.4057C5.5022 12.1429 7.25251 13.8801 9.00845 14.7286C9.24279 14.84 9.50203 14.8887 9.76083 14.87C10.0196 14.8512 10.2692 14.7657 10.485 14.6217C10.5091 14.6055 10.5322 14.5879 10.5544 14.5692L12.8334 12.6248L17.2397 14.5982C17.2397 14.5982 17.2472 14.5982 17.25 14.5982C17.1301 15.5069 16.6833 16.3408 15.9931 16.9439C15.3028 17.547 14.4166 17.8779 13.5 17.8748Z" fill="white"/>
</svg>
