<svg width="20" height="21" viewBox="0 0 20 21" fill="none" xmlns="http://www.w3.org/2000/svg">
<path d="M10 0.845703C8.02219 0.845703 6.08879 1.43219 4.4443 2.53101C2.79981 3.62982 1.51809 5.19161 0.761209 7.01887C0.00433284 8.84613 -0.1937 10.8568 0.192152 12.7966C0.578004 14.7364 1.53041 16.5182 2.92894 17.9168C4.32746 19.3153 6.10929 20.2677 8.0491 20.6536C9.98891 21.0394 11.9996 20.8414 13.8268 20.0845C15.6541 19.3276 17.2159 18.0459 18.3147 16.4014C19.4135 14.7569 20 12.8235 20 10.8457C19.9972 8.1944 18.9427 5.65248 17.068 3.77773C15.1932 1.90297 12.6513 0.848503 10 0.845703ZM10 19.3072C8.32647 19.3072 6.69052 18.811 5.29902 17.8812C3.90753 16.9514 2.823 15.6299 2.18256 14.0838C1.54213 12.5376 1.37456 10.8363 1.70105 9.19494C2.02754 7.55356 2.83343 6.04586 4.01679 4.86249C5.20016 3.67912 6.70786 2.87324 8.34924 2.54675C9.99062 2.22026 11.6919 2.38783 13.2381 3.02826C14.7842 3.66869 16.1057 4.75323 17.0355 6.14472C17.9653 7.53622 18.4615 9.17217 18.4615 10.8457C18.459 13.0891 17.5667 15.2398 15.9804 16.8261C14.3941 18.4124 12.2434 19.3047 10 19.3072ZM16.1538 10.8457C16.1538 11.0497 16.0728 11.2454 15.9285 11.3896C15.7843 11.5339 15.5886 11.6149 15.3846 11.6149H10C9.79599 11.6149 9.60033 11.5339 9.45607 11.3896C9.31182 11.2454 9.23077 11.0497 9.23077 10.8457V5.46109C9.23077 5.25707 9.31182 5.06142 9.45607 4.91716C9.60033 4.7729 9.79599 4.69186 10 4.69186C10.204 4.69186 10.3997 4.7729 10.5439 4.91716C10.6882 5.06142 10.7692 5.25707 10.7692 5.46109V10.0765H15.3846C15.5886 10.0765 15.7843 10.1575 15.9285 10.3018C16.0728 10.446 16.1538 10.6417 16.1538 10.8457Z" fill="white"/>
</svg>
