<svg width="62" height="62" viewBox="0 0 62 62" fill="none" xmlns="http://www.w3.org/2000/svg">
<circle cx="31" cy="31" r="31" fill="#2920D2"/>
<path d="M44.9941 25.9512H27.3301C27.0227 25.9512 26.7734 26.2004 26.7734 26.5078C26.7734 26.8152 27.0227 27.0645 27.3301 27.0645H44.9941C45.3016 27.0645 45.5508 26.8152 45.5508 26.5078C45.5508 26.2004 45.3016 25.9512 44.9941 25.9512Z" fill="white"/>
<path d="M44.9941 30.207H27.3301C27.0227 30.207 26.7734 30.4563 26.7734 30.7637C26.7734 31.0711 27.0227 31.3203 27.3301 31.3203H44.9941C45.3016 31.3203 45.5508 31.0711 45.5508 30.7637C45.5508 30.4563 45.3016 30.207 44.9941 30.207Z" fill="white"/>
<path d="M44.9941 34.4619H27.3301C27.0227 34.4619 26.7734 34.7111 26.7734 35.0186C26.7734 35.326 27.0227 35.5752 27.3301 35.5752H44.9941C45.3016 35.5752 45.5508 35.326 45.5508 35.0186C45.5508 34.7111 45.3016 34.4619 44.9941 34.4619Z" fill="white"/>
<path d="M46.7626 21.083H25.5623C23.7771 21.083 22.3247 22.5353 22.3247 24.3206V37.6515C22.3247 39.4367 23.777 40.8891 25.5623 40.8891H40.4217C40.5806 40.8891 40.7282 40.9606 40.8268 41.0853L45.6254 47.1604C45.8145 47.3998 46.0904 47.5303 46.3794 47.5303C46.4868 47.5303 46.596 47.5122 46.7032 47.475C47.0986 47.3377 47.354 46.9785 47.354 46.56V40.8338C48.8551 40.5534 50.0001 39.2263 50.0001 37.6515V24.3205C50.0001 22.5353 48.5478 21.083 46.7626 21.083ZM48.8869 37.6515C48.8869 38.8076 47.9463 39.7602 46.7902 39.7749C46.4856 39.7789 46.2407 40.0269 46.2407 40.3316V46.1433L41.7004 40.3952C41.3895 40.0015 40.9234 39.7757 40.4217 39.7757H25.5623C24.391 39.7757 23.438 38.8228 23.438 37.6515V24.3205C23.438 23.1492 24.3909 22.1962 25.5623 22.1962H46.7626C47.9339 22.1962 48.8869 23.1492 48.8869 24.3205V37.6515Z" fill="white"/>
<path d="M20.2007 30.2874C19.82 30.3414 19.479 30.5374 19.2406 30.8392L15.4168 35.6802V30.8284C15.4168 30.5238 15.1719 30.2757 14.8673 30.2718C13.9001 30.2595 13.1133 29.4626 13.1133 28.4954V16.8904C13.1133 15.9105 13.9105 15.1133 14.8904 15.1133H33.3459C34.3258 15.1133 35.1231 15.9105 35.1231 16.8904V19.0377C35.1231 19.3452 35.3723 19.5944 35.6797 19.5944C35.9871 19.5944 36.2364 19.3452 36.2364 19.0377V16.8904C36.2364 15.2967 34.9397 14 33.3459 14H14.8904C13.2967 14 12 15.2967 12 16.8904V28.4954C12 29.8808 12.9924 31.0513 14.3036 31.3249V36.2505C14.3036 36.6459 14.545 36.9853 14.9186 37.1151C15.0199 37.1502 15.1231 37.1673 15.2246 37.1673C15.4975 37.1673 15.7584 37.044 15.937 36.8178L20.1143 31.5293C20.1746 31.4529 20.2609 31.4033 20.3573 31.3896C20.6616 31.3464 20.8734 31.0646 20.8301 30.7602C20.7869 30.4559 20.5055 30.244 20.2007 30.2874Z" fill="white"/>
</svg>
