<svg width="65" height="61" viewBox="0 0 65 61" fill="none" xmlns="http://www.w3.org/2000/svg">
<mask id="path-1-inside-1_3060_1465" fill="white">
<path d="M31.0833 4.26595V1.79392C31.0833 1.22173 31.5472 0.757812 32.1194 0.757812C32.6916 0.757812 33.1555 1.22173 33.1555 1.79392V4.26595C33.1555 4.83814 32.6916 5.30205 32.1194 5.30205C31.5472 5.30205 31.0833 4.83827 31.0833 4.26595ZM23.3067 6.90492C23.4987 7.23725 23.8469 7.4231 24.205 7.4231C24.3808 7.4231 24.559 7.37829 24.7222 7.28413C25.2177 6.99803 25.3875 6.36432 25.1014 5.86881L23.8655 3.72795C23.5794 3.2323 22.9457 3.06289 22.4501 3.34873C21.9546 3.63483 21.7848 4.26854 22.0709 4.76406L23.3067 6.90492ZM15.7507 11.8426L17.8915 13.0786C18.0547 13.1729 18.2328 13.2175 18.4087 13.2175C18.7668 13.2175 19.115 13.0317 19.307 12.6994C19.5931 12.2038 19.4233 11.5701 18.9278 11.284L16.7869 10.0481C16.2914 9.76185 15.6577 9.93165 15.3716 10.4273C15.0854 10.9228 15.2551 11.5565 15.7507 11.8426ZM39.5167 7.28426C39.6798 7.37855 39.8579 7.42323 40.0338 7.42323C40.3919 7.42323 40.7402 7.23738 40.9321 6.90504L42.1681 4.76418C42.4542 4.26854 42.2844 3.63496 41.7888 3.34886C41.2932 3.06264 40.6595 3.23243 40.3735 3.72808L39.1376 5.86894C38.8513 6.36445 39.0211 6.99816 39.5167 7.28426ZM45.8301 13.2177C46.0058 13.2177 46.184 13.1729 46.3472 13.0787L48.4881 11.8427C48.9836 11.5567 49.1534 10.9229 48.8673 10.4274C48.5812 9.93191 47.9475 9.76224 47.452 10.0482L45.3111 11.2842C44.8156 11.5703 44.6458 12.204 44.9319 12.6995C45.1238 13.0318 45.4721 13.2177 45.8301 13.2177ZM50.6732 43.5228C50.3499 44.7262 49.9105 45.8923 49.3602 47.0087H52.4398C52.8208 47.0087 53.171 47.2178 53.3518 47.5531L54.796 50.2325H56.3629C56.8009 48.883 58.0696 47.9042 59.5633 47.9042C61.4184 47.9042 62.9277 49.4135 62.9277 51.2686C62.9277 53.1236 61.4184 54.633 59.5633 54.633C58.0696 54.633 56.8009 53.6543 56.363 52.3047H54.1776C53.7966 52.3047 53.4464 52.0956 53.2656 51.7603L51.8214 49.0809H49.199L50.0804 51.0657C50.2544 51.4573 50.1693 51.9157 49.8661 52.2189L45.81 56.2751C45.5069 56.5782 45.0486 56.6634 44.6568 56.4894L41.7065 55.1792C40.262 56.0127 38.7214 56.6513 37.1135 57.0831L35.9547 60.0939C35.8008 60.494 35.4164 60.7578 34.9877 60.7578H29.2514C28.8227 60.7578 28.4385 60.4939 28.2845 60.0939L27.1252 57.0824C25.5184 56.6507 23.9781 56.0121 22.5337 55.1786L19.5822 56.4894C19.1904 56.6635 18.7322 56.5783 18.429 56.2751L14.3728 52.219C14.0697 51.9159 13.9845 51.4576 14.1584 51.0658L15.04 49.0809H12.4175L10.9733 51.7603C10.7925 52.0956 10.4423 52.3047 10.0613 52.3047H7.87585C7.43783 53.6543 6.16912 54.633 4.67557 54.633C2.82042 54.633 1.3112 53.1238 1.3112 51.2686C1.3112 49.4135 2.82042 47.9042 4.67557 47.9042C6.16912 47.9042 7.43796 48.883 7.87598 50.2325H9.44283L10.887 47.5531C11.0678 47.2178 11.418 47.0087 11.7991 47.0087H14.8776C14.3276 45.8925 13.8883 44.7264 13.5649 43.5225L10.5541 42.3635C10.154 42.2097 9.89017 41.8253 9.89017 41.3966V39.5645H6.56478C6.12677 40.914 4.85805 41.8927 3.36437 41.8927C1.50922 41.8929 0 40.3835 0 38.5285C0 36.6735 1.50922 35.1641 3.36437 35.1641C4.85805 35.1641 6.12677 36.1429 6.56478 37.4924H9.89017V35.6604C9.89017 35.2317 10.1541 34.8475 10.5541 34.6935L13.5654 33.5343C13.8886 32.3304 14.3282 31.164 14.8788 30.0473H11.7991C11.418 30.0473 11.0678 29.8381 10.887 29.5028L9.44283 26.8235H7.87598C7.43796 28.173 6.16925 29.1517 4.6757 29.1517C2.82055 29.1517 1.31132 27.6425 1.31132 25.7873C1.31132 23.9323 2.82055 22.423 4.6757 22.423C6.16925 22.423 7.43796 23.4017 7.87598 24.7512H10.0614C10.4424 24.7512 10.7926 24.9604 10.9734 25.2957L12.4176 27.9751H15.0396L14.1586 25.9915C13.9846 25.5998 14.0697 25.1415 14.3728 24.8383L18.4289 20.7819C18.7319 20.4788 19.1904 20.3938 19.5821 20.5676L20.9329 21.1675C20.7235 20.3794 20.5886 19.4531 20.5886 18.3082C20.5886 11.9501 25.7613 6.77747 32.1195 6.77747C38.4776 6.77747 43.6502 11.9501 43.6502 18.3082C43.6502 19.441 43.5204 20.3659 43.3075 21.1668L44.6567 20.5677C45.0482 20.3939 45.5067 20.4788 45.8099 20.782L49.8661 24.8381C50.1692 25.1412 50.2544 25.5996 50.0804 25.9913L49.1994 27.9752H51.8214L53.2656 25.2958C53.4464 24.9605 53.7966 24.7514 54.1776 24.7514H56.363C56.801 23.4018 58.0697 22.4231 59.5633 22.4231C61.4184 22.4231 62.9277 23.9323 62.9277 25.7875C62.9277 27.6426 61.4184 29.1518 59.5633 29.1518C58.0696 29.1518 56.8009 28.1732 56.3629 26.8236H54.7959L53.3517 29.503C53.1709 29.8383 52.8207 30.0474 52.4397 30.0474H49.3607C49.9112 31.164 50.3506 32.3305 50.6741 33.5347L53.6849 34.6936C54.0849 34.8475 54.3488 35.2319 54.3488 35.6606V37.4925H57.6741C58.1121 36.143 59.3808 35.1643 60.8744 35.1643C62.7295 35.1643 64.2387 36.6735 64.2387 38.5286C64.2387 40.3838 62.7295 41.893 60.8744 41.893C59.3807 41.893 58.112 40.9143 57.6739 39.5647H54.3487V41.3968C54.3487 41.8255 54.0847 42.2098 53.6848 42.3638L50.6732 43.5228ZM59.5822 38.5285C59.5822 39.241 60.1619 39.8207 60.8744 39.8207C61.5868 39.8207 62.1665 39.241 62.1665 38.5285C62.1665 37.816 61.5868 37.2363 60.8744 37.2363C60.1619 37.2363 59.5822 37.816 59.5822 38.5285ZM58.271 25.7872C58.271 26.4997 58.8507 27.0794 59.5632 27.0794C60.2756 27.0794 60.8553 26.4997 60.8553 25.7872C60.8553 25.0748 60.2756 24.4951 59.5632 24.4951C58.8506 24.4952 58.271 25.0748 58.271 25.7872ZM5.96773 25.7872C5.96773 25.0748 5.38802 24.4951 4.67557 24.4951C3.96312 24.4951 3.38341 25.0748 3.38341 25.7872C3.38341 26.4997 3.96312 27.0794 4.67557 27.0794C5.38802 27.0794 5.96773 26.4997 5.96773 25.7872ZM4.65653 38.5285C4.65653 37.816 4.07683 37.2363 3.36437 37.2363C2.65192 37.2363 2.07222 37.816 2.07222 38.5285C2.07222 39.241 2.65192 39.8207 3.36437 39.8207C4.07683 39.8207 4.65653 39.241 4.65653 38.5285ZM5.96773 51.2686C5.96773 50.5562 5.38802 49.9765 4.67557 49.9765C3.96312 49.9765 3.38341 50.5562 3.38341 51.2686C3.38341 51.9811 3.96312 52.5608 4.67557 52.5608C5.38802 52.5608 5.96773 51.9811 5.96773 51.2686ZM58.271 51.2686C58.271 51.9811 58.8507 52.5608 59.5632 52.5608C60.2756 52.5608 60.8553 51.9811 60.8553 51.2686C60.8553 50.5562 60.2756 49.9765 59.5632 49.9765C58.8506 49.9765 58.271 50.5562 58.271 51.2686ZM22.6607 18.3082C22.6607 20.1545 23.057 21.279 23.6522 22.3995C23.8319 22.7381 24.0276 23.0725 24.235 23.4267C25.2163 25.1038 26.4208 27.1625 26.8132 31.3437H29.271V21.8602H27.8683C25.9523 21.8602 24.3935 20.3014 24.3935 18.3854C24.3935 16.4694 25.9523 14.9105 27.8683 14.9105C29.7844 14.9105 31.3432 16.4694 31.3432 18.3854V19.788H32.8955V18.3854C32.8955 16.4694 34.4544 14.9105 36.3704 14.9105C38.2864 14.9105 39.8452 16.4694 39.8452 18.3854C39.8452 20.3014 38.2864 21.8602 36.3704 21.8602H34.9678V31.3437H37.4254C37.8178 27.1625 39.0224 25.1039 40.0036 23.4268C40.8832 21.9237 41.5779 20.7364 41.5779 18.3083C41.5779 13.0928 37.3347 8.84982 32.1194 8.84982C26.9039 8.84969 22.6607 13.0927 22.6607 18.3082ZM29.271 18.3854C29.271 17.6119 28.6418 16.9828 27.8683 16.9828C27.0949 16.9828 26.4657 17.6119 26.4657 18.3854C26.4657 19.1588 27.0949 19.788 27.8683 19.788H29.271V18.3854ZM32.8955 21.8602H31.3432V31.3437H32.8955V21.8602ZM26.8891 33.4158V34.0853C26.8891 34.448 27.1955 34.7545 27.5583 34.7545H36.6803C37.0431 34.7545 37.3495 34.448 37.3495 34.0853V33.4158H26.8891ZM30.4006 40.907C30.4006 41.2698 30.707 41.5762 31.0698 41.5762H33.283C33.6458 41.5762 33.9522 41.2698 33.9522 40.907V40.2376H30.4006V40.907ZM35.7012 36.8267H28.6515V37.496C28.6515 37.8588 28.9581 38.1652 29.3208 38.1652H35.032C35.3948 38.1652 35.7012 37.8588 35.7012 37.496V36.8267ZM24.7858 31.96C23.1744 33.7485 22.277 36.0593 22.277 38.5285C22.277 43.9556 26.6922 48.3709 32.1194 48.3709C37.5465 48.3709 41.9617 43.9556 41.9617 38.5285C41.9617 36.0593 41.0642 33.7484 39.4528 31.9598C39.4415 32.1083 39.4311 32.259 39.4219 32.4136V34.0854C39.4219 35.2085 38.7423 36.1748 37.7734 36.5981V37.4963C37.7734 38.6576 37.0463 39.6502 36.0245 40.049V40.9073C36.0245 42.419 34.7946 43.6487 33.283 43.6487H31.0698C29.5581 43.6487 28.3284 42.4188 28.3284 40.9073V40.049C27.3065 39.6502 26.5794 38.6576 26.5794 37.4963V36.643C25.5506 36.2478 24.817 35.2518 24.817 34.0855V32.4148C24.8077 32.2597 24.7972 32.1086 24.7858 31.96ZM36.3704 19.788C37.1438 19.788 37.773 19.1588 37.773 18.3854C37.773 17.6119 37.1438 16.9828 36.3704 16.9828C35.5969 16.9828 34.9678 17.6119 34.9678 18.3854V19.788H36.3704ZM49.4283 41.7815L52.2765 40.6852V36.3717L49.4292 35.2758C49.1105 35.1531 48.8726 34.881 48.7935 34.5487C48.3734 32.7834 47.6768 31.1031 46.7231 29.5544C46.5439 29.2635 46.5197 28.9028 46.6583 28.5905L47.8975 25.8002L44.8473 22.7501L42.079 23.9796C41.9844 24.1442 41.8886 24.3083 41.7921 24.4732C41.0331 25.7701 40.2558 27.1005 39.7912 29.4126C42.4953 31.6835 44.0338 34.9701 44.0338 38.5284C44.0338 45.0981 38.6889 50.443 32.1192 50.443C25.5495 50.443 20.2046 45.0981 20.2046 38.5284C20.2046 34.9702 21.7431 31.6836 24.4472 29.4127C23.9827 27.1005 23.2053 25.77 22.4464 24.473C22.3517 24.3113 22.2556 24.1463 22.1602 23.9799L19.391 22.75L16.341 25.8002L17.5806 28.5912C17.7193 28.9034 17.695 29.264 17.5158 29.555C16.5619 31.1039 15.8654 32.7839 15.4458 34.5482C15.3668 34.8805 15.1289 35.1526 14.81 35.2752L11.9621 36.3714V40.685L14.8094 41.781C15.1282 41.9036 15.366 42.1756 15.4451 42.5081C15.8653 44.2736 16.5618 45.9539 17.5154 47.5022C17.6947 47.7933 17.7189 48.1538 17.5802 48.4661L16.341 51.2564L19.3912 54.3065L22.1826 53.0668C22.4947 52.9281 22.8553 52.9522 23.1463 53.1314C24.6954 54.0852 26.3752 54.7817 28.1392 55.2014C28.4715 55.2806 28.7435 55.5183 28.8661 55.8372L29.9624 58.6853H34.276L35.372 55.8381C35.4946 55.5193 35.7667 55.2815 36.0991 55.2023C37.8643 54.7823 39.5446 54.0858 41.0931 53.1321C41.3841 52.9528 41.7446 52.9286 42.0569 53.0673L44.8473 54.3065L47.8974 51.2563L46.6576 48.465C46.5189 48.1528 46.5432 47.7922 46.7224 47.5013C47.6761 45.9523 48.3725 44.2724 48.7924 42.5084C48.8718 42.1762 49.1096 41.9041 49.4283 41.7815Z"/>
</mask>
<path d="M31.0833 4.26595V1.79392C31.0833 1.22173 31.5472 0.757812 32.1194 0.757812C32.6916 0.757812 33.1555 1.22173 33.1555 1.79392V4.26595C33.1555 4.83814 32.6916 5.30205 32.1194 5.30205C31.5472 5.30205 31.0833 4.83827 31.0833 4.26595ZM23.3067 6.90492C23.4987 7.23725 23.8469 7.4231 24.205 7.4231C24.3808 7.4231 24.559 7.37829 24.7222 7.28413C25.2177 6.99803 25.3875 6.36432 25.1014 5.86881L23.8655 3.72795C23.5794 3.2323 22.9457 3.06289 22.4501 3.34873C21.9546 3.63483 21.7848 4.26854 22.0709 4.76406L23.3067 6.90492ZM15.7507 11.8426L17.8915 13.0786C18.0547 13.1729 18.2328 13.2175 18.4087 13.2175C18.7668 13.2175 19.115 13.0317 19.307 12.6994C19.5931 12.2038 19.4233 11.5701 18.9278 11.284L16.7869 10.0481C16.2914 9.76185 15.6577 9.93165 15.3716 10.4273C15.0854 10.9228 15.2551 11.5565 15.7507 11.8426ZM39.5167 7.28426C39.6798 7.37855 39.8579 7.42323 40.0338 7.42323C40.3919 7.42323 40.7402 7.23738 40.9321 6.90504L42.1681 4.76418C42.4542 4.26854 42.2844 3.63496 41.7888 3.34886C41.2932 3.06264 40.6595 3.23243 40.3735 3.72808L39.1376 5.86894C38.8513 6.36445 39.0211 6.99816 39.5167 7.28426ZM45.8301 13.2177C46.0058 13.2177 46.184 13.1729 46.3472 13.0787L48.4881 11.8427C48.9836 11.5567 49.1534 10.9229 48.8673 10.4274C48.5812 9.93191 47.9475 9.76224 47.452 10.0482L45.3111 11.2842C44.8156 11.5703 44.6458 12.204 44.9319 12.6995C45.1238 13.0318 45.4721 13.2177 45.8301 13.2177ZM50.6732 43.5228C50.3499 44.7262 49.9105 45.8923 49.3602 47.0087H52.4398C52.8208 47.0087 53.171 47.2178 53.3518 47.5531L54.796 50.2325H56.3629C56.8009 48.883 58.0696 47.9042 59.5633 47.9042C61.4184 47.9042 62.9277 49.4135 62.9277 51.2686C62.9277 53.1236 61.4184 54.633 59.5633 54.633C58.0696 54.633 56.8009 53.6543 56.363 52.3047H54.1776C53.7966 52.3047 53.4464 52.0956 53.2656 51.7603L51.8214 49.0809H49.199L50.0804 51.0657C50.2544 51.4573 50.1693 51.9157 49.8661 52.2189L45.81 56.2751C45.5069 56.5782 45.0486 56.6634 44.6568 56.4894L41.7065 55.1792C40.262 56.0127 38.7214 56.6513 37.1135 57.0831L35.9547 60.0939C35.8008 60.494 35.4164 60.7578 34.9877 60.7578H29.2514C28.8227 60.7578 28.4385 60.4939 28.2845 60.0939L27.1252 57.0824C25.5184 56.6507 23.9781 56.0121 22.5337 55.1786L19.5822 56.4894C19.1904 56.6635 18.7322 56.5783 18.429 56.2751L14.3728 52.219C14.0697 51.9159 13.9845 51.4576 14.1584 51.0658L15.04 49.0809H12.4175L10.9733 51.7603C10.7925 52.0956 10.4423 52.3047 10.0613 52.3047H7.87585C7.43783 53.6543 6.16912 54.633 4.67557 54.633C2.82042 54.633 1.3112 53.1238 1.3112 51.2686C1.3112 49.4135 2.82042 47.9042 4.67557 47.9042C6.16912 47.9042 7.43796 48.883 7.87598 50.2325H9.44283L10.887 47.5531C11.0678 47.2178 11.418 47.0087 11.7991 47.0087H14.8776C14.3276 45.8925 13.8883 44.7264 13.5649 43.5225L10.5541 42.3635C10.154 42.2097 9.89017 41.8253 9.89017 41.3966V39.5645H6.56478C6.12677 40.914 4.85805 41.8927 3.36437 41.8927C1.50922 41.8929 0 40.3835 0 38.5285C0 36.6735 1.50922 35.1641 3.36437 35.1641C4.85805 35.1641 6.12677 36.1429 6.56478 37.4924H9.89017V35.6604C9.89017 35.2317 10.1541 34.8475 10.5541 34.6935L13.5654 33.5343C13.8886 32.3304 14.3282 31.164 14.8788 30.0473H11.7991C11.418 30.0473 11.0678 29.8381 10.887 29.5028L9.44283 26.8235H7.87598C7.43796 28.173 6.16925 29.1517 4.6757 29.1517C2.82055 29.1517 1.31132 27.6425 1.31132 25.7873C1.31132 23.9323 2.82055 22.423 4.6757 22.423C6.16925 22.423 7.43796 23.4017 7.87598 24.7512H10.0614C10.4424 24.7512 10.7926 24.9604 10.9734 25.2957L12.4176 27.9751H15.0396L14.1586 25.9915C13.9846 25.5998 14.0697 25.1415 14.3728 24.8383L18.4289 20.7819C18.7319 20.4788 19.1904 20.3938 19.5821 20.5676L20.9329 21.1675C20.7235 20.3794 20.5886 19.4531 20.5886 18.3082C20.5886 11.9501 25.7613 6.77747 32.1195 6.77747C38.4776 6.77747 43.6502 11.9501 43.6502 18.3082C43.6502 19.441 43.5204 20.3659 43.3075 21.1668L44.6567 20.5677C45.0482 20.3939 45.5067 20.4788 45.8099 20.782L49.8661 24.8381C50.1692 25.1412 50.2544 25.5996 50.0804 25.9913L49.1994 27.9752H51.8214L53.2656 25.2958C53.4464 24.9605 53.7966 24.7514 54.1776 24.7514H56.363C56.801 23.4018 58.0697 22.4231 59.5633 22.4231C61.4184 22.4231 62.9277 23.9323 62.9277 25.7875C62.9277 27.6426 61.4184 29.1518 59.5633 29.1518C58.0696 29.1518 56.8009 28.1732 56.3629 26.8236H54.7959L53.3517 29.503C53.1709 29.8383 52.8207 30.0474 52.4397 30.0474H49.3607C49.9112 31.164 50.3506 32.3305 50.6741 33.5347L53.6849 34.6936C54.0849 34.8475 54.3488 35.2319 54.3488 35.6606V37.4925H57.6741C58.1121 36.143 59.3808 35.1643 60.8744 35.1643C62.7295 35.1643 64.2387 36.6735 64.2387 38.5286C64.2387 40.3838 62.7295 41.893 60.8744 41.893C59.3807 41.893 58.112 40.9143 57.6739 39.5647H54.3487V41.3968C54.3487 41.8255 54.0847 42.2098 53.6848 42.3638L50.6732 43.5228ZM59.5822 38.5285C59.5822 39.241 60.1619 39.8207 60.8744 39.8207C61.5868 39.8207 62.1665 39.241 62.1665 38.5285C62.1665 37.816 61.5868 37.2363 60.8744 37.2363C60.1619 37.2363 59.5822 37.816 59.5822 38.5285ZM58.271 25.7872C58.271 26.4997 58.8507 27.0794 59.5632 27.0794C60.2756 27.0794 60.8553 26.4997 60.8553 25.7872C60.8553 25.0748 60.2756 24.4951 59.5632 24.4951C58.8506 24.4952 58.271 25.0748 58.271 25.7872ZM5.96773 25.7872C5.96773 25.0748 5.38802 24.4951 4.67557 24.4951C3.96312 24.4951 3.38341 25.0748 3.38341 25.7872C3.38341 26.4997 3.96312 27.0794 4.67557 27.0794C5.38802 27.0794 5.96773 26.4997 5.96773 25.7872ZM4.65653 38.5285C4.65653 37.816 4.07683 37.2363 3.36437 37.2363C2.65192 37.2363 2.07222 37.816 2.07222 38.5285C2.07222 39.241 2.65192 39.8207 3.36437 39.8207C4.07683 39.8207 4.65653 39.241 4.65653 38.5285ZM5.96773 51.2686C5.96773 50.5562 5.38802 49.9765 4.67557 49.9765C3.96312 49.9765 3.38341 50.5562 3.38341 51.2686C3.38341 51.9811 3.96312 52.5608 4.67557 52.5608C5.38802 52.5608 5.96773 51.9811 5.96773 51.2686ZM58.271 51.2686C58.271 51.9811 58.8507 52.5608 59.5632 52.5608C60.2756 52.5608 60.8553 51.9811 60.8553 51.2686C60.8553 50.5562 60.2756 49.9765 59.5632 49.9765C58.8506 49.9765 58.271 50.5562 58.271 51.2686ZM22.6607 18.3082C22.6607 20.1545 23.057 21.279 23.6522 22.3995C23.8319 22.7381 24.0276 23.0725 24.235 23.4267C25.2163 25.1038 26.4208 27.1625 26.8132 31.3437H29.271V21.8602H27.8683C25.9523 21.8602 24.3935 20.3014 24.3935 18.3854C24.3935 16.4694 25.9523 14.9105 27.8683 14.9105C29.7844 14.9105 31.3432 16.4694 31.3432 18.3854V19.788H32.8955V18.3854C32.8955 16.4694 34.4544 14.9105 36.3704 14.9105C38.2864 14.9105 39.8452 16.4694 39.8452 18.3854C39.8452 20.3014 38.2864 21.8602 36.3704 21.8602H34.9678V31.3437H37.4254C37.8178 27.1625 39.0224 25.1039 40.0036 23.4268C40.8832 21.9237 41.5779 20.7364 41.5779 18.3083C41.5779 13.0928 37.3347 8.84982 32.1194 8.84982C26.9039 8.84969 22.6607 13.0927 22.6607 18.3082ZM29.271 18.3854C29.271 17.6119 28.6418 16.9828 27.8683 16.9828C27.0949 16.9828 26.4657 17.6119 26.4657 18.3854C26.4657 19.1588 27.0949 19.788 27.8683 19.788H29.271V18.3854ZM32.8955 21.8602H31.3432V31.3437H32.8955V21.8602ZM26.8891 33.4158V34.0853C26.8891 34.448 27.1955 34.7545 27.5583 34.7545H36.6803C37.0431 34.7545 37.3495 34.448 37.3495 34.0853V33.4158H26.8891ZM30.4006 40.907C30.4006 41.2698 30.707 41.5762 31.0698 41.5762H33.283C33.6458 41.5762 33.9522 41.2698 33.9522 40.907V40.2376H30.4006V40.907ZM35.7012 36.8267H28.6515V37.496C28.6515 37.8588 28.9581 38.1652 29.3208 38.1652H35.032C35.3948 38.1652 35.7012 37.8588 35.7012 37.496V36.8267ZM24.7858 31.96C23.1744 33.7485 22.277 36.0593 22.277 38.5285C22.277 43.9556 26.6922 48.3709 32.1194 48.3709C37.5465 48.3709 41.9617 43.9556 41.9617 38.5285C41.9617 36.0593 41.0642 33.7484 39.4528 31.9598C39.4415 32.1083 39.4311 32.259 39.4219 32.4136V34.0854C39.4219 35.2085 38.7423 36.1748 37.7734 36.5981V37.4963C37.7734 38.6576 37.0463 39.6502 36.0245 40.049V40.9073C36.0245 42.419 34.7946 43.6487 33.283 43.6487H31.0698C29.5581 43.6487 28.3284 42.4188 28.3284 40.9073V40.049C27.3065 39.6502 26.5794 38.6576 26.5794 37.4963V36.643C25.5506 36.2478 24.817 35.2518 24.817 34.0855V32.4148C24.8077 32.2597 24.7972 32.1086 24.7858 31.96ZM36.3704 19.788C37.1438 19.788 37.773 19.1588 37.773 18.3854C37.773 17.6119 37.1438 16.9828 36.3704 16.9828C35.5969 16.9828 34.9678 17.6119 34.9678 18.3854V19.788H36.3704ZM49.4283 41.7815L52.2765 40.6852V36.3717L49.4292 35.2758C49.1105 35.1531 48.8726 34.881 48.7935 34.5487C48.3734 32.7834 47.6768 31.1031 46.7231 29.5544C46.5439 29.2635 46.5197 28.9028 46.6583 28.5905L47.8975 25.8002L44.8473 22.7501L42.079 23.9796C41.9844 24.1442 41.8886 24.3083 41.7921 24.4732C41.0331 25.7701 40.2558 27.1005 39.7912 29.4126C42.4953 31.6835 44.0338 34.9701 44.0338 38.5284C44.0338 45.0981 38.6889 50.443 32.1192 50.443C25.5495 50.443 20.2046 45.0981 20.2046 38.5284C20.2046 34.9702 21.7431 31.6836 24.4472 29.4127C23.9827 27.1005 23.2053 25.77 22.4464 24.473C22.3517 24.3113 22.2556 24.1463 22.1602 23.9799L19.391 22.75L16.341 25.8002L17.5806 28.5912C17.7193 28.9034 17.695 29.264 17.5158 29.555C16.5619 31.1039 15.8654 32.7839 15.4458 34.5482C15.3668 34.8805 15.1289 35.1526 14.81 35.2752L11.9621 36.3714V40.685L14.8094 41.781C15.1282 41.9036 15.366 42.1756 15.4451 42.5081C15.8653 44.2736 16.5618 45.9539 17.5154 47.5022C17.6947 47.7933 17.7189 48.1538 17.5802 48.4661L16.341 51.2564L19.3912 54.3065L22.1826 53.0668C22.4947 52.9281 22.8553 52.9522 23.1463 53.1314C24.6954 54.0852 26.3752 54.7817 28.1392 55.2014C28.4715 55.2806 28.7435 55.5183 28.8661 55.8372L29.9624 58.6853H34.276L35.372 55.8381C35.4946 55.5193 35.7667 55.2815 36.0991 55.2023C37.8643 54.7823 39.5446 54.0858 41.0931 53.1321C41.3841 52.9528 41.7446 52.9286 42.0569 53.0673L44.8473 54.3065L47.8974 51.2563L46.6576 48.465C46.5189 48.1528 46.5432 47.7922 46.7224 47.5013C47.6761 45.9523 48.3725 44.2724 48.7924 42.5084C48.8718 42.1762 49.1096 41.9041 49.4283 41.7815Z" fill="#001A3D" stroke="white" stroke-width="0.4" mask="url(#path-1-inside-1_3060_1465)"/>
</svg>
