<svg width="69" height="61" viewBox="0 0 69 61" fill="none" xmlns="http://www.w3.org/2000/svg">
<path d="M28.471 11.571C26.811 11.4148 25.157 11.9244 23.8727 12.9878C22.5884 14.0511 21.7792 15.5811 21.6229 17.2411C21.4667 18.9011 21.9763 20.5551 23.0397 21.8394C24.103 23.1237 25.633 23.9329 27.293 24.0892C27.4924 24.108 27.6902 24.1174 27.8866 24.1172C29.5024 24.1157 31.0556 23.4923 32.2239 22.3761C33.3922 21.26 34.0859 19.7368 34.1611 18.1228C34.2363 16.5088 33.6872 14.9277 32.6277 13.7078C31.5682 12.4879 30.0797 11.7227 28.471 11.571ZM31.9948 18.2172C31.9198 19.0141 31.6149 19.772 31.1171 20.3988C30.6194 21.0256 29.9503 21.4944 29.1912 21.748C28.432 22.0017 27.6155 22.0293 26.841 21.8276C26.0664 21.6259 25.3671 21.2035 24.8281 20.6118C24.2891 20.0201 23.9336 19.2846 23.8048 18.4946C23.6761 17.7046 23.7795 16.8943 24.1027 16.162C24.4259 15.4298 24.9548 14.8072 25.6252 14.3699C26.2956 13.9326 27.0786 13.6996 27.879 13.699C28.008 13.699 28.1383 13.705 28.2691 13.7173C29.3593 13.8213 30.3638 14.3535 31.0622 15.197C31.7606 16.0406 32.096 17.1267 31.9948 18.2172ZM47.3231 6.54842H52.5062C52.7706 7.67373 53.4393 8.66263 54.3853 9.32705C55.3312 9.99147 56.4883 10.2851 57.6366 10.152C58.7848 10.0189 59.8442 9.46846 60.6131 8.60531C61.3819 7.74216 61.8068 6.62653 61.8068 5.47057C61.8068 4.31462 61.3819 3.19898 60.6131 2.33583C59.8442 1.47268 58.7848 0.922229 57.6366 0.789156C56.4883 0.656083 55.3312 0.949673 54.3853 1.61409C53.4393 2.27851 52.7706 3.26741 52.5062 4.39273H47.3231C46.6901 4.39347 46.0832 4.64529 45.6355 5.09294C45.1879 5.54059 44.9361 6.14751 44.9354 6.78056V16.7523H41.5133L41.5064 15.7493C41.5047 15.5041 41.4195 15.2668 41.2649 15.0766C41.1102 14.8863 40.8953 14.7545 40.6556 14.7029L38.1347 14.1602C37.9982 13.7793 37.8404 13.4063 37.6622 13.043L39.0315 10.8571C39.1617 10.6493 39.2172 10.4034 39.1887 10.1598C39.1603 9.91626 39.0497 9.68968 38.8751 9.51748L36.0444 6.72505C35.8698 6.55282 35.6417 6.44527 35.3978 6.42017C35.1538 6.39506 34.9086 6.45389 34.7026 6.58695L32.5356 7.98613C32.1699 7.8128 31.7948 7.66009 31.4121 7.52872L30.835 5.01572C30.7804 4.7779 30.6468 4.56564 30.4559 4.41365C30.265 4.26167 30.0281 4.17896 29.7841 4.17904H29.7767L25.8005 4.20599C25.5553 4.20764 25.318 4.29285 25.1278 4.44756C24.9375 4.60227 24.8057 4.81723 24.7541 5.05695L24.2115 7.57776C23.8306 7.71426 23.4576 7.87201 23.0943 8.05026L20.9089 6.68126C20.7011 6.55112 20.4551 6.49571 20.2116 6.52417C19.9681 6.55263 19.7416 6.66327 19.5694 6.83782L16.7769 9.66852C16.6048 9.84308 16.4973 10.0711 16.4722 10.315C16.4471 10.5589 16.5059 10.8041 16.6388 11.01L18.0379 13.1772C17.8646 13.5429 17.712 13.918 17.5806 14.3007L15.0675 14.8776C14.8285 14.9325 14.6154 15.0672 14.4633 15.2595C14.3113 15.4518 14.2293 15.6902 14.2309 15.9354L14.2579 19.9117C14.2596 20.1569 14.3448 20.3942 14.4995 20.5844C14.6542 20.7746 14.8691 20.9064 15.1088 20.958L17.6295 21.5007C17.7661 21.8816 17.9239 22.2546 18.102 22.6179L16.7325 24.8038C16.6023 25.0116 16.5468 25.2575 16.5753 25.5011C16.6037 25.7446 16.7143 25.9712 16.8889 26.1434L19.7196 28.9358C19.8942 29.108 20.1222 29.2156 20.3661 29.2407C20.6101 29.2659 20.8553 29.2071 21.0613 29.0741L23.2283 27.6747C23.594 27.848 23.9691 28.0007 24.3518 28.1322L24.9288 30.6452C24.9834 30.883 25.1171 31.0952 25.308 31.2472C25.4989 31.3992 25.7357 31.4819 25.9797 31.4818H25.9871L29.9635 31.4549C30.2086 31.4532 30.4459 31.368 30.6361 31.2133C30.8263 31.0586 30.9581 30.8437 31.0098 30.6041L31.5525 28.0834C31.9334 27.9468 32.3064 27.789 32.6697 27.6108L34.8549 28.9792C35.0626 29.1094 35.3086 29.1649 35.5522 29.1364C35.7957 29.108 36.0223 28.9974 36.1945 28.8228L38.9868 25.9921C39.159 25.8175 39.2666 25.5895 39.2917 25.3456C39.3168 25.1016 39.258 24.8564 39.125 24.6504L37.7258 22.4834C37.8991 22.1178 38.0518 21.7427 38.1831 21.3599L40.6962 20.783C40.9352 20.7281 41.1484 20.5934 41.3005 20.4011C41.4526 20.2088 41.5346 19.9703 41.5329 19.7251L41.5273 18.9077H44.9354V28.8795C44.9361 29.5125 45.1879 30.1195 45.6355 30.5671C46.0832 31.0147 46.6901 31.2665 47.3231 31.2672H52.5062C52.7706 32.3925 53.4393 33.3814 54.3853 34.0458C55.3312 34.7103 56.4883 35.0039 57.6366 34.8708C58.7848 34.7377 59.8442 34.1873 60.6131 33.3241C61.3819 32.461 61.8068 31.3453 61.8068 30.1894C61.8068 29.0334 61.3819 27.9178 60.6131 27.0546C59.8442 26.1915 58.7848 25.641 57.6366 25.5079C56.4883 25.3749 55.3312 25.6685 54.3853 26.3329C53.4393 26.9973 52.7706 27.9862 52.5062 29.1115H47.3231C47.2618 29.1107 47.2033 29.0861 47.1599 29.0427C47.1166 28.9994 47.0919 28.9408 47.0911 28.8795V18.9079H52.5062C52.7706 20.0333 53.4393 21.0222 54.3853 21.6866C55.3312 22.351 56.4883 22.6446 57.6366 22.5115C58.7848 22.3784 59.8442 21.828 60.6131 20.9648C61.3819 20.1017 61.8068 18.9861 61.8068 17.8301C61.8068 16.6741 61.3819 15.5585 60.6131 14.6954C59.8442 13.8322 58.7848 13.2818 57.6366 13.1487C56.4883 13.0156 55.3312 13.3092 54.3853 13.9736C53.4393 14.638 52.7706 15.6269 52.5062 16.7523H47.0911V6.78056C47.0919 6.71925 47.1166 6.66067 47.1599 6.61731C47.2032 6.57394 47.2618 6.54922 47.3231 6.54842ZM57.0933 2.91352C57.599 2.91352 58.0934 3.0635 58.514 3.34449C58.9345 3.62548 59.2623 4.02487 59.4558 4.49214C59.6493 4.95942 59.7 5.47359 59.6013 5.96964C59.5026 6.46569 59.2591 6.92134 58.9014 7.27896C58.5438 7.63658 58.0881 7.88012 57.5921 7.97878C57.096 8.07743 56.5818 8.02677 56.1146 7.8332C55.6473 7.63964 55.2479 7.31185 54.967 6.89131C54.686 6.47076 54.536 5.97634 54.5361 5.47057C54.5368 4.79261 54.8065 4.14262 55.2859 3.66324C55.7653 3.18386 56.4153 2.91423 57.0933 2.91352ZM37.0966 19.3981C36.9072 19.4416 36.733 19.5355 36.5926 19.6699C36.4522 19.8043 36.3507 19.9741 36.2989 20.1615C36.119 20.811 35.8641 21.4374 35.5393 22.0279C35.4457 22.1983 35.3998 22.3908 35.4067 22.5852C35.4136 22.7795 35.4729 22.9683 35.5784 23.1316L36.8448 25.0938L35.2671 26.6938L33.2878 25.4542C33.123 25.3509 32.9332 25.2941 32.7387 25.2898C32.5442 25.2856 32.3522 25.3341 32.183 25.4301C31.5969 25.7629 30.974 26.0264 30.327 26.2152C30.1403 26.2696 29.9718 26.3734 29.8394 26.5157C29.707 26.658 29.6155 26.8335 29.5746 27.0236L29.0834 29.3054L26.836 29.3208L26.3136 27.0458C26.2701 26.8564 26.1762 26.6822 26.0419 26.5418C25.9075 26.4014 25.7377 26.2999 25.5503 26.2481C24.9008 26.0682 24.2744 25.8132 23.6838 25.4885C23.5134 25.3948 23.3209 25.349 23.1265 25.3559C22.9322 25.3628 22.7434 25.4221 22.5801 25.5275L20.6177 26.794L19.0178 25.2156L20.258 23.2363C20.3612 23.0716 20.418 22.882 20.4222 22.6876C20.4264 22.4932 20.378 22.3013 20.2821 22.1322C19.9493 21.546 19.6858 20.9231 19.4969 20.276C19.4425 20.0894 19.3387 19.9209 19.1964 19.7884C19.0541 19.656 18.8786 19.5645 18.6885 19.5237L16.4066 19.0324L16.3913 16.7851L18.6663 16.2628C18.8557 16.2193 19.0299 16.1254 19.1703 15.991C19.3108 15.8566 19.4122 15.6867 19.464 15.4994C19.6439 14.8498 19.8988 14.2234 20.2236 13.6328C20.3173 13.4624 20.3631 13.2699 20.3562 13.0756C20.3493 12.8813 20.29 12.6925 20.1846 12.5291L18.9181 10.5669L20.4963 8.96697L22.4757 10.2065C22.6405 10.3098 22.8302 10.3667 23.0247 10.3709C23.2192 10.3752 23.4113 10.3267 23.5805 10.2306C24.1668 9.89781 24.7899 9.63439 25.4372 9.44567C25.6238 9.39128 25.7922 9.28743 25.9247 9.14512C26.0571 9.00281 26.1485 8.82734 26.1894 8.63728L26.6806 6.35548L28.9281 6.34012L29.4504 8.61505C29.4939 8.8045 29.5878 8.97866 29.7222 9.1191C29.8566 9.25953 30.0264 9.36101 30.2138 9.4128C30.8633 9.59268 31.4897 9.8476 32.0802 10.1724C32.2506 10.266 32.4431 10.3119 32.6375 10.305C32.8318 10.2981 33.0206 10.2388 33.1839 10.1333L35.1463 8.86687L36.7462 10.4452L35.5067 12.4246C35.4034 12.5894 35.3466 12.7792 35.3423 12.9737C35.3381 13.1682 35.3866 13.3602 35.4827 13.5294C35.8155 14.1155 36.079 14.7384 36.2678 15.3854C36.3222 15.572 36.426 15.7405 36.5683 15.8729C36.7106 16.0053 36.8861 16.0968 37.0762 16.1376L39.3581 16.629L39.3733 18.8764L37.0966 19.3981ZM57.0933 27.6326C57.599 27.6326 58.0934 27.7826 58.514 28.0635C58.9345 28.3445 59.2623 28.7439 59.4558 29.2112C59.6493 29.6785 59.7 30.1927 59.6013 30.6887C59.5026 31.1848 59.2591 31.6404 58.9014 31.998C58.5438 32.3556 58.0881 32.5992 57.5921 32.6978C57.096 32.7965 56.5818 32.7458 56.1146 32.5523C55.6473 32.3587 55.2479 32.0309 54.967 31.6104C54.686 31.1898 54.536 30.6954 54.5361 30.1896C54.5368 29.5117 54.8065 28.8617 55.2859 28.3823C55.7653 27.9029 56.4153 27.6333 57.0933 27.6326ZM57.0933 15.273C57.599 15.273 58.0934 15.423 58.514 15.704C58.9345 15.985 59.2623 16.3844 59.4558 16.8517C59.6493 17.3189 59.7 17.8331 59.6013 18.3292C59.5026 18.8252 59.2591 19.2809 58.9014 19.6385C58.5438 19.9961 58.0881 20.2397 57.5921 20.3383C57.096 20.437 56.5818 20.3863 56.1146 20.1927C55.6473 19.9992 55.2479 19.6714 54.967 19.2508C54.686 18.8303 54.536 18.3359 54.5361 17.8301C54.5368 17.1521 54.8065 16.5022 55.2859 16.0228C55.7653 15.5434 56.4153 15.2738 57.0933 15.273ZM64.8148 38.9172C64.7253 38.923 64.6368 38.9401 64.5515 38.968L47.213 44.6308C47.1315 43.8424 46.8617 43.0853 46.4263 42.4231C46.3102 42.2468 46.1449 42.1085 45.9509 42.0253L28.5167 34.5536C27.7923 34.2344 27.0089 34.0707 26.2173 34.073C25.4256 34.0753 24.6432 34.2436 23.9206 34.567L16.4765 37.81V37.1811C16.4759 36.6141 16.2504 36.0705 15.8495 35.6696C15.4486 35.2687 14.905 35.0432 14.3381 35.0425H2.13858C1.57155 35.0431 1.02792 35.2687 0.62699 35.6697C0.226059 36.0707 0.000570563 36.6143 0 37.1814L0 57.6553C0.000641876 58.2223 0.226162 58.7659 0.627085 59.1668C1.02801 59.5677 1.57159 59.7933 2.13858 59.7939H14.3382C14.9052 59.7933 15.4487 59.5677 15.8496 59.1668C16.2505 58.7659 16.476 58.2223 16.4766 57.6553V55.8568L23.7784 53.9179C23.9023 53.8805 24.0329 53.8711 24.1609 53.8903C24.2889 53.9094 24.4111 53.9567 24.5186 54.0288L33.8983 59.8656C34.7414 60.404 35.7119 60.7101 36.7114 60.7527C37.7109 60.7953 38.7039 60.5729 39.5898 60.1081L67.3918 45.9384C67.4658 45.9007 67.5351 45.8546 67.5985 45.801C68.2269 45.2696 68.6716 44.5534 68.8691 43.7544C69.0667 42.9555 69.007 42.1145 68.6985 41.3515C68.3901 40.5885 67.8486 39.9423 67.1514 39.505C66.4542 39.0677 65.6367 38.8617 64.8155 38.9163L64.8148 38.9172ZM14.3209 57.6382H2.15569V37.1985H14.3209V57.6382ZM66.2876 44.0825L38.6103 58.1888C38.0554 58.4852 37.4311 58.6274 36.8026 58.6005C36.174 58.5737 35.5642 58.3789 35.0365 58.0363L25.6576 52.1999C25.3001 51.9726 24.8989 51.8227 24.48 51.7601C24.061 51.6974 23.6335 51.7233 23.2252 51.8362L16.4766 53.6281V40.1619L24.7818 36.5438C25.234 36.3351 25.7258 36.2264 26.2238 36.2249C26.7218 36.2234 27.2142 36.3292 27.6676 36.5352L44.7771 43.8679C45.0032 44.3069 45.1093 44.7978 45.0847 45.2909C45.0601 45.784 44.9057 46.2619 44.6371 46.6762C44.3685 47.0905 43.9952 47.4265 43.5551 47.6503C43.1149 47.874 42.6235 47.9775 42.1305 47.9502L33.5402 44.2689C33.2782 44.1607 32.9842 44.16 32.7217 44.267C32.4593 44.374 32.2495 44.5801 32.1379 44.8406C32.0263 45.1012 32.0218 45.3952 32.1254 45.659C32.229 45.9228 32.4323 46.1352 32.6913 46.2502L41.4421 50.0006C41.5404 50.0426 41.6443 50.0698 41.7505 50.0814C42.6855 50.1804 43.6294 50.0126 44.4731 49.5975C45.3167 49.1823 46.0255 48.5368 46.5176 47.7356C46.6595 47.5031 46.7818 47.2592 46.8834 47.0065L65.077 41.0648C65.4265 41.0656 65.7677 41.1707 66.057 41.3668C66.3463 41.5628 66.5703 41.8409 66.7004 42.1652C66.8306 42.4896 66.8608 42.8454 66.7872 43.187C66.7136 43.5287 66.5396 43.8405 66.2876 44.0825ZM9.05391 40.4265V40.3086C9.05391 40.0227 9.16747 39.7486 9.3696 39.5464C9.57174 39.3443 9.84589 39.2307 10.1318 39.2307C10.4176 39.2307 10.6918 39.3443 10.8939 39.5464C11.096 39.7486 11.2096 40.0227 11.2096 40.3086V40.4265C11.2096 40.7123 11.096 40.9865 10.8939 41.1886C10.6918 41.3908 10.4176 41.5043 10.1318 41.5043C9.84589 41.5043 9.57174 41.3908 9.3696 41.1886C9.16747 40.9865 9.05391 40.7123 9.05391 40.4265Z" fill="#001A3D"/>
</svg>
