<svg width="62" height="62" viewBox="0 0 62 62" fill="none" xmlns="http://www.w3.org/2000/svg">
<circle cx="31" cy="31" r="31" fill="#2920D2"/>
<path d="M31.2803 23.0938C29.6362 23.0938 28.0291 23.5813 26.6621 24.4947C25.2951 25.408 24.2297 26.7063 23.6005 28.2252C22.9714 29.7441 22.8068 31.4155 23.1275 33.0279C23.4482 34.6404 24.2399 36.1216 25.4025 37.2841C26.565 38.4466 28.0461 39.2383 29.6586 39.559C31.2711 39.8798 32.9424 39.7152 34.4613 39.086C35.9802 38.4568 37.2785 37.3914 38.1919 36.0244C39.1053 34.6574 39.5928 33.0503 39.5928 31.4063C39.5903 29.2024 38.7137 27.0895 37.1554 25.5312C35.597 23.9728 33.4841 23.0962 31.2803 23.0938ZM32.5466 35.604V38.4119C31.7091 38.5711 30.8491 38.571 30.0116 38.4115V35.604C30.0116 35.493 29.9806 35.3843 29.9219 35.2901C29.8633 35.1959 29.7795 35.1201 29.6799 35.0711C29.1164 34.7969 28.6328 34.3823 28.2757 33.8672C27.9185 33.3521 27.6999 32.7539 27.6407 32.1299C27.5816 31.5059 27.6839 30.8772 27.9378 30.3042C28.1918 29.7312 28.5888 29.2331 29.0908 28.8579V32C29.0908 32.078 29.1061 32.1552 29.136 32.2272C29.1658 32.2993 29.2095 32.3648 29.2647 32.4199C29.3198 32.475 29.3853 32.5188 29.4573 32.5486C29.5294 32.5784 29.6066 32.5938 29.6846 32.5938H32.8731C32.9511 32.5938 33.0283 32.5784 33.1003 32.5486C33.1724 32.5188 33.2378 32.475 33.293 32.4199C33.3481 32.3648 33.3918 32.2993 33.4217 32.2272C33.4515 32.1552 33.4669 32.078 33.4668 32V28.8512C33.9706 29.226 34.3693 29.7243 34.6244 30.2981C34.8796 30.8719 34.9825 31.5017 34.9234 32.1268C34.8642 32.7519 34.645 33.3513 34.2867 33.867C33.9285 34.3827 33.4434 34.7974 32.8783 35.0711C32.7788 35.1201 32.6949 35.1959 32.6363 35.2901C32.5777 35.3843 32.5466 35.493 32.5466 35.604ZM33.7341 38.0867V35.9579C34.5147 35.5006 35.1514 34.8337 35.5721 34.0327C35.9928 33.2318 36.1805 32.3291 36.114 31.4268C36.0476 30.5246 35.7295 29.6591 35.196 28.9285C34.6625 28.1979 33.9349 27.6315 33.0957 27.2935C33.0056 27.257 32.9079 27.2433 32.8113 27.2534C32.7146 27.2635 32.6219 27.2972 32.5412 27.3516C32.4606 27.4059 32.3946 27.4792 32.3489 27.565C32.3033 27.6508 32.2794 27.7465 32.2793 27.8438V31.4063H30.2783V27.8496C30.2783 27.7523 30.2544 27.6566 30.2087 27.5708C30.1631 27.485 30.097 27.4117 30.0164 27.3574C29.9358 27.3031 29.8431 27.2693 29.7464 27.2592C29.6497 27.2491 29.552 27.2628 29.4619 27.2993C28.6243 27.6381 27.8983 28.2045 27.366 28.9346C26.8337 29.6647 26.5164 30.5292 26.45 31.4302C26.3836 32.3313 26.5708 33.233 26.9904 34.0332C27.41 34.8334 28.0452 35.5001 28.8241 35.9579V38.0858C27.2532 37.5089 25.9355 36.3976 25.102 34.9465C24.2684 33.4954 23.9722 31.7972 24.2654 30.1496C24.5585 28.502 25.4221 27.0101 26.705 25.9356C27.9878 24.861 29.608 24.2722 31.2815 24.2725C32.9549 24.2728 34.5749 24.8621 35.8574 25.9371C37.1399 27.0121 38.003 28.5043 38.2956 30.152C38.5881 31.7997 38.2914 33.4977 37.4573 34.9486C36.6233 36.3994 35.3052 37.5103 33.7341 38.0867Z" fill="white"/>
<path d="M41.6454 34.6985C41.6752 34.5836 41.7413 34.4815 41.8339 34.4073C41.9265 34.3332 42.0406 34.2909 42.1591 34.2868H42.9303C43.0681 34.2868 43.2015 34.2389 43.3078 34.1513C43.4141 34.0637 43.4867 33.9419 43.513 33.8067C43.8277 32.2224 43.8277 30.5917 43.513 29.0074C43.4867 28.8722 43.4141 28.7504 43.3078 28.6628C43.2015 28.5752 43.0681 28.5273 42.9303 28.5273H42.1591C42.0406 28.5232 41.9266 28.481 41.834 28.4068C41.7414 28.3327 41.6753 28.2307 41.6454 28.1159C41.4579 27.5273 41.2204 26.9557 40.9357 26.4074C40.8753 26.305 40.8498 26.1858 40.8628 26.0676C40.8759 25.9495 40.9269 25.8387 41.0082 25.7519L41.5567 25.2037C41.6541 25.1062 41.7145 24.9779 41.7277 24.8408C41.741 24.7037 41.7061 24.5662 41.6292 24.4519C40.7285 23.1114 39.5759 21.9587 38.2354 21.0579C38.1211 20.9811 37.9837 20.9465 37.8466 20.9597C37.7096 20.973 37.5814 21.0334 37.4839 21.1306L36.9354 21.6792C36.8485 21.7603 36.7377 21.8113 36.6196 21.8243C36.5014 21.8374 36.3821 21.8119 36.2796 21.7516C35.7315 21.4668 35.16 21.2294 34.5714 21.0419C34.4567 21.0121 34.3546 20.9459 34.2805 20.8533C34.2064 20.7608 34.1643 20.6467 34.1603 20.5282V19.757C34.1603 19.6193 34.1125 19.4858 34.0249 19.3795C33.9373 19.2731 33.8154 19.2006 33.6802 19.1743C32.0956 18.8612 30.465 18.8612 28.8803 19.1743C28.7451 19.2006 28.6233 19.2731 28.5357 19.3795C28.4481 19.4858 28.4002 19.6193 28.4002 19.757V20.5282C28.3962 20.6467 28.3541 20.7608 28.28 20.8533C28.2059 20.9459 28.1039 21.0121 27.9891 21.0419C27.4005 21.2294 26.829 21.4668 26.2809 21.7516C26.1784 21.8119 26.0591 21.8373 25.941 21.8243C25.8228 21.8112 25.712 21.7603 25.6251 21.6792L25.0766 21.1306C24.9791 21.0334 24.8509 20.973 24.7139 20.9597C24.5768 20.9464 24.4394 20.9811 24.3251 21.0579C22.9846 21.9586 21.832 23.1114 20.9313 24.4519C20.8544 24.5662 20.8195 24.7037 20.8328 24.8408C20.846 24.9779 20.9065 25.1062 21.0038 25.2037L21.5524 25.7516C21.6336 25.8385 21.6846 25.9494 21.6977 26.0676C21.7107 26.1859 21.6852 26.3052 21.6248 26.4077C21.3402 26.9558 21.1027 27.5272 20.9151 28.1156C20.8853 28.2305 20.8192 28.3326 20.7266 28.4068C20.634 28.4809 20.5199 28.5232 20.4014 28.5273H19.6303C19.4925 28.5273 19.3591 28.5752 19.2527 28.6628C19.1464 28.7504 19.0739 28.8722 19.0475 29.0074C18.7329 30.5917 18.7329 32.2224 19.0475 33.8067C19.0739 33.9419 19.1464 34.0637 19.2527 34.1513C19.3591 34.2389 19.4925 34.2868 19.6303 34.2868H20.4014C20.5199 34.2909 20.634 34.3331 20.7266 34.4073C20.8191 34.4814 20.8853 34.5834 20.9152 34.6982C21.1027 35.2867 21.3401 35.858 21.6249 36.4061C21.6852 36.5086 21.7108 36.6279 21.6977 36.7462C21.6847 36.8644 21.6337 36.9753 21.5524 37.0622L21.0039 37.6104C20.9065 37.7079 20.846 37.8362 20.8328 37.9733C20.8196 38.1104 20.8544 38.2479 20.9314 38.3622C21.8321 39.7027 22.9847 40.8555 24.3252 41.7562C24.4394 41.8333 24.5768 41.8681 24.714 41.8548C24.8511 41.8416 24.9793 41.781 25.0766 41.6835L25.6252 41.1349C25.7121 41.054 25.8229 41.0032 25.941 40.9901C26.0592 40.977 26.1784 41.0024 26.2809 41.0625C26.8291 41.3473 27.4006 41.5847 27.9892 41.7722C28.1039 41.802 28.2059 41.8682 28.28 41.9608C28.3541 42.0534 28.3963 42.1674 28.4003 42.2859V43.0571C28.4003 43.1948 28.4482 43.3283 28.5358 43.4346C28.6233 43.5409 28.7452 43.6135 28.8804 43.6398C30.4649 43.9545 32.0958 43.9545 33.6802 43.6398C33.8154 43.6135 33.9373 43.5409 34.0249 43.4346C34.1124 43.3283 34.1603 43.1948 34.1604 43.0571V42.2859C34.1643 42.1674 34.2065 42.0533 34.2806 41.9607C34.3547 41.8682 34.4567 41.802 34.5715 41.7722C35.16 41.5847 35.7315 41.3472 36.2797 41.0624C36.3822 41.0024 36.5014 40.977 36.6196 40.99C36.7377 41.0031 36.8485 41.0539 36.9355 41.1349L37.484 41.6834C37.5814 41.7808 37.7096 41.8413 37.8467 41.8546C37.9837 41.8678 38.1212 41.8331 38.2355 41.7562C39.5759 40.8554 40.7286 39.7027 41.6292 38.3622C41.7062 38.2479 41.741 38.1104 41.7278 37.9733C41.7146 37.8361 41.6541 37.7079 41.5567 37.6104L41.0082 37.0625C40.9269 36.9755 40.8759 36.8646 40.863 36.7462C40.85 36.6279 40.8757 36.5086 40.9363 36.4061C41.2207 35.858 41.4579 35.2868 41.6454 34.6985ZM40.5136 34.3387C40.3468 34.8623 40.1357 35.3708 39.8827 35.8587C39.7058 36.1852 39.6381 36.5598 39.6895 36.9275C39.741 37.2953 39.9089 37.6369 40.1686 37.9023L40.364 38.0971C39.6912 39.011 38.8842 39.8179 37.9704 40.4907L37.775 40.2953C37.5098 40.0356 37.1684 39.8676 36.8007 39.8161C36.4331 39.7645 36.0587 39.8321 35.7323 40.0089C35.2444 40.2622 34.7357 40.4735 34.2119 40.6403C33.857 40.7468 33.5455 40.9639 33.3226 41.2599C33.0997 41.5559 32.9772 41.9154 32.9728 42.2859V42.5578C31.8511 42.7312 30.7094 42.7312 29.5877 42.5578V42.2859C29.5834 41.9154 29.4609 41.5559 29.238 41.2599C29.0151 40.9639 28.7035 40.7468 28.3486 40.6403C27.8248 40.4735 27.3162 40.2622 26.8283 40.0089C26.5019 39.8322 26.1274 39.7647 25.7598 39.8162C25.3923 39.8678 25.0508 40.0357 24.7856 40.2953L24.5902 40.4904C23.6764 39.8177 22.8695 39.0108 22.1966 38.0971L22.392 37.902C22.6515 37.6366 22.8194 37.2952 22.871 36.9276C22.9226 36.5601 22.8554 36.1856 22.679 35.859C22.4251 35.3712 22.2137 34.8624 22.047 34.3384C21.9404 33.9835 21.7233 33.672 21.4273 33.4491C21.1313 33.2262 20.7719 33.1037 20.4014 33.0993H20.1295C19.9555 31.9778 19.9555 30.8363 20.1295 29.7148H20.4014C20.772 29.7104 21.1314 29.5878 21.4274 29.3649C21.7234 29.142 21.9405 28.8303 22.047 28.4754C22.2138 27.9514 22.4252 27.4427 22.679 26.9548C22.8553 26.6282 22.9226 26.2537 22.871 25.8862C22.8193 25.5186 22.6515 25.1772 22.392 24.9118L22.1966 24.7169C22.8695 23.8033 23.6764 22.9964 24.5902 22.3237L24.7856 22.5188C25.051 22.7782 25.3924 22.946 25.7599 22.9975C26.1274 23.049 26.5018 22.9817 26.8283 22.8052C27.3162 22.5519 27.8248 22.3406 28.3486 22.1738C28.7035 22.0672 29.0151 21.8502 29.238 21.5542C29.4609 21.2582 29.5834 20.8987 29.5877 20.5282V20.2563C30.7094 20.0829 31.8511 20.0829 32.9728 20.2563V20.5282C32.9772 20.8987 33.0997 21.2582 33.3226 21.5542C33.5455 21.8502 33.857 22.0672 34.2119 22.1738C34.7357 22.3406 35.2444 22.5519 35.7323 22.8052C36.0587 22.9818 36.4331 23.0492 36.8007 22.9977C37.1683 22.9461 37.5097 22.7783 37.775 22.5188L37.9704 22.3237C38.8842 22.9964 39.6911 23.8033 40.364 24.7169L40.1686 24.9121C39.9089 25.1773 39.741 25.5188 39.6895 25.8863C39.638 26.2539 39.7055 26.6284 39.8821 26.9548C40.1355 27.4428 40.3467 27.9515 40.5136 28.4754C40.6201 28.8303 40.8372 29.1421 41.1332 29.365C41.4292 29.5879 41.7886 29.7104 42.1591 29.7148H42.4311C42.605 30.8363 42.605 31.9778 42.4311 33.0993H42.1591C41.7886 33.1037 41.4291 33.2263 41.1332 33.4492C40.8372 33.6721 40.6201 33.9837 40.5136 34.3387Z" fill="white"/>
<path d="M46.8438 18.9375C46.8438 18.3503 46.6696 17.7764 46.3434 17.2882C46.0172 16.7999 45.5536 16.4194 45.0111 16.1947C44.4686 15.97 43.8717 15.9112 43.2958 16.0258C42.7199 16.1403 42.191 16.4231 41.7758 16.8383C41.3606 17.2535 41.0778 17.7824 40.9633 18.3583C40.8487 18.9342 40.9075 19.5311 41.1322 20.0736C41.3569 20.6161 41.7374 21.0797 42.2257 21.4059C42.7139 21.7321 43.2878 21.9063 43.875 21.9063C44.6621 21.9053 45.4167 21.5923 45.9732 21.0357C46.5298 20.4792 46.8428 19.7246 46.8438 18.9375ZM42.0938 18.9375C42.0938 18.5852 42.1982 18.2408 42.3939 17.9479C42.5897 17.655 42.8679 17.4267 43.1933 17.2918C43.5188 17.157 43.877 17.1217 44.2225 17.1905C44.568 17.2592 44.8854 17.4289 45.1345 17.678C45.3836 17.9271 45.5533 18.2445 45.622 18.59C45.6908 18.9355 45.6555 19.2937 45.5207 19.6192C45.3858 19.9446 45.1575 20.2228 44.8646 20.4186C44.5717 20.6143 44.2273 20.7188 43.875 20.7188C43.4027 20.7182 42.95 20.5304 42.616 20.1965C42.2821 19.8625 42.0943 19.4098 42.0938 18.9375Z" fill="white"/>
<path d="M21.9063 43.875C21.9063 43.2878 21.7321 42.7139 21.4059 42.2257C21.0797 41.7374 20.6161 41.3569 20.0736 41.1322C19.5311 40.9075 18.9342 40.8487 18.3583 40.9633C17.7824 41.0778 17.2535 41.3606 16.8383 41.7758C16.4231 42.191 16.1403 42.7199 16.0258 43.2958C15.9112 43.8717 15.97 44.4686 16.1947 45.0111C16.4194 45.5536 16.7999 46.0172 17.2882 46.3434C17.7764 46.6696 18.3503 46.8438 18.9375 46.8438C19.7246 46.8428 20.4792 46.5298 21.0357 45.9732C21.5923 45.4167 21.9053 44.6621 21.9063 43.875ZM17.1563 43.875C17.1563 43.5227 17.2607 43.1783 17.4564 42.8854C17.6522 42.5925 17.9304 42.3642 18.2558 42.2293C18.5813 42.0945 18.9395 42.0592 19.285 42.128C19.6305 42.1967 19.9479 42.3664 20.197 42.6155C20.4461 42.8646 20.6158 43.182 20.6845 43.5275C20.7533 43.873 20.718 44.2312 20.5832 44.5567C20.4483 44.8821 20.22 45.1603 19.9271 45.3561C19.6342 45.5518 19.2898 45.6563 18.9375 45.6563C18.4652 45.6557 18.0125 45.4679 17.6785 45.134C17.3446 44.8 17.1568 44.3473 17.1563 43.875Z" fill="white"/>
<path d="M16.4906 40.0152C14.5972 36.7321 13.8396 32.916 14.3352 29.1586C14.8309 25.4011 16.552 21.9121 19.232 19.2322C21.9119 16.5523 25.401 14.8311 29.1585 14.3356C32.9159 13.84 36.7319 14.5976 40.015 16.4911L40.61 15.4631C37.1004 13.4386 33.021 12.6284 29.0041 13.158C24.9872 13.6876 21.2573 15.5275 18.3923 18.3925C15.5274 21.2574 13.6876 24.9874 13.158 29.0043C12.6284 33.0212 13.4386 37.1006 15.4632 40.6102L16.4906 40.0152Z" fill="white"/>
<path d="M46.3221 22.7981C48.2147 26.08 48.9725 29.8945 48.4779 33.6507C47.9833 37.4069 46.264 40.8952 43.5863 43.5754C40.9086 46.2556 37.4219 47.9781 33.6661 48.4761C29.9104 48.9742 26.0952 48.22 22.8115 46.3303L22.2178 47.359C25.728 49.3794 29.8065 50.1859 33.8215 49.6536C37.8366 49.1213 41.564 47.28 44.4265 44.4147C47.2891 41.5494 49.1269 37.8202 49.6553 33.8047C50.1837 29.7891 49.3733 25.7114 47.3495 22.2031L46.3221 22.7981Z" fill="white"/>
</svg>
