<svg width="60" height="60" viewBox="0 0 60 60" fill="none" xmlns="http://www.w3.org/2000/svg">
<rect width="60" height="60" rx="4" fill="#2920D2"/>
<path d="M19.6663 23.5665C19.3054 22.7164 19.2046 21.7784 19.3768 20.871C19.549 19.9637 19.9864 19.1278 20.6336 18.469C21.2809 17.8103 22.109 17.3582 23.0132 17.1701C23.9174 16.982 24.8571 17.0663 25.7134 17.4123C26.5697 17.7582 27.3041 18.3504 27.8239 19.1138C28.3436 19.8772 28.6253 20.7776 28.6333 21.7011C28.6414 22.6246 28.3753 23.5297 27.8689 24.302C27.3624 25.0743 26.6383 25.6791 25.7882 26.0399C24.6482 26.5221 23.3635 26.5325 22.2159 26.0688C21.0683 25.6052 20.1514 24.7053 19.6663 23.5665ZM22.6655 18.6825C22.0604 18.9394 21.545 19.3699 21.1846 19.9197C20.8241 20.4694 20.6348 21.1137 20.6406 21.7711C20.6463 22.4285 20.8469 23.0694 21.2169 23.6128C21.5869 24.1561 22.1097 24.5776 22.7192 24.8239C23.3287 25.0701 23.9976 25.1301 24.6412 24.9962C25.2848 24.8623 25.8743 24.5405 26.335 24.0716C26.7958 23.6027 27.1071 23.0077 27.2297 22.3619C27.3523 21.716 27.2806 21.0483 27.0237 20.4432C26.6785 19.6324 26.0257 18.9917 25.2087 18.6616C24.3916 18.3316 23.477 18.3391 22.6655 18.6825Z" fill="white"/>
<path d="M21.7814 30.4882C21.077 30.2923 20.3893 30.0408 19.7248 29.7361C19.5168 29.6524 19.3427 29.5015 19.2305 29.3074C19.1182 29.1133 19.0742 28.8872 19.1054 28.6651L19.2933 27.3238C18.9782 27.0606 18.6861 26.771 18.4203 26.4581L17.1046 26.665C16.8833 26.7003 16.6564 26.6604 16.4604 26.5517C16.2644 26.4429 16.1105 26.2715 16.0234 26.065L15.3147 24.3979C15.2268 24.1913 15.2106 23.9611 15.2688 23.7442C15.3271 23.5274 15.4563 23.3362 15.6359 23.2014L16.7151 22.3863C16.679 21.9774 16.6776 21.5661 16.7111 21.157L15.6346 20.3737C15.4529 20.242 15.3206 20.0533 15.2587 19.8376C15.1968 19.622 15.2089 19.3918 15.293 19.1838L15.9722 17.5046C16.0553 17.296 16.2061 17.1215 16.4004 17.009C16.5948 16.8966 16.8213 16.8529 17.0435 16.8849L18.3848 17.0724C18.6479 16.7575 18.9373 16.4656 19.2499 16.1998L19.043 14.8844C19.0076 14.663 19.0475 14.4362 19.1562 14.2401C19.2649 14.044 19.4362 13.8899 19.6427 13.8026L21.3104 13.0948C21.517 13.007 21.7469 12.9909 21.9637 13.0489C22.1805 13.107 22.3716 13.236 22.5065 13.4154L23.3217 14.4949C23.7305 14.4589 24.1416 14.4574 24.5507 14.4906L25.3343 13.4141C25.4662 13.2326 25.655 13.1005 25.8707 13.0388C26.0864 12.9771 26.3165 12.9893 26.5245 13.0735L28.2041 13.7517C28.412 13.8355 28.5859 13.9864 28.698 14.1805C28.8101 14.3746 28.8541 14.6007 28.8228 14.8227L28.6356 16.1643C28.9507 16.4274 29.2427 16.7169 29.5086 17.0297L30.8236 16.8228C31.045 16.7879 31.2717 16.8281 31.4677 16.9368C31.6637 17.0455 31.8177 17.2165 31.9054 17.4228L32.6135 19.0902C32.701 19.2965 32.7172 19.5261 32.6593 19.7426C32.6015 19.9592 32.473 20.1502 32.2943 20.2853L31.2131 21.1011C31.2495 21.5102 31.251 21.9217 31.2177 22.3311L32.2943 23.1144C32.4757 23.2461 32.6079 23.4347 32.6696 23.6503C32.7314 23.8658 32.7193 24.0958 32.6352 24.3036L31.956 25.9835C31.8712 26.1909 31.7198 26.3642 31.5258 26.4763C31.3318 26.5883 31.106 26.6327 30.884 26.6026L29.544 26.4154C29.2807 26.7303 28.9911 27.0222 28.6783 27.288L28.8859 28.603C28.9208 28.8245 28.8807 29.0513 28.7719 29.2474C28.6631 29.4435 28.4919 29.5976 28.2855 29.6852L26.6178 30.393C26.4113 30.4812 26.1812 30.4976 25.9643 30.4395C25.7474 30.3813 25.5563 30.2521 25.4216 30.0724L24.6065 28.9929C24.1977 29.0289 23.7866 29.0304 23.3775 28.9971L22.5939 30.0737C22.5008 30.202 22.3786 30.3064 22.2374 30.3785C22.0962 30.4505 21.9399 30.4881 21.7814 30.4882ZM20.4742 28.5879L21.6618 29.0681L22.519 27.8904C22.5909 27.7921 22.688 27.7151 22.8 27.6675C22.9121 27.6198 23.0349 27.6033 23.1555 27.6197C23.7061 27.6963 24.2647 27.6945 24.8147 27.6145C24.9339 27.5979 25.0553 27.6132 25.1666 27.659C25.2778 27.7048 25.3749 27.7793 25.4479 27.8749L26.336 29.051L27.5157 28.5505L27.2884 27.1123C27.2696 26.9919 27.2838 26.8687 27.3295 26.7557C27.3752 26.6428 27.4507 26.5443 27.5479 26.4709C27.991 26.1355 28.3844 25.7391 28.7164 25.2935C28.7879 25.1961 28.8845 25.1201 28.996 25.0736C29.1075 25.0272 29.2295 25.012 29.349 25.0298L30.8085 25.2337L31.288 24.0461L30.1102 23.1893C30.0119 23.1176 29.9349 23.0205 29.8873 22.9085C29.8398 22.7965 29.8235 22.6736 29.8403 22.5531C29.9167 22.0024 29.9149 21.4437 29.835 20.8936C29.8176 20.7742 29.8326 20.6525 29.8784 20.5409C29.9241 20.4293 29.999 20.3321 30.0951 20.2594L31.2715 19.372L30.771 18.1926L29.3325 18.4192C29.2122 18.4382 29.0891 18.4242 28.9761 18.3786C28.8632 18.3331 28.7648 18.2576 28.6914 18.1605C28.3562 17.7174 27.9599 17.3239 27.5144 16.9919C27.4177 16.9199 27.3421 16.8232 27.2957 16.712C27.2492 16.6008 27.2335 16.4791 27.2503 16.3597L27.4539 14.8995L26.2663 14.4197L25.4092 15.5974C25.3375 15.6959 25.2404 15.7731 25.1283 15.8207C25.0162 15.8684 24.8933 15.8848 24.7727 15.8681C24.2221 15.7913 23.6635 15.7931 23.1135 15.8733C22.9943 15.8903 22.8727 15.875 22.7614 15.8292C22.6501 15.7835 22.553 15.7088 22.4803 15.6129L21.5922 14.4367L20.4132 14.9369L20.6398 16.3754C20.6585 16.4956 20.6444 16.6186 20.5988 16.7314C20.5532 16.8442 20.4779 16.9425 20.381 17.0159C19.9381 17.3516 19.5447 17.7481 19.2124 18.1936C19.1406 18.2906 19.0439 18.3663 18.9325 18.4128C18.8212 18.4594 18.6994 18.475 18.5799 18.458L17.1197 18.254L16.6402 19.4419L17.8173 20.2985C17.9158 20.37 17.9931 20.467 18.0407 20.5791C18.0884 20.6911 18.1047 20.814 18.0879 20.9346C18.0118 21.4854 18.0136 22.0442 18.0931 22.5945C18.1105 22.7137 18.0955 22.8353 18.0498 22.9467C18.004 23.0581 17.9292 23.1552 17.833 23.2277L16.6566 24.1161L17.1578 25.2948L18.5956 25.0685C18.7158 25.0496 18.8388 25.0636 18.9516 25.109C19.0643 25.1545 19.1627 25.2297 19.2361 25.3267C19.5719 25.7699 19.9686 26.1636 20.4145 26.4959C20.5112 26.5679 20.5867 26.6647 20.6332 26.7759C20.6797 26.8872 20.6953 27.009 20.6785 27.1284L20.4742 28.5879Z" fill="white"/>
<path d="M39.8748 24.9235C39.2458 24.9235 38.6309 24.7369 38.1078 24.3874C37.5848 24.038 37.1772 23.5412 36.9364 22.9601C36.6957 22.3789 36.6327 21.7394 36.7554 21.1225C36.8782 20.5055 37.1811 19.9388 37.6259 19.494C38.0707 19.0492 38.6374 18.7463 39.2543 18.6236C39.8713 18.5009 40.5108 18.5639 41.0919 18.8046C41.6731 19.0453 42.1698 19.453 42.5193 19.976C42.8688 20.499 43.0553 21.1139 43.0553 21.743C43.0544 22.5862 42.719 23.3946 42.1227 23.9909C41.5265 24.5871 40.718 24.9225 39.8748 24.9235ZM39.8748 19.9078C39.5118 19.9078 39.157 20.0154 38.8552 20.2171C38.5534 20.4187 38.3182 20.7053 38.1793 21.0407C38.0404 21.376 38.004 21.745 38.0748 22.101C38.1456 22.457 38.3204 22.7841 38.5771 23.0407C38.8338 23.2974 39.1608 23.4722 39.5168 23.543C39.8728 23.6138 40.2418 23.5775 40.5771 23.4385C40.9125 23.2996 41.1991 23.0644 41.4008 22.7626C41.6024 22.4608 41.7101 22.106 41.7101 21.743C41.7095 21.2564 41.516 20.7899 41.172 20.4459C40.8279 20.1018 40.3614 19.9083 39.8748 19.9078Z" fill="white"/>
<path d="M40.5061 28.4301H39.1983C38.994 28.4306 38.7956 28.3624 38.6348 28.2364C38.4741 28.1104 38.3604 27.9339 38.3122 27.7355L38.1 26.8898C37.8759 26.8125 37.6571 26.7206 37.4451 26.6146L36.7095 27.0556C36.5348 27.1611 36.3297 27.2047 36.1272 27.1797C35.9247 27.1546 35.7365 27.0622 35.5928 26.9174L34.6693 25.9935C34.5253 25.8498 34.4335 25.6621 34.4084 25.4602C34.3833 25.2583 34.4264 25.0538 34.5307 24.8792L34.982 24.1271C34.8779 23.9143 34.7881 23.6947 34.7133 23.4699L33.8805 23.2617C33.6828 23.2126 33.5074 23.0986 33.3821 22.9381C33.2569 22.7775 33.189 22.5796 33.1895 22.3759V21.0678C33.1891 20.8639 33.2571 20.6658 33.3826 20.5052C33.5081 20.3446 33.6839 20.2306 33.8818 20.1817L34.7298 19.9695C34.8072 19.7454 34.8992 19.5265 35.005 19.3143L34.5636 18.579C34.4588 18.4043 34.4154 18.1997 34.4402 17.9975C34.4651 17.7954 34.5569 17.6073 34.7009 17.4633L35.6257 16.5385C35.7697 16.3942 35.9578 16.3023 36.16 16.2774C36.3623 16.2525 36.5671 16.2961 36.7417 16.4012L37.4918 16.8511C37.705 16.7475 37.9246 16.6577 38.1493 16.5825L38.3575 15.7503C38.4068 15.5526 38.5208 15.3771 38.6814 15.2517C38.8419 15.1264 39.0399 15.0584 39.2436 15.0586H40.5514C40.7556 15.0581 40.9541 15.1263 41.1148 15.2523C41.2755 15.3783 41.3892 15.5548 41.4375 15.7532L41.6496 16.5989C41.8737 16.6762 42.0925 16.7681 42.3045 16.8741L43.0402 16.4331C43.215 16.3274 43.4203 16.2836 43.623 16.3089C43.8257 16.3341 44.014 16.4269 44.1575 16.5723L45.0804 17.4952C45.2243 17.6389 45.3162 17.8266 45.3413 18.0285C45.3664 18.2304 45.3233 18.4349 45.2189 18.6095L44.7677 19.3613C44.8717 19.5742 44.9615 19.7939 45.0363 20.0188L45.8692 20.227C46.0668 20.2761 46.2423 20.3901 46.3676 20.5507C46.4928 20.7112 46.5606 20.9091 46.5602 21.1128V22.4209C46.5606 22.6247 46.4926 22.8228 46.3671 22.9835C46.2415 23.1441 46.0658 23.258 45.8679 23.307L45.0206 23.5188C44.9431 23.7432 44.851 23.9622 44.7447 24.1744L45.1861 24.9097C45.2908 25.0844 45.3341 25.289 45.3092 25.4911C45.2844 25.6932 45.1927 25.8813 45.0488 26.0254L44.124 26.9502C43.9804 27.0939 43.793 27.1856 43.5915 27.2108C43.39 27.236 43.1858 27.1933 43.0112 27.0894L42.2572 26.6376C42.0444 26.7413 41.8249 26.8311 41.6004 26.9062L41.3921 27.7384C41.3429 27.9361 41.2289 28.1116 41.0683 28.2369C40.9077 28.3623 40.7098 28.4303 40.5061 28.4301ZM39.5359 27.0849H40.1691L40.3891 26.2063C40.4186 26.0883 40.4795 25.9804 40.5655 25.8943C40.6514 25.8081 40.7592 25.747 40.8772 25.7173C41.2492 25.6237 41.6062 25.4778 41.9373 25.2841C42.0415 25.2231 42.1601 25.1913 42.2807 25.192C42.4014 25.1927 42.5197 25.2259 42.6231 25.2881L43.4113 25.761L43.8593 25.3127L43.3929 24.536C43.3301 24.4315 43.2968 24.3119 43.2968 24.19C43.2968 24.068 43.3301 23.9484 43.3929 23.844C43.5902 23.5147 43.7399 23.1593 43.8376 22.7881C43.8681 22.6715 43.9293 22.5653 44.015 22.4805C44.1006 22.3958 44.2075 22.3356 44.3243 22.3063L45.215 22.0836V21.4501L44.3361 21.2304C44.2181 21.2007 44.1104 21.1395 44.0243 21.0535C43.9383 20.9674 43.8771 20.8597 43.8475 20.7417C43.7538 20.3695 43.6081 20.0125 43.4146 19.6812C43.3538 19.5771 43.322 19.4585 43.3227 19.3379C43.3234 19.2174 43.3565 19.0992 43.4185 18.9958L43.8908 18.2082L43.4428 17.7602L42.6664 18.2259C42.562 18.2887 42.4425 18.3219 42.3207 18.3219C42.1988 18.322 42.0793 18.2889 41.9748 18.2263C41.6456 18.0292 41.2902 17.8797 40.9192 17.7822C40.8027 17.7516 40.6966 17.6902 40.6119 17.6045C40.5272 17.5189 40.4671 17.412 40.4377 17.2952L40.2138 16.4038H39.5805L39.3605 17.2824C39.3311 17.4005 39.2701 17.5083 39.1842 17.5944C39.0982 17.6806 38.9905 17.7417 38.8725 17.7714C38.5004 17.865 38.1435 18.0109 37.8123 18.2046C37.7082 18.2656 37.5896 18.2974 37.4689 18.2967C37.3482 18.296 37.23 18.2628 37.1266 18.2006L36.3383 17.728L35.8904 18.176L36.3567 18.9527C36.4196 19.0572 36.4528 19.1768 36.4528 19.2987C36.4528 19.4206 36.4196 19.5402 36.3567 19.6447C36.1598 19.9739 36.0103 20.3293 35.9127 20.7003C35.8822 20.8168 35.821 20.9231 35.7353 21.0078C35.6497 21.0926 35.5429 21.1528 35.426 21.1821L34.5346 21.4051V22.0386L35.4135 22.2583C35.5315 22.288 35.6393 22.3491 35.7253 22.4352C35.8114 22.5212 35.8725 22.629 35.9022 22.747C35.996 23.1192 36.1417 23.4763 36.3351 23.8078C36.3959 23.9119 36.4276 24.0304 36.4269 24.1509C36.4263 24.2714 36.3932 24.3896 36.3311 24.4929L35.8589 25.2805L36.3068 25.7284L37.0832 25.2627C37.1876 25.2 37.3072 25.1668 37.429 25.1668C37.5508 25.1667 37.6704 25.1998 37.7749 25.2624C38.104 25.4595 38.4594 25.609 38.8304 25.7064C38.9469 25.7371 39.0531 25.7985 39.1378 25.8842C39.2224 25.9698 39.2826 26.0767 39.3119 26.1935L39.5359 27.0849Z" fill="white"/>
<path d="M46.7409 33.1668C46.3039 32.8337 45.7848 32.6253 45.2388 32.5637C44.6928 32.5021 44.1403 32.5896 43.6401 32.8171C43.6319 32.8212 37.805 35.7615 37.7968 35.7657C37.6668 35.392 37.4356 35.0617 37.1288 34.8118C36.822 34.5619 36.4518 34.4022 36.0596 34.3505C33.9757 34.202 29.6667 34.3419 29.5068 34.3485C28.7598 34.3485 28.8503 34.3207 23.6089 32.6972C22.0232 32.2047 21.3669 32.5064 16.1836 33.6226C16.1699 33.5072 16.1315 33.3961 16.071 33.2968C16.0105 33.1976 15.9293 33.1126 15.8329 33.0476C15.7365 32.9826 15.6272 32.9392 15.5125 32.9203C15.3979 32.9014 15.2804 32.9075 15.1683 32.9381L12.5989 33.6107C12.3921 33.6662 12.2158 33.8015 12.1086 33.9869C12.0014 34.1722 11.9721 34.3926 12.0272 34.5995L14.7715 45.025C14.7976 45.1284 14.844 45.2256 14.908 45.3109C14.9721 45.3961 15.0525 45.4678 15.1445 45.5216C15.2366 45.5755 15.3384 45.6105 15.4441 45.6245C15.5498 45.6386 15.6573 45.6314 15.7602 45.6035L18.3296 44.9241C18.4322 44.8969 18.5283 44.8497 18.6126 44.7852C18.6969 44.7208 18.7676 44.6403 18.8207 44.5484C18.8739 44.4566 18.9083 44.3552 18.9221 44.2499C18.936 44.1447 18.9289 44.0378 18.9013 43.9354L18.7601 43.3906C19.1105 43.3572 30.691 45.8599 31.0353 45.9331C31.7734 46.0922 32.5443 45.9674 33.1944 45.5833L48.0189 36.5568C50.3774 35.1874 47.4146 33.6908 46.7409 33.1668ZM15.8493 43.8387L13.546 35.1011C13.5347 35.0582 13.532 35.0136 13.538 34.9697C13.544 34.9258 13.5586 34.8836 13.581 34.8453C13.6034 34.8071 13.6331 34.7737 13.6685 34.747C13.7038 34.7203 13.7441 34.7008 13.787 34.6897L14.6691 34.4615C14.7552 34.4392 14.8467 34.4519 14.9234 34.4969C15.0002 34.5419 15.056 34.6155 15.0786 34.7016C17.4251 43.6302 17.3759 43.4353 17.3759 43.4353C17.3872 43.478 17.39 43.5225 17.384 43.5663C17.3781 43.6101 17.3637 43.6523 17.3415 43.6904C17.3193 43.7286 17.2897 43.7621 17.2546 43.7888C17.2195 43.8156 17.1794 43.8352 17.1367 43.8465L16.2605 44.0781C16.2177 44.0894 16.1732 44.0921 16.1294 44.0862C16.0857 44.0803 16.0435 44.0658 16.0053 44.0436C15.9671 44.0213 15.9337 43.9918 15.9069 43.9566C15.8802 43.9215 15.8606 43.8814 15.8493 43.8387ZM46.9696 35.5949C44.5751 37.0949 32.4546 44.4129 32.4546 44.4129C32.1168 44.6074 31.719 44.6697 31.338 44.5878C18.5296 41.8733 19.164 41.9327 18.4036 42.0453L16.527 34.9291L16.526 34.9249C21.752 33.799 22.0412 33.6196 23.2109 33.982C28.4464 35.6038 28.5017 35.6931 29.5252 35.6931H29.5288C29.5722 35.6924 33.9209 35.493 35.9203 35.6892C36.8877 35.784 36.8282 37.6312 35.8126 37.9382C33.8998 38.5162 28.535 38.2568 26.5362 38.128C26.3589 38.118 26.1849 38.1784 26.052 38.2962C25.9191 38.4139 25.8382 38.5795 25.8268 38.7566C25.8155 38.9338 25.8746 39.1083 25.9914 39.2421C26.1082 39.3758 26.2731 39.458 26.4502 39.4706C35.1066 40.0197 37.3871 39.3005 37.9263 37.2417C37.9883 37.2259 44.2018 34.0769 44.2589 34.048C44.5187 33.9338 44.8044 33.8916 45.0861 33.9259C45.3678 33.9603 45.635 34.0698 45.8598 34.243C46.2241 34.5233 46.6124 34.7683 46.983 35.03C47.0295 35.0616 47.0673 35.1044 47.093 35.1543C47.1187 35.2043 47.1314 35.2599 47.1301 35.3161C47.1288 35.3723 47.1134 35.4273 47.0853 35.476C47.0573 35.5247 47.0175 35.5656 46.9696 35.5949Z" fill="white"/>
</svg>
