<svg width="56" height="61" viewBox="0 0 56 61" fill="none" xmlns="http://www.w3.org/2000/svg">
<path d="M28.0071 21.7544C28.0071 22.0196 28.1124 22.274 28.3 22.4615C28.4875 22.6491 28.7419 22.7544 29.0072 22.7544C29.2724 22.7544 29.5268 22.6491 29.7143 22.4615C29.9019 22.274 30.0072 22.0196 30.0072 21.7544C30.0058 20.6021 29.6071 19.4855 28.8784 18.5929C28.1497 17.7002 27.1356 17.0861 26.0069 16.854V16.754C26.0069 16.4887 25.9016 16.2344 25.714 16.0468C25.5265 15.8593 25.2721 15.7539 25.0069 15.7539C24.7416 15.7539 24.4872 15.8593 24.2997 16.0468C24.1121 16.2344 24.0068 16.4887 24.0068 16.754V16.854C22.8764 17.0835 21.8601 17.6968 21.1302 18.5899C20.4002 19.4829 20.0015 20.6009 20.0015 21.7544C20.0015 22.9078 20.4002 24.0258 21.1302 24.9189C21.8601 25.8119 22.8764 26.4252 24.0068 26.6547V32.5722C23.4237 32.366 22.9185 31.9847 22.5605 31.4804C22.2024 30.9761 22.009 30.3734 22.0066 29.755C22.0066 29.4897 21.9013 29.2354 21.7137 29.0478C21.5262 28.8603 21.2718 28.7549 21.0066 28.7549C20.7413 28.7549 20.4869 28.8603 20.2994 29.0478C20.1118 29.2354 20.0065 29.4897 20.0065 29.755C20.0079 30.9073 20.4066 32.0238 21.1353 32.9165C21.864 33.8091 22.8781 34.4232 24.0068 34.6553V34.7553C24.0068 35.0206 24.1121 35.275 24.2997 35.4625C24.4872 35.6501 24.7416 35.7554 25.0069 35.7554C25.2721 35.7554 25.5265 35.6501 25.714 35.4625C25.9016 35.275 26.0069 35.0206 26.0069 34.7553V34.6553C27.1373 34.4258 28.1536 33.8125 28.8835 32.9195C29.6135 32.0264 30.0122 30.9084 30.0122 29.755C30.0122 28.6015 29.6135 27.4835 28.8835 26.5905C28.1536 25.6974 27.1373 25.0841 26.0069 24.8546V18.9381C26.5899 19.1442 27.0949 19.5254 27.453 20.0295C27.811 20.5336 28.0045 21.1361 28.0071 21.7544ZM22.0066 21.7544C22.0092 21.1361 22.2027 20.5336 22.5608 20.0295C22.9188 19.5254 23.4238 19.1442 24.0068 18.9381V24.5706C23.4238 24.3645 22.9188 23.9833 22.5608 23.4792C22.2027 22.9751 22.0092 22.3727 22.0066 21.7544ZM28.0071 29.755C28.0045 30.3733 27.811 30.9757 27.453 31.4798C27.0949 31.9839 26.5899 32.3651 26.0069 32.5712V26.9388C26.5899 27.1449 27.0949 27.526 27.453 28.0301C27.811 28.5342 28.0045 29.1367 28.0071 29.755Z" fill="#001A3D"/>
<path d="M54.3018 1.04629L51.9216 3.42647L51.0015 2.5074C50.7669 2.26949 50.4875 2.08045 50.1793 1.9512C49.8712 1.82196 49.5405 1.75508 49.2064 1.75443C48.8722 1.75378 48.5413 1.81937 48.2326 1.94741C47.924 2.07545 47.6438 2.2634 47.4083 2.5004L45.7501 4.15352C45.4814 4.42396 45.2766 4.7512 45.151 5.11118C45.0253 5.47117 44.982 5.85473 45.0241 6.23368L45.4331 9.91896L44.8181 10.534C42.5285 7.55072 39.5953 5.12259 36.2369 3.43054C32.8785 1.73849 29.1815 0.826146 25.4215 0.761505C21.6615 0.696865 17.9353 1.48159 14.5207 3.0572C11.1062 4.63282 8.09117 6.95869 5.70044 9.86151C3.30972 12.7643 1.6049 16.1692 0.713026 19.8225C-0.178846 23.4758 -0.234775 27.2833 0.549406 30.9612C1.33359 34.6391 2.93766 38.0926 5.24209 41.0644C7.54652 44.0362 10.4919 46.4496 13.8587 48.1249L10.2384 56.5685C9.93937 57.3028 9.93647 58.1245 10.2304 58.8609C10.5243 59.5973 11.0921 60.1912 11.8146 60.5178C12.5447 60.8285 13.3681 60.8373 14.1047 60.5422C14.8413 60.2472 15.4311 59.6725 15.7449 58.9437L19.5322 50.143C20.3492 50.3272 21.1749 50.4701 22.0063 50.571V57.7576C22.0063 58.5533 22.3224 59.3164 22.8851 59.8791C23.4477 60.4417 24.2109 60.7578 25.0066 60.7578C25.8023 60.7578 26.5654 60.4417 27.128 59.8791C27.6907 59.3164 28.0068 58.5533 28.0068 57.7576V50.571C28.8422 50.4704 29.6639 50.3294 30.472 50.148L34.2473 58.9397C34.5607 59.6703 35.1513 60.2467 35.8893 60.5422C36.6273 60.8377 37.4525 60.8282 38.1836 60.5158C38.9083 60.1938 39.4785 59.6014 39.7726 58.8649C40.0666 58.1284 40.0613 57.3061 39.7577 56.5735L36.1464 48.1289C39.2982 46.5639 42.0835 44.3503 44.3196 41.6332C46.5558 38.9162 48.1923 35.7571 49.1218 32.3631C50.0513 28.9692 50.2528 25.4171 49.7131 21.9398C49.1734 18.4625 47.9047 15.1386 45.9902 12.1861L46.8472 11.3291L50.5285 11.7371C50.6234 11.7488 50.7189 11.7545 50.8145 11.7541C51.4892 11.7529 52.1361 11.4856 52.6147 11.01L54.2588 9.35392C54.4962 9.11892 54.6847 8.83918 54.8133 8.53088C54.9419 8.22258 55.0082 7.89184 55.0082 7.55778C55.0082 7.22372 54.9419 6.89298 54.8133 6.58468C54.6847 6.27638 54.4962 5.99664 54.2588 5.76165L53.3347 4.83658L55.7149 2.45639C55.8832 2.26545 55.9723 2.01752 55.9642 1.76313C55.956 1.50875 55.8512 1.26704 55.671 1.08726C55.4909 0.907475 55.2489 0.803151 54.9945 0.795539C54.7401 0.787927 54.4924 0.8776 54.3018 1.04629ZM13.9057 58.1576C13.801 58.3979 13.606 58.5875 13.3629 58.6855C13.1197 58.7835 12.8478 58.7822 12.6056 58.6817C12.3634 58.5742 12.1727 58.3764 12.0742 58.1303C11.9757 57.8843 11.9773 57.6095 12.0786 57.3646L15.6869 48.9499C16.3069 49.1999 16.936 49.432 17.58 49.633L13.9057 58.1576ZM26.0066 57.7576C26.0066 58.0228 25.9013 58.2772 25.7137 58.4647C25.5262 58.6523 25.2718 58.7577 25.0066 58.7577C24.7413 58.7577 24.487 58.6523 24.2994 58.4647C24.1119 58.2772 24.0065 58.0228 24.0065 57.7576V50.7321C24.3385 50.7451 24.6715 50.7571 25.0066 50.7571C25.3416 50.7571 25.6746 50.7451 26.0066 50.7321V57.7576ZM37.9205 57.3666C37.9826 57.4885 38.019 57.6219 38.0274 57.7585C38.0359 57.8951 38.0162 58.0319 37.9696 58.1606C37.923 58.2892 37.8505 58.407 37.7566 58.5065C37.6627 58.606 37.5494 58.6852 37.4236 58.7392C37.2979 58.7931 37.1624 58.8207 37.0256 58.8202C36.8887 58.8197 36.7534 58.7911 36.6281 58.7362C36.5028 58.6813 36.39 58.6013 36.2968 58.5011C36.2037 58.4009 36.132 58.2826 36.0864 58.1536L32.4271 49.633C33.0712 49.433 33.7002 49.2009 34.3203 48.9509L37.9205 57.3666ZM48.0083 25.7552C48.0144 31.2234 46.0743 36.5153 42.5352 40.6839C38.9962 44.8524 34.0891 47.6254 28.6924 48.5066C23.2956 49.3878 17.7614 48.3197 13.0801 45.4934C8.39892 42.6672 4.87628 38.2672 3.14267 33.0811C1.40907 27.8949 1.57766 22.261 3.61827 17.1878C5.65888 12.1146 9.43832 7.93316 14.2802 5.39186C19.122 2.85056 24.7102 2.11528 30.0446 3.31761C35.379 4.51995 40.1115 7.58143 43.395 11.9541L41.2368 14.1123C38.1922 9.89155 33.6194 7.02711 28.4931 6.12965C23.3669 5.23219 18.0928 6.37272 13.7955 9.30808C9.49809 12.2434 6.51736 16.7414 5.48879 21.8429C4.46023 26.9445 5.46519 32.246 8.28943 36.6173C11.1137 40.9885 15.5337 44.0835 20.6073 45.2425C25.6808 46.4015 31.0063 45.5328 35.4485 42.8215C39.8907 40.1102 43.098 35.771 44.3867 30.7288C45.6753 25.6867 44.9434 20.3406 42.3469 15.8304L44.5471 13.6302C46.8146 17.2675 48.014 21.469 48.0083 25.7552ZM32.3001 24.4621C32.4877 24.6495 32.742 24.7549 33.0072 24.7549C33.2724 24.7549 33.5267 24.6495 33.7142 24.4621L36.3384 21.8379C37.3442 24.7566 37.1854 27.9509 35.895 30.7555C34.6046 33.5601 32.2822 35.7589 29.4113 36.894C26.5403 38.0291 23.3422 38.0131 20.4828 36.8494C17.6233 35.6856 15.323 33.4637 14.0607 30.6463C12.7985 27.829 12.6716 24.6333 13.7065 21.7247C14.7414 18.8162 16.8583 16.4189 19.6165 15.032C22.3746 13.6452 25.5614 13.3757 28.5133 14.2796C31.4652 15.1835 33.9547 17.1913 35.4634 19.8847L32.3001 23.048C32.1126 23.2355 32.0073 23.4898 32.0073 23.755C32.0073 24.0202 32.1126 24.2745 32.3001 24.4621ZM25.0066 11.7541C21.9962 11.753 19.0655 12.7219 16.649 14.5172C14.2325 16.3124 12.4587 18.8385 11.5905 21.721C10.7224 24.6035 10.806 27.6891 11.8292 30.5203C12.8523 33.3515 14.7604 35.7777 17.2707 37.4394C19.781 39.101 22.7598 39.9096 25.7657 39.7454C28.7717 39.5811 31.6447 38.4527 33.959 36.5274C36.2732 34.6021 37.9056 31.9825 38.6141 29.0566C39.3227 26.1308 39.0696 23.0545 37.8925 20.2837L40.8848 17.2915C43.1213 21.4434 43.6508 26.3037 42.3607 30.8397C41.0706 35.3757 38.0627 39.23 33.9761 41.5835C29.8894 43.9371 25.0461 44.6044 20.4753 43.4437C15.9044 42.283 11.9663 39.3857 9.49762 35.3676C7.02896 31.3494 6.22435 26.527 7.25475 21.9251C8.28516 17.3231 11.0694 13.3043 15.0158 10.7225C18.9622 8.14067 23.7598 7.19941 28.3892 8.09869C33.0186 8.99796 37.1148 11.6669 39.8077 15.5384L36.9145 18.4316C35.6652 16.3942 33.9148 14.7108 31.8303 13.5418C29.7457 12.3729 27.3965 11.7574 25.0066 11.7541ZM52.8507 7.93881L52.8437 7.94481L51.1986 9.59794C51.1413 9.65633 51.0714 9.70078 50.9942 9.72783C50.9171 9.75489 50.8347 9.76382 50.7535 9.75395L47.3853 9.38092L47.0082 6.00366C46.9992 5.92401 47.008 5.84335 47.0342 5.76756C47.0603 5.69177 47.103 5.62278 47.1592 5.56563L48.8204 3.9115C48.8702 3.86158 48.9293 3.82197 48.9944 3.79495C49.0596 3.76792 49.1294 3.75401 49.1999 3.75401C49.2704 3.75401 49.3402 3.76792 49.4054 3.79495C49.4705 3.82197 49.5296 3.86158 49.5794 3.9115L51.1986 5.53063C51.2036 5.53063 51.2046 5.54163 51.2086 5.54563C51.2126 5.54963 51.2186 5.54563 51.2236 5.55563L52.8477 7.17975C52.8977 7.22898 52.9374 7.28767 52.9645 7.3524C52.9916 7.41713 53.0056 7.4866 53.0056 7.55678C53.0056 7.62696 52.9916 7.69643 52.9645 7.76116C52.9374 7.82589 52.8977 7.88458 52.8477 7.93381L52.8507 7.93881Z" fill="#001A3D"/>
</svg>
