<svg width="62" height="62" viewBox="0 0 62 62" fill="none" xmlns="http://www.w3.org/2000/svg">
<circle cx="31" cy="31" r="31" fill="#2920D2"/>
<path d="M38.6738 22.849L37.3201 22.5105C37.2429 22.2909 37.1538 22.0771 37.0529 21.8634L37.7713 20.664C37.9138 20.4324 37.8723 20.1296 37.6823 19.9396L35.6991 17.9565C35.5091 17.7605 35.2063 17.7249 34.9748 17.8674L33.7754 18.5859C33.5676 18.4849 33.3479 18.3959 33.1282 18.3187L32.7898 16.9649C32.7245 16.7037 32.487 16.5137 32.2138 16.5137H29.4054C29.1323 16.5137 28.8948 16.6977 28.8295 16.9649L28.491 18.3187C28.2713 18.3959 28.0576 18.4849 27.8438 18.5859L26.6445 17.8674C26.4129 17.7249 26.1101 17.7665 25.9201 17.9565L23.937 19.9396C23.747 20.1296 23.7054 20.4324 23.8479 20.664L24.5663 21.8634C24.4654 22.0712 24.3763 22.2909 24.2991 22.5105L22.9454 22.849C22.6841 22.9143 22.4941 23.1518 22.4941 23.4249V26.2334C22.4941 26.5065 22.6782 26.744 22.9454 26.8093L24.2991 27.1477C24.3763 27.3674 24.4654 27.5812 24.5663 27.7949L23.8479 28.9943C23.7054 29.2259 23.747 29.5287 23.937 29.7187L25.9201 31.7018C26.1101 31.8977 26.4129 31.9274 26.6445 31.7909L27.8438 31.0724C28.0516 31.1734 28.2713 31.2624 28.491 31.3396L28.8295 32.6934C28.8948 32.9546 29.1323 33.1446 29.4054 33.1446H32.2138C32.487 33.1446 32.7245 32.9605 32.7898 32.6934L33.1282 31.3396C33.3479 31.2624 33.5616 31.1734 33.7754 31.0724L34.9748 31.7909C35.2063 31.9334 35.5091 31.8918 35.6991 31.7018L37.6823 29.7187C37.8723 29.5287 37.9138 29.2259 37.7713 28.9943L37.0529 27.7949C37.1538 27.5871 37.2429 27.3674 37.3201 27.1477L38.6738 26.8093C38.9351 26.744 39.1251 26.5065 39.1251 26.2334V23.4249C39.1251 23.1518 38.941 22.9143 38.6738 22.849ZM37.9376 25.7702L36.7145 26.079C36.5126 26.1265 36.3523 26.2809 36.2929 26.4827C36.1801 26.8509 36.0316 27.2071 35.8535 27.5396C35.7526 27.7237 35.7585 27.9493 35.8654 28.1274L36.5126 29.208L35.1826 30.538L34.102 29.8909C33.9238 29.784 33.6982 29.778 33.5141 29.879C33.1816 30.0571 32.8254 30.2055 32.4573 30.3184C32.2554 30.3777 32.101 30.538 32.0535 30.7399L31.7448 31.963H29.8626L29.5538 30.7399C29.5063 30.538 29.352 30.3777 29.1501 30.3184C28.782 30.2055 28.4257 30.0571 28.0932 29.879C27.9091 29.778 27.6835 29.784 27.5054 29.8909L26.4248 30.538L25.0948 29.208L25.742 28.1274C25.8488 27.9493 25.8548 27.7237 25.7538 27.5396C25.5757 27.2071 25.4273 26.8509 25.3145 26.4827C25.2551 26.2809 25.0948 26.1265 24.8929 26.079L23.6698 25.7702V23.888L24.8929 23.5793C25.0948 23.5318 25.2551 23.3774 25.3145 23.1755C25.4273 22.8074 25.5757 22.4512 25.7538 22.1187C25.8548 21.9346 25.8488 21.709 25.742 21.5309L25.0948 20.4502L26.4248 19.1202L27.5054 19.7674C27.6835 19.8743 27.9091 19.8802 28.0932 19.7793C28.4257 19.6012 28.782 19.4527 29.1501 19.3399C29.352 19.2805 29.5063 19.1202 29.5538 18.9184L29.8626 17.6952H31.7448L32.0535 18.9184C32.101 19.1202 32.2554 19.2805 32.4573 19.3399C32.8254 19.4527 33.1816 19.6012 33.5141 19.7793C33.6982 19.8802 33.9238 19.8743 34.102 19.7674L35.1826 19.1202L36.5126 20.4502L35.8654 21.5309C35.7585 21.709 35.7526 21.9346 35.8535 22.1187C36.0316 22.4512 36.1801 22.8074 36.2929 23.1755C36.3523 23.3774 36.5126 23.5318 36.7145 23.5793L37.9376 23.888V25.7702Z" fill="white"/>
<path d="M38.7328 16.0271C36.1856 13.7471 32.8903 12.6962 29.4584 13.0762C23.9722 13.6877 19.5784 18.1112 19.0025 23.6034C18.569 27.7715 20.2909 31.7733 23.61 34.3027C24.6253 35.0746 25.2606 36.1612 25.4209 37.3487C24.459 37.3724 23.6812 38.1562 23.6812 39.124C23.6812 40.0918 24.4828 40.9052 25.4625 40.9052V42.0927H24.8687C24.5422 42.0927 24.275 42.3599 24.275 42.6865C24.275 43.013 24.5422 43.2802 24.8687 43.2802H25.4625V43.874C25.4625 44.8537 26.264 45.6552 27.2437 45.6552H27.8375C27.8375 47.294 29.1675 48.624 30.8062 48.624C32.445 48.624 33.775 47.294 33.775 45.6552H34.3687C35.3484 45.6552 36.15 44.8537 36.15 43.874V43.2802H36.7437C37.0703 43.2802 37.3375 43.013 37.3375 42.6865C37.3375 42.3599 37.0703 42.0927 36.7437 42.0927H36.15V40.9052C37.1297 40.9052 37.9312 40.1037 37.9312 39.124C37.9312 38.1443 37.1534 37.3724 36.1915 37.3487C36.3519 36.1671 36.9872 35.0805 37.9965 34.3146C40.9712 32.0465 42.6812 28.6087 42.6812 24.8799C42.6812 21.5074 41.2384 18.2834 38.7269 16.0271H38.7328ZM30.8122 47.4365C29.8325 47.4365 29.0309 46.6349 29.0309 45.6552H32.5934C32.5934 46.6349 31.7918 47.4365 30.8122 47.4365ZM34.9684 43.874C34.9684 44.2005 34.7012 44.4677 34.3747 44.4677H27.2497C26.9231 44.4677 26.6559 44.2005 26.6559 43.874V43.2802H34.9684V43.874ZM34.9684 42.0927H26.6559V40.9052H34.9684V42.0927ZM36.7497 39.124C36.7497 39.4505 36.4825 39.7177 36.1559 39.7177H25.4684C25.1419 39.7177 24.8747 39.4505 24.8747 39.124C24.8747 38.7974 25.1419 38.5302 25.4684 38.5302H36.1559C36.4825 38.5302 36.7497 38.7974 36.7497 39.124ZM37.284 33.3646C35.9778 34.3621 35.1643 35.7871 34.9981 37.3427H26.6203C26.454 35.7871 25.6406 34.3621 24.3284 33.3587C21.3419 31.0787 19.7922 27.4746 20.1781 23.7221C20.6947 18.7821 24.649 14.798 29.5831 14.2518C32.6765 13.9074 35.6394 14.8515 37.9312 16.9059C40.1934 18.9305 41.4937 21.834 41.4937 24.868C41.4937 28.2227 39.9559 31.3221 37.2781 33.3587L37.284 33.3646Z" fill="white"/>
<path d="M48.0312 24.2803H45.0625C44.7359 24.2803 44.4688 24.5475 44.4688 24.874C44.4688 25.2006 44.7359 25.4678 45.0625 25.4678H48.0312C48.3578 25.4678 48.625 25.2006 48.625 24.874C48.625 24.5475 48.3578 24.2803 48.0312 24.2803Z" fill="white"/>
<path d="M17.1562 24.874C17.1562 24.5475 16.8891 24.2803 16.5625 24.2803H13.5938C13.2672 24.2803 13 24.5475 13 24.874C13 25.2006 13.2672 25.4678 13.5938 25.4678H16.5625C16.8891 25.4678 17.1562 25.2006 17.1562 24.874Z" fill="white"/>
<path d="M42.4858 17.2973C42.6046 17.2973 42.7233 17.2617 42.8243 17.1904L45.2586 15.4864C45.5258 15.2964 45.5911 14.9282 45.4071 14.6611C45.2171 14.3939 44.8489 14.3286 44.5818 14.5126L42.1474 16.2167C41.8802 16.4067 41.8149 16.7748 41.9989 17.042C42.1118 17.2082 42.2958 17.2973 42.4858 17.2973Z" fill="white"/>
<path d="M18.8005 32.5634L16.3661 34.2675C16.0989 34.4575 16.0336 34.8256 16.2177 35.0928C16.3305 35.259 16.5146 35.3481 16.7046 35.3481C16.8233 35.3481 16.9421 35.3125 17.043 35.2412L19.4774 33.5371C19.7446 33.3471 19.8099 32.979 19.6258 32.7118C19.4358 32.4446 19.0677 32.3793 18.8005 32.5634Z" fill="white"/>
<path d="M42.8236 32.5627C42.5564 32.3727 42.1823 32.438 41.9983 32.7112C41.8083 32.9784 41.8736 33.3524 42.1467 33.5365L44.5811 35.2405C44.682 35.3118 44.8008 35.3474 44.9195 35.3474C45.1095 35.3474 45.2936 35.2584 45.4064 35.0921C45.5964 34.8249 45.5311 34.4509 45.258 34.2668L42.8236 32.5627Z" fill="white"/>
<path d="M18.8008 17.1849C18.9018 17.2561 19.0205 17.2918 19.1393 17.2918C19.3293 17.2918 19.5133 17.2027 19.6261 17.0364C19.8161 16.7693 19.7508 16.3952 19.4777 16.2111L17.0433 14.5071C16.7761 14.3171 16.4021 14.3824 16.218 14.6555C16.028 14.9227 16.0933 15.2968 16.3664 15.4808L18.8008 17.1849Z" fill="white"/>
<path d="M33.0632 22.6297L29.9223 25.7707L28.5626 24.411C28.3311 24.1794 27.957 24.1794 27.7254 24.411C27.4939 24.6425 27.4939 25.0166 27.7254 25.2482L29.5067 27.0294C29.6254 27.1482 29.7739 27.2016 29.9282 27.2016C30.0826 27.2016 30.2311 27.1422 30.3498 27.0294L33.9123 23.4669C34.1439 23.2354 34.1439 22.8613 33.9123 22.6297C33.6807 22.3982 33.3067 22.3982 33.0751 22.6297H33.0632Z" fill="white"/>
</svg>
