<svg width="56" height="61" viewBox="0 0 56 61" fill="none" xmlns="http://www.w3.org/2000/svg">
<path d="M54.8216 36.1602H47.938C47.3949 36.1602 46.9546 36.6004 46.9546 37.1435C46.9546 37.6865 47.3949 38.1268 47.938 38.1268H52.4473L35.1541 55.4202L30.1951 50.461C29.8214 50.0875 29.2192 50.0758 28.8315 50.4349L22.8881 55.938L19.3882 52.4381C19.0041 52.0542 18.3815 52.0542 17.9975 52.4381C17.6135 52.8222 17.6135 53.4448 17.9975 53.8289L22.1666 57.9979C22.3582 58.1895 22.6099 58.2859 22.8621 58.2859C23.1015 58.2859 23.3412 58.1989 23.53 58.0241L29.4734 52.5209L34.4587 57.5062C34.8428 57.8901 35.4653 57.8901 35.8495 57.5062L53.8381 39.5176V44.027C53.8381 44.57 54.2784 45.0103 54.8214 45.0103C55.3645 45.0103 55.8048 44.57 55.8048 44.027V37.1434C55.8049 36.6004 55.3646 36.1602 54.8216 36.1602Z" fill="#001A3D"/>
<path d="M19.9115 32.7176H27.2868H34.6621C35.2052 32.7176 35.6454 32.2773 35.6454 31.7343V20.4255C35.6454 19.3411 34.7631 18.4588 33.6787 18.4588H28.2736C28.2828 18.5208 28.2821 18.5845 28.27 18.6483V16.4921C28.27 15.4077 27.3878 14.5254 26.3034 14.5254H20.8948C19.8104 14.5254 18.928 15.4077 18.928 16.4921V23.8675H13.5195C12.435 23.8675 11.5527 24.7498 11.5527 25.8342V31.7344C11.5527 32.2774 11.993 32.7177 12.5361 32.7177L19.9115 32.7176ZM28.2702 20.4255H33.6788V30.7509H28.2702V20.4255ZM20.8949 16.492H26.3035V30.7508H20.8949V16.492ZM13.5196 25.8341H18.9282V30.7509H13.5196V25.8341Z" fill="#001A3D"/>
<path d="M23.8457 42.5507C33.8771 42.5507 42.0382 34.3897 42.0382 24.3584C42.0382 14.3272 33.8771 6.16602 23.8457 6.16602C13.8145 6.16602 5.65332 14.3271 5.65332 24.3584C5.65344 34.3896 13.8145 42.5507 23.8457 42.5507ZM23.8457 8.13277C32.7927 8.13277 40.0714 15.4115 40.0714 24.3584C40.0714 33.3052 32.7927 40.584 23.8457 40.584C14.8988 40.584 7.62008 33.3052 7.62008 24.3584C7.6202 15.4115 14.8989 8.13277 23.8457 8.13277Z" fill="#001A3D"/>
<path d="M3.44047 59.8368C4.52188 60.4613 5.70348 60.7579 6.87067 60.7578C9.25133 60.7576 11.5701 59.5231 12.8436 57.3173L18.5877 47.3684C20.279 47.7547 22.0387 47.9595 23.8454 47.9595C36.8591 47.9595 47.4464 37.3722 47.4464 24.3587C47.4464 11.3451 36.8591 0.757812 23.8454 0.757812C10.8318 0.757812 0.244535 11.3451 0.244535 24.3587C0.244535 30.6003 2.6811 36.2829 6.65164 40.5077L0.920824 50.4337C-0.976911 53.7209 0.153363 57.9391 3.44047 59.8368ZM23.8454 2.72457C35.7746 2.72457 45.4796 12.4296 45.4796 24.3588C45.4796 36.2879 35.7746 45.9929 23.8454 45.9929C11.9163 45.9929 2.21117 36.2879 2.21117 24.3588C2.21129 12.4296 11.9163 2.72457 23.8454 2.72457ZM2.62414 51.4171L8.1036 41.9265C10.5427 44.1144 13.4382 45.8025 16.6279 46.8294L11.1404 56.334C9.78489 58.6818 6.77188 59.4894 4.42379 58.1338C2.07594 56.7781 1.26852 53.7651 2.62414 51.4171Z" fill="#001A3D"/>
</svg>
