<svg width="18" height="17" viewBox="0 0 18 17" fill="none" xmlns="http://www.w3.org/2000/svg">
<path d="M4.31682 2.35804C4.31658 2.83452 4.12707 3.2914 3.78997 3.62816C3.45288 3.96492 2.99581 4.15397 2.51933 4.15373C2.04284 4.15349 1.58597 3.96398 1.24921 3.62689C0.912449 3.28979 0.723395 2.83273 0.723633 2.35624C0.723871 1.87976 0.913383 1.42288 1.25048 1.08612C1.58757 0.749364 2.04464 0.560309 2.52112 0.560547C2.99761 0.560785 3.45448 0.750297 3.79124 1.08739C4.128 1.42449 4.31706 1.88155 4.31682 2.35804ZM4.37072 5.48411H0.777531V16.7308H4.37072V5.48411ZM10.0479 5.48411H6.47273V16.7308H10.012V10.829C10.012 7.54121 14.2969 7.23579 14.2969 10.829V16.7308H17.8452V9.60729C17.8452 4.0648 11.5032 4.27141 10.012 6.99325L10.0479 5.48411Z" fill="white"/>
</svg>
