<svg width="18" height="18" viewBox="0 0 18 18" fill="none" xmlns="http://www.w3.org/2000/svg">
<path d="M9.65632 0.561604C10.2832 0.559198 10.91 0.565498 11.5367 0.580502L11.7034 0.586515C11.8958 0.593387 12.0856 0.601977 12.315 0.612286C13.229 0.655236 13.8526 0.799551 14.3998 1.01173C14.9667 1.22992 15.4444 1.52542 15.922 2.00303C16.3587 2.4322 16.6967 2.95134 16.9124 3.52434C17.1246 4.07154 17.2689 4.69604 17.3119 5.61003C17.3222 5.83853 17.3308 6.02923 17.3376 6.22165L17.3428 6.3883C17.358 7.01468 17.3646 7.64125 17.3625 8.26782L17.3634 8.90865V10.034C17.3655 10.6608 17.3589 11.2877 17.3436 11.9143L17.3385 12.081C17.3316 12.2734 17.323 12.4632 17.3127 12.6926C17.2698 13.6066 17.1237 14.2302 16.9124 14.7774C16.6974 15.351 16.3593 15.8706 15.922 16.2996C15.4924 16.7363 14.973 17.0742 14.3998 17.29C13.8526 17.5022 13.229 17.6465 12.315 17.6895C12.0856 17.6998 11.8958 17.7084 11.7034 17.7153L11.5367 17.7204C10.91 17.7357 10.2832 17.7423 9.65632 17.7402L9.0155 17.741H7.89105C7.26419 17.7431 6.63734 17.7366 6.01067 17.7213L5.84402 17.7161C5.6401 17.7087 5.43622 17.7001 5.2324 17.6903C4.31841 17.6474 3.69476 17.5014 3.14671 17.29C2.57348 17.0747 2.05425 16.7367 1.6254 16.2996C1.1882 15.8703 0.8499 15.3509 0.634095 14.7774C0.421919 14.2302 0.277604 13.6066 0.234654 12.6926C0.225087 12.4888 0.216497 12.2849 0.208883 12.081L0.204588 11.9143C0.188751 11.2877 0.181592 10.6608 0.183113 10.034V8.26782C0.180715 7.64126 0.187015 7.01469 0.202011 6.3883L0.208024 6.22165C0.214896 6.02923 0.223487 5.83853 0.233795 5.61003C0.276745 4.69518 0.42106 4.0724 0.633236 3.52434C0.849169 2.95106 1.18813 2.43206 1.62626 2.00389C2.05481 1.56644 2.57372 1.22783 3.14671 1.01173C3.69476 0.799551 4.31755 0.655236 5.2324 0.612286L5.84402 0.586515L6.01067 0.58222C6.63704 0.566391 7.26361 0.559232 7.89019 0.560745L9.65632 0.561604ZM8.77326 4.85668C8.20416 4.84863 7.63915 4.95376 7.11104 5.16598C6.58294 5.37819 6.10228 5.69325 5.69699 6.09284C5.29171 6.49244 4.96988 6.96859 4.75022 7.49365C4.53056 8.0187 4.41744 8.58217 4.41744 9.15132C4.41744 9.72047 4.53056 10.2839 4.75022 10.809C4.96988 11.334 5.29171 11.8102 5.69699 12.2098C6.10228 12.6094 6.58294 12.9244 7.11104 13.1367C7.63915 13.3489 8.20416 13.454 8.77326 13.446C9.91238 13.446 11.0048 12.9934 11.8103 12.188C12.6158 11.3825 13.0683 10.29 13.0683 9.15089C13.0683 8.01176 12.6158 6.9193 11.8103 6.11381C11.0048 5.30833 9.91238 4.85668 8.77326 4.85668ZM8.77326 6.5747C9.11558 6.5684 9.45573 6.63037 9.77383 6.75699C10.0919 6.88362 10.3816 7.07237 10.626 7.31221C10.8703 7.55205 11.0644 7.83817 11.1969 8.15387C11.3294 8.46956 11.3977 8.8085 11.3978 9.15088C11.3978 9.49326 11.3297 9.83222 11.1972 10.148C11.0648 10.4637 10.8708 10.7499 10.6266 10.9898C10.3823 11.2297 10.0927 11.4186 9.77463 11.5453C9.45657 11.672 9.11644 11.7341 8.77411 11.7279C8.09064 11.7279 7.43516 11.4564 6.95187 10.9731C6.46858 10.4898 6.19707 9.83436 6.19707 9.15089C6.19707 8.46741 6.46858 7.81193 6.95187 7.32864C7.43516 6.84535 8.09064 6.57384 8.77411 6.57384L8.77326 6.5747ZM13.2831 3.56815C13.006 3.57925 12.7439 3.69714 12.5517 3.89713C12.3596 4.09713 12.2523 4.36372 12.2523 4.64106C12.2523 4.91841 12.3596 5.185 12.5517 5.38499C12.7439 5.58499 13.006 5.70288 13.2831 5.71397C13.5679 5.71397 13.841 5.60084 14.0423 5.39947C14.2437 5.1981 14.3568 4.92498 14.3568 4.6402C14.3568 4.35542 14.2437 4.08231 14.0423 3.88094C13.841 3.67956 13.5679 3.56644 13.2831 3.56644V3.56815Z" fill="white"/>
</svg>
