<svg width="17" height="20" viewBox="0 0 17 20" fill="none" xmlns="http://www.w3.org/2000/svg">
<path d="M8.35722 4.28576C7.65085 4.28576 6.96035 4.49522 6.37302 4.88766C5.7857 5.2801 5.32793 5.83788 5.05762 6.49048C4.7873 7.14308 4.71658 7.86118 4.85438 8.55398C4.99219 9.24678 5.33234 9.88315 5.83181 10.3826C6.33129 10.8821 6.96767 11.2223 7.66046 11.3601C8.35326 11.4979 9.07136 11.4271 9.72396 11.1568C10.3766 10.8865 10.9343 10.4287 11.3268 9.84142C11.7192 9.2541 11.9287 8.56359 11.9287 7.85722C11.9287 6.91001 11.5524 6.00159 10.8826 5.33182C10.2128 4.66204 9.30443 4.28576 8.35722 4.28576ZM8.35722 10.0001C7.9334 10.0001 7.5191 9.87442 7.1667 9.63896C6.81431 9.4035 6.53965 9.06883 6.37746 8.67727C6.21527 8.28571 6.17283 7.85484 6.25552 7.43917C6.3382 7.02349 6.54229 6.64166 6.84198 6.34198C7.14166 6.04229 7.52349 5.8382 7.93917 5.75552C8.35484 5.67283 8.78571 5.71527 9.17727 5.87746C9.56882 6.03965 9.9035 6.31431 10.139 6.6667C10.3744 7.0191 10.5001 7.4334 10.5001 7.85722C10.5001 8.42555 10.2743 8.9706 9.87247 9.37247C9.4706 9.77433 8.92555 10.0001 8.35722 10.0001ZM8.35722 0C6.27408 0.00236318 4.27694 0.830934 2.80394 2.30394C1.33093 3.77694 0.502363 5.77408 0.5 7.85722C0.5 10.6608 1.79555 13.6323 4.25004 16.4511C5.35292 17.7248 6.59421 18.8717 7.95097 19.8707C8.07107 19.9549 8.21415 20 8.36079 20C8.50743 20 8.65052 19.9549 8.77062 19.8707C10.1249 18.8713 11.3638 17.7244 12.4644 16.4511C14.9153 13.6323 16.2144 10.6608 16.2144 7.85722C16.2121 5.77408 15.3835 3.77694 13.9105 2.30394C12.4375 0.830934 10.4404 0.00236318 8.35722 0ZM8.35722 18.393C6.88131 17.2323 1.92859 12.9689 1.92859 7.85722C1.92859 6.15224 2.60589 4.51709 3.81149 3.31149C5.01709 2.10589 6.65224 1.42859 8.35722 1.42859C10.0622 1.42859 11.6973 2.10589 12.903 3.31149C14.1086 4.51709 14.7859 6.15224 14.7859 7.85722C14.7859 12.9671 9.83313 17.2323 8.35722 18.393Z" fill="white"/>
</svg>
