<svg width="48" height="48" viewBox="0 0 48 48" fill="none" xmlns="http://www.w3.org/2000/svg">
<g clip-path="url(#clip0_7192_38576)">
<path d="M6.00857 41.3992C6.48502 43.296 7.58475 44.9777 9.13134 46.1747C10.6779 47.3717 12.5817 48.0145 14.5374 48H33.4654C35.4212 48.0144 37.3252 47.3713 38.8718 46.1741C40.4184 44.9768 41.518 43.2947 41.9942 41.3976C43.7846 34.0592 39.263 24.8376 34.1398 18.2296C34.609 18.0692 35.0259 17.7842 35.3456 17.4052C35.6654 17.0261 35.876 16.5672 35.955 16.0776C36.6866 16.1878 37.3767 16.4877 37.9564 16.9475C38.5361 17.4073 38.9852 18.011 39.259 18.6984C39.3381 18.8953 39.4922 19.0527 39.6874 19.136C39.8826 19.2192 40.1029 19.2215 40.2998 19.1424C40.4967 19.0633 40.6541 18.9091 40.7373 18.714C40.8206 18.5188 40.8229 18.2985 40.7438 18.1016C40.3846 17.1962 39.8028 16.3961 39.0521 15.7755C38.3014 15.1548 37.4061 14.7337 36.4494 14.5512C37.2708 14.0063 37.9494 13.2723 38.4282 12.4107C38.9071 11.5492 39.1722 10.5853 39.2014 9.6C39.2014 9.38783 39.1171 9.18435 38.9671 9.03432C38.817 8.88429 38.6135 8.8 38.4014 8.8C38.1892 8.8 37.9857 8.88429 37.8357 9.03432C37.6856 9.18435 37.6014 9.38783 37.6014 9.6C37.5553 10.4175 37.3014 11.2098 36.8638 11.9019C36.4262 12.594 35.8194 13.163 35.1006 13.5552C34.5863 13.0716 33.9073 12.8016 33.2014 12.8H32.659L35.1326 8.9168C35.4405 8.43251 35.6124 7.87434 35.6305 7.30075C35.6486 6.72716 35.5121 6.15927 35.2353 5.65656C34.9585 5.15385 34.5516 4.73483 34.0572 4.44338C33.5629 4.15194 32.9992 3.9988 32.4254 4H31.4966C31.6196 3.52733 31.6326 3.03274 31.5346 2.55425C31.4367 2.07575 31.2303 1.62609 30.9314 1.23981C30.6325 0.853526 30.249 0.540911 29.8104 0.325984C29.3718 0.111058 28.8898 -0.000459709 28.4014 1.4243e-06H19.6014C19.1129 -0.000459709 18.6309 0.111058 18.1923 0.325984C17.7537 0.540911 17.3703 0.853526 17.0713 1.23981C16.7724 1.62609 16.5661 2.07575 16.4681 2.55425C16.3701 3.03274 16.3831 3.52733 16.5062 4H15.5774C15.0034 3.99885 14.4398 4.15207 13.9454 4.44361C13.451 4.73516 13.0442 5.15429 12.7675 5.6571C12.4907 6.15991 12.3543 6.72789 12.3725 7.30153C12.3908 7.87517 12.5629 8.43336 12.871 8.9176L15.3438 12.8H14.8014C14.142 12.7988 13.5035 13.0309 12.9988 13.4552C12.494 13.8795 12.1557 14.4687 12.0435 15.1184C11.9314 15.7682 12.0526 16.4367 12.3859 17.0056C12.7192 17.5745 13.243 18.0073 13.8646 18.2272C8.74057 24.8368 4.21737 34.0584 6.00857 41.3992ZM14.1686 6.432C14.3057 6.17847 14.5093 5.96707 14.7575 5.82049C15.0057 5.67391 15.2891 5.59769 15.5774 5.6H17.135L19.263 10.708C19.3447 10.9038 19.5008 11.0592 19.697 11.1399C19.8933 11.2206 20.1135 11.2201 20.3094 11.1384C20.5052 11.0567 20.6606 10.9006 20.7413 10.7043C20.822 10.5081 20.8215 10.2878 20.7398 10.092L18.1246 3.8152C18.0233 3.57208 17.9836 3.30771 18.009 3.04557C18.0345 2.78343 18.1242 2.53162 18.2703 2.31248C18.4164 2.09334 18.6143 1.91366 18.8465 1.78937C19.0787 1.66508 19.338 1.60003 19.6014 1.6H28.4014C28.6647 1.60003 28.924 1.66508 29.1562 1.78937C29.3884 1.91366 29.5864 2.09334 29.7324 2.31248C29.8785 2.53162 29.9683 2.78343 29.9937 3.04557C30.0191 3.30771 29.9794 3.57208 29.8782 3.8152L27.263 10.092C27.1813 10.2878 27.1807 10.5081 27.2615 10.7043C27.3422 10.9006 27.4975 11.0567 27.6934 11.1384C27.8892 11.2201 28.1095 11.2206 28.3057 11.1399C28.5019 11.0592 28.6581 10.9038 28.7398 10.708L30.8678 5.6H32.4254C32.7128 5.59825 32.9955 5.67398 33.2436 5.81923C33.4917 5.96449 33.696 6.1739 33.8352 6.42546C33.9744 6.67702 34.0432 6.96142 34.0344 7.24877C34.0256 7.53612 33.9396 7.8158 33.7854 8.0584L30.7622 12.8H17.2422L14.2222 8.0592C14.0663 7.81842 13.979 7.53972 13.9695 7.25304C13.9601 6.96636 14.0289 6.68253 14.1686 6.432ZM15.7686 18.4H18.4014C18.6135 18.4 18.817 18.3157 18.9671 18.1657C19.1171 18.0157 19.2014 17.8122 19.2014 17.6C19.2014 17.3878 19.1171 17.1843 18.9671 17.0343C18.817 16.8843 18.6135 16.8 18.4014 16.8H14.8014C14.4831 16.8 14.1779 16.6736 13.9528 16.4485C13.7278 16.2235 13.6014 15.9183 13.6014 15.6C13.6014 15.2817 13.7278 14.9765 13.9528 14.7515C14.1779 14.5264 14.4831 14.4 14.8014 14.4H33.2014C33.5196 14.4 33.8249 14.5264 34.0499 14.7515C34.2749 14.9765 34.4014 15.2817 34.4014 15.6C34.4014 15.9183 34.2749 16.2235 34.0499 16.4485C33.8249 16.6736 33.5196 16.8 33.2014 16.8H23.2014C22.9892 16.8 22.7857 16.8843 22.6357 17.0343C22.4857 17.1843 22.4014 17.3878 22.4014 17.6C22.4014 17.8122 22.4857 18.0157 22.6357 18.1657C22.7857 18.3157 22.9892 18.4 23.2014 18.4H32.2318C37.3766 24.7504 42.1702 33.9304 40.4406 41.0168C40.049 42.5658 39.1486 43.9384 37.8838 44.9145C36.619 45.8907 35.063 46.4138 33.4654 46.4H14.5374C12.94 46.4141 11.3841 45.8913 10.1194 44.9154C8.85472 43.9395 7.95442 42.5672 7.56297 41.0184C5.83337 33.9304 10.6262 24.7504 15.771 18.4H15.7686Z" fill="#EB7124"/>
<path d="M12.0031 32.8032H14.4031V39.2032C14.4031 39.4154 14.4874 39.6189 14.6374 39.7689C14.7875 39.9189 14.991 40.0032 15.2031 40.0032C15.4153 40.0032 15.6188 39.9189 15.7688 39.7689C15.9188 39.6189 16.0031 39.4154 16.0031 39.2032V32.8032H18.4031C18.6153 32.8032 18.8188 32.7189 18.9688 32.5689C19.1188 32.4189 19.2031 32.2154 19.2031 32.0032C19.2031 31.7911 19.1188 31.5876 18.9688 31.4375C18.8188 31.2875 18.6153 31.2032 18.4031 31.2032H12.0031C11.791 31.2032 11.5875 31.2875 11.4374 31.4375C11.2874 31.5876 11.2031 31.7911 11.2031 32.0032C11.2031 32.2154 11.2874 32.4189 11.4374 32.5689C11.5875 32.7189 11.791 32.8032 12.0031 32.8032ZM29.9591 39.8688C30.0465 39.9271 30.1446 39.9677 30.2476 39.9881C30.3507 40.0085 30.4568 40.0085 30.5598 39.9879C30.6629 39.9673 30.7608 39.9266 30.8482 39.8682C30.9355 39.8097 31.0104 39.7346 31.0687 39.6472L32.8031 37.0432L34.5375 39.6448C34.6553 39.8214 34.8383 39.9439 35.0464 39.9854C35.2545 40.027 35.4706 39.9842 35.6471 39.8664C35.8237 39.7487 35.9462 39.5656 35.9877 39.3575C36.0293 39.1494 35.9865 38.9334 35.8687 38.7568L33.7631 35.6032L35.8671 32.4472C35.9849 32.2707 36.0277 32.0546 35.9861 31.8465C35.9446 31.6384 35.8221 31.4554 35.6455 31.3376C35.469 31.2199 35.2529 31.1771 35.0448 31.2186C34.8367 31.2602 34.6537 31.3827 34.5359 31.5592L32.8031 34.1632L31.0687 31.5616C30.951 31.3851 30.7679 31.2626 30.5598 31.221C30.3517 31.1795 30.1357 31.2223 29.9591 31.34C29.7826 31.4578 29.6601 31.6408 29.6185 31.8489C29.577 32.057 29.6198 32.2731 29.7375 32.4496L31.8431 35.6032L29.7391 38.7592C29.6212 38.9356 29.5781 39.1515 29.6194 39.3596C29.6606 39.5677 29.7828 39.7508 29.9591 39.8688ZM20.4783 39.9344C20.5743 39.9771 20.6778 40.0004 20.7829 40.0031C20.8879 40.0058 20.9924 39.9877 21.0905 39.95C21.1886 39.9122 21.2782 39.8555 21.3544 39.7831C21.4305 39.7107 21.4917 39.6241 21.5343 39.528L22.3895 37.6032H25.6167L26.4719 39.528C26.5581 39.722 26.7177 39.8737 26.9158 39.9499C27.1138 40.0261 27.334 40.0206 27.5279 39.9344C27.7219 39.8483 27.8736 39.6886 27.9498 39.4906C28.026 39.2926 28.0205 39.0724 27.9343 38.8784L26.8783 36.5032L26.8679 36.48L24.7343 31.68C24.6715 31.5385 24.569 31.4183 24.4392 31.3339C24.3094 31.2495 24.1579 31.2046 24.0031 31.2046C23.8483 31.2046 23.6968 31.2495 23.567 31.3339C23.4372 31.4183 23.3347 31.5385 23.2719 31.68L21.1383 36.48L21.1279 36.5032L20.0719 38.8784C20.0293 38.9745 20.0059 39.0779 20.0033 39.183C20.0006 39.288 20.0186 39.3925 20.0564 39.4906C20.0941 39.5887 20.1508 39.6783 20.2232 39.7545C20.2956 39.8306 20.3823 39.8918 20.4783 39.9344ZM24.0031 33.9728L24.9055 36.0032H23.1007L24.0031 33.9728Z" fill="#EB7124"/>
<path d="M18 16.7969H24V18.4049H21H18V16.7969Z" fill="#EB7124"/>
</g>
<defs>
<clipPath id="clip0_7192_38576">
<rect width="48" height="48" fill="white"/>
</clipPath>
</defs>
</svg>
