<svg width="48" height="48" viewBox="0 0 48 48" fill="none" xmlns="http://www.w3.org/2000/svg">
<path d="M8.66284 10.82C8.66284 10.0495 8.66014 9.32548 8.66284 8.6015C8.68711 3.70816 12.7369 -0.0901615 17.8318 0.00162903C22.0596 0.0779057 25.841 3.33841 26.3238 7.36815C26.4344 8.29252 26.3966 9.23369 26.4249 10.1671C26.4317 10.3727 26.4249 10.5795 26.4249 10.7657C27.0641 10.8691 27.6723 10.9066 28.2428 11.0708C30.4545 11.7043 31.5576 13.2595 31.9689 15.3436C32.0498 15.7521 32.0539 16.1762 32.0741 16.5937C32.0903 16.9312 32.0673 17.2712 32.0795 17.6099C32.1307 18.9001 32.2656 19.0255 33.5049 19.4625C34.337 19.756 35.1259 20.1606 35.9472 20.4851C36.1117 20.5498 36.3639 20.5394 36.5217 20.4632C36.8642 20.2964 37.1663 20.0559 37.494 19.8594C37.8851 19.6241 38.2667 19.6526 38.5971 19.9667C39.7084 21.023 40.8129 22.0831 41.9173 23.1458C42.2801 23.4948 42.3462 23.9266 42.0077 24.2744C41.2579 25.0462 41.2606 25.756 41.854 26.6442C42.2868 27.2945 42.4541 28.1051 42.7723 28.8303C42.8411 28.9881 43.0286 29.1522 43.1971 29.204C43.5626 29.3164 43.9537 29.3449 44.3299 29.4315C44.7561 29.5297 44.9961 29.7974 44.9975 30.2266C45.0015 31.7418 45.0002 33.2583 44.9988 34.7734C44.9988 35.2246 44.7561 35.5802 44.3084 35.5866C43.0987 35.606 42.5984 36.2227 42.3435 37.2906C42.1749 37.9965 41.7488 38.6506 41.4008 39.3113C41.2768 39.5479 41.2673 39.7082 41.4359 39.9176C41.6611 40.1981 41.8566 40.5007 42.0522 40.8006C42.2963 41.1755 42.2734 41.5414 41.9457 41.8581C40.8317 42.9338 39.7124 44.0042 38.5891 45.0695C38.2573 45.3837 37.8163 45.4522 37.4954 45.1522C36.6552 44.3701 35.873 44.4735 34.9304 45.0178C34.2534 45.4082 33.4267 45.5569 32.6782 45.8413C32.5259 45.8995 32.3613 46.0624 32.3141 46.2111C32.2009 46.5627 32.1564 46.9351 32.0795 47.2983C31.9878 47.734 31.7113 47.9887 31.2434 47.9913C29.6453 47.999 28.0472 47.999 26.4492 47.9913C26.0042 47.9887 25.6468 47.7482 25.6441 47.3397C25.636 46.1581 24.9873 45.659 23.8464 45.416C23.1263 45.2634 22.4763 44.82 21.7777 44.5459C21.6024 44.4774 21.3327 44.4955 21.1601 44.5782C20.8162 44.7411 20.5155 44.9842 20.1864 45.1781C19.8128 45.3966 19.4393 45.3785 19.1237 45.0798C17.9869 44.0029 16.8568 42.9208 15.7321 41.8323C15.4192 41.5298 15.4098 41.1729 15.6377 40.8135C15.906 40.3882 16.3807 39.9758 16.3996 39.5427C16.4185 39.1083 15.9694 38.6636 15.7563 38.2098C15.55 37.7702 15.3491 37.3229 15.2075 36.8614C15.0955 36.4955 14.9297 36.3649 14.5103 36.3701C12.6101 36.3972 10.7086 36.4153 8.80848 36.3662C8.03035 36.3455 7.21851 36.2524 6.48759 36.0107C4.47416 35.341 3.50049 33.8181 3.11345 31.8943C3.03793 31.5168 3.00961 31.1264 3.00961 30.7411C3.00287 25.9848 2.98534 21.2272 3.0258 16.4709C3.03254 15.6823 3.19437 14.8562 3.47757 14.1154C4.26244 12.0585 5.89556 11.0204 8.14768 10.8433C8.29602 10.8316 8.44572 10.8277 8.66418 10.8174L8.66284 10.82ZM30.441 17.032C30.6082 13.9331 29.087 12.3843 25.957 12.383C22.4749 12.383 18.9916 12.383 15.5095 12.383C13.1549 12.383 10.799 12.3688 8.44437 12.3921C6.59547 12.4102 5.31972 13.3591 4.83558 15.0682C4.70072 15.544 4.62925 16.052 4.6279 16.5446C4.61307 21.2544 4.61576 25.9628 4.62386 30.6726C4.62386 31.0566 4.66027 31.4483 4.74118 31.8245C5.15385 33.7469 6.49163 34.8032 8.54686 34.8316C9.82531 34.8484 11.1038 34.8368 12.3822 34.8355C12.4766 34.8355 12.5724 34.8148 12.6546 34.8058C12.6721 34.7437 12.6883 34.714 12.6883 34.6842C12.691 33.2492 12.691 31.8142 12.6951 30.3778C12.6978 29.7599 12.8906 29.5336 13.5069 29.4082C13.8023 29.3475 14.0962 29.266 14.3956 29.2363C14.7584 29.2014 14.9283 29.054 15.0375 28.6985C15.2493 28.0055 15.4475 27.2751 15.84 26.6752C16.4266 25.7806 16.4603 25.0449 15.6795 24.2589C15.3356 23.9111 15.4232 23.4806 15.786 23.1341C16.8797 22.0844 17.9734 21.0346 19.0698 19.9874C19.4339 19.6383 19.8344 19.6228 20.2565 19.8892C20.5654 20.0844 20.8566 20.3132 21.187 20.4645C21.361 20.5446 21.6294 20.5575 21.806 20.4864C22.6111 20.1658 23.369 19.6952 24.2011 19.4897C25.0952 19.2686 25.4917 18.8614 25.5807 17.9835C25.6643 17.1587 25.9165 17.032 26.7863 17.0307C27.9933 17.0307 29.2003 17.0307 30.4396 17.0307L30.441 17.032ZM40.3516 41.1458C40.1871 40.9079 40.0482 40.6661 39.8675 40.4567C39.4508 39.9758 39.5223 39.5491 39.819 39.0036C40.3597 38.0094 40.8762 36.9829 41.2188 35.915C41.6948 34.427 41.4696 34.5756 43.0272 34.2783C43.3374 34.2188 43.3954 34.0908 43.3886 33.8258C43.3738 33.1975 43.3832 32.5679 43.3832 31.9396C43.3832 30.8562 43.3859 30.842 42.2949 30.6183C41.8486 30.5265 41.5681 30.3223 41.4669 29.8904C41.1298 28.4451 40.535 27.1031 39.6935 25.862C39.4427 25.4923 39.4575 25.1432 39.7219 24.7864C39.943 24.4877 40.148 24.1762 40.3314 23.9111C39.4805 23.0954 38.6619 22.3119 37.8244 21.5104C37.5345 21.6939 37.2108 21.8943 36.8912 22.1025C36.55 22.3248 36.2048 22.3507 35.8541 22.1361C34.5366 21.3319 33.1152 20.7722 31.5913 20.4515C31.1611 20.361 30.9224 20.1244 30.8469 19.7069C30.7795 19.3319 30.6824 18.9609 30.6041 18.6105C30.5138 18.5937 30.4814 18.5821 30.4477 18.5821C29.7411 18.5795 29.0344 18.5782 28.3277 18.5782C27.1194 18.5782 27.1086 18.5756 26.8538 19.6849C26.7648 20.0714 26.5786 20.3339 26.166 20.4244C24.6286 20.7644 23.1951 21.3384 21.8708 22.1606C21.5201 22.3778 21.1763 22.3481 20.8364 22.1219C20.506 21.9021 20.1675 21.6952 19.856 21.4974C19.0172 22.3029 18.1986 23.0889 17.3544 23.8995C17.5014 24.1102 17.647 24.3675 17.8385 24.5873C18.2714 25.0837 18.1932 25.5233 17.8857 26.0844C17.3423 27.076 16.8298 28.1038 16.4846 29.1703C16.0247 30.5925 16.2149 30.4593 14.6748 30.7541C14.37 30.8122 14.2972 30.926 14.3039 31.1962C14.3201 31.8245 14.3093 32.4541 14.3093 33.0824C14.3093 34.1671 14.3066 34.1813 15.3936 34.4024C15.8764 34.5007 16.1663 34.723 16.2769 35.1975C16.6073 36.6093 17.1912 37.9228 18.0152 39.1354C18.266 39.5039 18.2566 39.853 17.9909 40.2111C17.7603 40.5226 17.5499 40.8471 17.3773 41.0967C18.2377 41.9228 19.0523 42.7075 19.887 43.5091C20.1554 43.3397 20.471 43.1535 20.7703 42.948C21.1601 42.6804 21.5309 42.6842 21.9369 42.9299C23.1978 43.6926 24.5531 44.2434 26.0136 44.542C26.4937 44.6403 26.7877 44.882 26.8591 45.3707C26.9117 45.7314 27.0142 46.0844 27.0965 46.4502H29.4174C30.5812 46.4502 30.5987 46.4541 30.824 45.3875C30.9251 44.9105 31.1813 44.6584 31.6682 44.5601C33.1449 44.2615 34.5244 43.7224 35.7989 42.9467C36.2061 42.6985 36.5783 42.7088 36.9654 42.9751C37.2607 43.1781 37.5709 43.363 37.8473 43.5375C38.6956 42.7269 39.5034 41.9538 40.3489 41.1458H40.3516ZM24.8026 10.8342C24.8026 9.89045 24.8336 9.01908 24.7972 8.1516C24.6232 3.9357 20.3078 0.72044 16.0382 1.71721C11.1928 2.84714 9.80103 6.73078 10.3499 10.8096H13.5056C13.5056 10.0314 13.4975 9.27894 13.5069 8.52522C13.5406 5.79995 16.0706 4.02878 18.796 4.8174C20.4278 5.28928 21.5336 6.68424 21.5741 8.35198C21.5943 9.16776 21.5781 9.98353 21.5781 10.8342C22.5491 10.8342 23.454 10.8342 24.3589 10.8342C24.4897 10.8342 24.6205 10.8342 24.8026 10.8342ZM19.8762 10.8213C20.0569 10.2576 19.9855 8.03524 19.771 7.54138C19.384 6.64933 18.4899 6.14643 17.3746 6.19297C16.3565 6.23563 15.4138 6.8355 15.2601 7.75341C15.0915 8.75405 15.1279 9.78573 15.074 10.82H19.8762V10.8213Z" fill="#EB7124"/>
<path d="M28.8286 22.4531C34.6154 22.4454 39.3367 26.956 39.3462 32.4984C39.3556 38.0433 34.6464 42.5734 28.8664 42.5811C23.0824 42.5889 18.3583 38.0756 18.3516 32.5346C18.3462 26.9832 23.046 22.4609 28.8286 22.4531ZM35.0874 38.5036C37.1318 36.8293 38.5492 33.1732 37.2114 29.6167C35.8642 26.0381 32.1151 23.7123 28.1759 24.02C24.1127 24.3368 20.8721 27.1422 20.102 31.0013C19.4952 34.042 20.9314 37.2844 22.6319 38.4751C23.6501 35.8636 25.5543 34.2334 28.4955 34.1002C31.782 33.9528 33.9168 35.6218 35.0874 38.5036ZM28.8826 41.0362C30.4361 41.0142 31.9128 40.6445 33.2911 39.8998C33.5743 39.7473 33.6511 39.5857 33.5945 39.2883C33.1967 37.2185 31.1266 35.6115 28.8394 35.6154C26.5576 35.618 24.4754 37.2469 24.1019 39.3077C24.052 39.5856 24.114 39.7434 24.381 39.8882C25.7728 40.6432 27.2643 41.0207 28.8826 41.0362Z" fill="#EB7124"/>
<path d="M32.8866 29.4383C32.8758 31.5637 31.0377 33.2987 28.8125 33.2857C26.5982 33.2728 24.7924 31.5042 24.8127 29.3685C24.8329 27.2638 26.6562 25.5417 28.8597 25.5469C31.0808 25.5521 32.8974 27.3077 32.8866 29.4383ZM28.7829 31.7369C30.1409 31.7641 31.2521 30.7453 31.2723 29.4551C31.2926 28.1765 30.242 27.1254 28.9164 27.0957C27.557 27.0647 26.4471 28.0834 26.4296 29.3762C26.4121 30.6574 27.4626 31.7111 28.7842 31.7369H28.7829Z" fill="#EB7124"/>
</svg>
