<svg width="48" height="48" viewBox="0 0 48 48" fill="none" xmlns="http://www.w3.org/2000/svg">
<g clip-path="url(#clip0_7192_38284)">
<path d="M15.2002 -0.0996094C23.637 -0.0996094 30.4998 6.76318 30.499 15.1992C30.499 16.0595 30.4124 16.8978 30.2744 17.7178C31.1071 17.5775 31.951 17.499 32.7979 17.499C41.2346 17.499 48.0975 24.3622 48.0977 32.7988C48.1034 35.802 47.2163 38.7384 45.5518 41.2373C45.8437 43.5666 46.8702 45.0036 47.4922 45.6807L47.7314 45.9258L47.8418 46.0488C47.9432 46.1784 48.0172 46.3278 48.0586 46.4883C48.1137 46.7023 48.1088 46.9274 48.0439 47.1387V47.1396C47.9109 47.5588 47.5563 47.8656 47.1201 47.9424L47.1211 47.9434C45.9105 48.1686 42.8486 48.4439 39.8115 46.3936C37.6529 47.5106 35.2414 48.0996 32.7979 48.0996C24.3611 48.0995 17.499 41.2365 17.499 32.7998L17.5156 32.1309C17.5445 31.509 17.6123 30.8894 17.7168 30.2754C16.8979 30.4133 16.0601 30.5 15.2002 30.5C12.7594 30.4998 10.3545 29.9139 8.18652 28.7939C5.14889 30.8441 2.0862 30.5678 0.869141 30.3418V30.3408C0.441057 30.2654 0.0862287 29.9587 -0.0458984 29.54V29.5391C-0.110731 29.3309 -0.117244 29.109 -0.0644531 28.8975C-0.0116162 28.6858 0.0987343 28.4922 0.253906 28.3389L0.254883 28.3379C0.818603 27.7983 2.1123 26.3009 2.44531 23.6387C0.780484 21.1344 -0.0985949 18.2242 -0.0986328 15.2002C-0.0986328 6.76349 6.76352 -0.0994237 15.2002 -0.0996094ZM32.7988 19.2998C31.8014 19.3025 30.8073 19.4165 29.835 19.6387C29.1003 22.0434 27.7872 24.2314 26.0088 26.0098C24.2304 27.7882 22.0424 29.1013 19.6377 29.8359C19.417 30.8098 19.2998 31.8036 19.2998 32.8008C19.2998 40.2447 25.3557 46.3007 32.7988 46.3008C35.1244 46.3006 37.4105 45.6987 39.4346 44.5537C39.5876 44.4667 39.7629 44.4268 39.9385 44.4385C40.0702 44.4473 40.1978 44.4846 40.3125 44.5479L40.4229 44.6191V44.6201C41.9227 45.7728 43.7768 46.3608 45.6631 46.291C44.8872 45.2612 43.955 43.5488 43.7256 41.0918C43.7067 40.8806 43.7623 40.6678 43.8838 40.4932L44.1709 40.0654C45.5626 37.902 46.303 35.3794 46.2979 32.7998C46.2977 25.3559 40.2419 19.2998 32.7988 19.2998ZM15.2002 1.7002C7.75718 1.70038 1.70117 7.75633 1.70117 15.2002L1.70996 15.7148C1.80349 18.2856 2.63691 20.7794 4.11523 22.8936C4.19063 23.0021 4.23717 23.1256 4.25977 23.2539L4.2998 23.2148L4.27441 23.4912C4.0456 25.9444 3.11584 27.6555 2.33594 28.6904C4.22244 28.7596 6.07655 28.1714 7.57715 27.0195V27.0186C7.71716 26.9119 7.88588 26.8486 8.06152 26.8369C8.23715 26.8252 8.41252 26.8659 8.56543 26.9531L8.94727 27.1611C10.8747 28.1709 13.02 28.7001 15.2002 28.7002C22.6433 28.7002 28.7001 22.6441 28.7002 15.2002C28.7002 7.75622 22.6434 1.7002 15.2002 1.7002Z" fill="#EB7124" stroke="#EB7124" stroke-width="0.2"/>
<path d="M37.6016 27.0459C37.7263 27.0459 37.8496 27.0704 37.9648 27.1182C38.0801 27.1659 38.1852 27.236 38.2734 27.3242C38.3615 27.4123 38.4318 27.5168 38.4795 27.6318C38.5272 27.747 38.5517 27.8705 38.5518 27.9951C38.5518 28.1199 38.5272 28.2441 38.4795 28.3594C38.4318 28.4744 38.3615 28.5789 38.2734 28.667L34.1445 32.7949L38.2734 36.9238C38.3616 37.0119 38.4317 37.1164 38.4795 37.2314C38.5273 37.3467 38.5518 37.4709 38.5518 37.5957C38.5517 37.7203 38.5272 37.8438 38.4795 37.959C38.4317 38.0742 38.3617 38.1794 38.2734 38.2676C38.1855 38.356 38.08 38.4257 37.9648 38.4736C37.8497 38.5215 37.7263 38.5459 37.6016 38.5459C37.4767 38.5459 37.3526 38.5216 37.2373 38.4736C37.1511 38.4377 37.0709 38.3892 36.999 38.3301L36.9297 38.2666L32.8008 34.1377L28.6729 38.2656L28.6738 38.2666C28.5858 38.3552 28.4806 38.4257 28.3652 38.4736C28.2499 38.5216 28.1258 38.5459 28.001 38.5459C27.8763 38.5458 27.7528 38.5215 27.6377 38.4736C27.5224 38.4257 27.4172 38.3552 27.3291 38.2666V38.2656C27.2414 38.1777 27.1716 38.0737 27.124 37.959C27.0763 37.8438 27.0518 37.7204 27.0518 37.5957C27.0518 37.4709 27.0762 37.3467 27.124 37.2314C27.1718 37.1163 27.2419 37.0119 27.3301 36.9238L31.458 32.7949L27.3301 28.667C27.242 28.5789 27.1718 28.4744 27.124 28.3594C27.0763 28.2441 27.0518 28.1199 27.0518 27.9951C27.0518 27.8705 27.0763 27.747 27.124 27.6318C27.1717 27.5167 27.2419 27.4124 27.3301 27.3242C27.4182 27.2361 27.5226 27.1659 27.6377 27.1182C27.7528 27.0705 27.8764 27.046 28.001 27.0459C28.1257 27.0459 28.25 27.0704 28.3652 27.1182C28.4803 27.1659 28.5847 27.2361 28.6729 27.3242L32.8008 31.4521L36.9297 27.3242C37.0179 27.236 37.123 27.1659 37.2383 27.1182C37.3535 27.0705 37.4769 27.0459 37.6016 27.0459ZM19.8682 9.43945C19.9936 9.41977 20.1219 9.42538 20.2451 9.45605C20.3683 9.48675 20.4844 9.54194 20.5859 9.61816C20.6875 9.69438 20.7721 9.79068 20.8359 9.90039C20.8998 10.0102 20.9419 10.1318 20.958 10.2578C20.9741 10.3836 20.9648 10.5116 20.9307 10.6338C20.8969 10.7545 20.8383 10.8664 20.7607 10.9648L20.7617 10.9658L13.5615 20.5664C13.3965 20.7855 13.1441 20.9222 12.8701 20.9424C12.844 20.9445 12.8191 20.9453 12.8018 20.9453C12.5498 20.9453 12.308 20.8452 12.1299 20.667L9.72949 18.2676C9.64144 18.1794 9.57112 18.0751 9.52344 17.96C9.47576 17.8449 9.45123 17.7213 9.45117 17.5967C9.45117 17.4719 9.4757 17.3477 9.52344 17.2324C9.57112 17.1173 9.64144 17.0129 9.72949 16.9248C9.8177 16.8366 9.92284 16.7665 10.0381 16.7188C10.1533 16.671 10.2767 16.6465 10.4014 16.6465C10.526 16.6465 10.6495 16.6711 10.7646 16.7188C10.8799 16.7665 10.985 16.8366 11.0732 16.9248L12.6982 18.5498L19.2422 9.82617C19.3152 9.72396 19.4079 9.63754 19.5146 9.57129C19.6226 9.50431 19.7427 9.45915 19.8682 9.43945Z" fill="#EB7124" stroke="#EB7124" stroke-width="0.3"/>
</g>
<defs>
<clipPath id="clip0_7192_38284">
<rect width="48" height="48" fill="white"/>
</clipPath>
</defs>
</svg>
