<svg width="48" height="48" viewBox="0 0 48 48" fill="none" xmlns="http://www.w3.org/2000/svg">
<path d="M47.9991 41.113C47.9671 41.2019 47.9258 41.2888 47.9042 41.3797C47.5087 43.0067 46.5779 44.1398 45.0271 44.5745C41.8775 45.4576 38.7167 46.2954 35.5541 47.1212C34.3602 47.4334 33.1569 47.7307 31.9415 47.9105C30.1417 48.1773 28.3955 47.8216 26.7123 47.1291C22.1237 45.2403 17.537 43.3426 12.9457 41.4597C12.677 41.35 12.3746 41.2908 12.0862 41.2848C11.0736 41.2641 10.0601 41.2769 8.97892 41.2769C8.97892 41.5713 8.98644 41.8282 8.97798 42.084C8.95356 42.8072 8.6032 43.1835 7.92783 43.1845C5.6312 43.1895 3.33457 43.1895 1.03794 43.1845C0.361637 43.1826 0.00281795 42.8012 0.00281795 42.0781C-0.000939316 36.3929 -0.000939316 30.7076 0.00281795 25.0224C0.00281795 24.2775 0.35788 23.8942 1.068 23.8863C2.2553 23.8735 3.44259 23.8824 4.62989 23.8824C4.79709 23.8824 4.96429 23.8824 5.12679 23.8824C5.0601 23.0052 4.97368 22.1902 4.93986 21.3732C4.80085 18.0994 5.39919 14.9727 6.68511 11.9913C6.90491 11.4816 7.26279 11.2672 7.72212 11.3354C8.12696 11.3956 8.49518 11.7552 8.49706 12.1938C8.49799 12.4754 8.40031 12.7717 8.28947 13.0355C7.26279 15.4923 6.75556 18.0638 6.79689 20.7429C6.81192 21.6755 6.95282 22.6051 7.01763 23.5376C7.03736 23.8221 7.15853 23.9061 7.40463 23.8824C8.65392 23.7609 9.07098 24.1965 8.9808 25.629C8.96953 25.8048 8.97892 25.9826 8.97892 26.2167H11.0614C11.0614 25.9895 11.0614 25.8137 11.0614 25.6378C11.0614 22.6633 11.0614 19.6898 11.0614 16.7153C11.0614 15.8015 11.3761 15.4706 12.2477 15.4706C14.4504 15.4686 16.6531 15.4706 18.8568 15.4706C19.0249 15.4706 19.1921 15.4706 19.41 15.4706C19.41 15.2464 19.41 15.0705 19.41 14.8947C19.41 13.317 19.4063 11.7394 19.4119 10.1627C19.4147 9.38824 19.7679 8.99803 20.5015 9.00001C23.2039 9.00495 25.9073 9.01977 28.6097 9.04249C29.3179 9.04841 29.6336 9.41986 29.6345 10.2032C29.6373 13.4237 29.6354 16.6442 29.6354 19.8647C29.6354 20.0593 29.6354 20.2549 29.6354 20.5078C29.8411 20.5197 30.0205 20.5384 30.2 20.5384C32.2937 20.5404 34.3874 20.5394 36.4802 20.5394C37.7793 20.5394 37.9878 20.7548 37.9878 22.0973C37.9878 25.3178 37.9878 28.5383 37.9878 31.7587V32.3781C38.1118 32.2626 38.1964 32.2053 38.2546 32.1272C41.3712 27.9821 42.5491 23.2719 41.9564 18.049C41.9067 17.6094 41.8155 17.1757 41.7432 16.739C41.6399 16.1068 41.9245 15.5931 42.4393 15.4815C43.001 15.359 43.4697 15.6949 43.5852 16.3488C44.7246 22.777 43.4218 28.5669 39.4776 33.6624C39.2709 33.9301 39.0831 34.2423 38.8191 34.427C37.7182 35.1985 37.9888 36.3366 38.0094 37.4706C39.611 37.0854 41.1824 36.7426 42.7351 36.3257C45.4864 35.5868 47.6346 37.5694 47.9267 39.7092C47.9324 39.7526 47.9728 39.7902 47.9972 39.8307V41.112L47.9991 41.113ZM8.99771 39.3051C10.1446 39.3051 11.2361 39.2864 12.3257 39.315C12.6902 39.3249 13.0725 39.398 13.4125 39.5373C18.0762 41.4459 22.7352 43.3703 27.3933 45.2946C29.1705 46.0286 31.005 46.2667 32.8601 45.7915C36.7235 44.8027 40.5738 43.7565 44.424 42.7113C45.6705 42.3735 46.3477 41.1683 46.0556 39.9265C45.7485 38.6235 44.6156 37.9122 43.3175 38.2224C40.4582 38.906 37.5933 39.565 34.7453 40.293C32.1829 40.949 29.688 40.8946 27.212 39.8672C24.3264 38.6689 21.4192 37.5279 18.5224 36.3593C17.8038 36.0698 17.5248 35.5739 17.7352 34.9802C17.9409 34.4003 18.4782 34.2294 19.1959 34.5149C19.225 34.5268 19.2541 34.5396 19.2832 34.5515C21.2483 35.3457 23.2124 36.141 25.1784 36.9323C25.8716 37.2108 26.5629 37.1931 27.2129 36.8107C28.094 36.2931 28.5458 35.4821 28.4998 34.4191C28.4538 33.368 27.9268 32.6389 27.0035 32.2359C23.9939 30.922 20.9834 29.6091 17.9701 28.3041C17.7897 28.2261 17.5784 28.1945 17.3811 28.1935C14.7257 28.1866 12.0702 28.1885 9.41477 28.1895C9.27951 28.1895 9.14518 28.2073 8.99959 28.2182V39.3041L8.99771 39.3051ZM21.3084 11.0123C21.299 11.1121 21.2868 11.1763 21.2868 11.2415C21.2858 16.581 21.2877 21.9205 21.2793 27.2599C21.2793 27.5415 21.3798 27.661 21.6118 27.7598C22.8836 28.3012 24.1508 28.8564 25.4188 29.4076C26.1778 29.7375 26.9368 30.0665 27.7305 30.4113V11.0123H21.3084ZM29.6627 22.5418C29.6514 22.6643 29.6373 22.7444 29.6373 22.8244C29.6364 25.7821 29.6326 28.7398 29.6439 31.6975C29.6439 31.8951 29.7275 32.1094 29.8214 32.2873C30.54 33.6505 30.6048 35.0563 29.9604 36.4423C29.6993 37.0034 29.6307 37.5438 29.626 38.1375C29.6232 38.4842 29.7125 38.6077 30.0544 38.668C32.1406 39.0345 34.1028 38.423 36.0885 37.9182V22.5408H29.6627V22.5418ZM1.90775 25.8779V41.1782H7.06554V25.8779H1.90775ZM19.3781 26.8312V17.479H12.9748V26.2177C13.8568 26.2177 14.6994 26.196 15.54 26.2227C16.8185 26.2632 18.1429 25.954 19.3772 26.8312H19.3781Z" fill="#EB7124"/>
<path d="M24.8618 1.09753e-05C26.8475 0.0217443 29.0803 0.424798 31.2369 1.27339C31.8822 1.52727 32.1499 2.02318 31.9593 2.59813C31.7752 3.15233 31.2397 3.35583 30.5972 3.12763C24.0342 0.802168 18.0893 1.96885 12.7671 6.62966C12.1566 7.1641 11.4972 7.11273 11.1759 6.49432C10.9486 6.05768 11.0407 5.60325 11.454 5.21798C13.6595 3.16122 16.1722 1.68138 19.0042 0.815998C20.8124 0.262786 22.6628 -0.00196478 24.8618 1.09753e-05Z" fill="#EB7124"/>
<path d="M33.8557 14.4426C33.5466 14.171 33.2376 13.9942 33.0638 13.7225C32.8496 13.3876 32.921 12.9905 33.1784 12.6714C33.6631 12.0698 34.1562 11.4761 34.6475 10.8804C36.6858 8.41264 38.7251 5.94394 40.7653 3.4772C41.2284 2.91708 41.7469 2.82422 42.193 3.21245C42.6486 3.60859 42.6486 4.19934 42.1761 4.77231C39.6888 7.7883 37.2024 10.8043 34.701 13.8074C34.5 14.0495 34.1929 14.1937 33.8547 14.4417L33.8557 14.4426Z" fill="#EB7124"/>
<path d="M40.1664 9.84377C41.4702 9.83785 42.5269 10.9285 42.5391 12.2927C42.5514 13.6382 41.4824 14.7753 40.1974 14.7842C38.904 14.793 37.8435 13.6886 37.836 12.3253C37.8275 10.9522 38.8636 9.8497 40.1674 9.84377H40.1664ZM40.0894 12.8864C40.1589 12.8845 40.2284 12.8815 40.297 12.8795C40.4172 12.6849 40.6492 12.4755 40.6267 12.3016C40.6032 12.1228 40.3515 11.8847 40.1655 11.8423C39.8856 11.78 39.6817 12.029 39.7353 12.3204C39.7729 12.5259 39.9664 12.6987 40.0894 12.8864Z" fill="#EB7124"/>
<path d="M37.3206 5.15432C37.3225 6.52648 36.2836 7.62303 34.9789 7.62698C33.6817 7.63093 32.6269 6.52648 32.625 5.16223C32.6231 3.80587 33.6874 2.68068 34.9724 2.67969C36.2658 2.6787 37.3188 3.78908 37.3206 5.15531V5.15432ZM34.8681 5.72532C34.9414 5.72532 35.0146 5.72532 35.0879 5.72532C35.2062 5.53564 35.4354 5.32918 35.412 5.16124C35.3857 4.97453 35.1283 4.82437 34.9724 4.65841C34.8155 4.82635 34.5572 4.97848 34.5328 5.16519C34.5112 5.33313 34.746 5.53762 34.8681 5.7263V5.72532Z" fill="#EB7124"/>
<path d="M8.59379 8.95151C8.59849 8.40126 8.99206 7.98536 9.51056 7.98438C10.046 7.98339 10.4593 8.42793 10.4433 8.99004C10.4283 9.52053 9.99525 9.95914 9.49741 9.9463C8.99018 9.93346 8.58909 9.49287 8.59379 8.9525V8.95151Z" fill="#EB7124"/>
</svg>
