<svg width="48" height="48" viewBox="0 0 48 48" fill="none" xmlns="http://www.w3.org/2000/svg">
<path d="M20.9987 43.6891H1.51245C1.10622 43.6891 0.721875 43.5297 0.437518 43.2391C0.150037 42.9485 -0.0030779 42.5642 4.68938e-05 42.1579C0.0219205 40.2799 0.156287 36.7802 0.815619 34.4303C1.01873 33.7022 1.26871 33.1085 1.59682 32.5586C1.87493 32.093 2.67487 30.9243 4.11228 30.115C5.44032 29.3681 6.71211 29.2557 7.54331 29.2963C7.69017 29.3025 7.83079 29.3525 7.94953 29.44L11.1712 31.7899L14.5772 29.4306C14.6928 29.3494 14.8303 29.3056 14.9709 29.2963C15.8053 29.2588 17.0739 29.3681 18.402 30.115C19.8363 30.9212 20.6393 32.093 20.9174 32.5586C21.2455 33.1085 21.4955 33.7054 21.6986 34.4303C22.358 36.7802 22.4923 40.2799 22.5142 42.1579C22.5205 42.5642 22.3642 42.9485 22.0767 43.2391C21.7861 43.5297 21.4049 43.6891 20.9987 43.6891ZM11.2274 42.1892H20.9987C21.0018 42.1892 21.0049 42.1892 21.0081 42.1861C21.0112 42.1829 21.0112 42.1798 21.0112 42.1767C20.9893 40.3737 20.8643 37.0208 20.2519 34.8365C20.0831 34.2335 19.8894 33.7679 19.6269 33.3273C19.4113 32.9648 18.7863 32.0555 17.6645 31.4243C16.7583 30.9149 15.8865 30.7899 15.2584 30.7899H15.2491L11.5868 33.3273C11.3243 33.5085 10.9743 33.5054 10.7181 33.3179L7.25583 30.7931C6.62774 30.7931 5.75592 30.9149 4.84661 31.4274C3.7248 32.0586 3.09985 32.9679 2.88423 33.3304C2.62175 33.771 2.43114 34.2335 2.25928 34.8397C1.64682 37.0239 1.52182 40.3768 1.49995 42.1798C1.49995 42.1829 1.49995 42.1861 1.50307 42.1892C1.5062 42.1923 1.50932 42.1923 1.51245 42.1923L11.2274 42.1892Z" fill="#EB7124"/>
<path d="M5.17183 43.6876C4.75623 43.6876 4.42188 43.3532 4.42188 42.9376V37.038C4.42188 36.6224 4.75623 36.288 5.17183 36.288C5.58742 36.288 5.92178 36.6224 5.92178 37.038V42.9376C5.92178 43.3501 5.58742 43.6876 5.17183 43.6876ZM17.3335 43.6876C16.9179 43.6876 16.5836 43.3532 16.5836 42.9376V37.038C16.5836 36.6224 16.9179 36.288 17.3335 36.288C17.7491 36.288 18.0835 36.6224 18.0835 37.038V42.9376C18.0835 43.3501 17.746 43.6876 17.3335 43.6876ZM11.2808 29.6478C9.77465 29.6478 8.36224 29.0041 7.30606 27.8323C6.26863 26.6824 5.69679 25.1606 5.69679 23.5451V21.2828C5.69679 20.964 5.8999 20.6797 6.20301 20.5734C6.46549 20.4797 7.24669 20.1391 7.66541 19.6735C7.93102 19.3766 8.37474 19.336 8.6841 19.586C8.72472 19.6141 9.29031 20.0266 10.2652 20.236C11.612 20.5234 13.0682 20.3047 14.59 19.586C14.8837 19.4485 15.2305 19.5141 15.4555 19.7485C15.4618 19.7547 16.018 20.336 16.5148 20.6453C16.7367 20.7828 16.8711 21.0234 16.8711 21.2828V23.5451C16.8711 25.1606 16.2992 26.6855 15.2618 27.8323C14.1994 29.0041 12.787 29.6478 11.2808 29.6478ZM7.19669 21.7827V23.5451C7.19669 26.0825 9.03095 28.1479 11.2839 28.1479C13.5369 28.1479 15.368 26.0825 15.368 23.5451V21.6765C15.1368 21.5046 14.9212 21.314 14.7493 21.1546C12.6463 22.0233 10.9433 21.9296 9.85277 21.6796C9.18407 21.5265 8.66535 21.3015 8.30912 21.1109C7.92477 21.414 7.50917 21.6359 7.19669 21.7827Z" fill="#EB7124"/>
<path d="M6.4484 22.0296C6.15779 22.0296 5.88281 21.8608 5.76095 21.5765C5.48909 20.9484 5.44847 20.2859 5.41097 19.7016C5.37972 19.2235 5.34535 18.6298 5.48284 18.0454C5.60471 17.5298 5.90781 16.983 6.40153 16.3799C6.47965 16.2862 6.55777 16.1924 6.64214 16.1049C7.97018 14.6863 10.1419 14.1301 10.5669 14.0332C11.395 13.8426 12.1887 13.7738 12.9261 13.8332C13.4448 13.8738 13.8823 13.9457 14.2698 14.0551C14.8197 14.2082 15.2541 14.5082 15.5197 14.9206C15.6509 15.1269 15.7322 15.33 15.8009 15.5081C15.8572 15.6518 15.9072 15.7862 15.9634 15.8518C16.054 15.9581 16.179 16.0549 16.3228 16.1706C16.4915 16.3049 16.6852 16.4549 16.8633 16.6549C17.2852 17.1299 17.7602 17.9267 17.8352 18.736C17.9039 19.4922 17.6102 20.1453 17.3446 20.6265C17.3383 20.639 17.3227 20.6671 17.3008 20.7109C16.8508 21.5796 16.754 21.714 16.629 21.8296C16.3228 22.1077 15.8478 22.0889 15.5697 21.7827C15.3103 21.4983 15.3103 21.0702 15.5541 20.789C15.5947 20.7296 15.6978 20.5484 15.9697 20.0234C16.0009 19.9641 16.0228 19.9234 16.029 19.9109C16.2696 19.4703 16.3665 19.1516 16.3415 18.8735C16.3103 18.5173 16.0634 18.0142 15.7415 17.6517C15.6541 17.5517 15.5322 17.458 15.3978 17.3486C15.2166 17.2049 15.0103 17.0424 14.8229 16.8205C14.6041 16.5612 14.4948 16.2768 14.4073 16.0487C14.3604 15.9268 14.3135 15.8081 14.2666 15.7331C14.1791 15.5987 13.9823 15.5269 13.8698 15.4956C13.5792 15.4144 13.2323 15.3581 12.8136 15.3269C12.2293 15.2831 11.5856 15.3394 10.9075 15.4956C9.94505 15.7175 8.54201 16.2768 7.74207 17.1299C7.6827 17.1955 7.62333 17.2611 7.56708 17.3299C7.13898 17.8517 6.99212 18.1986 6.94524 18.3954C6.85775 18.7641 6.88587 19.2141 6.91087 19.611C6.94212 20.0953 6.97337 20.5953 7.13898 20.9827C7.3046 21.364 7.12961 21.8046 6.74838 21.9671C6.64839 22.0077 6.54527 22.0296 6.4484 22.0296ZM15.6134 20.7234C15.6134 20.7265 15.6134 20.7265 15.6134 20.7234V20.7234ZM8.37328 31.4258C8.26703 31.4258 8.15766 31.4039 8.05455 31.354C7.67957 31.179 7.51708 30.7321 7.69519 30.3571C7.82644 30.0759 8.05142 29.5103 8.06705 28.9041C8.0733 28.6729 8.04517 28.576 7.99205 28.3854C7.97955 28.3416 7.96705 28.2948 7.95455 28.2479C7.84831 27.8479 8.08892 27.4386 8.49202 27.3323C8.89199 27.2292 9.30134 27.4667 9.40758 27.8698C9.41696 27.9104 9.42946 27.951 9.43883 27.9885C9.50445 28.226 9.57945 28.4916 9.56695 28.9479C9.54507 29.7853 9.27634 30.5259 9.05448 31.0008C8.92636 31.2665 8.65451 31.4258 8.37328 31.4258ZM14.0823 31.4289C13.8104 31.4289 13.5479 31.279 13.4136 31.0196C13.0448 30.2978 12.8386 29.5447 12.8199 28.8385C12.8105 28.4791 12.8542 28.2385 12.9011 28.0542C12.9761 27.7198 13.2761 27.4698 13.6323 27.4698C14.0479 27.4698 14.3823 27.8042 14.3823 28.2198C14.3823 28.2823 14.3729 28.3448 14.3604 28.4041C14.3354 28.501 14.3135 28.601 14.3198 28.801C14.3354 29.4103 14.5604 29.9728 14.7479 30.3384C14.9353 30.7071 14.7916 31.1602 14.4229 31.3477C14.3135 31.4008 14.1979 31.4289 14.0823 31.4289ZM46.4833 43.6844H26.9971C26.5908 43.6844 26.2065 43.525 25.9221 43.2344C25.6347 42.9438 25.4815 42.5595 25.4847 42.1532C25.5065 40.2752 25.6409 36.7755 26.3002 34.4256C26.5033 33.6975 26.7533 33.1038 27.0814 32.5539C27.3595 32.0883 28.1595 30.9196 29.5969 30.1103C30.9249 29.3635 32.1967 29.251 33.0279 29.2916C33.1748 29.2978 33.3154 29.3478 33.4341 29.4353L36.6558 31.7852L40.0618 29.426C40.1775 29.3447 40.3149 29.301 40.4556 29.2916C41.2899 29.2541 42.5586 29.3635 43.8866 30.1103C45.3209 30.9165 46.1239 32.0883 46.4021 32.5539C46.7302 33.1038 46.9801 33.7007 47.1833 34.4256C47.8426 36.7755 47.9769 40.2752 47.9988 42.1532C48.0051 42.5595 47.8488 42.9438 47.5613 43.2344C47.2707 43.525 46.8895 43.6844 46.4833 43.6844ZM36.7152 42.1845H46.4833C46.4864 42.1845 46.4895 42.1845 46.4927 42.1814C46.4958 42.1782 46.4958 42.1751 46.4958 42.172C46.4739 40.369 46.3489 37.0161 45.7365 34.8319C45.5677 34.2288 45.374 33.7632 45.1115 33.3226C44.8959 32.9601 44.2709 32.0508 43.1491 31.4196C42.2429 30.9102 41.3711 30.7852 40.7399 30.7852H40.7305L37.0683 33.3226C36.8058 33.5038 36.4558 33.5007 36.1996 33.3132L32.7373 30.7884C32.1092 30.7884 31.2374 30.9102 30.3281 31.4227C29.2063 32.0539 28.5813 32.9632 28.3657 33.3257C28.1032 33.7663 27.9095 34.2288 27.7408 34.835C27.1283 37.0192 27.0033 40.3721 26.9814 42.1751C26.9814 42.1782 26.9814 42.1814 26.9846 42.1845C26.9877 42.1876 26.9908 42.1876 26.9939 42.1876L36.7152 42.1845Z" fill="#EB7124"/>
<path d="M30.6562 43.6876C30.2406 43.6876 29.9062 43.3532 29.9062 42.9376V37.038C29.9062 36.6224 30.2406 36.288 30.6562 36.288C31.0718 36.288 31.4062 36.6224 31.4062 37.038V42.9376C31.4062 43.3501 31.0718 43.6876 30.6562 43.6876ZM42.8179 43.6876C42.4023 43.6876 42.068 43.3532 42.068 42.9376V37.038C42.068 36.6224 42.4023 36.288 42.8179 36.288C43.2335 36.288 43.5679 36.6224 43.5679 37.038V42.9376C43.5679 43.3501 43.2335 43.6876 42.8179 43.6876ZM36.7652 29.6478C35.259 29.6478 33.8466 29.0041 32.7904 27.8323C31.753 26.6824 31.1812 25.1606 31.1812 23.5451V21.2828C31.1812 20.964 31.3843 20.6797 31.6874 20.5734C31.9499 20.4797 32.7311 20.1391 33.1498 19.6735C33.4185 19.3766 33.8591 19.336 34.1685 19.586C34.2091 19.6141 34.7747 20.0266 35.7496 20.236C37.0964 20.5234 38.5526 20.3047 40.0743 19.586C40.3681 19.4485 40.7149 19.5141 40.9399 19.7485C40.9462 19.7547 41.4992 20.336 41.9992 20.6453C42.2211 20.7828 42.3554 21.0234 42.3554 21.2828V23.5451C42.3554 25.1606 41.7836 26.6855 40.7462 27.8323C39.6837 29.0041 38.2713 29.6478 36.7652 29.6478ZM32.6811 21.7827V23.5451C32.6811 26.0825 34.5153 28.1479 36.7683 28.1479C39.0213 28.1479 40.8555 26.0825 40.8555 23.5451V21.6765C40.6243 21.5046 40.4087 21.314 40.2368 21.1546C38.1338 22.0233 36.4308 21.9296 35.3403 21.6796C34.6716 21.5265 34.1497 21.3015 33.7966 21.1109C33.4091 21.414 32.9936 21.6359 32.6811 21.7827Z" fill="#EB7124"/>
<path d="M31.9368 22.0332C31.6462 22.0332 31.3712 21.8645 31.2494 21.5801C30.9775 20.952 30.9369 20.2896 30.8994 19.7052C30.8713 19.2271 30.8338 18.6334 30.9712 18.0491C31.0931 17.5335 31.3962 16.9867 31.8899 16.3836C31.9681 16.2898 32.0493 16.1961 32.1305 16.1086C33.4555 14.6899 35.6303 14.1337 36.0553 14.0369C36.8834 13.8462 37.6771 13.7775 38.4145 13.8369C38.9332 13.8775 39.3707 13.9494 39.7582 14.0587C40.3081 14.2119 40.7425 14.5118 41.0081 14.9243C41.1393 15.1274 41.2206 15.3337 41.2893 15.5118C41.3456 15.6555 41.3956 15.7899 41.4518 15.8555C41.5424 15.9617 41.6674 16.0586 41.8112 16.1742C41.9799 16.3086 42.1736 16.4586 42.3518 16.6586C42.7736 17.1335 43.2486 17.9304 43.3236 18.7397C43.3923 19.4959 43.0986 20.149 42.833 20.6302C42.8267 20.6427 42.8111 20.6708 42.7892 20.7146C42.3393 21.5832 42.2424 21.7176 42.1174 21.8332C41.8112 22.1113 41.3362 22.0926 41.0581 21.7864C40.7987 21.502 40.7987 21.0739 41.0425 20.7927C41.0831 20.7333 41.1862 20.5521 41.4581 20.0271C41.4893 19.9677 41.5112 19.9271 41.5174 19.9146C41.758 19.474 41.8549 19.1553 41.8299 18.8772C41.7987 18.5209 41.5518 18.0179 41.23 17.6554C41.1425 17.5554 41.0206 17.4616 40.8831 17.3523C40.7019 17.2085 40.4956 17.046 40.3081 16.8242C40.0894 16.5648 39.98 16.2805 39.8925 16.0524C39.8457 15.9305 39.7988 15.8117 39.7519 15.7368C39.6644 15.6024 39.4676 15.5305 39.3551 15.4993C39.0645 15.418 38.7176 15.3618 38.2989 15.3305C37.7146 15.2868 37.0709 15.343 36.3928 15.4993C35.4303 15.7211 34.0273 16.2805 33.2274 17.1335C33.168 17.1992 33.1086 17.2648 33.0524 17.3335C32.6243 17.8554 32.4774 18.2022 32.4305 18.3991C32.343 18.7678 32.3712 19.2178 32.3962 19.6146C32.4274 20.099 32.4587 20.5989 32.6243 20.9864C32.7899 21.3676 32.6149 21.8082 32.2337 21.9707C32.1368 22.0113 32.0368 22.0332 31.9368 22.0332ZM41.1018 20.7271C41.1018 20.7302 41.1018 20.7302 41.1018 20.7271V20.7271ZM33.8617 31.4295C33.7554 31.4295 33.6461 31.4076 33.543 31.3576C33.168 31.1826 33.0055 30.7358 33.1805 30.3608C33.3117 30.0796 33.5367 29.514 33.5523 28.9078C33.5586 28.6765 33.5305 28.5797 33.4773 28.3891C33.4648 28.3453 33.4523 28.2984 33.4398 28.2516C33.3367 27.8516 33.5742 27.4422 33.9773 27.336C34.3773 27.2329 34.7866 27.4704 34.8929 27.8735C34.9022 27.9141 34.9147 27.9547 34.9241 27.9922C34.9897 28.2297 35.0647 28.4953 35.0522 28.9515C35.0304 29.789 34.7616 30.5295 34.5398 31.0045C34.4148 31.2701 34.146 31.4295 33.8617 31.4295ZM39.5707 31.4326C39.2988 31.4326 39.0364 31.2826 38.902 31.0233C38.5333 30.3014 38.327 29.5484 38.3083 28.8421C38.2989 28.4828 38.3426 28.2422 38.3895 28.0578C38.4645 27.7235 38.7645 27.4735 39.1207 27.4735C39.5363 27.4735 39.8707 27.8078 39.8707 28.2234C39.8707 28.2859 39.8613 28.3484 39.8488 28.4078C39.8238 28.5047 39.8019 28.6047 39.8082 28.8047C39.8238 29.414 40.0488 29.9764 40.2363 30.3421C40.4269 30.7108 40.28 31.1639 39.9113 31.3514C39.805 31.4045 39.6863 31.4326 39.5707 31.4326ZM28.1902 10.1246C27.8777 10.1246 27.5871 9.92775 27.4809 9.6184C27.3465 9.2278 27.5527 8.7997 27.9464 8.66534C28.5589 8.45597 28.9683 7.87789 28.9683 7.23105C28.9683 6.39361 28.287 5.71553 27.4527 5.71553H24.3592C23.5217 5.71553 22.8437 6.39673 22.8437 7.23105C22.8437 7.81227 23.1686 8.33411 23.6936 8.59347C24.0654 8.7747 24.2186 9.22467 24.0342 9.59653C23.853 9.96838 23.403 10.1215 23.0311 9.94025C22.5343 9.69652 22.1125 9.31842 21.8125 8.8497C21.5062 8.36536 21.3438 7.80914 21.3438 7.23418C21.3438 5.57179 22.6968 4.21875 24.3592 4.21875H27.4527C29.1151 4.21875 30.4682 5.57179 30.4682 7.23418C30.4682 8.5216 29.6495 9.6684 28.4339 10.0871C28.3527 10.1121 28.2714 10.1246 28.1902 10.1246Z" fill="#EB7124"/>
<path d="M23.6413 12.5152H20.5478C18.8854 12.5152 17.5324 11.1622 17.5324 9.49977C17.5324 8.87481 17.7198 8.27798 18.0792 7.76864C18.4292 7.27179 18.9104 6.89682 19.476 6.68121C19.8635 6.53434 20.2978 6.72808 20.4447 7.11555C20.5915 7.50303 20.3978 7.93738 20.0103 8.08424C19.426 8.3061 19.0323 8.87482 19.0323 9.5029C19.0323 10.3403 19.7135 11.0184 20.5478 11.0184H23.6413C24.4788 11.0184 25.1569 10.3372 25.1569 9.5029C25.1569 8.89044 24.7913 8.34048 24.2257 8.10299C23.8444 7.94363 23.6632 7.50303 23.8257 7.1218C23.9851 6.74058 24.4257 6.55934 24.8069 6.72183C25.9287 7.19367 26.6568 8.28423 26.6568 9.5029C26.6568 11.1622 25.3037 12.5152 23.6413 12.5152ZM11.2578 11.3278C10.8422 11.3278 10.5078 10.9934 10.5078 10.5778V6.7812C10.5078 6.3656 10.8422 6.03125 11.2578 6.03125H15.0513C15.4669 6.03125 15.8012 6.3656 15.8012 6.7812C15.8012 7.1968 15.4669 7.53115 15.0513 7.53115H12.0077V10.5747C12.0077 10.9903 11.6734 11.3278 11.2578 11.3278ZM36.7436 11.3278C36.328 11.3278 35.9937 10.9934 35.9937 10.5778V7.53428H32.9501C32.5345 7.53428 32.2002 7.19992 32.2002 6.78433C32.2002 6.36873 32.5345 6.03437 32.9501 6.03437H36.7436C37.1592 6.03437 37.4936 6.36873 37.4936 6.78433V10.5778C37.4936 10.9903 37.1592 11.3278 36.7436 11.3278Z" fill="#EB7124"/>
</svg>
