<svg width="48" height="48" viewBox="0 0 48 48" fill="none" xmlns="http://www.w3.org/2000/svg">
<path d="M47.193 36.6068L29.081 5.47697C28.0164 3.64716 26.1169 2.55469 24 2.55469C21.883 2.55469 19.9835 3.64716 18.9189 5.47697L0.807053 36.6068C-0.263759 38.4472 -0.26929 40.6479 0.792241 42.4938C1.85377 44.3396 3.75877 45.4415 5.88802 45.4415H42.1118C44.2411 45.4415 46.1461 44.3395 47.2077 42.4937C48.2693 40.6479 48.2637 38.4473 47.193 36.6068ZM45.7517 41.6564C44.9935 42.9748 43.6328 43.762 42.1119 43.762H5.88802C4.36712 43.762 3.00643 42.9749 2.24818 41.6565C1.48993 40.3381 1.49387 38.7661 2.25868 37.4515L20.3706 6.32166C21.1311 5.01459 22.4878 4.23431 24 4.23431C25.5121 4.23431 26.8688 5.01459 27.6293 6.32166L45.7412 37.4514C46.506 38.7661 46.51 40.338 45.7517 41.6564Z" fill="#EB7124"/>
<path d="M23.9997 32.8442C21.6844 32.8442 19.8008 34.7278 19.8008 37.0431C19.8008 39.3584 21.6844 41.242 23.9997 41.242C26.3149 41.242 28.1985 39.3583 28.1985 37.0431C28.1985 34.7278 26.3149 32.8442 23.9997 32.8442ZM23.9997 39.5624C22.6105 39.5624 21.4803 38.4322 21.4803 37.043C21.4803 35.6538 22.6105 34.5237 23.9997 34.5237C25.3888 34.5237 26.519 35.6538 26.519 37.043C26.519 38.4323 25.3888 39.5624 23.9997 39.5624ZM23.9997 30.7447C26.0834 30.7447 27.7786 29.0495 27.7786 26.9657V16.8883C27.7786 14.8046 26.0834 13.1094 23.9997 13.1094C21.9159 13.1094 20.2207 14.8046 20.2207 16.8883V26.9657C20.2207 29.0495 21.9159 30.7447 23.9997 30.7447ZM21.9002 16.8883C21.9002 15.7307 22.842 14.7889 23.9997 14.7889C25.1573 14.7889 26.0991 15.7307 26.0991 16.8883V26.9657C26.0991 28.1233 25.1573 29.0652 23.9997 29.0652C22.842 29.0652 21.9002 28.1233 21.9002 26.9657V16.8883Z" fill="#EB7124"/>
</svg>
