<svg width="48" height="48" viewBox="0 0 48 48" fill="none" xmlns="http://www.w3.org/2000/svg">
<g clip-path="url(#clip0_7226_44570)">
<path d="M47.1828 22.6442C44.3065 22.5436 41.4921 22.9664 38.8478 23.8699C38.7952 21.0457 38.2278 18.277 37.1553 15.6228C37.1137 15.5197 37.0521 15.4258 36.9742 15.3465C36.8963 15.2672 36.8035 15.204 36.7011 15.1606C36.5988 15.1172 36.4889 15.0943 36.3777 15.0933C36.2665 15.0924 36.1562 15.1133 36.0531 15.155C34.378 15.8318 32.8092 16.6866 31.3588 17.7086C29.6176 14.2746 27.3475 11.1452 24.5976 8.39635C24.2669 8.06579 23.731 8.06579 23.4005 8.39644C20.6494 11.1475 18.3795 14.2764 16.6396 17.7073C15.1901 16.6859 13.6219 15.8315 11.9473 15.155C11.8442 15.1133 11.7339 15.0924 11.6227 15.0933C11.5115 15.0943 11.4017 15.1172 11.2993 15.1606C11.197 15.204 11.1042 15.2672 11.0263 15.3465C10.9483 15.4258 10.8868 15.5197 10.8451 15.6228C9.77086 18.2813 9.2032 21.0546 9.15211 23.8836C6.54389 22.9872 3.73317 22.5426 0.817079 22.6442C0.705967 22.6481 0.596705 22.6738 0.495534 22.7199C0.394362 22.766 0.303262 22.8316 0.227436 22.9129C0.15161 22.9942 0.0925431 23.0896 0.0536081 23.1938C0.014673 23.2979 -0.00336743 23.4087 0.000516829 23.5198C0.438048 36.0481 10.7685 45.9416 23.2082 45.9416C23.4708 45.9416 23.7357 45.9368 24 45.9281C24.2651 45.937 24.5287 45.9416 24.792 45.9416C37.2306 45.9416 47.5621 36.0474 47.9996 23.5198C48.0073 23.2954 47.9257 23.0771 47.7725 22.9129C47.6193 22.7487 47.4072 22.652 47.1828 22.6442ZM12.1071 17.064C14.4927 18.1379 16.6305 19.6126 18.4719 21.456C20.4487 23.4317 21.999 25.7407 23.0866 28.3216C22.3611 30.1958 21.8851 32.1329 21.6632 34.1091C19.1675 29.8713 15.3691 26.5038 10.8427 24.5392C10.815 21.9867 11.2393 19.4784 12.1071 17.064ZM1.73995 24.3232C7.17305 24.3464 12.3212 26.383 16.3175 30.1098C20.3141 33.8366 22.705 38.8295 23.1069 44.2482C11.9068 44.1955 2.57367 35.4923 1.73995 24.3232ZM19.6693 20.2588C19.1404 19.7297 18.5862 19.2265 18.0086 18.751C19.5593 15.6239 21.5704 12.7554 23.9993 10.2069C26.4269 12.7537 28.4378 15.6223 29.9897 18.7523C29.4127 19.2273 28.8589 19.7299 28.3305 20.2584C26.5735 22.0123 25.1112 24.0383 23.9999 26.2583C22.8868 24.0369 21.4359 22.0243 19.6693 20.2588ZM23.9966 39.5835C23.7779 38.8042 23.5183 38.037 23.2188 37.285C23.2131 37.0912 23.2103 36.8973 23.2105 36.7034C23.2105 33.9287 23.7402 31.2118 24.7846 28.628C25.8787 25.9208 27.4744 23.5077 29.5278 21.4556C31.37 19.6123 33.5082 18.1377 35.8935 17.064C36.7593 19.4732 37.1835 21.9758 37.1578 24.5224C34.7464 25.5655 32.5063 27.0263 30.5279 28.8713C27.3608 31.8245 25.13 35.5155 23.9966 39.5835ZM24.8931 44.2481C25.2951 38.8295 27.6857 33.8366 31.6824 30.1097C35.6791 26.3827 40.8264 24.346 46.26 24.3231C45.4261 35.493 36.0942 44.1966 24.8931 44.2481Z" fill="#EB7124"/>
<path d="M1.31931 20.1699C1.78691 20.1699 2.16597 19.7908 2.16597 19.3232C2.16597 18.8556 1.78691 18.4766 1.31931 18.4766C0.851717 18.4766 0.472656 18.8556 0.472656 19.3232C0.472656 19.7908 0.851717 20.1699 1.31931 20.1699Z" fill="#EB7124"/>
<path d="M11.6318 10.7714C12.0994 10.7714 12.4785 10.3924 12.4785 9.92478C12.4785 9.45719 12.0994 9.07812 11.6318 9.07812C11.1642 9.07812 10.7852 9.45719 10.7852 9.92478C10.7852 10.3924 11.1642 10.7714 11.6318 10.7714Z" fill="#EB7124"/>
<path d="M23.999 3.75581C24.4666 3.75581 24.8457 3.37675 24.8457 2.90916C24.8457 2.44156 24.4666 2.0625 23.999 2.0625C23.5314 2.0625 23.1523 2.44156 23.1523 2.90916C23.1523 3.37675 23.5314 3.75581 23.999 3.75581Z" fill="#EB7124"/>
<path d="M36.3701 10.7714C36.8377 10.7714 37.2168 10.3924 37.2168 9.92478C37.2168 9.45719 36.8377 9.07812 36.3701 9.07812C35.9025 9.07812 35.5234 9.45719 35.5234 9.92478C35.5234 10.3924 35.9025 10.7714 36.3701 10.7714Z" fill="#EB7124"/>
<path d="M46.6787 20.1699C47.1463 20.1699 47.5253 19.7908 47.5253 19.3232C47.5253 18.8556 47.1463 18.4766 46.6787 18.4766C46.2111 18.4766 45.832 18.8556 45.832 19.3232C45.832 19.7908 46.2111 20.1699 46.6787 20.1699Z" fill="#EB7124"/>
</g>
<defs>
<clipPath id="clip0_7226_44570">
<rect width="48" height="48" fill="white"/>
</clipPath>
</defs>
</svg>
