<svg width="48" height="48" viewBox="0 0 48 48" fill="none" xmlns="http://www.w3.org/2000/svg">
<path d="M21.053 29.1818L21.4662 30.2068C22.105 29.9882 23.1457 29.6796 23.4583 29.6796C23.9116 29.6796 24.2491 29.7953 24.6396 29.9287C25.0588 30.0728 25.5342 30.2357 26.1627 30.2357C26.7993 30.2357 27.8275 29.7235 28.0271 29.6212L27.543 28.6262C27.153 28.8264 26.4445 29.1234 26.1627 29.1234C25.7094 29.1234 25.3719 29.0078 24.9814 28.8743C24.5622 28.7302 24.0868 28.5673 23.4583 28.5673C23.3344 28.5673 23.1738 28.5879 22.9948 28.6223C23.2971 27.9833 23.4583 27.2108 23.4583 26.3427H25.0809V25.2304H23.256C23.2333 25.1709 23.2106 25.1103 23.1884 25.0541C23.0489 24.7032 22.9174 24.3712 22.9174 23.562C22.9174 22.8006 23.1992 21.8935 24.5401 21.8935C25.743 21.8935 26.1741 23.1321 26.1908 23.1816L27.2163 22.8295C27.1893 22.7461 26.53 20.7812 24.5401 20.7812C22.5458 20.7812 21.8357 22.2178 21.8357 23.562C21.8357 24.3912 21.9622 24.8689 22.0942 25.2304H20.7539V26.3427H22.3765C22.3765 27.7147 21.8941 28.7497 21.053 29.1818Z" fill="#EB7124"/>
<path fill-rule="evenodd" clip-rule="evenodd" d="M40.2995 41.3719L36.5466 37.5371C39.403 34.5004 40.9803 30.6927 41.1717 26.5419H46.5376C46.3628 32.1235 44.1679 37.3409 40.2995 41.3719ZM43.7211 17.4951C43.6607 17.3394 43.5482 17.2093 43.4029 17.1269C43.2576 17.0445 43.0882 17.0148 42.9235 17.0429L39.1437 17.684C38.4974 16.4886 37.7105 15.3748 36.7997 14.3663L40.6351 10.6127C44.2688 14.5558 46.3654 19.646 46.5365 25.0914H41.1699C41.1033 23.4667 40.8112 21.8843 40.3112 20.3813L43.4382 18.3679C43.5785 18.2772 43.6833 18.1408 43.7348 17.9818C43.7864 17.8229 43.7815 17.651 43.7211 17.4951ZM32.6451 23.592L38.5428 19.7946C38.4736 19.6264 38.4015 19.4595 38.3264 19.2939L31.1604 20.5097C31.8512 21.4307 32.3555 22.4778 32.6451 23.592ZM24.0623 33.2322C28.1508 33.2322 31.4777 29.9047 31.4777 25.8168C31.4777 21.7285 28.1508 18.4021 24.0623 18.4021C19.9745 18.4021 16.6476 21.7283 16.6476 25.8168C16.6476 29.9047 19.9745 33.2322 24.0623 33.2322ZM12.6173 13.0851L8.85769 9.24298C12.7982 5.60862 17.8836 3.51273 23.3375 3.34282V8.70936C19.3403 8.87245 15.5885 10.4119 12.6173 13.0851ZM11.4516 37.4026L7.65719 41.1965C3.8951 37.1899 1.76135 32.0355 1.58841 26.5418H6.95431C7.12173 30.6034 8.69935 34.4119 11.4516 37.4026ZM6.15354 12.2135C3.32729 15.915 1.73561 20.3727 1.58766 25.0914H6.95301C7.12356 20.9632 8.74575 17.107 11.5782 14.0967L7.82591 10.2625C7.24848 10.8601 6.65645 11.5569 6.15668 12.2153L6.15354 12.2135ZM24.7879 3.34163V8.70752C28.714 8.88684 32.3264 10.3081 35.2857 12.8834L35.7826 13.3327L39.6174 9.57977C39.0455 9.03137 38.4451 8.51357 37.8186 8.02854L37.8198 8.02735C34.0882 5.12701 29.5725 3.49142 24.7879 3.34163ZM45.4729 15.1016C44.3513 12.8659 42.9128 10.8819 41.1698 9.07491C33.8835 1.57647 22.5155 -0.241255 13.2541 4.45409C11.1445 5.52339 9.00899 7.04067 7.32094 8.71066C2.68054 13.252 0.125 19.3269 0.125 25.817C0.125 32.2109 2.61457 38.2218 7.13633 42.743C7.2036 42.8105 7.28357 42.8642 7.37163 42.9008C7.45968 42.9373 7.5541 42.9562 7.64946 42.9562C7.74481 42.9562 7.83923 42.9373 7.92729 42.9008C8.01535 42.8642 8.09531 42.8105 8.16259 42.743L12.9796 37.926C13.047 37.8586 13.1005 37.7786 13.137 37.6906C13.1735 37.6025 13.1923 37.5081 13.1923 37.4128C13.1923 37.3175 13.1735 37.2231 13.137 37.1351C13.1005 37.0471 13.047 36.9671 12.9796 36.8997C7.39719 31.3262 6.87081 22.5015 11.5792 16.3357L11.5811 16.3369C16.8476 9.38823 26.8043 8.09527 33.6511 13.4177L33.6499 13.4189C35.2449 14.6468 36.6176 16.2136 37.6234 17.9419L29.9971 19.2359C28.4245 17.8166 26.342 16.9517 24.0621 16.9517C19.1742 16.9517 15.1963 20.9282 15.1963 25.8168C15.1963 30.706 19.1742 34.6827 24.0621 34.6827C29.2101 34.6827 33.2899 30.2905 32.9035 25.1525L39.0469 21.1955C39.5739 22.9163 39.8249 24.8434 39.7125 26.6836C39.4714 30.6266 37.8924 34.2106 35.0244 37.0175C34.9562 37.0841 34.9019 37.1635 34.8644 37.2512C34.827 37.3388 34.8072 37.433 34.8061 37.5283C34.8051 37.6236 34.8229 37.7182 34.8584 37.8066C34.894 37.8951 34.9466 37.9757 35.0133 38.0437L39.7778 42.9121C39.8444 42.9804 39.9237 43.0348 40.0114 43.0723C40.099 43.1099 40.1932 43.1297 40.2885 43.1308C40.3839 43.1319 40.4785 43.1142 40.5669 43.0786C40.6554 43.0431 40.736 42.9904 40.8041 42.9237C45.4445 38.3824 48 32.3061 48 25.8168C48.0002 22.0505 47.15 18.4449 45.4729 15.1016Z" fill="#EB7124"/>
</svg>
