<svg width="48" height="48" viewBox="0 0 48 48" fill="none" xmlns="http://www.w3.org/2000/svg">
<path d="M28.9405 30.0808C35.5354 30.0808 40.9003 25.0249 40.9003 18.8103C40.9003 14.0394 37.6374 9.2385 32.5876 6.58072C32.4555 6.51134 32.4017 6.35572 32.4612 6.21885L33.8656 2.98731C34.2441 2.11732 34.0242 1.10858 33.3191 0.477652C32.6934 -0.0801555 31.7995 -0.154217 31.0925 0.295778L30.698 0.547963C30.5791 0.622963 30.4535 0.6239 30.3365 0.548901L29.9306 0.291091C29.319 -0.0970303 28.5592 -0.0970303 27.9495 0.291091L27.5417 0.548901C27.4247 0.622963 27.3001 0.622963 27.1849 0.549838L26.7847 0.293903C26.0796 -0.155155 25.1849 -0.0820304 24.5591 0.476714C23.854 1.10765 23.635 2.11639 24.0126 2.98638L25.418 6.21978C25.4774 6.35478 25.4227 6.50947 25.2906 6.57884C20.2408 9.23757 16.9779 14.0375 16.9779 18.8084C16.9779 25.0249 22.3447 30.0808 28.9405 30.0808ZM25.3982 2.39295C25.2745 2.10889 25.3415 1.79483 25.5681 1.59139C25.6351 1.53233 25.7134 1.50139 25.7918 1.50139C25.8522 1.50139 25.9126 1.5192 25.9683 1.55483L26.3713 1.81264C26.9848 2.19982 27.7446 2.19888 28.3534 1.8117L28.7612 1.55389C28.8773 1.47983 29.0009 1.47983 29.118 1.55389L29.5238 1.8117C30.1336 2.19888 30.8934 2.19982 31.5107 1.80983L31.9081 1.55577C32.0383 1.47233 32.1922 1.48639 32.3092 1.59045C32.5367 1.79389 32.6037 2.10889 32.48 2.39201L31.0756 5.6226C30.984 5.83166 30.9368 6.04822 30.9274 6.26197C30.4337 6.36697 29.8901 6.42228 29.3228 6.42228C28.5271 6.42228 27.7446 6.30885 27.1198 6.10447C27.0565 6.08385 26.9924 6.0726 26.9291 6.06885C26.9074 5.91791 26.8659 5.76885 26.8026 5.62354L25.3982 2.39295ZM25.9975 7.90445C26.2001 7.79758 26.3799 7.65272 26.527 7.4779C26.5648 7.49758 26.6035 7.5154 26.646 7.52946C27.4303 7.78727 28.3563 7.9232 29.3228 7.9232C30.1024 7.9232 30.8547 7.8332 31.5296 7.66258C31.6343 7.75446 31.7504 7.83696 31.8797 7.90539C36.4424 10.3072 39.3901 14.5878 39.3901 18.8112C39.3901 24.199 34.7019 28.5827 28.9396 28.5827C23.1753 28.5827 18.4862 24.199 18.4862 18.8112C18.4871 14.5869 21.4348 10.3063 25.9975 7.90445ZM25.2122 20.7837L31.489 14.5494C31.631 14.412 31.8219 14.3356 32.0202 14.3369C32.2185 14.3382 32.4083 14.417 32.5486 14.5563C32.6888 14.6956 32.7682 14.8841 32.7695 15.0811C32.7708 15.2781 32.6939 15.4676 32.5555 15.6088L26.2788 21.8431C26.1316 21.9893 25.9381 22.0624 25.7455 22.0624C25.553 22.0624 25.3595 21.9893 25.2122 21.8431C25.0708 21.7026 24.9914 21.512 24.9914 21.3134C24.9914 21.1147 25.0708 20.9242 25.2122 20.7837ZM26.3524 17.8259C26.9046 17.8259 27.4577 17.6178 27.8787 17.2016C28.2864 16.7966 28.5111 16.2584 28.5111 15.6856C28.5111 15.1128 28.2864 14.5747 27.8787 14.1697C27.0367 13.3344 25.6681 13.3335 24.8262 14.1697L24.8252 14.1706C23.988 15.0059 23.988 16.3644 24.8281 17.2025C25.249 17.6178 25.8003 17.8259 26.3524 17.8259ZM25.8946 15.2281C25.9547 15.1684 26.0261 15.121 26.1046 15.0886C26.1832 15.0563 26.2674 15.0397 26.3524 15.0397C26.5261 15.0397 26.6884 15.1072 26.8111 15.2291C26.9338 15.3509 27.0018 15.5131 27.0018 15.6847C27.0018 15.8572 26.9338 16.0184 26.813 16.1394C26.5591 16.3906 26.1457 16.3906 25.8946 16.1422C25.6426 15.89 25.6426 15.4803 25.8946 15.2281ZM29.9986 19.3062C29.5899 19.7122 29.3653 20.2512 29.3662 20.824C29.3671 21.3959 29.5918 21.9331 29.9986 22.3353C30.4064 22.7402 30.9481 22.9634 31.5248 22.9634C32.1015 22.9634 32.6433 22.7402 33.0511 22.3353C33.8902 21.5018 33.8902 20.1443 33.0511 19.3062C32.6433 18.9012 32.1015 18.6781 31.5248 18.6781C30.9481 18.6781 30.4064 18.9012 29.9986 19.3062ZM31.9845 21.2759C31.8618 21.3978 31.6985 21.4653 31.5258 21.4653C31.3531 21.4653 31.1898 21.3978 31.0652 21.2749C30.9434 21.1549 30.8764 20.9946 30.8764 20.8231C30.8764 20.6506 30.9434 20.4884 31.0671 20.3665C31.1898 20.2446 31.3531 20.1771 31.5258 20.1771C31.6985 20.1771 31.8618 20.2446 31.9836 20.3646C32.2356 20.6168 32.2356 21.0256 31.9845 21.2759ZM47.8727 36.3245C47.4905 35.1939 46.1473 34.2114 43.5252 34.8461L34.2168 37.0951C33.8468 36.7126 33.3267 36.391 32.6329 36.1886L20.9167 32.7714C18.7155 32.1283 16.6494 32.0655 14.4143 32.5736L11.3873 33.2598V32.2061C11.3873 31.2855 10.6332 30.5374 9.70723 30.5374H2.68293C1.7551 30.5374 1 31.2864 1 32.2061V45.5897C1 46.5103 1.7551 47.2584 2.68293 47.2584H9.70817C10.6351 47.2584 11.3883 46.5094 11.3883 45.5897V44.5969L21.331 47.4628C22.5703 47.8209 23.7841 48 24.9847 48C26.6884 48 28.3648 47.6391 30.0477 46.9153L45.7481 40.1598C47.4234 39.4388 48.356 37.7542 47.8727 36.3245ZM9.87995 45.5897C9.87995 45.6816 9.80161 45.7594 9.70911 45.7594H2.68293C2.58854 45.7594 2.50925 45.6816 2.50925 45.5897V32.207C2.50925 32.1152 2.58854 32.0373 2.68293 32.0373H9.70817C9.79973 32.0373 9.87901 32.117 9.87901 32.207V45.5897H9.87995ZM45.1487 38.7845L29.4483 45.54C26.9159 46.6294 24.3986 46.7878 21.752 46.0238L11.3883 43.0369V34.7983L14.7513 34.0361C16.7513 33.5814 18.5211 33.6348 20.4919 34.2104L32.2082 37.6276C32.75 37.786 33.0832 38.0288 33.2663 38.296C33.2767 38.3157 33.2889 38.3345 33.3012 38.3532C33.4532 38.6082 33.4758 38.8801 33.4145 39.121C33.254 39.7482 32.5216 40.3023 31.2917 40.0379L19.4631 37.4898C19.0563 37.4017 18.6542 37.6585 18.5655 38.0635C18.4767 38.4676 18.7354 38.867 19.1431 38.9551L30.9717 41.5032C31.2974 41.5735 31.606 41.6054 31.8986 41.6054C33.5013 41.6054 34.5849 40.6276 34.8765 39.4913C34.9596 39.1679 34.9766 38.8182 34.919 38.4695L43.883 36.3039C45.2459 35.9739 46.2266 36.1651 46.4427 36.8035C46.6457 37.4026 46.1737 38.3429 45.1487 38.7845Z" fill="#EB7124"/>
</svg>
