<svg width="48" height="48" viewBox="0 0 48 48" fill="none" xmlns="http://www.w3.org/2000/svg">
<g clip-path="url(#clip0_7418_39394)">
<path d="M28.875 43.125V43.7812C28.875 45.6933 27.3183 47.25 25.4062 47.25H22.5938C20.6817 47.25 19.125 45.6933 19.125 43.7812V43.125H28.875ZM21.1367 12.4385C24.7973 11.5631 28.5272 12.3856 31.4102 14.6602C34.2671 16.9362 35.9062 20.3475 35.9062 24C35.9062 27.1754 34.6636 30.1643 32.4385 32.416C31.0428 33.7857 30.2813 35.8501 30.2812 37.8467V38.1562C30.2812 38.5295 29.9983 38.8125 29.625 38.8125H18.375C18.0017 38.8125 17.7188 38.5295 17.7188 38.1562V37.8467C17.7187 35.8271 16.9879 33.8151 15.6709 32.498L15.666 32.4932L15.3867 32.209C12.5535 29.2376 11.4627 25.0897 12.4658 20.9727C13.4951 16.7767 16.9063 13.4176 21.1318 12.4404L21.1367 12.4385ZM1.40625 23.3438H7.125C7.48807 23.3438 7.78125 23.6369 7.78125 24C7.78125 24.3631 7.48807 24.6562 7.125 24.6562H1.40625C1.04318 24.6562 0.75 24.3631 0.75 24C0.75 23.6369 1.04318 23.3438 1.40625 23.3438ZM40.875 23.3438H46.5938C46.9568 23.3438 47.25 23.6369 47.25 24C47.25 24.3631 46.9568 24.6562 46.5938 24.6562H40.875C40.5119 24.6562 40.2188 24.3631 40.2188 24C40.2188 23.6369 40.5119 23.3438 40.875 23.3438ZM24 16.2188C20.1815 16.2188 17.2487 18.8259 16.4717 21.9609C16.185 23.1157 16.8905 24.2868 18.0449 24.5732L18.0498 24.5742C19.2305 24.8585 20.3752 24.1335 20.6572 22.998C20.9805 21.6964 22.2304 20.5312 24 20.5312C25.1915 20.5312 26.1562 19.5665 26.1562 18.375C26.1562 17.1835 25.1915 16.2188 24 16.2188ZM7.62598 7.62598C7.88235 7.36961 8.29829 7.36965 8.55469 7.62598L12.5312 11.6035C12.7876 11.8599 12.7876 12.2749 12.5312 12.5312C12.2749 12.7876 11.8599 12.7876 11.6035 12.5312L7.62598 8.55469C7.36965 8.29829 7.36961 7.88235 7.62598 7.62598ZM39.4453 7.62598C39.7015 7.36981 40.1166 7.3701 40.373 7.62598C40.6295 7.88247 40.6303 8.29832 40.374 8.55469L36.3965 12.5312C36.1401 12.7876 35.7251 12.7876 35.4688 12.5312C35.2443 12.3068 35.2162 11.9608 35.3848 11.7061L35.4688 11.6035L39.4453 7.62598ZM24 0.75C24.3631 0.75 24.6562 1.04318 24.6562 1.40625V7.125C24.6562 7.48807 24.3631 7.78125 24 7.78125C23.6369 7.78125 23.3438 7.48807 23.3438 7.125V1.40625C23.3438 1.04318 23.6369 0.75 24 0.75Z" stroke="#EB7124" stroke-width="1.5"/>
</g>
<defs>
<clipPath id="clip0_7418_39394">
<rect width="48" height="48" fill="white"/>
</clipPath>
</defs>
</svg>
