<svg width="48" height="48" viewBox="0 0 48 48" fill="none" xmlns="http://www.w3.org/2000/svg">
<path d="M3.00114 24C3.04662 23.9999 3.09205 23.9969 3.13714 23.991C10.4831 22.9943 17.6476 20.947 24.4111 17.912C31.2414 14.8389 37.5874 10.787 43.2491 5.884L42.0311 10.758C41.967 11.0151 42.0075 11.2872 42.1439 11.5144C42.2802 11.7417 42.5011 11.9055 42.7581 11.97C42.8377 11.9897 42.9192 11.9997 43.0011 12C43.224 11.9997 43.4404 11.925 43.616 11.7876C43.7916 11.6503 43.9162 11.4583 43.9701 11.242L45.9701 3.242C46.0069 3.0947 46.0096 2.94097 45.9781 2.79246C45.9466 2.64395 45.8817 2.50457 45.7883 2.38487C45.6949 2.26518 45.5755 2.16832 45.4391 2.10163C45.3027 2.03495 45.153 2.00019 45.0011 2H37.0011C36.7359 2 36.4816 2.10536 36.294 2.29289C36.1065 2.48043 36.0011 2.73478 36.0011 3C36.0011 3.26522 36.1065 3.51957 36.294 3.70711C36.4816 3.89464 36.7359 4 37.0011 4H42.3701C36.747 8.94156 30.4176 13.0158 23.5911 16.088C17.0022 19.0445 10.0225 21.0385 2.86614 22.009C2.61472 22.043 2.38561 22.1712 2.22521 22.3678C2.06482 22.5643 1.98513 22.8145 2.00229 23.0676C2.01946 23.3208 2.13219 23.5579 2.31765 23.731C2.50311 23.9041 2.74744 24.0003 3.00114 24ZM45.0011 44H44.0011V17C44.0011 16.7348 43.8958 16.4804 43.7083 16.2929C43.5207 16.1054 43.2664 16 43.0011 16H33.0011C32.7359 16 32.4816 16.1054 32.294 16.2929C32.1065 16.4804 32.0011 16.7348 32.0011 17V44H30.0011V23C30.0011 22.7348 29.8958 22.4804 29.7083 22.2929C29.5207 22.1054 29.2664 22 29.0011 22H19.0011C18.7359 22 18.4816 22.1054 18.294 22.2929C18.1065 22.4804 18.0011 22.7348 18.0011 23V44H16.0011V29C16.0011 28.7348 15.8958 28.4804 15.7083 28.2929C15.5207 28.1054 15.2664 28 15.0011 28H5.00114C4.73593 28 4.48157 28.1054 4.29404 28.2929C4.1065 28.4804 4.00114 28.7348 4.00114 29V44H3.00114C2.73593 44 2.48157 44.1054 2.29404 44.2929C2.1065 44.4804 2.00114 44.7348 2.00114 45C2.00114 45.2652 2.1065 45.5196 2.29404 45.7071C2.48157 45.8946 2.73593 46 3.00114 46H45.0011C45.2664 46 45.5207 45.8946 45.7083 45.7071C45.8958 45.5196 46.0011 45.2652 46.0011 45C46.0011 44.7348 45.8958 44.4804 45.7083 44.2929C45.5207 44.1054 45.2664 44 45.0011 44ZM34.0011 18H42.0011V44H34.0011V18ZM20.0011 24H28.0011V44H20.0011V24ZM6.00114 30H14.0011V44H6.00114V30Z" fill="#EB7124"/>
</svg>
