<svg width="48" height="48" viewBox="0 0 48 48" fill="none" xmlns="http://www.w3.org/2000/svg">
<path d="M29.126 32.669L29.1264 32.6701L29.034 32.6904C28.9896 32.6965 28.9464 32.7092 28.9057 32.728L28.8668 32.7425C28.2526 33.0539 27.6049 33.2138 26.9504 33.2138C26.8317 33.2138 26.6089 33.1824 26.2883 33.1204C25.9409 33.0605 25.5938 32.9992 25.2469 32.9365C24.8816 32.8706 24.5161 32.8061 24.1504 32.7432C23.7886 32.6808 23.5087 32.651 23.2951 32.651C23.1443 32.651 22.9915 32.6582 22.8406 32.6725L22.1965 32.734L22.6367 32.2598C22.6809 32.2125 22.7226 32.1653 22.7627 32.1185C22.9536 31.8976 23.1168 31.6541 23.2489 31.3937C23.3771 31.1339 23.4687 30.8575 23.5211 30.5726C23.5766 30.2772 23.605 29.9442 23.605 29.5829C23.605 29.4181 23.5857 29.2545 23.5474 29.0962L23.4739 28.7922L25.9346 28.7874C25.9783 28.7837 26.0157 28.7738 26.0523 28.7568C26.325 28.668 26.5017 28.427 26.5017 28.1534C26.5016 28.0054 26.4497 27.8622 26.3549 27.7486C26.26 27.635 26.1284 27.5582 25.9829 27.5317C25.9626 27.5271 25.942 27.5244 25.9212 27.5238L25.9184 27.5239C25.9122 27.5238 25.9061 27.5236 25.9 27.5232L25.868 27.5255H23.1699L23.1158 27.3526C22.8326 26.444 22.6894 25.6766 22.6894 25.0712C22.6883 24.7805 22.7442 24.4924 22.8538 24.2232C22.9596 23.9624 23.1128 23.7234 23.3056 23.5183C23.4951 23.3173 23.7294 23.1569 24.0018 23.0417C24.2733 22.927 24.5814 22.8687 24.9171 22.8687C26.2828 22.8687 27.0054 23.5178 27.1258 24.853C27.128 24.8602 27.1296 24.8678 27.131 24.8754L27.1357 24.9359L27.134 24.9484C27.1354 24.9758 27.1432 25.0176 27.1591 25.0669C27.2228 25.4915 27.5664 25.7895 27.9791 25.7895C28.1836 25.7892 28.3807 25.7134 28.5328 25.5767C28.6848 25.44 28.7811 25.252 28.8031 25.0487H28.8027L28.8077 24.9348C28.8078 24.933 28.8061 24.9192 28.8054 24.9039L28.805 24.8857C28.757 24.3557 28.6287 23.8782 28.4252 23.4701C28.2217 23.0636 27.9523 22.7182 27.6251 22.4439C27.2969 22.1683 26.9018 21.9568 26.4521 21.8153C26.0014 21.6735 25.4988 21.6016 24.9589 21.6016C24.3744 21.6016 23.8341 21.6862 23.3531 21.8531C22.8713 22.0202 22.4525 22.2616 22.1085 22.5697C21.7635 22.8786 21.4914 23.2634 21.2999 23.7134C21.1081 24.1642 21.0107 24.6744 21.0107 25.2307C21.0107 25.4929 21.0461 25.816 21.1159 26.1909C21.1706 26.4878 21.2542 26.8307 21.3646 27.2104L21.4561 27.5257L20.0532 27.5227C19.8963 27.5378 19.7506 27.6108 19.6446 27.7275C19.5385 27.8441 19.4796 27.9961 19.4794 28.1537C19.4796 28.31 19.5379 28.4606 19.6428 28.5763C19.7477 28.6921 19.8919 28.7647 20.0474 28.7802L20.1078 28.7911L21.8202 28.7925L21.8626 28.9863C21.9274 29.2847 21.9605 29.5903 21.9605 29.894C21.9605 30.3408 21.9179 30.742 21.834 31.0854C21.7504 31.428 21.6287 31.7359 21.4718 31.9995C21.3176 32.2595 21.1225 32.493 20.894 32.6909C20.668 32.8865 20.4057 33.0624 20.1152 33.2129C19.6471 33.3686 19.1244 33.6505 19.213 34.1439C19.2855 34.5469 19.6692 34.8402 20.0783 34.7859C20.0907 34.7838 20.091 34.7836 20.1018 34.7785C21.2457 34.257 22.2845 33.9939 23.1946 33.9939C23.3125 33.9939 23.4771 34.0137 23.6838 34.053C23.8908 34.0922 24.12 34.1402 24.3648 34.1964C24.6113 34.252 24.8664 34.3135 25.1294 34.381C25.3926 34.4481 25.646 34.5098 25.8898 34.5656C26.1335 34.6216 26.356 34.6711 26.5575 34.713C26.76 34.755 26.9162 34.7755 27.0345 34.7755H27.0706C27.9899 34.7755 28.9659 34.3911 29.0073 34.3747C29.0974 34.3354 29.373 34.2331 29.373 34.2331C29.8106 34.1339 30.0794 33.7092 29.9839 33.2831C29.8971 32.8962 29.5217 32.6269 29.126 32.669Z" fill="#EB7124"/>
<path d="M48 7.30619V33.3149C48 34.1921 47.286 34.906 46.4086 34.906H40.3499C40.4047 35.8718 39.9854 36.8784 39.1389 37.6242L38.9348 37.8044C35.9612 40.427 32.2596 43.6908 28.2383 45.7986C25.436 47.2672 22.8319 48 20.3781 48C18.6085 48 16.9175 47.6187 15.2863 46.859L9.75436 44.2802H5.62855V46.3432C5.62855 46.6728 5.36066 46.9406 5.03104 46.9406H0.59751C0.267884 46.9406 0 46.6728 0 46.3432V32.0893C0 31.7597 0.267884 31.4919 0.59751 31.4919H5.03104C5.36066 31.4919 5.62855 31.7597 5.62855 32.0893V33.996C5.81178 33.9502 5.98905 33.9044 6.16432 33.8586C7.85129 33.4185 9.1917 33.071 12.0388 34.0826C11.6823 31.9519 12.3924 29.2984 14.1212 26.3433C15.7066 23.6351 18.1593 20.6899 20.8501 18.2635C20.9684 18.1574 21.0917 18.0571 21.2196 17.9628L18.0398 14.9609C17.527 14.477 17.271 13.8228 17.3208 13.1189C17.3706 12.4149 17.7142 11.8026 18.2898 11.3944L20.1341 10.0861L19.5237 8.26003C19.4774 8.12158 19.4835 7.97099 19.5408 7.83672C19.598 7.70244 19.7025 7.59377 19.8344 7.53121C20.5115 7.2106 21.1877 6.96667 21.8599 6.79939V1.59107C21.8599 0.713892 22.5739 0 23.4513 0H41.9791C42.1564 0 42.3286 0.0786575 42.4442 0.222033L47.8685 6.93082C47.9532 7.0377 47.9995 7.16988 48 7.30619ZM42.5756 6.70879H46.1517L42.5756 2.28605V6.70879ZM20.8282 8.39744L23.7251 17.0607C23.9084 17.0498 24.0926 17.0498 24.2759 17.0607L27.1758 8.38848C25.0974 7.48541 23.0121 7.48839 20.8282 8.39744ZM25.678 17.3614L29.1406 14.0936C29.3955 13.8527 29.512 13.553 29.4881 13.2035C29.4642 12.854 29.3059 12.5733 29.0201 12.3701L27.4715 11.2719L25.4609 17.2837C25.5336 17.3076 25.6063 17.3335 25.678 17.3614ZM22.322 17.3614C22.3937 17.3335 22.4664 17.3076 22.5401 17.2837L20.5295 11.2719L18.9809 12.3711C18.6951 12.5743 18.5378 12.854 18.5129 13.2045C18.488 13.554 18.6055 13.8537 18.8604 14.0946L22.322 17.3614ZM13.3623 34.5038C13.3693 34.5277 13.3783 34.5496 13.3862 34.5735L16.5062 35.7115H25.5864C26.8641 35.7115 27.9615 36.5021 28.4136 37.6192L34.8588 33.1068C34.9683 28.8673 30.7061 23.0795 26.3502 19.1526C25.7064 18.5699 24.8689 18.2472 24.0005 18.2472C23.1321 18.2472 22.2946 18.5699 21.6508 19.1526C16.7303 23.5863 12.0388 30.2821 13.3623 34.5038ZM4.43353 34.7567V32.6877H1.19502V45.7458H4.43353V34.7567ZM38.8571 34.1055L38.8203 34.0537C38.2337 33.2164 37.0765 33.0123 36.239 33.5987L28.6327 38.9245C28.5789 40.5584 27.2325 41.8707 25.5864 41.8707H16.4664C16.1368 41.8707 15.8689 41.6029 15.8689 41.2733C15.8689 40.9437 16.1368 40.6759 16.4664 40.6759H25.5864C26.6081 40.6759 27.4397 39.8445 27.4397 38.823V38.7592C27.4397 37.7377 26.6081 36.9063 25.5864 36.9063H16.4007C16.331 36.9063 16.2612 36.8944 16.1955 36.8705L11.766 35.2555C9.17278 34.3096 8.09527 34.5914 6.46506 35.0155C6.19718 35.0852 5.92332 35.1569 5.62855 35.2276V43.0854H9.88681C9.97444 43.0854 10.0601 43.1043 10.1398 43.1412L15.7922 45.7767C19.3245 47.4235 23.2143 47.084 27.6846 44.7412C31.5784 42.7001 35.2203 39.4891 38.1451 36.9093L38.3502 36.7291C39.0473 36.1128 39.5034 35.0295 38.8571 34.1055ZM46.805 33.3149V7.90359H41.9781C41.6485 7.90359 41.3806 7.63575 41.3806 7.30619V1.1948H23.4503C23.3453 1.19506 23.2446 1.2369 23.1703 1.31115C23.096 1.38541 23.0542 1.48605 23.0539 1.59107V6.58234C24.7917 6.38321 26.5066 6.70182 28.1776 7.53718C28.3062 7.60176 28.4072 7.71043 28.4622 7.84333C28.5172 7.97623 28.5226 8.1245 28.4773 8.26103L27.8669 10.0871L29.7112 11.3954C30.2868 11.8036 30.6304 12.4159 30.6802 13.1199C30.729 13.8238 30.474 14.478 29.9612 14.9619L26.7804 17.9638C26.9069 18.0574 27.0304 18.1569 27.1499 18.2645C29.5997 20.4729 31.8224 23.0686 33.4088 25.5727C34.9803 28.0538 35.8725 30.3688 36.0299 32.3472C36.5876 32.0903 37.211 32.0076 37.8314 32.1172C38.634 32.2585 39.3331 32.7036 39.7992 33.3687L39.836 33.4205C39.9017 33.5151 39.9605 33.6116 40.0143 33.7112H46.4086C46.5137 33.711 46.6143 33.6691 46.6886 33.5949C46.7629 33.5206 46.8047 33.42 46.805 33.3149ZM44.4697 16.9094H29.8765C29.5469 16.9094 29.279 17.1772 29.279 17.5068C29.279 17.8363 29.5469 18.1042 29.8765 18.1042H44.4697C44.7993 18.1042 45.0672 17.8363 45.0672 17.5068C45.0672 17.1772 44.7993 16.9094 44.4697 16.9094ZM44.4697 20.1154H32.0186C31.689 20.1154 31.4211 20.3832 31.4211 20.7128C31.4211 21.0424 31.689 21.3102 32.0186 21.3102H44.4697C44.7993 21.3102 45.0672 21.0424 45.0672 20.7128C45.0672 20.3832 44.7993 20.1154 44.4697 20.1154ZM44.4697 23.3215H34.4684C34.1388 23.3215 33.8709 23.5893 33.8709 23.9189C33.8709 24.2484 34.1388 24.5163 34.4684 24.5163H44.4697C44.7993 24.5163 45.0672 24.2484 45.0672 23.9189C45.0672 23.5893 44.7993 23.3215 44.4697 23.3215ZM44.4697 26.5285H36.3286C35.999 26.5285 35.7311 26.7963 35.7311 27.1259C35.7311 27.4555 35.999 27.7233 36.3286 27.7233H44.4687C44.7983 27.7233 45.0662 27.4555 45.0662 27.1259C45.0662 26.7963 44.7993 26.5285 44.4697 26.5285ZM44.4697 29.7345H37.5127C37.1831 29.7345 36.9152 30.0024 36.9152 30.3319C36.9152 30.6615 37.1831 30.9293 37.5127 30.9293H44.4697C44.7993 30.9293 45.0672 30.6615 45.0672 30.3319C45.0672 30.0024 44.7993 29.7345 44.4697 29.7345Z" fill="#EB7124"/>
</svg>
