<svg width="62" height="62" viewBox="0 0 62 62" fill="none" xmlns="http://www.w3.org/2000/svg">
<rect width="62" height="62" rx="31" fill="url(#paint0_linear_7257_12548)"/>
<path d="M47.6652 41.3994V43.8987C47.6638 44.3401 47.4879 44.7632 47.1757 45.0753C46.8635 45.3875 46.4405 45.5635 45.999 45.5648H35.0858C35.5291 45.2118 35.8997 44.7761 36.1771 44.2819C36.9838 42.8699 37.5471 41.3323 37.8433 39.7333H45.999C46.4405 39.7346 46.8635 39.9106 47.1757 40.2228C47.4879 40.5349 47.6638 40.958 47.6652 41.3994ZM47.6652 35.568V38.0672C47.6638 38.5086 47.4879 38.9317 47.1757 39.2438C46.8635 39.556 46.4405 39.732 45.999 39.7333H37.8433C37.9674 39.0829 38.0205 38.4208 38.0015 37.7589C37.943 36.4295 37.6409 35.1221 37.1101 33.9018H45.999C46.4405 33.9031 46.8635 34.0791 47.1757 34.3913C47.4879 34.7034 47.6638 35.1265 47.6652 35.568ZM47.6652 29.7365V32.2357C47.6638 32.6771 47.4879 33.1002 47.1757 33.4124C46.8635 33.7245 46.4405 33.9005 45.999 33.9018H37.1101C36.1871 31.8596 34.8966 30.0044 33.303 28.4285C33.1947 28.3036 33.0698 28.1869 32.9531 28.0703H45.999C46.4405 28.0716 46.8635 28.2476 47.1757 28.5598C47.4879 28.8719 47.6638 29.295 47.6652 29.7365Z" fill="white"/>
<path d="M46.0254 25.911L35.1122 28.0686L33.3044 28.4268C33.1961 28.3019 33.0712 28.1852 32.9546 28.0686C32.0176 27.1388 31.0214 26.2706 29.9722 25.4694C30.372 25.0196 30.7636 24.5447 31.1218 24.0532L45.209 21.2624C45.7017 21.1765 46.2083 21.2897 46.6176 21.5771C47.0268 21.8646 47.3053 22.3027 47.3917 22.7953L47.5583 23.72C47.6439 24.2136 47.5307 24.721 47.2436 25.1315C46.9564 25.542 46.5185 25.8222 46.0254 25.911ZM24.3406 33.0337V34.9581C24.1337 34.896 23.9524 34.7688 23.8235 34.5955C23.6946 34.4222 23.625 34.2119 23.625 33.9959C23.625 33.7799 23.6946 33.5697 23.8235 33.3964C23.9524 33.223 24.1337 33.0959 24.3406 33.0337ZM26.0067 37.0075C26.2136 37.0696 26.3949 37.1968 26.5238 37.3701C26.6527 37.5434 26.7224 37.7537 26.7224 37.9697C26.7224 38.1857 26.6527 38.3959 26.5238 38.5692C26.3949 38.7425 26.2136 38.8697 26.0067 38.9319V37.0075Z" fill="white"/>
<path d="M29.3523 25.6036C30.3469 24.621 31.2298 23.5313 31.9848 22.3546C32.7046 21.067 33.2641 19.6961 33.6509 18.2726C33.7426 17.981 33.8259 17.7227 33.9009 17.5061C33.9606 17.3276 33.9582 17.1342 33.894 16.9572C33.8297 16.7803 33.7074 16.6303 33.5471 16.5318C33.3867 16.4332 33.1976 16.3919 33.0108 16.4145C32.8239 16.4372 32.6502 16.5224 32.518 16.6564C32.3184 16.8588 32.0793 17.0179 31.8156 17.124C31.5519 17.23 31.2692 17.2807 30.9851 17.2729C30.7054 17.2474 30.4363 17.1529 30.202 16.998C29.7254 16.608 29.1266 16.3986 28.5109 16.4065C27.8976 16.3982 27.3013 16.6078 26.8281 16.998C26.633 17.1748 26.3791 17.2728 26.1158 17.2728C25.8525 17.2728 25.5986 17.1748 25.4035 16.998C24.9246 16.6151 24.3297 16.4065 23.7166 16.4065C23.1034 16.4065 22.5085 16.6151 22.0296 16.998C21.9203 17.0858 21.7999 17.1586 21.6714 17.2146C21.6381 17.2312 21.4881 17.2396 21.3132 17.2729C20.6882 17.1744 20.0964 16.9257 19.5887 16.5481C19.4441 16.4526 19.2734 16.4046 19.1003 16.4107C18.9272 16.4168 18.7602 16.4767 18.6227 16.5821C18.4853 16.6875 18.3841 16.8332 18.3332 16.9988C18.2824 17.1644 18.2844 17.3417 18.3391 17.5061C18.4141 17.7227 18.4974 17.981 18.589 18.2726C18.976 19.6961 19.5355 21.0669 20.2552 22.3546C21.0102 23.5313 21.8931 24.621 22.8877 25.6036C20.1469 27.5613 14.5403 32.2182 14.332 37.7997C14.3671 39.9013 14.95 41.9573 16.0232 43.7645C16.3412 44.3151 16.7993 44.7715 17.3509 45.0876C17.9026 45.4037 18.5281 45.568 19.1638 45.564H33.0761C33.7119 45.568 34.3374 45.4037 34.889 45.0876C35.4407 44.7715 35.8988 44.3151 36.2168 43.7645C37.29 41.9573 37.8729 39.9013 37.9079 37.7997C37.6997 32.2182 32.0931 27.5613 29.3523 25.6036Z" fill="white"/>
<path d="M27.0022 31.0562C27.2221 31.0556 27.44 31.0988 27.6432 31.1833C27.8464 31.2677 28.0309 31.3918 28.1861 31.5482L29.1382 32.5042C29.221 32.5872 29.3332 32.6339 29.4503 32.6339C29.5673 32.6339 29.6796 32.5872 29.7624 32.5042L30.4344 31.8293C30.5171 31.7462 30.5636 31.6335 30.5636 31.516C30.5636 31.3985 30.5171 31.2858 30.4344 31.2027L29.4823 30.2468C28.1136 28.8717 25.8939 28.8707 24.524 30.2449C24.1979 30.572 23.9393 30.9605 23.7629 31.3881C23.5865 31.8158 23.4959 32.2741 23.4961 32.737V34.7349H22.1218C22.0617 34.7349 22.0022 34.7468 21.9466 34.7699C21.8911 34.793 21.8406 34.8268 21.7981 34.8695C21.7556 34.9122 21.7219 34.9629 21.6989 35.0186C21.6759 35.0744 21.664 35.1342 21.6641 35.1945V36.1148C21.664 36.1751 21.6759 36.2349 21.6989 36.2907C21.7219 36.3464 21.7556 36.3971 21.7981 36.4398C21.8406 36.4825 21.8911 36.5163 21.9466 36.5394C22.0022 36.5625 22.0617 36.5744 22.1218 36.5744H23.4961V37.9539C23.4961 38.8435 22.8673 39.5855 22.0315 39.7564C21.8206 39.7995 21.6641 39.977 21.6641 40.1931V41.1897C21.6641 41.2479 21.6755 41.3055 21.6977 41.3593C21.7198 41.413 21.7523 41.4619 21.7933 41.503C21.8343 41.5442 21.883 41.5768 21.9365 41.5991C21.9901 41.6213 22.0475 41.6328 22.1054 41.6328H29.925C30.042 41.6328 30.1543 41.5861 30.2371 41.503C30.3198 41.4199 30.3663 41.3072 30.3663 41.1897V40.2365C30.3663 40.119 30.3198 40.0063 30.2371 39.9232C30.1543 39.8401 30.042 39.7934 29.925 39.7934H24.8336C25.1577 39.235 25.3284 38.6002 25.3283 37.9539V36.5744H27.6349C27.752 36.5744 27.8642 36.5277 27.947 36.4446C28.0298 36.3615 28.0763 36.2488 28.0763 36.1312V35.1781C28.0763 35.1199 28.0648 35.0623 28.0427 35.0085C28.0205 34.9547 27.988 34.9059 27.947 34.8647C27.906 34.8236 27.8573 34.7909 27.8038 34.7687C27.7503 34.7464 27.6929 34.7349 27.6349 34.7349H25.3282V32.737C25.3295 31.8091 26.0781 31.0574 27.0022 31.0562Z" fill="#EB7124"/>
<defs>
<linearGradient id="paint0_linear_7257_12548" x1="31" y1="0" x2="31" y2="62" gradientUnits="userSpaceOnUse">
<stop stop-color="#FF6E00"/>
<stop offset="1" stop-color="#FE4B00"/>
</linearGradient>
</defs>
</svg>
