<svg width="63" height="62" viewBox="0 0 63 62" fill="none" xmlns="http://www.w3.org/2000/svg">
<rect x="0.671875" width="62" height="62" rx="31" fill="url(#paint0_linear_7248_12222)"/>
<path d="M31.6841 25.0975C34.8753 25.0912 37.4703 22.4925 37.4703 19.2987C37.4703 16.1012 34.8691 13.5 31.6716 13.5C28.4741 13.5 25.8728 16.1012 25.8728 19.2987C25.8728 22.4925 28.4678 25.0912 31.6597 25.0975H31.6841ZM19.3984 37.0125V40.3144H23.6372C23.6347 40.2269 23.6234 40.1406 23.6234 40.0519V34.3375C23.6234 34.1587 23.6997 33.9881 23.8341 33.87C23.9 33.811 23.9778 33.7669 24.0622 33.7405C24.1466 33.7141 24.2357 33.706 24.3234 33.7169C28.9803 34.2794 31.2622 32.5344 31.2847 32.5162C31.3961 32.4286 31.5337 32.3812 31.6754 32.3817C31.8171 32.3821 31.9545 32.4304 32.0653 32.5187C32.0853 32.5344 34.3697 34.28 39.0197 33.7169C39.1075 33.7064 39.1964 33.7146 39.2808 33.741C39.3652 33.7673 39.443 33.8113 39.5091 33.8699C39.5752 33.9286 39.6282 34.0006 39.6645 34.0812C39.7008 34.1617 39.7196 34.2491 39.7197 34.3375V40.0525C39.7197 40.1406 39.7084 40.2262 39.7059 40.3144H43.9447V37.0125C43.9447 31.1312 39.1634 26.3475 33.2866 26.3475H31.6834L31.6716 26.3481H30.0566C24.1797 26.3481 19.3984 31.1319 19.3984 37.0125Z" fill="white"/>
<path d="M31.675 33.7578C30.8219 34.2728 28.5825 35.3241 24.875 35.0291V40.0534C24.875 42.5616 25.9225 44.8809 27.7494 46.4159C28.8319 47.3222 30.1519 48.0147 31.6744 48.4747C33.1956 48.0141 34.5144 47.3222 35.5981 46.4153C37.4238 44.8809 38.4713 42.5616 38.4713 40.0528V35.0291C34.7638 35.3247 32.5263 34.2728 31.675 33.7578ZM34.6131 39.7028L31.4731 42.8428C31.4152 42.9011 31.3464 42.9473 31.2705 42.9788C31.1947 43.0103 31.1134 43.0266 31.0313 43.0266C30.9491 43.0266 30.8678 43.0103 30.792 42.9788C30.7161 42.9473 30.6473 42.9011 30.5894 42.8428L28.7331 40.9866C28.6734 40.9289 28.6258 40.8599 28.5931 40.7837C28.5603 40.7074 28.5431 40.6254 28.5423 40.5424C28.5416 40.4595 28.5574 40.3772 28.5889 40.3003C28.6203 40.2235 28.6667 40.1537 28.7254 40.0951C28.7841 40.0364 28.8538 39.99 28.9307 39.9586C29.0075 39.9271 29.0898 39.9113 29.1728 39.912C29.2557 39.9128 29.3378 39.93 29.414 39.9627C29.4903 39.9955 29.5592 40.0431 29.6169 40.1028L31.0313 41.5172L33.7294 38.8191C33.787 38.7594 33.856 38.7118 33.9323 38.679C34.0085 38.6462 34.0905 38.629 34.1735 38.6283C34.2565 38.6276 34.3388 38.6434 34.4156 38.6748C34.4924 38.7062 34.5622 38.7526 34.6209 38.8113C34.6796 38.87 34.726 38.9398 34.7574 39.0166C34.7888 39.0934 34.8046 39.1757 34.8039 39.2587C34.8032 39.3417 34.7859 39.4237 34.7532 39.4999C34.7204 39.5762 34.6728 39.6452 34.6131 39.7028Z" fill="white"/>
<defs>
<linearGradient id="paint0_linear_7248_12222" x1="31.6719" y1="0" x2="31.6719" y2="62" gradientUnits="userSpaceOnUse">
<stop stop-color="#FF6E00"/>
<stop offset="1" stop-color="#FE4B00"/>
</linearGradient>
</defs>
</svg>
