<svg width="63" height="62" viewBox="0 0 63 62" fill="none" xmlns="http://www.w3.org/2000/svg">
<rect x="0.671875" width="62" height="62" rx="31" fill="url(#paint0_linear_7257_12534)"/>
<path d="M46.2231 35.5268C43.4207 35.5268 40.9607 34.5816 39.5967 33.168C38.2327 34.5816 35.7727 35.5268 32.9703 35.5268C32.3515 35.5268 31.7463 35.4808 31.1719 35.3904V39.0156C31.1719 44.0688 34.2919 48.3504 38.6091 49.8368C39.2497 50.0546 39.9444 50.0546 40.5851 49.8368C44.9015 48.3504 48.0215 44.0688 48.0215 39.0156V35.3904C47.4263 35.4824 46.8253 35.528 46.2231 35.5268ZM46.3367 39.0156C46.3367 43.2372 43.8059 46.9456 40.0367 48.244C39.8948 48.2914 39.7462 48.3155 39.5967 48.3152V35.3512C41.3351 36.5344 43.7031 37.212 46.2231 37.212H46.3367V39.0156Z" fill="white"/>
<path fill-rule="evenodd" clip-rule="evenodd" d="M37.2722 32.928C36.1242 33.56 34.5882 33.928 32.9682 33.928C32.4362 33.928 31.9122 33.888 31.4202 33.808C31.3362 33.796 31.2522 33.792 31.1722 33.792C30.7922 33.792 30.4242 33.924 30.1322 34.172C29.7762 34.476 29.5722 34.924 29.5722 35.392V39.016C29.5722 40.408 29.7802 41.756 30.1762 43.024C29.7282 43.036 29.2642 43.04 28.7842 43.04C18.9162 43.04 16.1402 40.688 15.4882 39.904C15.3562 39.74 15.3242 39.576 15.3242 39.38C15.4882 37.908 16.7922 31.276 28.7522 31.276C32.5762 31.276 35.3122 31.956 37.2722 32.928ZM36.365 20.528C36.365 25.9188 33.1302 30.5256 28.785 30.5256C24.4718 30.5256 21.2046 25.9188 21.2046 20.5276C21.2042 15.1692 23.9818 12 28.7842 12C33.5866 12 36.3642 15.1368 36.3642 20.528H36.365Z" fill="white"/>
<defs>
<linearGradient id="paint0_linear_7257_12534" x1="31.6719" y1="0" x2="31.6719" y2="62" gradientUnits="userSpaceOnUse">
<stop stop-color="#FF6E00"/>
<stop offset="1" stop-color="#FE4B00"/>
</linearGradient>
</defs>
</svg>
