<svg width="62" height="62" viewBox="0 0 62 62" fill="none" xmlns="http://www.w3.org/2000/svg">
<rect width="62" height="62" rx="31" fill="url(#paint0_linear_7257_12516)"/>
<path d="M35.8987 30.9549C35.2312 7.6518 26.7194 7.71368 26.0625 30.9487C27.5335 30.0156 29.2398 29.5206 30.9818 29.5218C32.7239 29.5229 34.4289 30.02 35.8987 30.9549Z" fill="white"/>
<path d="M48.258 30.5264C48.1727 26.462 46.6633 22.5566 43.993 19.4913C41.3227 16.426 37.661 14.3955 33.6467 13.7539C33.9477 14.2068 34.2126 14.6827 34.4392 15.177C36.103 18.6789 37.0811 25.3245 37.148 30.962C38.6577 29.9972 40.417 29.496 42.2086 29.5204C44.0001 29.5448 45.7452 30.0938 47.228 31.0995C47.3263 31.1802 47.4467 31.2294 47.5735 31.2407C47.7002 31.2521 47.8274 31.225 47.9385 31.163C48.0496 31.101 48.1395 31.0071 48.1965 30.8933C48.2535 30.7795 48.2749 30.6513 48.258 30.5252V30.5264ZM24.8148 30.9689C25.0186 24.4689 25.7355 17.9727 28.3161 13.7545C24.2533 14.3984 20.5532 16.4695 17.88 19.5959C15.2067 22.7223 13.7355 26.6992 13.7305 30.8127C13.7631 30.9103 13.819 30.9985 13.8934 31.0697C13.9677 31.1408 14.0583 31.1928 14.1572 31.2211C14.2562 31.2494 14.3606 31.2532 14.4613 31.2321C14.5621 31.2111 14.6562 31.1658 14.7355 31.1002C16.2214 30.1017 17.9659 29.5576 19.7559 29.5343C21.546 29.511 23.3034 30.0095 24.8148 30.9689ZM26.7492 41.7483C26.5833 41.4606 26.4456 41.1575 26.338 40.8433C26.1567 40.9677 25.9636 41.167 25.7573 41.2927C24.6723 42.0335 23.3712 42.3915 22.0598 42.31C20.7485 42.2285 19.5017 41.7122 18.5167 40.8427C16.6023 41.8777 13.5711 45.1477 15.1405 47.4589C15.3734 47.7809 15.6792 48.0432 16.0329 48.2244C16.3865 48.4056 16.7781 48.5005 17.1755 48.5014H24.4717C22.6517 46.2164 24.7473 43.1464 26.7492 41.7483Z" fill="white"/>
<path d="M22.4223 31.7852C17.8661 31.7777 16.0836 37.7664 19.8073 40.2677C22.7842 42.4158 27.2086 40.0439 27.0661 36.3477C27.0419 35.1311 26.5423 33.9724 25.6744 33.1196C24.8064 32.2669 23.6391 31.7879 22.4223 31.7852ZM36.9154 40.2677C37.6055 40.7398 38.4102 41.0168 39.2446 41.0696C40.079 41.1223 40.9122 40.9488 41.6562 40.5674C42.4002 40.1859 43.0274 39.6107 43.4716 38.9024C43.9158 38.1941 44.1606 37.379 44.1801 36.5432C44.1995 35.7073 43.993 34.8817 43.5822 34.1535C43.1714 33.4253 42.5717 32.8215 41.8462 32.4058C41.1208 31.9902 40.2966 31.7781 39.4606 31.7919C38.6247 31.8058 37.808 32.0451 37.0967 32.4845C36.4438 32.895 35.9028 33.4608 35.522 34.1314C35.1413 34.802 34.9326 35.5564 34.9146 36.3274C34.8967 37.0983 35.07 37.8617 35.4192 38.5493C35.7683 39.2369 36.2824 39.8273 36.9154 40.2677Z" fill="white"/>
<path d="M43.4442 40.8438C42.3617 41.7934 40.9708 42.317 39.5308 42.317C38.0908 42.317 36.6999 41.7934 35.6174 40.8438C35.5111 41.4156 34.9099 41.68 35.5861 42.0294C37.3924 43.4619 39.2249 46.37 37.4899 48.5019H44.7867C45.184 48.5009 45.5754 48.4059 45.929 48.2247C46.2826 48.0435 46.5883 47.7813 46.8211 47.4594C48.3886 45.1462 45.3674 41.8837 43.4442 40.8438Z" fill="white"/>
<path d="M34.8079 43.0019C34.4235 42.6232 34.3854 42.7982 34.0466 43.0894C33.1755 43.7886 32.0916 44.1691 30.9746 44.168C29.8575 44.1669 28.7744 43.7841 27.9047 43.0832C27.5735 42.7888 27.5247 42.6438 27.156 43.0019C26.0272 43.9444 24.5829 45.645 25.171 47.2519C25.3232 47.6217 25.5819 47.9378 25.9142 48.1601C26.2465 48.3825 26.6374 48.501 27.0372 48.5007H34.9266C35.3264 48.501 35.7172 48.3825 36.0495 48.1603C36.3817 47.9381 36.6405 47.6221 36.7929 47.2525C37.3816 45.645 35.9279 43.9538 34.8079 43.0019Z" fill="white"/>
<path d="M27.3366 39.2804C27.4897 44.096 34.4716 44.0979 34.6266 39.2804C34.4734 34.4641 27.4897 34.4635 27.3366 39.2804Z" fill="white"/>
<defs>
<linearGradient id="paint0_linear_7257_12516" x1="31" y1="0" x2="31" y2="62" gradientUnits="userSpaceOnUse">
<stop stop-color="#FF6E00"/>
<stop offset="1" stop-color="#FE4B00"/>
</linearGradient>
</defs>
</svg>
