<svg width="16" height="17" viewBox="0 0 16 17" fill="none" xmlns="http://www.w3.org/2000/svg">
<path d="M14.6963 12.1799C14.2593 11.8134 11.6964 10.1904 11.2704 10.2649C11.0704 10.3004 10.9174 10.4709 10.5079 10.9594C10.3185 11.1998 10.1105 11.425 9.88588 11.6329C9.47428 11.5334 9.07586 11.3857 8.6989 11.1929C7.22056 10.4731 6.02625 9.27847 5.30694 7.79992C5.11406 7.42295 4.96638 7.02453 4.86695 6.61293C5.07481 6.38828 5.3 6.18031 5.54044 5.99094C6.02843 5.58145 6.19943 5.42945 6.23493 5.22845C6.30943 4.80146 4.68495 2.23949 4.31996 1.8025C4.16696 1.6215 4.02796 1.5 3.84996 1.5C3.33397 1.5 1 4.38596 1 4.75996C1 4.79046 1.05 7.79492 4.84445 11.6554C8.7049 15.4498 11.7094 15.4998 11.7399 15.4998C12.1138 15.4998 14.9998 13.1658 14.9998 12.6498C14.9998 12.4719 14.8783 12.3329 14.6963 12.1799ZM11.4999 7.99991H12.4998C12.4987 6.93943 12.0768 5.92272 11.327 5.17284C10.5771 4.42296 9.56038 4.00116 8.4999 3.99997V4.99995C9.29529 5.00075 10.0579 5.31707 10.6203 5.8795C11.1827 6.44193 11.4991 7.20452 11.4999 7.99991Z" fill="white"/>
<path d="M13.9999 7.99991H14.9999C14.9979 6.27664 14.3125 4.62451 13.0939 3.40597C11.8754 2.18743 10.2233 1.50198 8.5 1.5V2.49999C9.95814 2.50171 11.3561 3.08171 12.3871 4.11278C13.4182 5.14384 13.9982 6.54177 13.9999 7.99991Z" fill="white"/>
</svg>
