<svg width="35" height="35" viewBox="0 0 35 35" fill="none" xmlns="http://www.w3.org/2000/svg">
<g clip-path="url(#clip0_2604_4877)">
<path d="M9.42037 5.96331L6.29278 0.830134L7.54001 0.0717737L10.6691 5.20495L9.42037 5.96331ZM29.243 17.536C29.2427 19.2141 28.8806 20.8724 28.1814 22.3981C27.4823 23.9238 26.4625 25.2811 25.1913 26.3777C24.6305 26.8567 24.1797 27.451 23.8696 28.12C23.5595 28.789 23.3974 29.5169 23.3943 30.2542V35.0703H11.697V30.2557C11.697 28.7843 11.0302 27.3596 9.86633 26.347C8.38215 25.0553 7.24764 23.4106 6.5676 21.5649C5.88756 19.7192 5.68392 17.732 5.97549 15.7869C6.72412 10.6421 11.0302 6.49373 16.2151 5.91948C19.5883 5.54541 22.8343 6.57701 25.3463 8.82287C26.5714 9.92029 27.5514 11.2632 28.2228 12.7641C28.8942 14.265 29.2418 15.8904 29.243 17.5345V17.536ZM21.9322 30.2542C21.9322 29.905 21.9907 29.566 22.0448 29.2255H13.0436C13.0992 29.566 13.1577 29.9079 13.1577 30.2557V33.6091H21.9307V30.2542H21.9322ZM27.7809 17.536C27.7809 14.6311 26.538 11.8519 24.3711 9.91292C22.1749 7.94908 19.3441 7.04313 16.3745 7.37336C11.8417 7.87455 8.07663 11.5012 7.42304 15.9988C7.16673 17.7016 7.34412 19.4415 7.93883 21.0577C8.53353 22.6738 9.52635 24.114 10.8255 25.2452C11.613 25.9349 12.2305 26.797 12.6298 27.7643H16.8131V19.6532C15.9881 19.4841 15.2467 19.0358 14.7139 18.3839C14.1812 17.732 13.8898 16.9164 13.8888 16.0748H15.3509C15.3509 17.2832 16.335 18.2666 17.5442 18.2666C18.7534 18.2666 19.7374 17.2832 19.7374 16.0748H21.1996C21.1996 17.8399 19.9422 19.3142 18.2753 19.6532V27.7643H22.4512C22.8423 26.806 23.4522 25.9524 24.2322 25.2715C25.3449 24.3126 26.2377 23.1252 26.8499 21.7903C27.462 20.4554 27.7805 19.0044 27.7809 17.536ZM28.7985 0.830134L27.5498 0.0703125L24.4208 5.20349L25.6695 5.96331L28.7985 0.830134ZM34.4425 7.17464L29.2723 9.50817L29.8747 10.8408L35.0449 8.50725L34.4425 7.17464ZM0.0449219 8.50725L5.21516 10.8408L5.81758 9.50817L0.647337 7.17464L0.0449219 8.50725Z" fill="#EB7124"/>
</g>
<defs>
<clipPath id="clip0_2604_4877">
<rect width="35" height="35" fill="white"/>
</clipPath>
</defs>
</svg>
