<svg width="33" height="31" viewBox="0 0 33 31" fill="none" xmlns="http://www.w3.org/2000/svg">
<path d="M33 9.625C33 11.638 32.3084 13.8366 30.9458 16.1604C30.8499 16.3105 30.6996 16.4177 30.5264 16.4594C30.3533 16.5012 30.1707 16.4742 30.017 16.3842C29.8632 16.2942 29.7504 16.1481 29.702 15.9766C29.6537 15.8052 29.6737 15.6217 29.7577 15.4646C30.9953 13.354 31.6236 11.3905 31.6236 9.625C31.6236 5.3075 28.0198 1.375 24.0611 1.375C20.8244 1.375 19.1675 2.64963 17.622 4.06862L11.7219 9.90963C10.912 10.7195 10.7608 11.9735 11.374 12.8246C11.7631 13.365 12.3351 13.6909 12.9855 13.7431C13.3015 13.7681 13.6192 13.7246 13.9168 13.6154C14.2144 13.5062 14.4849 13.334 14.7098 13.1106L20.8285 7.07438C20.9583 6.94619 21.1337 6.87483 21.3162 6.87599C21.4986 6.87715 21.6731 6.95074 21.8013 7.08056C21.9295 7.21039 22.0009 7.38581 21.9997 7.56825C21.9985 7.75069 21.9249 7.92519 21.7951 8.05338L19.8206 10.0017L27.1315 16.4189C28.457 17.5807 28.7898 19.5222 27.9056 20.9357C27.5528 21.5038 27.0434 21.9579 26.4388 22.2435C25.8341 22.5291 25.1599 22.6341 24.497 22.5459C24.6758 23.3929 24.5479 24.2866 24.0817 25.0332C23.8156 25.462 23.4593 25.8276 23.0376 26.1047C22.6159 26.3818 22.1389 26.5638 21.6397 26.6379C21.1706 26.7076 20.692 26.679 20.2345 26.554C20.2966 27.2672 20.1269 27.9814 19.7505 28.5904C19.4394 29.0916 19.0058 29.5054 18.4905 29.7926C17.9752 30.0799 17.3952 30.2311 16.8053 30.2321C15.9657 30.2325 15.1547 29.927 14.5241 29.3727L10.0677 25.3743C3.29312 19.2514 0 14.1006 0 9.625C0 4.49762 4.17725 0 8.9375 0C10.5325 0 12.1261 0.517 13.5492 1.496C13.6943 1.60128 13.7926 1.75906 13.823 1.93572C13.8534 2.11238 13.8137 2.29394 13.7122 2.44169C13.6107 2.58945 13.4555 2.69173 13.2797 2.72672C13.1039 2.76171 12.9213 2.72664 12.771 2.629C11.5789 1.80812 10.2534 1.375 8.93888 1.375C4.98163 1.375 1.37638 5.3075 1.37638 9.625C1.37638 13.6331 4.61038 18.5886 10.989 24.3526L15.4371 28.3442C15.6657 28.5439 15.9351 28.6913 16.2265 28.7761C16.5179 28.8608 16.8243 28.881 17.1243 28.835C17.4243 28.789 17.7107 28.6781 17.9634 28.51C18.2161 28.3419 18.429 28.1206 18.5872 27.8616C19.118 27.0146 18.8966 25.8294 18.0716 25.1061L13.4846 20.746C13.4191 20.6839 13.3664 20.6095 13.3296 20.527C13.2928 20.4445 13.2727 20.3556 13.2702 20.2653C13.2678 20.1751 13.2832 20.0852 13.3155 20.0009C13.3478 19.9166 13.3964 19.8394 13.4585 19.7739C13.5206 19.7083 13.595 19.6557 13.6775 19.6189C13.76 19.5821 13.8489 19.5619 13.9392 19.5595C14.0294 19.5571 14.1193 19.5724 14.2036 19.6047C14.2879 19.637 14.3651 19.6856 14.4306 19.7478L19.7808 24.7981C20.2221 25.1859 20.834 25.3701 21.4417 25.278C21.7444 25.2345 22.0337 25.1247 22.289 24.9564C22.5443 24.7881 22.7592 24.5655 22.9185 24.3045C23.4479 23.4589 23.2265 22.2736 22.4015 21.5504L17.2934 16.9263C17.1575 16.8044 17.0756 16.6337 17.0657 16.4515C17.0558 16.2693 17.1186 16.0907 17.2404 15.9548C17.3622 15.819 17.533 15.7371 17.7152 15.7272C17.8974 15.7172 18.076 15.7801 18.2119 15.9019L23.5895 20.6882C23.8182 20.888 24.0877 21.0355 24.3793 21.1204C24.6709 21.2053 24.9775 21.2255 25.2777 21.1797C25.5779 21.1339 25.8645 21.0231 26.1174 20.8551C26.3704 20.6871 26.5837 20.4659 26.7424 20.207C27.2717 19.36 27.0504 18.1747 26.2254 17.4529L18.8403 10.9697L15.6805 14.0869C15.315 14.4503 14.8751 14.7304 14.3912 14.9079C13.9073 15.0854 13.3907 15.1562 12.8769 15.1154C12.359 15.0723 11.8567 14.9171 11.4048 14.6604C10.953 14.4038 10.5624 14.0518 10.2603 13.629C9.25787 12.2375 9.46963 10.2204 10.7539 8.93612L16.6746 3.07588C18.3769 1.51112 20.3335 0.00137506 24.0625 0.00137506C28.8241 0.00137506 33 4.499 33 9.62638V9.625Z" fill="#EB7124"/>
</svg>
