<svg width="60" height="60" viewBox="0 0 60 60" fill="none" xmlns="http://www.w3.org/2000/svg">
<path d="M20.5102 39.5011C20.9685 39.9585 21.7106 39.9585 22.1676 39.5011C22.6259 39.0428 22.6259 38.3011 22.1676 37.8437C21.7106 37.3854 20.9685 37.3854 20.5102 37.8437C20.0532 38.3011 20.0532 39.0428 20.5102 39.5011Z" fill="#2920D2"/>
<path d="M25.4844 36.1857L36.7001 24.9626C37.1575 24.5047 37.1575 23.7626 36.6997 23.3047C36.2414 22.8473 35.4997 22.8478 35.0418 23.3052L23.8261 34.5283C23.3682 34.9861 23.3687 35.7283 23.8265 36.1861C24.2844 36.6435 25.0265 36.6435 25.4844 36.1857Z" fill="#2920D2"/>
<path d="M18.4576 31.6083L8.36265 41.7032C8.25048 41.8154 8.15708 41.9564 8.0971 42.1144C8.09527 42.118 8.09344 42.1217 8.09207 42.1254C7.1599 44.6462 4.3318 52.2931 3.21925 55.3012C3.06083 55.7306 3.16659 56.2136 3.49075 56.5369C3.81215 56.8583 4.29472 56.9668 4.72692 56.8065C7.64246 55.7238 15.3589 52.8577 17.8872 51.9186C18.0346 51.8641 18.1884 51.7684 18.3079 51.649L28.402 41.5549L46.3993 59.6543C46.6195 59.8755 46.9185 60 47.2307 60H47.2317C47.5439 59.9995 47.8433 59.8746 48.0631 59.653L59.6658 47.9423C60.1199 47.484 60.1181 46.745 59.6621 46.2885C58.7675 45.3939 42.3758 29.0013 41.6657 28.2912C44.7263 25.2305 52.1036 17.8533 54.917 15.0398C57.6659 12.2942 57.6677 7.84119 54.9175 5.09413C52.17 2.34525 47.7211 2.34479 44.9717 5.09413L31.719 18.3468C31.0396 17.6674 14.7399 1.36729 13.7157 0.343557C13.2597 -0.112912 12.5208 -0.114743 12.0625 0.339437L0.342621 11.9407C0.120567 12.1605 -0.00442371 12.4599 -0.00488155 12.7726C-0.0053394 13.0849 0.119194 13.3847 0.34079 13.605L18.4576 31.6083ZM32.5477 20.8334C32.5477 20.8334 32.5477 20.8334 32.5482 20.8329C32.5482 20.8329 32.5482 20.8329 32.5482 20.8325L39.8572 13.5239L46.4872 20.1544L39.1796 27.4616C39.1796 27.462 39.1796 27.462 39.1791 27.462V27.4625L17.4792 49.1624L10.8492 42.5319L32.5477 20.8334ZM44.0016 9.37954L50.6316 16.01L48.1451 18.4966L41.5146 11.8665L44.0016 9.37954ZM10.5246 52.1526L7.86635 49.4943L9.65606 44.6545L15.3589 50.3574L10.5246 52.1526ZM6.97127 51.9145L8.10717 53.0504L6.30327 53.7202L6.97127 51.9145ZM42.7269 32.6677L37.7049 37.6889C37.247 38.1463 37.247 38.8884 37.7049 39.3463C38.1623 39.8041 38.9044 39.8041 39.3623 39.3467L44.3843 34.3256L47.934 37.8752L44.5698 41.239C44.1124 41.6968 44.1124 42.439 44.5698 42.8968C45.0276 43.3547 45.7698 43.3542 46.2276 42.8968L49.5918 39.5326L53.142 43.0832L48.1203 48.1043C47.6625 48.5617 47.6625 49.3039 48.1203 49.7617C48.5777 50.2196 49.3199 50.2196 49.7777 49.7617L54.7998 44.741L57.1797 47.1213C47.2825 57.0098 47.2294 57.1641 47.2294 57.1641L30.0598 39.897L40.0083 29.9486L42.7269 32.6677ZM53.2601 6.75198C55.0924 8.58198 55.0933 11.5502 53.2596 13.382L52.2894 14.3522L45.659 7.72215L46.6296 6.75152C48.4614 4.91924 51.4273 4.91786 53.2601 6.75198ZM15.4981 5.44118L10.477 10.461C10.0196 10.9184 10.0196 11.6605 10.477 12.1184C10.9348 12.5762 11.677 12.5762 12.1348 12.1188L17.156 7.09857L20.7056 10.6487L17.3423 14.0111C16.8845 14.4689 16.8845 15.2111 17.3419 15.6689C17.7997 16.1263 18.5414 16.1268 18.9997 15.6689L22.3635 12.3061L25.6769 15.6199L20.6566 20.6406C20.1993 21.0985 20.1993 21.8406 20.6566 22.2985C21.1145 22.7559 21.8566 22.7563 22.3145 22.298L27.3347 17.2773L30.0616 20.0042L20.115 29.9509L2.83145 12.7754C2.83145 12.7754 2.99399 12.7222 12.8829 2.82552L15.4981 5.44118Z" fill="#2920D2"/>
</svg>
