<svg width="60" height="60" viewBox="0 0 60 60" fill="none" xmlns="http://www.w3.org/2000/svg">
<path fill-rule="evenodd" clip-rule="evenodd" d="M19.8053 3.75022H13.1247C11.5703 3.75022 10.3122 5.00928 10.3122 6.56271V11.2502H4.68724C2.09881 11.2502 -0.000244141 13.3492 -0.000244141 15.9377V21.5626C-0.000244141 23.4845 1.15663 25.1364 2.81224 25.8601V28.5151C1.15663 29.2389 -0.000244141 30.8907 -0.000244141 32.8126V38.4376C-0.000244141 40.3595 1.15663 42.0113 2.81224 42.7351V45.3901C1.15663 46.1138 -0.000244141 47.7657 -0.000244141 49.6875V55.3125C-0.000244141 57.9009 2.09881 60 4.68724 60H34.6871C36.609 60 38.2609 58.8431 38.9846 57.1875H53.437C54.9914 57.1875 56.2495 55.9285 56.2495 54.375V38.3195C57.8667 37.9032 59.062 36.4351 59.062 34.6876C59.062 32.6167 57.383 30.9376 55.312 30.9376C53.2411 30.9376 51.5621 32.6167 51.5621 34.6876C51.5621 36.4351 52.7574 37.9032 54.3745 38.3195V54.375C54.3745 54.8935 53.9555 55.3125 53.437 55.3125H39.3746V51.5625H45.9371C47.4914 51.5625 48.7496 50.3035 48.7496 48.75V43.9444C50.3667 43.5282 51.5621 42.0601 51.5621 40.3126C51.5621 38.2416 49.883 36.5626 47.8121 36.5626C45.7411 36.5626 44.0621 38.2416 44.0621 40.3126C44.0621 42.0601 45.2574 43.5282 46.8746 43.9444V48.75C46.8746 49.2685 46.4555 49.6875 45.9371 49.6875H39.3746C39.3746 47.7657 38.2177 46.1138 36.5621 45.3901V42.7351C38.2177 42.0113 39.3746 40.3595 39.3746 38.4376V36.5626C39.3746 36.0451 38.9546 35.6251 38.4371 35.6251C37.9196 35.6251 37.4996 36.0451 37.4996 36.5626V38.4376C37.4996 39.991 36.2406 41.2501 34.6871 41.2501H4.68724C3.13381 41.2501 1.87475 39.991 1.87475 38.4376V32.8126C1.87475 31.2592 3.13381 30.0001 4.68724 30.0001H29.9996C30.5171 30.0001 30.9371 29.5801 30.9371 29.0626C30.9371 28.5451 30.5171 28.1251 29.9996 28.1251H4.68724V26.2501H28.1246C28.6421 26.2501 29.0621 25.8301 29.0621 25.3126C29.0621 24.7951 28.6421 24.3751 28.1246 24.3751H4.68724C3.13381 24.3751 1.87475 23.1161 1.87475 21.5626V15.9377C1.87475 14.3842 3.13381 13.1252 4.68724 13.1252H24.3747C24.8922 13.1252 25.3122 12.7052 25.3122 12.1877C25.3122 11.6702 24.8922 11.2502 24.3747 11.2502H12.1872V6.56271C12.1872 6.04427 12.6063 5.62521 13.1247 5.62521H19.8053C20.2225 7.24146 21.6915 8.4377 23.4372 8.4377C25.5072 8.4377 27.1871 6.75771 27.1871 4.68772C27.1871 2.61772 25.5072 0.937731 23.4372 0.937731C21.6915 0.937731 20.2225 2.13398 19.8053 3.75022ZM34.6871 58.125H4.68724C3.13381 58.125 1.87475 56.8659 1.87475 55.3125V49.6875C1.87475 48.1341 3.13381 46.875 4.68724 46.875H34.6871C36.2406 46.875 37.4996 48.1341 37.4996 49.6875V55.3125C37.4996 56.8659 36.2406 58.125 34.6871 58.125ZM9.37472 52.5C9.37472 50.9475 8.11472 49.6875 6.56223 49.6875C5.00974 49.6875 3.74974 50.9475 3.74974 52.5C3.74974 54.0525 5.00974 55.3125 6.56223 55.3125C8.11472 55.3125 9.37472 54.0525 9.37472 52.5ZM20.6247 52.5C20.6247 50.9475 19.3647 49.6875 17.8122 49.6875C16.2597 49.6875 14.9997 50.9475 14.9997 52.5C14.9997 54.0525 16.2597 55.3125 17.8122 55.3125C19.3647 55.3125 20.6247 54.0525 20.6247 52.5ZM14.9997 52.5C14.9997 50.9475 13.7397 49.6875 12.1872 49.6875C10.6347 49.6875 9.37472 50.9475 9.37472 52.5C9.37472 54.0525 10.6347 55.3125 12.1872 55.3125C13.7397 55.3125 14.9997 54.0525 14.9997 52.5ZM23.4372 53.4375H33.7496C34.2671 53.4375 34.6871 53.0175 34.6871 52.5C34.6871 51.9825 34.2671 51.5625 33.7496 51.5625H23.4372C22.9197 51.5625 22.4997 51.9825 22.4997 52.5C22.4997 53.0175 22.9197 53.4375 23.4372 53.4375ZM7.49973 52.5C7.49973 53.0175 7.07973 53.4375 6.56223 53.4375C6.04473 53.4375 5.62473 53.0175 5.62473 52.5C5.62473 51.9825 6.04473 51.5625 6.56223 51.5625C7.07973 51.5625 7.49973 51.9825 7.49973 52.5ZM18.7497 52.5C18.7497 53.0175 18.3297 53.4375 17.8122 53.4375C17.2947 53.4375 16.8747 53.0175 16.8747 52.5C16.8747 51.9825 17.2947 51.5625 17.8122 51.5625C18.3297 51.5625 18.7497 51.9825 18.7497 52.5ZM13.1247 52.5C13.1247 53.0175 12.7047 53.4375 12.1872 53.4375C11.6697 53.4375 11.2497 53.0175 11.2497 52.5C11.2497 51.9825 11.6697 51.5625 12.1872 51.5625C12.7047 51.5625 13.1247 51.9825 13.1247 52.5ZM34.6871 43.1251H4.68724V45.0001H34.6871V43.1251ZM47.8121 42.1876C46.7761 42.1876 45.9371 41.3485 45.9371 40.3126C45.9371 39.2766 46.7761 38.4376 47.8121 38.4376C48.848 38.4376 49.6871 39.2766 49.6871 40.3126C49.6871 41.3485 48.848 42.1876 47.8121 42.1876ZM9.37472 35.6251C9.37472 34.0726 8.11472 32.8126 6.56223 32.8126C5.00974 32.8126 3.74974 34.0726 3.74974 35.6251C3.74974 37.1776 5.00974 38.4376 6.56223 38.4376C8.11472 38.4376 9.37472 37.1776 9.37472 35.6251ZM20.6247 35.6251C20.6247 34.0726 19.3647 32.8126 17.8122 32.8126C16.2597 32.8126 14.9997 34.0726 14.9997 35.6251C14.9997 37.1776 16.2597 38.4376 17.8122 38.4376C19.3647 38.4376 20.6247 37.1776 20.6247 35.6251ZM14.9997 35.6251C14.9997 34.0726 13.7397 32.8126 12.1872 32.8126C10.6347 32.8126 9.37472 34.0726 9.37472 35.6251C9.37472 37.1776 10.6347 38.4376 12.1872 38.4376C13.7397 38.4376 14.9997 37.1776 14.9997 35.6251ZM13.1247 35.6251C13.1247 36.1426 12.7047 36.5626 12.1872 36.5626C11.6697 36.5626 11.2497 36.1426 11.2497 35.6251C11.2497 35.1076 11.6697 34.6876 12.1872 34.6876C12.7047 34.6876 13.1247 35.1076 13.1247 35.6251ZM7.49973 35.6251C7.49973 36.1426 7.07973 36.5626 6.56223 36.5626C6.04473 36.5626 5.62473 36.1426 5.62473 35.6251C5.62473 35.1076 6.04473 34.6876 6.56223 34.6876C7.07973 34.6876 7.49973 35.1076 7.49973 35.6251ZM18.7497 35.6251C18.7497 36.1426 18.3297 36.5626 17.8122 36.5626C17.2947 36.5626 16.8747 36.1426 16.8747 35.6251C16.8747 35.1076 17.2947 34.6876 17.8122 34.6876C18.3297 34.6876 18.7497 35.1076 18.7497 35.6251ZM55.312 36.5626C54.2761 36.5626 53.437 35.7235 53.437 34.6876C53.437 33.6517 54.2761 32.8126 55.312 32.8126C56.348 32.8126 57.187 33.6517 57.187 34.6876C57.187 35.7235 56.348 36.5626 55.312 36.5626ZM23.4372 36.5626H33.7496C34.2671 36.5626 34.6871 36.1426 34.6871 35.6251C34.6871 35.1076 34.2671 34.6876 33.7496 34.6876H23.4372C22.9197 34.6876 22.4997 35.1076 22.4997 35.6251C22.4997 36.1426 22.9197 36.5626 23.4372 36.5626ZM44.5196 35.506L46.7386 34.2676C55.9392 29.1329 61.0617 19.3183 59.8148 9.25988C59.7783 8.96551 59.6048 8.70676 59.348 8.56051L44.5261 0.123046C44.2383 -0.0410155 43.8858 -0.0410155 43.599 0.123046L28.7771 8.56051C28.5193 8.70676 28.3468 8.96551 28.3103 9.25988C27.0634 19.3183 32.1849 29.1329 41.3855 34.2676L43.6055 35.506C43.8896 35.6645 44.2355 35.6645 44.5196 35.506ZM45.8246 32.6307L44.0621 33.6142L42.2996 32.6307C33.9231 27.9554 29.1756 19.1027 30.1187 9.95457C30.1187 9.95363 44.0621 2.01585 44.0621 2.01585L58.0064 9.95363C58.9486 19.1027 54.2011 27.9554 45.8246 32.6307ZM43.2258 30.9995L43.224 30.9986C43.224 30.9986 43.5436 31.1776 43.5952 31.2067C43.8671 31.3585 44.0611 31.3304 44.0611 31.3304C44.0611 31.3304 44.2552 31.3585 44.5271 31.2067C44.5786 31.1776 44.8993 30.9995 44.8993 30.9995H44.8974L44.9105 30.9929C52.1836 26.9336 56.4783 19.4739 56.2392 11.6233C56.2289 11.2961 56.0498 10.998 55.7658 10.8368L44.5252 4.43834C44.2374 4.27428 43.8849 4.27428 43.598 4.43834L32.3584 10.8368C32.0743 10.998 31.8953 11.2961 31.8849 11.6233C31.6459 19.4739 35.9406 26.9336 43.2136 30.9929L43.2258 30.9995ZM44.0621 29.3186C37.6196 25.6942 33.7337 19.1542 33.7506 12.2017L44.0621 6.33208L54.3736 12.2017C54.3905 19.1542 50.5046 25.6942 44.0621 29.3186ZM9.37472 18.7502C9.37472 17.1977 8.11472 15.9377 6.56223 15.9377C5.00974 15.9377 3.74974 17.1977 3.74974 18.7502C3.74974 20.3027 5.00974 21.5626 6.56223 21.5626C8.11472 21.5626 9.37472 20.3027 9.37472 18.7502ZM20.6247 18.7502C20.6247 17.1977 19.3647 15.9377 17.8122 15.9377C16.2597 15.9377 14.9997 17.1977 14.9997 18.7502C14.9997 20.3027 16.2597 21.5626 17.8122 21.5626C19.3647 21.5626 20.6247 20.3027 20.6247 18.7502ZM14.9997 18.7502C14.9997 17.1977 13.7397 15.9377 12.1872 15.9377C10.6347 15.9377 9.37472 17.1977 9.37472 18.7502C9.37472 20.3027 10.6347 21.5626 12.1872 21.5626C13.7397 21.5626 14.9997 20.3027 14.9997 18.7502ZM43.1246 18.5898V20.5848C43.1246 21.1014 43.5446 21.5214 44.0621 21.5223C44.5796 21.5223 44.9996 21.1014 44.9996 20.5848V18.5898C46.0918 18.2036 46.8746 17.1611 46.8746 15.9377C46.8746 14.3852 45.6146 13.1252 44.0621 13.1252C42.5096 13.1252 41.2496 14.3852 41.2496 15.9377C41.2496 17.1611 42.0324 18.2036 43.1246 18.5898ZM23.4372 19.6877H25.3122C25.8297 19.6877 26.2497 19.2677 26.2497 18.7502C26.2497 18.2327 25.8297 17.8127 25.3122 17.8127H23.4372C22.9197 17.8127 22.4997 18.2327 22.4997 18.7502C22.4997 19.2677 22.9197 19.6877 23.4372 19.6877ZM13.1247 18.7502C13.1247 19.2677 12.7047 19.6877 12.1872 19.6877C11.6697 19.6877 11.2497 19.2677 11.2497 18.7502C11.2497 18.2327 11.6697 17.8127 12.1872 17.8127C12.7047 17.8127 13.1247 18.2327 13.1247 18.7502ZM7.49973 18.7502C7.49973 19.2677 7.07973 19.6877 6.56223 19.6877C6.04473 19.6877 5.62473 19.2677 5.62473 18.7502C5.62473 18.2327 6.04473 17.8127 6.56223 17.8127C7.07973 17.8127 7.49973 18.2327 7.49973 18.7502ZM18.7497 18.7502C18.7497 19.2677 18.3297 19.6877 17.8122 19.6877C17.2947 19.6877 16.8747 19.2677 16.8747 18.7502C16.8747 18.2327 17.2947 17.8127 17.8122 17.8127C18.3297 17.8127 18.7497 18.2327 18.7497 18.7502ZM44.0827 16.8752C44.5908 16.8639 44.9996 16.4477 44.9996 15.9377C44.9996 15.4202 44.5796 15.0002 44.0621 15.0002C43.5446 15.0002 43.1246 15.4202 43.1246 15.9377C43.1246 16.4477 43.5333 16.8639 44.0415 16.8752H44.0621C44.0686 16.8742 44.0761 16.8752 44.0827 16.8752ZM21.5622 4.68772C21.5622 3.65272 22.4022 2.81272 23.4372 2.81272C24.4722 2.81272 25.3122 3.65272 25.3122 4.68772C25.3122 5.72271 24.4722 6.56271 23.4372 6.56271C22.4022 6.56271 21.5622 5.72271 21.5622 4.68772Z" fill="#2920D2"/>
</svg>
