<svg width="56" height="60" viewBox="0 0 56 60" fill="none" xmlns="http://www.w3.org/2000/svg">
<path d="M54.919 35.4023H48.0354C47.4923 35.4023 47.0521 35.8426 47.0521 36.3857C47.0521 36.9287 47.4923 37.369 48.0354 37.369H52.5448L35.2515 54.6623L30.2925 49.7032C29.9188 49.3297 29.3167 49.318 28.9289 49.6771L22.9855 55.1802L19.4856 51.6803C19.1015 51.2964 18.4789 51.2964 18.0949 51.6803C17.7109 52.0644 17.7109 52.687 18.0949 53.0711L22.264 57.2401C22.4556 57.4317 22.7073 57.528 22.9595 57.528C23.1989 57.528 23.4387 57.4411 23.6274 57.2663L29.5708 51.7631L34.5561 56.7484C34.9403 57.1323 35.5628 57.1323 35.9469 56.7484L53.9355 38.7598V43.2691C53.9355 43.8122 54.3758 44.2525 54.9189 44.2525C55.4619 44.2525 55.9022 43.8122 55.9022 43.2691V36.3855C55.9023 35.8426 55.462 35.4023 54.919 35.4023Z" fill="#2920D2"/>
<path d="M20.0094 31.9598H27.3847H34.76C35.3031 31.9598 35.7433 31.5195 35.7433 30.9764V19.6677C35.7433 18.5833 34.861 17.701 33.7766 17.701H28.3715C28.3807 17.763 28.38 17.8267 28.3679 17.8905V15.7343C28.3679 14.6499 27.4857 13.7676 26.4013 13.7676H20.9927C19.9083 13.7676 19.0259 14.6499 19.0259 15.7343V23.1096H13.6174C12.5329 23.1096 11.6506 23.992 11.6506 25.0764V30.9766C11.6506 31.5196 12.0909 31.9599 12.634 31.9599L20.0094 31.9598ZM28.3681 19.6677H33.7767V29.9931H28.3681V19.6677ZM20.9928 15.7342H26.4014V29.993H20.9928V15.7342ZM13.6175 25.0763H19.0261V29.9931H13.6175V25.0763Z" fill="#2920D2"/>
<path d="M23.9436 41.7929C33.975 41.7929 42.1361 33.6319 42.1361 23.6006C42.1361 13.5694 33.975 5.4082 23.9436 5.4082C13.9124 5.4082 5.75122 13.5693 5.75122 23.6006C5.75134 33.6318 13.9124 41.7929 23.9436 41.7929ZM23.9436 7.37496C32.8906 7.37496 40.1693 14.6537 40.1693 23.6006C40.1693 32.5474 32.8906 39.8262 23.9436 39.8262C14.9967 39.8262 7.71798 32.5474 7.71798 23.6006C7.7181 14.6537 14.9968 7.37496 23.9436 7.37496Z" fill="#2920D2"/>
<path d="M3.53837 59.079C4.61978 59.7035 5.80138 60.0001 6.96857 60C9.34923 59.9998 11.668 58.7653 12.9415 56.5595L18.6856 46.6106C20.3769 46.9969 22.1366 47.2017 23.9433 47.2017C36.957 47.2017 47.5443 36.6144 47.5443 23.6009C47.5443 10.5873 36.957 0 23.9433 0C10.9297 0 0.342435 10.5873 0.342435 23.6009C0.342435 29.8425 2.779 35.525 6.74954 39.7499L1.01872 49.6759C-0.87901 52.9631 0.251263 57.1813 3.53837 59.079ZM23.9433 1.96676C35.8725 1.96676 45.5775 11.6718 45.5775 23.601C45.5775 35.5301 35.8725 45.2351 23.9433 45.2351C12.0142 45.2351 2.30908 35.5301 2.30908 23.601C2.30919 11.6718 12.0142 1.96676 23.9433 1.96676ZM2.72204 50.6593L8.2015 41.1687C10.6406 43.3566 13.5361 45.0447 16.7258 46.0716L11.2383 55.5762C9.88279 57.924 6.86978 58.7316 4.52169 57.3759C2.17384 56.0203 1.36642 53.0073 2.72204 50.6593Z" fill="#2920D2"/>
</svg>
