<svg width="60" height="60" viewBox="0 0 60 60" fill="none" xmlns="http://www.w3.org/2000/svg">
<path d="M30.0007 25.0005C31.7807 25.0005 33.5207 24.4727 35.0007 23.4838C36.4807 22.4949 37.6343 21.0893 38.3154 19.4448C38.9966 17.8003 39.1748 15.9908 38.8276 14.245C38.4803 12.4992 37.6232 10.8956 36.3645 9.63695C35.1059 8.37831 33.5023 7.52117 31.7565 7.17391C30.0107 6.82665 28.2012 7.00488 26.5567 7.68605C24.9122 8.36722 23.5066 9.52074 22.5177 11.0007C21.5288 12.4807 21.001 14.2208 21.001 16.0007C21.0036 18.3868 21.9527 20.6744 23.6399 22.3616C25.3271 24.0488 27.6147 24.9978 30.0007 25.0005ZM30.0007 9.00093C31.3852 9.00093 32.7385 9.41146 33.8896 10.1806C35.0407 10.9498 35.9379 12.043 36.4677 13.322C36.9975 14.6011 37.1361 16.0085 36.866 17.3663C36.596 18.7242 35.9293 19.9714 34.9503 20.9504C33.9714 21.9293 32.7242 22.596 31.3663 22.866C30.0085 23.1361 28.6011 22.9975 27.322 22.4677C26.043 21.9379 24.9498 21.0407 24.1806 19.8896C23.4115 18.7385 23.0009 17.3852 23.0009 16.0007C23.003 14.1449 23.7412 12.3657 25.0535 11.0535C26.3657 9.7412 28.1449 9.00304 30.0007 9.00093Z" fill="#2920D2"/>
<path d="M30.0008 21.0007C30.9897 21.0007 31.9564 20.7075 32.7786 20.1581C33.6008 19.6087 34.2417 18.8278 34.6201 17.9142C34.9985 17.0006 35.0976 15.9953 34.9046 15.0254C34.7117 14.0555 34.2355 13.1646 33.5363 12.4654C32.837 11.7662 31.9461 11.29 30.9763 11.097C30.0064 10.9041 29.0011 11.0031 28.0875 11.3816C27.1739 11.76 26.393 12.4008 25.8436 13.2231C25.2942 14.0453 25.001 15.012 25.001 16.0008C25.0026 17.3264 25.5298 18.5972 26.4672 19.5345C27.4045 20.4718 28.6753 20.9991 30.0008 21.0007ZM30.0008 13.0009C30.5942 13.0009 31.1742 13.1769 31.6675 13.5065C32.1608 13.8361 32.5453 14.3047 32.7724 14.8528C32.9995 15.401 33.0589 16.0042 32.9431 16.5861C32.8274 17.168 32.5416 17.7026 32.1221 18.1221C31.7026 18.5417 31.168 18.8274 30.5861 18.9431C30.0042 19.0589 29.401 18.9995 28.8528 18.7724C28.3047 18.5454 27.8361 18.1608 27.5065 17.6675C27.1769 17.1742 27.0009 16.5942 27.0009 16.0008C27.0009 15.2052 27.317 14.4422 27.8796 13.8796C28.4422 13.317 29.2052 13.0009 30.0008 13.0009Z" fill="#2920D2"/>
<path d="M59.9998 38.0006C59.9986 37.5849 59.8674 37.18 59.6246 36.8425C59.3818 36.505 59.0396 36.2519 58.6458 36.1187L48.5291 32.5007L58.6468 28.8818C59.041 28.7496 59.3836 28.4969 59.6264 28.1594C59.8692 27.8219 59.9998 27.4167 59.9998 27.0009C59.9998 26.5851 59.8692 26.1799 59.6264 25.8424C59.3836 25.5049 59.041 25.2522 58.6468 25.1199L42.9472 19.5001C42.9742 19.4001 43.0082 19.3001 43.0322 19.2001L44.8792 18.6351C45.1675 18.5488 45.4234 18.378 45.6137 18.1449C45.8041 17.9118 45.9202 17.6269 45.9471 17.3272C45.9871 16.8902 46.0061 16.4472 46.0061 16.0012C46.0061 15.5552 45.9871 15.1122 45.9471 14.6752C45.9201 14.3752 45.8038 14.0902 45.6133 13.8569C45.4227 13.6236 45.1667 13.4527 44.8782 13.3663L43.0262 12.8013C42.7038 11.4798 42.1793 10.2159 41.4713 9.05438L42.3782 7.35443C42.522 7.08918 42.5829 6.78687 42.5529 6.48664C42.523 6.18641 42.4036 5.90209 42.2102 5.67047C41.9289 5.33382 41.6289 5.00782 41.3103 4.6925C40.9916 4.37717 40.6653 4.07718 40.3313 3.79252C40.0998 3.60004 39.8161 3.48119 39.5165 3.45125C39.217 3.42131 38.9153 3.48166 38.6503 3.62453L36.9424 4.5325C35.7823 3.82444 34.5203 3.29898 33.2005 2.97455L32.6365 1.1276C32.549 0.839579 32.3776 0.58417 32.1443 0.393956C31.911 0.203742 31.6263 0.0873483 31.3265 0.0596245C30.4443 -0.0198748 29.5568 -0.0198748 28.6746 0.0596245C28.3747 0.0870897 28.0899 0.203525 27.8567 0.393992C27.6235 0.584458 27.4525 0.840267 27.3656 1.1286L26.8007 2.97455C25.4796 3.29797 24.2162 3.82277 23.0548 4.5305L21.3488 3.62353C21.0832 3.48032 20.7807 3.41989 20.4804 3.45C20.1802 3.48012 19.8958 3.59941 19.6638 3.79252C19.3279 4.07252 19.0019 4.37251 18.6869 4.6925C18.3719 5.01249 18.0709 5.33348 17.7869 5.66947C17.5934 5.90078 17.4738 6.18482 17.4435 6.48485C17.4132 6.78488 17.4736 7.0871 17.6169 7.35243L18.5249 9.05938C17.8198 10.22 17.297 11.482 16.9749 12.8013L15.128 13.3663C14.8396 13.4526 14.5838 13.6233 14.3934 13.8565C14.2031 14.0896 14.0869 14.3745 14.06 14.6742C14.02 15.1112 14.001 15.5542 14.001 16.0002C14.001 16.4462 14.02 16.8892 14.06 17.3242C14.0868 17.6245 14.203 17.9098 14.3935 18.1435C14.584 18.3772 14.8402 18.5484 15.129 18.6351L16.9749 19.1991C16.9989 19.2991 17.0329 19.3991 17.0599 19.4991L1.35434 25.1199C0.960169 25.2522 0.617495 25.5049 0.374716 25.8424C0.131938 26.1799 0.00132503 26.5851 0.00132503 27.0009C0.00132503 27.4167 0.131938 27.8219 0.374716 28.1594C0.617495 28.4969 0.960169 28.7496 1.35434 28.8818L11.4721 32.5007L1.35434 36.1187C0.959933 36.2509 0.617046 36.5037 0.374115 36.8414C0.131184 37.1791 0.000488281 37.5846 0.000488281 38.0006C0.000488281 38.4166 0.131184 38.8221 0.374115 39.1598C0.617046 39.4975 0.959933 39.7503 1.35434 39.8825L10.0731 43.0005L1.35434 46.1194C0.959933 46.2516 0.617046 46.5045 0.374115 46.8422C0.131184 47.1799 0.000488281 47.5853 0.000488281 48.0013C0.000488281 48.4173 0.131184 48.8228 0.374115 49.1605C0.617046 49.4982 0.959933 49.751 1.35434 49.8833L29.2816 59.874C29.7452 60.042 30.253 60.042 30.7165 59.874L58.6458 49.8833C59.0402 49.751 59.3831 49.4982 59.626 49.1605C59.8689 48.8228 59.9996 48.4173 59.9996 48.0013C59.9996 47.5853 59.8689 47.1799 59.626 46.8422C59.3831 46.5045 59.0402 46.2516 58.6458 46.1194L49.929 43.0005L58.6468 39.8825C59.0404 39.7491 59.3824 39.4959 59.625 39.1585C59.8676 38.821 59.9986 38.4162 59.9998 38.0006ZM16.0259 16.8182C16.0089 16.5482 16.0009 16.2752 16.0009 16.0012C16.0009 15.7272 16.0089 15.4552 16.0259 15.1842L18.1159 14.5452C18.2891 14.4926 18.4448 14.3939 18.5663 14.2597C18.6878 14.1255 18.7706 13.9608 18.8059 13.7833C19.0964 12.3081 19.6784 10.9057 20.5178 9.65837C20.6187 9.50794 20.6768 9.33295 20.6859 9.15207C20.6951 8.9712 20.655 8.79124 20.5698 8.63139L19.5408 6.70145C19.7208 6.50145 19.9068 6.30146 20.1018 6.10646C20.2968 5.91147 20.4938 5.72447 20.7018 5.54548L22.6368 6.57445C22.7967 6.65945 22.9767 6.69941 23.1576 6.69008C23.3385 6.68074 23.5134 6.62246 23.6637 6.52145C24.9086 5.68051 26.3084 5.09583 27.7816 4.8015C27.959 4.76641 28.1235 4.6839 28.2576 4.56275C28.3918 4.44161 28.4906 4.28636 28.5436 4.11352L29.1836 2.02257C29.7277 1.98857 30.2734 1.98857 30.8175 2.02257L31.4575 4.11352C31.5105 4.28636 31.6093 4.44161 31.7435 4.56275C31.8777 4.6839 32.0422 4.76641 32.2195 4.8015C33.694 5.09206 35.0957 5.67409 36.3424 6.51345C36.4927 6.61446 36.6677 6.67274 36.8485 6.68208C37.0294 6.69141 37.2094 6.65145 37.3694 6.56645L39.3003 5.54148C39.5003 5.72047 39.7003 5.90847 39.8953 6.10246C40.0903 6.29646 40.2763 6.49445 40.4563 6.69745L39.4313 8.63139C39.346 8.79136 39.3057 8.97151 39.3149 9.15258C39.3241 9.33366 39.3823 9.50883 39.4833 9.65937C40.3248 10.9058 40.9086 12.3079 41.2003 13.7833C41.2355 13.9608 41.3183 14.1255 41.4398 14.2597C41.5614 14.3939 41.717 14.4926 41.8902 14.5452L43.9802 15.1842C43.9972 15.4542 44.0052 15.7272 44.0052 16.0012C44.0052 16.2752 43.9972 16.5472 43.9802 16.8182L41.8902 17.4572C41.717 17.5098 41.5614 17.6085 41.4398 17.7427C41.3183 17.8769 41.2355 18.0416 41.2003 18.2191C40.9097 19.6943 40.3277 21.0966 39.4883 22.344C39.3875 22.4945 39.3293 22.6694 39.3202 22.8503C39.311 23.0312 39.3512 23.2112 39.4363 23.371L40.4603 25.3009C40.2803 25.5009 40.0943 25.7009 39.8993 25.9009C39.7043 26.1009 39.5073 26.2829 39.3043 26.4619L37.3694 25.4329C37.2094 25.3479 37.0294 25.308 36.8485 25.3173C36.6677 25.3266 36.4927 25.3849 36.3424 25.4859C35.096 26.3264 33.6943 26.9094 32.2195 27.2009C32.0422 27.236 31.8777 27.3185 31.7435 27.4396C31.6093 27.5608 31.5105 27.716 31.4575 27.8889L30.8175 29.9798C30.2734 30.0138 29.7277 30.0138 29.1836 29.9798L28.5436 27.8889C28.4906 27.716 28.3918 27.5608 28.2576 27.4396C28.1235 27.3185 27.959 27.236 27.7816 27.2009C26.3066 26.9102 24.9046 26.3278 23.6577 25.4879C23.5073 25.3871 23.3323 25.329 23.1514 25.3198C22.9706 25.3107 22.7906 25.3508 22.6308 25.4359L20.7008 26.4599C20.5008 26.2819 20.3008 26.0939 20.1008 25.8999C19.9008 25.7059 19.7198 25.5079 19.5398 25.2999L20.5688 23.366C20.6542 23.206 20.6944 23.0259 20.6852 22.8448C20.6761 22.6637 20.6179 22.4886 20.5168 22.338C19.6771 21.0912 19.0951 19.6891 18.8049 18.2141C18.7696 18.0366 18.6868 17.8719 18.5653 17.7377C18.4438 17.6035 18.2881 17.5048 18.1149 17.4522L16.0259 16.8182ZM17.7259 21.3861C17.9601 21.9234 18.2294 22.4449 18.5319 22.947L17.6249 24.647C17.4811 24.9122 17.4202 25.2145 17.4502 25.5147C17.4802 25.815 17.5995 26.0993 17.7929 26.3309C18.0742 26.6676 18.3742 26.9936 18.6929 27.3089C19.0115 27.6242 19.3379 27.9242 19.6718 28.2089C19.9035 28.401 20.1872 28.5196 20.4867 28.5495C20.7861 28.5795 21.0877 28.5193 21.3528 28.3769L23.0598 27.4689C24.2196 28.1769 25.4812 28.7027 26.8007 29.0278L27.3646 30.8748C27.4518 31.1628 27.6229 31.4181 27.8561 31.6082C28.0893 31.7983 28.374 31.9144 28.6736 31.9418C29.1106 31.9818 29.5536 32.0008 29.9996 32.0008C30.4456 32.0008 30.8885 31.9818 31.3255 31.9418C31.6254 31.9144 31.9103 31.798 32.1436 31.6076C32.3768 31.4171 32.5478 31.1612 32.6345 30.8728L33.1985 29.0278C34.5195 28.7044 35.783 28.1796 36.9444 27.4719L38.6503 28.3789C38.9159 28.5223 39.2184 28.5829 39.5187 28.5528C39.8191 28.5227 40.1035 28.4032 40.3353 28.2099C40.6713 27.9299 40.9973 27.6299 41.3123 27.3099C41.6273 26.9899 41.9282 26.6689 42.2122 26.3329C42.4057 26.1016 42.5253 25.8176 42.5556 25.5175C42.5859 25.2175 42.5255 24.9153 42.3822 24.65L41.4743 22.943C41.7764 22.4409 42.0453 21.9194 42.2792 21.3821L57.9728 27.0009L29.9576 36.9886L2.02832 27.0009L17.7259 21.3861ZM57.9728 48.0003L29.9576 57.9911L2.02832 48.0003L13.041 44.0604L29.2826 49.8693C29.7462 50.0373 30.254 50.0373 30.7175 49.8693L46.9601 44.0624L57.9728 48.0003ZM29.9576 47.9883L2.02832 38.0006L14.441 33.5627L29.2826 38.8716C29.7462 39.0396 30.254 39.0396 30.7175 38.8716L45.5602 33.5627L57.9728 38.0006L29.9576 47.9883Z" fill="#2920D2"/>
<path d="M27.3505 43.0592L16.1678 39.0593C15.9206 38.9793 15.6519 38.9987 15.4187 39.1133C15.1855 39.228 15.006 39.4289 14.9184 39.6736C14.8308 39.9182 14.8419 40.1874 14.9493 40.424C15.0567 40.6607 15.252 40.8462 15.4938 40.9413L26.6765 44.9412C26.7846 44.9803 26.8986 45.0003 27.0135 45.0002C27.2488 44.9999 27.4765 44.9166 27.6564 44.7649C27.8364 44.6133 27.9571 44.4031 27.9973 44.1713C28.0376 43.9394 27.9948 43.7008 27.8765 43.4974C27.7582 43.294 27.5719 43.1389 27.3505 43.0592Z" fill="#2920D2"/>
<path d="M27.3505 53.0592L16.1678 49.0593C15.9206 48.9793 15.6519 48.9987 15.4187 49.1133C15.1855 49.228 15.006 49.4289 14.9184 49.6736C14.8308 49.9182 14.8419 50.1874 14.9493 50.424C15.0567 50.6607 15.252 50.8462 15.4938 50.9413L26.6765 54.9412C26.7846 54.9803 26.8986 55.0003 27.0135 55.0002C27.2488 54.9999 27.4765 54.9166 27.6564 54.7649C27.8364 54.6133 27.9571 54.4031 27.9973 54.1713C28.0376 53.9394 27.9948 53.7008 27.8765 53.4974C27.7582 53.294 27.5719 53.1389 27.3505 53.0592Z" fill="#2920D2"/>
</svg>
