<svg width="62" height="60" viewBox="0 0 62 60" fill="none" xmlns="http://www.w3.org/2000/svg">
<path d="M60.2528 57.8329H57.7243V18.162C57.7233 17.4623 57.4449 16.7916 56.95 16.2969C56.4552 15.8022 55.7843 15.5241 55.0846 15.5234H49.7281C49.0286 15.5243 48.3579 15.8026 47.8633 16.2972C47.3686 16.7919 47.0904 17.4625 47.0895 18.162V57.8329H43.4543V37.0003C43.4537 36.3006 43.1755 35.6298 42.6808 35.1349C42.1862 34.64 41.5154 34.3616 40.8157 34.3607H35.4581C34.7584 34.3616 34.0877 34.64 33.593 35.1349C33.0984 35.6298 32.8202 36.3006 32.8195 37.0003V57.8329H29.1844V29.385C29.1837 28.6853 28.9055 28.0145 28.4109 27.5196C27.9162 27.0247 27.2455 26.7463 26.5458 26.7454H21.1882C20.4885 26.7463 19.8177 27.0247 19.3231 27.5196C18.8284 28.0144 18.5502 28.6853 18.5496 29.385V57.8329H14.9144V45.3573C14.9137 44.6576 14.6356 43.9867 14.1409 43.4918C13.6463 42.997 12.9755 42.7185 12.2758 42.7176H6.91927C6.21942 42.7183 5.54843 42.9967 5.05356 43.4915C4.55868 43.9864 4.28035 44.6574 4.27964 45.3573V57.8329H1.75106C1.46676 57.8375 1.19566 57.9537 0.996236 58.1563C0.796812 58.359 0.68505 58.632 0.685059 58.9163C0.685067 59.2006 0.796845 59.4736 0.996281 59.6762C1.19572 59.8789 1.46683 59.9951 1.75113 59.9996C9.84348 60.001 57.9304 60.0037 60.2528 59.9996C60.5364 59.994 60.8064 59.8773 61.005 59.6748C61.2035 59.4722 61.3147 59.1999 61.3147 58.9163C61.3147 58.6326 61.2035 58.3603 61.005 58.1578C60.8065 57.9552 60.5364 57.8386 60.2528 57.8329ZM6.44637 57.8329V45.3573C6.44669 45.2319 6.49661 45.1118 6.58524 45.0232C6.67386 44.9346 6.79397 44.8847 6.91929 44.8844H12.2758C12.401 44.8847 12.521 44.9347 12.6095 45.0233C12.6979 45.112 12.7476 45.232 12.7477 45.3573V57.8329H6.44637ZM20.7163 57.8329V29.385C20.7164 29.2598 20.7661 29.1397 20.8546 29.0511C20.943 28.9624 21.063 28.9125 21.1882 28.9121H26.5458C26.671 28.9125 26.791 28.9624 26.8794 29.0511C26.9679 29.1397 27.0176 29.2598 27.0176 29.385V57.8329H20.7163ZM34.9863 57.8329V37.0003C34.9864 36.8751 35.0361 36.755 35.1245 36.6664C35.213 36.5777 35.3329 36.5278 35.4582 36.5274H40.8157C40.941 36.5278 41.0609 36.5777 41.1494 36.6664C41.2378 36.755 41.2875 36.8751 41.2876 37.0003V57.8329H34.9863ZM49.2563 57.8329V18.162C49.2564 18.0369 49.3061 17.917 49.3946 17.8285C49.4831 17.74 49.603 17.6903 49.7281 17.6902H55.0846C55.2099 17.6902 55.33 17.7399 55.4186 17.8284C55.5072 17.9168 55.5572 18.0368 55.5576 18.162V57.8329H49.2563Z" fill="#2920D2"/>
<path d="M9.46657 27.1996C10.1636 27.1949 10.8479 27.0125 11.4547 26.6694C12.0615 26.3264 12.5707 25.8342 12.934 25.2394C13.2974 24.6445 13.503 23.9668 13.5312 23.2704C13.5594 22.5739 13.4094 21.8818 13.0954 21.2595L21.555 13.556C22.3747 14.0729 23.3517 14.2811 24.3109 14.1431C25.2701 14.0052 26.1488 13.5303 26.7897 12.8034L33.9919 16.3341C33.8701 16.9709 33.9016 17.6275 34.084 18.2497C34.2663 18.8718 34.5942 19.4416 35.0405 19.9118C35.4869 20.3821 36.0388 20.7393 36.6506 20.9538C37.2623 21.1684 37.9164 21.2342 38.5587 21.1457C39.201 21.0572 39.8129 20.8171 40.344 20.4451C40.875 20.0731 41.3097 19.58 41.6123 19.0066C41.9149 18.4332 42.0765 17.796 42.0839 17.1477C42.0912 16.4995 41.9441 15.8587 41.6546 15.2786L50.3317 7.5265C51.1628 8.06624 52.1615 8.28617 53.1424 8.14548C54.1234 8.00479 55.02 7.51303 55.6658 6.76146C56.3117 6.00989 56.663 5.04954 56.6546 4.0586C56.6461 3.06767 56.2785 2.11344 55.6199 1.37298C54.9613 0.632523 54.0565 0.156116 53.0733 0.0321597C52.0901 -0.0917961 51.0953 0.145117 50.2736 0.698936C49.4518 1.25276 48.8588 2.08588 48.6047 3.04371C48.3506 4.00154 48.4525 5.01904 48.8916 5.9074L40.2155 13.6586C39.3951 13.1337 38.4141 12.9193 37.4495 13.0541C36.4849 13.189 35.6003 13.6642 34.9553 14.394L27.7514 10.8626C27.873 10.2247 27.8405 9.56698 27.6569 8.94411C27.4732 8.32124 27.1435 7.75119 26.6953 7.28129C26.2471 6.8114 25.6932 6.45523 25.0797 6.24237C24.4662 6.02951 23.8108 5.96609 23.1678 6.0574C22.5249 6.14871 21.913 6.39209 21.383 6.76735C20.8531 7.1426 20.4203 7.6389 20.1206 8.215C19.8209 8.79111 19.663 9.4304 19.66 10.0798C19.657 10.7292 19.809 11.3699 20.1033 11.9487L11.6398 19.6558C11.1037 19.3181 10.4963 19.1096 9.8658 19.047C9.23526 18.9843 8.5988 19.0692 8.00669 19.2948C7.41459 19.5205 6.88307 19.8807 6.45413 20.3471C6.02519 20.8135 5.71059 21.3732 5.53518 21.9821C5.35977 22.591 5.32837 23.2323 5.44344 23.8554C5.55852 24.4785 5.81692 25.0663 6.19824 25.5723C6.57956 26.0784 7.07334 26.4889 7.64056 26.7713C8.20779 27.0537 8.83293 27.2003 9.46657 27.1996ZM52.5388 2.16683C53.0451 2.17331 53.5285 2.37898 53.8842 2.73929C54.2399 3.0996 54.4394 3.58554 54.4394 4.09186C54.4393 4.59818 54.2399 5.08411 53.8841 5.44441C53.5284 5.8047 53.045 6.01034 52.5388 6.0168C52.0325 6.01032 51.5491 5.80465 51.1934 5.44434C50.8377 5.08403 50.6382 4.59809 50.6383 4.09177C50.6383 3.58545 50.8377 3.09952 51.1935 2.73923C51.5492 2.37893 52.0326 2.17329 52.5388 2.16683ZM38.0065 15.1672C38.5128 15.1737 38.9961 15.3794 39.3518 15.7397C39.7076 16.1 39.907 16.5859 39.907 17.0922C39.907 17.5986 39.7075 18.0845 39.3518 18.4448C38.9961 18.8051 38.5127 19.0107 38.0064 19.0172C37.5001 19.0107 37.0168 18.8051 36.6611 18.4447C36.3054 18.0844 36.1059 17.5985 36.1059 17.0922C36.1059 16.5859 36.3054 16.0999 36.6611 15.7396C37.0169 15.3793 37.5002 15.1737 38.0065 15.1672ZM23.7366 8.18353C24.2422 8.19084 24.7246 8.39682 25.0795 8.75694C25.4344 9.11706 25.6334 9.60239 25.6334 10.108C25.6334 10.6137 25.4344 11.099 25.0794 11.4591C24.7245 11.8192 24.2421 12.0252 23.7365 12.0324C23.2309 12.0251 22.7485 11.8192 22.3936 11.459C22.0386 11.0989 21.8396 10.6136 21.8396 10.1079C21.8397 9.60231 22.0387 9.11698 22.3936 8.75688C22.7486 8.39677 23.231 8.19082 23.7366 8.18353ZM9.4666 21.1839C9.97212 21.1913 10.4544 21.3974 10.8093 21.7575C11.1641 22.1176 11.3631 22.6029 11.363 23.1084C11.363 23.614 11.1641 24.0993 10.8092 24.4594C10.4543 24.8195 9.97199 25.0254 9.46647 25.0328C8.96095 25.0254 8.47864 24.8194 8.12378 24.4593C7.76892 24.0992 7.57 23.6139 7.57001 23.1083C7.57003 22.6028 7.76897 22.1175 8.12385 21.7574C8.47873 21.3973 8.96108 21.1913 9.4666 21.1839Z" fill="#2920D2"/>
</svg>
