<svg width="66" height="60" viewBox="0 0 66 60" fill="none" xmlns="http://www.w3.org/2000/svg">
<mask id="path-1-inside-1_3088_1427" fill="white">
<path d="M31.9639 3.50813V1.03611C31.9639 0.463917 32.4278 0 33 0C33.5722 0 34.0361 0.463917 34.0361 1.03611V3.50813C34.0361 4.08032 33.5722 4.54424 33 4.54424C32.4278 4.54424 31.9639 4.08045 31.9639 3.50813ZM24.1874 6.1471C24.3793 6.47943 24.7276 6.66529 25.0857 6.66529C25.2614 6.66529 25.4396 6.62047 25.6028 6.52632C26.0983 6.24022 26.2681 5.60651 25.982 5.11099L24.7461 2.97013C24.46 2.47449 23.8263 2.30508 23.3308 2.59092C22.8352 2.87701 22.6654 3.51072 22.9515 4.00624L24.1874 6.1471ZM16.6313 11.0848L18.7721 12.3208C18.9353 12.415 19.1134 12.4597 19.2893 12.4597C19.6474 12.4597 19.9957 12.2739 20.1876 11.9415C20.4737 11.446 20.3039 10.8123 19.8084 10.5262L17.6675 9.29027C17.172 9.00404 16.5383 9.17383 16.2522 9.66948C15.966 10.165 16.1358 10.7987 16.6313 11.0848ZM40.3973 6.52645C40.5605 6.62073 40.7385 6.66542 40.9144 6.66542C41.2725 6.66542 41.6208 6.47956 41.8127 6.14723L43.0487 4.00637C43.3348 3.51072 43.165 2.87714 42.6695 2.59105C42.1738 2.30482 41.5401 2.47462 41.2541 2.97026L40.0182 5.11112C39.732 5.60664 39.9018 6.24035 40.3973 6.52645ZM46.7107 12.4599C46.8864 12.4599 47.0646 12.415 47.2278 12.3209L49.3687 11.0849C49.8642 10.7988 50.034 10.1651 49.7479 9.66961C49.4618 9.17409 48.8281 9.00443 48.3326 9.2904L46.1917 10.5263C45.6962 10.8124 45.5264 11.4461 45.8125 11.9417C46.0044 12.274 46.3527 12.4599 46.7107 12.4599ZM51.5538 42.765C51.2306 43.9684 50.7911 45.1344 50.2408 46.2508H53.3204C53.7014 46.2508 54.0516 46.46 54.2324 46.7953L55.6766 49.4747H57.2435C57.6815 48.1252 58.9502 47.1464 60.4439 47.1464C62.2991 47.1464 63.8083 48.6557 63.8083 50.5108C63.8083 52.3658 62.2991 53.8752 60.4439 53.8752C58.9502 53.8752 57.6815 52.8964 57.2436 51.5469H55.0582C54.6772 51.5469 54.327 51.3377 54.1462 51.0024L52.702 48.3231H50.0796L50.961 50.3079C51.135 50.6995 51.0499 51.1579 50.7467 51.461L46.6906 55.5173C46.3875 55.8203 45.9292 55.9056 45.5374 55.7316L42.5871 54.4213C41.1426 55.2549 39.6021 55.8935 37.9942 56.3253L36.8353 59.3361C36.6814 59.7362 36.297 60 35.8683 60H30.132C29.7033 60 29.3191 59.7361 29.1651 59.3361L28.0058 56.3245C26.3991 55.8929 24.8588 55.2542 23.4143 54.4208L20.4628 55.7316C20.071 55.9057 19.6128 55.8205 19.3096 55.5173L15.2534 51.4612C14.9503 51.1581 14.8651 50.6998 15.039 50.308L15.9206 48.3231H13.2981L11.8539 51.0024C11.6731 51.3377 11.3229 51.5469 10.9419 51.5469H8.75646C8.31845 52.8964 7.04974 53.8752 5.55618 53.8752C3.70103 53.8752 2.19181 52.366 2.19181 50.5108C2.19181 48.6557 3.70103 47.1464 5.55618 47.1464C7.04974 47.1464 8.31858 48.1252 8.75659 49.4747H10.3234L11.7677 46.7953C11.9485 46.46 12.2987 46.2508 12.6797 46.2508H15.7582C15.2082 45.1347 14.7689 43.9686 14.4455 42.7647L11.4347 41.6057C11.0346 41.4518 10.7708 41.0675 10.7708 40.6388V38.8067H7.4454C7.00738 40.1562 5.73867 41.1349 4.24499 41.1349C2.38984 41.1351 0.880615 39.6257 0.880615 37.7707C0.880615 35.9157 2.38984 34.4063 4.24499 34.4063C5.73867 34.4063 7.00738 35.385 7.4454 36.7346H10.7708V34.9026C10.7708 34.4739 11.0347 34.0897 11.4347 33.9357L14.446 32.7765C14.7693 31.5726 15.2088 30.4062 15.7594 29.2895H12.6797C12.2987 29.2895 11.9485 29.0803 11.7677 28.745L10.3234 26.0656H8.75659C8.31858 27.4152 7.04986 28.3939 5.55631 28.3939C3.70116 28.3939 2.19194 26.8847 2.19194 25.0295C2.19194 23.1745 3.70116 21.6652 5.55631 21.6652C7.04986 21.6652 8.31858 22.6439 8.75659 23.9934H10.942C11.323 23.9934 11.6732 24.2026 11.854 24.5379L13.2982 27.2173H15.9202L15.0392 25.2336C14.8652 24.842 14.9503 24.3836 15.2534 24.0805L19.3095 20.0241C19.6126 19.721 20.071 19.6359 20.4627 19.8097L21.8135 20.4097C21.6041 19.6216 21.4693 18.6953 21.4693 17.5504C21.4693 11.1923 26.6419 6.01966 33.0001 6.01966C39.3582 6.01966 44.5308 11.1923 44.5308 17.5504C44.5308 18.6832 44.4011 19.6081 44.1881 20.409L45.5373 19.8099C45.9288 19.6361 46.3873 19.721 46.6905 20.0242L50.7467 24.0803C51.0498 24.3834 51.135 24.8417 50.961 25.2335L50.08 27.2174H52.702L54.1462 24.538C54.327 24.2027 54.6772 23.9936 55.0582 23.9936H57.2436C57.6816 22.644 58.9504 21.6653 60.4439 21.6653C62.2991 21.6653 63.8083 23.1745 63.8083 25.0297C63.8083 26.8848 62.2991 28.394 60.4439 28.394C58.9502 28.394 57.6815 27.4154 57.2435 26.0658H55.6765L54.2323 28.7451C54.0515 29.0805 53.7013 29.2896 53.3203 29.2896H50.2413C50.7918 30.4062 51.2312 31.5727 51.5547 32.7769L54.5655 33.9358C54.9655 34.0897 55.2294 34.474 55.2294 34.9027V36.7347H58.5547C58.9927 35.3852 60.2614 34.4064 61.755 34.4064C63.6101 34.4064 65.1193 35.9157 65.1193 37.7708C65.1193 39.626 63.6101 41.1352 61.755 41.1352C60.2613 41.1352 58.9926 40.1565 58.5546 38.8069H55.2293V40.639C55.2293 41.0677 54.9653 41.452 54.5654 41.606L51.5538 42.765ZM60.4628 37.7707C60.4628 38.4831 61.0425 39.0628 61.755 39.0628C62.4674 39.0628 63.0471 38.4831 63.0471 37.7707C63.0471 37.0582 62.4674 36.4785 61.755 36.4785C61.0425 36.4785 60.4628 37.0582 60.4628 37.7707ZM59.1516 25.0294C59.1516 25.7419 59.7313 26.3216 60.4438 26.3216C61.1562 26.3216 61.7359 25.7419 61.7359 25.0294C61.7359 24.3169 61.1562 23.7372 60.4438 23.7372C59.7312 23.7374 59.1516 24.3169 59.1516 25.0294ZM6.84834 25.0294C6.84834 24.3169 6.26864 23.7372 5.55618 23.7372C4.84373 23.7372 4.26403 24.3169 4.26403 25.0294C4.26403 25.7419 4.84373 26.3216 5.55618 26.3216C6.26864 26.3216 6.84834 25.7419 6.84834 25.0294ZM5.53715 37.7707C5.53715 37.0582 4.95744 36.4785 4.24499 36.4785C3.53254 36.4785 2.95283 37.0582 2.95283 37.7707C2.95283 38.4831 3.53254 39.0628 4.24499 39.0628C4.95744 39.0628 5.53715 38.4831 5.53715 37.7707ZM6.84834 50.5108C6.84834 49.7984 6.26864 49.2186 5.55618 49.2186C4.84373 49.2186 4.26403 49.7984 4.26403 50.5108C4.26403 51.2233 4.84373 51.803 5.55618 51.803C6.26864 51.803 6.84834 51.2233 6.84834 50.5108ZM59.1516 50.5108C59.1516 51.2233 59.7313 51.803 60.4438 51.803C61.1562 51.803 61.7359 51.2233 61.7359 50.5108C61.7359 49.7984 61.1562 49.2186 60.4438 49.2186C59.7312 49.2186 59.1516 49.7984 59.1516 50.5108ZM23.5413 17.5504C23.5413 19.3967 23.9377 20.5212 24.5328 21.6417C24.7125 21.9803 24.9082 22.3147 25.1156 22.6689C26.0969 24.346 27.3014 26.4047 27.6938 30.5859H30.1516V21.1024H28.749C26.8329 21.1024 25.2741 19.5436 25.2741 17.6276C25.2741 15.7115 26.8329 14.1527 28.749 14.1527C30.665 14.1527 32.2238 15.7115 32.2238 17.6276V19.0302H33.7762V17.6276C33.7762 15.7115 35.335 14.1527 37.251 14.1527C39.167 14.1527 40.7259 15.7115 40.7259 17.6276C40.7259 19.5436 39.167 21.1024 37.251 21.1024H35.8484V30.5859H38.306C38.6984 26.4047 39.9031 24.3461 40.8842 22.669C41.7638 21.1659 42.4585 19.9786 42.4585 17.5505C42.4585 12.335 38.2154 8.09201 33 8.09201C27.7845 8.09188 23.5413 12.3349 23.5413 17.5504ZM30.1516 17.6276C30.1516 16.8541 29.5224 16.2249 28.749 16.2249C27.9755 16.2249 27.3463 16.8541 27.3463 17.6276C27.3463 18.401 27.9755 19.0302 28.749 19.0302H30.1516V17.6276ZM33.7762 21.1024H32.2238V30.5859H33.7762V21.1024ZM27.7697 32.658V33.3275C27.7697 33.6902 28.0761 33.9967 28.4389 33.9967H37.5609C37.9237 33.9967 38.2301 33.6902 38.2301 33.3275V32.658H27.7697ZM31.2812 40.1492C31.2812 40.512 31.5876 40.8184 31.9504 40.8184H34.1637C34.5264 40.8184 34.8329 40.512 34.8329 40.1492V39.4797H31.2812V40.1492ZM36.5818 36.0689H29.5321V36.7382C29.5321 37.101 29.8387 37.4074 30.2014 37.4074H35.9126C36.2754 37.4074 36.5818 37.101 36.5818 36.7382V36.0689ZM25.6664 31.2022C24.055 32.9907 23.1576 35.3015 23.1576 37.7707C23.1576 43.1978 27.5728 47.6131 33 47.6131C38.4271 47.6131 42.8424 43.1978 42.8424 37.7707C42.8424 35.3015 41.9448 32.9906 40.3334 31.202C40.3222 31.3504 40.3117 31.5012 40.3025 31.6558V33.3276C40.3025 34.4507 39.6229 35.417 38.654 35.8403V36.7385C38.654 37.8998 37.9269 38.8924 36.9051 39.2912V40.1495C36.9051 41.6611 35.6752 42.8909 34.1637 42.8909H31.9504C30.4387 42.8909 29.209 41.661 29.209 40.1495V39.2912C28.1871 38.8924 27.46 37.8998 27.46 36.7385V35.8852C26.4312 35.49 25.6976 34.494 25.6976 33.3277V31.657C25.6883 31.5018 25.6778 31.3508 25.6664 31.2022ZM37.251 19.0302C38.0245 19.0302 38.6536 18.401 38.6536 17.6276C38.6536 16.8541 38.0245 16.2249 37.251 16.2249C36.4775 16.2249 35.8484 16.8541 35.8484 17.6276V19.0302H37.251ZM50.3089 41.0237L53.1571 39.9273V35.6139L50.3099 34.518C49.9911 34.3953 49.7532 34.1232 49.6741 33.7909C49.2541 32.0256 48.5574 30.3453 47.6037 28.7966C47.4245 28.5057 47.4003 28.145 47.5389 27.8327L48.7781 25.0424L45.7279 21.9923L42.9596 23.2218C42.865 23.3864 42.7692 23.5505 42.6727 23.7154C41.9137 25.0123 41.1364 26.3427 40.6718 28.6547C43.376 30.9256 44.9144 34.2123 44.9144 37.7706C44.9144 44.3403 39.5696 49.6852 32.9998 49.6852C26.4301 49.6852 21.0852 44.3403 21.0852 37.7706C21.0852 34.2124 22.6237 30.9258 25.3279 28.6549C24.8633 26.3427 24.0859 25.0122 23.327 23.7152C23.2323 23.5535 23.1362 23.3885 23.0408 23.222L20.2716 21.9922L17.2216 25.0424L18.4612 27.8334C18.5999 28.1456 18.5757 28.5062 18.3964 28.7972C17.4426 30.3461 16.746 32.0261 16.3264 33.7903C16.2474 34.1227 16.0095 34.3948 15.6906 34.5174L12.8427 35.6136V39.9272L15.69 41.0232C16.0088 41.1458 16.2466 41.4178 16.3258 41.7503C16.7459 43.5158 17.4424 45.1961 18.396 46.7444C18.5753 47.0354 18.5995 47.396 18.4608 47.7083L17.2216 50.4986L20.2718 53.5487L23.0632 52.309C23.3753 52.1703 23.7359 52.1944 24.0269 52.3736C25.576 53.3273 27.2558 54.0239 29.0198 54.4436C29.3521 54.5227 29.6241 54.7605 29.7467 55.0794L30.8431 57.9275H35.1566L36.2526 55.0803C36.3752 54.7614 36.6473 54.5237 36.9797 54.4445C38.7449 54.0245 40.4253 53.328 41.9737 52.3742C42.2647 52.195 42.6252 52.1708 42.9376 52.3095L45.7279 53.5487L48.778 50.4985L47.5383 47.7072C47.3996 47.395 47.4238 47.0344 47.603 46.7435C48.5568 45.1945 49.2532 43.5146 49.673 41.7506C49.7524 41.4184 49.9902 41.1463 50.3089 41.0237Z"/>
</mask>
<path d="M31.9639 3.50813V1.03611C31.9639 0.463917 32.4278 0 33 0C33.5722 0 34.0361 0.463917 34.0361 1.03611V3.50813C34.0361 4.08032 33.5722 4.54424 33 4.54424C32.4278 4.54424 31.9639 4.08045 31.9639 3.50813ZM24.1874 6.1471C24.3793 6.47943 24.7276 6.66529 25.0857 6.66529C25.2614 6.66529 25.4396 6.62047 25.6028 6.52632C26.0983 6.24022 26.2681 5.60651 25.982 5.11099L24.7461 2.97013C24.46 2.47449 23.8263 2.30508 23.3308 2.59092C22.8352 2.87701 22.6654 3.51072 22.9515 4.00624L24.1874 6.1471ZM16.6313 11.0848L18.7721 12.3208C18.9353 12.415 19.1134 12.4597 19.2893 12.4597C19.6474 12.4597 19.9957 12.2739 20.1876 11.9415C20.4737 11.446 20.3039 10.8123 19.8084 10.5262L17.6675 9.29027C17.172 9.00404 16.5383 9.17383 16.2522 9.66948C15.966 10.165 16.1358 10.7987 16.6313 11.0848ZM40.3973 6.52645C40.5605 6.62073 40.7385 6.66542 40.9144 6.66542C41.2725 6.66542 41.6208 6.47956 41.8127 6.14723L43.0487 4.00637C43.3348 3.51072 43.165 2.87714 42.6695 2.59105C42.1738 2.30482 41.5401 2.47462 41.2541 2.97026L40.0182 5.11112C39.732 5.60664 39.9018 6.24035 40.3973 6.52645ZM46.7107 12.4599C46.8864 12.4599 47.0646 12.415 47.2278 12.3209L49.3687 11.0849C49.8642 10.7988 50.034 10.1651 49.7479 9.66961C49.4618 9.17409 48.8281 9.00443 48.3326 9.2904L46.1917 10.5263C45.6962 10.8124 45.5264 11.4461 45.8125 11.9417C46.0044 12.274 46.3527 12.4599 46.7107 12.4599ZM51.5538 42.765C51.2306 43.9684 50.7911 45.1344 50.2408 46.2508H53.3204C53.7014 46.2508 54.0516 46.46 54.2324 46.7953L55.6766 49.4747H57.2435C57.6815 48.1252 58.9502 47.1464 60.4439 47.1464C62.2991 47.1464 63.8083 48.6557 63.8083 50.5108C63.8083 52.3658 62.2991 53.8752 60.4439 53.8752C58.9502 53.8752 57.6815 52.8964 57.2436 51.5469H55.0582C54.6772 51.5469 54.327 51.3377 54.1462 51.0024L52.702 48.3231H50.0796L50.961 50.3079C51.135 50.6995 51.0499 51.1579 50.7467 51.461L46.6906 55.5173C46.3875 55.8203 45.9292 55.9056 45.5374 55.7316L42.5871 54.4213C41.1426 55.2549 39.6021 55.8935 37.9942 56.3253L36.8353 59.3361C36.6814 59.7362 36.297 60 35.8683 60H30.132C29.7033 60 29.3191 59.7361 29.1651 59.3361L28.0058 56.3245C26.3991 55.8929 24.8588 55.2542 23.4143 54.4208L20.4628 55.7316C20.071 55.9057 19.6128 55.8205 19.3096 55.5173L15.2534 51.4612C14.9503 51.1581 14.8651 50.6998 15.039 50.308L15.9206 48.3231H13.2981L11.8539 51.0024C11.6731 51.3377 11.3229 51.5469 10.9419 51.5469H8.75646C8.31845 52.8964 7.04974 53.8752 5.55618 53.8752C3.70103 53.8752 2.19181 52.366 2.19181 50.5108C2.19181 48.6557 3.70103 47.1464 5.55618 47.1464C7.04974 47.1464 8.31858 48.1252 8.75659 49.4747H10.3234L11.7677 46.7953C11.9485 46.46 12.2987 46.2508 12.6797 46.2508H15.7582C15.2082 45.1347 14.7689 43.9686 14.4455 42.7647L11.4347 41.6057C11.0346 41.4518 10.7708 41.0675 10.7708 40.6388V38.8067H7.4454C7.00738 40.1562 5.73867 41.1349 4.24499 41.1349C2.38984 41.1351 0.880615 39.6257 0.880615 37.7707C0.880615 35.9157 2.38984 34.4063 4.24499 34.4063C5.73867 34.4063 7.00738 35.385 7.4454 36.7346H10.7708V34.9026C10.7708 34.4739 11.0347 34.0897 11.4347 33.9357L14.446 32.7765C14.7693 31.5726 15.2088 30.4062 15.7594 29.2895H12.6797C12.2987 29.2895 11.9485 29.0803 11.7677 28.745L10.3234 26.0656H8.75659C8.31858 27.4152 7.04986 28.3939 5.55631 28.3939C3.70116 28.3939 2.19194 26.8847 2.19194 25.0295C2.19194 23.1745 3.70116 21.6652 5.55631 21.6652C7.04986 21.6652 8.31858 22.6439 8.75659 23.9934H10.942C11.323 23.9934 11.6732 24.2026 11.854 24.5379L13.2982 27.2173H15.9202L15.0392 25.2336C14.8652 24.842 14.9503 24.3836 15.2534 24.0805L19.3095 20.0241C19.6126 19.721 20.071 19.6359 20.4627 19.8097L21.8135 20.4097C21.6041 19.6216 21.4693 18.6953 21.4693 17.5504C21.4693 11.1923 26.6419 6.01966 33.0001 6.01966C39.3582 6.01966 44.5308 11.1923 44.5308 17.5504C44.5308 18.6832 44.4011 19.6081 44.1881 20.409L45.5373 19.8099C45.9288 19.6361 46.3873 19.721 46.6905 20.0242L50.7467 24.0803C51.0498 24.3834 51.135 24.8417 50.961 25.2335L50.08 27.2174H52.702L54.1462 24.538C54.327 24.2027 54.6772 23.9936 55.0582 23.9936H57.2436C57.6816 22.644 58.9504 21.6653 60.4439 21.6653C62.2991 21.6653 63.8083 23.1745 63.8083 25.0297C63.8083 26.8848 62.2991 28.394 60.4439 28.394C58.9502 28.394 57.6815 27.4154 57.2435 26.0658H55.6765L54.2323 28.7451C54.0515 29.0805 53.7013 29.2896 53.3203 29.2896H50.2413C50.7918 30.4062 51.2312 31.5727 51.5547 32.7769L54.5655 33.9358C54.9655 34.0897 55.2294 34.474 55.2294 34.9027V36.7347H58.5547C58.9927 35.3852 60.2614 34.4064 61.755 34.4064C63.6101 34.4064 65.1193 35.9157 65.1193 37.7708C65.1193 39.626 63.6101 41.1352 61.755 41.1352C60.2613 41.1352 58.9926 40.1565 58.5546 38.8069H55.2293V40.639C55.2293 41.0677 54.9653 41.452 54.5654 41.606L51.5538 42.765ZM60.4628 37.7707C60.4628 38.4831 61.0425 39.0628 61.755 39.0628C62.4674 39.0628 63.0471 38.4831 63.0471 37.7707C63.0471 37.0582 62.4674 36.4785 61.755 36.4785C61.0425 36.4785 60.4628 37.0582 60.4628 37.7707ZM59.1516 25.0294C59.1516 25.7419 59.7313 26.3216 60.4438 26.3216C61.1562 26.3216 61.7359 25.7419 61.7359 25.0294C61.7359 24.3169 61.1562 23.7372 60.4438 23.7372C59.7312 23.7374 59.1516 24.3169 59.1516 25.0294ZM6.84834 25.0294C6.84834 24.3169 6.26864 23.7372 5.55618 23.7372C4.84373 23.7372 4.26403 24.3169 4.26403 25.0294C4.26403 25.7419 4.84373 26.3216 5.55618 26.3216C6.26864 26.3216 6.84834 25.7419 6.84834 25.0294ZM5.53715 37.7707C5.53715 37.0582 4.95744 36.4785 4.24499 36.4785C3.53254 36.4785 2.95283 37.0582 2.95283 37.7707C2.95283 38.4831 3.53254 39.0628 4.24499 39.0628C4.95744 39.0628 5.53715 38.4831 5.53715 37.7707ZM6.84834 50.5108C6.84834 49.7984 6.26864 49.2186 5.55618 49.2186C4.84373 49.2186 4.26403 49.7984 4.26403 50.5108C4.26403 51.2233 4.84373 51.803 5.55618 51.803C6.26864 51.803 6.84834 51.2233 6.84834 50.5108ZM59.1516 50.5108C59.1516 51.2233 59.7313 51.803 60.4438 51.803C61.1562 51.803 61.7359 51.2233 61.7359 50.5108C61.7359 49.7984 61.1562 49.2186 60.4438 49.2186C59.7312 49.2186 59.1516 49.7984 59.1516 50.5108ZM23.5413 17.5504C23.5413 19.3967 23.9377 20.5212 24.5328 21.6417C24.7125 21.9803 24.9082 22.3147 25.1156 22.6689C26.0969 24.346 27.3014 26.4047 27.6938 30.5859H30.1516V21.1024H28.749C26.8329 21.1024 25.2741 19.5436 25.2741 17.6276C25.2741 15.7115 26.8329 14.1527 28.749 14.1527C30.665 14.1527 32.2238 15.7115 32.2238 17.6276V19.0302H33.7762V17.6276C33.7762 15.7115 35.335 14.1527 37.251 14.1527C39.167 14.1527 40.7259 15.7115 40.7259 17.6276C40.7259 19.5436 39.167 21.1024 37.251 21.1024H35.8484V30.5859H38.306C38.6984 26.4047 39.9031 24.3461 40.8842 22.669C41.7638 21.1659 42.4585 19.9786 42.4585 17.5505C42.4585 12.335 38.2154 8.09201 33 8.09201C27.7845 8.09188 23.5413 12.3349 23.5413 17.5504ZM30.1516 17.6276C30.1516 16.8541 29.5224 16.2249 28.749 16.2249C27.9755 16.2249 27.3463 16.8541 27.3463 17.6276C27.3463 18.401 27.9755 19.0302 28.749 19.0302H30.1516V17.6276ZM33.7762 21.1024H32.2238V30.5859H33.7762V21.1024ZM27.7697 32.658V33.3275C27.7697 33.6902 28.0761 33.9967 28.4389 33.9967H37.5609C37.9237 33.9967 38.2301 33.6902 38.2301 33.3275V32.658H27.7697ZM31.2812 40.1492C31.2812 40.512 31.5876 40.8184 31.9504 40.8184H34.1637C34.5264 40.8184 34.8329 40.512 34.8329 40.1492V39.4797H31.2812V40.1492ZM36.5818 36.0689H29.5321V36.7382C29.5321 37.101 29.8387 37.4074 30.2014 37.4074H35.9126C36.2754 37.4074 36.5818 37.101 36.5818 36.7382V36.0689ZM25.6664 31.2022C24.055 32.9907 23.1576 35.3015 23.1576 37.7707C23.1576 43.1978 27.5728 47.6131 33 47.6131C38.4271 47.6131 42.8424 43.1978 42.8424 37.7707C42.8424 35.3015 41.9448 32.9906 40.3334 31.202C40.3222 31.3504 40.3117 31.5012 40.3025 31.6558V33.3276C40.3025 34.4507 39.6229 35.417 38.654 35.8403V36.7385C38.654 37.8998 37.9269 38.8924 36.9051 39.2912V40.1495C36.9051 41.6611 35.6752 42.8909 34.1637 42.8909H31.9504C30.4387 42.8909 29.209 41.661 29.209 40.1495V39.2912C28.1871 38.8924 27.46 37.8998 27.46 36.7385V35.8852C26.4312 35.49 25.6976 34.494 25.6976 33.3277V31.657C25.6883 31.5018 25.6778 31.3508 25.6664 31.2022ZM37.251 19.0302C38.0245 19.0302 38.6536 18.401 38.6536 17.6276C38.6536 16.8541 38.0245 16.2249 37.251 16.2249C36.4775 16.2249 35.8484 16.8541 35.8484 17.6276V19.0302H37.251ZM50.3089 41.0237L53.1571 39.9273V35.6139L50.3099 34.518C49.9911 34.3953 49.7532 34.1232 49.6741 33.7909C49.2541 32.0256 48.5574 30.3453 47.6037 28.7966C47.4245 28.5057 47.4003 28.145 47.5389 27.8327L48.7781 25.0424L45.7279 21.9923L42.9596 23.2218C42.865 23.3864 42.7692 23.5505 42.6727 23.7154C41.9137 25.0123 41.1364 26.3427 40.6718 28.6547C43.376 30.9256 44.9144 34.2123 44.9144 37.7706C44.9144 44.3403 39.5696 49.6852 32.9998 49.6852C26.4301 49.6852 21.0852 44.3403 21.0852 37.7706C21.0852 34.2124 22.6237 30.9258 25.3279 28.6549C24.8633 26.3427 24.0859 25.0122 23.327 23.7152C23.2323 23.5535 23.1362 23.3885 23.0408 23.222L20.2716 21.9922L17.2216 25.0424L18.4612 27.8334C18.5999 28.1456 18.5757 28.5062 18.3964 28.7972C17.4426 30.3461 16.746 32.0261 16.3264 33.7903C16.2474 34.1227 16.0095 34.3948 15.6906 34.5174L12.8427 35.6136V39.9272L15.69 41.0232C16.0088 41.1458 16.2466 41.4178 16.3258 41.7503C16.7459 43.5158 17.4424 45.1961 18.396 46.7444C18.5753 47.0354 18.5995 47.396 18.4608 47.7083L17.2216 50.4986L20.2718 53.5487L23.0632 52.309C23.3753 52.1703 23.7359 52.1944 24.0269 52.3736C25.576 53.3273 27.2558 54.0239 29.0198 54.4436C29.3521 54.5227 29.6241 54.7605 29.7467 55.0794L30.8431 57.9275H35.1566L36.2526 55.0803C36.3752 54.7614 36.6473 54.5237 36.9797 54.4445C38.7449 54.0245 40.4253 53.328 41.9737 52.3742C42.2647 52.195 42.6252 52.1708 42.9376 52.3095L45.7279 53.5487L48.778 50.4985L47.5383 47.7072C47.3996 47.395 47.4238 47.0344 47.603 46.7435C48.5568 45.1945 49.2532 43.5146 49.673 41.7506C49.7524 41.4184 49.9902 41.1463 50.3089 41.0237Z" fill="#2920D2" stroke="#2920D2" stroke-width="0.4" mask="url(#path-1-inside-1_3088_1427)"/>
</svg>
