<svg width="70" height="60" viewBox="0 0 70 60" fill="none" xmlns="http://www.w3.org/2000/svg">
<path d="M28.9793 10.8132C27.3193 10.657 25.6653 11.1666 24.381 12.23C23.0967 13.2933 22.2875 14.8232 22.1312 16.4832C21.975 18.1433 22.4846 19.7973 23.548 21.0816C24.6113 22.3659 26.1413 23.1751 27.8013 23.3313C28.0007 23.3502 28.1985 23.3595 28.3949 23.3594C30.0107 23.3579 31.5639 22.7344 32.7322 21.6183C33.9005 20.5021 34.5942 18.979 34.6694 17.365C34.7446 15.751 34.1955 14.1699 33.136 12.95C32.0765 11.7301 30.588 10.9649 28.9793 10.8132ZM32.5031 17.4594C32.4281 18.2562 32.1232 19.0142 31.6254 19.641C31.1277 20.2678 30.4586 20.7365 29.6995 20.9902C28.9403 21.2439 28.1238 21.2715 27.3493 21.0698C26.5747 20.8681 25.8754 20.4457 25.3364 19.854C24.7974 19.2623 24.4419 18.5268 24.3131 17.7368C24.1844 16.9468 24.2878 16.1365 24.611 15.4042C24.9342 14.672 25.4631 14.0493 26.1335 13.6121C26.8039 13.1748 27.5869 12.9417 28.3873 12.9412C28.5163 12.9412 28.6466 12.9472 28.7774 12.9595C29.8676 13.0635 30.8721 13.5956 31.5705 14.4392C32.2689 15.2828 32.6043 16.3689 32.5031 17.4594ZM47.8314 5.79061H53.0145C53.2789 6.91592 53.9476 7.90482 54.8936 8.56924C55.8395 9.23366 56.9966 9.52725 58.1449 9.39418C59.2931 9.2611 60.3525 8.71065 61.1214 7.8475C61.8902 6.98435 62.3151 5.86871 62.3151 4.71276C62.3151 3.55681 61.8902 2.44117 61.1214 1.57802C60.3525 0.71487 59.2931 0.164416 58.1449 0.0313434C56.9966 -0.10173 55.8395 0.191861 54.8936 0.856279C53.9476 1.5207 53.2789 2.5096 53.0145 3.63491H47.8314C47.1984 3.63566 46.5915 3.88748 46.1438 4.33513C45.6962 4.78278 45.4444 5.3897 45.4437 6.02275V15.9944H42.0216L42.0147 14.9915C42.013 14.7463 41.9278 14.509 41.7732 14.3188C41.6185 14.1285 41.4036 13.9967 41.1639 13.9451L38.643 13.4024C38.5065 13.0215 38.3487 12.6485 38.1705 12.2852L39.5398 10.0993C39.67 9.89151 39.7255 9.64555 39.697 9.40199C39.6686 9.15844 39.558 8.93187 39.3834 8.75967L36.5527 5.96724C36.3781 5.79501 36.15 5.68746 35.9061 5.66235C35.6621 5.63725 35.4169 5.69608 35.2109 5.82914L33.0439 7.22832C32.6782 7.05499 32.3031 6.90228 31.9204 6.77091L31.3433 4.25791C31.2887 4.02009 31.1551 3.80782 30.9642 3.65584C30.7733 3.50386 30.5364 3.42114 30.2924 3.42123H30.285L26.3088 3.44818C26.0636 3.44983 25.8263 3.53504 25.6361 3.68975C25.4458 3.84446 25.314 4.05941 25.2624 4.29914L24.7198 6.81995C24.3389 6.95645 23.9659 7.1142 23.6026 7.29245L21.4172 5.92345C21.2094 5.79331 20.9634 5.73789 20.7199 5.76636C20.4764 5.79482 20.2499 5.90545 20.0777 6.08001L17.2852 8.9107C17.1131 9.08526 17.0056 9.3133 16.9805 9.55719C16.9554 9.80108 17.0142 10.0462 17.1472 10.2522L18.5462 12.4194C18.3729 12.785 18.2203 13.1601 18.0889 13.5429L15.5758 14.1198C15.3368 14.1747 15.1237 14.3094 14.9716 14.5017C14.8196 14.694 14.7376 14.9324 14.7392 15.1776L14.7662 19.1539C14.7679 19.3991 14.8531 19.6364 15.0078 19.8266C15.1625 20.0168 15.3774 20.1486 15.6171 20.2002L18.1378 20.7429C18.2744 21.1238 18.4322 21.4968 18.6103 21.8601L17.2408 24.046C17.1106 24.2537 17.0551 24.4997 17.0836 24.7433C17.112 24.9868 17.2226 25.2134 17.3972 25.3856L20.2279 28.178C20.4025 28.3502 20.6305 28.4578 20.8744 28.4829C21.1184 28.508 21.3636 28.4493 21.5696 28.3162L23.7366 26.9169C24.1023 27.0902 24.4774 27.2429 24.8601 27.3743L25.4371 29.8873C25.4917 30.1252 25.6254 30.3374 25.8163 30.4894C26.0072 30.6414 26.244 30.7241 26.488 30.724H26.4954L30.4718 30.6971C30.7169 30.6954 30.9542 30.6102 31.1444 30.4555C31.3346 30.3008 31.4664 30.0859 31.5181 29.8463L32.0608 27.3256C32.4417 27.189 32.8147 27.0312 33.178 26.8529L35.3632 28.2214C35.5709 28.3516 35.8169 28.407 36.0605 28.3786C36.304 28.3502 36.5306 28.2395 36.7028 28.065L39.4951 25.2343C39.6673 25.0597 39.7749 24.8317 39.8 24.5877C39.8251 24.3438 39.7663 24.0986 39.6333 23.8926L38.2341 21.7256C38.4074 21.36 38.5601 20.9849 38.6914 20.6021L41.2045 20.0252C41.4435 19.9703 41.6567 19.8356 41.8088 19.6433C41.9609 19.4509 42.0429 19.2125 42.0412 18.9673L42.0356 18.1499H45.4437V28.1217C45.4444 28.7547 45.6962 29.3616 46.1438 29.8093C46.5915 30.2569 47.1984 30.5087 47.8314 30.5094H53.0145C53.2789 31.6347 53.9476 32.6236 54.8936 33.288C55.8395 33.9524 56.9966 34.246 58.1449 34.113C59.2931 33.9799 60.3525 33.4294 61.1214 32.5663C61.8902 31.7031 62.3151 30.5875 62.3151 29.4316C62.3151 28.2756 61.8902 27.16 61.1214 26.2968C60.3525 25.4337 59.2931 24.8832 58.1449 24.7501C56.9966 24.6171 55.8395 24.9107 54.8936 25.5751C53.9476 26.2395 53.2789 27.2284 53.0145 28.3537H47.8314C47.7701 28.3529 47.7116 28.3282 47.6682 28.2849C47.6249 28.2416 47.6002 28.183 47.5994 28.1217V18.1501H53.0145C53.2789 19.2755 53.9476 20.2644 54.8936 20.9288C55.8395 21.5932 56.9966 21.8868 58.1449 21.7537C59.2931 21.6206 60.3525 21.0702 61.1214 20.207C61.8902 19.3439 62.3151 18.2282 62.3151 17.0723C62.3151 15.9163 61.8902 14.8007 61.1214 13.9375C60.3525 13.0744 59.2931 12.5239 58.1449 12.3909C56.9966 12.2578 55.8395 12.5514 54.8936 13.2158C53.9476 13.8802 53.2789 14.8691 53.0145 15.9944H47.5994V6.02275C47.6002 5.96144 47.6249 5.90286 47.6682 5.8595C47.7115 5.81613 47.7701 5.79141 47.8314 5.79061ZM57.6016 2.1557C58.1073 2.1557 58.6017 2.30568 59.0223 2.58668C59.4428 2.86767 59.7706 3.26706 59.9641 3.73433C60.1576 4.2016 60.2083 4.71578 60.1096 5.21183C60.0109 5.70788 59.7674 6.16352 59.4097 6.52115C59.0521 6.87877 58.5964 7.12231 58.1004 7.22097C57.6043 7.31962 57.0901 7.26896 56.6229 7.07539C56.1556 6.88182 55.7562 6.55404 55.4753 6.13349C55.1943 5.71295 55.0443 5.21853 55.0444 4.71276C55.0451 4.03479 55.3148 3.38481 55.7942 2.90543C56.2736 2.42605 56.9236 2.15642 57.6016 2.1557ZM37.6049 18.6403C37.4155 18.6838 37.2413 18.7777 37.1009 18.9121C36.9605 19.0465 36.859 19.2163 36.8072 19.4037C36.6273 20.0532 36.3724 20.6795 36.0476 21.2701C35.954 21.4405 35.9081 21.633 35.915 21.8273C35.9219 22.0216 35.9812 22.2105 36.0867 22.3738L37.3531 24.336L35.7754 25.936L33.7961 24.6964C33.6313 24.5931 33.4415 24.5363 33.247 24.532C33.0525 24.5278 32.8605 24.5763 32.6913 24.6723C32.1052 25.0051 31.4823 25.2686 30.8353 25.4574C30.6486 25.5118 30.4801 25.6156 30.3477 25.7579C30.2153 25.9002 30.1238 26.0757 30.0829 26.2658L29.5917 28.5476L27.3443 28.5629L26.8219 26.288C26.7784 26.0986 26.6845 25.9244 26.5502 25.784C26.4158 25.6436 26.246 25.5421 26.0586 25.4903C25.4091 25.3103 24.7827 25.0554 24.1921 24.7307C24.0217 24.637 23.8292 24.5912 23.6348 24.5981C23.4405 24.605 23.2517 24.6643 23.0884 24.7697L21.126 26.0362L19.5261 24.4578L20.7663 22.4785C20.8695 22.3137 20.9263 22.1241 20.9305 21.9298C20.9347 21.7354 20.8863 21.5435 20.7904 21.3744C20.4576 20.7882 20.1941 20.1653 20.0052 19.5182C19.9508 19.3315 19.847 19.1631 19.7047 19.0306C19.5624 18.8982 19.3869 18.8067 19.1968 18.7659L16.9149 18.2746L16.8997 16.0273L19.1746 15.505C19.364 15.4615 19.5382 15.3676 19.6786 15.2332C19.8191 15.0988 19.9205 14.9289 19.9723 14.7416C20.1522 14.092 20.4071 13.4656 20.7319 12.875C20.8256 12.7046 20.8714 12.5121 20.8645 12.3178C20.8576 12.1235 20.7983 11.9347 20.6929 11.7713L19.4264 9.80909L21.0046 8.20916L22.984 9.44868C23.1488 9.55204 23.3385 9.60885 23.533 9.6131C23.7275 9.61734 23.9196 9.56886 24.0888 9.4728C24.6751 9.14 25.2982 8.87658 25.9455 8.68786C26.1321 8.63346 26.3005 8.52961 26.433 8.38731C26.5654 8.245 26.6568 8.06952 26.6977 7.87947L27.1889 5.59767L29.4364 5.58231L29.9587 7.85724C30.0022 8.04669 30.0961 8.22085 30.2305 8.36129C30.3649 8.50172 30.5347 8.6032 30.7221 8.65498C31.3716 8.83487 31.998 9.08979 32.5885 9.4146C32.7589 9.50823 32.9515 9.55404 33.1458 9.54716C33.3401 9.54028 33.5289 9.48098 33.6922 9.37552L35.6546 8.10905L37.2545 9.68743L36.015 11.6668C35.9117 11.8316 35.8549 12.0213 35.8506 12.2158C35.8464 12.4104 35.8949 12.6024 35.991 12.7715C36.3238 13.3577 36.5873 13.9806 36.7761 14.6276C36.8305 14.8142 36.9343 14.9827 37.0766 15.1151C37.2189 15.2475 37.3944 15.339 37.5845 15.3798L39.8664 15.8712L39.8816 18.1186L37.6049 18.6403ZM57.6016 26.8748C58.1073 26.8748 58.6017 27.0247 59.0223 27.3057C59.4428 27.5867 59.7706 27.9861 59.9641 28.4534C60.1576 28.9207 60.2083 29.4348 60.1096 29.9309C60.0109 30.4269 59.7674 30.8826 59.4097 31.2402C59.0521 31.5978 58.5964 31.8414 58.1004 31.94C57.6043 32.0387 57.0901 31.988 56.6229 31.7945C56.1556 31.6009 55.7562 31.2731 55.4753 30.8526C55.1943 30.432 55.0443 29.9376 55.0444 29.4318C55.0451 28.7539 55.3148 28.1039 55.7942 27.6245C56.2736 27.1451 56.9236 26.8755 57.6016 26.8748ZM57.6016 14.5152C58.1073 14.5152 58.6017 14.6652 59.0223 14.9462C59.4428 15.2272 59.7706 15.6266 59.9641 16.0939C60.1576 16.5611 60.2083 17.0753 60.1096 17.5714C60.0109 18.0674 59.7674 18.5231 59.4097 18.8807C59.0521 19.2383 58.5964 19.4818 58.1004 19.5805C57.6043 19.6791 57.0901 19.6285 56.6229 19.4349C56.1556 19.2414 55.7562 18.9136 55.4753 18.493C55.1943 18.0725 55.0443 17.5781 55.0444 17.0723C55.0451 16.3943 55.3148 15.7443 55.7942 15.265C56.2736 14.7856 56.9236 14.5159 57.6016 14.5152ZM65.3231 38.1594C65.2336 38.1652 65.1451 38.1823 65.0598 38.2102L47.7213 43.8729C47.6398 43.0846 47.37 42.3275 46.9346 41.6652C46.8185 41.489 46.6532 41.3507 46.4592 41.2675L29.025 33.7958C28.3006 33.4766 27.5172 33.3129 26.7256 33.3152C25.9339 33.3175 25.1515 33.4858 24.4289 33.8092L16.9848 37.0522V36.4233C16.9842 35.8563 16.7587 35.3127 16.3578 34.9118C15.9569 34.5109 15.4133 34.2854 14.8464 34.2847H2.64688C2.07985 34.2853 1.53622 34.5109 1.13529 34.9119C0.73436 35.3129 0.508871 35.8565 0.508301 36.4235L0.508301 56.8975C0.508943 57.4645 0.734463 58.0081 1.13539 58.409C1.53631 58.8099 2.07989 59.0354 2.64688 59.0361H14.8465C15.4135 59.0354 15.957 58.8099 16.3579 58.409C16.7588 58.0081 16.9843 57.4645 16.9849 56.8975V55.099L24.2867 53.1601C24.4106 53.1227 24.5412 53.1133 24.6692 53.1325C24.7972 53.1516 24.9194 53.1989 25.0269 53.271L34.4066 59.1078C35.2497 59.6462 36.2202 59.9523 37.2197 59.9949C38.2192 60.0374 39.2122 59.8151 40.0981 59.3503L67.9001 45.1806C67.9741 45.1429 68.0434 45.0968 68.1068 45.0432C68.7352 44.5118 69.1799 43.7956 69.3774 42.9966C69.575 42.1977 69.5153 41.3567 69.2068 40.5937C68.8984 39.8307 68.3569 39.1845 67.6597 38.7472C66.9625 38.3099 66.145 38.1039 65.3238 38.1585L65.3231 38.1594ZM14.8292 56.8804H2.66399V36.4406H14.8292V56.8804ZM66.7959 43.3247L39.1186 57.431C38.5637 57.7274 37.9394 57.8695 37.3109 57.8427C36.6823 57.8159 36.0725 57.6211 35.5448 57.2785L26.1659 51.4421C25.8084 51.2148 25.4072 51.0649 24.9883 51.0023C24.5693 50.9396 24.1418 50.9655 23.7335 51.0783L16.9849 52.8703V39.4041L25.2901 35.786C25.7423 35.5773 26.2341 35.4686 26.7321 35.4671C27.2301 35.4656 27.7225 35.5714 28.1759 35.7774L45.2854 43.1101C45.5115 43.5491 45.6176 44.0399 45.593 44.5331C45.5684 45.0262 45.414 45.5041 45.1454 45.9184C44.8768 46.3327 44.5035 46.6687 44.0634 46.8924C43.6232 47.1162 43.1318 47.2196 42.6388 47.1924L34.0485 43.5111C33.7865 43.4029 33.4925 43.4022 33.23 43.5092C32.9676 43.6162 32.7578 43.8223 32.6462 44.0828C32.5346 44.3434 32.5301 44.6374 32.6337 44.9012C32.7373 45.165 32.9406 45.3774 33.1996 45.4924L41.9504 49.2428C42.0487 49.2848 42.1526 49.312 42.2588 49.3236C43.1938 49.4226 44.1377 49.2548 44.9814 48.8396C45.825 48.4245 46.5338 47.779 47.0259 46.9778C47.1678 46.7453 47.2901 46.5014 47.3917 46.2486L65.5853 40.307C65.9348 40.3077 66.276 40.4129 66.5653 40.609C66.8546 40.805 67.0786 41.0831 67.2087 41.4074C67.3389 41.7318 67.3691 42.0876 67.2955 42.4292C67.2219 42.7708 67.0479 43.0827 66.7959 43.3247ZM9.56221 39.6687V39.5508C9.56221 39.2649 9.67577 38.9908 9.8779 38.7886C10.08 38.5865 10.3542 38.4729 10.6401 38.4729C10.9259 38.4729 11.2001 38.5865 11.4022 38.7886C11.6043 38.9908 11.7179 39.2649 11.7179 39.5508V39.6687C11.7179 39.9545 11.6043 40.2287 11.4022 40.4308C11.2001 40.633 10.9259 40.7465 10.6401 40.7465C10.3542 40.7465 10.08 40.633 9.8779 40.4308C9.67577 40.2287 9.56221 39.9545 9.56221 39.6687Z" fill="#2920D2"/>
</svg>
