<svg width="56" height="60" viewBox="0 0 56 60" fill="none" xmlns="http://www.w3.org/2000/svg">
<path d="M28.0242 20.9965C28.0242 21.2618 28.1295 21.5162 28.3171 21.7037C28.5046 21.8913 28.759 21.9966 29.0243 21.9966C29.2895 21.9966 29.5439 21.8913 29.7314 21.7037C29.919 21.5162 30.0243 21.2618 30.0243 20.9965C30.0229 19.8443 29.6242 18.7277 28.8955 17.8351C28.1668 16.9424 27.1527 16.3283 26.024 16.0962V15.9962C26.024 15.7309 25.9187 15.4766 25.7311 15.289C25.5436 15.1015 25.2892 14.9961 25.0239 14.9961C24.7587 14.9961 24.5043 15.1015 24.3168 15.289C24.1292 15.4766 24.0239 15.7309 24.0239 15.9962V16.0962C22.8935 16.3257 21.8772 16.939 21.1473 17.832C20.4173 18.7251 20.0186 19.8431 20.0186 20.9965C20.0186 22.15 20.4173 23.268 21.1473 24.161C21.8772 25.0541 22.8935 25.6674 24.0239 25.8969V31.8144C23.4408 31.6082 22.9356 31.2269 22.5776 30.7226C22.2195 30.2183 22.0261 29.6156 22.0237 28.9972C22.0237 28.7319 21.9184 28.4775 21.7308 28.29C21.5433 28.1024 21.2889 27.9971 21.0236 27.9971C20.7584 27.9971 20.504 28.1024 20.3165 28.29C20.1289 28.4775 20.0236 28.7319 20.0236 28.9972C20.025 30.1494 20.4237 31.266 21.1524 32.1586C21.8811 33.0513 22.8952 33.6654 24.0239 33.8975V33.9975C24.0239 34.2628 24.1292 34.5171 24.3168 34.7047C24.5043 34.8922 24.7587 34.9976 25.0239 34.9976C25.2892 34.9976 25.5436 34.8922 25.7311 34.7047C25.9187 34.5171 26.024 34.2628 26.024 33.9975V33.8975C27.1544 33.668 28.1707 33.0547 28.9006 32.1616C29.6306 31.2686 30.0293 30.1506 30.0293 28.9972C30.0293 27.8437 29.6306 26.7257 28.9006 25.8327C28.1707 24.9396 27.1544 24.3263 26.024 24.0968V18.1803C26.607 18.3864 27.112 18.7676 27.47 19.2717C27.8281 19.7758 28.0216 20.3782 28.0242 20.9965ZM22.0237 20.9965C22.0263 20.3782 22.2198 19.7758 22.5778 19.2717C22.9359 18.7676 23.4409 18.3864 24.0239 18.1803V23.8128C23.4409 23.6067 22.9359 23.2255 22.5778 22.7214C22.2198 22.2173 22.0263 21.6149 22.0237 20.9965ZM28.0242 28.9972C28.0216 29.6155 27.8281 30.2179 27.47 30.722C27.112 31.2261 26.607 31.6073 26.024 31.8134V26.1809C26.607 26.387 27.112 26.7682 27.47 27.2723C27.8281 27.7764 28.0216 28.3788 28.0242 28.9972Z" fill="#2920D2"/>
<path d="M54.3194 0.288475L51.9392 2.66866L51.0191 1.74959C50.7845 1.51167 50.505 1.32263 50.1969 1.19339C49.8888 1.06415 49.5581 0.997265 49.2239 0.996614C48.8898 0.995963 48.5588 1.06155 48.2502 1.1896C47.9416 1.31764 47.6614 1.50559 47.4258 1.74259L45.7677 3.39571C45.4989 3.66615 45.2942 3.99339 45.1686 4.35337C45.0429 4.71335 44.9996 5.09692 45.0417 5.47587L45.4507 9.16115L44.8357 9.77619C42.5461 6.79291 39.6129 4.36478 36.2544 2.67272C32.896 0.980673 29.1991 0.0683335 25.4391 0.00369282C21.679 -0.0609479 17.9529 0.723777 14.5383 2.29939C11.1237 3.875 8.10875 6.20088 5.71802 9.1037C3.3273 12.0065 1.62248 15.4114 0.730605 19.0647C-0.161268 22.718 -0.217197 26.5255 0.566984 30.2034C1.35117 33.8813 2.95524 37.3348 5.25967 40.3066C7.5641 43.2784 10.5095 45.6918 13.8763 47.367L10.256 55.8107C9.95694 56.545 9.95405 57.3667 10.2479 58.1031C10.5418 58.8395 11.1097 59.4334 11.8321 59.76C12.5623 60.0707 13.3857 60.0794 14.1223 59.7844C14.8589 59.4894 15.4486 58.9146 15.7624 58.1859L19.5497 49.3852C20.3667 49.5694 21.1925 49.7122 22.0239 49.8132V56.9998C22.0239 57.7955 22.34 58.5586 22.9027 59.1213C23.4653 59.6839 24.2284 60 25.0241 60C25.8199 60 26.583 59.6839 27.1456 59.1213C27.7083 58.5586 28.0244 57.7955 28.0244 56.9998V49.8132C28.8598 49.7126 29.6815 49.5715 30.4896 49.3902L34.2649 58.1819C34.5783 58.9125 35.1688 59.4889 35.9069 59.7844C36.6449 60.0799 37.4701 60.0704 38.2011 59.758C38.9259 59.436 39.4961 58.8435 39.7901 58.107C40.0842 57.3705 40.0789 56.5483 39.7753 55.8157L36.164 47.371C39.3158 45.8061 42.1011 43.5924 44.3372 40.8754C46.5734 38.1584 48.2099 34.9993 49.1394 31.6053C50.0689 28.2114 50.2704 24.6593 49.7307 21.182C49.191 17.7047 47.9223 14.3808 46.0077 11.4283L46.8648 10.5713L50.5461 10.9793C50.641 10.991 50.7365 10.9967 50.8321 10.9963C51.5067 10.9951 52.1537 10.7277 52.6322 10.2522L54.2764 8.5961C54.5138 8.36111 54.7023 8.08137 54.8309 7.77307C54.9595 7.46477 55.0257 7.13403 55.0257 6.79997C55.0257 6.46591 54.9595 6.13517 54.8309 5.82687C54.7023 5.51857 54.5138 5.23883 54.2764 5.00383L53.3523 4.07876L55.7325 1.69858C55.9008 1.50763 55.9899 1.25971 55.9818 1.00532C55.9736 0.750933 55.8688 0.509224 55.6886 0.329443C55.5084 0.149663 55.2665 0.0453384 55.0121 0.0377264C54.7577 0.0301145 54.51 0.119788 54.3194 0.288475ZM13.9233 57.3998C13.8185 57.6401 13.6236 57.8297 13.3804 57.9277C13.1373 58.0257 12.8654 58.0243 12.6232 57.9238C12.3809 57.8164 12.1902 57.6186 12.0918 57.3725C11.9933 57.1264 11.9949 56.8517 12.0962 56.6067L15.7044 48.1921C16.3245 48.4421 16.9535 48.6741 17.5976 48.8752L13.9233 57.3998ZM26.0242 56.9998C26.0242 57.265 25.9189 57.5194 25.7313 57.7069C25.5438 57.8945 25.2894 57.9999 25.0241 57.9999C24.7589 57.9999 24.5045 57.8945 24.317 57.7069C24.1294 57.5194 24.0241 57.265 24.0241 56.9998V49.9742C24.3561 49.9872 24.6891 49.9992 25.0241 49.9992C25.3592 49.9992 25.6922 49.9872 26.0242 49.9742V56.9998ZM37.9381 56.6087C38.0002 56.7307 38.0366 56.8641 38.045 57.0007C38.0534 57.1372 38.0337 57.2741 37.9872 57.4028C37.9406 57.5314 37.8681 57.6492 37.7742 57.7487C37.6803 57.8482 37.5669 57.9274 37.4412 57.9814C37.3154 58.0353 37.18 58.0629 37.0431 58.0624C36.9063 58.0619 36.771 58.0333 36.6457 57.9784C36.5203 57.9235 36.4076 57.8435 36.3144 57.7433C36.2212 57.6431 36.1496 57.5248 36.104 57.3958L32.4447 48.8752C33.0888 48.6751 33.7178 48.4431 34.3379 48.1931L37.9381 56.6087ZM48.0259 24.9973C48.032 30.4656 46.0919 35.7575 42.5528 39.9261C39.0137 44.0946 34.1067 46.8676 28.7099 47.7488C23.3132 48.63 17.7789 47.5619 13.0977 44.7356C8.4165 41.9094 4.89386 37.5094 3.16025 32.3232C1.42664 27.1371 1.59523 21.5032 3.63585 16.43C5.67646 11.3568 9.4559 7.17535 14.2977 4.63405C19.1396 2.09274 24.7278 1.35746 30.0622 2.5598C35.3966 3.76214 40.1291 6.82361 43.4125 11.1963L41.2544 13.3545C38.2098 9.13374 33.6369 6.26929 28.5107 5.37184C23.3845 4.47438 18.1104 5.61491 13.813 8.55027C9.51566 11.4856 6.53494 15.9836 5.50637 21.0851C4.4778 26.1867 5.48277 31.4882 8.30701 35.8594C11.1312 40.2307 15.5513 43.3257 20.6248 44.4847C25.6983 45.6437 31.0239 44.775 35.4661 42.0637C39.9082 39.3524 43.1156 35.0132 44.4042 29.971C45.6929 24.9289 44.961 19.5828 42.3645 15.0726L44.5646 12.8724C46.8322 16.5097 48.0316 20.7112 48.0259 24.9973ZM32.3177 23.7043C32.5052 23.8917 32.7596 23.9971 33.0248 23.9971C33.2899 23.9971 33.5443 23.8917 33.7318 23.7043L36.356 21.0801C37.3618 23.9988 37.2029 27.1931 35.9126 29.9977C34.6222 32.8022 32.2998 35.001 29.4289 36.1362C26.5579 37.2713 23.3598 37.2553 20.5003 36.0915C17.6409 34.9277 15.3406 32.7058 14.0783 29.8885C12.8161 27.0711 12.6892 23.8755 13.7241 20.9669C14.759 18.0583 16.8759 15.661 19.6341 14.2742C22.3922 12.8874 25.579 12.6178 28.5309 13.5218C31.4828 14.4257 33.9723 16.4334 35.4809 19.1269L32.3177 22.2901C32.1302 22.4777 32.0249 22.732 32.0249 22.9972C32.0249 23.2624 32.1302 23.5167 32.3177 23.7043ZM25.0241 10.9963C22.0137 10.9952 19.0831 11.9641 16.6666 13.7594C14.25 15.5546 12.4762 18.0807 11.6081 20.9632C10.7399 23.8457 10.8236 26.9312 11.8467 29.7625C12.8699 32.5937 14.778 35.0199 17.2882 36.6816C19.7985 38.3432 22.7774 39.1518 25.7833 38.9875C28.7892 38.8233 31.6623 37.6949 33.9765 35.7696C36.2908 33.8443 37.9232 31.2246 38.6317 28.2988C39.3402 25.373 39.0872 22.2967 37.9101 19.5259L40.9024 16.5337C43.1389 20.6856 43.6683 25.5459 42.3783 30.0819C41.0882 34.6179 38.0803 38.4722 33.9936 40.8257C29.907 43.1792 25.0637 43.8466 20.4928 42.6859C15.922 41.5252 11.9839 38.6279 9.51519 34.6098C7.04654 30.5916 6.24193 25.7692 7.27233 21.1672C8.30274 16.5653 11.0869 12.5464 15.0334 9.96465C18.9798 7.38286 23.7774 6.4416 28.4067 7.34088C33.0361 8.24015 37.1324 10.9091 39.8253 14.7806L36.9321 17.6738C35.6828 15.6364 33.9324 13.953 31.8479 12.784C29.7633 11.6151 27.4141 10.9996 25.0241 10.9963ZM52.8683 7.181L52.8613 7.187L51.2161 8.84012C51.1589 8.89852 51.089 8.94297 51.0118 8.97002C50.9346 8.99707 50.8523 9.00601 50.7711 8.99613L47.4028 8.62311L47.0258 5.24585C47.0168 5.1662 47.0256 5.08553 47.0518 5.00975C47.0779 4.93396 47.1206 4.86497 47.1768 4.80782L48.838 3.15369C48.8877 3.10377 48.9469 3.06416 49.012 3.03714C49.0772 3.01011 49.147 2.9962 49.2175 2.9962C49.288 2.9962 49.3578 3.01011 49.4229 3.03714C49.4881 3.06416 49.5472 3.10377 49.597 3.15369L51.2161 4.77282C51.2211 4.77282 51.2221 4.78382 51.2261 4.78782C51.2301 4.79182 51.2361 4.78782 51.2411 4.79782L52.8653 6.42194C52.9153 6.47117 52.955 6.52986 52.9821 6.59459C53.0092 6.65932 53.0232 6.72879 53.0232 6.79897C53.0232 6.86915 53.0092 6.93862 52.9821 7.00335C52.955 7.06808 52.9153 7.12677 52.8653 7.176L52.8683 7.181Z" fill="#2920D2"/>
</svg>
