<svg width="64" height="60" viewBox="0 0 64 60" fill="none" xmlns="http://www.w3.org/2000/svg">
<path d="M21.9956 26.0327C22.5329 26.7783 23.0751 27.3847 23.5994 27.971C24.5451 29.0288 25.3203 29.8988 25.7414 31.2287C25.0914 31.7038 24.6665 32.4702 24.6665 33.336C24.6665 34.3482 25.2478 35.2254 26.0929 35.6568C26.0088 35.9128 25.9618 36.1854 25.9618 36.4692C25.9618 37.5845 26.6683 38.5356 27.6568 38.9069C27.5954 39.1287 27.5598 39.3612 27.5598 39.6023C27.5598 41.0414 28.7306 42.2123 30.1696 42.2123H33.8342C35.2713 42.2123 36.4405 41.0414 36.4405 39.6023C36.4405 39.3615 36.4051 39.1292 36.3439 38.9077C37.332 38.5369 38.0385 37.5853 38.0385 36.4693C38.0385 36.1855 37.9915 35.9129 37.9075 35.657C38.7527 35.2255 39.3338 34.3484 39.3338 33.3362C39.3338 32.4707 38.9093 31.7046 38.2597 31.2294C38.6824 29.8987 39.4571 29.0282 40.4024 27.9702C40.926 27.3841 41.4677 26.778 42.0037 26.0343C43.5259 23.9291 44.3306 21.4389 44.3306 18.833C44.3306 12.034 38.7993 6.50258 32.0003 6.50258C25.2013 6.50258 19.6735 12.034 19.6735 18.833C19.6735 21.4423 20.4769 23.9324 21.9958 26.033L21.9956 26.0327ZM29.5785 19.9945H28.557C27.9939 19.9945 27.5356 19.5362 27.5356 18.9731C27.5356 18.4099 27.9939 17.9553 28.557 17.9553C29.1202 17.9553 29.5785 18.4118 29.5785 18.9731V19.9945ZM31.6614 22.0774H32.3425V30.7261H31.6614V22.0774ZM36.7275 32.8091C37.0112 32.8091 37.2509 33.0504 37.2509 33.336C37.2509 33.6197 37.0112 33.8592 36.7275 33.8592H27.2728C26.9891 33.8592 26.7494 33.6197 26.7494 33.336C26.7494 33.0504 26.9891 32.8091 27.2728 32.8091H36.7275ZM35.9554 36.4692C35.9554 36.7529 35.7157 36.9925 35.4321 36.9925H28.5716C28.286 36.9925 28.0446 36.7529 28.0446 36.4692C28.0446 36.1786 28.281 35.9422 28.5716 35.9422H35.4321C35.7157 35.9422 35.9554 36.1836 35.9554 36.4692ZM33.8342 40.1293H30.1696C29.884 40.1293 29.6428 39.888 29.6428 39.6023C29.6428 39.3118 29.8791 39.0755 30.1696 39.0755H33.8342C34.1179 39.0755 34.3575 39.3167 34.3575 39.6023C34.3575 39.888 34.1179 40.1293 33.8342 40.1293ZM32.0002 8.5854C37.6505 8.5854 42.2475 13.1823 42.2475 18.8329C42.2475 20.9977 41.5795 23.0659 40.3146 24.815C39.8414 25.4716 39.3368 26.0362 38.8489 26.5823C37.8324 27.72 36.7859 28.8919 36.2339 30.7261H34.4254V22.0774H35.443C37.1548 22.0774 38.5475 20.6847 38.5475 18.9731C38.5475 17.2614 37.1549 15.8723 35.443 15.8723C33.7311 15.8723 32.3424 17.2634 32.3424 18.9731V19.9945H31.6613V18.9731C31.6613 17.2632 30.2687 15.8723 28.5569 15.8723C26.8451 15.8723 25.4525 17.2634 25.4525 18.9731C25.4525 20.6828 26.8451 22.0774 28.5569 22.0774H29.5783V30.7261H27.767C27.2164 28.8921 26.1692 27.7203 25.1521 26.5826C24.6637 26.0365 24.1586 25.4716 23.6845 24.8135C22.4231 23.0692 21.7563 21.0009 21.7563 18.8329C21.7563 13.1823 26.3517 8.5854 32.0002 8.5854ZM34.4255 19.9945V18.9731C34.4255 18.4118 34.882 17.9553 35.4431 17.9553C36.0042 17.9553 36.4647 18.4118 36.4647 18.9731C36.4647 19.5343 36.0064 19.9945 35.4431 19.9945H34.4255ZM13.1673 18.8329C13.1673 18.2577 13.6336 17.7914 14.2088 17.7914H16.781C17.3561 17.7914 17.8224 18.2577 17.8224 18.8329C17.8224 19.408 17.3561 19.8743 16.781 19.8743H14.2088C13.6336 19.8743 13.1673 19.408 13.1673 18.8329ZM18.6832 6.98868C18.2764 6.58199 18.2764 5.92261 18.6832 5.51591C19.0899 5.10908 19.7493 5.10908 20.156 5.51591L21.9754 7.33537C22.3823 7.74206 22.3823 8.40145 21.9754 8.80814C21.7721 9.01149 21.5056 9.11316 21.239 9.11316C20.9724 9.11316 20.7059 9.01149 20.5025 8.80814L18.6832 6.98868ZM30.9587 3.61366V1.04147C30.9587 0.46632 31.425 0 32.0002 0C32.5753 0 33.0416 0.46632 33.0416 1.04147V3.61366C33.0416 4.18881 32.5753 4.65513 32.0002 4.65513C31.425 4.65513 30.9587 4.18881 30.9587 3.61366ZM42.0247 8.80814C41.618 8.40145 41.618 7.74206 42.0247 7.33537L43.8442 5.51591C44.251 5.10908 44.9103 5.10908 45.3171 5.51591C45.7238 5.92261 45.7238 6.58199 45.3171 6.98868L43.4976 8.80814C43.2943 9.01149 43.0278 9.11316 42.7612 9.11316C42.4946 9.11316 42.2281 9.01149 42.0247 8.80814ZM46.1777 18.8329C46.1777 18.2577 46.6441 17.7914 47.2192 17.7914H49.7914C50.3666 17.7914 50.8329 18.2577 50.8329 18.8329C50.8329 19.408 50.3666 19.8743 49.7914 19.8743H47.2192C46.6441 19.8743 46.1777 19.408 46.1777 18.8329ZM59.5459 36.754C60.8526 35.1578 61.5351 32.8963 61.5351 30.7085C61.5351 27.1551 58.6442 24.2644 55.0908 24.2644C51.5374 24.2644 48.6502 27.1553 48.6502 30.7085C48.6502 32.5423 49.1853 34.5061 50.0817 35.9617C51.0134 37.4747 52.3221 38.4472 53.8437 38.7888C53.6417 38.9802 53.4531 39.1689 53.275 39.3473L45.7618 46.8605H36.9746C34.9943 46.8605 33.3831 48.4717 33.3831 50.452C33.3831 50.9893 33.5027 51.499 33.7155 51.957H30.2847C30.4973 51.499 30.6168 50.9893 30.6168 50.452C30.6168 48.4717 29.0073 46.8605 27.0289 46.8605H18.238L10.7249 39.3473C10.5468 39.1691 10.3583 38.9803 10.1564 38.7889C11.6792 38.4475 12.9882 37.4747 13.9196 35.9615C14.815 34.5067 15.3497 32.543 15.3497 30.7084C15.3497 27.155 12.4605 24.2643 8.9091 24.2643C5.35767 24.2643 2.46498 27.1551 2.46498 30.7084C2.46498 32.8963 3.1474 35.1581 4.45458 36.7543C2.13301 37.1705 0.365234 39.2034 0.365234 41.643V58.9583C0.365234 59.5334 0.831555 59.9997 1.40671 59.9997C1.98186 59.9997 2.44818 59.5334 2.44818 58.9583V41.643C2.44818 40.0521 3.74235 38.758 5.3332 38.758C7.19249 38.758 8.19257 39.7592 9.25123 40.8192L17.3752 48.9433H27.0289C27.8587 48.9433 28.5339 49.62 28.5339 50.4519C28.5339 51.2838 27.8587 51.9568 27.0289 51.9568H16.8951C16.3711 51.9568 15.9543 51.7841 15.5835 51.4133L8.81159 44.6377C8.40503 44.2309 7.74564 44.2308 7.33882 44.6373C6.93199 45.0439 6.93186 45.7034 7.33843 46.1102L10.8236 49.5974V58.9584C10.8236 59.5336 11.2899 59.9999 11.8651 59.9999C12.4402 59.9999 12.9065 59.5336 12.9065 58.9584V51.6815L14.1105 52.8861C14.299 53.0746 14.5005 53.241 14.7132 53.3843V58.9584C14.7132 59.5336 15.1796 59.9999 15.7547 59.9999H48.2449C48.8201 59.9999 49.2864 59.5336 49.2864 58.9584V53.3843C49.4993 53.2408 49.7007 53.0746 49.8892 52.8861L51.0931 51.6821V58.9585C51.0931 59.5337 51.5594 60 52.1346 60C52.7097 60 53.1761 59.5337 53.1761 58.9585V49.5992L56.6647 46.1105C57.0714 45.7038 57.0714 45.0444 56.6647 44.6377C56.258 44.231 55.5987 44.2309 55.1918 44.6377L48.4163 51.4133C48.0454 51.7842 47.6285 51.9571 47.1047 51.9571H36.9746C36.1427 51.9571 35.4661 51.2819 35.4661 50.4522C35.4661 49.6224 36.1427 48.9436 36.9746 48.9436H46.6245L54.7487 40.8193C55.8075 39.7592 56.8074 38.7581 58.6704 38.7581C60.2591 38.7581 61.5517 40.0522 61.5517 41.6431V58.9584C61.5517 59.5336 62.0181 59.9999 62.5932 59.9999C63.1684 59.9999 63.6347 59.5336 63.6347 58.9584V41.6431C63.6347 39.2027 61.8668 37.1692 59.5457 36.754H59.5459ZM8.90923 26.3471C11.312 26.3471 13.2669 28.3035 13.2669 30.7083C13.2669 33.0807 12.0839 36.8446 8.90923 36.8446C5.90106 36.8446 4.54806 33.2564 4.54806 30.7083C4.54806 28.3035 6.50447 26.3471 8.90923 26.3471ZM47.1048 54.0398H47.2037V57.9168H16.7964V54.0398H47.1049H47.1048ZM50.7332 30.7083C50.7332 28.3035 52.688 26.3471 55.0908 26.3471C57.4936 26.3471 59.4521 28.3035 59.4521 30.7083C59.4521 33.2562 58.099 36.8446 55.0908 36.8446C52.0826 36.8446 50.7332 33.2564 50.7332 30.7083Z" fill="#2920D2"/>
</svg>
