<svg width="291" height="159" viewBox="0 0 291 159" fill="none" xmlns="http://www.w3.org/2000/svg">
<rect width="291" height="159" rx="8" fill="#2920D2"/>
<path d="M26.288 133V125.08L20.264 115.12H23.984L28.592 122.896H27.272L31.856 115.12H35.576L29.576 125.056V133H26.288ZM41.2966 133.288C39.9526 133.288 38.7766 132.984 37.7686 132.376C36.7606 131.768 35.9766 130.944 35.4166 129.904C34.8566 128.864 34.5766 127.712 34.5766 126.448C34.5766 125.136 34.8566 123.976 35.4166 122.968C35.9926 121.944 36.7686 121.136 37.7446 120.544C38.7366 119.952 39.8406 119.656 41.0566 119.656C42.0806 119.656 42.9766 119.824 43.7446 120.16C44.5286 120.496 45.1926 120.96 45.7366 121.552C46.2806 122.144 46.6966 122.824 46.9846 123.592C47.2726 124.344 47.4166 125.16 47.4166 126.04C47.4166 126.264 47.4006 126.496 47.3686 126.736C47.3526 126.976 47.3126 127.184 47.2486 127.36H37.1686V124.96H45.4726L43.9846 126.088C44.1286 125.352 44.0886 124.696 43.8646 124.12C43.6566 123.544 43.3046 123.088 42.8086 122.752C42.3286 122.416 41.7446 122.248 41.0566 122.248C40.4006 122.248 39.8166 122.416 39.3046 122.752C38.7926 123.072 38.4006 123.552 38.1286 124.192C37.8726 124.816 37.7766 125.576 37.8406 126.472C37.7766 127.272 37.8806 127.984 38.1526 128.608C38.4406 129.216 38.8566 129.688 39.4006 130.024C39.9606 130.36 40.6006 130.528 41.3206 130.528C42.0406 130.528 42.6486 130.376 43.1446 130.072C43.6566 129.768 44.0566 129.36 44.3446 128.848L46.8886 130.096C46.6326 130.72 46.2326 131.272 45.6886 131.752C45.1446 132.232 44.4966 132.608 43.7446 132.88C43.0086 133.152 42.1926 133.288 41.2966 133.288ZM53.7131 133.288C52.8011 133.288 52.0091 133.136 51.3371 132.832C50.6651 132.528 50.1451 132.096 49.7771 131.536C49.4091 130.96 49.2251 130.296 49.2251 129.544C49.2251 128.824 49.3851 128.184 49.7051 127.624C50.0251 127.048 50.5211 126.568 51.1931 126.184C51.8651 125.8 52.7131 125.528 53.7371 125.368L58.0091 124.672V127.072L54.3371 127.696C53.7131 127.808 53.2491 128.008 52.9451 128.296C52.6411 128.584 52.4891 128.96 52.4891 129.424C52.4891 129.872 52.6571 130.232 52.9931 130.504C53.3451 130.76 53.7771 130.888 54.2891 130.888C54.9451 130.888 55.5211 130.752 56.0171 130.48C56.5291 130.192 56.9211 129.8 57.1931 129.304C57.4811 128.808 57.6251 128.264 57.6251 127.672V124.312C57.6251 123.752 57.4011 123.288 56.9531 122.92C56.5211 122.536 55.9451 122.344 55.2251 122.344C54.5531 122.344 53.9531 122.528 53.4251 122.896C52.9131 123.248 52.5371 123.72 52.2971 124.312L49.7291 123.064C49.9851 122.376 50.3851 121.784 50.9291 121.288C51.4891 120.776 52.1451 120.376 52.8971 120.088C53.6491 119.8 54.4651 119.656 55.3451 119.656C56.4171 119.656 57.3611 119.856 58.1771 120.256C58.9931 120.64 59.6251 121.184 60.0731 121.888C60.5371 122.576 60.7691 123.384 60.7691 124.312V133H57.7931V130.768L58.4651 130.72C58.1291 131.28 57.7291 131.752 57.2651 132.136C56.8011 132.504 56.2731 132.792 55.6811 133C55.0891 133.192 54.4331 133.288 53.7131 133.288ZM63.6749 133V119.944H66.6269V122.848L66.3869 122.416C66.6909 121.44 67.1629 120.76 67.8029 120.376C68.4589 119.992 69.2429 119.8 70.1549 119.8H70.9229V122.584H69.7949C68.8989 122.584 68.1789 122.864 67.6349 123.424C67.0909 123.968 66.8189 124.736 66.8189 125.728V133H63.6749ZM77.6195 133.288C76.2275 133.288 75.0115 132.96 73.9715 132.304C72.9475 131.632 72.2435 130.728 71.8595 129.592L74.2115 128.464C74.5475 129.2 75.0115 129.776 75.6035 130.192C76.2115 130.608 76.8835 130.816 77.6195 130.816C78.1955 130.816 78.6515 130.688 78.9875 130.432C79.3235 130.176 79.4915 129.84 79.4915 129.424C79.4915 129.168 79.4195 128.96 79.2755 128.8C79.1475 128.624 78.9635 128.48 78.7235 128.368C78.4995 128.24 78.2515 128.136 77.9795 128.056L75.8435 127.456C74.7395 127.136 73.8995 126.648 73.3235 125.992C72.7635 125.336 72.4835 124.56 72.4835 123.664C72.4835 122.864 72.6835 122.168 73.0835 121.576C73.4995 120.968 74.0675 120.496 74.7875 120.16C75.5235 119.824 76.3635 119.656 77.3075 119.656C78.5395 119.656 79.6275 119.952 80.5715 120.544C81.5155 121.136 82.1875 121.968 82.5875 123.04L80.1875 124.168C79.9635 123.576 79.5875 123.104 79.0595 122.752C78.5315 122.4 77.9395 122.224 77.2835 122.224C76.7555 122.224 76.3395 122.344 76.0355 122.584C75.7315 122.824 75.5795 123.136 75.5795 123.52C75.5795 123.76 75.6435 123.968 75.7715 124.144C75.8995 124.32 76.0755 124.464 76.2995 124.576C76.5395 124.688 76.8115 124.792 77.1155 124.888L79.2035 125.512C80.2755 125.832 81.0995 126.312 81.6755 126.952C82.2675 127.592 82.5635 128.376 82.5635 129.304C82.5635 130.088 82.3555 130.784 81.9395 131.392C81.5235 131.984 80.9475 132.448 80.2115 132.784C79.4755 133.12 78.6115 133.288 77.6195 133.288ZM95.6293 133.288C94.3493 133.288 93.1813 132.992 92.1253 132.4C91.0853 131.808 90.2533 131 89.6293 129.976C89.0213 128.952 88.7173 127.784 88.7173 126.472C88.7173 125.16 89.0213 123.992 89.6293 122.968C90.2533 121.944 91.0853 121.136 92.1253 120.544C93.1653 119.952 94.3333 119.656 95.6293 119.656C96.9093 119.656 98.0693 119.952 99.1093 120.544C100.149 121.136 100.973 121.944 101.581 122.968C102.205 123.976 102.517 125.144 102.517 126.472C102.517 127.784 102.205 128.952 101.581 129.976C100.957 131 100.125 131.808 99.0853 132.4C98.0453 132.992 96.8933 133.288 95.6293 133.288ZM95.6293 130.408C96.3333 130.408 96.9493 130.24 97.4773 129.904C98.0213 129.568 98.4453 129.104 98.7493 128.512C99.0693 127.904 99.2293 127.224 99.2293 126.472C99.2293 125.704 99.0693 125.032 98.7493 124.456C98.4453 123.864 98.0213 123.4 97.4773 123.064C96.9493 122.712 96.3333 122.536 95.6293 122.536C94.9093 122.536 94.2773 122.712 93.7333 123.064C93.1893 123.4 92.7573 123.864 92.4373 124.456C92.1333 125.032 91.9813 125.704 91.9813 126.472C91.9813 127.224 92.1333 127.904 92.4373 128.512C92.7573 129.104 93.1893 129.568 93.7333 129.904C94.2773 130.24 94.9093 130.408 95.6293 130.408ZM106.132 133V122.752H103.828V119.944H106.132V119.512C106.132 118.52 106.332 117.68 106.732 116.992C107.148 116.288 107.724 115.752 108.46 115.384C109.196 115.016 110.068 114.832 111.076 114.832C111.268 114.832 111.476 114.848 111.7 114.88C111.94 114.896 112.14 114.92 112.3 114.952V117.664C112.14 117.632 111.988 117.616 111.844 117.616C111.716 117.6 111.596 117.592 111.484 117.592C110.78 117.592 110.236 117.752 109.852 118.072C109.468 118.376 109.276 118.856 109.276 119.512V119.944H112.18V122.752H109.276V133H106.132ZM124.828 133.288C123.484 133.288 122.308 132.984 121.3 132.376C120.292 131.768 119.508 130.944 118.948 129.904C118.388 128.864 118.108 127.712 118.108 126.448C118.108 125.136 118.388 123.976 118.948 122.968C119.524 121.944 120.3 121.136 121.276 120.544C122.268 119.952 123.372 119.656 124.588 119.656C125.612 119.656 126.508 119.824 127.276 120.16C128.06 120.496 128.724 120.96 129.268 121.552C129.812 122.144 130.228 122.824 130.516 123.592C130.804 124.344 130.948 125.16 130.948 126.04C130.948 126.264 130.932 126.496 130.9 126.736C130.884 126.976 130.844 127.184 130.78 127.36H120.7V124.96H129.004L127.516 126.088C127.66 125.352 127.62 124.696 127.396 124.12C127.188 123.544 126.836 123.088 126.34 122.752C125.86 122.416 125.276 122.248 124.588 122.248C123.932 122.248 123.348 122.416 122.836 122.752C122.324 123.072 121.932 123.552 121.66 124.192C121.404 124.816 121.308 125.576 121.372 126.472C121.308 127.272 121.412 127.984 121.684 128.608C121.972 129.216 122.388 129.688 122.932 130.024C123.492 130.36 124.132 130.528 124.852 130.528C125.572 130.528 126.18 130.376 126.676 130.072C127.188 129.768 127.588 129.36 127.876 128.848L130.42 130.096C130.164 130.72 129.764 131.272 129.22 131.752C128.676 132.232 128.028 132.608 127.276 132.88C126.54 133.152 125.724 133.288 124.828 133.288ZM131.921 133L136.481 126.448L131.897 119.944H135.593L139.169 125.224H137.513L141.089 119.944H144.761L140.201 126.448L144.737 133H141.065L137.537 127.744H139.145L135.617 133H131.921ZM146.48 137.8V119.944H149.432V122.536L149.144 121.888C149.592 121.184 150.2 120.64 150.968 120.256C151.736 119.856 152.624 119.656 153.632 119.656C154.864 119.656 155.976 119.96 156.968 120.568C157.96 121.176 158.744 121.992 159.32 123.016C159.912 124.04 160.208 125.192 160.208 126.472C160.208 127.736 159.92 128.888 159.344 129.928C158.768 130.968 157.984 131.792 156.992 132.4C156 132.992 154.872 133.288 153.608 133.288C152.664 133.288 151.792 133.104 150.992 132.736C150.208 132.352 149.584 131.808 149.12 131.104L149.624 130.48V137.8H146.48ZM153.248 130.408C153.968 130.408 154.608 130.24 155.168 129.904C155.728 129.568 156.16 129.104 156.464 128.512C156.784 127.92 156.944 127.24 156.944 126.472C156.944 125.704 156.784 125.032 156.464 124.456C156.16 123.864 155.728 123.4 155.168 123.064C154.608 122.712 153.968 122.536 153.248 122.536C152.56 122.536 151.936 122.704 151.376 123.04C150.832 123.376 150.4 123.848 150.08 124.456C149.776 125.048 149.624 125.72 149.624 126.472C149.624 127.24 149.776 127.92 150.08 128.512C150.4 129.104 150.832 129.568 151.376 129.904C151.936 130.24 152.56 130.408 153.248 130.408ZM168.797 133.288C167.453 133.288 166.277 132.984 165.269 132.376C164.261 131.768 163.477 130.944 162.917 129.904C162.357 128.864 162.077 127.712 162.077 126.448C162.077 125.136 162.357 123.976 162.917 122.968C163.493 121.944 164.269 121.136 165.245 120.544C166.237 119.952 167.341 119.656 168.557 119.656C169.581 119.656 170.477 119.824 171.245 120.16C172.029 120.496 172.693 120.96 173.237 121.552C173.781 122.144 174.197 122.824 174.485 123.592C174.773 124.344 174.917 125.16 174.917 126.04C174.917 126.264 174.901 126.496 174.869 126.736C174.853 126.976 174.813 127.184 174.749 127.36H164.669V124.96H172.973L171.485 126.088C171.629 125.352 171.589 124.696 171.365 124.12C171.157 123.544 170.805 123.088 170.309 122.752C169.829 122.416 169.245 122.248 168.557 122.248C167.901 122.248 167.317 122.416 166.805 122.752C166.293 123.072 165.901 123.552 165.629 124.192C165.373 124.816 165.277 125.576 165.341 126.472C165.277 127.272 165.381 127.984 165.653 128.608C165.941 129.216 166.357 129.688 166.901 130.024C167.461 130.36 168.101 130.528 168.821 130.528C169.541 130.528 170.149 130.376 170.645 130.072C171.157 129.768 171.557 129.36 171.845 128.848L174.389 130.096C174.133 130.72 173.733 131.272 173.189 131.752C172.645 132.232 171.997 132.608 171.245 132.88C170.509 133.152 169.693 133.288 168.797 133.288ZM177.3 133V119.944H180.252V122.848L180.012 122.416C180.316 121.44 180.788 120.76 181.428 120.376C182.084 119.992 182.868 119.8 183.78 119.8H184.548V122.584H183.42C182.524 122.584 181.804 122.864 181.26 123.424C180.716 123.968 180.444 124.736 180.444 125.728V133H177.3ZM186.277 133V119.944H189.421V133H186.277ZM186.277 118.48V115.12H189.421V118.48H186.277ZM198.515 133.288C197.171 133.288 195.995 132.984 194.987 132.376C193.979 131.768 193.195 130.944 192.635 129.904C192.075 128.864 191.795 127.712 191.795 126.448C191.795 125.136 192.075 123.976 192.635 122.968C193.211 121.944 193.987 121.136 194.963 120.544C195.955 119.952 197.059 119.656 198.275 119.656C199.299 119.656 200.195 119.824 200.963 120.16C201.747 120.496 202.411 120.96 202.955 121.552C203.499 122.144 203.915 122.824 204.203 123.592C204.491 124.344 204.635 125.16 204.635 126.04C204.635 126.264 204.619 126.496 204.587 126.736C204.571 126.976 204.531 127.184 204.467 127.36H194.387V124.96H202.691L201.203 126.088C201.347 125.352 201.307 124.696 201.083 124.12C200.875 123.544 200.523 123.088 200.027 122.752C199.547 122.416 198.963 122.248 198.275 122.248C197.619 122.248 197.035 122.416 196.523 122.752C196.011 123.072 195.619 123.552 195.347 124.192C195.091 124.816 194.995 125.576 195.059 126.472C194.995 127.272 195.099 127.984 195.371 128.608C195.659 129.216 196.075 129.688 196.619 130.024C197.179 130.36 197.819 130.528 198.539 130.528C199.259 130.528 199.867 130.376 200.363 130.072C200.875 129.768 201.275 129.36 201.563 128.848L204.107 130.096C203.851 130.72 203.451 131.272 202.907 131.752C202.363 132.232 201.715 132.608 200.963 132.88C200.227 133.152 199.411 133.288 198.515 133.288ZM207.019 133V119.944H209.971V122.512L209.731 122.056C210.035 121.272 210.531 120.68 211.219 120.28C211.923 119.864 212.739 119.656 213.667 119.656C214.627 119.656 215.475 119.864 216.211 120.28C216.963 120.696 217.547 121.28 217.963 122.032C218.379 122.768 218.587 123.624 218.587 124.6V133H215.443V125.344C215.443 124.768 215.331 124.272 215.107 123.856C214.883 123.44 214.571 123.12 214.171 122.896C213.787 122.656 213.331 122.536 212.803 122.536C212.291 122.536 211.835 122.656 211.435 122.896C211.035 123.12 210.723 123.44 210.499 123.856C210.275 124.272 210.163 124.768 210.163 125.344V133H207.019ZM227.533 133.288C226.237 133.288 225.069 132.992 224.029 132.4C223.005 131.792 222.197 130.976 221.605 129.952C221.013 128.912 220.717 127.744 220.717 126.448C220.717 125.152 221.013 123.992 221.605 122.968C222.197 121.944 223.005 121.136 224.029 120.544C225.069 119.952 226.237 119.656 227.533 119.656C228.461 119.656 229.325 119.824 230.125 120.16C230.925 120.48 231.613 120.928 232.189 121.504C232.781 122.064 233.205 122.736 233.461 123.52L230.701 124.72C230.461 124.064 230.053 123.536 229.477 123.136C228.917 122.736 228.269 122.536 227.533 122.536C226.845 122.536 226.229 122.704 225.685 123.04C225.157 123.376 224.741 123.84 224.437 124.432C224.133 125.024 223.981 125.704 223.981 126.472C223.981 127.24 224.133 127.92 224.437 128.512C224.741 129.104 225.157 129.568 225.685 129.904C226.229 130.24 226.845 130.408 227.533 130.408C228.285 130.408 228.941 130.208 229.501 129.808C230.061 129.408 230.461 128.872 230.701 128.2L233.461 129.448C233.205 130.184 232.789 130.848 232.213 131.44C231.637 132.016 230.949 132.472 230.149 132.808C229.349 133.128 228.477 133.288 227.533 133.288ZM242.039 133.288C240.695 133.288 239.519 132.984 238.511 132.376C237.503 131.768 236.719 130.944 236.159 129.904C235.599 128.864 235.319 127.712 235.319 126.448C235.319 125.136 235.599 123.976 236.159 122.968C236.735 121.944 237.511 121.136 238.487 120.544C239.479 119.952 240.583 119.656 241.799 119.656C242.823 119.656 243.719 119.824 244.487 120.16C245.271 120.496 245.935 120.96 246.479 121.552C247.023 122.144 247.439 122.824 247.727 123.592C248.015 124.344 248.159 125.16 248.159 126.04C248.159 126.264 248.143 126.496 248.111 126.736C248.095 126.976 248.055 127.184 247.991 127.36H237.911V124.96H246.215L244.727 126.088C244.871 125.352 244.831 124.696 244.607 124.12C244.399 123.544 244.047 123.088 243.551 122.752C243.071 122.416 242.487 122.248 241.799 122.248C241.143 122.248 240.559 122.416 240.047 122.752C239.535 123.072 239.143 123.552 238.871 124.192C238.615 124.816 238.519 125.576 238.583 126.472C238.519 127.272 238.623 127.984 238.895 128.608C239.183 129.216 239.599 129.688 240.143 130.024C240.703 130.36 241.343 130.528 242.063 130.528C242.783 130.528 243.391 130.376 243.887 130.072C244.399 129.768 244.799 129.36 245.087 128.848L247.631 130.096C247.375 130.72 246.975 131.272 246.431 131.752C245.887 132.232 245.239 132.608 244.487 132.88C243.751 133.152 242.935 133.288 242.039 133.288Z" fill="white"/>
<path d="M32.11 86V41.97H22.03V33.85H41.63V86H32.11ZM50.0524 86V78.79L64.1924 64.02C66.9924 61.08 69.1391 58.7467 70.6324 57.02C72.1724 55.2467 73.2458 53.73 73.8524 52.47C74.4591 51.21 74.7624 49.9267 74.7624 48.62C74.7624 46.4267 74.0624 44.7 72.6624 43.44C71.3091 42.18 69.5591 41.55 67.4124 41.55C65.1724 41.55 63.2358 42.2033 61.6024 43.51C59.9691 44.77 58.7791 46.6367 58.0324 49.11L49.7024 46.52C50.2624 43.7667 51.4058 41.3867 53.1324 39.38C54.8591 37.3267 56.9591 35.7633 59.4324 34.69C61.9524 33.57 64.6124 33.01 67.4124 33.01C70.7724 33.01 73.7124 33.6167 76.2324 34.83C78.7991 36.0433 80.7824 37.7467 82.1824 39.94C83.6291 42.1333 84.3524 44.7 84.3524 47.64C84.3524 49.5067 84.0024 51.35 83.3024 53.17C82.6024 54.99 81.5524 56.8567 80.1524 58.77C78.7524 60.6367 76.9324 62.7367 74.6924 65.07L62.4424 77.95H85.0524V86H50.0524ZM106.38 86V72.42H92.8V64.51H106.38V51H114.29V64.51H127.8V72.42H114.29V86H106.38Z" fill="white"/>
</svg>
