<?xml version="1.0" encoding="UTF-8" standalone="no" ?>
<!DOCTYPE svg PUBLIC "-//W3C//DTD SVG 1.1//EN" "http://www.w3.org/Graphics/SVG/1.1/DTD/svg11.dtd">
<svg xmlns="http://www.w3.org/2000/svg" xmlns:xlink="http://www.w3.org/1999/xlink" version="1.1" width="596" height="596" viewBox="0 0 1080 1080" xml:space="preserve">
<desc>Created with Fabric.js 6.5.3</desc>
<defs>
</defs>
<g transform="matrix(1 0 0 1 298 298)"  >
<path style="stroke: none; stroke-width: 1; stroke-dasharray: none; stroke-linecap: butt; stroke-dashoffset: 0; stroke-linejoin: miter; stroke-miterlimit: 4; fill: rgb(165,56,96); fill-rule: nonzero; opacity: 1;"  transform=" translate(-11.5, -11.5)" d="M 11.5 0 C 5.1592 0 0 5.1592 0 11.5 C 0 17.8409 5.1592 23 11.5 23 C 17.8409 23 23 17.8409 23 11.5 C 23 5.1592 17.8409 0 11.5 0 Z M 17.9273 8.4737 L 10.5777 15.7657 C 10.1454 16.198 9.4536 16.2268 8.9925 15.7945 L 5.1015 12.2494 C 4.6403 11.817 4.6115 11.0965 5.015 10.6353 C 5.4474 10.1742 6.1679 10.1454 6.6291 10.5777 L 9.713 13.4023 L 16.2845 6.8308 C 16.7456 6.3697 17.4662 6.3697 17.9273 6.8308 C 18.3885 7.292 18.3885 8.0125 17.9273 8.4737 Z" stroke-linecap="round" />
</g>
</svg>