<svg width="25" height="24" viewBox="0 0 25 24" fill="none" xmlns="http://www.w3.org/2000/svg">
<path d="M10 23.2881C15.5229 23.2881 20 18.8109 20 13.2881C20 7.76524 15.5229 3.28809 10 3.28809C4.47715 3.28809 0 7.76524 0 13.2881C0 18.8109 4.47715 23.2881 10 23.2881Z" fill="#2920D2" fill-opacity="0.14"/>
<path d="M9.82873 20L9.70769 19.7938C7.85882 16.6437 2.9457 9.95864 2.89607 9.8915L2.8252 9.79522L4.49907 8.14097L9.79765 11.8408C13.1338 7.5117 16.2461 4.53827 18.2763 2.8019C20.4972 0.902486 21.9428 0.0280575 21.9574 0.0196781L21.9903 0H24.8297L24.5584 0.241542C17.5831 6.4545 10.0225 19.6595 9.94718 19.7922L9.82873 20Z" fill="#2920D2" fill-opacity="0.55"/>
</svg>
