<svg width="62" height="62" viewBox="0 0 62 62" fill="none" xmlns="http://www.w3.org/2000/svg">
<rect width="62" height="62" rx="5" fill="white"/>
<mask id="path-2-outside-1_815_1642" maskUnits="userSpaceOnUse" x="11" y="9" width="39" height="44" fill="black">
<rect fill="white" x="11" y="9" width="39" height="44"/>
<path d="M47.1291 24.643C46.5212 24.168 46.0222 23.5683 45.6656 22.8843C45.5372 22.0919 45.5842 21.2809 45.8034 20.5086C46.0594 19.1961 46.3153 17.8836 45.6 16.8796C44.8847 15.8755 43.5066 15.718 42.1875 15.5671C41.3884 15.5427 40.6043 15.3433 39.8906 14.983C39.3396 14.4243 38.9164 13.7526 38.6503 13.0143C38.0859 11.7608 37.5019 10.5008 36.3141 10.1136C35.1262 9.72646 33.9844 10.4024 32.8425 11.0324C32.1623 11.4979 31.3864 11.8051 30.5719 11.9315C29.7574 11.8051 28.9815 11.4979 28.3013 11.0324C27.1528 10.4024 25.9781 9.74615 24.8297 10.1136C23.6812 10.4811 23.0578 11.7608 22.4934 12.9749C22.2274 13.7132 21.8042 14.3849 21.2531 14.9436C20.5383 15.301 19.7549 15.5002 18.9563 15.5277C17.6438 15.6852 16.2722 15.8558 15.5438 16.8402C14.8153 17.8246 15.0844 19.1961 15.3403 20.5086C15.5595 21.2809 15.6065 22.0919 15.4781 22.8843C15.1215 23.5683 14.6225 24.168 14.0147 24.643C13.0237 25.5618 12 26.5133 12 27.7865C12 29.0596 13.0237 30.0111 14.0147 30.9299C14.6225 31.4049 15.1215 32.0046 15.4781 32.6886C15.6042 33.4863 15.5527 34.302 15.3272 35.0774C15.0713 36.3899 14.8153 37.7024 15.5306 38.7065C16.0811 39.3485 16.8555 39.7568 17.6962 39.8483L14.3625 46.063C14.2525 46.2642 14.1951 46.49 14.1959 46.7194C14.1967 46.9487 14.2555 47.1741 14.3668 47.3746C14.4782 47.575 14.6385 47.744 14.8329 47.8659C15.0272 47.9877 15.2492 48.0583 15.4781 48.0711L20.1178 48.2286L22.8347 51.5099C22.9618 51.6635 23.1212 51.7872 23.3016 51.8723C23.4819 51.9573 23.6787 52.0016 23.8781 52.0021H24.0094C24.2298 51.9845 24.4423 51.9116 24.627 51.79C24.8117 51.6683 24.9627 51.502 25.0659 51.3065L29.0034 44.1533C29.4814 43.8675 30.0173 43.6926 30.5719 43.6415C31.1219 43.6945 31.6532 43.8693 32.1272 44.1533L36.0647 51.3065C36.1683 51.505 36.3209 51.6738 36.5082 51.7967C36.6954 51.9196 36.911 51.9926 37.1344 52.0086H37.2656C37.465 52.0082 37.6619 51.9639 37.8422 51.8788C38.0225 51.7938 38.1819 51.67 38.3091 51.5165L41.0259 48.2352L45.6656 48.0711C45.8913 48.0594 46.1105 47.9915 46.3033 47.8736C46.4961 47.7557 46.6565 47.5916 46.7699 47.3961C46.8833 47.2006 46.9461 46.9799 46.9527 46.754C46.9592 46.5281 46.9093 46.3041 46.8075 46.1024L43.4606 39.8877C44.3014 39.7962 45.0757 39.3879 45.6262 38.7458C46.3416 37.7549 46.0856 36.4161 45.8297 35.1168C45.5939 34.3299 45.5378 33.5001 45.6656 32.6886C46.026 32.0033 46.5296 31.4035 47.1422 30.9299C48.1331 30.0111 49.1569 29.0596 49.1569 27.7865C49.1569 26.5133 48.12 25.5618 47.1291 24.643ZM24.0094 50.6961C24.0019 50.707 23.9922 50.7162 23.9809 50.723C23.9695 50.7298 23.9569 50.7341 23.9437 50.7355C23.9338 50.7413 23.9225 50.7443 23.9109 50.7443C23.8994 50.7443 23.8881 50.7413 23.8781 50.7355L20.9775 47.2115C20.9196 47.1435 20.8483 47.088 20.7682 47.0485C20.6881 47.0091 20.6008 46.9863 20.5116 46.9818L15.5503 46.7586C15.5393 46.765 15.5269 46.7683 15.5142 46.7683C15.5015 46.7683 15.4891 46.765 15.4781 46.7586C15.4712 46.7467 15.4676 46.7331 15.4676 46.7193C15.4676 46.7054 15.4712 46.6919 15.4781 46.6799L19.0416 40.0518C19.8095 40.0784 20.5622 40.2733 21.2466 40.6227C21.7968 41.1821 22.2199 41.8536 22.4869 42.5915C23.0513 43.8055 23.6353 45.059 24.8231 45.4461C25.0472 45.5215 25.2823 45.5592 25.5187 45.5577C26.0234 45.54 26.5192 45.4194 26.9756 45.2033L24.0094 50.6961ZM45.6656 46.7586C45.6595 46.7707 45.6501 46.7808 45.6385 46.7877C45.6269 46.7947 45.6135 46.7983 45.6 46.798L40.6716 46.9686C40.5824 46.9732 40.495 46.9959 40.4149 47.0354C40.3348 47.0749 40.2636 47.1304 40.2056 47.1983L37.2984 50.6961C37.2885 50.7019 37.2771 50.7049 37.2656 50.7049C37.2541 50.7049 37.2428 50.7019 37.2328 50.6961C37.2197 50.6947 37.207 50.6904 37.1957 50.6836C37.1844 50.6768 37.1747 50.6677 37.1672 50.6568L34.1616 45.1705C34.8247 45.5138 35.5911 45.6002 36.3141 45.4133C37.5019 45.0261 38.0859 43.7727 38.6503 42.5586C38.9173 41.8208 39.3404 41.1493 39.8906 40.5899C40.575 40.2405 41.3277 40.0456 42.0956 40.019L45.6656 46.6668C45.6752 46.6802 45.6804 46.6962 45.6804 46.7127C45.6804 46.7292 45.6752 46.7453 45.6656 46.7586ZM46.2694 30.0046C45.481 30.616 44.8546 31.4114 44.445 32.3211C44.2347 33.3236 44.273 34.3622 44.5566 35.3465C44.7534 36.3768 44.9634 37.4399 44.5566 37.9715C44.1497 38.503 43.3097 38.6277 42.3778 38.7327L42.0234 38.7721C41.0086 38.8068 40.0175 39.0884 39.1359 39.5924C38.3932 40.2703 37.8277 41.1197 37.4888 42.0665C37.0359 43.0311 36.5766 44.0352 35.9137 44.2518C35.2509 44.4683 34.3584 43.9302 33.4528 43.4315C32.5948 42.8451 31.6051 42.4799 30.5719 42.3683C29.5369 42.4769 28.545 42.8399 27.6844 43.4249C26.7787 43.9236 25.8403 44.4421 25.2234 44.2452C24.6066 44.0483 24.1012 43.0246 23.6484 42.0599C23.3095 41.1132 22.744 40.2638 22.0013 39.5858C21.1197 39.0818 20.1286 38.8002 19.1137 38.7655L18.7594 38.7196C17.8275 38.6015 16.935 38.444 16.5806 37.9518C16.2263 37.4596 16.3969 36.3505 16.5806 35.3268C16.8631 34.3493 16.9037 33.3178 16.6988 32.3211C16.2892 31.4169 15.6652 30.6263 14.8809 30.0177C14.0869 29.2893 13.2731 28.528 13.2731 27.8127C13.2731 27.0974 14.0869 26.3361 14.8809 25.6011C15.6649 24.995 16.2889 24.2065 16.6988 23.3043C16.9091 22.3018 16.8708 21.2632 16.5872 20.279C16.3903 19.2486 16.1803 18.179 16.5872 17.654C16.9941 17.129 18.0769 16.9977 19.1269 16.8402C20.1417 16.811 21.1336 16.5314 22.0144 16.0265C22.7557 15.3473 23.3209 14.4983 23.6616 13.5524C24.1144 12.5811 24.5738 11.5836 25.2366 11.3671C25.3339 11.3349 25.4359 11.3194 25.5384 11.3211C26.3046 11.4405 27.0362 11.7224 27.6844 12.148C28.5464 12.7301 29.5377 13.0928 30.5719 13.2046C31.6061 13.0928 32.5973 12.7301 33.4594 12.148C34.365 11.6427 35.3034 11.1243 35.9203 11.3211C36.5372 11.518 37.0425 12.5352 37.4953 13.5065C37.8359 14.4524 38.4012 15.3014 39.1425 15.9805C40.0233 16.4855 41.0152 16.765 42.03 16.7943C43.08 16.9255 44.1694 17.0568 44.5697 17.608C44.97 18.1593 44.7534 19.2158 44.5697 20.233C44.2861 21.2172 44.2478 22.2559 44.4581 23.2583C44.8679 24.1606 45.492 24.9491 46.2759 25.5552C47.07 26.2902 47.8838 27.0449 47.8838 27.7668C47.8838 28.4886 47.0569 29.263 46.2628 29.9915L46.2694 30.0046Z"/>
</mask>
<path d="M47.1291 24.643C46.5212 24.168 46.0222 23.5683 45.6656 22.8843C45.5372 22.0919 45.5842 21.2809 45.8034 20.5086C46.0594 19.1961 46.3153 17.8836 45.6 16.8796C44.8847 15.8755 43.5066 15.718 42.1875 15.5671C41.3884 15.5427 40.6043 15.3433 39.8906 14.983C39.3396 14.4243 38.9164 13.7526 38.6503 13.0143C38.0859 11.7608 37.5019 10.5008 36.3141 10.1136C35.1262 9.72646 33.9844 10.4024 32.8425 11.0324C32.1623 11.4979 31.3864 11.8051 30.5719 11.9315C29.7574 11.8051 28.9815 11.4979 28.3013 11.0324C27.1528 10.4024 25.9781 9.74615 24.8297 10.1136C23.6812 10.4811 23.0578 11.7608 22.4934 12.9749C22.2274 13.7132 21.8042 14.3849 21.2531 14.9436C20.5383 15.301 19.7549 15.5002 18.9563 15.5277C17.6438 15.6852 16.2722 15.8558 15.5438 16.8402C14.8153 17.8246 15.0844 19.1961 15.3403 20.5086C15.5595 21.2809 15.6065 22.0919 15.4781 22.8843C15.1215 23.5683 14.6225 24.168 14.0147 24.643C13.0237 25.5618 12 26.5133 12 27.7865C12 29.0596 13.0237 30.0111 14.0147 30.9299C14.6225 31.4049 15.1215 32.0046 15.4781 32.6886C15.6042 33.4863 15.5527 34.302 15.3272 35.0774C15.0713 36.3899 14.8153 37.7024 15.5306 38.7065C16.0811 39.3485 16.8555 39.7568 17.6962 39.8483L14.3625 46.063C14.2525 46.2642 14.1951 46.49 14.1959 46.7194C14.1967 46.9487 14.2555 47.1741 14.3668 47.3746C14.4782 47.575 14.6385 47.744 14.8329 47.8659C15.0272 47.9877 15.2492 48.0583 15.4781 48.0711L20.1178 48.2286L22.8347 51.5099C22.9618 51.6635 23.1212 51.7872 23.3016 51.8723C23.4819 51.9573 23.6787 52.0016 23.8781 52.0021H24.0094C24.2298 51.9845 24.4423 51.9116 24.627 51.79C24.8117 51.6683 24.9627 51.502 25.0659 51.3065L29.0034 44.1533C29.4814 43.8675 30.0173 43.6926 30.5719 43.6415C31.1219 43.6945 31.6532 43.8693 32.1272 44.1533L36.0647 51.3065C36.1683 51.505 36.3209 51.6738 36.5082 51.7967C36.6954 51.9196 36.911 51.9926 37.1344 52.0086H37.2656C37.465 52.0082 37.6619 51.9639 37.8422 51.8788C38.0225 51.7938 38.1819 51.67 38.3091 51.5165L41.0259 48.2352L45.6656 48.0711C45.8913 48.0594 46.1105 47.9915 46.3033 47.8736C46.4961 47.7557 46.6565 47.5916 46.7699 47.3961C46.8833 47.2006 46.9461 46.9799 46.9527 46.754C46.9592 46.5281 46.9093 46.3041 46.8075 46.1024L43.4606 39.8877C44.3014 39.7962 45.0757 39.3879 45.6262 38.7458C46.3416 37.7549 46.0856 36.4161 45.8297 35.1168C45.5939 34.3299 45.5378 33.5001 45.6656 32.6886C46.026 32.0033 46.5296 31.4035 47.1422 30.9299C48.1331 30.0111 49.1569 29.0596 49.1569 27.7865C49.1569 26.5133 48.12 25.5618 47.1291 24.643ZM24.0094 50.6961C24.0019 50.707 23.9922 50.7162 23.9809 50.723C23.9695 50.7298 23.9569 50.7341 23.9437 50.7355C23.9338 50.7413 23.9225 50.7443 23.9109 50.7443C23.8994 50.7443 23.8881 50.7413 23.8781 50.7355L20.9775 47.2115C20.9196 47.1435 20.8483 47.088 20.7682 47.0485C20.6881 47.0091 20.6008 46.9863 20.5116 46.9818L15.5503 46.7586C15.5393 46.765 15.5269 46.7683 15.5142 46.7683C15.5015 46.7683 15.4891 46.765 15.4781 46.7586C15.4712 46.7467 15.4676 46.7331 15.4676 46.7193C15.4676 46.7054 15.4712 46.6919 15.4781 46.6799L19.0416 40.0518C19.8095 40.0784 20.5622 40.2733 21.2466 40.6227C21.7968 41.1821 22.2199 41.8536 22.4869 42.5915C23.0513 43.8055 23.6353 45.059 24.8231 45.4461C25.0472 45.5215 25.2823 45.5592 25.5187 45.5577C26.0234 45.54 26.5192 45.4194 26.9756 45.2033L24.0094 50.6961ZM45.6656 46.7586C45.6595 46.7707 45.6501 46.7808 45.6385 46.7877C45.6269 46.7947 45.6135 46.7983 45.6 46.798L40.6716 46.9686C40.5824 46.9732 40.495 46.9959 40.4149 47.0354C40.3348 47.0749 40.2636 47.1304 40.2056 47.1983L37.2984 50.6961C37.2885 50.7019 37.2771 50.7049 37.2656 50.7049C37.2541 50.7049 37.2428 50.7019 37.2328 50.6961C37.2197 50.6947 37.207 50.6904 37.1957 50.6836C37.1844 50.6768 37.1747 50.6677 37.1672 50.6568L34.1616 45.1705C34.8247 45.5138 35.5911 45.6002 36.3141 45.4133C37.5019 45.0261 38.0859 43.7727 38.6503 42.5586C38.9173 41.8208 39.3404 41.1493 39.8906 40.5899C40.575 40.2405 41.3277 40.0456 42.0956 40.019L45.6656 46.6668C45.6752 46.6802 45.6804 46.6962 45.6804 46.7127C45.6804 46.7292 45.6752 46.7453 45.6656 46.7586ZM46.2694 30.0046C45.481 30.616 44.8546 31.4114 44.445 32.3211C44.2347 33.3236 44.273 34.3622 44.5566 35.3465C44.7534 36.3768 44.9634 37.4399 44.5566 37.9715C44.1497 38.503 43.3097 38.6277 42.3778 38.7327L42.0234 38.7721C41.0086 38.8068 40.0175 39.0884 39.1359 39.5924C38.3932 40.2703 37.8277 41.1197 37.4888 42.0665C37.0359 43.0311 36.5766 44.0352 35.9137 44.2518C35.2509 44.4683 34.3584 43.9302 33.4528 43.4315C32.5948 42.8451 31.6051 42.4799 30.5719 42.3683C29.5369 42.4769 28.545 42.8399 27.6844 43.4249C26.7787 43.9236 25.8403 44.4421 25.2234 44.2452C24.6066 44.0483 24.1012 43.0246 23.6484 42.0599C23.3095 41.1132 22.744 40.2638 22.0013 39.5858C21.1197 39.0818 20.1286 38.8002 19.1137 38.7655L18.7594 38.7196C17.8275 38.6015 16.935 38.444 16.5806 37.9518C16.2263 37.4596 16.3969 36.3505 16.5806 35.3268C16.8631 34.3493 16.9037 33.3178 16.6988 32.3211C16.2892 31.4169 15.6652 30.6263 14.8809 30.0177C14.0869 29.2893 13.2731 28.528 13.2731 27.8127C13.2731 27.0974 14.0869 26.3361 14.8809 25.6011C15.6649 24.995 16.2889 24.2065 16.6988 23.3043C16.9091 22.3018 16.8708 21.2632 16.5872 20.279C16.3903 19.2486 16.1803 18.179 16.5872 17.654C16.9941 17.129 18.0769 16.9977 19.1269 16.8402C20.1417 16.811 21.1336 16.5314 22.0144 16.0265C22.7557 15.3473 23.3209 14.4983 23.6616 13.5524C24.1144 12.5811 24.5738 11.5836 25.2366 11.3671C25.3339 11.3349 25.4359 11.3194 25.5384 11.3211C26.3046 11.4405 27.0362 11.7224 27.6844 12.148C28.5464 12.7301 29.5377 13.0928 30.5719 13.2046C31.6061 13.0928 32.5973 12.7301 33.4594 12.148C34.365 11.6427 35.3034 11.1243 35.9203 11.3211C36.5372 11.518 37.0425 12.5352 37.4953 13.5065C37.8359 14.4524 38.4012 15.3014 39.1425 15.9805C40.0233 16.4855 41.0152 16.765 42.03 16.7943C43.08 16.9255 44.1694 17.0568 44.5697 17.608C44.97 18.1593 44.7534 19.2158 44.5697 20.233C44.2861 21.2172 44.2478 22.2559 44.4581 23.2583C44.8679 24.1606 45.492 24.9491 46.2759 25.5552C47.07 26.2902 47.8838 27.0449 47.8838 27.7668C47.8838 28.4886 47.0569 29.263 46.2628 29.9915L46.2694 30.0046Z" fill="#2920D2"/>
<path d="M47.1291 24.643C46.5212 24.168 46.0222 23.5683 45.6656 22.8843C45.5372 22.0919 45.5842 21.2809 45.8034 20.5086C46.0594 19.1961 46.3153 17.8836 45.6 16.8796C44.8847 15.8755 43.5066 15.718 42.1875 15.5671C41.3884 15.5427 40.6043 15.3433 39.8906 14.983C39.3396 14.4243 38.9164 13.7526 38.6503 13.0143C38.0859 11.7608 37.5019 10.5008 36.3141 10.1136C35.1262 9.72646 33.9844 10.4024 32.8425 11.0324C32.1623 11.4979 31.3864 11.8051 30.5719 11.9315C29.7574 11.8051 28.9815 11.4979 28.3013 11.0324C27.1528 10.4024 25.9781 9.74615 24.8297 10.1136C23.6812 10.4811 23.0578 11.7608 22.4934 12.9749C22.2274 13.7132 21.8042 14.3849 21.2531 14.9436C20.5383 15.301 19.7549 15.5002 18.9563 15.5277C17.6438 15.6852 16.2722 15.8558 15.5438 16.8402C14.8153 17.8246 15.0844 19.1961 15.3403 20.5086C15.5595 21.2809 15.6065 22.0919 15.4781 22.8843C15.1215 23.5683 14.6225 24.168 14.0147 24.643C13.0237 25.5618 12 26.5133 12 27.7865C12 29.0596 13.0237 30.0111 14.0147 30.9299C14.6225 31.4049 15.1215 32.0046 15.4781 32.6886C15.6042 33.4863 15.5527 34.302 15.3272 35.0774C15.0713 36.3899 14.8153 37.7024 15.5306 38.7065C16.0811 39.3485 16.8555 39.7568 17.6962 39.8483L14.3625 46.063C14.2525 46.2642 14.1951 46.49 14.1959 46.7194C14.1967 46.9487 14.2555 47.1741 14.3668 47.3746C14.4782 47.575 14.6385 47.744 14.8329 47.8659C15.0272 47.9877 15.2492 48.0583 15.4781 48.0711L20.1178 48.2286L22.8347 51.5099C22.9618 51.6635 23.1212 51.7872 23.3016 51.8723C23.4819 51.9573 23.6787 52.0016 23.8781 52.0021H24.0094C24.2298 51.9845 24.4423 51.9116 24.627 51.79C24.8117 51.6683 24.9627 51.502 25.0659 51.3065L29.0034 44.1533C29.4814 43.8675 30.0173 43.6926 30.5719 43.6415C31.1219 43.6945 31.6532 43.8693 32.1272 44.1533L36.0647 51.3065C36.1683 51.505 36.3209 51.6738 36.5082 51.7967C36.6954 51.9196 36.911 51.9926 37.1344 52.0086H37.2656C37.465 52.0082 37.6619 51.9639 37.8422 51.8788C38.0225 51.7938 38.1819 51.67 38.3091 51.5165L41.0259 48.2352L45.6656 48.0711C45.8913 48.0594 46.1105 47.9915 46.3033 47.8736C46.4961 47.7557 46.6565 47.5916 46.7699 47.3961C46.8833 47.2006 46.9461 46.9799 46.9527 46.754C46.9592 46.5281 46.9093 46.3041 46.8075 46.1024L43.4606 39.8877C44.3014 39.7962 45.0757 39.3879 45.6262 38.7458C46.3416 37.7549 46.0856 36.4161 45.8297 35.1168C45.5939 34.3299 45.5378 33.5001 45.6656 32.6886C46.026 32.0033 46.5296 31.4035 47.1422 30.9299C48.1331 30.0111 49.1569 29.0596 49.1569 27.7865C49.1569 26.5133 48.12 25.5618 47.1291 24.643ZM24.0094 50.6961C24.0019 50.707 23.9922 50.7162 23.9809 50.723C23.9695 50.7298 23.9569 50.7341 23.9437 50.7355C23.9338 50.7413 23.9225 50.7443 23.9109 50.7443C23.8994 50.7443 23.8881 50.7413 23.8781 50.7355L20.9775 47.2115C20.9196 47.1435 20.8483 47.088 20.7682 47.0485C20.6881 47.0091 20.6008 46.9863 20.5116 46.9818L15.5503 46.7586C15.5393 46.765 15.5269 46.7683 15.5142 46.7683C15.5015 46.7683 15.4891 46.765 15.4781 46.7586C15.4712 46.7467 15.4676 46.7331 15.4676 46.7193C15.4676 46.7054 15.4712 46.6919 15.4781 46.6799L19.0416 40.0518C19.8095 40.0784 20.5622 40.2733 21.2466 40.6227C21.7968 41.1821 22.2199 41.8536 22.4869 42.5915C23.0513 43.8055 23.6353 45.059 24.8231 45.4461C25.0472 45.5215 25.2823 45.5592 25.5187 45.5577C26.0234 45.54 26.5192 45.4194 26.9756 45.2033L24.0094 50.6961ZM45.6656 46.7586C45.6595 46.7707 45.6501 46.7808 45.6385 46.7877C45.6269 46.7947 45.6135 46.7983 45.6 46.798L40.6716 46.9686C40.5824 46.9732 40.495 46.9959 40.4149 47.0354C40.3348 47.0749 40.2636 47.1304 40.2056 47.1983L37.2984 50.6961C37.2885 50.7019 37.2771 50.7049 37.2656 50.7049C37.2541 50.7049 37.2428 50.7019 37.2328 50.6961C37.2197 50.6947 37.207 50.6904 37.1957 50.6836C37.1844 50.6768 37.1747 50.6677 37.1672 50.6568L34.1616 45.1705C34.8247 45.5138 35.5911 45.6002 36.3141 45.4133C37.5019 45.0261 38.0859 43.7727 38.6503 42.5586C38.9173 41.8208 39.3404 41.1493 39.8906 40.5899C40.575 40.2405 41.3277 40.0456 42.0956 40.019L45.6656 46.6668C45.6752 46.6802 45.6804 46.6962 45.6804 46.7127C45.6804 46.7292 45.6752 46.7453 45.6656 46.7586ZM46.2694 30.0046C45.481 30.616 44.8546 31.4114 44.445 32.3211C44.2347 33.3236 44.273 34.3622 44.5566 35.3465C44.7534 36.3768 44.9634 37.4399 44.5566 37.9715C44.1497 38.503 43.3097 38.6277 42.3778 38.7327L42.0234 38.7721C41.0086 38.8068 40.0175 39.0884 39.1359 39.5924C38.3932 40.2703 37.8277 41.1197 37.4888 42.0665C37.0359 43.0311 36.5766 44.0352 35.9137 44.2518C35.2509 44.4683 34.3584 43.9302 33.4528 43.4315C32.5948 42.8451 31.6051 42.4799 30.5719 42.3683C29.5369 42.4769 28.545 42.8399 27.6844 43.4249C26.7787 43.9236 25.8403 44.4421 25.2234 44.2452C24.6066 44.0483 24.1012 43.0246 23.6484 42.0599C23.3095 41.1132 22.744 40.2638 22.0013 39.5858C21.1197 39.0818 20.1286 38.8002 19.1137 38.7655L18.7594 38.7196C17.8275 38.6015 16.935 38.444 16.5806 37.9518C16.2263 37.4596 16.3969 36.3505 16.5806 35.3268C16.8631 34.3493 16.9037 33.3178 16.6988 32.3211C16.2892 31.4169 15.6652 30.6263 14.8809 30.0177C14.0869 29.2893 13.2731 28.528 13.2731 27.8127C13.2731 27.0974 14.0869 26.3361 14.8809 25.6011C15.6649 24.995 16.2889 24.2065 16.6988 23.3043C16.9091 22.3018 16.8708 21.2632 16.5872 20.279C16.3903 19.2486 16.1803 18.179 16.5872 17.654C16.9941 17.129 18.0769 16.9977 19.1269 16.8402C20.1417 16.811 21.1336 16.5314 22.0144 16.0265C22.7557 15.3473 23.3209 14.4983 23.6616 13.5524C24.1144 12.5811 24.5738 11.5836 25.2366 11.3671C25.3339 11.3349 25.4359 11.3194 25.5384 11.3211C26.3046 11.4405 27.0362 11.7224 27.6844 12.148C28.5464 12.7301 29.5377 13.0928 30.5719 13.2046C31.6061 13.0928 32.5973 12.7301 33.4594 12.148C34.365 11.6427 35.3034 11.1243 35.9203 11.3211C36.5372 11.518 37.0425 12.5352 37.4953 13.5065C37.8359 14.4524 38.4012 15.3014 39.1425 15.9805C40.0233 16.4855 41.0152 16.765 42.03 16.7943C43.08 16.9255 44.1694 17.0568 44.5697 17.608C44.97 18.1593 44.7534 19.2158 44.5697 20.233C44.2861 21.2172 44.2478 22.2559 44.4581 23.2583C44.8679 24.1606 45.492 24.9491 46.2759 25.5552C47.07 26.2902 47.8838 27.0449 47.8838 27.7668C47.8838 28.4886 47.0569 29.263 46.2628 29.9915L46.2694 30.0046Z" stroke="#2920D2" stroke-width="0.4" mask="url(#path-2-outside-1_815_1642)"/>
<path d="M30.5726 15.4801H30.5725C28.1385 15.4801 25.7592 16.2018 23.7355 17.5541C21.7117 18.9063 20.1344 20.8283 19.203 23.0769C18.2715 25.3256 18.0278 27.8 18.5027 30.1872C18.9775 32.5743 20.1496 34.7671 21.8706 36.4882C23.5917 38.2092 25.7845 39.3813 28.1716 39.8561C30.5588 40.331 33.0332 40.0872 35.2819 39.1558C37.5305 38.2244 39.4525 36.6471 40.8047 34.6233C42.157 32.5996 42.8787 30.2203 42.8787 27.7863V27.7862C42.8752 24.5235 41.5776 21.3954 39.2705 19.0883C36.9634 16.7812 33.8353 15.4836 30.5726 15.4801ZM30.5724 38.6195C28.4298 38.6194 26.3354 37.9841 24.5539 36.7937C22.7724 35.6034 21.3839 33.9115 20.564 31.932C19.744 29.9525 19.5295 27.7743 19.9475 25.6729C20.3655 23.5715 21.3973 21.6412 22.9123 20.1262C24.4273 18.6111 26.3576 17.5794 28.459 17.1614C30.5604 16.7434 32.7386 16.9579 34.7181 17.7778C36.6976 18.5978 38.3895 19.9863 39.5799 21.7678C40.7702 23.5492 41.4056 25.6437 41.4056 27.7863C41.4039 30.6589 40.262 33.4133 38.2307 35.4446C36.1995 37.4758 33.445 38.6177 30.5724 38.6195Z" fill="#2920D2" stroke="#2920D2" stroke-width="0.2"/>
<path d="M31.2324 20.5892L31.2325 20.5891L31.2297 20.5842C31.1638 20.4678 31.0681 20.371 30.9525 20.3036C30.837 20.2363 30.7056 20.2008 30.5718 20.2008C30.438 20.2008 30.3066 20.2363 30.1911 20.3036C30.0755 20.371 29.9798 20.4678 29.9139 20.5842L29.9137 20.5841L29.9112 20.5892L28.051 24.3549L23.8965 24.9576L23.8965 24.9574L23.8898 24.9588C23.7599 24.9868 23.6397 25.0484 23.5412 25.1376C23.4427 25.2268 23.3694 25.3404 23.3288 25.4669C23.2882 25.5934 23.2816 25.7284 23.3097 25.8583C23.3378 25.9881 23.3997 26.1083 23.489 26.2066L23.4888 26.2068L23.494 26.2117L26.5268 29.1084L25.8204 33.2495L25.8201 33.2494L25.8194 33.2573C25.8075 33.3891 25.8304 33.5217 25.8858 33.6418C25.9412 33.762 26.0272 33.8655 26.1351 33.942L26.1929 33.8605L26.1351 33.942C26.243 34.0186 26.3691 34.0655 26.5009 34.078C26.6326 34.0906 26.7653 34.0683 26.8857 34.0136L26.8858 34.0137L26.8907 34.0111L30.6046 32.0667L34.3185 34.0111L34.3185 34.0111L34.3205 34.0121C34.4256 34.0642 34.541 34.0924 34.6583 34.0947L34.6594 34.0947C34.7675 34.0956 34.8746 34.0733 34.9734 34.0293C35.0722 33.9853 35.1605 33.9207 35.2321 33.8397C35.3038 33.7587 35.3573 33.6632 35.3889 33.5598C35.4206 33.4564 35.4297 33.3474 35.4156 33.2401L35.4157 33.2401L35.4151 33.2363L34.7086 29.0946L37.7095 26.165L37.7096 26.1652L37.7136 26.1607C37.803 26.0623 37.8648 25.9422 37.8929 25.8123C37.9211 25.6825 37.9145 25.5475 37.8738 25.421C37.8332 25.2944 37.76 25.1809 37.6615 25.0917C37.563 25.0025 37.4427 24.9408 37.3128 24.9129L37.2915 24.9083L37.2701 24.913L37.2286 24.9223L33.0923 24.3544L31.2324 20.5892ZM33.344 28.3118L33.3439 28.3118L33.3426 28.3132C33.2586 28.3973 33.1957 28.5 33.1589 28.613C33.1222 28.726 33.1125 28.8461 33.1308 28.9635L33.1308 28.9635L33.1311 28.9651L33.6546 32.0137L30.9137 30.5725L30.9137 30.5724L30.9121 30.5717C30.8066 30.5185 30.69 30.4908 30.5718 30.4908C30.4536 30.4908 30.337 30.5185 30.2315 30.5717L30.2315 30.5716L30.2296 30.5726L27.4914 32.0248L28.0452 28.9792L28.0452 28.9792L28.0456 28.9767C28.0639 28.8592 28.0543 28.7392 28.0175 28.6262C27.9807 28.5132 27.9178 28.4104 27.8339 28.3263L27.833 28.3254L25.6219 26.1636L28.7026 25.7199L28.7026 25.72L28.7043 25.7197C28.8213 25.7008 28.9322 25.6547 29.0281 25.5851C29.124 25.5155 29.2022 25.4243 29.2564 25.3189L29.2564 25.3189L29.2577 25.3161L30.5735 22.5494L31.939 25.3174L31.939 25.3174L31.9397 25.3189C31.9939 25.4243 32.0721 25.5154 32.168 25.5851C32.2639 25.6547 32.3748 25.7008 32.4918 25.7197L32.4918 25.7197L32.4935 25.7199L35.5725 26.1633L33.344 28.3118Z" fill="#2920D2" stroke="#2920D2" stroke-width="0.2"/>
</svg>
