<svg width="48" height="48" viewBox="0 0 48 48" fill="none" xmlns="http://www.w3.org/2000/svg">
<g clip-path="url(#clip0_7192_38713)">
<path d="M2.07282 23.6631H45.9271C46.1324 23.6631 46.3294 23.5816 46.4746 23.4364C46.6197 23.2912 46.7013 23.0943 46.7013 22.8889C46.7013 16.8252 44.34 11.1244 40.0522 6.83658C35.7645 2.54889 30.0638 0.1875 24.0001 0.1875C17.9364 0.1875 12.2355 2.54889 7.9477 6.83668C3.65992 11.1244 1.29862 16.8252 1.29862 22.8889C1.29862 23.0943 1.38019 23.2912 1.52538 23.4364C1.67057 23.5816 1.86749 23.6631 2.07282 23.6631ZM24.7741 2.0385C27.9526 4.11074 30.5519 6.80552 32.4528 9.91052C30.0126 10.5303 27.4012 10.8678 24.7741 10.9233V2.0385ZM23.2257 10.9232C20.5985 10.8677 17.9872 10.5303 15.5469 9.91043C17.4479 6.80542 20.047 4.11064 23.2257 2.03841V10.9232ZM24.7741 12.4414C27.6749 12.3833 30.5589 11.9998 33.2367 11.2891C34.9682 14.5773 35.9529 18.2612 36.0634 22.1148H24.7741V12.4414ZM33.973 9.48046C32.2715 6.60045 30.0301 4.06012 27.3946 2.00967C31.6716 2.70257 35.5224 4.682 38.5364 7.53742C37.1482 8.32091 35.6097 8.96823 33.973 9.48046ZM14.0268 9.48046C12.3901 8.96823 10.8516 8.32091 9.46358 7.53752C12.4774 4.68219 16.3282 2.70276 20.605 2.00976C17.9697 4.06022 15.7283 6.60045 14.0268 9.48046ZM23.2257 12.4414V22.1148H11.9363C12.0469 18.2611 13.0315 14.5773 14.7629 11.2891C17.4409 11.9998 20.3249 12.3833 23.2257 12.4414ZM37.612 22.1147C37.5027 18.1917 36.515 14.3352 34.7292 10.8517C36.505 10.2806 38.1665 9.55575 39.6546 8.67868C42.9069 12.2584 44.9523 16.9535 45.1389 22.1148L37.612 22.1147ZM8.34535 8.67868C9.83355 9.55575 11.4949 10.2805 13.2707 10.8516C11.4849 14.3352 10.4971 18.1917 10.3879 22.1147H2.86095C3.04763 16.9534 5.09296 12.2584 8.34535 8.67868ZM34.6302 40.8903C35.4758 40.14 36.0102 39.046 36.0102 37.8292C36.0102 35.5721 34.1739 33.7358 31.9168 33.7358C29.6597 33.7358 27.8233 35.5721 27.8233 37.8292C27.8233 39.046 28.3577 40.1399 29.2034 40.8904C26.7382 41.8671 24.9181 44.14 24.6201 46.9243C24.6086 47.0323 24.6199 47.1415 24.6534 47.2448C24.6868 47.3482 24.7416 47.4433 24.8142 47.5241C24.8868 47.6049 24.9755 47.6695 25.0747 47.7137C25.1739 47.758 25.2812 47.7809 25.3898 47.781H38.4438C38.5525 47.781 38.6599 47.7581 38.759 47.7139C38.8582 47.6696 38.947 47.605 39.0196 47.5243C39.0922 47.4435 39.147 47.3483 39.1804 47.245C39.2138 47.1416 39.2251 47.0324 39.2136 46.9244C38.9155 44.14 37.0954 41.867 34.6302 40.8903ZM29.3717 37.8291C29.3717 36.4257 30.5135 35.2841 31.9168 35.2841C33.3201 35.2841 34.4618 36.4257 34.4618 37.8291C34.4618 39.2324 33.3201 40.374 31.9168 40.374C30.5135 40.374 29.3717 39.2324 29.3717 37.8291ZM26.3164 46.2325C26.9725 43.7235 29.2453 41.9224 31.9168 41.9224C34.5884 41.9224 36.8612 43.7234 37.5173 46.2325H26.3164ZM18.7965 40.8903C19.6421 40.14 20.1765 39.046 20.1765 37.8292C20.1765 35.5721 18.3402 33.7358 16.0831 33.7358C13.8261 33.7358 11.9897 35.5721 11.9897 37.8292C11.9897 39.046 12.5241 40.1399 13.3698 40.8904C10.9046 41.8671 9.08442 44.14 8.78645 46.9243C8.77494 47.0323 8.78627 47.1415 8.81971 47.2448C8.85314 47.3482 8.90793 47.4433 8.98052 47.5241C9.0531 47.6049 9.14186 47.6695 9.24104 47.7137C9.34022 47.758 9.44759 47.7809 9.55619 47.781H22.6102C22.7188 47.781 22.8262 47.7581 22.9254 47.7139C23.0246 47.6696 23.1134 47.605 23.186 47.5243C23.2586 47.4435 23.3134 47.3483 23.3468 47.245C23.3802 47.1416 23.3915 47.0324 23.3799 46.9244C23.082 44.14 21.2618 41.867 18.7965 40.8903ZM13.5382 37.8291C13.5382 36.4257 14.6799 35.2841 16.0832 35.2841C17.4866 35.2841 18.6282 36.4257 18.6282 37.8291C18.6282 39.2324 17.4866 40.374 16.0832 40.374C14.6799 40.374 13.5382 39.2324 13.5382 37.8291ZM10.4827 46.2325C11.1388 43.7235 13.4117 41.9224 16.0831 41.9224C18.7547 41.9224 21.0275 43.7234 21.6837 46.2325H10.4827ZM47.6707 29.3148L41.6575 25.0931C41.5615 25.0256 41.4513 24.9809 41.3354 24.9623C41.2195 24.9437 41.1009 24.9517 40.9885 24.9857C40.8761 25.0197 40.773 25.0788 40.6868 25.1585C40.6007 25.2382 40.5338 25.3365 40.4912 25.4459L37.9569 31.9579C37.905 32.0912 37.8911 32.2363 37.9166 32.3771C37.9422 32.5178 38.0063 32.6488 38.1018 32.7553C38.1973 32.8619 38.3204 32.9399 38.4576 32.9807C38.5947 33.0215 38.7404 33.0235 38.8787 32.9865L40.1846 32.6365C40.8486 35.5042 40.8013 38.3388 37.4158 40.2467C37.2809 40.3227 37.1719 40.4375 37.1029 40.5762C37.0339 40.7148 37.0081 40.871 37.0287 41.0245C37.0494 41.1779 37.1156 41.3217 37.2189 41.4372C37.3221 41.5526 37.4576 41.6344 37.6078 41.6721C38.1801 41.8162 38.7679 41.8894 39.3581 41.89C41.1893 41.89 42.9388 41.1736 44.2521 39.8385C46.2588 37.7986 46.9422 34.6197 46.1696 31.0328L47.4261 30.6961C47.5683 30.658 47.6968 30.5801 47.7963 30.4715C47.8959 30.363 47.9624 30.2283 47.9881 30.0833C48.0138 29.9382 47.9976 29.7889 47.9414 29.6528C47.8852 29.5166 47.7913 29.3994 47.6707 29.3148ZM45.0395 29.7326C44.9413 29.7589 44.8492 29.8043 44.7686 29.8662C44.6879 29.9281 44.6202 30.0053 44.5694 30.0933C44.5186 30.1814 44.4856 30.2786 44.4723 30.3794C44.459 30.4802 44.4657 30.5826 44.4921 30.6808C45.3895 34.0301 44.8998 36.9721 43.1483 38.7526C42.2729 39.6424 41.1454 40.177 39.9407 40.3084C41.0399 39.2616 41.7176 37.9857 41.9626 36.4957C42.2547 34.718 41.8886 32.965 41.492 31.4846C41.4658 31.3864 41.4204 31.2943 41.3585 31.2136C41.2966 31.133 41.2195 31.0653 41.1314 31.0144C41.0433 30.9636 40.9461 30.9306 40.8453 30.9173C40.7445 30.904 40.6421 30.9108 40.5438 30.9371L39.9541 31.0951L41.5761 26.9275L45.4246 29.6294L45.0395 29.7326ZM10.9713 41.0245C10.992 40.871 10.9662 40.7148 10.8971 40.5761C10.8281 40.4375 10.7191 40.3227 10.5841 40.2467C7.19867 38.3388 7.15125 35.5043 7.81532 32.6365L9.12129 32.9865C9.25949 33.0235 9.40525 33.0215 9.54238 32.9807C9.67951 32.9399 9.80266 32.8619 9.89814 32.7553C9.99362 32.6488 10.0577 32.5178 10.0833 32.3771C10.1089 32.2363 10.095 32.0912 10.0431 31.9579L7.50874 25.4459C7.46616 25.3365 7.39926 25.2382 7.31311 25.1585C7.22695 25.0788 7.12379 25.0197 7.01143 24.9857C6.89907 24.9517 6.78046 24.9437 6.66455 24.9623C6.54864 24.9809 6.43849 25.0256 6.34241 25.0931L0.329235 29.3148C0.208714 29.3994 0.114837 29.5167 0.0586207 29.6528C0.00240427 29.7889 -0.0138191 29.9383 0.0118546 30.0833C0.0375283 30.2283 0.104034 30.363 0.203566 30.4715C0.303099 30.5801 0.431529 30.658 0.573784 30.6961L1.83021 31.0328C1.05775 34.6196 1.74108 37.7986 3.74779 39.8385C5.06121 41.1737 6.81041 41.89 8.64187 41.89C9.22068 41.89 9.8081 41.8184 10.3921 41.6721C10.5424 41.6345 10.6779 41.5526 10.7811 41.4372C10.8844 41.3217 10.9506 41.178 10.9713 41.0245ZM4.8516 38.7527C3.10018 36.9722 2.6104 34.0302 3.50789 30.6809C3.5342 30.5827 3.54092 30.4803 3.52764 30.3795C3.51437 30.2787 3.48138 30.1815 3.43054 30.0934C3.37971 30.0054 3.31203 29.9282 3.23136 29.8663C3.1507 29.8044 3.05864 29.759 2.96043 29.7327L2.57547 29.6297L6.42389 26.9278L8.04593 31.0954L7.45619 30.9374C7.35798 30.911 7.25555 30.9043 7.15474 30.9176C7.05393 30.9308 6.95672 30.9638 6.86867 31.0147C6.78061 31.0655 6.70344 31.1332 6.64155 31.2139C6.57967 31.2945 6.53428 31.3866 6.50799 31.4848C6.11131 32.9651 5.74531 34.7182 6.03748 36.4959C6.28231 37.9858 6.96022 39.2618 8.05938 40.3086C6.85464 40.1771 5.72693 39.6424 4.8516 38.7527Z" fill="#EB7124"/>
</g>
<defs>
<clipPath id="clip0_7192_38713">
<rect width="48" height="48" fill="white"/>
</clipPath>
</defs>
</svg>
