<svg width="48" height="48" viewBox="0 0 48 48" fill="none" xmlns="http://www.w3.org/2000/svg">
<g clip-path="url(#clip0_7192_38735)">
<path d="M47.9196 29.269L47.9268 29.2666L40.0461 12.0716L41.9573 11.1204L41.2421 9.68839L39.3789 10.6164L39.1269 10.0668C39.0631 9.92757 38.9606 9.8096 38.8317 9.7269C38.7028 9.64419 38.5529 9.60023 38.3997 9.60023C38.2465 9.60023 38.0966 9.64419 37.9677 9.7269C37.8388 9.8096 37.7363 9.92757 37.6725 10.0668L37.4477 10.558C36.0917 9.92818 34.6148 9.6014 33.1197 9.60039H26.3998V8.0004H27.9998V6.40042H26.6246L27.1998 4.09884C27.6414 2.33155 26.5668 0.540866 24.7995 0.0991699C23.0322 -0.342426 21.2415 0.732165 20.7998 2.49945C20.6686 3.02447 20.6686 3.57371 20.7998 4.09874L21.375 6.40032H19.9998V8.0003H21.5998V9.60029H14.8839C13.3873 9.60148 11.9089 9.9291 10.5519 10.5603L10.3271 10.0691C10.2633 9.92987 10.1608 9.8119 10.0319 9.7292C9.90302 9.64649 9.75309 9.60253 9.59993 9.60253C9.44678 9.60253 9.29684 9.64649 9.16793 9.7292C9.03903 9.8119 8.93657 9.92987 8.87274 10.0691L8.62074 10.6187L6.75756 9.68669L6.04236 11.1203L7.95355 12.0755L0.0728109 29.2666C0.0242455 29.3711 -0.000614621 29.485 1.15413e-05 29.6002C0.00351151 32.6915 2.50869 35.1967 5.59997 35.2002H13.5999C16.6912 35.1967 19.1964 32.6915 19.1999 29.6002C19.1979 29.4853 19.1705 29.3722 19.1199 29.269L11.2175 12.0092C12.3662 11.476 13.6175 11.2 14.8839 11.2004H21.5998V40.4689L18.8687 43.2001H15.9999C13.7919 43.2027 12.0025 44.9921 11.9999 47.2001C11.9999 47.4122 12.0842 47.6157 12.2342 47.7658C12.3843 47.9158 12.5877 48.0001 12.7999 48.0001H35.1997C35.4119 48.0001 35.6154 47.9158 35.7654 47.7658C35.9154 47.6157 35.9997 47.4122 35.9997 47.2001C35.9971 44.9921 34.2077 43.2027 31.9997 43.2001H29.131L26.3998 40.4689V11.2004H33.1197C34.3862 11.2 35.6374 11.476 36.7861 12.0092L28.8726 29.2666C28.824 29.3711 28.7991 29.485 28.7998 29.6002C28.8033 32.6915 31.3085 35.1967 34.3997 35.2002H42.3997C45.4909 35.1967 47.9961 32.6915 47.9996 29.6002C47.9977 29.4853 47.9704 29.3722 47.9196 29.269ZM13.5999 33.6002H5.59997C3.69978 33.5981 2.06249 32.2615 1.68 30.4002H17.5199C17.1375 32.2615 15.5001 33.5981 13.5999 33.6002ZM17.1535 28.8002H2.04639L9.39513 12.7676C9.52933 12.8036 9.67053 12.8036 9.80473 12.7676L17.1535 28.8002ZM22.6614 2.25325C23.2844 1.51406 24.3887 1.41996 25.1279 2.04295C25.2038 2.10695 25.2742 2.17735 25.3382 2.25325C25.4979 2.45634 25.6088 2.69336 25.6625 2.94605C25.7161 3.19875 25.7111 3.46039 25.6478 3.71084L24.975 6.40042H23.0246L22.3518 3.71084C22.2885 3.46039 22.2835 3.19875 22.3372 2.94606C22.3909 2.69337 22.5018 2.45635 22.6614 2.25325ZM23.1998 9.60039V8.0004H24.7998V9.60039H23.1998ZM24.7998 11.2004V40.0001H23.1998V11.2004H24.7998ZM31.9997 44.8001C32.496 44.8007 32.9799 44.9548 33.385 45.2412C33.7902 45.5277 34.0969 45.9325 34.2629 46.4001H13.7367C13.9027 45.9325 14.2094 45.5277 14.6146 45.2412C15.0198 44.9548 15.5037 44.8007 15.9999 44.8001H31.9997ZM26.8686 43.2001H21.131L22.731 41.6001H25.2686L26.8686 43.2001ZM38.1933 12.77C38.3254 12.8165 38.4703 12.8105 38.5981 12.7532L45.9532 28.8002H30.8462L38.1933 12.77ZM42.3997 33.6002H34.3997C32.4995 33.5981 30.8623 32.2615 30.4798 30.4002H46.3196C45.9372 32.2615 44.2998 33.5981 42.3997 33.6002Z" fill="#EB7124"/>
</g>
<defs>
<clipPath id="clip0_7192_38735">
<rect width="48" height="48" fill="white"/>
</clipPath>
</defs>
</svg>
