<svg width="62" height="62" viewBox="0 0 62 62" fill="none" xmlns="http://www.w3.org/2000/svg">
<rect width="62" height="62" rx="31" fill="url(#paint0_linear_9057_42484)"/>
<path d="M46.9509 21.7812C46.9055 20.7815 46.9055 19.8272 46.9055 18.8729C46.9055 18.1004 46.3147 17.5097 45.5422 17.5097C39.8621 17.5097 35.5452 15.8738 31.9554 12.3749C31.4101 11.875 30.5921 11.875 30.0469 12.3749C26.457 15.8738 22.1401 17.5097 16.46 17.5097C15.6875 17.5097 15.0968 18.1004 15.0968 18.8729C15.0968 19.8272 15.0968 20.7815 15.0513 21.7812C14.8696 31.3238 14.5969 44.4108 30.5467 49.9091L31.0011 50L31.4555 49.9091C47.3599 44.4108 47.1327 31.3692 46.9509 21.7812ZM29.9105 35.0045C29.6379 35.2317 29.3198 35.368 28.9563 35.368H28.9108C28.5473 35.368 28.1838 35.1862 27.9566 34.9136L23.7306 30.2332L25.7754 28.4155L29.0926 32.0963L36.454 25.0984L38.3171 27.0978L29.9105 35.0045Z" fill="white"/>
<defs>
<linearGradient id="paint0_linear_9057_42484" x1="31" y1="0" x2="31" y2="62" gradientUnits="userSpaceOnUse">
<stop stop-color="#FF6E00"/>
<stop offset="1" stop-color="#FE4B00"/>
</linearGradient>
</defs>
</svg>
