<svg width="62" height="62" viewBox="0 0 62 62" fill="none" xmlns="http://www.w3.org/2000/svg">
<rect width="62" height="62" rx="31" fill="url(#paint0_linear_9057_42502)"/>
<g clip-path="url(#clip0_9057_42502)">
<path d="M39.8961 30.9578C37.3827 31.6151 35.1841 31.7162 34.2274 31.725L30.9428 35.0096L29.3684 33.4352L32.653 30.1506C32.6541 30.0275 32.6569 29.8837 32.662 29.7213H17.266V27.4947H32.8416C32.9683 26.4974 33.1782 25.3333 33.5223 24.1069H17.266V21.8804H34.2882C35.0009 20.1563 36.0213 18.4313 37.4829 16.9696C38.2302 16.2224 39.0465 15.5911 39.8961 15.0566V12H12.0117V47.9585C12.0117 49.0841 12.9275 50 14.0532 50C15.1789 50 16.0948 49.0841 16.0948 47.9585V41.403H39.896V30.9578H39.8961ZM17.266 16.2659H34.6416V18.4925H17.266V16.2659ZM25.9539 35.3356H17.266V33.1091H25.9539V35.3356Z" fill="white"/>
<path d="M18.3215 47.9584C18.3224 48.6719 18.1433 49.374 17.8008 49.9999H42.7812C43.9069 49.9999 44.8228 49.0841 44.8228 47.9584V43.6295H18.3215V47.9584ZM39.0575 18.5439C36.37 21.2312 35.4078 25.1169 35.066 27.7376L42.6637 20.1399L44.2381 21.7143L36.6403 29.3122C39.2608 28.9704 43.1466 28.0082 45.8342 25.3206C49.2271 21.9278 49.8714 16.6584 49.9874 14.3926C47.7201 14.5118 42.4398 15.1616 39.0575 18.5439Z" fill="white"/>
</g>
<defs>
<linearGradient id="paint0_linear_9057_42502" x1="31" y1="0" x2="31" y2="62" gradientUnits="userSpaceOnUse">
<stop stop-color="#FF6E00"/>
<stop offset="1" stop-color="#FE4B00"/>
</linearGradient>
<clipPath id="clip0_9057_42502">
<rect width="38" height="38" fill="white" transform="translate(12 12)"/>
</clipPath>
</defs>
</svg>
