<svg width="62" height="62" viewBox="0 0 62 62" fill="none" xmlns="http://www.w3.org/2000/svg">
<rect width="62" height="62" rx="31" fill="url(#paint0_linear_9057_42511)"/>
<g clip-path="url(#clip0_9057_42511)">
<path d="M25.5781 32.331C26.3267 32.331 26.9336 31.7242 26.9336 30.9756C26.9336 30.227 26.3267 29.6201 25.5781 29.6201C24.8295 29.6201 24.2227 30.227 24.2227 30.9756C24.2227 31.7242 24.8295 32.331 25.5781 32.331Z" fill="white"/>
<path d="M36.4219 41.8193C37.1705 41.8193 37.7773 41.2125 37.7773 40.4639C37.7773 39.7153 37.1705 39.1084 36.4219 39.1084C35.6733 39.1084 35.0664 39.7153 35.0664 40.4639C35.0664 41.2125 35.6733 41.8193 36.4219 41.8193Z" fill="white"/>
<path d="M49.4967 27.2309L31.8756 12.3208C31.6309 12.1137 31.3206 12 31 12C30.6794 12 30.3691 12.1137 30.1244 12.3208L12.5033 27.2309C12.3629 27.3444 12.2465 27.4849 12.1611 27.644C12.0757 27.8031 12.023 27.9777 12.006 28.1575C11.989 28.3373 12.0081 28.5187 12.0622 28.691C12.1163 28.8633 12.2043 29.023 12.321 29.1609C12.4377 29.2987 12.5807 29.4118 12.7417 29.4936C12.9028 29.5753 13.0785 29.6241 13.2586 29.637C13.4388 29.6499 13.6197 29.6267 13.7907 29.5687C13.9617 29.5107 14.1194 29.4191 14.2546 29.2994L16.0899 27.746V45.8862C16.0899 46.9647 16.5183 47.999 17.2809 48.7616C18.0435 49.5242 19.0778 49.9526 20.1563 49.9526H41.8437C42.9222 49.9526 43.9565 49.5242 44.7191 48.7616C45.4817 47.999 45.9101 46.9647 45.9101 45.8862V27.746L47.7454 29.2994C47.8806 29.4191 48.0383 29.5107 48.2093 29.5687C48.3803 29.6267 48.5612 29.6499 48.7414 29.637C48.9215 29.6241 49.0972 29.5753 49.2583 29.4936C49.4193 29.4118 49.5623 29.2987 49.679 29.1609C49.7957 29.023 49.8837 28.8633 49.9378 28.691C49.9919 28.5187 50.011 28.3373 49.994 28.1575C49.977 27.9777 49.9243 27.8031 49.8389 27.644C49.7535 27.4849 49.6371 27.3444 49.4967 27.2309ZM21.5117 30.9761C21.5117 30.1718 21.7502 29.3856 22.1971 28.7169C22.6439 28.0482 23.279 27.527 24.022 27.2192C24.765 26.9114 25.5826 26.8309 26.3715 26.9878C27.1603 27.1447 27.8848 27.532 28.4535 28.1007C29.0222 28.6694 29.4095 29.3939 29.5664 30.1828C29.7233 30.9716 29.6428 31.7892 29.335 32.5322C29.0272 33.2752 28.506 33.9103 27.8373 34.3572C27.1686 34.804 26.3824 35.0425 25.5781 35.0425C24.4997 35.0425 23.4654 34.614 22.7028 33.8514C21.9402 33.0888 21.5117 32.0545 21.5117 30.9761ZM25.5781 43.1753C25.3166 43.1756 25.0606 43.1002 24.8409 42.9582C24.6212 42.8163 24.4473 42.6138 24.3401 42.3753C24.233 42.1367 24.1971 41.8722 24.2369 41.6137C24.2766 41.3552 24.3903 41.1137 24.5642 40.9184L35.408 28.7192C35.647 28.4496 35.9834 28.286 36.3431 28.2644C36.7028 28.2428 37.0563 28.3649 37.326 28.604C37.5956 28.8431 37.7592 29.1794 37.7808 29.5391C37.8024 29.8988 37.6802 30.2524 37.4412 30.522L26.5974 42.7212C26.4695 42.8649 26.3124 42.9797 26.1367 43.058C25.9609 43.1363 25.7705 43.1763 25.5781 43.1753ZM36.4219 44.5307C35.6176 44.5307 34.8314 44.2922 34.1627 43.8454C33.494 43.3986 32.9728 42.7635 32.665 42.0205C32.3572 41.2774 32.2767 40.4598 32.4336 39.671C32.5905 38.8822 32.9778 38.1576 33.5465 37.589C34.1152 37.0203 34.8397 36.633 35.6285 36.4761C36.4174 36.3192 37.235 36.3997 37.978 36.7075C38.721 37.0152 39.3561 37.5364 39.803 38.2052C40.2498 38.8739 40.4883 39.6601 40.4883 40.4643C40.4883 41.5428 40.0598 42.5771 39.2972 43.3397C38.5346 44.1023 37.5003 44.5307 36.4219 44.5307Z" fill="white"/>
</g>
<defs>
<linearGradient id="paint0_linear_9057_42511" x1="31" y1="0" x2="31" y2="62" gradientUnits="userSpaceOnUse">
<stop stop-color="#FF6E00"/>
<stop offset="1" stop-color="#FE4B00"/>
</linearGradient>
<clipPath id="clip0_9057_42511">
<rect width="38" height="38" fill="white" transform="translate(12 12)"/>
</clipPath>
</defs>
</svg>
