<svg width="62" height="62" viewBox="0 0 62 62" fill="none" xmlns="http://www.w3.org/2000/svg">
<rect width="62" height="62" rx="31" fill="url(#paint0_linear_9057_42524)"/>
<g clip-path="url(#clip0_9057_42524)">
<path d="M31.0318 50.0004C37.1139 50.0004 47.3175 48.855 47.3175 41.179C47.3175 35.5509 41.3461 26.0353 34.9675 23.5361H27.0961C20.7175 26.0353 14.7461 35.5509 14.7461 41.179C14.7461 48.855 24.9498 50.0004 31.0318 50.0004ZM26.0063 30.3802C26.1706 30.3073 26.3572 30.3026 26.525 30.3671C26.6928 30.4316 26.8282 30.56 26.9013 30.7242C27.6927 32.6229 28.3116 34.589 28.7505 36.5986C32.7656 36.0558 34.538 35.0766 34.5563 35.0664C34.7124 34.9769 34.8977 34.953 35.0714 35.0001C35.2451 35.0472 35.393 35.1614 35.4826 35.3175C35.5721 35.4736 35.5959 35.6589 35.5489 35.8326C35.5018 36.0063 35.3876 36.1542 35.2315 36.2437C35.2077 36.2573 35.0191 36.3618 34.6642 36.5152C34.9348 38.4045 35.4275 40.2554 36.132 42.0292C36.3348 41.9235 36.5295 41.8026 36.7142 41.6676C36.8547 41.5616 37.031 41.5144 37.2057 41.5359C37.3805 41.5574 37.54 41.646 37.6506 41.783C37.7612 41.9199 37.8143 42.0945 37.7986 42.2699C37.7829 42.4452 37.6997 42.6076 37.5665 42.7228C37.4735 42.7988 35.239 44.5719 30.8649 44.5719C27.6138 44.5719 26.0579 43.8594 25.9934 43.8288C25.835 43.7499 25.7137 43.6123 25.6553 43.4453C25.5969 43.2782 25.6061 43.095 25.6809 42.9346C25.7557 42.7742 25.8902 42.6494 26.0557 42.5868C26.2212 42.5241 26.4046 42.5286 26.5668 42.5992C27.1177 42.8083 27.6911 42.952 28.2755 43.0274C28.0516 38.9938 27.1686 35.0241 25.6616 31.2759C25.6254 31.1945 25.6056 31.1067 25.6034 31.0176C25.6011 30.9285 25.6164 30.8398 25.6484 30.7567C25.6804 30.6735 25.7285 30.5974 25.7899 30.5328C25.8513 30.4682 25.9249 30.4164 26.0063 30.3802Z" fill="white"/>
<path d="M33.8062 39.1965C33.6282 38.4682 33.4799 37.7329 33.3618 36.9925C31.9451 37.4274 30.4941 37.7414 29.0243 37.9309C29.127 38.4679 29.2204 39.025 29.3046 39.6023L33.8062 39.1965ZM28.0452 17.3858C27.9686 17.4138 27.8878 17.4283 27.8063 17.4286C27.6682 17.4285 27.5334 17.3863 27.4199 17.3076C27.3064 17.2289 27.2196 17.1175 27.1712 16.9882L26.3148 14.7143H24.8627C24.746 14.7132 24.6315 14.7455 24.5327 14.8074C24.4338 14.8694 24.3548 14.9583 24.3049 15.0638C24.2528 15.1661 24.2315 15.2813 24.2435 15.3954C24.2556 15.5096 24.3004 15.6179 24.3727 15.707L27.2919 19.4643H34.763L37.6809 15.7091C37.7534 15.6196 37.7985 15.511 37.8105 15.3965C37.8225 15.2819 37.8011 15.1663 37.7487 15.0638C37.6991 14.9588 37.6206 14.8703 37.5224 14.8084C37.4242 14.7465 37.3104 14.7138 37.1943 14.7143H35.7422L34.8899 16.9882C34.8414 17.1176 34.7545 17.2291 34.6409 17.3078C34.5273 17.3865 34.3923 17.4287 34.2541 17.4286C34.1726 17.4283 34.0918 17.4138 34.0152 17.3858C33.9318 17.3545 33.8553 17.3071 33.7902 17.2462C33.725 17.1853 33.6725 17.1122 33.6357 17.0311C33.5988 16.9499 33.5783 16.8623 33.5753 16.7732C33.5723 16.6841 33.5869 16.5953 33.6183 16.5118L34.6361 13.7975L34.9978 12.8346C35.0328 12.7411 35.0446 12.6405 35.0322 12.5414C35.0197 12.4423 34.9835 12.3477 34.9266 12.2656C34.8696 12.1836 34.7936 12.1166 34.7051 12.0703C34.6166 12.0241 34.5182 11.9999 34.4183 12H27.638C27.5381 11.9999 27.4397 12.024 27.3512 12.0702C27.2627 12.1165 27.1867 12.1835 27.1298 12.2656C27.0729 12.3477 27.0368 12.4423 27.0245 12.5414C27.0122 12.6405 27.0241 12.7412 27.0592 12.8346L27.4209 13.7975L28.4387 16.5118C28.5022 16.6799 28.4964 16.8664 28.4227 17.0302C28.3489 17.194 28.2131 17.3219 28.0452 17.3858ZM29.6405 43.1722C30.0164 43.1967 30.4154 43.2143 30.8619 43.2143C32.2297 43.229 33.59 43.0118 34.8852 42.5717C34.611 41.9025 34.3709 41.2199 34.1659 40.5265L29.4736 40.9499C29.5529 41.6685 29.6059 42.4116 29.6405 43.1722ZM35.1023 22.1786C35.2823 22.1786 35.4549 22.1071 35.5821 21.9798C35.7094 21.8526 35.7809 21.68 35.7809 21.5C35.7809 21.32 35.7094 21.1474 35.5821 21.0202C35.4549 20.8929 35.2823 20.8214 35.1023 20.8214H26.9594C26.7795 20.8214 26.6069 20.8929 26.4796 21.0202C26.3524 21.1474 26.2809 21.32 26.2809 21.5C26.2809 21.68 26.3524 21.8526 26.4796 21.9798C26.6069 22.1071 26.7795 22.1786 26.9594 22.1786H35.1023Z" fill="white"/>
</g>
<defs>
<linearGradient id="paint0_linear_9057_42524" x1="31" y1="0" x2="31" y2="62" gradientUnits="userSpaceOnUse">
<stop stop-color="#FF6E00"/>
<stop offset="1" stop-color="#FE4B00"/>
</linearGradient>
<clipPath id="clip0_9057_42524">
<rect width="38" height="38" fill="white" transform="translate(12 12)"/>
</clipPath>
</defs>
</svg>
