<svg width="62" height="62" viewBox="0 0 62 62" fill="none" xmlns="http://www.w3.org/2000/svg">
<rect width="62" height="62" rx="31" fill="url(#paint0_linear_9057_42536)"/>
<path d="M45.9929 41.4875V47.3593C44.4105 47.2936 42.8254 47.3599 41.2541 47.5575L32.3249 49.1439C30.2541 49.4895 28.1313 49.3494 26.1239 48.7346L12.984 44.2299C12.62 44.0967 12.3217 43.8276 12.1517 43.4791C11.9818 43.1306 11.9534 42.7298 12.0726 42.3609C12.1918 41.992 12.4492 41.6835 12.7909 41.5003C13.1326 41.3171 13.532 41.2733 13.9052 41.3782C15.3864 41.721 23.9422 44.6576 25.3053 44.4791H32.6847C32.8787 44.4791 33.0647 44.402 33.2019 44.2648C33.339 44.1277 33.4161 43.9416 33.4161 43.7477C33.4161 43.5537 33.339 43.3676 33.2019 43.2305C33.0647 43.0933 32.8787 43.0162 32.6847 43.0162C32.2978 42.9952 24.7283 43.0692 24.5674 42.9653C24.5409 42.69 24.572 42.4123 24.6586 42.1496C24.7452 41.887 24.8854 41.6452 25.0704 41.4396C25.2553 41.2341 25.481 41.0692 25.7331 40.9554C25.9851 40.8417 26.2581 40.7815 26.5346 40.7788H31.2076C31.3822 40.7808 31.5514 40.7182 31.6828 40.603C34.4177 38.2631 37.0644 38.3141 39.1124 39.0451C40.2875 39.49 41.3763 40.1359 42.33 40.954C42.7291 41.296 43.2367 41.4851 43.7623 41.4875H45.9929Z" fill="white"/>
<path d="M49.2689 39.6377H48.1862C47.7824 39.6377 47.4551 39.965 47.4551 40.3688V48.4786C47.4551 48.8824 47.7824 49.2097 48.1862 49.2097H49.2689C49.6726 49.2097 50 48.8824 50 48.4786V40.3688C50 39.965 49.6726 39.6377 49.2689 39.6377Z" fill="white"/>
<path d="M39.1115 39.0451C39.2283 39.0893 39.345 39.1334 39.455 39.1768C39.3291 39.172 39.2083 39.1257 39.1115 39.0451ZM30.2339 12.8373L29.5028 15.1555C28.7221 15.6736 28.0202 16.3017 27.4189 17.0202H23.6236L22.3067 12.8299C22.2714 12.7647 22.3793 12.6194 22.4832 12.6914C23.6936 13.3121 25.0213 13.6706 26.3796 13.7436C27.6591 13.6287 28.9052 13.2716 30.0513 12.6914C30.1559 12.6208 30.2774 12.7627 30.2339 12.8373ZM26.4095 18.4824C26.0212 19.1554 25.7214 19.8757 25.5175 20.6254H22.8117C22.5276 20.6254 22.255 20.5125 22.0541 20.3116C21.8531 20.1106 21.7402 19.8381 21.7402 19.5539C21.7402 19.2697 21.8531 18.9972 22.0541 18.7962C22.255 18.5953 22.5276 18.4824 22.8117 18.4824H26.4095Z" fill="white"/>
<path d="M38.9718 37.4801C37.5878 37.0778 36.1241 37.0353 34.7192 37.3564C33.3142 37.6776 32.0144 38.3519 30.9427 39.3156H26.5331C25.648 39.3179 24.7977 39.6611 24.1591 40.274C23.5204 40.8869 23.1425 41.7222 23.1037 42.6065L14.3354 39.9741C11.1789 33.2768 18.0282 24.5425 21.4942 21.7139C22.26 22.3044 24.3181 22.0295 25.2237 22.0872C25.0231 23.7481 25.2547 25.4327 25.8962 26.9778C26.5377 28.5229 27.5673 29.8761 28.8853 30.9066C30.2033 31.937 31.765 32.6096 33.4192 32.8593C35.0735 33.109 36.7641 32.9274 38.3276 32.3319C38.8815 33.9883 39.101 35.7383 38.9718 37.4801Z" fill="white"/>
<path d="M35 15.0039C30.5815 15.0039 27 18.5854 27 23.0039C27 27.4229 30.5815 31.0039 35 31.0039C39.419 31.0039 43 27.4229 43 23.0039C43 18.5854 39.419 15.0039 35 15.0039ZM38.45 26.8064C38.45 26.8984 38.4295 26.9919 38.3905 27.0879C38.3505 27.1844 38.296 27.2704 38.2245 27.3479C38.1513 27.4268 38.0633 27.4905 37.9655 27.5354C37.8586 27.5845 37.7421 27.6093 37.6245 27.6079H31.6625V26.4449C31.8 26.4204 31.9325 26.3804 32.0595 26.3269C32.1865 26.2724 32.298 26.2039 32.3935 26.1199C32.4895 26.0369 32.5665 25.9374 32.6245 25.8199C32.683 25.7039 32.712 25.5679 32.712 25.4134V23.9259H31.55V23.3259C31.55 23.1594 31.603 23.0144 31.7095 22.8914C31.816 22.7684 31.975 22.7069 32.1875 22.7069H32.7125V21.3569C32.7125 20.9609 32.773 20.5849 32.8935 20.2289C33.014 19.8729 33.1985 19.5594 33.4465 19.2884C33.6945 19.0174 34.005 18.8019 34.3775 18.6419C34.75 18.4819 35.191 18.4014 35.7 18.4014C36.037 18.4014 36.3425 18.4439 36.615 18.5294C37.1294 18.6859 37.5825 18.998 37.912 19.4229C38.075 19.6294 38.2165 19.8509 38.3375 20.0884L37.5625 20.5759C37.3875 20.6679 37.218 20.7084 37.0525 20.6979C36.8885 20.6874 36.737 20.6094 36.5995 20.4634C36.471 20.3258 36.3265 20.2041 36.169 20.1009C36.039 20.0219 35.883 19.9824 35.7 19.9824C35.362 19.9824 35.111 20.0999 34.9465 20.3354C34.7815 20.5709 34.6995 20.9094 34.6995 21.3509V22.7074H37.0745V23.4449C37.0745 23.5074 37.061 23.5669 37.0335 23.6229C37.006 23.6789 36.969 23.7304 36.921 23.7759C36.8174 23.8747 36.6791 23.9287 36.536 23.9264H34.7V24.9009C34.7 25.1509 34.653 25.3774 34.5595 25.5794C34.466 25.7814 34.3395 25.9699 34.1815 26.1449C34.369 26.1029 34.5565 26.0709 34.744 26.0484C34.9326 26.0253 35.1225 26.0139 35.3125 26.0144H38.45V26.8064Z" fill="white"/>
<defs>
<linearGradient id="paint0_linear_9057_42536" x1="31" y1="0" x2="31" y2="62" gradientUnits="userSpaceOnUse">
<stop stop-color="#FF6E00"/>
<stop offset="1" stop-color="#FE4B00"/>
</linearGradient>
</defs>
</svg>
