<svg width="48" height="48" viewBox="0 0 48 48" fill="none" xmlns="http://www.w3.org/2000/svg">
<path d="M25.5867 31.7872H16.406C14.6671 31.7872 13.2578 30.3741 13.2578 28.6488V22.0681C13.2578 20.3346 14.6753 18.9297 16.406 18.9297H25.5867C27.3256 18.9297 28.7348 20.3428 28.7348 22.0681V28.6488C28.7348 30.3741 27.3256 31.7872 25.5867 31.7872ZM16.406 20.5646C15.5736 20.5646 14.9061 21.2383 14.9061 22.0599V28.6406C14.9061 29.4704 15.5818 30.1358 16.406 30.1358H25.5867C26.419 30.1358 27.0866 29.4622 27.0866 28.6406V22.0599C27.0866 21.2301 26.4108 20.5646 25.5867 20.5646H16.406Z" fill="#EB7124"/>
<path d="M25.3471 20.5658H16.6444C16.1912 20.5658 15.8203 20.1961 15.8203 19.7442V17.6985C15.8203 14.8477 18.1443 12.5391 20.9958 12.5391C23.8472 12.5391 26.1713 14.8559 26.1713 17.6985V19.7442C26.1713 20.1961 25.8087 20.5658 25.3471 20.5658ZM17.4686 18.9226H24.5313V17.6985C24.5313 15.7596 22.949 14.1822 21.004 14.1822C19.0591 14.1822 17.4768 15.7596 17.4768 17.6985V18.9226H17.4686ZM21.0782 26.1771C19.8585 26.1771 18.8613 25.183 18.8613 23.967C18.8613 22.7511 19.8585 21.757 21.0782 21.757C22.2979 21.757 23.2951 22.7511 23.2951 23.967C23.2951 25.183 22.3061 26.1771 21.0782 26.1771ZM21.0782 23.392C20.765 23.392 20.5096 23.6466 20.5096 23.9588C20.5096 24.271 20.765 24.5257 21.0782 24.5257C21.3914 24.5257 21.6468 24.271 21.6468 23.9588C21.6468 23.6466 21.3914 23.392 21.0782 23.392Z" fill="#EB7124"/>
<path d="M21.078 28.2698C20.6248 28.2698 20.2539 27.9001 20.2539 27.4482V25.345C20.2539 24.8931 20.6248 24.5234 21.078 24.5234C21.5313 24.5234 21.9021 24.8931 21.9021 25.345V27.4482C21.9021 27.9001 21.5395 28.2698 21.078 28.2698Z" fill="#EB7124"/>
<path d="M20.9959 48C20.9382 48 20.8723 47.9918 20.8146 47.9836C1.5796 43.695 0.508241 27.2719 0.5 27.0994V5.30321C0.5 5.08139 0.590653 4.86778 0.755477 4.71168C0.920301 4.55558 1.11809 4.47343 1.35709 4.48164C14.8727 4.99923 20.3943 0.258793 20.452 0.209499C20.7651 -0.0698331 21.2431 -0.0698331 21.548 0.209499C21.6057 0.258793 27.1191 4.99923 40.6429 4.48164C40.8654 4.47343 41.0879 4.55558 41.2445 4.71168C41.4093 4.86778 41.5 5.08139 41.5 5.30321V27.0583C41.4918 27.2637 40.4204 43.695 21.1772 47.9754C21.1195 47.9918 21.0536 48 20.9959 48ZM2.14824 6.15764V27.0665C2.18121 27.6416 3.18663 42.2737 20.9959 46.3322C38.8051 42.2737 39.8106 27.6416 39.8435 27.0172V6.15764C28.4294 6.44519 22.7018 3.0932 20.9959 1.86906C19.2899 3.0932 13.5458 6.42875 2.14824 6.15764Z" fill="#EB7124"/>
<path d="M20.9959 48.0037C20.5426 48.0037 20.1718 47.634 20.1718 47.1821V31.063C20.1718 30.6111 20.5426 30.2414 20.9959 30.2414C21.4491 30.2414 21.82 30.6111 21.82 31.063V47.1739C21.82 47.634 21.4491 48.0037 20.9959 48.0037ZM20.9959 14.1798C20.5426 14.1798 20.1718 13.8101 20.1718 13.3583V0.829379C20.1718 0.377517 20.5426 0.0078125 20.9959 0.0078125C21.4491 0.0078125 21.82 0.377517 21.82 0.829379V13.3583C21.82 13.8101 21.4491 14.1798 20.9959 14.1798ZM40.6676 23.7839H27.9102C27.457 23.7839 27.0861 23.4142 27.0861 22.9624C27.0861 22.5105 27.457 22.1408 27.9102 22.1408H40.6676C41.1209 22.1408 41.4918 22.5105 41.4918 22.9624C41.4918 23.4142 41.1291 23.7839 40.6676 23.7839ZM14.0815 23.7839H1.32412C0.870854 23.7839 0.5 23.4142 0.5 22.9624C0.5 22.5105 0.870854 22.1408 1.32412 22.1408H14.0815C14.5348 22.1408 14.9056 22.5105 14.9056 22.9624C14.9056 23.4142 14.5348 23.7839 14.0815 23.7839Z" fill="#EB7124"/>
</svg>
