<svg width="48" height="48" viewBox="0 0 48 48" fill="none" xmlns="http://www.w3.org/2000/svg">
<g clip-path="url(#clip0_7226_41719)">
<path d="M23.4932 0.250977C23.7476 -0.0505171 24.2543 -0.0505171 24.5088 0.250977L33.9258 11.4053C34.0072 11.502 34.0593 11.6199 34.0762 11.7451C34.0888 11.839 34.0807 11.9343 34.0537 12.0244L34.0205 12.1133C33.9671 12.2281 33.8821 12.3255 33.7754 12.3936C33.6686 12.4616 33.5446 12.498 33.418 12.498H28.2832V20.9775C29.189 20.7434 30.1349 20.6074 31.1143 20.6074H35.502V15.4727C35.5019 15.3462 35.5375 15.2219 35.6055 15.1152C35.6737 15.0085 35.7717 14.9233 35.8867 14.8701C36.0014 14.8172 36.1287 14.7977 36.2539 14.8145C36.3479 14.827 36.4377 14.8594 36.5176 14.9092L36.5938 14.9648L47.7451 24.3799C47.8947 24.5061 47.9804 24.6922 47.9805 24.8877C47.9805 25.0832 47.8945 25.2693 47.7451 25.3955L36.5938 34.8105V34.8115C36.1607 35.1743 35.5023 34.8661 35.502 34.3037V29.1689H31.1143C29.553 29.1689 28.2822 30.442 28.2822 32.0068V47.3115C28.2821 47.4875 28.2113 47.6558 28.0869 47.7803C27.9625 47.9047 27.7941 47.9754 27.6182 47.9756H20.3848C20.2086 47.9756 20.0396 47.9048 19.915 47.7803C19.7907 47.6558 19.7208 47.4875 19.7207 47.3115V32.0068C19.7207 30.4421 18.4497 29.1692 16.8887 29.1689H12.501V34.3037C12.5006 34.8665 11.8416 35.175 11.4092 34.8105L0.256836 25.3955C0.10729 25.2693 0.0214844 25.0832 0.0214844 24.8877C0.0215075 24.6921 0.107391 24.5061 0.256836 24.3799L11.4082 14.9648C11.5049 14.883 11.6234 14.8303 11.749 14.8135C11.8746 14.7967 12.0024 14.8165 12.1172 14.8701L12.1992 14.916C12.2782 14.9674 12.3454 15.0352 12.3965 15.1152C12.4645 15.222 12.5011 15.3461 12.501 15.4727V20.6074H16.8877C17.8675 20.6074 18.8143 20.742 19.7197 20.9775V12.498H14.585C14.4584 12.4981 14.3343 12.4616 14.2275 12.3936C14.1476 12.3426 14.0798 12.2751 14.0283 12.1963L13.9824 12.1133C13.9293 11.9984 13.9099 11.8705 13.9268 11.7451C13.9437 11.6198 13.9957 11.5019 14.0771 11.4053L23.4932 0.250977ZM36.8301 21.2715C36.8299 21.4473 36.7599 21.6158 36.6357 21.7402C36.5113 21.8647 36.342 21.9354 36.166 21.9355H31.1143C25.5646 21.9355 21.0488 26.4534 21.0488 32.0068V46.6475H26.9531V32.0068C26.9531 29.7097 28.8201 27.8408 31.1143 27.8408H36.166C36.342 27.8409 36.5113 27.9107 36.6357 28.0352C36.7601 28.1597 36.83 28.3289 36.8301 28.5049V32.873L46.2871 24.8877L36.8301 16.9014V21.2715ZM1.71387 24.8877L11.1729 32.873V28.5049C11.1729 28.3289 11.2428 28.1597 11.3672 28.0352C11.4917 27.9106 11.6608 27.8409 11.8369 27.8408H16.8887C18.156 27.841 19.2887 28.414 20.0518 29.3115C20.5363 27.3175 21.5505 25.4911 22.9883 24.0254C21.2936 22.7223 19.1853 21.9357 16.8887 21.9355H11.8369C11.6609 21.9355 11.4917 21.8657 11.3672 21.7412C11.2427 21.6167 11.173 21.4475 11.1729 21.2715V16.9023L1.71387 24.8877ZM16.0137 11.1699H20.3838C20.5598 11.17 20.729 11.2398 20.8535 11.3643C20.9778 11.4887 21.0478 11.658 21.0479 11.834V21.4053C22.1167 21.8296 23.1022 22.4146 23.9854 23.124C24.8751 22.4082 25.8768 21.8309 26.9551 21.4062V11.834C26.9551 11.658 27.025 11.4888 27.1494 11.3643C27.2739 11.2397 27.443 11.17 27.6191 11.1699H31.9883L24.001 1.70801L16.0137 11.1699Z" fill="#EB7124" stroke="#EB7124" stroke-width="0.2"/>
</g>
<defs>
<clipPath id="clip0_7226_41719">
<rect width="48" height="48" fill="white"/>
</clipPath>
</defs>
</svg>
