<svg width="48" height="48" viewBox="0 0 48 48" fill="none" xmlns="http://www.w3.org/2000/svg">
<path d="M1.58984 28.3949C1.58887 31.4142 2.42169 34.3751 3.99649 36.9512C5.57128 39.5273 7.82688 41.6184 10.5146 42.9941C13.2023 44.3697 16.2176 44.9765 19.2282 44.7474C22.2388 44.5183 25.1277 43.4622 27.5762 41.6957C27.7016 41.6266 27.8061 41.5251 27.8788 41.4018C27.9516 41.2786 27.9899 41.138 27.9898 40.9949V35.9949C27.9948 34.5875 27.6252 33.2041 26.919 31.9866C26.2129 30.7692 25.1956 29.7615 23.9714 29.0669C24.8506 27.9452 25.3967 26.599 25.5473 25.1818C25.6979 23.7646 25.447 22.3337 24.8233 21.0523C24.1995 19.7709 23.228 18.6907 22.0197 17.935C20.8114 17.1793 19.415 16.7786 17.9898 16.7786C16.5647 16.7786 15.1683 17.1793 13.96 17.935C12.7516 18.6907 11.7802 19.7709 11.1564 21.0523C10.5327 22.3337 10.2818 23.7646 10.4324 25.1818C10.583 26.599 11.1291 27.9452 12.0082 29.0669C10.7841 29.7614 9.76671 30.7691 9.06054 31.9866C8.35438 33.204 7.98484 34.5875 7.98984 35.9949V39.2749C2.47304 34.2069 1.61704 25.8149 5.99624 19.7373C10.3754 13.6597 18.6066 11.8165 25.1602 15.4453C25.3456 15.5486 25.5644 15.5741 25.7685 15.5161C25.8695 15.4874 25.964 15.4391 26.0464 15.3739C26.1287 15.3087 26.1975 15.2279 26.2486 15.1361C26.2998 15.0443 26.3324 14.9434 26.3445 14.839C26.3567 14.7347 26.3482 14.6289 26.3195 14.5279C26.2907 14.4268 26.2424 14.3324 26.1772 14.25C26.112 14.1676 26.0312 14.0989 25.9394 14.0477C23.4426 12.664 20.6278 11.9559 17.7734 11.9936C14.919 12.0313 12.1239 12.8134 9.66441 14.2625C7.20495 15.7117 5.16635 17.7777 3.75019 20.2563C2.33403 22.7349 1.58937 25.5403 1.58984 28.3949ZM17.9898 18.3949C19.1765 18.3949 20.3366 18.7468 21.3233 19.4061C22.31 20.0654 23.079 21.0025 23.5331 22.0988C23.9872 23.1952 24.1061 24.4016 23.8746 25.5655C23.643 26.7293 23.0716 27.7984 22.2325 28.6376C21.3934 29.4767 20.3243 30.0481 19.1604 30.2796C17.9965 30.5111 16.7901 30.3923 15.6937 29.9382C14.5974 29.4841 13.6603 28.715 13.001 27.7283C12.3417 26.7416 11.9898 25.5816 11.9898 24.3949C11.9915 22.8041 12.6242 21.279 13.7491 20.1541C14.8739 19.0293 16.3991 18.3966 17.9898 18.3949ZM9.58984 35.9949C9.58775 34.7998 9.92377 33.6284 10.5591 32.6161C11.1944 31.6039 12.1031 30.7919 13.1802 30.2741C14.536 31.3867 16.2356 31.9949 17.9894 31.9949C19.7433 31.9949 21.4429 31.3867 22.7986 30.2741C23.8761 30.7917 24.785 31.6035 25.4205 32.6158C26.056 33.6282 26.3921 34.7997 26.3898 35.9949V40.5757C25.6337 41.0977 24.8302 41.5474 23.9898 41.9189V37.5949C23.9898 37.3827 23.9056 37.1793 23.7555 37.0292C23.6055 36.8792 23.402 36.7949 23.1898 36.7949C22.9777 36.7949 22.7742 36.8792 22.6242 37.0292C22.4741 37.1793 22.3898 37.3827 22.3898 37.5949V42.5325C19.523 43.4176 16.4556 43.4157 13.5898 42.5269V37.5949C13.5898 37.3827 13.5056 37.1793 13.3555 37.0292C13.2055 36.8792 13.002 36.7949 12.7898 36.7949C12.5777 36.7949 12.3742 36.8792 12.2242 37.0292C12.0741 37.1793 11.9898 37.3827 11.9898 37.5949V41.9149C11.1497 41.5421 10.3462 41.0916 9.58984 40.5693V35.9949Z" fill="#EB7124"/>
<path d="M46.3224 8.34353C46.2316 8.05782 46.0618 7.80364 45.8326 7.61039C45.6034 7.41715 45.3242 7.29273 45.0272 7.25153L39.2224 6.41713L36.6272 1.20673C36.4955 0.939878 36.2915 0.715337 36.0385 0.558641C35.7855 0.401945 35.4936 0.31938 35.196 0.320334C34.8983 0.318803 34.6061 0.400836 34.3527 0.557107C34.0993 0.713378 33.8948 0.937618 33.7624 1.20433L31.1576 6.41713L25.3624 7.25073C25.0661 7.29373 24.7878 7.419 24.5592 7.61232C24.3305 7.80563 24.1607 8.05922 24.069 8.34425C23.9774 8.62928 23.9675 8.93432 24.0406 9.22468C24.1137 9.51504 24.2667 9.77906 24.4824 9.98673L28.6672 14.0195L27.6784 19.7251C27.6277 20.0188 27.6599 20.3208 27.7715 20.5971C27.8831 20.8734 28.0697 21.1131 28.3102 21.2891C28.5508 21.465 28.8356 21.5703 29.1328 21.5931C29.4299 21.6159 29.7275 21.5552 29.992 21.4179L35.1976 18.7131L40.4024 21.4187C40.667 21.5563 40.9648 21.6172 41.2622 21.5945C41.5596 21.5718 41.8447 21.4664 42.0853 21.2903C42.326 21.1142 42.5127 20.8743 42.6243 20.5978C42.7358 20.3212 42.7679 20.019 42.7168 19.7251L41.7272 14.0195L45.9128 9.98673C46.1292 9.77939 46.2825 9.51506 46.355 9.22429C46.4274 8.93352 46.4162 8.62817 46.3224 8.34353ZM40.3088 13.1619C40.2147 13.2527 40.1443 13.3651 40.1038 13.4894C40.0632 13.6136 40.0536 13.7459 40.076 13.8747L41.1392 20.0003L35.5656 17.1035C35.4517 17.0444 35.3252 17.0135 35.1968 17.0135C35.0685 17.0135 34.942 17.0444 34.828 17.1035L29.2536 20.0003L30.316 13.8763C30.3383 13.7475 30.3287 13.6151 30.288 13.4909C30.2472 13.3666 30.1767 13.2542 30.0824 13.1635L25.5912 8.83633L31.8008 7.94273C31.9287 7.92438 32.0501 7.87536 32.1549 7.79985C32.2597 7.72434 32.3446 7.6246 32.4024 7.50913L35.1952 1.92033L37.9776 7.50593C38.0353 7.6218 38.1203 7.72193 38.2252 7.79773C38.3302 7.87353 38.4519 7.92274 38.58 7.94113L44.8024 8.83473L40.3088 13.1619Z" fill="#EB7124"/>
<path d="M35.5467 6.5768C35.4527 6.52976 35.3504 6.5017 35.2456 6.49422C35.1408 6.48674 35.0355 6.49998 34.9358 6.53318C34.8361 6.56639 34.7439 6.61892 34.6645 6.68776C34.5851 6.7566 34.5201 6.84041 34.4731 6.93439L33.2691 9.3432L30.6739 9.7168C30.5679 9.72945 30.4656 9.76316 30.3729 9.81595C30.2802 9.86873 30.199 9.93953 30.134 10.0242C30.0691 10.1088 30.0217 10.2056 29.9948 10.3088C29.9678 10.412 29.9617 10.5196 29.9769 10.6252C29.9921 10.7308 30.0283 10.8323 30.0833 10.9237C30.1383 11.0151 30.2111 11.0946 30.2972 11.1574C30.3834 11.2203 30.4813 11.2653 30.5852 11.2898C30.689 11.3143 30.7967 11.3177 30.9019 11.3L33.9115 10.8672C34.0393 10.8488 34.1608 10.7998 34.2656 10.7243C34.3703 10.6488 34.4552 10.5491 34.5131 10.4336L35.9043 7.6504C35.9513 7.55643 35.9794 7.45411 35.9869 7.34929C35.9943 7.24448 35.9811 7.13921 35.9479 7.03951C35.9147 6.93981 35.8622 6.84764 35.7933 6.76824C35.7245 6.68885 35.6407 6.62379 35.5467 6.5768ZM36.0003 22.3976C36.0003 22.1854 35.916 21.9819 35.766 21.8319C35.6159 21.6819 35.4125 21.5976 35.2003 21.5976C34.9881 21.5976 34.7846 21.6819 34.6346 21.8319C34.4846 21.9819 34.4003 22.1854 34.4003 22.3976V38.3976C34.4003 38.6098 34.4846 38.8133 34.6346 38.9633C34.7846 39.1133 34.9881 39.1976 35.2003 39.1976C35.4125 39.1976 35.6159 39.1133 35.766 38.9633C35.916 38.8133 36.0003 38.6098 36.0003 38.3976V22.3976ZM40.0003 25.5976C40.0003 25.3854 39.916 25.1819 39.766 25.0319C39.6159 24.8819 39.4125 24.7976 39.2003 24.7976C38.9881 24.7976 38.7846 24.8819 38.6346 25.0319C38.4846 25.1819 38.4003 25.3854 38.4003 25.5976V41.5976C38.4003 41.8098 38.4846 42.0133 38.6346 42.1633C38.7846 42.3133 38.9881 42.3976 39.2003 42.3976C39.4125 42.3976 39.6159 42.3133 39.766 42.1633C39.916 42.0133 40.0003 41.8098 40.0003 41.5976V25.5976ZM32.0003 25.5976C32.0003 25.3854 31.916 25.1819 31.766 25.0319C31.6159 24.8819 31.4125 24.7976 31.2003 24.7976C30.9881 24.7976 30.7846 24.8819 30.6346 25.0319C30.4846 25.1819 30.4003 25.3854 30.4003 25.5976V41.5976C30.4003 41.8098 30.4846 42.0133 30.6346 42.1633C30.7846 42.3133 30.9881 42.3976 31.2003 42.3976C31.4125 42.3976 31.6159 42.3133 31.766 42.1633C31.916 42.0133 32.0003 41.8098 32.0003 41.5976V25.5976ZM31.2003 43.9976C30.9881 43.9976 30.7846 44.0819 30.6346 44.2319C30.4846 44.3819 30.4003 44.5854 30.4003 44.7976V47.1976C30.4003 47.4098 30.4846 47.6133 30.6346 47.7633C30.7846 47.9133 30.9881 47.9976 31.2003 47.9976C31.4125 47.9976 31.6159 47.9133 31.766 47.7633C31.916 47.6133 32.0003 47.4098 32.0003 47.1976V44.7976C32.0003 44.5854 31.916 44.3819 31.766 44.2319C31.6159 44.0819 31.4125 43.9976 31.2003 43.9976ZM35.2003 40.7976C34.9881 40.7976 34.7846 40.8819 34.6346 41.0319C34.4846 41.1819 34.4003 41.3854 34.4003 41.5976V43.9976C34.4003 44.2098 34.4846 44.4133 34.6346 44.5633C34.7846 44.7133 34.9881 44.7976 35.2003 44.7976C35.4125 44.7976 35.6159 44.7133 35.766 44.5633C35.916 44.4133 36.0003 44.2098 36.0003 43.9976V41.5976C36.0003 41.3854 35.916 41.1819 35.766 41.0319C35.6159 40.8819 35.4125 40.7976 35.2003 40.7976ZM39.2003 43.9976C38.9881 43.9976 38.7846 44.0819 38.6346 44.2319C38.4846 44.3819 38.4003 44.5854 38.4003 44.7976V47.1976C38.4003 47.4098 38.4846 47.6133 38.6346 47.7633C38.7846 47.9133 38.9881 47.9976 39.2003 47.9976C39.4125 47.9976 39.6159 47.9133 39.766 47.7633C39.916 47.6133 40.0003 47.4098 40.0003 47.1976V44.7976C40.0003 44.5854 39.916 44.3819 39.766 44.2319C39.6159 44.0819 39.4125 43.9976 39.2003 43.9976Z" fill="#EB7124"/>
</svg>
