<svg width="48" height="48" viewBox="0 0 48 48" fill="none" xmlns="http://www.w3.org/2000/svg">
<path d="M28.5538 14.3092L27.8923 13.9062L28.7006 12.5909L29.3621 12.991C34.9952 16.4014 38.5 22.4606 38.5 29.1257C38.5 39.549 29.9934 48 19.5015 48C9.00659 48 0.5 39.549 0.5 29.1257C0.5 22.4606 4.00477 16.4014 9.6379 12.991L10.2994 12.5909L11.1077 13.9062L10.4462 14.3092C5.27322 17.4402 2.05833 23.0037 2.05833 29.1266C2.05833 38.6976 9.86746 46.4557 19.5015 46.4557C29.1325 46.4557 36.9446 38.6976 36.9446 29.1266C36.9446 23.0095 33.7268 17.4383 28.5538 14.3092ZM9.8947 33.9286C11.3421 32.162 13.4598 31.0246 15.7681 30.8275C12.2935 28.4966 11.8061 23.5932 14.7778 20.637C17.3867 18.0452 21.6133 18.0452 24.2222 20.637C27.1978 23.5932 26.7036 28.4966 23.2319 30.8275C25.5422 31.0246 27.6579 32.1611 29.1082 33.9286L29.2823 34.145V39.5577H9.71864V34.145L9.8947 33.9286ZM13.5152 33.0086C12.6573 33.4145 11.8966 33.9923 11.2731 34.6959V38.0135H27.7269V34.6959C27.1034 33.9923 26.3427 33.4135 25.4848 33.0086C24.586 32.5814 23.5763 32.3427 22.5092 32.3427H16.4899C15.4237 32.3427 14.414 32.5805 13.5152 33.0086ZM19.5015 20.2398C16.6727 20.2398 14.381 22.5166 14.381 25.3268C14.381 28.1371 16.6727 30.4139 19.5015 30.4139C22.3282 30.4139 24.6219 28.1371 24.6219 25.3268C24.6219 22.5166 22.3282 20.2398 19.5015 20.2398ZM20.2018 1.48436L22.3166 5.95482L28.8981 6.77624L24.0617 11.2825L25.3077 17.7524L19.5005 14.5749L13.6903 17.7524L14.9364 11.2825L10.0999 6.77624L16.6815 5.95482L19.4995 0L20.2018 1.48436ZM21.0958 6.99561L19.5024 3.62102L17.7213 7.38216L13.5794 7.90014L16.626 10.7384L15.8401 14.8175L19.5015 12.8151L23.1609 14.8175L22.3749 10.7384L25.4215 7.89917L21.2796 7.3812L21.0958 6.99561Z" fill="#EB7124"/>
</svg>
