<svg width="174" height="30" viewBox="0 0 174 30" fill="none" xmlns="http://www.w3.org/2000/svg">
<g clip-path="url(#clip0_3065_1403)">
<path d="M174 11.5821L163.102 10.8789L158.988 0.560547L154.875 10.8789L144 11.5821L152.344 18.6836L149.602 29.4414L158.988 23.5L168.375 29.4414L165.633 18.6836L174 11.5821Z" fill="#2920D2"/>
<path d="M165.309 18.3024L165.071 18.5045L165.148 18.8071L167.58 28.3464L159.488 23.2247V3.16508L162.637 11.0641L162.754 11.3575L163.069 11.3779L172.733 12.0014L165.309 18.3024Z" fill="#2920D2" stroke="#2920D2"/>
</g>
<g clip-path="url(#clip1_3065_1403)">
<path d="M30 11.5821L19.1016 10.8789L14.9883 0.560547L10.8749 10.8789L0 11.5821L8.34369 18.6836L5.6015 29.4414L14.9883 23.5L24.375 29.4414L21.6328 18.6836L30 11.5821Z" fill="#2920D2"/>
<path d="M21.6328 18.6836L24.375 29.4414L14.9883 23.5V0.560547L19.1016 10.8789L30 11.5821L21.6328 18.6836Z" fill="#2920D2"/>
</g>
<g clip-path="url(#clip2_3065_1403)">
<path d="M66 11.5821L55.1016 10.8789L50.9883 0.560547L46.8749 10.8789L36 11.5821L44.3437 18.6836L41.6015 29.4414L50.9883 23.5L60.375 29.4414L57.6328 18.6836L66 11.5821Z" fill="#2920D2"/>
<path d="M57.6328 18.6836L60.375 29.4414L50.9883 23.5V0.560547L55.1016 10.8789L66 11.5821L57.6328 18.6836Z" fill="#2920D2"/>
</g>
<g clip-path="url(#clip3_3065_1403)">
<path d="M102 11.5821L91.1016 10.8789L86.9883 0.560547L82.8749 10.8789L72 11.5821L80.3437 18.6836L77.6015 29.4414L86.9883 23.5L96.375 29.4414L93.6328 18.6836L102 11.5821Z" fill="#2920D2"/>
<path d="M93.6328 18.6836L96.375 29.4414L86.9883 23.5V0.560547L91.1016 10.8789L102 11.5821L93.6328 18.6836Z" fill="#2920D2"/>
</g>
<g clip-path="url(#clip4_3065_1403)">
<path d="M138 11.5821L127.102 10.8789L122.988 0.560547L118.875 10.8789L108 11.5821L116.344 18.6836L113.602 29.4414L122.988 23.5L132.375 29.4414L129.633 18.6836L138 11.5821Z" fill="#2920D2"/>
<path d="M129.633 18.6836L132.375 29.4414L122.988 23.5V0.560547L127.102 10.8789L138 11.5821L129.633 18.6836Z" fill="#2920D2"/>
</g>
<defs>
<clipPath id="clip0_3065_1403">
<rect width="30" height="30" fill="white" transform="translate(144)"/>
</clipPath>
<clipPath id="clip1_3065_1403">
<rect width="30" height="30" fill="white"/>
</clipPath>
<clipPath id="clip2_3065_1403">
<rect width="30" height="30" fill="white" transform="translate(36)"/>
</clipPath>
<clipPath id="clip3_3065_1403">
<rect width="30" height="30" fill="white" transform="translate(72)"/>
</clipPath>
<clipPath id="clip4_3065_1403">
<rect width="30" height="30" fill="white" transform="translate(108)"/>
</clipPath>
</defs>
</svg>
