<svg width="48" height="49" viewBox="0 0 48 49" fill="none" xmlns="http://www.w3.org/2000/svg">
<g clip-path="url(#clip0_7192_37255)">
<path d="M6.65244 43.3687H17.4664V47.7924H6.65244V43.3687ZM4.30859 38.945H15.1226V43.3687H4.30859V38.945ZM6.55156 34.5213H17.3655V38.945H6.55156V34.5213ZM4.30859 30.0977H15.1226V34.5213H4.30859V30.0977Z" stroke="#EB7124" stroke-width="1.875" stroke-miterlimit="10" stroke-linecap="round" stroke-linejoin="round"/>
<path d="M24.6056 11.8164H19.1587L24.05 19.7418H33.1897L38.081 11.8164H32.8522M33.3452 29.6311L24.4364 40.2216M43.69 35.5294V37.2919C43.69 43.0923 38.9884 47.7938 33.1881 47.7938H24.0513C21.5566 47.7938 19.2662 46.9248 17.4644 45.4716V43.3698H15.4862C15.3587 43.1898 15.2369 43.006 15.1206 42.8185V38.9466H17.3631V34.5226H15.1206V30.0994H15.0625C15.5006 29.3733 16.0254 28.703 16.6253 28.1035L24.0503 19.7419H33.19L40.6141 28.1035C41.5893 29.0787 42.3629 30.2364 42.8906 31.5105C43.4184 32.7847 43.69 34.1503 43.69 35.5294Z" stroke="#EB7124" stroke-width="1.875" stroke-miterlimit="10" stroke-linecap="round" stroke-linejoin="round"/>
<path d="M25.0278 33.1035C26.1219 33.1035 27.0087 32.2155 27.0087 31.1201C27.0087 30.0247 26.1219 29.1367 25.0278 29.1367C23.9338 29.1367 23.0469 30.0247 23.0469 31.1201C23.0469 32.2155 23.9338 33.1035 25.0278 33.1035Z" stroke="#EB7124" stroke-width="1.875" stroke-miterlimit="10" stroke-linecap="round" stroke-linejoin="round"/>
<path d="M32.5903 40.9433C33.6844 40.9433 34.5713 40.0553 34.5713 38.9599C34.5713 37.8646 33.6844 36.9766 32.5903 36.9766C31.4963 36.9766 30.6094 37.8646 30.6094 38.9599C30.6094 40.0553 31.4963 40.9433 32.5903 40.9433Z" stroke="#EB7124" stroke-width="1.875" stroke-miterlimit="10" stroke-linecap="round" stroke-linejoin="round"/>
<path d="M14.4768 17.0121V1.66797M11.1717 4.97313L14.4514 1.66797L17.7313 4.97313M7.75044 9.42231V24.6439M11.0557 21.3388L7.77584 24.6439L4.49609 21.3388" stroke="#EB7124" stroke-width="1.875" stroke-miterlimit="10" stroke-linecap="round" stroke-linejoin="round"/>
</g>
<defs>
<clipPath id="clip0_7192_37255">
<rect width="48" height="48" fill="white" transform="translate(0 0.730469)"/>
</clipPath>
</defs>
</svg>
