<svg width="47" height="49" viewBox="0 0 47 49" fill="none" xmlns="http://www.w3.org/2000/svg">
<path d="M45.6285 40.5545C46.4652 39.8096 46.9954 38.7251 47 37.518C47.0086 35.265 45.1015 33.4221 42.857 33.4221H42.4124C42.4095 33.4221 42.4083 33.4184 42.4106 33.4167C44.8872 31.5572 46.4935 28.5884 46.4935 25.2496C46.4935 19.6314 41.9457 15.0606 36.3557 15.0606C35.4799 15.0602 34.6077 15.174 33.7612 15.3993C33.7606 15.3995 33.7599 15.3995 33.7594 15.3992C33.7588 15.399 33.7583 15.3986 33.7579 15.3981C33.1883 14.5578 30.5136 11.2093 29.7051 10.4506C29.703 10.4487 29.7043 10.4453 29.7071 10.4453H31.6144C32.128 10.4453 32.5881 10.0799 32.66 9.56945C32.7492 8.93653 32.2622 8.39408 31.6489 8.39408H28.1096C28.1091 8.39409 28.1086 8.39398 28.1082 8.39376C28.1078 8.39355 28.1074 8.39323 28.1071 8.39284C28.1068 8.39245 28.1066 8.39199 28.1065 8.39152C28.1065 8.39104 28.1065 8.39054 28.1066 8.39008L30.0481 2.05794L30.0482 2.05763C30.1674 1.28554 29.842 0.843288 29.072 0.730469H11.388C10.615 0.844416 10.2901 1.28862 10.4134 2.06307V2.06338C10.4155 2.06994 11.0131 3.98008 11.6124 5.89072C11.8948 6.79092 12.1767 7.68865 12.3977 8.39018C12.3983 8.39213 12.3968 8.39408 12.3947 8.39408H8.84546C8.33183 8.39408 7.87174 8.75951 7.79981 9.26997C7.71061 9.90288 8.19767 10.4453 8.81103 10.4453H10.8434C10.8461 10.4453 10.8475 10.4487 10.8454 10.4506C10.0344 11.211 9.26806 12.0479 8.58951 12.9227C2.07005 21.2878 -0.962292 31.0372 0.269118 39.6729C0.801959 44.0324 4.21347 47.2044 8.96695 47.7625C16.4262 49.0547 24.1517 49.0532 31.6103 47.7576C31.6885 47.744 42.8569 47.6912 42.8569 47.6912C45.1014 47.6912 47.0086 45.8483 47 43.5953C46.9954 42.3882 46.4653 41.3036 45.6285 40.5589C45.6282 40.5586 45.6279 40.5582 45.6278 40.5579C45.6276 40.5575 45.6275 40.5571 45.6275 40.5567C45.6275 40.5562 45.6276 40.5558 45.6278 40.5555C45.6279 40.5551 45.6282 40.5547 45.6285 40.5545ZM44.9481 37.6889C44.8538 38.7422 43.9396 39.5311 42.8862 39.5311H29.8253C28.7718 39.5311 27.8576 38.7421 27.7633 37.6888C27.6556 36.4865 28.6002 35.4735 29.7761 35.4735H42.9354C44.1112 35.4734 45.0558 36.4866 44.9481 37.6889ZM44.45 25.2496C44.45 29.7367 40.8189 33.3874 36.3557 33.3874C31.8925 33.3874 28.2614 29.7367 28.2614 25.2496C28.2614 20.7625 31.8925 17.1118 36.3557 17.1118C40.8189 17.1118 44.45 20.7625 44.45 25.2496ZM27.687 2.78573L25.9681 8.39203C25.9679 8.39266 25.9675 8.39321 25.967 8.3936C25.9665 8.39399 25.9658 8.39419 25.9652 8.39418H14.5447C14.544 8.39418 14.5434 8.39398 14.5429 8.39361C14.5424 8.39324 14.542 8.39273 14.5418 8.39213C14.1808 7.25009 13.4353 4.8734 12.7815 2.78573C12.7814 2.78526 12.7814 2.78477 12.7814 2.78429C12.7815 2.78381 12.7817 2.78336 12.782 2.78297C12.7823 2.78258 12.7827 2.78226 12.7831 2.78205C12.7835 2.78183 12.784 2.78172 12.7845 2.78173H27.684C27.6845 2.78172 27.685 2.78183 27.6854 2.78205C27.6859 2.78226 27.6862 2.78258 27.6865 2.78297C27.6868 2.78336 27.687 2.78381 27.6871 2.78429C27.6872 2.78477 27.6871 2.78526 27.687 2.78573ZM9.28686 45.7365C9.26763 45.7331 9.24831 45.7303 9.22892 45.7281C5.42884 45.2911 2.70762 42.8129 2.29616 39.4144C2.29532 39.407 2.29436 39.3997 2.2933 39.3923C1.13648 31.3043 4.01801 22.1172 10.2005 14.185C11.3121 12.7519 12.6763 11.4346 14.0684 10.4461C14.069 10.4456 14.0696 10.4454 14.0703 10.4454H18.7841C18.7847 10.4454 18.7852 10.4456 18.7857 10.4459C18.7862 10.4462 18.7866 10.4466 18.7868 10.4471C18.7871 10.4476 18.7872 10.4481 18.7872 10.4487C18.7872 10.4493 18.787 10.4498 18.7867 10.4503L15.2224 15.5951C14.9292 16.0184 14.9655 16.6063 15.342 16.9569C15.809 17.3915 16.5304 17.2999 16.8805 16.7944L20.6919 11.2929C20.6922 11.2925 20.6926 11.2922 20.693 11.292C20.6934 11.2917 20.6939 11.2916 20.6944 11.2916C20.6949 11.2916 20.6954 11.2917 20.6958 11.292C20.6963 11.2922 20.6966 11.2925 20.6969 11.2929L24.5083 16.7944C25.0038 17.3271 25.5218 17.3763 26.0624 16.942C26.4259 16.5898 26.4561 16.0132 26.1677 15.5969L22.6022 10.4504C22.6019 10.4499 22.6017 10.4494 22.6016 10.4488C22.6016 10.4482 22.6017 10.4477 22.602 10.4472C22.6023 10.4467 22.6026 10.4463 22.6031 10.446C22.6036 10.4457 22.6042 10.4455 22.6047 10.4455H26.4794C26.48 10.4455 26.4806 10.4457 26.4812 10.4462C27.8667 11.4269 31.3297 15.4846 31.7916 16.1498C31.7918 16.1501 31.792 16.1506 31.792 16.151C31.7921 16.1514 31.7921 16.1518 31.792 16.1522C31.7919 16.1527 31.7917 16.153 31.7914 16.1534C31.7911 16.1537 31.7908 16.154 31.7904 16.1542C28.4875 17.8356 26.2179 21.2811 26.2179 25.2498C26.2179 28.5886 27.8242 31.5574 30.3008 33.4169C30.3032 33.4186 30.302 33.4223 30.299 33.4223H29.8545C27.61 33.4223 25.7028 35.2653 25.7115 37.5184C25.716 38.7254 26.2462 39.81 27.0829 40.5547C27.0833 40.5549 27.0835 40.5553 27.0837 40.5557C27.0838 40.556 27.0839 40.5564 27.0839 40.5569C27.0839 40.5573 27.0838 40.5577 27.0837 40.5581C27.0835 40.5585 27.0833 40.5588 27.0829 40.5591C26.2426 41.3071 25.7115 42.3978 25.7115 43.6113C25.7115 44.6619 26.1091 45.621 26.7612 46.345C26.7628 46.3468 26.7617 46.3498 26.7593 46.35C20.9502 46.9308 14.9895 46.7269 9.28686 45.7365ZM42.9354 45.6399H29.8256C28.7722 45.6399 27.8576 44.851 27.7633 43.7978C27.6556 42.5955 28.6002 41.5822 29.7761 41.5822H42.8857C43.9391 41.5822 44.8537 42.3712 44.948 43.4244C45.0558 44.6267 44.1112 45.6399 42.9354 45.6399Z" fill="#EB7124"/>
<path d="M33.4476 28.8518L33.8986 29.9495C34.5958 29.7155 35.7317 29.3849 36.0729 29.3849C36.5676 29.3849 36.936 29.5088 37.3623 29.6517C37.8198 29.806 38.3387 29.9805 39.0247 29.9805C39.7196 29.9805 40.8419 29.432 41.0597 29.3224L40.5313 28.2569C40.1057 28.4713 39.3323 28.7893 39.0247 28.7893C38.53 28.7893 38.1616 28.6654 37.7354 28.5225C37.2778 28.3682 36.7589 28.1937 36.0729 28.1937C35.9377 28.1937 35.7624 28.2158 35.567 28.2527C35.897 27.5684 36.0729 26.7411 36.0729 25.8114H37.844V24.6202H35.8521C35.8273 24.5565 35.8025 24.4915 35.7783 24.4314C35.626 24.0556 35.4825 23.7 35.4825 22.8334C35.4825 22.0181 35.7901 21.0466 37.2536 21.0466C38.5666 21.0466 39.0371 22.373 39.0554 22.426L40.1747 22.049C40.1452 21.9597 39.4256 19.8555 37.2536 19.8555C35.077 19.8555 34.3018 21.3939 34.3018 22.8334C34.3018 23.7214 34.44 24.2331 34.584 24.6202H33.1211V25.8114H34.8922C34.8922 27.2807 34.3656 28.3891 33.4476 28.8518Z" fill="#EB7124"/>
</svg>
