<svg width="48" height="49" viewBox="0 0 48 49" fill="none" xmlns="http://www.w3.org/2000/svg">
<path d="M43.6875 24.2868C43.8615 24.2868 44.0285 24.2177 44.1515 24.0946C44.2746 23.9715 44.3438 23.8046 44.3438 23.6306V21.4763H45.311C46.3285 21.4763 47.1562 20.6485 47.1562 19.631V17.3149C47.1562 16.2973 46.3285 15.4696 45.311 15.4696H42.1523L24.6562 7.88759V6.53009H30.5616C30.7356 6.53009 30.9025 6.46095 31.0256 6.33788C31.1487 6.21481 31.2178 6.04789 31.2178 5.87384V1.73047C31.2178 1.55642 31.1487 1.3895 31.0256 1.26643C30.9025 1.14336 30.7356 1.07422 30.5616 1.07422H23.9999C23.8259 1.07422 23.6589 1.14336 23.5359 1.26643C23.4128 1.3895 23.3437 1.55642 23.3437 1.73047L23.3438 7.88769L5.84766 15.4696H2.68903C1.67147 15.4696 0.84375 16.2973 0.84375 17.3149V19.631C0.84375 20.6486 1.67147 21.4763 2.68903 21.4763H3.65625V23.6306C3.65625 23.8046 3.72539 23.9715 3.84846 24.0946C3.97153 24.2177 4.13845 24.2868 4.3125 24.2868H5.18972V38.5376H4.3125C4.13845 38.5376 3.97153 38.6067 3.84846 38.7298C3.72539 38.8528 3.65625 39.0198 3.65625 39.1938V41.3482H2.87194C1.75359 41.3482 0.84375 42.258 0.84375 43.3764V45.3585C0.84375 46.4769 1.75359 47.3867 2.87194 47.3867H45.1281C46.2464 47.3867 47.1562 46.4769 47.1562 45.3585V43.3764C47.1562 42.258 46.2464 41.3482 45.1281 41.3482H44.3438V39.1938C44.3438 39.0198 44.2746 38.8528 44.1515 38.7298C44.0285 38.6067 43.8615 38.5376 43.6875 38.5376H42.8103V24.2868H43.6875ZM43.0312 22.9743H37.731V21.4763H43.0312V22.9743ZM37.0747 38.5376C36.9007 38.5376 36.7338 38.6067 36.6107 38.7298C36.4876 38.8528 36.4185 39.0198 36.4185 39.1938V41.3482H33.423V39.1938C33.423 39.0198 33.3539 38.8528 33.2308 38.7298C33.1077 38.6067 32.9408 38.5376 32.7668 38.5376H31.8895V24.2868H32.7668C32.9408 24.2868 33.1077 24.2177 33.2308 24.0946C33.3539 23.9715 33.423 23.8046 33.423 23.6306V21.4763H36.4185V23.6306C36.4185 23.8046 36.4876 23.9715 36.6107 24.0946C36.7338 24.2177 36.9007 24.2868 37.0747 24.2868H37.952V38.5376H37.0747ZM10.9253 38.5376H10.048V24.2868H10.9253C11.0993 24.2868 11.2662 24.2177 11.3893 24.0946C11.5124 23.9715 11.5815 23.8046 11.5815 23.6306V21.4763H14.577V23.6306C14.577 23.8046 14.6461 23.9715 14.7692 24.0946C14.8923 24.2177 15.0592 24.2868 15.2333 24.2868H16.1105V38.5376H15.2333C15.0592 38.5376 14.8923 38.6067 14.7692 38.7298C14.6461 38.8528 14.577 39.0198 14.577 39.1938V41.3482H11.5815V39.1938C11.5815 39.0198 11.5124 38.8528 11.3893 38.7298C11.2662 38.6067 11.0993 38.5376 10.9253 38.5376ZM17.4231 38.5376V24.2868H19.6562V38.5376H17.4231ZM15.8895 22.9743V21.4763H21.1898V22.9743H15.8895ZM15.8895 39.8501H21.1898V41.3482H15.8895V39.8501ZM21.846 38.5376H20.9687V24.2868H21.846C22.02 24.2868 22.187 24.2177 22.31 24.0946C22.4331 23.9715 22.5023 23.8046 22.5023 23.6306V21.4763H25.4977V23.6306C25.4977 23.8046 25.5668 23.9715 25.6899 24.0946C25.8129 24.2177 25.9799 24.2868 26.1539 24.2868H27.0311V38.5376H26.1539C25.9799 38.5376 25.8129 38.6067 25.6899 38.7298C25.5668 38.8528 25.4977 39.0198 25.4977 39.1938V41.3482H22.5023V39.1938C22.5023 39.0198 22.4331 38.8528 22.31 38.7298C22.187 38.6067 22.02 38.5376 21.846 38.5376ZM28.3437 38.5376V24.2868H30.5769V38.5376H28.3437ZM26.8103 22.9743V21.4763H32.1105V22.9743H26.8103ZM26.8103 39.8501H32.1105V41.3482H26.8103V39.8501ZM24.6562 2.38672H29.9053V5.21759H24.6562V2.38672ZM24 9.03369L38.8515 15.4696H9.1485L24 9.03369ZM2.15625 19.6309V17.3148C2.1564 17.1736 2.21258 17.0381 2.31246 16.9382C2.41235 16.8384 2.54777 16.7822 2.68903 16.782H45.3111C45.4523 16.7822 45.5877 16.8384 45.6876 16.9382C45.7875 17.0381 45.8437 17.1736 45.8438 17.3148V19.6309C45.8437 19.7722 45.7875 19.9076 45.6876 20.0075C45.5877 20.1074 45.4523 20.1635 45.3111 20.1637H2.68903C2.54777 20.1636 2.41232 20.1074 2.31244 20.0075C2.21255 19.9076 2.15637 19.7722 2.15625 19.6309ZM4.96875 21.4763H10.269V22.9743H4.96875V21.4763ZM6.50222 24.2868H8.73544V38.5376H6.50222V24.2868ZM4.96875 39.8501H10.269V41.3482H4.96875V39.8501ZM45.8438 43.3764V45.3585C45.8438 45.7531 45.5227 46.0742 45.1281 46.0742H2.87194C2.47734 46.0742 2.15625 45.7531 2.15625 45.3585V43.3764C2.15625 42.9818 2.47734 42.6607 2.87194 42.6607H45.1281C45.5227 42.6607 45.8438 42.9817 45.8438 43.3764ZM43.0312 41.3482H37.731V39.8501H43.0312V41.3482ZM41.4978 38.5376H39.2646V24.2868H41.4978V38.5376Z" fill="#EB7124"/>
</svg>
