<svg width="48" height="49" viewBox="0 0 48 49" fill="none" xmlns="http://www.w3.org/2000/svg">
<g clip-path="url(#clip0_7192_37312)">
<path d="M24.0007 3.85784C15.3291 3.85784 8.27431 10.9126 8.27431 19.5841C8.27431 28.2556 15.3291 35.3105 24.0007 35.3105C32.6723 35.3105 39.7271 28.2557 39.7271 19.5842C39.7271 10.9127 32.6723 3.85784 24.0007 3.85784ZM24.0007 33.4355C16.363 33.4355 10.1493 27.2218 10.1493 19.5842C10.1493 11.9466 16.363 5.73284 24.0007 5.73284C31.6384 5.73284 37.8521 11.9465 37.8521 19.5841C37.8521 27.2218 31.6384 33.4355 24.0007 33.4355ZM44.2937 40.6033L39.0728 31.5606C41.6926 28.2703 43.2606 24.1072 43.2606 19.5842C43.2606 8.96422 34.6207 0.324219 24.0007 0.324219C13.3807 0.324219 4.74077 8.96422 4.74077 19.5841C4.74077 24.1071 6.30874 28.2703 8.92859 31.5605L3.70765 40.6032C3.61282 40.7675 3.57003 40.9566 3.58493 41.1457C3.59983 41.3348 3.67173 41.5149 3.79113 41.6622C3.91052 41.8096 4.0718 41.9173 4.25367 41.971C4.43554 42.0248 4.62944 42.0222 4.80977 41.9635L12.5311 39.4499L14.2151 47.3936C14.2544 47.5791 14.3491 47.7483 14.4866 47.8789C14.6241 48.0095 14.798 48.0953 14.9853 48.1251C15.1726 48.1548 15.3645 48.127 15.5357 48.0454C15.7069 47.9637 15.8493 47.8321 15.9441 47.6679L21.1599 38.634C23.0435 38.9139 24.9581 38.9139 26.8417 38.634L32.0574 47.668C32.1522 47.8322 32.2946 47.9638 32.4658 48.0455C32.637 48.1271 32.8289 48.1549 33.0162 48.1252C33.2035 48.0954 33.3774 48.0096 33.5149 47.879C33.6524 47.7484 33.7471 47.5792 33.7864 47.3937L35.4703 39.45L43.1917 41.9636C43.372 42.0223 43.5659 42.025 43.7478 41.9712C43.9297 41.9174 44.091 41.8097 44.2104 41.6624C44.3298 41.515 44.4016 41.3349 44.4165 41.1458C44.4314 40.9567 44.3886 40.7676 44.2937 40.6033ZM15.5424 44.6137L14.1491 38.0414C14.1219 37.9128 14.0678 37.7914 13.9906 37.6851C13.9133 37.5787 13.8146 37.4898 13.7007 37.424C13.5869 37.3583 13.4605 37.3173 13.3298 37.3035C13.199 37.2898 13.0668 37.3037 12.9418 37.3444L6.55352 39.424L10.2379 33.0426C12.6654 35.5245 15.7557 37.3553 19.2204 38.2434L15.5424 44.6137ZM6.61577 19.5841C6.61577 9.99809 14.4146 2.19922 24.0007 2.19922C33.5867 2.19922 41.3856 9.99809 41.3856 19.5841C41.3856 29.1702 33.5867 36.9689 24.0007 36.9689C14.4146 36.9689 6.61577 29.1702 6.61577 19.5841ZM35.0594 37.3445C34.9344 37.3039 34.8023 37.2899 34.6715 37.3037C34.5408 37.3174 34.4144 37.3584 34.3006 37.4242C34.1867 37.4899 34.088 37.5788 34.0107 37.6852C33.9335 37.7915 33.8794 37.9129 33.8521 38.0415L32.4589 44.6138L28.7809 38.2435C32.2455 37.3554 35.3358 35.5246 37.7634 33.0427L41.4477 39.4241L35.0594 37.3445ZM35.3167 16.9542C35.2587 16.7756 35.1484 16.6185 35.0001 16.5034C34.8518 16.3882 34.6723 16.3202 34.4849 16.3082L27.4674 15.8593L24.8719 9.32403C24.8026 9.14952 24.6825 8.99984 24.5271 8.89438C24.3718 8.78892 24.1884 8.73254 24.0006 8.73254C23.8128 8.73254 23.6294 8.78892 23.474 8.89438C23.3187 8.99984 23.1986 9.14952 23.1293 9.32403L20.5338 15.8593L13.5162 16.3082C13.3289 16.3203 13.1495 16.3883 13.0013 16.5035C12.853 16.6187 12.7428 16.7757 12.6848 16.9542C12.6268 17.1327 12.6237 17.3246 12.6759 17.5049C12.7281 17.6852 12.8333 17.8456 12.9777 17.9655L18.3911 22.4534L16.6496 29.2661C16.603 29.448 16.6122 29.6396 16.6759 29.8163C16.7396 29.9929 16.8549 30.1463 17.0068 30.2566C17.1587 30.367 17.3403 30.4292 17.5279 30.4352C17.7156 30.4412 17.9007 30.3907 18.0594 30.2903L24.0007 26.5289L29.9418 30.2904C30.0918 30.3854 30.2657 30.4358 30.4433 30.4358C30.5861 30.4358 30.7271 30.4031 30.8554 30.3402C30.9838 30.2774 31.096 30.1861 31.1837 30.0732C31.2713 29.9604 31.332 29.829 31.3611 29.6891C31.3902 29.5493 31.387 29.4046 31.3516 29.2662L29.61 22.4535L35.0234 17.9656C35.1679 17.8458 35.2732 17.6853 35.3254 17.5049C35.3777 17.3246 35.3747 17.1327 35.3167 16.9542ZM27.9564 21.3888C27.8197 21.5021 27.718 21.652 27.6631 21.8208C27.6082 21.9897 27.6025 22.1707 27.6464 22.3427L28.9504 27.4434L24.5022 24.6271C24.3522 24.5321 24.1783 24.4817 24.0008 24.4817C23.8232 24.4817 23.6493 24.5321 23.4993 24.6271L19.0512 27.4434L20.3551 22.3427C20.3991 22.1707 20.3933 21.9897 20.3384 21.8208C20.2836 21.652 20.1819 21.5021 20.0452 21.3888L15.9921 18.0286L21.2462 17.6924C21.4234 17.6811 21.5937 17.6197 21.7374 17.5153C21.881 17.411 21.9921 17.268 22.0576 17.1029L24.0007 12.2099L25.9439 17.1029C26.0095 17.268 26.1205 17.411 26.2642 17.5153C26.4078 17.6197 26.5781 17.6811 26.7553 17.6924L32.0095 18.0286L27.9564 21.3888Z" fill="#EB7124"/>
</g>
<defs>
<clipPath id="clip0_7192_37312">
<rect width="48" height="48" fill="white" transform="translate(0 0.230469)"/>
</clipPath>
</defs>
</svg>
