<svg width="32" height="25" viewBox="0 0 32 25" fill="none" xmlns="http://www.w3.org/2000/svg">
<path d="M30 0.5H1.2C0.88174 0.5 0.576515 0.626428 0.351472 0.851472C0.126428 1.07652 0 1.38174 0 1.7V22.1C0 22.7365 0.252856 23.347 0.702944 23.7971C1.15303 24.2471 1.76348 24.5 2.4 24.5H28.8C29.4365 24.5 30.047 24.2471 30.4971 23.7971C30.9471 23.347 31.2 22.7365 31.2 22.1V1.7C31.2 1.38174 31.0736 1.07652 30.8485 0.851472C30.6235 0.626428 30.3183 0.5 30 0.5ZM15.6 13.2725L4.2855 2.9H26.9145L15.6 13.2725ZM11.2065 12.5L2.4 20.5715V4.4285L11.2065 12.5ZM12.9825 14.1275L14.7825 15.785C15.0039 15.9882 15.2935 16.101 15.594 16.101C15.8945 16.101 16.1841 15.9882 16.4055 15.785L18.2055 14.1275L26.9055 22.1H4.2855L12.9825 14.1275ZM19.9935 12.5L28.8 4.427V20.573L19.9935 12.5Z" fill="#2920D2"/>
</svg>
