<svg width="30" height="31" viewBox="0 0 30 31" fill="none" xmlns="http://www.w3.org/2000/svg">
<path d="M28.5558 20.6689L21.4892 17.5024L21.4697 17.4934C21.1029 17.3365 20.7027 17.2735 20.3054 17.3102C19.908 17.3468 19.5261 17.482 19.1942 17.7034C19.1551 17.7292 19.1176 17.7572 19.0817 17.7874L15.4307 20.8999C13.1176 19.7764 10.7296 17.4064 9.60611 15.1233L12.7231 11.4168C12.7531 11.3793 12.7816 11.3418 12.8086 11.3013C13.0253 10.9703 13.1567 10.5908 13.1913 10.1966C13.2258 9.80252 13.1624 9.40597 13.0066 9.04228V9.02428L9.83111 1.94571C9.62522 1.4706 9.27119 1.07482 8.82188 0.817457C8.37257 0.56009 7.85207 0.454937 7.33808 0.517697C5.30552 0.785159 3.43982 1.78336 2.08943 3.32587C0.739051 4.86837 -0.00366143 6.84969 1.35731e-05 8.89978C1.35731e-05 20.8099 9.69011 30.5 21.6002 30.5C23.6503 30.5037 25.6316 29.7609 27.1741 28.4106C28.7166 27.0602 29.7148 25.1945 29.9823 23.1619C30.0452 22.6481 29.9402 22.1277 29.6832 21.6784C29.4261 21.2292 29.0306 20.875 28.5558 20.6689ZM21.6002 28.1C16.5097 28.0944 11.6293 26.0697 8.02978 22.4702C4.43025 18.8707 2.4056 13.9903 2.40004 8.89978C2.39439 7.435 2.92212 6.01824 3.88466 4.9141C4.84719 3.80995 6.17873 3.09392 7.63059 2.89972C7.63 2.9057 7.63 2.91173 7.63059 2.91772L10.7806 9.96779L7.68009 13.6788C7.64862 13.715 7.62003 13.7537 7.59459 13.7943C7.36886 14.1407 7.23644 14.5395 7.21016 14.9521C7.18388 15.3647 7.26463 15.7771 7.44459 16.1493C8.8036 18.9289 11.6041 21.7084 14.4137 23.0659C14.7886 23.2442 15.2034 23.3221 15.6175 23.2922C16.0316 23.2622 16.4308 23.1253 16.7762 22.8949C16.8147 22.869 16.8517 22.8409 16.8872 22.8109L20.5337 19.6999L27.5838 22.8574C27.5838 22.8574 27.5958 22.8574 27.6003 22.8574C27.4084 24.3113 26.6935 25.6455 25.5891 26.6105C24.4848 27.5754 23.0667 28.1049 21.6002 28.1Z" fill="#2920D2"/>
</svg>
