<svg width="48" height="48" viewBox="0 0 48 48" fill="none" xmlns="http://www.w3.org/2000/svg">
<g clip-path="url(#clip0_7418_37183)">
<mask id="path-1-outside-1_7418_37183" maskUnits="userSpaceOnUse" x="-0.984375" y="-0.386719" width="50" height="48" fill="black">
<rect fill="white" x="-0.984375" y="-0.386719" width="50" height="48"/>
<path d="M42.2087 17.06C42.2087 17.2341 42.1395 17.401 42.0165 17.5241C41.8934 17.6471 41.7265 17.7163 41.5524 17.7163H35.2706C35.0966 17.7163 34.9296 17.6471 34.8066 17.5241C34.6835 17.401 34.6144 17.2341 34.6144 17.06C34.6144 16.886 34.6835 16.7191 34.8066 16.596C34.9296 16.4729 35.0966 16.4038 35.2706 16.4038H41.5519C41.6381 16.4037 41.7235 16.4206 41.8032 16.4536C41.8829 16.4865 41.9553 16.5348 42.0163 16.5958C42.0773 16.6567 42.1256 16.7291 42.1587 16.8088C42.1917 16.8884 42.2087 16.9738 42.2087 17.06ZM41.5524 13.31H29.3893C29.2152 13.31 29.0483 13.3792 28.9253 13.5022C28.8022 13.6253 28.733 13.7922 28.733 13.9663C28.733 14.1403 28.8022 14.3072 28.9253 14.4303C29.0483 14.5534 29.2152 14.6225 29.3893 14.6225H41.5519C41.7259 14.6225 41.8928 14.5534 42.0159 14.4303C42.139 14.3072 42.2081 14.1403 42.2081 13.9663C42.2081 13.7922 42.139 13.6253 42.0159 13.5022C41.8928 13.3792 41.7265 13.31 41.5524 13.31ZM41.5524 19.4965H39.2269C39.0528 19.4965 38.8859 19.5656 38.7628 19.6887C38.6398 19.8118 38.5706 19.9787 38.5706 20.1528C38.5706 20.3268 38.6398 20.4937 38.7628 20.6168C38.8859 20.7399 39.0528 20.809 39.2269 20.809H41.5519C41.7259 20.809 41.8928 20.7399 42.0159 20.6168C42.139 20.4937 42.2081 20.3268 42.2081 20.1528C42.2081 19.9787 42.139 19.8118 42.0159 19.6887C41.8928 19.5656 41.7265 19.4965 41.5524 19.4965ZM41.5524 22.5903H39.5486C39.3746 22.5903 39.2076 22.6594 39.0846 22.7825C38.9615 22.9055 38.8924 23.0725 38.8924 23.2465C38.8924 23.4205 38.9615 23.5875 39.0846 23.7105C39.2076 23.8336 39.3746 23.9028 39.5486 23.9028H41.5519C41.7259 23.9028 41.8928 23.8336 42.0159 23.7105C42.139 23.5875 42.2081 23.4205 42.2081 23.2465C42.2081 23.0725 42.139 22.9055 42.0159 22.7825C41.8928 22.6594 41.7265 22.5903 41.5524 22.5903ZM37.4785 10.8736C37.4785 10.6995 37.4094 10.5326 37.2863 10.4095C37.1632 10.2865 36.9963 10.2173 36.8223 10.2173H24.8956C24.7215 10.2173 24.5546 10.2865 24.4315 10.4095C24.3085 10.5326 24.2393 10.6995 24.2393 10.8736C24.2393 11.0476 24.3085 11.2145 24.4315 11.3376C24.5546 11.4607 24.7215 11.5298 24.8956 11.5298H36.8221C36.9083 11.5298 36.9936 11.5129 37.0733 11.4799C37.1529 11.4469 37.2253 11.3986 37.2862 11.3377C37.3472 11.2767 37.3955 11.2044 37.4285 11.1247C37.4615 11.0451 37.4785 10.9598 37.4785 10.8736ZM41.5519 25.6833H38.3709C38.1969 25.6833 38.03 25.7525 37.9069 25.8756C37.7838 25.9986 37.7147 26.1655 37.7147 26.3396C37.7147 26.5136 37.7838 26.6806 37.9069 26.8036C38.03 26.9267 38.1969 26.9958 38.3709 26.9958H41.5519C41.7259 26.9958 41.8928 26.9267 42.0159 26.8036C42.139 26.6806 42.2081 26.5136 42.2081 26.3396C42.2081 26.1655 42.139 25.9986 42.0159 25.8756C41.8928 25.7525 41.7259 25.6833 41.5519 25.6833ZM36.8221 8.43944C36.9961 8.43944 37.163 8.3703 37.2861 8.24723C37.4092 8.12416 37.4783 7.95724 37.4783 7.78319C37.4783 7.60914 37.4092 7.44222 37.2861 7.31915C37.163 7.19608 36.9961 7.12694 36.8221 7.12694H19.2273C19.0532 7.12694 18.8863 7.19608 18.7632 7.31915C18.6402 7.44222 18.571 7.60914 18.571 7.78319C18.571 7.95724 18.6402 8.12416 18.7632 8.24723C18.8863 8.3703 19.0532 8.43944 19.2273 8.43944H36.8221ZM19.2273 5.34625H36.8221C36.9961 5.34625 37.163 5.27711 37.2861 5.15404C37.4092 5.03097 37.4783 4.86405 37.4783 4.69C37.4783 4.51595 37.4092 4.34903 37.2861 4.22596C37.163 4.10289 36.9961 4.03375 36.8221 4.03375H19.2273C19.0532 4.03375 18.8863 4.10289 18.7632 4.22596C18.6402 4.34903 18.571 4.51595 18.571 4.69C18.571 4.86405 18.6402 5.03097 18.7632 5.15404C18.8863 5.27711 19.0532 5.34625 19.2273 5.34625ZM42.2202 32.6361L33.2513 41.608C33.1904 41.6689 33.142 41.7413 33.1091 41.8209C33.0761 41.9005 33.0591 41.9859 33.0591 42.0721C33.0591 42.1582 33.0761 42.2436 33.1091 42.3232C33.142 42.4028 33.1904 42.4752 33.2513 42.5361C33.3123 42.5971 33.3846 42.6454 33.4642 42.6784C33.5439 42.7114 33.6292 42.7283 33.7154 42.7283C33.8016 42.7283 33.8869 42.7114 33.9665 42.6784C34.0462 42.6454 34.1185 42.5971 34.1795 42.5361L43.1483 33.5643C43.2093 33.5033 43.2576 33.431 43.2906 33.3513C43.3236 33.2717 43.3405 33.1864 43.3405 33.1002C43.3405 33.014 43.3236 32.9287 43.2906 32.849C43.2576 32.7694 43.2093 32.6971 43.1483 32.6361C43.0874 32.5752 43.015 32.5268 42.9354 32.4939C42.8558 32.4609 42.7704 32.4439 42.6843 32.4439C42.5981 32.4439 42.5127 32.4609 42.4331 32.4939C42.3535 32.5268 42.2811 32.5752 42.2202 32.6361ZM42.5255 39.034C42.8104 39.3185 43.0045 39.681 43.0834 40.0758C43.1622 40.4706 43.1222 40.88 42.9684 41.252C42.8147 41.6241 42.554 41.9422 42.2194 42.1661C41.8848 42.3901 41.4914 42.5098 41.0888 42.5101C40.6862 42.5104 40.2925 42.3913 39.9576 42.1679C39.6227 41.9445 39.3615 41.6268 39.2072 41.255C39.0528 40.8831 39.0122 40.4739 39.0904 40.0789C39.1686 39.684 39.3622 39.3212 39.6467 39.0363L39.6489 39.034C40.0316 38.6549 40.5485 38.4423 41.0872 38.4423C41.6259 38.4423 42.1427 38.6549 42.5255 39.034ZM41.5973 39.9621C41.496 39.8612 41.3671 39.7926 41.2268 39.765C41.0865 39.7373 40.9412 39.7519 40.8092 39.8069C40.6772 39.8619 40.5645 39.9547 40.4853 40.0738C40.4061 40.1928 40.364 40.3327 40.3643 40.4757C40.3646 40.6186 40.4073 40.7583 40.487 40.877C40.5667 40.9957 40.6798 41.0881 40.812 41.1426C40.9443 41.197 41.0896 41.211 41.2298 41.1827C41.37 41.1545 41.4986 41.0854 41.5995 40.984C41.7336 40.8476 41.8085 40.6639 41.8081 40.4727C41.8077 40.2815 41.732 40.0979 41.5973 39.9621ZM33.8723 36.1354C33.5885 35.8507 33.3953 35.4883 33.3172 35.0939C33.2391 34.6996 33.2795 34.2909 33.4335 33.9195C33.5874 33.5481 33.8479 33.2306 34.1821 33.0071C34.5163 32.7836 34.9093 32.6641 35.3113 32.6637C35.6461 32.6634 35.9758 32.7458 36.2712 32.9035C36.5666 33.0612 36.8185 33.2894 37.0045 33.5677C37.1906 33.8461 37.3051 34.166 37.3379 34.4993C37.3707 34.8325 37.3208 35.1686 37.1926 35.4779C37.0644 35.7872 36.8618 36.0601 36.6029 36.2724C36.3439 36.4846 36.0366 36.6297 35.7082 36.6948C35.3797 36.7598 35.0403 36.7428 34.72 36.6453C34.3997 36.5478 34.1088 36.3725 33.8723 36.1354ZM34.5904 34.6963C34.5896 34.8637 34.6469 35.0262 34.7526 35.1561C34.8583 35.286 35.0057 35.3752 35.1698 35.4085C35.3339 35.4418 35.5045 35.4171 35.6524 35.3387C35.8003 35.2602 35.9165 35.1329 35.981 34.9784C36.0456 34.8239 36.0545 34.6518 36.0063 34.4915C35.9581 34.3311 35.8558 34.1924 35.7168 34.0991C35.5778 34.0058 35.4107 33.9636 35.244 33.9797C35.0774 33.9958 34.9214 34.0693 34.8029 34.1875L34.8007 34.1898C34.7338 34.256 34.6807 34.335 34.6445 34.4219C34.6083 34.5089 34.5901 34.6021 34.5904 34.6963ZM48.0019 37.5856C48.0028 39.6803 47.3325 41.7201 46.0892 43.406C44.8459 45.0918 43.0951 46.3348 41.0936 46.9528C39.0921 47.5707 36.9453 47.531 34.9681 46.8395C32.9908 46.148 31.2872 44.8411 30.107 43.1104H6.88095C6.3582 43.1098 5.85704 42.9019 5.4874 42.5322C5.11776 42.1626 4.90982 41.6614 4.9092 41.1387V25.3995L4.77223 25.4785C4.04175 25.8947 3.17623 26.0048 2.36479 25.7849C1.55335 25.5649 0.861955 25.0327 0.441684 24.3046C0.0214124 23.5764 -0.0935718 22.7115 0.121855 21.8989C0.337283 21.0862 0.865607 20.3918 1.59139 19.9675L15.9351 11.6872V1.87834C15.9355 1.54302 16.0688 1.22154 16.3059 0.984386C16.543 0.747235 16.8644 0.613777 17.1997 0.613281H43.5799C43.9152 0.613678 44.2368 0.747092 44.4739 0.984254C44.7111 1.22142 44.8445 1.54296 44.8448 1.87834V30.3886C45.8404 31.3044 46.6351 32.417 47.1785 33.6558C47.722 34.8946 48.0023 36.2328 48.0019 37.5856ZM17.2476 10.9293L18.8858 9.98359C18.9856 9.92605 19.0988 9.89576 19.214 9.89576C19.3291 9.89576 19.4423 9.92605 19.5421 9.98359L36.8362 19.9675C37.5662 20.3898 38.0986 21.0846 38.3166 21.8992C38.5345 22.7139 38.4201 23.5817 37.9984 24.3121C37.5768 25.0424 36.8825 25.5755 36.068 25.7941C35.2536 26.0128 34.3856 25.8991 33.6549 25.4781L33.5187 25.3996V28.9766C35.0679 28.1331 36.8163 27.7241 38.5789 27.7927C40.3415 27.8614 42.0528 28.4052 43.5317 29.3667V1.92606H17.2476V10.9293ZM18.8859 15.8168C18.9857 15.7591 19.0988 15.7288 19.214 15.7288C19.3293 15.7288 19.4424 15.7591 19.5422 15.8168L34.3121 24.3417C34.5247 24.4657 34.7598 24.5464 35.0037 24.5793C35.2476 24.6122 35.4956 24.5966 35.7335 24.5333C35.9714 24.4701 36.1944 24.3605 36.3898 24.2108C36.5852 24.0612 36.7491 23.8744 36.8721 23.6612C36.9951 23.448 37.0748 23.2126 37.1065 22.9685C37.1383 22.7245 37.1216 22.4765 37.0573 22.2389C36.993 22.0014 36.8824 21.7788 36.7318 21.5841C36.5813 21.3894 36.3937 21.2263 36.18 21.1043L19.214 11.3101L2.24783 21.1043C1.81852 21.352 1.50521 21.7601 1.37681 22.2389C1.24842 22.7176 1.31545 23.2277 1.56317 23.657C1.81089 24.0863 2.21901 24.3996 2.69773 24.528C3.17646 24.6564 3.68659 24.5894 4.11589 24.3417L18.8859 15.8168ZM23.131 30.6023H15.297V41.7979H23.131V30.6023ZM29.3498 41.7979C28.3875 39.7779 28.146 37.4892 28.6657 35.3128C29.1854 33.1365 30.4349 31.2037 32.2061 29.8365V24.6418L19.214 17.143L6.22208 24.6418V41.1387C6.22225 41.3134 6.29172 41.4809 6.41524 41.6044C6.53877 41.728 6.70625 41.7975 6.88095 41.7977H13.9842V29.9458C13.9842 29.7717 14.0533 29.6048 14.1764 29.4817C14.2995 29.3587 14.4664 29.2895 14.6405 29.2895H23.7873C23.9613 29.2895 24.1282 29.3587 24.2513 29.4817C24.3744 29.6048 24.4435 29.7717 24.4435 29.9458V41.7978L29.3498 41.7979ZM46.6894 37.5856C46.6891 35.9067 46.191 34.2656 45.2581 32.8697C44.3252 31.4739 42.9994 30.386 41.4483 29.7437C39.8971 29.1013 38.1903 28.9333 36.5437 29.2609C34.8971 29.5885 33.3846 30.397 32.1975 31.5841C31.0103 32.7713 30.2018 34.2838 29.8742 35.9304C29.5466 37.577 29.7146 39.2838 30.357 40.8349C30.9994 42.3861 32.0872 43.7119 33.4831 44.6448C34.8789 45.5777 36.52 46.0758 38.1989 46.076C40.45 46.0739 42.6084 45.1787 44.2002 43.5868C45.792 41.995 46.6872 39.8367 46.6894 37.5856Z"/>
</mask>
<path d="M42.2087 17.06C42.2087 17.2341 42.1395 17.401 42.0165 17.5241C41.8934 17.6471 41.7265 17.7163 41.5524 17.7163H35.2706C35.0966 17.7163 34.9296 17.6471 34.8066 17.5241C34.6835 17.401 34.6144 17.2341 34.6144 17.06C34.6144 16.886 34.6835 16.7191 34.8066 16.596C34.9296 16.4729 35.0966 16.4038 35.2706 16.4038H41.5519C41.6381 16.4037 41.7235 16.4206 41.8032 16.4536C41.8829 16.4865 41.9553 16.5348 42.0163 16.5958C42.0773 16.6567 42.1256 16.7291 42.1587 16.8088C42.1917 16.8884 42.2087 16.9738 42.2087 17.06ZM41.5524 13.31H29.3893C29.2152 13.31 29.0483 13.3792 28.9253 13.5022C28.8022 13.6253 28.733 13.7922 28.733 13.9663C28.733 14.1403 28.8022 14.3072 28.9253 14.4303C29.0483 14.5534 29.2152 14.6225 29.3893 14.6225H41.5519C41.7259 14.6225 41.8928 14.5534 42.0159 14.4303C42.139 14.3072 42.2081 14.1403 42.2081 13.9663C42.2081 13.7922 42.139 13.6253 42.0159 13.5022C41.8928 13.3792 41.7265 13.31 41.5524 13.31ZM41.5524 19.4965H39.2269C39.0528 19.4965 38.8859 19.5656 38.7628 19.6887C38.6398 19.8118 38.5706 19.9787 38.5706 20.1528C38.5706 20.3268 38.6398 20.4937 38.7628 20.6168C38.8859 20.7399 39.0528 20.809 39.2269 20.809H41.5519C41.7259 20.809 41.8928 20.7399 42.0159 20.6168C42.139 20.4937 42.2081 20.3268 42.2081 20.1528C42.2081 19.9787 42.139 19.8118 42.0159 19.6887C41.8928 19.5656 41.7265 19.4965 41.5524 19.4965ZM41.5524 22.5903H39.5486C39.3746 22.5903 39.2076 22.6594 39.0846 22.7825C38.9615 22.9055 38.8924 23.0725 38.8924 23.2465C38.8924 23.4205 38.9615 23.5875 39.0846 23.7105C39.2076 23.8336 39.3746 23.9028 39.5486 23.9028H41.5519C41.7259 23.9028 41.8928 23.8336 42.0159 23.7105C42.139 23.5875 42.2081 23.4205 42.2081 23.2465C42.2081 23.0725 42.139 22.9055 42.0159 22.7825C41.8928 22.6594 41.7265 22.5903 41.5524 22.5903ZM37.4785 10.8736C37.4785 10.6995 37.4094 10.5326 37.2863 10.4095C37.1632 10.2865 36.9963 10.2173 36.8223 10.2173H24.8956C24.7215 10.2173 24.5546 10.2865 24.4315 10.4095C24.3085 10.5326 24.2393 10.6995 24.2393 10.8736C24.2393 11.0476 24.3085 11.2145 24.4315 11.3376C24.5546 11.4607 24.7215 11.5298 24.8956 11.5298H36.8221C36.9083 11.5298 36.9936 11.5129 37.0733 11.4799C37.1529 11.4469 37.2253 11.3986 37.2862 11.3377C37.3472 11.2767 37.3955 11.2044 37.4285 11.1247C37.4615 11.0451 37.4785 10.9598 37.4785 10.8736ZM41.5519 25.6833H38.3709C38.1969 25.6833 38.03 25.7525 37.9069 25.8756C37.7838 25.9986 37.7147 26.1655 37.7147 26.3396C37.7147 26.5136 37.7838 26.6806 37.9069 26.8036C38.03 26.9267 38.1969 26.9958 38.3709 26.9958H41.5519C41.7259 26.9958 41.8928 26.9267 42.0159 26.8036C42.139 26.6806 42.2081 26.5136 42.2081 26.3396C42.2081 26.1655 42.139 25.9986 42.0159 25.8756C41.8928 25.7525 41.7259 25.6833 41.5519 25.6833ZM36.8221 8.43944C36.9961 8.43944 37.163 8.3703 37.2861 8.24723C37.4092 8.12416 37.4783 7.95724 37.4783 7.78319C37.4783 7.60914 37.4092 7.44222 37.2861 7.31915C37.163 7.19608 36.9961 7.12694 36.8221 7.12694H19.2273C19.0532 7.12694 18.8863 7.19608 18.7632 7.31915C18.6402 7.44222 18.571 7.60914 18.571 7.78319C18.571 7.95724 18.6402 8.12416 18.7632 8.24723C18.8863 8.3703 19.0532 8.43944 19.2273 8.43944H36.8221ZM19.2273 5.34625H36.8221C36.9961 5.34625 37.163 5.27711 37.2861 5.15404C37.4092 5.03097 37.4783 4.86405 37.4783 4.69C37.4783 4.51595 37.4092 4.34903 37.2861 4.22596C37.163 4.10289 36.9961 4.03375 36.8221 4.03375H19.2273C19.0532 4.03375 18.8863 4.10289 18.7632 4.22596C18.6402 4.34903 18.571 4.51595 18.571 4.69C18.571 4.86405 18.6402 5.03097 18.7632 5.15404C18.8863 5.27711 19.0532 5.34625 19.2273 5.34625ZM42.2202 32.6361L33.2513 41.608C33.1904 41.6689 33.142 41.7413 33.1091 41.8209C33.0761 41.9005 33.0591 41.9859 33.0591 42.0721C33.0591 42.1582 33.0761 42.2436 33.1091 42.3232C33.142 42.4028 33.1904 42.4752 33.2513 42.5361C33.3123 42.5971 33.3846 42.6454 33.4642 42.6784C33.5439 42.7114 33.6292 42.7283 33.7154 42.7283C33.8016 42.7283 33.8869 42.7114 33.9665 42.6784C34.0462 42.6454 34.1185 42.5971 34.1795 42.5361L43.1483 33.5643C43.2093 33.5033 43.2576 33.431 43.2906 33.3513C43.3236 33.2717 43.3405 33.1864 43.3405 33.1002C43.3405 33.014 43.3236 32.9287 43.2906 32.849C43.2576 32.7694 43.2093 32.6971 43.1483 32.6361C43.0874 32.5752 43.015 32.5268 42.9354 32.4939C42.8558 32.4609 42.7704 32.4439 42.6843 32.4439C42.5981 32.4439 42.5127 32.4609 42.4331 32.4939C42.3535 32.5268 42.2811 32.5752 42.2202 32.6361ZM42.5255 39.034C42.8104 39.3185 43.0045 39.681 43.0834 40.0758C43.1622 40.4706 43.1222 40.88 42.9684 41.252C42.8147 41.6241 42.554 41.9422 42.2194 42.1661C41.8848 42.3901 41.4914 42.5098 41.0888 42.5101C40.6862 42.5104 40.2925 42.3913 39.9576 42.1679C39.6227 41.9445 39.3615 41.6268 39.2072 41.255C39.0528 40.8831 39.0122 40.4739 39.0904 40.0789C39.1686 39.684 39.3622 39.3212 39.6467 39.0363L39.6489 39.034C40.0316 38.6549 40.5485 38.4423 41.0872 38.4423C41.6259 38.4423 42.1427 38.6549 42.5255 39.034ZM41.5973 39.9621C41.496 39.8612 41.3671 39.7926 41.2268 39.765C41.0865 39.7373 40.9412 39.7519 40.8092 39.8069C40.6772 39.8619 40.5645 39.9547 40.4853 40.0738C40.4061 40.1928 40.364 40.3327 40.3643 40.4757C40.3646 40.6186 40.4073 40.7583 40.487 40.877C40.5667 40.9957 40.6798 41.0881 40.812 41.1426C40.9443 41.197 41.0896 41.211 41.2298 41.1827C41.37 41.1545 41.4986 41.0854 41.5995 40.984C41.7336 40.8476 41.8085 40.6639 41.8081 40.4727C41.8077 40.2815 41.732 40.0979 41.5973 39.9621ZM33.8723 36.1354C33.5885 35.8507 33.3953 35.4883 33.3172 35.0939C33.2391 34.6996 33.2795 34.2909 33.4335 33.9195C33.5874 33.5481 33.8479 33.2306 34.1821 33.0071C34.5163 32.7836 34.9093 32.6641 35.3113 32.6637C35.6461 32.6634 35.9758 32.7458 36.2712 32.9035C36.5666 33.0612 36.8185 33.2894 37.0045 33.5677C37.1906 33.8461 37.3051 34.166 37.3379 34.4993C37.3707 34.8325 37.3208 35.1686 37.1926 35.4779C37.0644 35.7872 36.8618 36.0601 36.6029 36.2724C36.3439 36.4846 36.0366 36.6297 35.7082 36.6948C35.3797 36.7598 35.0403 36.7428 34.72 36.6453C34.3997 36.5478 34.1088 36.3725 33.8723 36.1354ZM34.5904 34.6963C34.5896 34.8637 34.6469 35.0262 34.7526 35.1561C34.8583 35.286 35.0057 35.3752 35.1698 35.4085C35.3339 35.4418 35.5045 35.4171 35.6524 35.3387C35.8003 35.2602 35.9165 35.1329 35.981 34.9784C36.0456 34.8239 36.0545 34.6518 36.0063 34.4915C35.9581 34.3311 35.8558 34.1924 35.7168 34.0991C35.5778 34.0058 35.4107 33.9636 35.244 33.9797C35.0774 33.9958 34.9214 34.0693 34.8029 34.1875L34.8007 34.1898C34.7338 34.256 34.6807 34.335 34.6445 34.4219C34.6083 34.5089 34.5901 34.6021 34.5904 34.6963ZM48.0019 37.5856C48.0028 39.6803 47.3325 41.7201 46.0892 43.406C44.8459 45.0918 43.0951 46.3348 41.0936 46.9528C39.0921 47.5707 36.9453 47.531 34.9681 46.8395C32.9908 46.148 31.2872 44.8411 30.107 43.1104H6.88095C6.3582 43.1098 5.85704 42.9019 5.4874 42.5322C5.11776 42.1626 4.90982 41.6614 4.9092 41.1387V25.3995L4.77223 25.4785C4.04175 25.8947 3.17623 26.0048 2.36479 25.7849C1.55335 25.5649 0.861955 25.0327 0.441684 24.3046C0.0214124 23.5764 -0.0935718 22.7115 0.121855 21.8989C0.337283 21.0862 0.865607 20.3918 1.59139 19.9675L15.9351 11.6872V1.87834C15.9355 1.54302 16.0688 1.22154 16.3059 0.984386C16.543 0.747235 16.8644 0.613777 17.1997 0.613281H43.5799C43.9152 0.613678 44.2368 0.747092 44.4739 0.984254C44.7111 1.22142 44.8445 1.54296 44.8448 1.87834V30.3886C45.8404 31.3044 46.6351 32.417 47.1785 33.6558C47.722 34.8946 48.0023 36.2328 48.0019 37.5856ZM17.2476 10.9293L18.8858 9.98359C18.9856 9.92605 19.0988 9.89576 19.214 9.89576C19.3291 9.89576 19.4423 9.92605 19.5421 9.98359L36.8362 19.9675C37.5662 20.3898 38.0986 21.0846 38.3166 21.8992C38.5345 22.7139 38.4201 23.5817 37.9984 24.3121C37.5768 25.0424 36.8825 25.5755 36.068 25.7941C35.2536 26.0128 34.3856 25.8991 33.6549 25.4781L33.5187 25.3996V28.9766C35.0679 28.1331 36.8163 27.7241 38.5789 27.7927C40.3415 27.8614 42.0528 28.4052 43.5317 29.3667V1.92606H17.2476V10.9293ZM18.8859 15.8168C18.9857 15.7591 19.0988 15.7288 19.214 15.7288C19.3293 15.7288 19.4424 15.7591 19.5422 15.8168L34.3121 24.3417C34.5247 24.4657 34.7598 24.5464 35.0037 24.5793C35.2476 24.6122 35.4956 24.5966 35.7335 24.5333C35.9714 24.4701 36.1944 24.3605 36.3898 24.2108C36.5852 24.0612 36.7491 23.8744 36.8721 23.6612C36.9951 23.448 37.0748 23.2126 37.1065 22.9685C37.1383 22.7245 37.1216 22.4765 37.0573 22.2389C36.993 22.0014 36.8824 21.7788 36.7318 21.5841C36.5813 21.3894 36.3937 21.2263 36.18 21.1043L19.214 11.3101L2.24783 21.1043C1.81852 21.352 1.50521 21.7601 1.37681 22.2389C1.24842 22.7176 1.31545 23.2277 1.56317 23.657C1.81089 24.0863 2.21901 24.3996 2.69773 24.528C3.17646 24.6564 3.68659 24.5894 4.11589 24.3417L18.8859 15.8168ZM23.131 30.6023H15.297V41.7979H23.131V30.6023ZM29.3498 41.7979C28.3875 39.7779 28.146 37.4892 28.6657 35.3128C29.1854 33.1365 30.4349 31.2037 32.2061 29.8365V24.6418L19.214 17.143L6.22208 24.6418V41.1387C6.22225 41.3134 6.29172 41.4809 6.41524 41.6044C6.53877 41.728 6.70625 41.7975 6.88095 41.7977H13.9842V29.9458C13.9842 29.7717 14.0533 29.6048 14.1764 29.4817C14.2995 29.3587 14.4664 29.2895 14.6405 29.2895H23.7873C23.9613 29.2895 24.1282 29.3587 24.2513 29.4817C24.3744 29.6048 24.4435 29.7717 24.4435 29.9458V41.7978L29.3498 41.7979ZM46.6894 37.5856C46.6891 35.9067 46.191 34.2656 45.2581 32.8697C44.3252 31.4739 42.9994 30.386 41.4483 29.7437C39.8971 29.1013 38.1903 28.9333 36.5437 29.2609C34.8971 29.5885 33.3846 30.397 32.1975 31.5841C31.0103 32.7713 30.2018 34.2838 29.8742 35.9304C29.5466 37.577 29.7146 39.2838 30.357 40.8349C30.9994 42.3861 32.0872 43.7119 33.4831 44.6448C34.8789 45.5777 36.52 46.0758 38.1989 46.076C40.45 46.0739 42.6084 45.1787 44.2002 43.5868C45.792 41.995 46.6872 39.8367 46.6894 37.5856Z" fill="#EB7124"/>
<path d="M42.2087 17.06C42.2087 17.2341 42.1395 17.401 42.0165 17.5241C41.8934 17.6471 41.7265 17.7163 41.5524 17.7163H35.2706C35.0966 17.7163 34.9296 17.6471 34.8066 17.5241C34.6835 17.401 34.6144 17.2341 34.6144 17.06C34.6144 16.886 34.6835 16.7191 34.8066 16.596C34.9296 16.4729 35.0966 16.4038 35.2706 16.4038H41.5519C41.6381 16.4037 41.7235 16.4206 41.8032 16.4536C41.8829 16.4865 41.9553 16.5348 42.0163 16.5958C42.0773 16.6567 42.1256 16.7291 42.1587 16.8088C42.1917 16.8884 42.2087 16.9738 42.2087 17.06ZM41.5524 13.31H29.3893C29.2152 13.31 29.0483 13.3792 28.9253 13.5022C28.8022 13.6253 28.733 13.7922 28.733 13.9663C28.733 14.1403 28.8022 14.3072 28.9253 14.4303C29.0483 14.5534 29.2152 14.6225 29.3893 14.6225H41.5519C41.7259 14.6225 41.8928 14.5534 42.0159 14.4303C42.139 14.3072 42.2081 14.1403 42.2081 13.9663C42.2081 13.7922 42.139 13.6253 42.0159 13.5022C41.8928 13.3792 41.7265 13.31 41.5524 13.31ZM41.5524 19.4965H39.2269C39.0528 19.4965 38.8859 19.5656 38.7628 19.6887C38.6398 19.8118 38.5706 19.9787 38.5706 20.1528C38.5706 20.3268 38.6398 20.4937 38.7628 20.6168C38.8859 20.7399 39.0528 20.809 39.2269 20.809H41.5519C41.7259 20.809 41.8928 20.7399 42.0159 20.6168C42.139 20.4937 42.2081 20.3268 42.2081 20.1528C42.2081 19.9787 42.139 19.8118 42.0159 19.6887C41.8928 19.5656 41.7265 19.4965 41.5524 19.4965ZM41.5524 22.5903H39.5486C39.3746 22.5903 39.2076 22.6594 39.0846 22.7825C38.9615 22.9055 38.8924 23.0725 38.8924 23.2465C38.8924 23.4205 38.9615 23.5875 39.0846 23.7105C39.2076 23.8336 39.3746 23.9028 39.5486 23.9028H41.5519C41.7259 23.9028 41.8928 23.8336 42.0159 23.7105C42.139 23.5875 42.2081 23.4205 42.2081 23.2465C42.2081 23.0725 42.139 22.9055 42.0159 22.7825C41.8928 22.6594 41.7265 22.5903 41.5524 22.5903ZM37.4785 10.8736C37.4785 10.6995 37.4094 10.5326 37.2863 10.4095C37.1632 10.2865 36.9963 10.2173 36.8223 10.2173H24.8956C24.7215 10.2173 24.5546 10.2865 24.4315 10.4095C24.3085 10.5326 24.2393 10.6995 24.2393 10.8736C24.2393 11.0476 24.3085 11.2145 24.4315 11.3376C24.5546 11.4607 24.7215 11.5298 24.8956 11.5298H36.8221C36.9083 11.5298 36.9936 11.5129 37.0733 11.4799C37.1529 11.4469 37.2253 11.3986 37.2862 11.3377C37.3472 11.2767 37.3955 11.2044 37.4285 11.1247C37.4615 11.0451 37.4785 10.9598 37.4785 10.8736ZM41.5519 25.6833H38.3709C38.1969 25.6833 38.03 25.7525 37.9069 25.8756C37.7838 25.9986 37.7147 26.1655 37.7147 26.3396C37.7147 26.5136 37.7838 26.6806 37.9069 26.8036C38.03 26.9267 38.1969 26.9958 38.3709 26.9958H41.5519C41.7259 26.9958 41.8928 26.9267 42.0159 26.8036C42.139 26.6806 42.2081 26.5136 42.2081 26.3396C42.2081 26.1655 42.139 25.9986 42.0159 25.8756C41.8928 25.7525 41.7259 25.6833 41.5519 25.6833ZM36.8221 8.43944C36.9961 8.43944 37.163 8.3703 37.2861 8.24723C37.4092 8.12416 37.4783 7.95724 37.4783 7.78319C37.4783 7.60914 37.4092 7.44222 37.2861 7.31915C37.163 7.19608 36.9961 7.12694 36.8221 7.12694H19.2273C19.0532 7.12694 18.8863 7.19608 18.7632 7.31915C18.6402 7.44222 18.571 7.60914 18.571 7.78319C18.571 7.95724 18.6402 8.12416 18.7632 8.24723C18.8863 8.3703 19.0532 8.43944 19.2273 8.43944H36.8221ZM19.2273 5.34625H36.8221C36.9961 5.34625 37.163 5.27711 37.2861 5.15404C37.4092 5.03097 37.4783 4.86405 37.4783 4.69C37.4783 4.51595 37.4092 4.34903 37.2861 4.22596C37.163 4.10289 36.9961 4.03375 36.8221 4.03375H19.2273C19.0532 4.03375 18.8863 4.10289 18.7632 4.22596C18.6402 4.34903 18.571 4.51595 18.571 4.69C18.571 4.86405 18.6402 5.03097 18.7632 5.15404C18.8863 5.27711 19.0532 5.34625 19.2273 5.34625ZM42.2202 32.6361L33.2513 41.608C33.1904 41.6689 33.142 41.7413 33.1091 41.8209C33.0761 41.9005 33.0591 41.9859 33.0591 42.0721C33.0591 42.1582 33.0761 42.2436 33.1091 42.3232C33.142 42.4028 33.1904 42.4752 33.2513 42.5361C33.3123 42.5971 33.3846 42.6454 33.4642 42.6784C33.5439 42.7114 33.6292 42.7283 33.7154 42.7283C33.8016 42.7283 33.8869 42.7114 33.9665 42.6784C34.0462 42.6454 34.1185 42.5971 34.1795 42.5361L43.1483 33.5643C43.2093 33.5033 43.2576 33.431 43.2906 33.3513C43.3236 33.2717 43.3405 33.1864 43.3405 33.1002C43.3405 33.014 43.3236 32.9287 43.2906 32.849C43.2576 32.7694 43.2093 32.6971 43.1483 32.6361C43.0874 32.5752 43.015 32.5268 42.9354 32.4939C42.8558 32.4609 42.7704 32.4439 42.6843 32.4439C42.5981 32.4439 42.5127 32.4609 42.4331 32.4939C42.3535 32.5268 42.2811 32.5752 42.2202 32.6361ZM42.5255 39.034C42.8104 39.3185 43.0045 39.681 43.0834 40.0758C43.1622 40.4706 43.1222 40.88 42.9684 41.252C42.8147 41.6241 42.554 41.9422 42.2194 42.1661C41.8848 42.3901 41.4914 42.5098 41.0888 42.5101C40.6862 42.5104 40.2925 42.3913 39.9576 42.1679C39.6227 41.9445 39.3615 41.6268 39.2072 41.255C39.0528 40.8831 39.0122 40.4739 39.0904 40.0789C39.1686 39.684 39.3622 39.3212 39.6467 39.0363L39.6489 39.034C40.0316 38.6549 40.5485 38.4423 41.0872 38.4423C41.6259 38.4423 42.1427 38.6549 42.5255 39.034ZM41.5973 39.9621C41.496 39.8612 41.3671 39.7926 41.2268 39.765C41.0865 39.7373 40.9412 39.7519 40.8092 39.8069C40.6772 39.8619 40.5645 39.9547 40.4853 40.0738C40.4061 40.1928 40.364 40.3327 40.3643 40.4757C40.3646 40.6186 40.4073 40.7583 40.487 40.877C40.5667 40.9957 40.6798 41.0881 40.812 41.1426C40.9443 41.197 41.0896 41.211 41.2298 41.1827C41.37 41.1545 41.4986 41.0854 41.5995 40.984C41.7336 40.8476 41.8085 40.6639 41.8081 40.4727C41.8077 40.2815 41.732 40.0979 41.5973 39.9621ZM33.8723 36.1354C33.5885 35.8507 33.3953 35.4883 33.3172 35.0939C33.2391 34.6996 33.2795 34.2909 33.4335 33.9195C33.5874 33.5481 33.8479 33.2306 34.1821 33.0071C34.5163 32.7836 34.9093 32.6641 35.3113 32.6637C35.6461 32.6634 35.9758 32.7458 36.2712 32.9035C36.5666 33.0612 36.8185 33.2894 37.0045 33.5677C37.1906 33.8461 37.3051 34.166 37.3379 34.4993C37.3707 34.8325 37.3208 35.1686 37.1926 35.4779C37.0644 35.7872 36.8618 36.0601 36.6029 36.2724C36.3439 36.4846 36.0366 36.6297 35.7082 36.6948C35.3797 36.7598 35.0403 36.7428 34.72 36.6453C34.3997 36.5478 34.1088 36.3725 33.8723 36.1354ZM34.5904 34.6963C34.5896 34.8637 34.6469 35.0262 34.7526 35.1561C34.8583 35.286 35.0057 35.3752 35.1698 35.4085C35.3339 35.4418 35.5045 35.4171 35.6524 35.3387C35.8003 35.2602 35.9165 35.1329 35.981 34.9784C36.0456 34.8239 36.0545 34.6518 36.0063 34.4915C35.9581 34.3311 35.8558 34.1924 35.7168 34.0991C35.5778 34.0058 35.4107 33.9636 35.244 33.9797C35.0774 33.9958 34.9214 34.0693 34.8029 34.1875L34.8007 34.1898C34.7338 34.256 34.6807 34.335 34.6445 34.4219C34.6083 34.5089 34.5901 34.6021 34.5904 34.6963ZM48.0019 37.5856C48.0028 39.6803 47.3325 41.7201 46.0892 43.406C44.8459 45.0918 43.0951 46.3348 41.0936 46.9528C39.0921 47.5707 36.9453 47.531 34.9681 46.8395C32.9908 46.148 31.2872 44.8411 30.107 43.1104H6.88095C6.3582 43.1098 5.85704 42.9019 5.4874 42.5322C5.11776 42.1626 4.90982 41.6614 4.9092 41.1387V25.3995L4.77223 25.4785C4.04175 25.8947 3.17623 26.0048 2.36479 25.7849C1.55335 25.5649 0.861955 25.0327 0.441684 24.3046C0.0214124 23.5764 -0.0935718 22.7115 0.121855 21.8989C0.337283 21.0862 0.865607 20.3918 1.59139 19.9675L15.9351 11.6872V1.87834C15.9355 1.54302 16.0688 1.22154 16.3059 0.984386C16.543 0.747235 16.8644 0.613777 17.1997 0.613281H43.5799C43.9152 0.613678 44.2368 0.747092 44.4739 0.984254C44.7111 1.22142 44.8445 1.54296 44.8448 1.87834V30.3886C45.8404 31.3044 46.6351 32.417 47.1785 33.6558C47.722 34.8946 48.0023 36.2328 48.0019 37.5856ZM17.2476 10.9293L18.8858 9.98359C18.9856 9.92605 19.0988 9.89576 19.214 9.89576C19.3291 9.89576 19.4423 9.92605 19.5421 9.98359L36.8362 19.9675C37.5662 20.3898 38.0986 21.0846 38.3166 21.8992C38.5345 22.7139 38.4201 23.5817 37.9984 24.3121C37.5768 25.0424 36.8825 25.5755 36.068 25.7941C35.2536 26.0128 34.3856 25.8991 33.6549 25.4781L33.5187 25.3996V28.9766C35.0679 28.1331 36.8163 27.7241 38.5789 27.7927C40.3415 27.8614 42.0528 28.4052 43.5317 29.3667V1.92606H17.2476V10.9293ZM18.8859 15.8168C18.9857 15.7591 19.0988 15.7288 19.214 15.7288C19.3293 15.7288 19.4424 15.7591 19.5422 15.8168L34.3121 24.3417C34.5247 24.4657 34.7598 24.5464 35.0037 24.5793C35.2476 24.6122 35.4956 24.5966 35.7335 24.5333C35.9714 24.4701 36.1944 24.3605 36.3898 24.2108C36.5852 24.0612 36.7491 23.8744 36.8721 23.6612C36.9951 23.448 37.0748 23.2126 37.1065 22.9685C37.1383 22.7245 37.1216 22.4765 37.0573 22.2389C36.993 22.0014 36.8824 21.7788 36.7318 21.5841C36.5813 21.3894 36.3937 21.2263 36.18 21.1043L19.214 11.3101L2.24783 21.1043C1.81852 21.352 1.50521 21.7601 1.37681 22.2389C1.24842 22.7176 1.31545 23.2277 1.56317 23.657C1.81089 24.0863 2.21901 24.3996 2.69773 24.528C3.17646 24.6564 3.68659 24.5894 4.11589 24.3417L18.8859 15.8168ZM23.131 30.6023H15.297V41.7979H23.131V30.6023ZM29.3498 41.7979C28.3875 39.7779 28.146 37.4892 28.6657 35.3128C29.1854 33.1365 30.4349 31.2037 32.2061 29.8365V24.6418L19.214 17.143L6.22208 24.6418V41.1387C6.22225 41.3134 6.29172 41.4809 6.41524 41.6044C6.53877 41.728 6.70625 41.7975 6.88095 41.7977H13.9842V29.9458C13.9842 29.7717 14.0533 29.6048 14.1764 29.4817C14.2995 29.3587 14.4664 29.2895 14.6405 29.2895H23.7873C23.9613 29.2895 24.1282 29.3587 24.2513 29.4817C24.3744 29.6048 24.4435 29.7717 24.4435 29.9458V41.7978L29.3498 41.7979ZM46.6894 37.5856C46.6891 35.9067 46.191 34.2656 45.2581 32.8697C44.3252 31.4739 42.9994 30.386 41.4483 29.7437C39.8971 29.1013 38.1903 28.9333 36.5437 29.2609C34.8971 29.5885 33.3846 30.397 32.1975 31.5841C31.0103 32.7713 30.2018 34.2838 29.8742 35.9304C29.5466 37.577 29.7146 39.2838 30.357 40.8349C30.9994 42.3861 32.0872 43.7119 33.4831 44.6448C34.8789 45.5777 36.52 46.0758 38.1989 46.076C40.45 46.0739 42.6084 45.1787 44.2002 43.5868C45.792 41.995 46.6872 39.8367 46.6894 37.5856Z" stroke="#EB7124" stroke-width="0.4" mask="url(#path-1-outside-1_7418_37183)"/>
</g>
<defs>
<clipPath id="clip0_7418_37183">
<rect width="48" height="48" fill="white"/>
</clipPath>
</defs>
</svg>
