<svg width="199" height="34" viewBox="0 0 199 34" fill="none" xmlns="http://www.w3.org/2000/svg">
<path fill-rule="evenodd" clip-rule="evenodd" d="M21.6535 2.17188C18.5245 2.17188 15.9882 4.67224 15.9882 7.75655C15.9882 10.8409 18.5245 13.3412 21.6535 13.3412C24.7824 13.3412 27.3188 10.8409 27.3188 7.75655C27.3188 4.67224 24.7824 2.17188 21.6535 2.17188ZM10.5765 13.0365C16.4737 13.0365 21.2545 17.7491 21.2545 23.5624V32.1897H15.9432V23.5624C15.9432 22.9432 15.8353 22.3492 15.6371 21.7969L7.83572 29.4874L4.08012 25.7851L11.6035 18.369C11.2711 18.3054 10.9278 18.2722 10.5765 18.2722H1.82495V13.0365H10.5765ZM32.8625 13.0365C26.9654 13.0365 22.1845 17.7491 22.1845 23.5624V32.1897H27.4958V23.5624C27.4958 23.0776 27.5621 22.6078 27.686 22.1617L35.8468 30.2065L39.6025 26.5041L31.4417 18.4595C31.8942 18.3374 32.3707 18.2722 32.8625 18.2722H41.614V13.0365H32.8625Z" fill="#001A3D"/>
<path d="M50.1104 32.4903V2.39648H58.7563L68.026 28.1848H68.6945V2.39648H73.6415V32.4903H65.174L55.681 6.65794H55.0572V32.4903H50.1104Z" fill="#001A3D"/>
<path d="M93.4612 28.5365L94.709 28.405L94.7983 31.9635C91.4111 32.6371 88.4102 32.9739 85.7958 32.9739C82.4979 32.9739 80.1209 32.0804 78.6653 30.294C77.239 28.5073 76.5259 25.6518 76.5259 21.7271C76.5259 13.9364 79.7495 10.041 86.1968 10.041C92.4361 10.041 95.5559 13.3945 95.5559 20.1016L95.244 23.5282H81.4282C81.4578 25.3442 81.8591 26.6769 82.6317 27.526C83.404 28.3757 84.8451 28.8001 86.9546 28.8001C89.0639 28.8001 91.2329 28.7124 93.4612 28.5365ZM90.7872 19.8381C90.7872 17.6707 90.4307 16.1623 89.7175 15.3129C89.0345 14.4343 87.8607 13.9949 86.1968 13.9949C84.5331 13.9949 83.315 14.4489 82.5424 15.3568C81.7996 16.2647 81.4132 17.7585 81.3838 19.8381H90.7872Z" fill="#001A3D"/>
<path d="M109.987 14.6102H103.836V24.2754C103.836 26.0622 103.97 27.2481 104.237 27.8338C104.505 28.4195 105.188 28.7128 106.288 28.7128L109.942 28.5808L110.165 32.4029C108.174 32.7837 106.659 32.9742 105.619 32.9742C103.094 32.9742 101.356 32.4029 100.405 31.2608C99.4837 30.1184 99.0234 27.9658 99.0234 24.8027V14.6102H96.1709V10.5245H99.0234V4.1543H103.836V10.5245H109.987V14.6102Z" fill="#001A3D"/>
<path d="M110.004 10.5254H114.773L118.294 28.4061H119.185L123.419 10.9647H128.41L132.644 28.4061H133.535L137.012 10.5254H141.825L137.1 32.4917H129.391L125.914 17.4228L122.438 32.4917H114.728L110.004 10.5254Z" fill="#001A3D"/>
<path d="M144.924 12.8966C146.47 10.9929 149.025 10.041 152.59 10.041C156.155 10.041 158.695 10.9929 160.21 12.8966C161.756 14.8004 162.528 17.6559 162.528 21.4635C162.528 25.271 161.785 28.1411 160.299 30.074C158.814 32.0074 156.245 32.9739 152.59 32.9739C148.936 32.9739 146.365 32.0074 144.88 30.074C143.394 28.1411 142.652 25.271 142.652 21.4635C142.652 17.6559 143.409 14.8004 144.924 12.8966ZM148.578 27.1747C149.262 28.3463 150.6 28.932 152.59 28.932C154.581 28.932 155.918 28.3463 156.601 27.1747C157.285 26.0032 157.626 24.0849 157.626 21.4196C157.626 18.7542 157.254 16.8652 156.512 15.7522C155.798 14.6393 154.491 14.0828 152.59 14.0828C150.688 14.0828 149.367 14.6393 148.623 15.7522C147.911 16.8652 147.553 18.7542 147.553 21.4196C147.553 24.0849 147.895 26.0032 148.578 27.1747Z" fill="#001A3D"/>
<path d="M165.127 32.4905V10.5243H169.94V13.1602C172.465 11.5494 174.991 10.5096 177.516 10.041V14.8297C174.962 15.3276 172.777 15.9719 170.965 16.7628L169.985 17.158V32.4905H165.127Z" fill="#001A3D"/>
<path d="M183.859 32.491H179.002V1.38672H183.859V19.355L186.624 19.0916L191.882 10.5247H197.319L190.902 20.805L197.675 32.491H192.193L186.758 23.221L183.859 23.5285V32.491Z" fill="#001A3D"/>
</svg>
