<svg width="195" height="40" viewBox="0 0 195 40" fill="none" xmlns="http://www.w3.org/2000/svg">
<g clip-path="url(#clip0_641_953)">
<path d="M5.2869 5.54218C7.93147 3.05317 11.5225 1.6004 15.162 1.4197C16.4076 1.4197 17.657 1.42707 18.9027 1.41602C18.839 2.73241 18.9027 4.0525 18.8652 5.36884C18.6893 8.31134 17.5859 11.1875 15.7269 13.4958C13.3104 16.6005 9.61475 18.6838 5.6909 19.2223C3.97772 19.4951 2.23832 19.3218 0.513924 19.3698C0.543821 17.9205 0.450327 16.4678 0.566307 15.0223C0.902977 11.4383 2.61989 8.00532 5.2869 5.54218Z" fill="#001A3D" fill-opacity="0.2"/>
<path d="M20.0547 1.41797C21.3901 1.4327 22.7256 1.4106 24.0647 1.42534C27.3975 1.65762 30.6854 2.91869 33.1952 5.10535C35.9633 7.44679 37.8597 10.7949 38.3463 14.3717C38.559 16.031 38.4248 17.7086 38.5071 19.3754C37.3397 19.3717 36.1768 19.368 35.0094 19.3754C32.1405 19.298 29.3202 18.3835 26.9187 16.8421C25.8115 16.0604 24.6743 15.2677 23.844 14.1836C22.0223 12.1777 20.7842 9.65923 20.3166 7.00433C19.965 5.16062 20.107 3.28011 20.0547 1.41797Z" fill="#001A3D"/>
<path d="M0.515774 20.4316C1.70155 20.498 2.89108 20.3763 4.07306 20.5054C9.13406 20.6123 14.0455 23.4146 16.6676 27.681C18.1714 30.0704 18.9793 32.9024 18.8746 35.716C18.8707 36.6377 18.8858 37.5555 18.8595 38.4741C16.9819 38.4185 15.0854 38.5696 13.2263 38.2119C9.09668 37.5262 5.30002 35.1034 3.01446 31.645C1.2826 29.1301 0.41854 26.0586 0.508297 23.0239C0.508297 22.1574 0.5083 21.2945 0.515774 20.4316Z" fill="#001A3D"/>
<path d="M32.1875 20.8204C34.2227 20.3742 36.3207 20.4479 38.3894 20.4479L38.4794 20.5364C38.4343 22.4649 38.5876 24.4156 38.195 26.3219C37.3683 30.5993 34.4957 34.4196 30.6315 36.5176C28.2263 37.8378 25.4657 38.4865 22.7165 38.4571C21.8374 38.4608 20.9546 38.4421 20.0755 38.4684C20.0755 36.8717 20.0082 35.2676 20.1916 33.6785C20.618 29.8323 22.7277 26.2519 25.7612 23.833C27.639 22.3727 29.846 21.3145 32.1875 20.8204Z" fill="#001A3D" fill-opacity="0.6"/>
<path d="M53.8352 31.3299C53.8352 31.979 53.6072 32.5283 53.1517 32.9776C52.721 33.4022 52.1763 33.6144 51.5181 33.6144C50.8847 33.6144 50.3526 33.4022 49.9225 32.9776C49.4917 32.5283 49.2764 31.979 49.2764 31.3299V8.18489C49.2764 7.53575 49.4917 6.99893 49.9225 6.57451C50.3779 6.12513 50.9354 5.90039 51.5942 5.90039C52.2523 5.90039 52.7844 6.12513 53.1897 6.57451C53.6198 6.99893 53.8352 7.53575 53.8352 8.18489V31.3299Z" fill="#001A3D"/>
<path d="M72.1342 13.5781C72.7922 13.5781 73.3369 13.8028 73.7678 14.2522C74.1978 14.6766 74.4132 15.2135 74.4132 15.8626V25.3752C74.4132 28.0218 73.6664 30.119 72.1721 31.6671C70.6772 33.2151 68.5248 33.9893 65.713 33.9893C62.9018 33.9893 60.7489 33.2151 59.2546 31.6671C57.7856 30.119 57.0508 28.0218 57.0508 25.3752V15.8626C57.0508 15.2135 57.2661 14.6766 57.697 14.2522C58.1277 13.8028 58.6717 13.5781 59.3306 13.5781C59.9894 13.5781 60.5334 13.8028 60.9642 14.2522C61.395 14.6766 61.6103 15.2135 61.6103 15.8626V25.3752C61.6103 26.8983 61.9524 28.0343 62.6358 28.7834C63.3199 29.5074 64.3455 29.8694 65.713 29.8694C67.1065 29.8694 68.1448 29.5074 68.8288 28.7834C69.5123 28.0343 69.8543 26.8983 69.8543 25.3752V15.8626C69.8543 15.2135 70.0697 14.6766 70.5006 14.2522C70.9306 13.8028 71.4753 13.5781 72.1342 13.5781Z" fill="#001A3D"/>
<path d="M88.1255 13.2051C90.1519 13.2051 91.6461 13.6919 92.609 14.6656C93.5711 15.6144 94.2045 16.8503 94.508 18.3733L93.8625 18.0362L94.1666 17.4371C94.4699 16.8629 94.9387 16.2511 95.5722 15.602C96.2049 14.9279 96.965 14.3661 97.8512 13.9167C98.7634 13.4422 99.7762 13.2051 100.891 13.2051C102.715 13.2051 104.095 13.5921 105.032 14.3661C105.995 15.14 106.653 16.1762 107.007 17.4745C107.362 18.7478 107.54 20.171 107.54 21.7439V31.3315C107.54 31.9807 107.324 32.5299 106.893 32.9792C106.463 33.4038 105.919 33.6162 105.26 33.6162C104.602 33.6162 104.057 33.4038 103.626 32.9792C103.196 32.5299 102.98 31.9807 102.98 31.3315V21.7439C102.98 20.92 102.879 20.1835 102.677 19.5343C102.474 18.8601 102.107 18.3234 101.575 17.924C101.043 17.5245 100.283 17.3248 99.2954 17.3248C98.3326 17.3248 97.5099 17.5245 96.8257 17.924C96.1416 18.3234 95.6228 18.8601 95.2681 19.5343C94.9387 20.1835 94.774 20.92 94.774 21.7439V31.3315C94.774 31.9807 94.5586 32.5299 94.1286 32.9792C93.6978 33.4038 93.153 33.6162 92.495 33.6162C91.8361 33.6162 91.2914 33.4038 90.8612 32.9792C90.4305 32.5299 90.2152 31.9807 90.2152 31.3315V21.7439C90.2152 20.92 90.1138 20.1835 89.9111 19.5343C89.7085 18.8601 89.3411 18.3234 88.8096 17.924C88.2775 17.5245 87.5174 17.3248 86.5298 17.3248C85.5678 17.3248 84.7443 17.5245 84.0601 17.924C83.3766 18.3234 82.8573 18.8601 82.5025 19.5343C82.1737 20.1835 82.0091 20.92 82.0091 21.7439V31.3315C82.0091 31.9807 81.7938 32.5299 81.363 32.9792C80.9323 33.4038 80.3882 33.6162 79.7294 33.6162C79.0707 33.6162 78.5265 33.4038 78.0958 32.9792C77.6651 32.5299 77.4497 31.9807 77.4497 31.3315V15.8641C77.4497 15.2149 77.6651 14.6781 78.0958 14.2537C78.5265 13.8043 79.0707 13.5796 79.7294 13.5796C80.3882 13.5796 80.9323 13.8043 81.363 14.2537C81.7938 14.6781 82.0091 15.2149 82.0091 15.8641V17.4745L81.4391 17.3622C81.6671 16.9378 81.9838 16.4883 82.3885 16.0139C82.7939 15.5146 83.2881 15.0527 83.8707 14.6283C84.4529 14.2038 85.0989 13.8667 85.8079 13.617C86.5172 13.3424 87.2901 13.2051 88.1255 13.2051Z" fill="#001A3D"/>
<path d="M114.868 31.3305C114.868 31.9796 114.652 32.5289 114.222 32.9783C113.791 33.4028 113.247 33.6151 112.588 33.6151C111.93 33.6151 111.385 33.4028 110.954 32.9783C110.524 32.5289 110.309 31.9796 110.309 31.3305V15.8631C110.309 15.214 110.524 14.6772 110.954 14.2527C111.385 13.8032 111.93 13.5786 112.588 13.5786C113.247 13.5786 113.791 13.8032 114.222 14.2527C114.652 14.6772 114.868 15.214 114.868 15.8631V31.3305ZM112.55 11.1442C111.689 11.1442 111.081 11.0069 110.726 10.7322C110.372 10.4576 110.195 9.97076 110.195 9.27166V8.56007C110.195 7.83606 110.385 7.34913 110.764 7.09949C111.17 6.82488 111.778 6.6875 112.588 6.6875C113.475 6.6875 114.095 6.82488 114.45 7.09949C114.804 7.37411 114.982 7.86097 114.982 8.56007V9.27166C114.982 9.99574 114.792 10.4951 114.411 10.7697C114.032 11.0194 113.411 11.1442 112.55 11.1442Z" fill="#001A3D"/>
<path d="M128.518 13.2051C130.392 13.2051 131.811 13.5921 132.773 14.3661C133.761 15.14 134.432 16.1762 134.787 17.4745C135.167 18.7478 135.357 20.171 135.357 21.7439V31.3315C135.357 31.9807 135.141 32.5299 134.711 32.9792C134.28 33.4038 133.736 33.6162 133.077 33.6162C132.419 33.6162 131.874 33.4038 131.443 32.9792C131.013 32.5299 130.797 31.9807 130.797 31.3315V21.7439C130.797 20.92 130.684 20.1835 130.456 19.5343C130.253 18.8601 129.873 18.3234 129.316 17.924C128.759 17.5245 127.961 17.3248 126.923 17.3248C125.909 17.3248 125.048 17.5245 124.339 17.924C123.655 18.3234 123.123 18.8601 122.743 19.5343C122.388 20.1835 122.211 20.92 122.211 21.7439V31.3315C122.211 31.9807 121.996 32.5299 121.566 32.9792C121.135 33.4038 120.59 33.6162 119.932 33.6162C119.273 33.6162 118.728 33.4038 118.298 32.9792C117.868 32.5299 117.652 31.9807 117.652 31.3315V15.8641C117.652 15.2149 117.868 14.6781 118.298 14.2537C118.728 13.8043 119.273 13.5796 119.932 13.5796C120.59 13.5796 121.135 13.8043 121.566 14.2537C121.996 14.6781 122.211 15.2149 122.211 15.8641V17.4745L121.642 17.3622C121.87 16.9378 122.198 16.4883 122.629 16.0139C123.06 15.5146 123.567 15.0527 124.149 14.6283C124.732 14.2038 125.39 13.8667 126.124 13.617C126.859 13.3424 127.657 13.2051 128.518 13.2051Z" fill="#001A3D"/>
<path d="M157.913 23.6165C157.913 25.6638 157.445 27.474 156.508 29.047C155.596 30.5949 154.355 31.8058 152.784 32.6796C151.24 33.5537 149.505 33.9908 147.58 33.9908C145.654 33.9908 143.907 33.5537 142.337 32.6796C140.792 31.8058 139.551 30.5949 138.614 29.047C137.702 27.474 137.246 25.6638 137.246 23.6165C137.246 21.5691 137.702 19.7715 138.614 18.2236C139.551 16.6506 140.792 15.4272 142.337 14.5533C143.907 13.6545 145.654 13.2051 147.58 13.2051C149.505 13.2051 151.24 13.6545 152.784 14.5533C154.355 15.4272 155.596 16.6506 156.508 18.2236C157.445 19.7715 157.913 21.5691 157.913 23.6165ZM153.356 23.6165C153.356 22.3432 153.089 21.2446 152.557 20.3208C152.05 19.3721 151.353 18.6355 150.468 18.1112C149.607 17.5869 148.644 17.3248 147.58 17.3248C146.517 17.3248 145.541 17.5869 144.655 18.1112C143.793 18.6355 143.096 19.3721 142.565 20.3208C142.058 21.2446 141.805 22.3432 141.805 23.6165C141.805 24.865 142.058 25.9636 142.565 26.9122C143.096 27.8361 143.793 28.5601 144.655 29.0844C145.541 29.6088 146.517 29.8709 147.58 29.8709C148.644 29.8709 149.607 29.6088 150.468 29.0844C151.353 28.5601 152.05 27.8361 152.557 26.9122C153.089 25.9636 153.356 24.865 153.356 23.6165Z" fill="#001A3D"/>
<path d="M174.905 13.5781C175.564 13.5781 176.109 13.8028 176.539 14.2522C176.97 14.6766 177.185 15.2135 177.185 15.8626V25.3752C177.185 28.0218 176.438 30.119 174.943 31.6671C173.449 33.2151 171.297 33.9893 168.485 33.9893C165.674 33.9893 163.52 33.2151 162.027 31.6671C160.558 30.119 159.822 28.0218 159.822 25.3752V15.8626C159.822 15.2135 160.037 14.6766 160.469 14.2522C160.9 13.8028 161.444 13.5781 162.102 13.5781C162.761 13.5781 163.305 13.8028 163.735 14.2522C164.167 14.6766 164.383 15.2135 164.383 15.8626V25.3752C164.383 26.8983 164.723 28.0343 165.408 28.7834C166.091 29.5074 167.118 29.8694 168.485 29.8694C169.878 29.8694 170.916 29.5074 171.6 28.7834C172.285 28.0343 172.626 26.8983 172.626 25.3752V15.8626C172.626 15.2135 172.841 14.6766 173.272 14.2522C173.702 13.8028 174.248 13.5781 174.905 13.5781Z" fill="#001A3D"/>
<path d="M179.044 30.5076C178.791 30.1581 178.676 29.7086 178.702 29.1593C178.727 28.61 179.057 28.1357 179.69 27.7361C180.094 27.4865 180.526 27.3866 180.981 27.4366C181.438 27.4615 181.88 27.6863 182.312 28.1107C183.046 28.8347 183.818 29.3965 184.628 29.796C185.44 30.1955 186.453 30.3953 187.667 30.3953C188.048 30.3702 188.466 30.3204 188.922 30.2454C189.377 30.1456 189.77 29.9458 190.099 29.6461C190.454 29.3216 190.631 28.8347 190.631 28.1856C190.631 27.6363 190.442 27.1994 190.061 26.8748C189.681 26.5503 189.175 26.2755 188.541 26.0508C187.933 25.8262 187.25 25.6139 186.491 25.4143C185.706 25.1895 184.894 24.9399 184.058 24.6652C183.248 24.3906 182.501 24.0409 181.817 23.6165C181.134 23.1671 180.577 22.5804 180.145 21.8563C179.716 21.1323 179.499 20.2209 179.499 19.1224C179.499 17.874 179.854 16.8129 180.564 15.939C181.273 15.0651 182.185 14.391 183.299 13.9167C184.439 13.4422 185.629 13.2051 186.87 13.2051C187.656 13.2051 188.479 13.3049 189.34 13.5047C190.201 13.6795 191.024 13.979 191.809 14.4035C192.594 14.803 193.253 15.3399 193.785 16.0139C194.063 16.3885 194.229 16.8378 194.278 17.3622C194.329 17.8864 194.089 18.3608 193.557 18.7854C193.177 19.0849 192.734 19.2222 192.226 19.1973C191.72 19.1473 191.303 18.9726 190.973 18.6729C190.542 18.1238 189.961 17.6868 189.226 17.3622C188.517 17.0376 187.694 16.8753 186.756 16.8753C186.376 16.8753 185.959 16.9253 185.502 17.0252C185.072 17.1001 184.692 17.2873 184.363 17.5869C184.033 17.8615 183.869 18.311 183.869 18.9352C183.869 19.5094 184.058 19.9714 184.439 20.3208C184.819 20.6454 185.325 20.92 185.959 21.1447C186.616 21.3445 187.314 21.5442 188.048 21.7439C188.807 21.9437 189.581 22.1809 190.365 22.4555C191.15 22.7302 191.873 23.0922 192.532 23.5416C193.19 23.9911 193.721 24.5778 194.127 25.3018C194.532 26.001 194.735 26.8998 194.735 27.9984C194.735 29.2717 194.355 30.3577 193.595 31.2565C192.835 32.1555 191.884 32.8419 190.746 33.3164C189.606 33.766 188.44 33.9908 187.25 33.9908C185.755 33.9908 184.262 33.7411 182.767 33.2415C181.273 32.717 180.031 31.8058 179.044 30.5076Z" fill="#001A3D"/>
</g>
<defs>
<clipPath id="clip0_641_953">
<rect width="194.859" height="39.1223" fill="white" transform="translate(0.0761719)"/>
</clipPath>
</defs>
</svg>
