<svg width="205" height="43" viewBox="0 0 205 43" fill="none" xmlns="http://www.w3.org/2000/svg">
<g clip-path="url(#clip0_641_1023)">
<path d="M0.744873 28.0406L15.1584 21.7168L23.4545 26.4596L25.1306 42.0195L14.907 41.9361L16.4153 31.119L14.6556 30.1207L6.02422 36.7776L0.744873 28.0406Z" fill="#001A3D" fill-opacity="0.2"/>
<path d="M24.377 25.7922L37.1146 35.0281L42.1426 26.125L31.9187 22.0477V20.0508L42.1426 15.8903L37.1146 7.07031L24.377 16.3065V25.7922Z" fill="#001A3D" fill-opacity="0.6"/>
<path d="M23.4545 15.56L25.1306 0L14.907 0.166368L16.4153 10.9835L14.6556 11.982L5.94043 5.32528L0.744873 13.9789L15.1584 20.3027L23.4545 15.56Z" fill="#001A3D"/>
<path d="M76.2502 19.1447V33.722H81.7523V15.1445H73.7393V19.1447H76.2502Z" fill="#001A3D"/>
<path d="M76.0804 12.5341C76.5848 13.0538 77.3528 13.3137 78.3844 13.3137C79.4166 13.3137 80.1726 13.0538 80.6538 12.5341C81.1588 11.9915 81.4104 11.3134 81.4104 10.5001C81.4104 9.66371 81.1588 8.98569 80.6538 8.46599C80.1726 7.92365 79.4166 7.65234 78.3844 7.65234C77.3528 7.65234 76.5848 7.92365 76.0804 8.46599C75.5992 8.98569 75.3584 9.66371 75.3584 10.5001C75.3584 11.3134 75.5992 11.9915 76.0804 12.5341Z" fill="#001A3D"/>
<path d="M57.096 33.3153C58.6547 34.0158 60.5691 34.3664 62.8385 34.3664C64.9709 34.3664 66.8046 34.0382 68.3412 33.383C69.8773 32.7279 71.0576 31.8123 71.883 30.6369C72.7317 29.4392 73.1554 28.0493 73.1554 26.4672C73.1554 24.9304 72.7549 23.6308 71.9524 22.5685C71.1724 21.4838 70.0841 20.6363 68.6849 20.0262C67.2864 19.3933 65.6702 18.9978 63.8359 18.8397L61.9103 18.6701C60.7638 18.5796 59.9384 18.2747 59.4341 17.7547C58.9297 17.2351 58.6774 16.6246 58.6774 15.9243C58.6774 15.3815 58.8155 14.8846 59.0898 14.4326C59.3654 13.9579 59.7778 13.5851 60.3282 13.3137C60.9014 13.0427 61.6007 12.907 62.4261 12.907C63.2969 12.907 64.0194 13.0651 64.5925 13.3817C64.7187 13.4485 64.8386 13.52 64.951 13.596L64.9783 13.6148C65.0203 13.6434 65.0618 13.6732 65.1022 13.7032C65.4503 13.9656 65.7275 14.2764 65.9337 14.6359C66.2314 15.1332 66.3814 15.6868 66.3814 16.2972H71.883C71.883 14.6698 71.5046 13.2572 70.7486 12.0595C69.992 10.8391 68.903 9.90121 67.4817 9.24559C66.0826 8.56758 64.3978 8.22852 62.4261 8.22852C60.5457 8.22852 58.9183 8.54517 57.5424 9.17788C56.1672 9.78821 55.0897 10.6696 54.3102 11.822C53.553 12.9747 53.1747 14.3422 53.1747 15.9243C53.1747 18.1163 53.9205 19.879 55.4106 21.2128C56.9005 22.5461 58.8955 23.3145 61.3945 23.5178L63.2861 23.6874C64.8216 23.823 65.9337 24.1283 66.6217 24.6025C67.3091 25.0546 67.6533 25.6762 67.6533 26.4672C67.6533 26.8308 67.5931 27.1717 67.4721 27.4902C67.3824 27.7265 67.2596 27.9507 67.1034 28.1624C66.7358 28.6368 66.1973 29.0097 65.4867 29.2813C64.776 29.5522 63.8934 29.6878 62.8385 29.6878C61.6693 29.6878 60.7179 29.5299 59.9845 29.2129C59.2506 28.8741 58.7007 28.4335 58.3332 27.8911C57.9896 27.3485 57.818 26.7612 57.818 26.1282H52.3499C52.3499 27.7329 52.7509 29.1564 53.553 30.3996C54.3557 31.6202 55.5367 32.5919 57.096 33.3153Z" fill="#001A3D"/>
<path d="M94.0278 33.9591C92.1249 33.9591 90.5888 33.7327 89.4198 33.2809C88.2502 32.806 87.3906 32.0266 86.8402 30.9419C86.3131 29.8343 86.0495 28.343 86.0495 26.4669V19.1106H83.1951V15.1441H86.0495V10.127H91.1734V15.1441H96.6761V19.1106H91.1734V26.6706C91.1734 27.552 91.4029 28.23 91.8612 28.7042C92.3424 29.1562 93.019 29.3823 93.8904 29.3823H96.6761V33.9591H94.0278Z" fill="#001A3D"/>
<path fill-rule="evenodd" clip-rule="evenodd" d="M103.3 33.5524C104.538 34.0945 105.96 34.3662 107.565 34.3662C109.146 34.3662 110.545 34.0945 111.761 33.5524C112.976 33.0098 113.985 32.2527 114.787 31.2811C115.589 30.309 116.128 29.2014 116.403 27.9586H111.348C111.119 28.5233 110.683 28.9981 110.041 29.3823C109.399 29.7665 108.573 29.9585 107.565 29.9585C106.94 29.9585 106.382 29.8858 105.89 29.7402C105.515 29.6293 105.18 29.4764 104.883 29.281C104.195 28.8285 103.69 28.1957 103.369 27.3824C103.28 27.1506 103.204 26.9083 103.14 26.6557C103.074 26.4 103.022 26.1338 102.982 25.8568H116.747V24.0261C116.747 22.331 116.38 20.7717 115.647 19.348C114.913 17.9012 113.846 16.7374 112.448 15.8559C111.073 14.9519 109.376 14.5 107.358 14.5C105.822 14.5 104.446 14.7712 103.231 15.3136C102.04 15.8333 101.042 16.5452 100.24 17.4492C99.4377 18.3533 98.8185 19.3817 98.3823 20.5345C97.9699 21.6642 97.7637 22.8507 97.7637 24.0938V24.7718C97.7637 25.9698 97.9699 27.1449 98.3823 28.2977C98.8185 29.4276 99.4377 30.4558 100.24 31.3826C101.065 32.2863 102.085 33.0098 103.3 33.5524ZM103.077 22.5046C103.092 22.4328 103.108 22.3621 103.125 22.2926C103.173 22.1009 103.228 21.9173 103.291 21.7417C103.326 21.6418 103.364 21.5443 103.404 21.4497C103.748 20.6134 104.252 19.9806 104.917 19.5513C105.165 19.3907 105.435 19.2603 105.724 19.1599C106.21 18.9914 106.755 18.9071 107.358 18.9071C108.299 18.9071 109.078 19.1219 109.697 19.5513C110.339 19.958 110.82 20.5569 111.141 21.3478C111.168 21.4117 111.192 21.4767 111.216 21.5424C111.254 21.6474 111.289 21.7549 111.322 21.8651C111.37 22.0292 111.413 22.199 111.45 22.3744C111.478 22.5038 111.501 22.6363 111.522 22.7719H103.024C103.04 22.6812 103.057 22.5922 103.077 22.5046Z" fill="#001A3D"/>
<path d="M119.02 33.7221V15.1446H123.388V19.8236C123.447 19.5456 123.514 19.2785 123.59 19.0225C123.655 18.8069 123.724 18.5988 123.8 18.3992C124.282 17.1333 125.004 16.1844 125.967 15.5513C126.93 14.896 128.11 14.5684 129.509 14.5684H129.749C131.171 14.5684 132.352 14.896 133.292 15.5513C134.255 16.1844 134.977 17.1333 135.458 18.3992L135.496 18.4946L135.529 18.582C135.55 18.5203 135.573 18.4594 135.596 18.3992C136.1 17.1333 136.834 16.1844 137.797 15.5513C138.76 14.896 139.941 14.5684 141.34 14.5684H141.58C143.001 14.5684 144.193 14.896 145.156 15.5513C146.142 16.1844 146.888 17.1333 147.391 18.3992C147.896 19.6648 148.149 21.2468 148.149 23.1453V33.7221H142.646V22.8401C142.646 21.8231 142.371 20.9982 141.821 20.3656C141.293 19.7325 140.537 19.416 139.551 19.416C138.565 19.416 137.786 19.7439 137.213 20.3993C136.639 21.0321 136.352 21.8796 136.352 22.942V33.7221H130.816V22.8401C130.816 21.8231 130.541 20.9982 129.99 20.3656C129.463 19.7325 128.718 19.416 127.756 19.416C126.746 19.416 125.955 19.7439 125.382 20.3993C124.809 21.0321 124.522 21.8796 124.522 22.942V33.7221H119.02Z" fill="#001A3D"/>
<path fill-rule="evenodd" clip-rule="evenodd" d="M162.845 30.145V33.7244H167.213V22.3339C167.213 20.6161 166.868 19.2151 166.18 18.13C165.493 17.0226 164.485 16.1977 163.154 15.6554C161.848 15.113 160.231 14.8418 158.306 14.8418C157.889 14.8418 157.453 14.8461 156.999 14.8551C156.73 14.8606 156.455 14.8674 156.173 14.8756C155.417 14.8983 154.682 14.9321 153.973 14.9774L153.43 15.0135C153.151 15.0325 152.889 15.0513 152.642 15.0704C152.457 15.0846 152.281 15.0988 152.116 15.113V19.6898C152.827 19.6444 153.616 19.5991 154.489 19.554C154.732 19.5415 154.973 19.5297 155.213 19.5188C155.559 19.503 155.901 19.4894 156.24 19.4774C156.506 19.4678 156.771 19.4594 157.034 19.4523C157.858 19.4295 158.523 19.4184 159.027 19.4184C160.037 19.4184 160.769 19.6556 161.229 20.1303C161.687 20.6049 161.917 21.3168 161.917 22.266V22.3339H158.513C156.839 22.3339 155.36 22.5486 154.076 22.9779C152.792 23.3847 151.794 24.0289 151.085 24.9103C150.374 25.7692 150.017 26.8767 150.017 28.2326C150.017 29.4759 150.304 30.5493 150.877 31.4531C151.451 32.3345 152.241 33.0127 153.25 33.4869C154.282 33.9617 155.475 34.1992 156.827 34.1992C158.133 34.1992 159.234 33.9617 160.128 33.4869C161.046 33.0127 161.757 32.3345 162.26 31.4531C162.349 31.3047 162.432 31.1507 162.51 30.9905C162.619 30.7643 162.715 30.5258 162.801 30.2766L162.845 30.145ZM161.917 26.8428V25.3511H158.478C157.515 25.3511 156.771 25.5883 156.243 26.0629C155.738 26.515 155.485 27.1365 155.485 27.9275C155.485 28.2999 155.549 28.6381 155.674 28.9432C155.801 29.2491 155.99 29.5206 156.243 29.758C156.771 30.2105 157.515 30.4362 158.478 30.4362C158.661 30.4362 158.838 30.4272 159.008 30.4093C159.148 30.3952 159.285 30.3745 159.416 30.3483C159.669 30.2973 159.906 30.2251 160.128 30.1309C160.633 29.9053 161.046 29.5324 161.366 29.0122C161.687 28.4924 161.87 27.7692 161.917 26.8428Z" fill="#001A3D"/>
<path d="M170.505 33.7228V15.1454H174.873V21.2775C175.083 19.527 175.611 18.1155 176.456 17.0438C177.601 15.6201 179.252 14.9082 181.407 14.9082H182.13V19.5864H180.754C179.24 19.5864 178.071 19.9931 177.247 20.8068C176.421 21.5978 176.008 22.7505 176.008 24.2645V33.7228H170.505Z" fill="#001A3D"/>
<path d="M189.108 25.0435H190.93L196.879 33.722H203.07L195.525 23.0637L201.729 15.1445H195.951L189.108 23.9779V8.97461H183.605V33.722H189.108V25.0435Z" fill="#001A3D"/>
</g>
<defs>
<clipPath id="clip0_641_1023">
<rect width="203.584" height="42.0202" fill="white" transform="translate(0.745117)"/>
</clipPath>
</defs>
</svg>
