<svg width="169" height="40" viewBox="0 0 169 40" fill="none" xmlns="http://www.w3.org/2000/svg">
<g clip-path="url(#clip0_641_934)">
<path d="M27.8849 34.3992C24.9201 34.3992 22.2991 33.8251 20.022 32.6771C17.7451 31.5026 15.9846 29.8454 14.7405 27.7054C13.4961 25.5652 12.874 23.0468 12.874 20.15C12.874 17.2531 13.4961 14.7346 14.7405 12.5946C15.9846 10.4285 17.7451 8.77129 20.022 7.62298C22.2991 6.44855 24.9201 5.86133 27.8849 5.86133C29.8971 5.86133 31.6709 6.07014 33.2064 6.48771C34.7686 6.87919 36.1981 7.50551 37.495 8.36676V14.0431C36.3304 13.1035 34.9936 12.425 33.4846 12.0074C32.0019 11.5637 30.3078 11.3419 28.4015 11.3419C26.6277 11.3419 25.0255 11.7073 23.5961 12.438C22.1931 13.1427 21.0812 14.1605 20.2605 15.4915C19.4398 16.8224 19.0291 18.3753 19.0291 20.15C19.0291 21.9508 19.3999 23.5297 20.141 24.8867C20.909 26.2177 21.9811 27.2487 23.3577 27.9794C24.7344 28.7101 26.3231 29.0754 28.1232 29.0754C29.7647 29.0754 31.1941 28.7883 32.412 28.2143V22.9294H27.9247V18.545H38.2496V31.7376C35.6286 33.5121 32.1741 34.3992 27.8849 34.3992Z" fill="#001A3D"/>
<path d="M39.6436 15.0197H45.4413V17.7209C46.2093 16.8075 47.2813 16.1159 48.658 15.6461C50.0346 15.1503 51.597 14.9023 53.3439 14.9023V19.4042C51.5173 19.4042 49.9023 19.6782 48.4992 20.2263C47.1227 20.7743 46.1694 21.6095 45.6398 22.7317V33.8104H39.6436V15.0197Z" fill="#001A3D"/>
<path d="M64.8681 34.4002C61.2145 34.4002 58.3416 33.5392 56.2502 31.8166C54.159 30.0682 53.1133 27.628 53.1133 24.4963C53.1133 21.3906 54.04 18.9375 55.8929 17.1367C57.7727 15.3359 60.4464 14.4355 63.915 14.4355C66.1915 14.4355 68.1241 14.8531 69.7128 15.6882C71.3009 16.5234 72.506 17.6847 73.3267 19.1722C74.1474 20.6338 74.5575 22.291 74.5575 24.1439V26.532H58.832C59.2556 28.9329 61.5319 30.1334 65.6619 30.1334C66.8798 30.1334 68.1375 30.0291 69.4345 29.8203C70.7322 29.6115 71.8574 29.3243 72.8106 28.959V33.1085C71.8839 33.5 70.6923 33.8135 69.236 34.048C67.7802 34.283 66.3239 34.4002 64.8681 34.4002ZM68.8785 22.6956C68.7996 21.4428 68.3226 20.4772 67.4492 19.7986C66.5757 19.094 65.3708 18.7417 63.8353 18.7417C62.3263 18.7417 61.1348 19.094 60.2613 19.7986C59.3879 20.5033 58.9111 21.4689 58.832 22.6956H68.8785Z" fill="#001A3D"/>
<path d="M86.8487 34.4002C83.1955 34.4002 80.3228 33.5392 78.2314 31.8166C76.14 30.0682 75.0938 27.628 75.0938 24.4963C75.0938 21.3906 76.0205 18.9375 77.8741 17.1367C79.7534 15.3359 82.4276 14.4355 85.8956 14.4355C88.1726 14.4355 90.1052 14.8531 91.694 15.6882C93.2821 16.5234 94.4864 17.6847 95.3072 19.1722C96.1279 20.6338 96.5386 22.291 96.5386 24.1439V26.532H80.8124C81.236 28.9329 83.5131 30.1334 87.6431 30.1334C88.861 30.1334 90.1187 30.0291 91.4157 29.8203C92.7126 29.6115 93.838 29.3243 94.7911 28.959V33.1085C93.8643 33.5 92.6734 33.8135 91.217 34.048C89.7608 34.283 88.305 34.4002 86.8487 34.4002ZM90.8597 22.6956C90.78 21.4428 90.3038 20.4772 89.4303 19.7986C88.5563 19.094 87.3518 18.7417 85.8165 18.7417C84.3074 18.7417 83.1158 19.094 82.2425 19.7986C81.3685 20.5033 80.8921 21.4689 80.8124 22.6956H90.8597Z" fill="#001A3D"/>
<path d="M97.8706 15.0228H103.668V17.3325C104.542 16.3669 105.575 15.649 106.766 15.1793C107.984 14.6835 109.255 14.4355 110.578 14.4355C113.174 14.4355 115.106 15.1271 116.376 16.5103C117.673 17.8674 118.323 19.7073 118.323 22.03V33.8135H112.326V22.6956C112.326 20.2684 111.187 19.0549 108.91 19.0549C107.904 19.0549 106.965 19.3028 106.091 19.7986C105.217 20.2684 104.476 20.9732 103.867 21.9125V33.8135H97.8706V15.0228Z" fill="#001A3D"/>
<path d="M123.613 12.125C122.687 12.125 121.906 11.8249 121.271 11.2246C120.634 10.6244 120.317 9.86751 120.317 8.95407C120.317 8.06677 120.634 7.32298 121.271 6.7227C121.906 6.09637 122.687 5.7832 123.613 5.7832C124.54 5.7832 125.321 6.09637 125.956 6.7227C126.592 7.32298 126.909 8.06677 126.909 8.95407C126.909 9.86751 126.592 10.6244 125.956 11.2246C125.321 11.8249 124.54 12.125 123.613 12.125ZM120.595 15.0218H126.631V33.8126H120.595V15.0218Z" fill="#001A3D"/>
<path d="M136.856 34.4002C135.426 34.4002 133.892 34.2437 132.25 33.9308C130.635 33.6437 129.364 33.2263 128.438 32.6781V28.0586C129.496 28.685 130.767 29.1939 132.25 29.5854C133.732 29.9769 135.109 30.1725 136.38 30.1725C137.465 30.1725 138.26 30.0813 138.762 29.8985C139.265 29.7158 139.517 29.3766 139.517 28.8808C139.517 28.4893 139.371 28.1762 139.081 27.9413C138.79 27.6803 138.339 27.4583 137.73 27.2758C137.148 27.067 136.168 26.7667 134.791 26.3754C133.177 25.9056 131.906 25.4359 130.979 24.9661C130.079 24.4701 129.39 23.8569 128.914 23.1262C128.464 22.3955 128.238 21.4558 128.238 20.3075C128.238 18.3502 129.019 16.8888 130.582 15.9232C132.17 14.9314 134.315 14.4355 137.016 14.4355C138.339 14.4355 139.703 14.5791 141.106 14.8662C142.536 15.1271 143.634 15.4795 144.401 15.9232V20.425C143.634 19.9292 142.629 19.5246 141.384 19.2115C140.165 18.8982 138.974 18.7417 137.81 18.7417C136.723 18.7417 135.877 18.8461 135.268 19.0549C134.686 19.2637 134.394 19.6552 134.394 20.2293C134.394 20.7251 134.673 21.1036 135.228 21.3645C135.81 21.6255 136.883 21.9518 138.445 22.3432L139.239 22.5389C140.907 22.9826 142.204 23.4784 143.13 24.0266C144.058 24.5485 144.707 25.1879 145.078 25.9447C145.475 26.6754 145.672 27.6019 145.672 28.7242C145.672 30.4468 144.918 31.8299 143.41 32.874C141.9 33.8915 139.716 34.4002 136.856 34.4002Z" fill="#001A3D"/>
<path d="M147.06 4.88086H153.056V17.173C153.957 16.2596 154.977 15.5811 156.114 15.1374C157.252 14.6676 158.471 14.4327 159.768 14.4327C162.362 14.4327 164.295 15.1243 165.566 16.5075C166.863 17.8646 167.512 19.7045 167.512 22.0272V33.8106H161.516V22.6928C161.516 20.2656 160.376 19.0521 158.1 19.0521C157.094 19.0521 156.154 19.3 155.28 19.7958C154.407 20.2656 153.665 20.9702 153.056 21.9097V33.8106H147.06V4.88086Z" fill="#001A3D"/>
<path fill-rule="evenodd" clip-rule="evenodd" d="M-7.60519 10.4217C-7.60519 15.3943 -11.6942 19.4255 -16.7385 19.4255C-21.7831 19.4255 -25.8724 15.3943 -25.8724 10.4217C-25.8724 5.44909 -21.7831 1.41797 -16.7385 1.41797C-11.6942 1.41797 -7.60519 5.44909 -7.60519 10.4217ZM-37.9844 18.7711C-28.0334 18.11 -19.3609 25.4542 -18.5531 35.2847C-18.4693 36.3033 -18.4734 37.3086 -18.5587 38.2945C-28.5098 38.9556 -37.1824 31.6112 -37.9902 21.7811C-38.0739 20.7625 -38.0699 19.7567 -37.9844 18.7711ZM-12.1204 37.9502C-2.14826 37.1538 5.30204 28.6046 4.63123 18.7952C3.63134 18.711 2.61139 18.7071 1.57806 18.7895C-8.39422 19.5859 -15.8444 28.135 -15.1736 37.9444C-14.1738 38.0287 -13.1537 38.0328 -12.1204 37.9502Z" fill="#001A3D"/>
</g>
<defs>
<clipPath id="clip0_641_934">
<rect width="206.492" height="39.1223" fill="white" transform="translate(-38.416)"/>
</clipPath>
</defs>
</svg>
