<svg width="190" height="41" viewBox="0 0 190 41" fill="none" xmlns="http://www.w3.org/2000/svg">
<g clip-path="url(#clip0_641_979)">
<path d="M153.631 3.19336V37.5147H158.726V3.19336H153.631Z" fill="#001A3D"/>
<path fill-rule="evenodd" clip-rule="evenodd" d="M107.555 38.0674C105.544 38.0674 103.865 37.6057 102.516 36.6822C102.368 36.5815 102.225 36.4763 102.085 36.3672V37.5133H97.5886V3.74609H102.722V18.212C103.981 17.4139 105.505 17.0147 107.293 17.0147C109.229 17.0147 110.915 17.4702 112.351 18.3812C113.787 19.2923 114.899 20.5419 115.685 22.1301C116.485 23.706 116.884 25.5097 116.884 27.5409C116.884 29.5354 116.491 31.3268 115.704 32.9151C114.93 34.5032 113.843 35.759 112.445 36.6822C111.046 37.6057 109.416 38.0674 107.555 38.0674ZM102.534 24.3647C102.234 25.2756 102.085 26.3343 102.085 27.5409C102.085 28.7473 102.234 29.8065 102.534 30.7173C102.834 31.6286 103.321 32.3361 103.995 32.8412C104.682 33.3459 105.594 33.598 106.731 33.598C107.83 33.598 108.729 33.3275 109.429 32.7859C110.128 32.2441 110.646 31.5177 110.983 30.6065C111.321 29.6833 111.489 28.6615 111.489 27.5409C111.489 26.4328 111.314 25.4235 110.965 24.5127C110.615 23.5891 110.072 22.8565 109.335 22.3147C108.61 21.7608 107.68 21.4837 106.543 21.4837C105.482 21.4837 104.62 21.7361 103.958 22.241C103.309 22.7456 102.834 23.4535 102.534 24.3647Z" fill="#001A3D"/>
<path d="M89.5319 25.7324V37.5147H94.6272V24.4031C94.6272 22.2238 94.034 20.4632 92.8475 19.1213C91.6736 17.7671 89.9313 17.0898 87.621 17.0898C86.2721 17.0898 85.0418 17.3853 83.9304 17.9763C82.9128 18.5122 82.0825 19.2484 81.4397 20.1854C80.9603 19.335 80.2979 18.6356 79.4529 18.0872C78.4415 17.4222 77.1425 17.0898 75.5566 17.0898C74.1702 17.0898 72.9149 17.3915 71.791 17.9947C70.9416 18.4558 70.2234 19.0426 69.6363 19.7552V17.57H65.1406V37.5147H70.2734V25.4371C70.2734 24.2921 70.592 23.3626 71.2291 22.6485C71.8785 21.9222 72.7337 21.5589 73.7953 21.5589C74.9071 21.5589 75.7748 21.9283 76.3993 22.6669C77.0363 23.3935 77.3549 24.4154 77.3549 25.7324V37.5147H82.4502V25.4371C82.4502 24.6736 82.594 24.0026 82.8815 23.4242C83.1809 22.8331 83.593 22.3776 84.1179 22.0577C84.6424 21.7251 85.2605 21.5589 85.9725 21.5589C87.0841 21.5589 87.9518 21.9283 88.5762 22.6669C89.2131 23.3935 89.5319 24.4154 89.5319 25.7324Z" fill="#001A3D"/>
<path d="M46.8838 37.3117C47.8828 37.841 49.1754 38.1059 50.7618 38.1059C52.7473 38.1059 54.39 37.6813 55.6888 36.8317C56.3053 36.4326 56.8485 35.9745 57.3185 35.4583V37.515H61.8148V17.5703H56.6816V27.6902C56.6816 28.9214 56.5379 29.9186 56.2509 30.6819C55.9759 31.4331 55.6202 32.0056 55.1826 32.3994C54.7457 32.7813 54.2774 33.0396 53.778 33.175C53.2785 33.3107 52.8099 33.3783 52.3729 33.3783C51.2863 33.3783 50.4432 33.1381 49.8436 32.658C49.2567 32.178 48.8323 31.5809 48.5698 30.8668C48.3077 30.1526 48.1516 29.4447 48.1015 28.7428C48.0515 28.0292 48.0265 27.4443 48.0265 26.9885V17.5703H42.8562V28.7613C42.8562 29.094 42.8808 29.6233 42.9308 30.3498C42.9808 31.0762 43.1245 31.8824 43.362 32.769C43.599 33.6429 43.9928 34.4864 44.5422 35.2991C45.1042 36.1114 45.8848 36.7824 46.8838 37.3117Z" fill="#001A3D"/>
<path d="M119.132 17.5685V37.5132H124.265V27.3192C124.265 26.5559 124.371 25.8725 124.584 25.2692C124.796 24.6537 125.108 24.1243 125.52 23.6812C125.933 23.2255 126.439 22.8624 127.038 22.5916C127.637 22.3085 128.306 22.1421 129.043 22.093C129.792 22.0314 130.447 22.0868 131.009 22.2592V17.5685C130.397 17.4946 129.785 17.4822 129.173 17.5315C128.561 17.5685 127.968 17.6731 127.394 17.8455C126.819 18.0056 126.288 18.2333 125.801 18.5288C125.165 18.8982 124.627 19.3659 124.191 19.9323C123.983 20.2004 123.796 20.4823 123.628 20.7779V17.5685H119.132Z" fill="#001A3D"/>
<path fill-rule="evenodd" clip-rule="evenodd" d="M141.739 38.0682C139.666 38.0682 137.836 37.6313 136.251 36.757C134.677 35.8708 133.44 34.6582 132.541 33.1189C131.654 31.568 131.211 29.7951 131.211 27.8005C131.211 25.6215 131.648 23.7255 132.522 22.1127C133.396 20.4998 134.602 19.2502 136.138 18.3638C137.674 17.4651 139.442 17.0156 141.439 17.0156C143.563 17.0156 145.368 17.5081 146.854 18.493C148.34 19.4779 149.439 20.8629 150.15 22.6482C150.863 24.4335 151.113 26.5323 150.901 28.9455H136.694C136.853 30.1427 137.23 31.1152 137.824 31.8631C138.648 32.873 139.854 33.3777 141.439 33.3777C142.439 33.3777 143.294 33.1621 144.006 32.7313C144.718 32.3006 145.261 31.6788 145.636 30.8661L150.732 32.3066C149.97 34.1287 148.765 35.5444 147.115 36.5537C145.48 37.5635 143.688 38.0682 141.739 38.0682ZM144.868 22.722C145.303 23.3052 145.596 24.1365 145.745 25.2149H136.828C137.026 24.294 137.358 23.5367 137.824 22.9437C138.648 21.8971 139.929 21.3738 141.664 21.3738C143.151 21.3738 144.218 21.8233 144.868 22.722Z" fill="#001A3D"/>
<path d="M162.843 37.5147V3.19336H167.94V37.5147H162.843Z" fill="#001A3D"/>
<path fill-rule="evenodd" clip-rule="evenodd" d="M173.612 37.2556C174.624 37.7972 175.854 38.0682 177.303 38.0682C179.051 38.0682 180.493 37.7726 181.63 37.1816C182.536 36.706 183.391 36.0011 184.197 35.0661V37.5143H188.656V25.3258C188.656 24.415 188.618 23.5899 188.542 22.8514C188.468 22.1127 188.231 21.3738 187.831 20.6352C187.118 19.3056 186.07 18.37 184.684 17.8282C183.297 17.2864 181.712 17.0156 179.925 17.0156C177.49 17.0156 175.567 17.5328 174.155 18.5669C172.744 19.601 171.783 20.9431 171.271 22.5927L175.879 24.033C176.203 23.1222 176.772 22.4881 177.583 22.1311C178.395 21.7741 179.176 21.5955 179.925 21.5955C181.274 21.5955 182.235 21.8726 182.81 22.4265C183.262 22.8617 183.535 23.4901 183.633 24.3125C182.769 24.4415 181.952 24.5638 181.181 24.6794C179.869 24.8643 178.694 25.0613 177.659 25.2704C176.622 25.4798 175.729 25.72 174.979 25.9907C173.893 26.3845 173.025 26.8773 172.376 27.4682C171.738 28.047 171.277 28.7175 170.989 29.4809C170.702 30.2443 170.558 31.0879 170.558 32.0111C170.558 33.1189 170.814 34.1345 171.326 35.0581C171.851 35.9689 172.613 36.7015 173.612 37.2556ZM180.749 33.6359C180.112 33.9563 179.326 34.1164 178.389 34.1164C177.802 34.1164 177.296 34.0302 176.871 33.8578C176.448 33.6852 176.116 33.4393 175.879 33.1189C175.654 32.7867 175.542 32.3924 175.542 31.937C175.542 31.6049 175.61 31.3029 175.748 31.0324C175.897 30.7613 176.122 30.5154 176.422 30.2936C176.734 30.0596 177.14 29.8444 177.64 29.6472C178.076 29.4871 178.582 29.3393 179.157 29.2041C179.731 29.0686 180.487 28.9208 181.424 28.7606C182.026 28.6502 182.746 28.5238 183.585 28.3827C183.573 28.7338 183.553 29.1306 183.522 29.5733C183.484 30.2875 183.335 30.9153 183.073 31.457C182.935 31.74 182.673 32.091 182.286 32.5095C181.911 32.928 181.399 33.3038 180.749 33.6359Z" fill="#001A3D"/>
<path fill-rule="evenodd" clip-rule="evenodd" d="M14.7346 17.7122H0.897217V23.6524C0.897217 32.5223 8.19157 39.713 17.1896 39.713C26.1877 39.713 33.4823 32.5223 33.4823 23.6524V17.7122H19.1984V8.25189C19.1984 4.48518 16.1007 1.43164 12.2796 1.43164C8.4585 1.43164 5.36089 4.48518 5.36089 8.25189H9.82456C9.82456 6.9153 10.9237 5.8318 12.2796 5.8318C13.6355 5.8318 14.7346 6.9153 14.7346 8.25189V17.7122ZM14.7346 22.1125V30.4728H19.1984V22.1125H29.0185V23.6524C29.0185 30.0925 23.7224 35.3129 17.1896 35.3129C10.6568 35.3129 5.36089 30.0925 5.36089 23.6524V22.1125H14.7346Z" fill="#001A3D"/>
</g>
<defs>
<clipPath id="clip0_641_979">
<rect width="189.042" height="40.5713" fill="white" transform="translate(0.703125)"/>
</clipPath>
</defs>
</svg>
