<svg width="48" height="48" viewBox="0 0 48 48" fill="none" xmlns="http://www.w3.org/2000/svg">
<g clip-path="url(#clip0_8988_42426)">
<path d="M28.1914 40.0014C28.2187 40.0016 28.2459 40.0003 28.273 39.9974C37.4564 39.0631 44.3824 31.3852 44.3824 22.1386C44.3824 12.236 36.3269 4.17969 26.4235 4.17969C16.5249 4.17969 8.47266 12.236 8.47266 22.1386C8.47266 22.9601 8.52865 23.7929 8.63985 24.6136C8.66838 24.8239 8.77927 25.0142 8.94812 25.1426C9.11696 25.2711 9.32994 25.3273 9.54019 25.2988C9.75044 25.2702 9.94074 25.1593 10.0692 24.9905C10.1977 24.8216 10.2539 24.6087 10.2253 24.3984C10.124 23.6494 10.0729 22.8944 10.0726 22.1386C10.0726 13.1183 17.4081 5.77959 26.4235 5.77959C35.4446 5.77959 42.7825 13.1183 42.7825 22.1386C42.7825 30.5612 36.4757 37.5544 28.1106 38.4063C27.9079 38.4286 27.7212 38.5274 27.5889 38.6827C27.4567 38.8379 27.3887 39.0379 27.3989 39.2416C27.4091 39.4453 27.4967 39.6374 27.6439 39.7787C27.7911 39.9199 27.9866 39.9996 28.1906 40.0014H28.1914Z" fill="#EB7124"/>
<path d="M26.426 0.5625C14.534 0.5625 4.85938 10.2411 4.85938 22.1371C4.85938 24.5434 5.24895 26.8864 6.0153 29.1023C6.08573 29.3014 6.23205 29.4646 6.42234 29.5563C6.61264 29.648 6.83146 29.6606 7.03107 29.5916C7.23068 29.5225 7.39487 29.3773 7.48781 29.1876C7.58076 28.9979 7.59492 28.7792 7.52721 28.5791C6.81433 26.5064 6.45337 24.329 6.45927 22.1371C6.45927 11.1234 15.4171 2.1624 26.426 2.1624C37.4413 2.1624 46.4008 11.1234 46.4008 22.1371C46.411 26.8389 44.7573 31.3926 41.7323 34.9921C38.7074 38.5916 34.5063 41.0046 29.873 41.8039C29.668 41.8444 29.487 41.9635 29.3687 42.1357C29.2503 42.3079 29.2041 42.5196 29.2398 42.7255C29.2756 42.9314 29.3905 43.1151 29.5599 43.2374C29.7294 43.3597 29.9399 43.4108 30.1466 43.3798C35.1514 42.5165 39.6893 39.9102 42.957 36.0223C46.2246 32.1345 48.0113 27.2158 48.0007 22.1371C48.0007 10.2419 38.3221 0.5625 26.426 0.5625Z" fill="#EB7124"/>
<path d="M26.4277 9.03906C26.2155 9.03906 26.0121 9.12334 25.8621 9.27336C25.712 9.42338 25.6278 9.62685 25.6278 9.83901V22.1358C25.6278 22.4078 25.7661 22.6614 25.9957 22.8086L34.216 28.0883C34.3044 28.1471 34.4036 28.1877 34.5079 28.2078C34.6121 28.2279 34.7193 28.227 34.8233 28.2052C34.9272 28.1835 35.0257 28.1412 35.1131 28.081C35.2006 28.0207 35.2751 27.9437 35.3325 27.8543C35.3898 27.765 35.4288 27.6651 35.4471 27.5605C35.4655 27.4559 35.4628 27.3488 35.4393 27.2452C35.4158 27.1417 35.3719 27.0439 35.3102 26.9575C35.2485 26.871 35.1703 26.7978 35.08 26.7419L27.2277 21.6983V9.83901C27.2277 9.62685 27.1434 9.42338 26.9934 9.27336C26.8433 9.12334 26.6399 9.03906 26.4277 9.03906ZM3.54115 47.4174H25.0454C25.6746 47.4219 26.2934 47.2563 26.8362 46.938C27.379 46.6198 27.8258 46.1608 28.1292 45.6096C28.4405 45.0622 28.5978 44.4408 28.5846 43.8113C28.5713 43.1818 28.388 42.5676 28.054 42.0338L17.3019 24.5565C16.6539 23.5037 15.5292 22.875 14.2925 22.875C13.0557 22.875 11.931 23.5037 11.2839 24.5565L0.530938 42.0338C-0.149019 43.1393 -0.177817 44.4752 0.455743 45.6088C1.0893 46.7423 2.24283 47.4174 3.54115 47.4174ZM1.89325 42.8721L12.6462 25.394C13.0006 24.8181 13.6165 24.4741 14.2925 24.4741C14.9684 24.4741 15.5852 24.8181 15.9396 25.394L26.6917 42.8721C27.0637 43.4769 27.0797 44.208 26.7325 44.828C26.5667 45.13 26.3222 45.3815 26.0251 45.5558C25.7279 45.7302 25.3891 45.8209 25.0446 45.8183H3.54195C3.19745 45.8208 2.85869 45.7301 2.56155 45.5557C2.26441 45.3814 2.01995 45.1299 1.85405 44.828C1.68372 44.5287 1.59751 44.1889 1.60455 43.8446C1.61159 43.5002 1.71083 43.1642 1.89325 42.8721Z" fill="#EB7124"/>
<path d="M14.2921 38.873C14.5043 38.873 14.7078 38.7887 14.8578 38.6387C15.0078 38.4887 15.0921 38.2852 15.0921 38.0731V31.2687C15.0921 31.0565 15.0078 30.8531 14.8578 30.703C14.7078 30.553 14.5043 30.4688 14.2921 30.4688C14.08 30.4688 13.8765 30.553 13.7265 30.703C13.5765 30.8531 13.4922 31.0565 13.4922 31.2687V38.0731C13.4922 38.2852 13.5765 38.4887 13.7265 38.6387C13.8765 38.7887 14.08 38.873 14.2921 38.873ZM14.2921 42.7384C14.5043 42.7384 14.7078 42.6541 14.8578 42.5041C15.0078 42.3541 15.0921 42.1506 15.0921 41.9384V41.6632C15.0921 41.4511 15.0078 41.2476 14.8578 41.0976C14.7078 40.9476 14.5043 40.8633 14.2921 40.8633C14.08 40.8633 13.8765 40.9476 13.7265 41.0976C13.5765 41.2476 13.4922 41.4511 13.4922 41.6632V41.9384C13.4922 42.1506 13.5765 42.3541 13.7265 42.5041C13.8765 42.6541 14.08 42.7384 14.2921 42.7384Z" fill="#EB7124"/>
</g>
<defs>
<clipPath id="clip0_8988_42426">
<rect width="48" height="48" fill="white"/>
</clipPath>
</defs>
</svg>
