<svg width="48" height="48" viewBox="0 0 48 48" fill="none" xmlns="http://www.w3.org/2000/svg">
<g clip-path="url(#clip0_8988_42418)">
<path d="M35.2479 8.38719C33.9327 9.21818 32.923 10.4539 32.3709 11.9084C31.8188 13.3629 31.7542 14.9574 32.1867 16.4518C32.6193 17.9462 33.5256 19.2597 34.7692 20.1944C36.0129 21.1291 37.5265 21.6345 39.0823 21.6345C40.638 21.6345 42.1517 21.1291 43.3953 20.1944C44.6389 19.2597 45.5453 17.9462 45.9778 16.4518C46.4104 14.9574 46.3457 13.3629 45.7936 11.9084C45.2415 10.4539 44.2319 9.21818 42.9166 8.38719L40.8927 4.84616C41.1327 4.56795 41.3054 4.23818 41.3974 3.88244C41.4893 3.52671 41.4981 3.15456 41.423 2.79488C41.348 2.4352 41.191 2.09765 40.9644 1.80842C40.7378 1.51919 40.4476 1.28606 40.1163 1.12711C39.785 0.968156 39.4216 0.887661 39.0542 0.891868C38.6868 0.896075 38.3253 0.984869 37.9977 1.15136C37.6702 1.31786 37.3854 1.55757 37.1654 1.85191C36.9455 2.14626 36.7963 2.48731 36.7295 2.84862L26.8538 4.40806C26.6777 4.00457 26.4204 3.64166 26.0979 3.34196C25.7754 3.04225 25.3947 2.81218 24.9794 2.66606L24.7177 0.781687C24.6913 0.590975 24.5967 0.416277 24.4515 0.289837C24.3063 0.163397 24.1202 0.09375 23.9277 0.09375C23.7352 0.09375 23.5491 0.163397 23.4039 0.289837C23.2587 0.416277 23.1641 0.590975 23.1377 0.781687L22.876 2.66606C22.3011 2.86779 21.7957 3.22961 21.4195 3.70892C21.0432 4.18823 20.8118 4.76506 20.7524 5.37149L10.8764 6.93084C10.7167 6.63523 10.4965 6.3766 10.2302 6.17178C9.9638 5.96695 9.65729 5.82054 9.33058 5.74208C9.00387 5.66362 8.6643 5.65486 8.33398 5.71638C8.00366 5.77791 7.69001 5.90833 7.41346 6.09915C7.1369 6.28997 6.90365 6.53692 6.7289 6.8239C6.55415 7.11087 6.44181 7.43145 6.39922 7.76474C6.35662 8.09802 6.38471 8.43655 6.48167 8.75825C6.57862 9.07996 6.74226 9.37763 6.96193 9.63188L4.93797 13.1729C3.62275 14.0039 2.61308 15.2397 2.06098 16.6941C1.50888 18.1486 1.44424 19.7431 1.87679 21.2375C2.30934 22.7319 3.21566 24.0454 4.4593 24.9801C5.70294 25.9148 7.21658 26.4202 8.77233 26.4202C10.3281 26.4202 11.8417 25.9148 13.0854 24.9801C14.329 24.0454 15.2353 22.7319 15.6679 21.2375C16.1004 19.7431 16.0358 18.1486 15.4837 16.6941C14.9316 15.2397 13.9219 14.0039 12.6067 13.1729L10.5827 9.63188C10.8599 9.31151 11.0468 8.92308 11.1241 8.50653L21.0003 6.94719C21.2355 7.48547 21.6138 7.94891 22.0942 8.28699L19.1494 29.4965C19.1337 29.6094 19.1424 29.7244 19.1749 29.8337C19.2074 29.9429 19.263 30.044 19.3379 30.13C19.4127 30.2159 19.5052 30.2849 19.6089 30.3321C19.7127 30.3793 19.8254 30.4038 19.9394 30.4038H27.9156C28.0296 30.4038 28.1423 30.3793 28.2461 30.3321C28.3498 30.2849 28.4423 30.2159 28.5171 30.13C28.592 30.044 28.6476 29.9429 28.6801 29.8337C28.7126 29.7244 28.7213 29.6094 28.7056 29.4965L25.7599 8.28699C26.1366 8.02264 26.4517 7.67994 26.6835 7.2824C26.9153 6.88486 27.0584 6.44189 27.1029 5.98386L36.9785 4.42432C37.0607 4.575 37.1589 4.71643 37.2713 4.84616L35.2479 8.38719ZM8.77273 7.27282C8.93048 7.27282 9.08469 7.3196 9.21586 7.40724C9.34703 7.49488 9.44926 7.61945 9.50963 7.7652C9.57 7.91095 9.5858 8.07132 9.55502 8.22604C9.52424 8.38077 9.44828 8.52289 9.33673 8.63444C9.22518 8.74599 9.08306 8.82195 8.92833 8.85273C8.77361 8.88351 8.61324 8.86771 8.46749 8.80734C8.32174 8.74697 8.19717 8.64474 8.10953 8.51357C8.02189 8.3824 7.97511 8.22819 7.97511 8.07044C7.97534 7.85897 8.05946 7.65623 8.20899 7.5067C8.35852 7.35716 8.56126 7.27305 8.77273 7.27282ZM14.3561 19.2371C14.3561 20.3414 14.0286 21.4209 13.4151 22.339C12.8016 23.2572 11.9296 23.9729 10.9094 24.3954C9.88916 24.818 8.76653 24.9286 7.68347 24.7132C6.60041 24.4977 5.60555 23.966 4.82471 23.1851C4.04387 22.4043 3.51211 21.4094 3.29667 20.3264C3.08124 19.2433 3.19181 18.1207 3.6144 17.1005C4.03698 16.0802 4.75262 15.2082 5.67079 14.5947C6.58897 13.9812 7.66845 13.6538 8.77273 13.6538C10.253 13.6555 11.6722 14.2442 12.7189 15.291C13.7656 16.3377 14.3544 17.7568 14.3561 19.2371ZM8.77273 12.0585C8.28784 12.0583 7.80418 12.1072 7.32914 12.2044L8.3461 10.4245C8.6281 10.4762 8.91715 10.4762 9.19915 10.4245L10.2161 12.2044C9.74114 12.1072 9.25755 12.0583 8.77273 12.0585ZM23.9275 4.08234C24.243 4.08234 24.5514 4.1759 24.8138 4.35118C25.0761 4.52647 25.2806 4.77561 25.4013 5.0671C25.522 5.3586 25.5536 5.67935 25.4921 5.98879C25.4305 6.29824 25.2786 6.58248 25.0555 6.80558C24.8324 7.02868 24.5482 7.18061 24.2387 7.24216C23.9293 7.30372 23.6085 7.27213 23.317 7.15139C23.0255 7.03065 22.7764 6.82618 22.6011 6.56384C22.4258 6.30151 22.3323 5.99308 22.3323 5.67758C22.3328 5.25465 22.501 4.84918 22.8 4.55013C23.0991 4.25107 23.5046 4.08284 23.9275 4.08234ZM26.9995 28.8085H20.8555L23.6272 8.8535C23.7262 8.86277 23.8266 8.86806 23.9277 8.86806C24.0288 8.86806 24.1292 8.86277 24.2282 8.8535L26.9995 28.8085ZM44.6656 14.4514C44.6656 15.5557 44.3382 16.6352 43.7246 17.5533C43.1111 18.4715 42.2391 19.1871 41.2189 19.6097C40.1987 20.0323 39.0761 20.1429 37.993 19.9274C36.91 19.712 35.9151 19.1803 35.1343 18.3994C34.3534 17.6186 33.8217 16.6237 33.6062 15.5406C33.3908 14.4576 33.5014 13.335 33.9239 12.3147C34.3465 11.2945 35.0622 10.4225 35.9803 9.80902C36.8985 9.19551 37.978 8.86806 39.0823 8.86806C40.5625 8.86974 41.9817 9.45853 43.0284 10.5052C44.0751 11.552 44.6639 12.9711 44.6656 14.4514ZM39.0823 7.27282C38.5974 7.27259 38.1137 7.32146 37.6387 7.41868L38.6556 5.63879C38.9376 5.6905 39.2267 5.6905 39.5087 5.63879L40.5257 7.41868C40.0507 7.32147 39.5671 7.2726 39.0823 7.27282ZM39.0823 2.4871C39.24 2.4871 39.3942 2.53388 39.5254 2.62152C39.6566 2.70916 39.7588 2.83374 39.8192 2.97948C39.8795 3.12523 39.8953 3.2856 39.8646 3.44033C39.8338 3.59505 39.7578 3.73717 39.6463 3.84872C39.5347 3.96027 39.3926 4.03623 39.2379 4.06701C39.0832 4.09779 38.9228 4.08199 38.777 4.02162C38.6313 3.96125 38.5067 3.85902 38.4191 3.72785C38.3314 3.59668 38.2847 3.44247 38.2847 3.28472C38.2849 3.07325 38.369 2.87051 38.5185 2.72098C38.6681 2.57145 38.8708 2.48733 39.0823 2.4871Z" fill="#EB7124"/>
<path d="M6.94497 19.4676C6.87091 19.3936 6.78297 19.3348 6.6862 19.2947C6.58943 19.2546 6.4857 19.234 6.38096 19.234C6.27621 19.234 6.17249 19.2546 6.07571 19.2947C5.97894 19.3348 5.89101 19.3936 5.81694 19.4676C5.74287 19.5417 5.68412 19.6296 5.64403 19.7264C5.60395 19.8232 5.58332 19.9269 5.58332 20.0316C5.58332 20.1364 5.60395 20.2401 5.64403 20.3369C5.68412 20.4337 5.74287 20.5216 5.81694 20.5957L7.41218 22.1909C7.48625 22.265 7.57418 22.3237 7.67095 22.3638C7.76773 22.4039 7.87145 22.4245 7.9762 22.4245C8.08094 22.4245 8.18467 22.4039 8.28144 22.3638C8.37822 22.3237 8.46615 22.265 8.54021 22.1909L12.5283 18.2028C12.6779 18.0532 12.7619 17.8503 12.7619 17.6388C12.7619 17.4272 12.6779 17.2244 12.5283 17.0748C12.3787 16.9252 12.1758 16.8412 11.9643 16.8412C11.7527 16.8412 11.5499 16.9252 11.4003 17.0748L7.9762 20.499L6.94497 19.4676ZM37.2545 11.4914C37.1049 11.3418 36.9021 11.2578 36.6905 11.2578C36.479 11.2578 36.2761 11.3418 36.1265 11.4914C35.9769 11.641 35.8929 11.8439 35.8929 12.0555C35.8929 12.267 35.9769 12.4699 36.1265 12.6195L37.9554 14.4483L36.1265 16.2772C35.9769 16.4267 35.8929 16.6296 35.8929 16.8412C35.8929 17.0527 35.9769 17.2556 36.1265 17.4052C36.2761 17.5548 36.479 17.6388 36.6905 17.6388C36.9021 17.6388 37.1049 17.5548 37.2545 17.4052L39.0834 15.5762L40.9122 17.4052C41.0618 17.5548 41.2647 17.6388 41.4762 17.6388C41.6878 17.6388 41.8907 17.5548 42.0402 17.4052C42.1898 17.2556 42.2739 17.0527 42.2739 16.8412C42.2739 16.6296 42.1898 16.4267 42.0402 16.2772L40.2113 14.4483L42.0402 12.6195C42.1143 12.5454 42.1731 12.4575 42.2131 12.3607C42.2532 12.2639 42.2739 12.1602 42.2739 12.0555C42.2739 11.9507 42.2532 11.847 42.2131 11.7502C42.1731 11.6534 42.1143 11.5655 42.0402 11.4914C41.9662 11.4174 41.8782 11.3586 41.7815 11.3185C41.6847 11.2784 41.581 11.2578 41.4762 11.2578C41.3715 11.2578 41.2678 11.2784 41.171 11.3185C41.0742 11.3586 40.9863 11.4174 40.9122 11.4914L39.0834 13.3204L37.2545 11.4914ZM47.7811 36.7459C47.503 36.0537 46.9824 35.4865 46.3165 35.1503C45.6506 34.8141 44.8851 34.7319 44.163 34.9191L28.0056 39.1346L24.4005 37.6925L26.3951 37.1962C27.0226 37.0395 27.5692 36.6548 27.9286 36.1171C28.2879 35.5793 28.4342 34.9271 28.3389 34.2874C28.2436 33.6477 27.9135 33.0664 27.413 32.6568C26.9126 32.2472 26.2775 32.0385 25.6316 32.0715L11.9798 32.7936L8.77382 32.7912V31.9959C8.77382 31.7844 8.68978 31.5815 8.5402 31.4319C8.39062 31.2824 8.18774 31.1983 7.9762 31.1983H0.79762C0.586078 31.1983 0.3832 31.2824 0.233617 31.4319C0.0840347 31.5815 0 31.7844 0 31.9959V46.3531C0 46.5646 0.0840347 46.7675 0.233617 46.9171C0.3832 47.0667 0.586078 47.1507 0.79762 47.1507H7.9762C8.18774 47.1507 8.39062 47.0667 8.5402 46.9171C8.68978 46.7675 8.77382 46.5646 8.77382 46.3531V45.4503L13.5595 44.771L26.9729 47.9271C27.1288 47.9637 27.292 47.9526 27.4415 47.8952L46.036 40.7434C46.4148 40.5978 46.7608 40.3783 47.054 40.0978C47.3473 39.8173 47.5819 39.4814 47.7442 39.1094C47.9065 38.7375 47.9933 38.3371 47.9996 37.9313C48.0059 37.5256 47.9315 37.1226 47.7808 36.7459H47.7811ZM7.17858 45.5555H1.59524V32.7936H7.17858V45.5555ZM46.2824 38.4713C46.205 38.6499 46.0928 38.8112 45.9521 38.9457C45.8115 39.0802 45.6454 39.1852 45.4635 39.2545L27.0991 46.3179L13.7789 43.1839C13.6823 43.161 13.5824 43.1565 13.4842 43.1706L8.77382 43.8391V34.3864L12 34.3888C12.0136 34.3888 12.0285 34.3888 12.0428 34.3877L25.7133 33.6643C25.8956 33.6551 26.077 33.6957 26.2381 33.7817C26.3991 33.8677 26.5338 33.9958 26.6277 34.1524C26.7216 34.3089 26.7712 34.4881 26.7711 34.6707C26.7711 34.8532 26.7215 35.0324 26.6275 35.1889C26.5598 35.3025 26.4703 35.4015 26.3641 35.4802C26.2579 35.5589 26.1371 35.6158 26.0088 35.6475L18.1522 37.6026C18.0499 37.6273 17.9536 37.672 17.8686 37.7341C17.7837 37.7962 17.7119 37.8745 17.6573 37.9645C17.6028 38.0544 17.5666 38.1543 17.5508 38.2583C17.535 38.3624 17.54 38.4685 17.5654 38.5706C17.5908 38.6727 17.6361 38.7688 17.6988 38.8533C17.7615 38.9378 17.8403 39.009 17.9307 39.0629C18.0211 39.1168 18.1212 39.1523 18.2253 39.1674C18.3295 39.1824 18.4356 39.1767 18.5375 39.1506L21.7521 38.3507L27.6565 40.7124C27.8147 40.7757 27.9891 40.7866 28.154 40.7436L44.565 36.4624C44.8317 36.3928 45.1126 36.3997 45.3756 36.4823C45.6386 36.5649 45.8731 36.7198 46.0521 36.9293C46.2312 37.1388 46.3477 37.3946 46.3883 37.6672C46.4289 37.9398 46.392 38.2184 46.2817 38.471L46.2824 38.4713Z" fill="#EB7124"/>
</g>
<defs>
<clipPath id="clip0_8988_42418">
<rect width="48" height="48" fill="white"/>
</clipPath>
</defs>
</svg>
