<svg width="48" height="48" viewBox="0 0 48 48" fill="none" xmlns="http://www.w3.org/2000/svg">
<g clip-path="url(#clip0_8988_42414)">
<path d="M0.375 9.66429C0.375 41.1988 20.7383 47.8493 20.9393 47.9096L21.2306 48L21.5219 47.9096C21.6123 47.8794 23.5412 47.2666 26.1933 45.5387C28.3934 47.0557 31.0556 47.9598 33.9288 47.9598C41.4533 47.9598 47.5814 41.8317 47.5814 34.3072C47.5814 29.2842 44.8388 24.8941 40.7902 22.5232C41.6441 18.5751 42.0862 14.2553 42.0862 9.66429V8.55923L40.9912 8.65969C40.8606 8.66974 28.1523 9.76475 22.0544 1.15529L21.2306 0L20.4068 1.15529C14.3089 9.76475 1.60062 8.67978 1.47002 8.66973L0.375 8.55923V9.66429ZM45.5822 34.3072C45.5822 40.7267 40.3583 45.9506 33.9388 45.9506C27.5194 45.9506 22.2955 40.7267 22.2955 34.3072C22.2955 27.8878 27.5194 22.6639 33.9388 22.6639C40.3583 22.6639 45.5822 27.8878 45.5822 34.3072ZM21.2406 3.39556C27.1075 10.4479 36.802 10.8095 40.087 10.7292C40.0267 14.5969 39.6349 18.2436 38.9418 21.6191C37.3947 21.0063 35.717 20.6647 33.9489 20.6647C26.4244 20.6647 20.2963 26.7928 20.2963 34.3173C20.2963 38.2151 21.9439 41.7212 24.5659 44.2126C22.9987 45.1771 21.763 45.6995 21.2306 45.9004C18.7291 44.9862 2.7961 38.1147 2.39425 10.7392C5.66926 10.8095 15.3637 10.4479 21.2406 3.39556Z" fill="#EB7124"/>
<path d="M28.6939 29.2144C28.5232 30.4601 28.7542 31.6757 29.2967 32.7607H26.5742V34.7699H30.1305C30.5625 36.4375 30.5625 39.0595 27.398 41.0085L28.3825 42.7565C29.2766 42.3044 32.1297 41.1793 33.5261 41.9829C34.7216 42.6661 35.9472 43.2086 37.213 43.2086C38.4888 43.2086 39.7848 42.646 41.0807 41.0888L41.7237 40.3153L40.1766 39.0294L39.5336 39.8029C37.9363 41.7117 36.7006 41.4806 34.5206 40.2349C33.5964 39.7025 32.4913 39.6121 31.4365 39.7326C32.3708 38.065 32.4512 36.2868 32.1598 34.7699H37.9765V32.7607H31.5269C31.4265 32.5497 31.326 32.3387 31.2255 32.1579C30.7433 31.3542 30.5525 30.43 30.673 29.4857C30.9141 27.7176 32.3708 26.2609 34.1489 26.0298C35.6659 25.8389 37.1427 26.4819 38.0167 27.7075L38.5993 28.5313L40.2368 27.3659L39.6542 26.5422C38.3482 24.7037 36.1381 23.7293 33.8877 24.0307C32.5732 24.2051 31.3525 24.8071 30.4139 25.7439C29.4753 26.6807 28.8709 27.9002 28.6939 29.2144Z" fill="#EB7124"/>
</g>
<defs>
<clipPath id="clip0_8988_42414">
<rect width="48" height="48" fill="white"/>
</clipPath>
</defs>
</svg>
