<svg width="48" height="48" viewBox="0 0 48 48" fill="none" xmlns="http://www.w3.org/2000/svg">
<g clip-path="url(#clip0_8988_42422)">
<path d="M28.7966 8.67155H26.3886V6.26359C26.3886 6.05071 26.3041 5.84656 26.1535 5.69603C26.003 5.5455 25.7989 5.46094 25.586 5.46094H22.3754C22.1625 5.46094 21.9583 5.5455 21.8078 5.69603C21.6573 5.84656 21.5727 6.05071 21.5727 6.26359V8.67155H19.1648C18.9519 8.67155 18.7477 8.75611 18.5972 8.90664C18.4467 9.05716 18.3621 9.26132 18.3621 9.4742V12.6848C18.3621 12.8977 18.4467 13.1018 18.5972 13.2524C18.7477 13.4029 18.9519 13.4875 19.1648 13.4875H21.5727V15.8954C21.5727 16.1083 21.6573 16.3124 21.8078 16.463C21.9583 16.6135 22.1625 16.6981 22.3754 16.6981H25.586C25.7989 16.6981 26.003 16.6135 26.1535 16.463C26.3041 16.3124 26.3886 16.1083 26.3886 15.8954V13.4875H28.7966C29.0095 13.4875 29.2136 13.4029 29.3641 13.2524C29.5147 13.1018 29.5992 12.8977 29.5992 12.6848V9.4742C29.5992 9.26132 29.5147 9.05716 29.3641 8.90664C29.2136 8.75611 29.0095 8.67155 28.7966 8.67155ZM27.9939 11.8822H25.586C25.3731 11.8822 25.1689 11.9667 25.0184 12.1172C24.8679 12.2678 24.7833 12.4719 24.7833 12.6848V15.0928H23.178V12.6848C23.178 12.4719 23.0935 12.2678 22.9429 12.1172C22.7924 11.9667 22.5882 11.8822 22.3754 11.8822H19.9674V10.2768H22.3754C22.5882 10.2768 22.7924 10.1923 22.9429 10.0418C23.0935 9.89123 23.178 9.68707 23.178 9.4742V7.06624H24.7833V9.4742C24.7833 9.68707 24.8679 9.89123 25.0184 10.0418C25.1689 10.1923 25.3731 10.2768 25.586 10.2768H27.9939V11.8822ZM46.2382 12.9738C46.2545 12.8325 46.2625 12.6905 46.2623 12.5484C46.2584 11.8126 46.0032 11.1003 45.539 10.5295C45.0747 9.95872 44.4294 9.56371 43.7099 9.40999C42.896 9.25507 42.0537 9.41508 41.3533 9.85765C40.6529 10.3002 40.1468 10.9923 39.9374 11.7939L36.4057 21.9554C36.3534 21.9762 36.3025 22.0003 36.2532 22.0277L29.1578 26.1854C28.072 26.8232 27.1715 27.7332 26.545 28.8256C25.9186 29.9179 25.5881 31.1548 25.586 32.414V39.975C25.3731 39.975 25.1689 40.0595 25.0184 40.2101C24.8679 40.3606 24.7833 40.5648 24.7833 40.7776V47.1988C24.7833 47.4117 24.8679 47.6159 25.0184 47.7664C25.1689 47.9169 25.3731 48.0015 25.586 48.0015H36.8231C37.036 48.0015 37.2401 47.9169 37.3907 47.7664C37.5412 47.6159 37.6258 47.4117 37.6258 47.1988V40.7776C37.6258 40.5648 37.5412 40.3606 37.3907 40.2101C37.2401 40.0595 37.036 39.975 36.8231 39.975V38.2091C36.8246 37.8701 36.8968 37.5352 37.035 37.2256C37.1732 36.916 37.3744 36.6387 37.6258 36.4112L43.0517 31.5873C43.6452 31.068 44.07 30.3832 44.2717 29.6208L47.7552 16.5937C47.8296 16.3217 47.8674 16.041 47.8676 15.759C47.8644 15.1925 47.7122 14.6369 47.4262 14.148C47.1402 13.6591 46.7304 13.2541 46.2382 12.9738ZM41.4705 12.2674C41.569 11.8523 41.8203 11.4896 42.1744 11.2516C42.5284 11.0136 42.9592 10.9177 43.3808 10.9832C43.7405 11.0585 44.0636 11.2551 44.2958 11.5399C44.5281 11.8248 44.6556 12.1808 44.657 12.5484V12.5644C43.94 12.5777 43.247 12.8248 42.6834 13.2682C42.1198 13.7115 41.7164 14.3269 41.5347 15.0205L39.2953 21.9314C38.9562 21.7705 38.5927 21.6674 38.2197 21.6263L41.4705 12.2674ZM36.0205 46.3962H26.3886V41.5803H36.0205V46.3962ZM46.2061 16.1763L42.7146 29.2114C42.5938 29.6644 42.3426 30.0719 41.9922 30.3833L36.5582 35.2072C36.1377 35.5864 35.8013 36.0494 35.5704 36.5664C35.3396 37.0834 35.2195 37.6429 35.2178 38.2091V39.975H27.1913V32.414C27.1953 31.4347 27.4532 30.4732 27.94 29.6235C28.4268 28.7737 29.1257 28.0648 29.9685 27.566L37.0559 23.4163C37.2386 23.3098 37.4406 23.2405 37.6502 23.2123C37.8598 23.1841 38.0729 23.1977 38.2773 23.2521C38.4817 23.3066 38.6733 23.4009 38.8411 23.5296C39.0089 23.6583 39.1496 23.8189 39.2551 24.0022C39.4636 24.3731 39.5211 24.81 39.4157 25.2222C39.3599 25.4258 39.2646 25.6163 39.1351 25.783C39.0057 25.9496 38.8446 26.0891 38.6612 26.1934L34.062 28.8502C33.8873 28.9613 33.7622 29.1356 33.713 29.3366C33.6637 29.5377 33.6941 29.75 33.7977 29.9293C33.9013 30.1085 34.0701 30.2408 34.2689 30.2985C34.4678 30.3561 34.6812 30.3348 34.8646 30.2388L39.4638 27.582C39.8314 27.3735 40.1536 27.0934 40.4114 26.7585C40.6692 26.4235 40.8573 26.0404 40.9648 25.6316C41.1833 24.8103 41.0679 23.936 40.6437 23.1995L40.5956 23.1273L43.0758 15.478C43.1743 15.0629 43.4256 14.7002 43.7797 14.4622C44.1337 14.2242 44.5645 14.1283 44.9861 14.1938C45.3458 14.2691 45.6689 14.4657 45.9011 14.7506C46.1334 15.0354 46.2609 15.3914 46.2623 15.759C46.265 15.9001 46.246 16.0409 46.2061 16.1763ZM22.3754 39.975V32.414C22.3733 31.1548 22.0427 29.9179 21.4163 28.8256C20.7899 27.7332 19.8893 26.8232 18.8036 26.1854L11.7081 22.0196C11.66 21.9956 11.6038 21.9795 11.5556 21.9554L8.04803 11.85C7.84417 11.0368 7.33809 10.3318 6.63278 9.87847C5.92748 9.42517 5.07595 9.25764 4.25149 9.40999C3.53198 9.56371 2.88662 9.95872 2.42239 10.5295C1.95816 11.1003 1.70295 11.8126 1.69905 12.5484C1.69885 12.6905 1.70689 12.8325 1.72313 12.9738C1.23092 13.2541 0.821196 13.6591 0.53517 14.148C0.249143 14.6369 0.0968996 15.1925 0.09375 15.759C0.095309 16.0404 0.130337 16.3206 0.198095 16.5937L3.68963 29.6127C3.88916 30.3783 4.31423 31.0663 4.90966 31.5873L10.3276 36.4112C10.5815 36.6371 10.7849 36.9139 10.9246 37.2237C11.0643 37.5335 11.1371 37.8693 11.1382 38.2091V39.975C10.9254 39.975 10.7212 40.0595 10.5707 40.2101C10.4202 40.3606 10.3356 40.5648 10.3356 40.7776V47.1988C10.3356 47.4117 10.4202 47.6159 10.5707 47.7664C10.7212 47.9169 10.9254 48.0015 11.1382 48.0015H22.3754C22.5882 48.0015 22.7924 47.9169 22.9429 47.7664C23.0935 47.6159 23.178 47.4117 23.178 47.1988V40.7776C23.178 40.5648 23.0935 40.3606 22.9429 40.2101C22.7924 40.0595 22.5882 39.975 22.3754 39.975ZM3.30436 12.5484C3.30535 12.1819 3.43169 11.8268 3.66239 11.5421C3.89309 11.2574 4.21426 11.0601 4.57255 10.9832C5.00571 10.9203 5.44662 11.0235 5.80687 11.2721C6.16712 11.5207 6.42006 11.8963 6.51497 12.3236L9.74163 21.6263C9.36863 21.6674 9.00512 21.7705 8.66607 21.9314L6.44273 15.0607C6.26178 14.3601 5.85762 13.7376 5.29139 13.2872C4.72515 12.8368 4.02763 12.5831 3.30436 12.5644V12.5484ZM11.3951 35.2072L5.96916 30.3833C5.61684 30.0702 5.36542 29.6595 5.24678 29.2034L1.74721 16.1763C1.71399 16.0397 1.69781 15.8995 1.69905 15.759C1.70004 15.3925 1.82638 15.0374 2.05708 14.7527C2.28779 14.468 2.60896 14.2707 2.96724 14.1938C3.39736 14.1292 3.83596 14.2299 4.19483 14.4756C4.55371 14.7214 4.80624 15.0938 4.90164 15.5182L7.36578 23.1273L7.31762 23.1995C6.89349 23.936 6.77807 24.8103 6.99656 25.6316C7.10402 26.0404 7.29218 26.4235 7.54995 26.7585C7.80772 27.0934 8.1299 27.3735 8.49752 27.582L13.0967 30.2388C13.2802 30.3348 13.4936 30.3561 13.6924 30.2985C13.8912 30.2408 14.0601 30.1085 14.1637 29.9293C14.2673 29.75 14.2976 29.5377 14.2484 29.3366C14.1991 29.1356 14.0741 28.9613 13.8994 28.8502L9.30017 26.1934C9.11674 26.0891 8.95569 25.9496 8.82623 25.783C8.69676 25.6163 8.60143 25.4258 8.54568 25.2222C8.44023 24.81 8.49772 24.3731 8.70621 24.0022C8.81108 23.8193 8.95095 23.6589 9.11783 23.5301C9.28471 23.4012 9.47533 23.3065 9.67881 23.2514C9.88228 23.1962 10.0946 23.1817 10.3037 23.2086C10.5128 23.2355 10.7146 23.3034 10.8974 23.4082L17.9929 27.566C18.8356 28.0648 19.5345 28.7737 20.0213 29.6235C20.5081 30.4732 20.7661 31.4347 20.7701 32.414V39.975H12.7435V38.2091C12.7422 37.6421 12.6214 37.0818 12.3891 36.5646C12.1567 36.0473 11.818 35.5849 11.3951 35.2072ZM21.5727 46.3962H11.9409V41.5803H21.5727V46.3962Z" fill="#EB7124"/>
<path d="M35.3367 2.35446C34.5915 1.60803 33.7065 1.01586 32.7323 0.61185C31.758 0.207842 30.7137 -7.45329e-05 29.6589 2.00423e-08C28.6042 7.4573e-05 27.5599 0.208139 26.5857 0.612284C25.6115 1.01643 24.7266 1.60872 23.9816 2.35527C23.2366 1.6087 22.3517 1.01641 21.3775 0.61228C20.4034 0.208154 19.3591 0.000136273 18.3044 0.000136273C17.2497 0.000136273 16.2054 0.208154 15.2313 0.61228C14.2571 1.01641 13.3722 1.6087 12.6272 2.35527C11.125 3.86078 10.2812 5.90077 10.2812 8.02761C10.2812 10.1544 11.125 12.1944 12.6272 13.6999L23.4149 24.4876C23.5654 24.6381 23.7695 24.7226 23.9824 24.7226C24.1952 24.7226 24.3993 24.6381 24.5498 24.4876L35.3375 13.6999C36.8397 12.1942 37.6833 10.154 37.6831 8.02704C37.683 5.90007 36.8391 3.86001 35.3367 2.35446ZM23.9816 22.7852L13.7614 12.565C12.8641 11.6665 12.2534 10.5222 12.0064 9.27666C11.7594 8.03113 11.8872 6.74033 12.3737 5.56744C12.8602 4.39455 13.6835 3.39223 14.7396 2.68719C15.7956 1.98214 17.037 1.60603 18.3068 1.60639C19.1503 1.6035 19.9859 1.76858 20.7649 2.09201C21.544 2.41544 22.2508 2.89075 22.8442 3.49022L23.4141 4.0601C23.5646 4.21057 23.7687 4.29511 23.9816 4.29511C24.1944 4.29511 24.3985 4.21057 24.549 4.0601L25.1205 3.48861C25.7164 2.89164 26.4242 2.41804 27.2033 2.0949C27.9824 1.77176 28.8176 1.60543 29.6611 1.60543C30.5046 1.60543 31.3398 1.77176 32.1189 2.0949C32.8981 2.41804 33.6058 2.89164 34.2017 3.48861C35.404 4.69257 36.0794 6.32451 36.0794 8.026C36.0794 9.7275 35.404 11.3594 34.2017 12.5634L23.9816 22.7852Z" fill="#EB7124"/>
</g>
<defs>
<clipPath id="clip0_8988_42422">
<rect width="48" height="48" fill="white"/>
</clipPath>
</defs>
</svg>
