<svg width="48" height="48" viewBox="0 0 48 48" fill="none" xmlns="http://www.w3.org/2000/svg">
<g clip-path="url(#clip0_8988_42432)">
<path d="M16.3648 27.0288V31.4044C16.3648 31.734 16.6327 32.0019 16.9623 32.0019H31.0372C31.3668 32.0019 31.6347 31.734 31.6347 31.4044V27.0288C31.6347 24.2863 29.404 22.0557 26.6616 22.0557H21.3379C18.5954 22.0547 16.3648 24.2863 16.3648 27.0288ZM24.6012 29.1838L23.9997 30.6635L23.3983 29.1848L23.7946 25.0561H24.2049L24.6012 29.1838ZM24.3533 23.8611H23.6462L23.3853 23.2507H24.6152L24.3533 23.8611ZM30.4397 27.0288V30.8069H28.3415V26.8028C28.3415 26.4731 28.0736 26.2053 27.744 26.2053C27.4144 26.2053 27.1465 26.4731 27.1465 26.8028V30.8069H25.2316L25.7633 29.4984C25.8002 29.4088 25.8141 29.3122 25.8052 29.2166L25.357 24.5532L25.9137 23.2507H26.6606C28.7448 23.2497 30.4397 24.9456 30.4397 27.0288ZM21.3379 23.2497H22.0848L22.6415 24.5522L22.1933 29.2156C22.1844 29.3112 22.1983 29.4088 22.2352 29.4974L22.7669 30.8059H20.853V26.8018C20.853 26.4722 20.5851 26.2043 20.2555 26.2043C19.9259 26.2043 19.658 26.4722 19.658 26.8018V30.8059H17.5598V27.0278C17.5598 24.9456 19.2547 23.2497 21.3379 23.2497ZM23.9997 20.8946C26.07 20.8946 27.755 19.2097 27.755 17.1394C27.755 15.0691 26.07 13.3841 23.9997 13.3841C21.9294 13.3841 20.2445 15.0691 20.2445 17.1394C20.2445 19.2097 21.9294 20.8946 23.9997 20.8946ZM23.9997 14.5791C25.4118 14.5791 26.56 15.7273 26.56 17.1394C26.56 18.5514 25.4118 19.6996 23.9997 19.6996C22.5877 19.6996 21.4395 18.5514 21.4395 17.1394C21.4395 15.7273 22.5877 14.5791 23.9997 14.5791ZM47.513 34.128L41.7532 33.0376C41.5974 33.0083 41.4363 33.0419 41.3053 33.1312C41.1743 33.2204 41.0839 33.3579 41.0541 33.5136L40.8649 34.5134L36.4634 32.2569C34.8452 31.4273 33.0398 31.4692 31.2413 32.3773L23.4142 36.3307C22.8844 36.4881 22.4413 36.8376 22.1605 37.3196C21.8916 37.7816 21.806 38.3124 21.9085 38.8292C19.2188 37.8533 16.0501 36.8635 13.8593 38.4797C13.703 38.5952 13.2877 38.9019 13.2539 39.4626C13.226 39.9197 13.4411 40.3379 13.8285 40.5819L21.4833 45.4016C22.276 45.9005 23.1204 46.1515 24.0057 46.1515C24.3632 46.1515 24.7277 46.1107 25.0981 46.028L33.6253 44.133C34.0236 44.0443 34.3662 44.0254 34.7715 44.0682L38.9718 44.5173L38.6542 46.1973C38.6395 46.2744 38.6402 46.3536 38.6562 46.4305C38.6722 46.5073 38.7032 46.5802 38.7474 46.6451C38.7916 46.7099 38.8482 46.7654 38.9139 46.8083C38.9795 46.8513 39.0531 46.8809 39.1302 46.8954L44.89 47.9858C44.9268 47.9927 44.9637 47.9957 45.0015 47.9957C45.121 47.9957 45.2385 47.9599 45.3381 47.8922C45.4686 47.8025 45.5592 47.6651 45.589 47.5098L47.99 34.8241C48.0497 34.5024 47.8366 34.1897 47.513 34.128ZM34.899 42.8822C34.3642 42.8255 33.8912 42.8513 33.3664 42.9679L24.8402 44.8629C23.8603 45.081 22.9711 44.9266 22.1216 44.3919L14.4668 39.5721C14.4538 39.5642 14.4489 39.5592 14.4479 39.5492C14.4598 39.5343 14.4907 39.5014 14.5704 39.4427C16.4126 38.0834 19.5723 39.2445 22.1117 40.1766C22.5648 40.3429 23.0189 40.4514 23.472 40.5032C23.6532 40.552 23.8424 40.5789 24.0346 40.5789C24.2009 40.5789 24.3702 40.558 24.5385 40.5181C25.132 40.4674 25.7215 40.319 26.3061 40.07L30.2316 38.399C30.5353 38.2696 30.6767 37.9191 30.5472 37.6153C30.4178 37.3116 30.0673 37.1702 29.7635 37.2997L25.838 38.9706C25.125 39.2744 24.421 39.3919 23.708 39.3272C23.4152 39.2226 23.1772 38.9816 23.0916 38.659C22.9541 38.1401 23.2648 37.6054 23.7837 37.469C23.8245 37.458 23.8633 37.4431 23.9002 37.4241L31.7791 33.4439C32.7848 32.936 34.3194 32.5018 35.9167 33.3204L40.6319 35.7372L39.1929 43.3403L34.899 42.8822ZM44.5245 46.7032L39.9388 45.8358L42.1176 34.3242L46.7034 35.1915L44.5245 46.7032ZM13.9569 16.3337C14.8741 16.3337 15.8171 16.0957 16.7572 15.6207L24.5843 11.6673C25.1141 11.51 25.5572 11.1605 25.838 10.6785C26.1069 10.2164 26.1925 9.68567 26.09 9.16884C28.7797 10.1447 31.9484 11.1346 34.1391 9.51837C34.2955 9.40286 34.7107 9.09615 34.7446 8.5355C34.7725 8.07842 34.5574 7.66018 34.17 7.41621L26.5152 2.59645C25.4019 1.8954 24.186 1.68428 22.9004 1.97008L14.3742 3.86413C13.9759 3.95275 13.6333 3.97168 13.228 3.92886L9.02764 3.47974L9.3453 1.7998C9.35997 1.7227 9.35929 1.64347 9.3433 1.56663C9.32731 1.4898 9.29632 1.41687 9.2521 1.35203C9.20789 1.28719 9.15132 1.23171 9.08563 1.18876C9.01995 1.14581 8.94643 1.11623 8.8693 1.10173L3.1095 0.0103169C2.95371 -0.0189719 2.79266 0.0146788 2.66163 0.103898C2.5306 0.193117 2.44028 0.330631 2.41044 0.486317L0.0105182 13.172C-0.00415139 13.2491 -0.00347016 13.3284 0.0125229 13.4052C0.028516 13.482 0.0595069 13.555 0.103721 13.6198C0.147935 13.6846 0.204505 13.7401 0.270191 13.7831C0.335876 13.826 0.409389 13.8556 0.486518 13.8701L6.24632 14.9605C6.28317 14.9675 6.32001 14.9705 6.35785 14.9705C6.47735 14.9705 6.59486 14.9346 6.69444 14.8669C6.82489 14.7773 6.91551 14.6399 6.94539 14.4845L7.13459 13.4847L11.5361 15.7412C12.3079 16.1366 13.1214 16.3337 13.9569 16.3337ZM5.88185 13.6759L1.29612 12.8086L3.47496 1.29691L8.0607 2.16427L5.88185 13.6759ZM8.80458 4.6568L13.1005 5.11587C13.6353 5.17263 14.1083 5.14674 14.6331 5.03023L23.1593 3.13519C24.1392 2.91711 25.0284 3.07146 25.8779 3.60621L33.5327 8.42596C33.5456 8.43393 33.5506 8.43891 33.5516 8.44887C33.5397 8.4638 33.5088 8.49667 33.4291 8.55542C31.5869 9.91471 28.4271 8.75359 25.8878 7.8215C25.4347 7.6552 24.9816 7.54666 24.5295 7.49488C24.1794 7.39919 23.8107 7.39405 23.458 7.47994C22.8655 7.53072 22.276 7.6791 21.6924 7.92806L17.7669 9.59904C17.6402 9.653 17.5361 9.74908 17.4721 9.871C17.4081 9.99293 17.3881 10.1332 17.4157 10.2682C17.4432 10.4031 17.5165 10.5244 17.6231 10.6115C17.7298 10.6986 17.8632 10.7462 18.0009 10.7462C18.0786 10.7462 18.1583 10.7303 18.235 10.6984L22.1605 9.02744C22.8735 8.72371 23.5775 8.60621 24.2905 8.67093C24.5833 8.77549 24.8213 9.01648 24.9069 9.33913C25.0444 9.85795 24.7337 10.3927 24.2148 10.5291C24.174 10.5401 24.1352 10.555 24.0983 10.5739L16.2194 14.5542C15.2137 15.0621 13.6781 15.4963 12.0818 14.6777L7.36662 12.2609L8.80458 4.6568Z" fill="#EB7124"/>
</g>
<defs>
<clipPath id="clip0_8988_42432">
<rect width="48" height="48" fill="white"/>
</clipPath>
</defs>
</svg>
