<svg width="48" height="48" viewBox="0 0 48 48" fill="none" xmlns="http://www.w3.org/2000/svg">
<path d="M19.1352 39.3283C18.8025 39.0213 18.7788 38.5022 19.0827 38.1695C19.3896 37.8337 19.9088 37.81 20.2415 38.1169C21.255 39.045 22.4375 39.7516 23.7889 40.2367C25.1495 40.727 26.6884 40.9959 28.3992 41.0401H28.4435C33.4978 41.2771 36.6538 41.3522 38.306 40.7311C39.611 40.2409 39.851 39.0872 39.372 36.8099C39.1825 35.9106 39.9499 35.3184 39.9622 35.0877C39.9911 34.4975 39.6089 33.8176 39.6821 32.7608C39.7058 32.4075 39.9561 32.0954 40.3217 32.013C41.1859 31.8204 42.7773 31.9842 43.487 31.6309C43.7146 31.5166 43.7671 31.1931 43.3819 30.4165L40.3011 24.5248C40.1915 24.3424 40.1568 24.1246 40.2043 23.9171C42.8206 12.5539 34.2394 1.65112 22.5199 1.65112C12.4936 1.65112 4.36781 9.77696 4.36781 19.8001C4.36781 25.9843 6.23936 28.1824 8.24481 30.5422C10.7241 33.4499 13.3898 36.5863 13.5329 46.353H27.5886V42.648C24.376 42.441 21.4559 41.4511 19.1352 39.3283ZM23.5736 25.1624C23.9856 28.3596 22.6919 31.5537 20.157 33.5653C19.8037 33.8485 19.2866 33.7898 19.0034 33.4334C18.7201 33.0771 18.7788 32.56 19.1352 32.2767C21.2787 30.5741 22.3324 27.8621 21.9091 25.1613C21.083 25.1727 20.259 25.0625 19.4628 24.8348C18.6861 25.048 17.8714 25.1593 17.0391 25.1613C12.7965 25.1696 9.08016 22.3206 8.05838 18.2303C7.97907 17.9182 8.09031 17.6031 8.32103 17.4074C9.53234 16.3392 10.8405 15.6234 12.4112 15.2495C12.3268 13.6117 12.5781 11.9647 13.1529 10.4578C13.2693 10.1457 13.5587 9.95 13.8677 9.9294C14.8658 9.82125 15.8762 9.89747 16.8578 10.1488C17.5352 10.3228 18.1892 10.5777 18.8056 10.9079C19.609 9.23517 20.809 7.82713 22.2716 6.84655C22.4101 6.75478 22.5729 6.70679 22.739 6.70881C22.905 6.71083 23.0666 6.76277 23.2028 6.85788C24.6798 7.87657 25.8304 9.20221 26.6513 10.9079C27.2688 10.5777 27.9238 10.3228 28.6021 10.1488C29.5807 9.89747 30.5901 9.82228 31.5892 9.9294C31.9013 9.95 32.1876 10.1457 32.304 10.4578C32.8788 11.9647 33.1332 13.6107 33.0457 15.2495C34.6164 15.6234 35.9246 16.3382 37.1359 17.4074C37.2525 17.5061 37.3389 17.6356 37.3854 17.7811C37.4318 17.9267 37.4364 18.0823 37.3985 18.2303C36.3767 22.3206 32.6594 25.1706 28.4198 25.1613C27.5845 25.1583 26.7697 25.047 25.9931 24.8348C25.2068 25.0612 24.3917 25.1715 23.5736 25.1624ZM20.4464 23.3835C17.8477 20.4758 17.0391 16.2094 18.201 12.4519C17.0711 11.8071 15.8124 11.4858 14.5197 11.529C14.1025 12.8371 13.9501 14.239 14.0871 15.6223C14.4404 19.2315 16.8197 22.6512 20.4464 23.3835ZM27.2549 12.4519C28.4167 16.2094 27.6082 20.4758 25.0094 23.3835C28.5424 22.6687 30.9331 19.3603 31.342 15.8767C31.514 14.3966 31.3863 12.9371 30.9362 11.529C29.6435 11.4858 28.3879 11.8071 27.2549 12.4519ZM20.364 20.3615C20.9511 21.5264 21.7628 22.5245 22.729 23.2816C27.2487 19.7486 27.258 12.0842 22.729 8.54299C19.2434 11.2674 18.4142 16.4875 20.364 20.3615ZM32.8407 16.8965C32.3236 19.5271 30.8878 21.9652 28.7206 23.5154C31.9116 23.3959 34.6916 21.3255 35.664 18.3127C34.831 17.6504 33.8696 17.1681 32.8407 16.8965ZM16.7353 23.5154C14.5691 21.9652 13.1323 19.5271 12.6152 16.8965C11.5864 17.1685 10.6251 17.6508 9.7919 18.3127C10.7673 21.3255 13.5443 23.3959 16.7353 23.5154ZM41.874 23.9851L44.8518 29.6811C45.8035 31.5846 45.2926 32.5662 44.2183 33.1028C43.3974 33.5117 42.3025 33.5055 41.3682 33.5467C41.4702 34.104 41.634 34.5273 41.602 35.1618C41.5753 35.6758 41.3507 36.0178 41.1344 36.3412C41.0644 36.4493 40.9655 36.3968 40.9799 36.473C41.6597 39.7114 41.1725 41.4079 38.8838 42.269C37.0535 42.958 33.9995 42.9313 29.2284 42.7211V47.1739C29.2284 47.6292 28.8607 47.9969 28.4075 47.9969V48H12.7172C12.2444 48 11.8767 47.6199 11.8962 47.107C11.8849 37.3465 9.34693 34.3625 6.99643 31.6031C4.78085 28.9982 2.71875 26.5787 2.71875 19.7991C2.71875 8.86436 11.5831 0 22.5178 0C35.1644 0 44.5252 11.7082 41.874 23.9851Z" fill="#EB7124"/>
</svg>
